<svg xmlns="http://www.w3.org/2000/svg" xmlns:xlink="http://www.w3.org/1999/xlink" contentStyleType="text/css" data-diagram-type="CLASS" height="1072px" preserveAspectRatio="none" style="width:5739px;height:1072px;background:#FFFFFF;" version="1.1" viewBox="0 0 5739 1072" width="5739px" zoomAndPan="magnify"><defs/><g><!--cluster enums--><g class="cluster" data-entity="enums" data-source-line="8" data-uid="ent0002" id="cluster_enums"><path d="M229.5,732.7 L272.4998,732.7 A3.75,3.75 0 0 1 274.9998,735.2 L281.9998,757.1799 L414.5,757.1799 A2.5,2.5 0 0 1 417,759.6799 L417,1008.2 A2.5,2.5 0 0 1 414.5,1010.7 L229.5,1010.7 A2.5,2.5 0 0 1 227,1008.2 L227,735.2 A2.5,2.5 0 0 1 229.5,732.7" fill="none" style="stroke:#000000;stroke-width:1.5;"/><line style="stroke:#000000;stroke-width:1.5;" x1="227" x2="281.9998" y1="757.1799" y2="757.1799"/><text fill="#000000" font-family="JetBrains Mono" font-size="14" font-weight="bold" lengthAdjust="spacing" textLength="41.9998" x="231" y="748.9799">enums</text></g><!--cluster model--><g class="cluster" data-entity="model" data-source-line="23" data-uid="ent0005" id="cluster_model"><path d="M668.5,6.7 L711.4998,6.7 A3.75,3.75 0 0 1 713.9998,9.2 L720.9998,31.1799 L5730.28,31.1799 A2.5,2.5 0 0 1 5732.78,33.6799 L5732.78,771.2 A2.5,2.5 0 0 1 5730.28,773.7 L668.5,773.7 A2.5,2.5 0 0 1 666,771.2 L666,9.2 A2.5,2.5 0 0 1 668.5,6.7" fill="none" style="stroke:#000000;stroke-width:1.5;"/><line style="stroke:#000000;stroke-width:1.5;" x1="666" x2="720.9998" y1="31.1799" y2="31.1799"/><text fill="#000000" font-family="JetBrains Mono" font-size="14" font-weight="bold" lengthAdjust="spacing" textLength="41.9998" x="670" y="22.9799">model</text></g><!--cluster controller--><g class="cluster" data-entity="controller" data-source-line="143" data-uid="ent0034" id="cluster_controller"><path d="M8.5,403.7 L93.4996,403.7 A3.75,3.75 0 0 1 95.9996,406.2 L102.9996,428.1799 L635.5,428.1799 A2.5,2.5 0 0 1 638,430.6799 L638,612.2 A2.5,2.5 0 0 1 635.5,614.7 L8.5,614.7 A2.5,2.5 0 0 1 6,612.2 L6,406.2 A2.5,2.5 0 0 1 8.5,403.7" fill="none" style="stroke:#000000;stroke-width:1.5;"/><line style="stroke:#000000;stroke-width:1.5;" x1="6" x2="102.9996" y1="428.1799" y2="428.1799"/><text fill="#000000" font-family="JetBrains Mono" font-size="14" font-weight="bold" lengthAdjust="spacing" textLength="83.9996" x="10" y="419.9799">controller</text></g><!--cluster view--><g class="cluster" data-entity="view" data-source-line="156" data-uid="ent0036" id="cluster_view"><path d="M752.5,797.7 L787.0999,797.7 A3.75,3.75 0 0 1 789.5999,800.2 L796.5999,822.1799 L1879.89,822.1799 A2.5,2.5 0 0 1 1882.39,824.6799 L1882.39,1063.2 A2.5,2.5 0 0 1 1879.89,1065.7 L752.5,1065.7 A2.5,2.5 0 0 1 750,1063.2 L750,800.2 A2.5,2.5 0 0 1 752.5,797.7" fill="none" style="stroke:#000000;stroke-width:1.5;"/><line style="stroke:#000000;stroke-width:1.5;" x1="750" x2="796.5999" y1="822.1799" y2="822.1799"/><text fill="#000000" font-family="JetBrains Mono" font-size="14" font-weight="bold" lengthAdjust="spacing" textLength="33.5999" x="754" y="813.9799">view</text></g><!--cluster factory--><g class="cluster" data-entity="factory" data-source-line="182" data-uid="ent0040" id="cluster_factory"><path d="M75.7,91.7 L135.4997,91.7 A3.75,3.75 0 0 1 137.9997,94.2 L144.9997,116.1799 L568.3,116.1799 A2.5,2.5 0 0 1 570.8,118.6799 L570.8,293.2 A2.5,2.5 0 0 1 568.3,295.7 L75.7,295.7 A2.5,2.5 0 0 1 73.2,293.2 L73.2,94.2 A2.5,2.5 0 0 1 75.7,91.7" fill="none" style="stroke:#000000;stroke-width:1.5;"/><line style="stroke:#000000;stroke-width:1.5;" x1="73.2" x2="144.9997" y1="116.1799" y2="116.1799"/><text fill="#000000" font-family="JetBrains Mono" font-size="14" font-weight="bold" lengthAdjust="spacing" textLength="58.7997" x="77.2" y="107.9799">factory</text></g><!--class LinkDirection--><g class="entity" data-entity="LinkDirection" data-source-line="9" data-uid="ent0003" id="entity_LinkDirection"><rect fill="#F1F1F1" height="113.9197" rx="2.5" ry="2.5" style="stroke:#181818;stroke-width:0.5;" width="157.9995" x="243" y="880.74"/><ellipse cx="258" cy="896.74" fill="#EB937F" rx="11" ry="11" style="stroke:#181818;stroke-width:1;"/><path d="M261.4688,903.24 L254.1563,903.24 L254.1563,890.5681 L261.4688,890.5681 L261.4688,892.4431 L256.2031,892.4431 L256.2031,895.7087 L261.1563,895.7087 L261.1563,897.5681 L256.2031,897.5681 L256.2031,901.365 L261.4688,901.365 L261.4688,903.24 Z " fill="#000000"/><text fill="#000000" font-family="JetBrains Mono" font-size="14" lengthAdjust="spacing" textLength="125.9995" x="272" y="901.78">Link::Direction</text><line style="stroke:#181818;stroke-width:0.5;" x1="244" x2="399.9995" y1="912.74" y2="912.74"/><text fill="#000000" font-family="JetBrains Mono" font-size="14" lengthAdjust="spacing" textLength="41.9998" x="249" y="931.0199">NORTH</text><text fill="#000000" font-family="JetBrains Mono" font-size="14" lengthAdjust="spacing" textLength="41.9998" x="249" y="949.4998">SOUTH</text><text fill="#000000" font-family="JetBrains Mono" font-size="14" lengthAdjust="spacing" textLength="33.5999" x="249" y="967.9798">EAST</text><text fill="#000000" font-family="JetBrains Mono" font-size="14" lengthAdjust="spacing" textLength="33.5999" x="249" y="986.4597">WEST</text></g><!--class LinkType--><g class="entity" data-entity="LinkType" data-source-line="16" data-uid="ent0004" id="entity_LinkType"><rect fill="#F1F1F1" height="76.9598" rx="2.5" ry="2.5" style="stroke:#181818;stroke-width:0.5;" width="149.5995" x="247.2" y="769.22"/><ellipse cx="262.2" cy="785.22" fill="#EB937F" rx="11" ry="11" style="stroke:#181818;stroke-width:1;"/><path d="M265.6688,791.72 L258.3563,791.72 L258.3563,779.0481 L265.6688,779.0481 L265.6688,780.9231 L260.4031,780.9231 L260.4031,784.1887 L265.3563,784.1887 L265.3563,786.0481 L260.4031,786.0481 L260.4031,789.845 L265.6688,789.845 L265.6688,791.72 Z " fill="#000000"/><text fill="#000000" font-family="JetBrains Mono" font-size="14" lengthAdjust="spacing" textLength="117.5995" x="276.2" y="790.26">Link::LinkType</text><line style="stroke:#181818;stroke-width:0.5;" x1="248.2" x2="395.7995" y1="801.22" y2="801.22"/><text fill="#000000" font-family="JetBrains Mono" font-size="14" lengthAdjust="spacing" textLength="41.9998" x="253.2" y="819.4999">VIRUS</text><text fill="#000000" font-family="JetBrains Mono" font-size="14" lengthAdjust="spacing" textLength="33.5999" x="253.2" y="837.9798">DATA</text></g><!--class Game--><g class="entity" data-entity="Game" data-source-line="24" data-uid="ent0006" id="entity_Game"><rect fill="#F1F1F1" height="288.239" rx="2.5" ry="2.5" style="stroke:#181818;stroke-width:0.5;" width="549.5977" x="682" y="319.58"/><ellipse cx="935.7489" cy="335.58" fill="#ADD1B2" rx="11" ry="11" style="stroke:#181818;stroke-width:1;"/><path d="M935.8583,331.1112 Q934.9364,331.1112 934.202,331.4237 Q933.4833,331.7362 932.9833,332.33 Q932.4833,332.9081 932.202,333.7831 Q931.9364,334.6581 931.9364,335.7519 Q931.9364,337.1894 932.3739,338.2362 Q932.827,339.2831 933.6708,339.83 Q934.5302,340.3769 935.8427,340.3769 Q936.6239,340.3769 937.3114,340.2519 Q938.0145,340.1112 939.0145,339.7987 L939.0145,341.6737 Q938.1552,342.0019 937.3895,342.1269 Q936.6395,342.2519 935.6239,342.2519 Q933.702,342.2519 932.3895,341.455 Q931.0927,340.6425 930.4364,339.1737 Q929.7802,337.6894 929.7802,335.7206 Q929.7802,334.2987 930.1708,333.1269 Q930.577,331.9394 931.3583,331.0644 Q932.1395,330.1894 933.2802,329.7206 Q934.4208,329.2362 935.8895,329.2362 Q936.8427,329.2362 937.7333,329.4394 Q938.6395,329.6269 939.577,330.0956 L938.7489,331.8769 Q937.9677,331.5019 937.3114,331.3144 Q936.6552,331.1112 935.8583,331.1112 Z " fill="#000000"/><text fill="#000000" font-family="JetBrains Mono" font-size="14" lengthAdjust="spacing" textLength="33.5999" x="956.2489" y="340.62">Game</text><line style="stroke:#181818;stroke-width:0.5;" x1="683" x2="1230.5977" y1="351.58" y2="351.58"/><text fill="#000000" font-family="JetBrains Mono" font-size="14" lengthAdjust="spacing" textLength="377.9984" x="688" y="369.8599">-std::vector&lt;std::unique_ptr&lt;Player&gt;&gt; players</text><text fill="#000000" font-family="JetBrains Mono" font-size="14" lengthAdjust="spacing" textLength="193.1992" x="688" y="388.3398">-int currentPlayerIndex</text><text fill="#000000" font-family="JetBrains Mono" font-size="14" lengthAdjust="spacing" textLength="243.5989" x="688" y="406.8198">-std::unique_ptr&lt;Board&gt; board</text><text fill="#000000" font-family="JetBrains Mono" font-size="14" lengthAdjust="spacing" textLength="344.3985" x="688" y="425.2997">-std::shared_ptr&lt;LinkManager&gt; linkManager</text><text fill="#000000" font-family="JetBrains Mono" font-size="14" lengthAdjust="spacing" textLength="251.9989" x="688" y="443.7796">-std::queue&lt;update_type&gt; queue</text><line style="stroke:#181818;stroke-width:0.5;" x1="683" x2="1230.5977" y1="451.9796" y2="451.9796"/><text fill="#000000" font-family="JetBrains Mono" font-size="14" lengthAdjust="spacing" textLength="167.9993" x="688" y="470.2595">+void startGame(...)</text><text fill="#000000" font-family="JetBrains Mono" font-size="14" lengthAdjust="spacing" textLength="134.3994" x="688" y="488.7394">+void nextTurn()</text><text fill="#000000" font-family="JetBrains Mono" font-size="14" lengthAdjust="spacing" textLength="201.5991" x="688" y="507.2194">+Board&amp; getBoard() const</text><text fill="#000000" font-family="JetBrains Mono" font-size="14" lengthAdjust="spacing" textLength="193.1992" x="688" y="525.6993">+Player* checkWinLoss()</text><text fill="#000000" font-family="JetBrains Mono" font-size="14" lengthAdjust="spacing" textLength="226.799" x="688" y="544.1792">+Player* getCurrentPlayer()</text><text fill="#000000" font-family="JetBrains Mono" font-size="14" lengthAdjust="spacing" textLength="302.3987" x="688" y="562.6591">+LinkManager&amp; getLinkManager() const</text><text fill="#000000" font-family="JetBrains Mono" font-size="14" lengthAdjust="spacing" textLength="327.5986" x="688" y="581.139">+void makeMove(unsigned link, char dir)</text><text fill="#000000" font-family="JetBrains Mono" font-size="14" lengthAdjust="spacing" textLength="537.5977" x="688" y="599.619">+void useAbility(int id, const std::vector&lt;std::string&gt;&amp; params)</text></g><!--class Board--><g class="entity" data-entity="Board" data-source-line="41" data-uid="ent0007" id="entity_Board"><rect fill="#F1F1F1" height="158.8795" rx="2.5" ry="2.5" style="stroke:#181818;stroke-width:0.5;" width="767.9967" x="1291.6" y="146.26"/><ellipse cx="1650.3484" cy="162.26" fill="#ADD1B2" rx="11" ry="11" style="stroke:#181818;stroke-width:1;"/><path d="M1650.4578,157.7912 Q1649.5359,157.7912 1648.8016,158.1037 Q1648.0828,158.4162 1647.5828,159.01 Q1647.0828,159.5881 1646.8016,160.4631 Q1646.5359,161.3381 1646.5359,162.4319 Q1646.5359,163.8694 1646.9734,164.9162 Q1647.4266,165.9631 1648.2703,166.51 Q1649.1297,167.0569 1650.4422,167.0569 Q1651.2234,167.0569 1651.9109,166.9319 Q1652.6141,166.7912 1653.6141,166.4787 L1653.6141,168.3537 Q1652.7547,168.6819 1651.9891,168.8069 Q1651.2391,168.9319 1650.2234,168.9319 Q1648.3016,168.9319 1646.9891,168.135 Q1645.6922,167.3225 1645.0359,165.8537 Q1644.3797,164.3694 1644.3797,162.4006 Q1644.3797,160.9787 1644.7703,159.8069 Q1645.1766,158.6194 1645.9578,157.7444 Q1646.7391,156.8694 1647.8797,156.4006 Q1649.0203,155.9162 1650.4891,155.9162 Q1651.4422,155.9162 1652.3328,156.1194 Q1653.2391,156.3069 1654.1766,156.7756 L1653.3484,158.5569 Q1652.5672,158.1819 1651.9109,157.9944 Q1651.2547,157.7912 1650.4578,157.7912 Z " fill="#000000"/><text fill="#000000" font-family="JetBrains Mono" font-size="14" lengthAdjust="spacing" textLength="41.9998" x="1670.8484" y="167.3">Board</text><line style="stroke:#181818;stroke-width:0.5;" x1="1292.6" x2="2058.5967" y1="178.26" y2="178.26"/><text fill="#000000" font-family="JetBrains Mono" font-size="14" lengthAdjust="spacing" textLength="487.1979" x="1297.6" y="196.5399">-std::vector&lt;std::vector&lt;std::unique_ptr&lt;BaseCell&gt;&gt;&gt; board</text><text fill="#000000" font-family="JetBrains Mono" font-size="14" lengthAdjust="spacing" textLength="117.5995" x="1297.6" y="215.0198">-unsigned rows</text><text fill="#000000" font-family="JetBrains Mono" font-size="14" lengthAdjust="spacing" textLength="117.5995" x="1297.6" y="233.4998">-unsigned cols</text><line style="stroke:#181818;stroke-width:0.5;" x1="1292.6" x2="2058.5967" y1="241.6997" y2="241.6997"/><text fill="#000000" font-family="JetBrains Mono" font-size="14" lengthAdjust="spacing" textLength="755.9967" x="1297.6" y="259.9797">+void moveLink(std::pair&lt;int, int&gt; old_coords, std::pair&lt;int, int&gt; new_coords, Game* game)</text><text fill="#000000" font-family="JetBrains Mono" font-size="14" lengthAdjust="spacing" textLength="386.3983" x="1297.6" y="278.4596">+BaseCell&amp; getCell(std::pair&lt;int, int&gt; coords)</text><text fill="#000000" font-family="JetBrains Mono" font-size="14" lengthAdjust="spacing" textLength="512.3978" x="1297.6" y="296.9395">+void addFirewall(std::pair&lt;int, int&gt; coords, Player* player)</text></g><!--class LinkManager--><g class="entity" data-entity="LinkManager" data-source-line="51" data-uid="ent0008" id="entity_LinkManager"><rect fill="#F1F1F1" height="140.3996" rx="2.5" ry="2.5" style="stroke:#181818;stroke-width:0.5;" width="784.7966" x="3864.39" y="267.5"/><ellipse cx="4206.3385" cy="283.5" fill="#ADD1B2" rx="11" ry="11" style="stroke:#181818;stroke-width:1;"/><path d="M4206.4479,279.0312 Q4205.526,279.0312 4204.7916,279.3437 Q4204.0729,279.6562 4203.5729,280.25 Q4203.0729,280.8281 4202.7916,281.7031 Q4202.526,282.5781 4202.526,283.6719 Q4202.526,285.1094 4202.9635,286.1562 Q4203.4166,287.2031 4204.2604,287.75 Q4205.1198,288.2969 4206.4323,288.2969 Q4207.2135,288.2969 4207.901,288.1719 Q4208.6041,288.0312 4209.6041,287.7187 L4209.6041,289.5937 Q4208.7448,289.9219 4207.9791,290.0469 Q4207.2291,290.1719 4206.2135,290.1719 Q4204.2916,290.1719 4202.9791,289.375 Q4201.6823,288.5625 4201.026,287.0937 Q4200.3698,285.6094 4200.3698,283.6406 Q4200.3698,282.2187 4200.7604,281.0469 Q4201.1666,279.8594 4201.9479,278.9844 Q4202.7291,278.1094 4203.8698,277.6406 Q4205.0104,277.1562 4206.4791,277.1562 Q4207.4323,277.1562 4208.3229,277.3594 Q4209.2291,277.5469 4210.1666,278.0156 L4209.3385,279.7969 Q4208.5573,279.4219 4207.901,279.2344 Q4207.2448,279.0312 4206.4479,279.0312 Z " fill="#000000"/><text fill="#000000" font-family="JetBrains Mono" font-size="14" lengthAdjust="spacing" textLength="92.3996" x="4226.8385" y="288.54">LinkManager</text><line style="stroke:#181818;stroke-width:0.5;" x1="3865.39" x2="4648.1866" y1="299.5" y2="299.5"/><text fill="#000000" font-family="JetBrains Mono" font-size="14" lengthAdjust="spacing" textLength="520.7977" x="3870.39" y="317.7799">-std::map&lt;Player*, std::vector&lt;std::unique_ptr&lt;Link&gt;&gt;&gt; linkMap</text><line style="stroke:#181818;stroke-width:0.5;" x1="3865.39" x2="4648.1866" y1="325.9799" y2="325.9799"/><text fill="#000000" font-family="JetBrains Mono" font-size="14" lengthAdjust="spacing" textLength="772.7966" x="3870.39" y="344.2598">+void addLinksForPlayer(const std::vector&lt;std::string&gt;&amp; links, Player* player, Board* board)</text><text fill="#000000" font-family="JetBrains Mono" font-size="14" lengthAdjust="spacing" textLength="243.5989" x="3870.39" y="362.7398">+bool removeLink(LinkKey key)</text><text fill="#000000" font-family="JetBrains Mono" font-size="14" lengthAdjust="spacing" textLength="226.799" x="3870.39" y="381.2197">+Link&amp; getLink(LinkKey key)</text><text fill="#000000" font-family="JetBrains Mono" font-size="14" lengthAdjust="spacing" textLength="209.9991" x="3870.39" y="399.6996">+bool applyDecorator(...)</text></g><!--class BaseCell--><g class="entity" data-entity="BaseCell" data-source-line="59" data-uid="ent0009" id="entity_BaseCell"><rect fill="#F1F1F1" height="103.4398" rx="2.5" ry="2.5" style="stroke:#181818;stroke-width:0.5;" width="549.5977" x="2119.59" y="173.98"/><ellipse cx="2356.539" cy="189.98" fill="#A9DCDF" rx="11" ry="11" style="stroke:#181818;stroke-width:1;"/><path d="M2359.8827,195.23 L2358.414,191.48 L2353.9765,191.48 L2352.539,195.23 L2350.414,195.23 L2355.3671,182.5112 L2357.1171,182.5112 L2362.039,195.23 L2359.8827,195.23 Z M2356.539,186.2769 Q2356.4921,186.1206 2356.3671,185.7612 Q2356.2421,185.4019 2356.1327,185.0269 Q2356.0233,184.6362 2356.2265,184.5737 Q2356.3827,184.7612 2356.289,185.1206 Q2356.1952,185.4644 2356.1015,185.7612 Q2356.0077,186.0425 2355.9296,186.2769 L2354.6952,189.5894 L2357.7733,189.5894 L2356.539,186.2769 Z " fill="#000000"/><text fill="#000000" font-family="JetBrains Mono" font-size="14" font-style="italic" lengthAdjust="spacing" textLength="67.1997" x="2377.039" y="195.02">BaseCell</text><line style="stroke:#181818;stroke-width:0.5;" x1="2120.59" x2="2668.1877" y1="205.98" y2="205.98"/><text fill="#000000" font-family="JetBrains Mono" font-size="14" lengthAdjust="spacing" textLength="369.5984" x="2125.59" y="224.2599">#std::optional&lt;LinkManager::LinkKey&gt; linkKey</text><line style="stroke:#181818;stroke-width:0.5;" x1="2120.59" x2="2668.1877" y1="232.4599" y2="232.4599"/><text fill="#000000" font-family="JetBrains Mono" font-size="14" lengthAdjust="spacing" textLength="537.5977" x="2125.59" y="250.7398">+virtual void onEnter(LinkManager::LinkKey link, Game *game) = 0</text><text fill="#000000" font-family="JetBrains Mono" font-size="14" lengthAdjust="spacing" textLength="268.7988" x="2125.59" y="269.2198">+virtual bool isOccupied() const</text></g><!--class BoardCell--><g class="entity" data-entity="BoardCell" data-source-line="65" data-uid="ent0010" id="entity_BoardCell"><rect fill="#F1F1F1" height="58.4799" rx="2.5" ry="2.5" style="stroke:#181818;stroke-width:0.5;" width="448.7981" x="2729.19" y="85.46"/><ellipse cx="2911.5392" cy="101.46" fill="#ADD1B2" rx="11" ry="11" style="stroke:#181818;stroke-width:1;"/><path d="M2911.6486,96.9912 Q2910.7267,96.9912 2909.9923,97.3037 Q2909.2736,97.6162 2908.7736,98.21 Q2908.2736,98.7881 2907.9923,99.6631 Q2907.7267,100.5381 2907.7267,101.6319 Q2907.7267,103.0694 2908.1642,104.1162 Q2908.6173,105.1631 2909.4611,105.71 Q2910.3205,106.2569 2911.633,106.2569 Q2912.4142,106.2569 2913.1017,106.1319 Q2913.8048,105.9912 2914.8048,105.6787 L2914.8048,107.5537 Q2913.9455,107.8819 2913.1798,108.0069 Q2912.4298,108.1319 2911.4142,108.1319 Q2909.4923,108.1319 2908.1798,107.335 Q2906.883,106.5225 2906.2267,105.0537 Q2905.5705,103.5694 2905.5705,101.6006 Q2905.5705,100.1787 2905.9611,99.0069 Q2906.3673,97.8194 2907.1486,96.9444 Q2907.9298,96.0694 2909.0705,95.6006 Q2910.2111,95.1162 2911.6798,95.1162 Q2912.633,95.1162 2913.5236,95.3194 Q2914.4298,95.5069 2915.3673,95.9756 L2914.5392,97.7569 Q2913.758,97.3819 2913.1017,97.1944 Q2912.4455,96.9912 2911.6486,96.9912 Z " fill="#000000"/><text fill="#000000" font-family="JetBrains Mono" font-size="14" lengthAdjust="spacing" textLength="75.5997" x="2932.0392" y="106.5">BoardCell</text><line style="stroke:#181818;stroke-width:0.5;" x1="2730.19" x2="3176.9881" y1="117.46" y2="117.46"/><text fill="#000000" font-family="JetBrains Mono" font-size="14" lengthAdjust="spacing" textLength="436.7981" x="2735.19" y="135.7399">+void onEnter(LinkManager::LinkKey link, Game *game)</text></g><!--class PlayerCell--><g class="entity" data-entity="PlayerCell" data-source-line="69" data-uid="ent0011" id="entity_PlayerCell"><rect fill="#F1F1F1" height="76.9598" rx="2.5" ry="2.5" style="stroke:#181818;stroke-width:0.5;" width="272.3989" x="2817.39" y="224.22"/><ellipse cx="2907.3396" cy="240.22" fill="#A9DCDF" rx="11" ry="11" style="stroke:#181818;stroke-width:1;"/><path d="M2910.6834,245.47 L2909.2146,241.72 L2904.7771,241.72 L2903.3396,245.47 L2901.2146,245.47 L2906.1677,232.7512 L2907.9177,232.7512 L2912.8396,245.47 L2910.6834,245.47 Z M2907.3396,236.5169 Q2907.2927,236.3606 2907.1677,236.0012 Q2907.0427,235.6419 2906.9334,235.2669 Q2906.824,234.8762 2907.0271,234.8137 Q2907.1834,235.0012 2907.0896,235.3606 Q2906.9959,235.7044 2906.9021,236.0012 Q2906.8084,236.2825 2906.7302,236.5169 L2905.4959,239.8294 L2908.574,239.8294 L2907.3396,236.5169 Z " fill="#000000"/><text fill="#000000" font-family="JetBrains Mono" font-size="14" font-style="italic" lengthAdjust="spacing" textLength="83.9996" x="2927.8396" y="245.26">PlayerCell</text><line style="stroke:#181818;stroke-width:0.5;" x1="2818.39" x2="3088.7889" y1="256.22" y2="256.22"/><text fill="#000000" font-family="JetBrains Mono" font-size="14" lengthAdjust="spacing" textLength="260.3989" x="2823.39" y="274.4999">#std::unique_ptr&lt;BaseCell&gt; base</text><text fill="#000000" font-family="JetBrains Mono" font-size="14" lengthAdjust="spacing" textLength="117.5995" x="2823.39" y="292.9798">#Player* owner</text></g><!--class Server--><g class="entity" data-entity="Server" data-source-line="74" data-uid="ent0012" id="entity_Server"><rect fill="#F1F1F1" height="58.4799" rx="2.5" ry="2.5" style="stroke:#181818;stroke-width:0.5;" width="448.7981" x="3296.79" y="331.46"/><ellipse cx="3491.7392" cy="347.46" fill="#ADD1B2" rx="11" ry="11" style="stroke:#181818;stroke-width:1;"/><path d="M3491.8485,342.9912 Q3490.9267,342.9912 3490.1923,343.3037 Q3489.4735,343.6162 3488.9735,344.21 Q3488.4735,344.7881 3488.1923,345.6631 Q3487.9267,346.5381 3487.9267,347.6319 Q3487.9267,349.0694 3488.3642,350.1162 Q3488.8173,351.1631 3489.661,351.71 Q3490.5204,352.2569 3491.8329,352.2569 Q3492.6142,352.2569 3493.3017,352.1319 Q3494.0048,351.9912 3495.0048,351.6787 L3495.0048,353.5537 Q3494.1454,353.8819 3493.3798,354.0069 Q3492.6298,354.1319 3491.6142,354.1319 Q3489.6923,354.1319 3488.3798,353.335 Q3487.0829,352.5225 3486.4267,351.0537 Q3485.7704,349.5694 3485.7704,347.6006 Q3485.7704,346.1787 3486.161,345.0069 Q3486.5673,343.8194 3487.3485,342.9444 Q3488.1298,342.0694 3489.2704,341.6006 Q3490.411,341.1162 3491.8798,341.1162 Q3492.8329,341.1162 3493.7235,341.3194 Q3494.6298,341.5069 3495.5673,341.9756 L3494.7392,343.7569 Q3493.9579,343.3819 3493.3017,343.1944 Q3492.6454,342.9912 3491.8485,342.9912 Z " fill="#000000"/><text fill="#000000" font-family="JetBrains Mono" font-size="14" lengthAdjust="spacing" textLength="50.3998" x="3512.2392" y="352.5">Server</text><line style="stroke:#181818;stroke-width:0.5;" x1="3297.79" x2="3744.5881" y1="363.46" y2="363.46"/><text fill="#000000" font-family="JetBrains Mono" font-size="14" lengthAdjust="spacing" textLength="436.7981" x="3302.79" y="381.7399">+void onEnter(LinkManager::LinkKey link, Game *game)</text></g><!--class Firewall--><g class="entity" data-entity="Firewall" data-source-line="78" data-uid="ent0013" id="entity_Firewall"><rect fill="#F1F1F1" height="58.4799" rx="2.5" ry="2.5" style="stroke:#181818;stroke-width:0.5;" width="448.7981" x="3296.79" y="238.46"/><ellipse cx="3483.3392" cy="254.46" fill="#ADD1B2" rx="11" ry="11" style="stroke:#181818;stroke-width:1;"/><path d="M3483.4486,249.9912 Q3482.5267,249.9912 3481.7923,250.3037 Q3481.0736,250.6162 3480.5736,251.21 Q3480.0736,251.7881 3479.7923,252.6631 Q3479.5267,253.5381 3479.5267,254.6319 Q3479.5267,256.0694 3479.9642,257.1162 Q3480.4173,258.1631 3481.2611,258.71 Q3482.1204,259.2569 3483.4329,259.2569 Q3484.2142,259.2569 3484.9017,259.1319 Q3485.6048,258.9912 3486.6048,258.6787 L3486.6048,260.5537 Q3485.7454,260.8819 3484.9798,261.0069 Q3484.2298,261.1319 3483.2142,261.1319 Q3481.2923,261.1319 3479.9798,260.335 Q3478.6829,259.5225 3478.0267,258.0537 Q3477.3704,256.5694 3477.3704,254.6006 Q3477.3704,253.1787 3477.7611,252.0069 Q3478.1673,250.8194 3478.9486,249.9444 Q3479.7298,249.0694 3480.8704,248.6006 Q3482.0111,248.1162 3483.4798,248.1162 Q3484.4329,248.1162 3485.3236,248.3194 Q3486.2298,248.5069 3487.1673,248.9756 L3486.3392,250.7569 Q3485.5579,250.3819 3484.9017,250.1944 Q3484.2454,249.9912 3483.4486,249.9912 Z " fill="#000000"/><text fill="#000000" font-family="JetBrains Mono" font-size="14" lengthAdjust="spacing" textLength="67.1997" x="3503.8392" y="259.5">Firewall</text><line style="stroke:#181818;stroke-width:0.5;" x1="3297.79" x2="3744.5881" y1="270.46" y2="270.46"/><text fill="#000000" font-family="JetBrains Mono" font-size="14" lengthAdjust="spacing" textLength="436.7981" x="3302.79" y="288.7399">+void onEnter(LinkManager::LinkKey link, Game *game)</text></g><!--class Goal--><g class="entity" data-entity="Goal" data-source-line="82" data-uid="ent0014" id="entity_Goal"><rect fill="#F1F1F1" height="58.4799" rx="2.5" ry="2.5" style="stroke:#181818;stroke-width:0.5;" width="448.7981" x="3296.79" y="145.46"/><ellipse cx="3500.1391" cy="161.46" fill="#ADD1B2" rx="11" ry="11" style="stroke:#181818;stroke-width:1;"/><path d="M3500.2485,156.9912 Q3499.3266,156.9912 3498.5922,157.3037 Q3497.8735,157.6162 3497.3735,158.21 Q3496.8735,158.7881 3496.5922,159.6631 Q3496.3266,160.5381 3496.3266,161.6319 Q3496.3266,163.0694 3496.7641,164.1162 Q3497.2172,165.1631 3498.061,165.71 Q3498.9204,166.2569 3500.2329,166.2569 Q3501.0141,166.2569 3501.7016,166.1319 Q3502.4047,165.9912 3503.4047,165.6787 L3503.4047,167.5537 Q3502.5454,167.8819 3501.7797,168.0069 Q3501.0297,168.1319 3500.0141,168.1319 Q3498.0922,168.1319 3496.7797,167.335 Q3495.4829,166.5225 3494.8266,165.0537 Q3494.1704,163.5694 3494.1704,161.6006 Q3494.1704,160.1787 3494.561,159.0069 Q3494.9672,157.8194 3495.7485,156.9444 Q3496.5297,156.0694 3497.6704,155.6006 Q3498.811,155.1162 3500.2797,155.1162 Q3501.2329,155.1162 3502.1235,155.3194 Q3503.0297,155.5069 3503.9672,155.9756 L3503.1391,157.7569 Q3502.3579,157.3819 3501.7016,157.1944 Q3501.0454,156.9912 3500.2485,156.9912 Z " fill="#000000"/><text fill="#000000" font-family="JetBrains Mono" font-size="14" lengthAdjust="spacing" textLength="33.5999" x="3520.6391" y="166.5">Goal</text><line style="stroke:#181818;stroke-width:0.5;" x1="3297.79" x2="3744.5881" y1="177.46" y2="177.46"/><text fill="#000000" font-family="JetBrains Mono" font-size="14" lengthAdjust="spacing" textLength="436.7981" x="3302.79" y="195.7399">+void onEnter(LinkManager::LinkKey link, Game *game)</text></g><!--class Player--><g class="entity" data-entity="Player" data-source-line="86" data-uid="ent0015" id="entity_Player"><rect fill="#F1F1F1" height="158.8795" rx="2.5" ry="2.5" style="stroke:#181818;stroke-width:0.5;" width="566.3976" x="3237.99" y="461.26"/><ellipse cx="3491.7389" cy="477.26" fill="#ADD1B2" rx="11" ry="11" style="stroke:#181818;stroke-width:1;"/><path d="M3491.8483,472.7912 Q3490.9264,472.7912 3490.192,473.1037 Q3489.4733,473.4162 3488.9733,474.01 Q3488.4733,474.5881 3488.192,475.4631 Q3487.9264,476.3381 3487.9264,477.4319 Q3487.9264,478.8694 3488.3639,479.9162 Q3488.817,480.9631 3489.6608,481.51 Q3490.5202,482.0569 3491.8327,482.0569 Q3492.6139,482.0569 3493.3014,481.9319 Q3494.0045,481.7912 3495.0045,481.4787 L3495.0045,483.3537 Q3494.1452,483.6819 3493.3795,483.8069 Q3492.6295,483.9319 3491.6139,483.9319 Q3489.692,483.9319 3488.3795,483.135 Q3487.0827,482.3225 3486.4264,480.8537 Q3485.7702,479.3694 3485.7702,477.4006 Q3485.7702,475.9787 3486.1608,474.8069 Q3486.567,473.6194 3487.3483,472.7444 Q3488.1295,471.8694 3489.2702,471.4006 Q3490.4108,470.9162 3491.8795,470.9162 Q3492.8327,470.9162 3493.7233,471.1194 Q3494.6295,471.3069 3495.567,471.7756 L3494.7389,473.5569 Q3493.9577,473.1819 3493.3014,472.9944 Q3492.6452,472.7912 3491.8483,472.7912 Z " fill="#000000"/><text fill="#000000" font-family="JetBrains Mono" font-size="14" lengthAdjust="spacing" textLength="50.3998" x="3512.2389" y="482.3">Player</text><line style="stroke:#181818;stroke-width:0.5;" x1="3238.99" x2="3803.3876" y1="493.26" y2="493.26"/><text fill="#000000" font-family="JetBrains Mono" font-size="14" lengthAdjust="spacing" textLength="218.399" x="3243.99" y="511.5399">-std::pair&lt;int, int&gt; score</text><text fill="#000000" font-family="JetBrains Mono" font-size="14" lengthAdjust="spacing" textLength="403.1982" x="3243.99" y="530.0198">-std::vector&lt;std::unique_ptr&lt;Ability&gt;&gt; abilities</text><text fill="#000000" font-family="JetBrains Mono" font-size="14" lengthAdjust="spacing" textLength="344.3985" x="3243.99" y="548.4998">-std::shared_ptr&lt;LinkManager&gt; linkManager</text><line style="stroke:#181818;stroke-width:0.5;" x1="3238.99" x2="3803.3876" y1="556.6997" y2="556.6997"/><text fill="#000000" font-family="JetBrains Mono" font-size="14" lengthAdjust="spacing" textLength="310.7986" x="3243.99" y="574.9797">+std::pair&lt;int, int&gt; getScore() const</text><text fill="#000000" font-family="JetBrains Mono" font-size="14" lengthAdjust="spacing" textLength="554.3976" x="3243.99" y="593.4596">+const std::vector&lt;std::unique_ptr&lt;Ability&gt;&gt;&amp; getAbilities() const</text><text fill="#000000" font-family="JetBrains Mono" font-size="14" lengthAdjust="spacing" textLength="369.5984" x="3243.99" y="611.9395">+void download(LinkManager::LinkKey linkKey)</text></g><!--class Link--><g class="entity" data-entity="Link" data-source-line="96" data-uid="ent0016" id="entity_Link"><rect fill="#F1F1F1" height="177.3594" rx="2.5" ry="2.5" style="stroke:#181818;stroke-width:0.5;" width="381.5984" x="4709.18" y="44.02"/><ellipse cx="4878.9293" cy="60.02" fill="#A9DCDF" rx="11" ry="11" style="stroke:#181818;stroke-width:1;"/><path d="M4882.273,65.27 L4880.8043,61.52 L4876.3668,61.52 L4874.9293,65.27 L4872.8043,65.27 L4877.7574,52.5512 L4879.5074,52.5512 L4884.4293,65.27 L4882.273,65.27 Z M4878.9293,56.3169 Q4878.8824,56.1606 4878.7574,55.8012 Q4878.6324,55.4419 4878.523,55.0669 Q4878.4136,54.6762 4878.6168,54.6137 Q4878.773,54.8012 4878.6793,55.1606 Q4878.5855,55.5044 4878.4918,55.8012 Q4878.398,56.0825 4878.3199,56.3169 L4877.0855,59.6294 L4880.1636,59.6294 L4878.9293,56.3169 Z " fill="#000000"/><text fill="#000000" font-family="JetBrains Mono" font-size="14" font-style="italic" lengthAdjust="spacing" textLength="33.5999" x="4899.4293" y="65.06">Link</text><line style="stroke:#181818;stroke-width:0.5;" x1="4710.18" x2="5089.7784" y1="76.02" y2="76.02"/><text fill="#000000" font-family="JetBrains Mono" font-size="14" lengthAdjust="spacing" textLength="226.799" x="4715.18" y="94.2999">#std::pair&lt;int, int&gt; coords</text><text fill="#000000" font-family="JetBrains Mono" font-size="14" lengthAdjust="spacing" textLength="117.5995" x="4715.18" y="112.7798">#Player* owner</text><text fill="#000000" font-family="JetBrains Mono" font-size="14" lengthAdjust="spacing" textLength="109.1995" x="4715.18" y="131.2598">#Board* board</text><text fill="#000000" font-family="JetBrains Mono" font-size="14" lengthAdjust="spacing" textLength="109.1995" x="4715.18" y="149.7397">#int strength</text><line style="stroke:#181818;stroke-width:0.5;" x1="4710.18" x2="5089.7784" y1="157.9397" y2="157.9397"/><text fill="#000000" font-family="JetBrains Mono" font-size="14" lengthAdjust="spacing" textLength="310.7986" x="4715.18" y="176.2196">+virtual LinkType getType() const = 0</text><text fill="#000000" font-family="JetBrains Mono" font-size="14" lengthAdjust="spacing" textLength="302.3987" x="4715.18" y="194.6995">+virtual bool getRevealState() const</text><text fill="#000000" font-family="JetBrains Mono" font-size="14" lengthAdjust="spacing" textLength="369.5984" x="4715.18" y="213.1794">+void requestMove(Direction dir, Game* game)</text></g><!--class VirusLink--><g class="entity" data-entity="VirusLink" data-source-line="107" data-uid="ent0017" id="entity_VirusLink"><rect fill="#F1F1F1" height="32" rx="2.5" ry="2.5" style="stroke:#181818;stroke-width:0.5;" width="107.5997" x="5216.38" y="263.7"/><ellipse cx="5231.38" cy="279.7" fill="#ADD1B2" rx="11" ry="11" style="stroke:#181818;stroke-width:1;"/><path d="M5231.4894,275.2312 Q5230.5675,275.2312 5229.8331,275.5437 Q5229.1144,275.8562 5228.6144,276.45 Q5228.1144,277.0281 5227.8331,277.9031 Q5227.5675,278.7781 5227.5675,279.8719 Q5227.5675,281.3094 5228.005,282.3562 Q5228.4581,283.4031 5229.3019,283.95 Q5230.1613,284.4969 5231.4738,284.4969 Q5232.255,284.4969 5232.9425,284.3719 Q5233.6456,284.2312 5234.6456,283.9187 L5234.6456,285.7937 Q5233.7863,286.1219 5233.0206,286.2469 Q5232.2706,286.3719 5231.255,286.3719 Q5229.3331,286.3719 5228.0206,285.575 Q5226.7238,284.7625 5226.0675,283.2937 Q5225.4113,281.8094 5225.4113,279.8406 Q5225.4113,278.4187 5225.8019,277.2469 Q5226.2081,276.0594 5226.9894,275.1844 Q5227.7706,274.3094 5228.9113,273.8406 Q5230.0519,273.3562 5231.5206,273.3562 Q5232.4738,273.3562 5233.3644,273.5594 Q5234.2706,273.7469 5235.2081,274.2156 L5234.38,275.9969 Q5233.5988,275.6219 5232.9425,275.4344 Q5232.2863,275.2312 5231.4894,275.2312 Z " fill="#000000"/><text fill="#000000" font-family="JetBrains Mono" font-size="14" lengthAdjust="spacing" textLength="75.5997" x="5245.38" y="284.74">VirusLink</text></g><!--class DataLink--><g class="entity" data-entity="DataLink" data-source-line="108" data-uid="ent0018" id="entity_DataLink"><rect fill="#F1F1F1" height="32" rx="2.5" ry="2.5" style="stroke:#181818;stroke-width:0.5;" width="99.1997" x="5220.58" y="196.7"/><ellipse cx="5235.58" cy="212.7" fill="#ADD1B2" rx="11" ry="11" style="stroke:#181818;stroke-width:1;"/><path d="M5235.6894,208.2312 Q5234.7675,208.2312 5234.0331,208.5437 Q5233.3144,208.8562 5232.8144,209.45 Q5232.3144,210.0281 5232.0331,210.9031 Q5231.7675,211.7781 5231.7675,212.8719 Q5231.7675,214.3094 5232.205,215.3562 Q5232.6581,216.4031 5233.5019,216.95 Q5234.3613,217.4969 5235.6738,217.4969 Q5236.455,217.4969 5237.1425,217.3719 Q5237.8456,217.2312 5238.8456,216.9187 L5238.8456,218.7937 Q5237.9863,219.1219 5237.2206,219.2469 Q5236.4706,219.3719 5235.455,219.3719 Q5233.5331,219.3719 5232.2206,218.575 Q5230.9238,217.7625 5230.2675,216.2937 Q5229.6113,214.8094 5229.6113,212.8406 Q5229.6113,211.4187 5230.0019,210.2469 Q5230.4081,209.0594 5231.1894,208.1844 Q5231.9706,207.3094 5233.1113,206.8406 Q5234.2519,206.3562 5235.7206,206.3562 Q5236.6738,206.3562 5237.5644,206.5594 Q5238.4706,206.7469 5239.4081,207.2156 L5238.58,208.9969 Q5237.7988,208.6219 5237.1425,208.4344 Q5236.4863,208.2312 5235.6894,208.2312 Z " fill="#000000"/><text fill="#000000" font-family="JetBrains Mono" font-size="14" lengthAdjust="spacing" textLength="67.1997" x="5249.58" y="217.74">DataLink</text></g><!--class LinkDecorator--><g class="entity" data-entity="LinkDecorator" data-source-line="110" data-uid="ent0019" id="entity_LinkDecorator"><rect fill="#F1F1F1" height="58.4799" rx="2.5" ry="2.5" style="stroke:#181818;stroke-width:0.5;" width="238.799" x="5150.78" y="103.46"/><ellipse cx="5211.3297" cy="119.46" fill="#A9DCDF" rx="11" ry="11" style="stroke:#181818;stroke-width:1;"/><path d="M5214.6735,124.71 L5213.2047,120.96 L5208.7672,120.96 L5207.3297,124.71 L5205.2047,124.71 L5210.1579,111.9912 L5211.9079,111.9912 L5216.8297,124.71 L5214.6735,124.71 Z M5211.3297,115.7569 Q5211.2829,115.6006 5211.1579,115.2412 Q5211.0329,114.8819 5210.9235,114.5069 Q5210.8141,114.1162 5211.0172,114.0537 Q5211.1735,114.2412 5211.0797,114.6006 Q5210.986,114.9444 5210.8922,115.2412 Q5210.7985,115.5225 5210.7204,115.7569 L5209.486,119.0694 L5212.5641,119.0694 L5211.3297,115.7569 Z " fill="#000000"/><text fill="#000000" font-family="JetBrains Mono" font-size="14" font-style="italic" lengthAdjust="spacing" textLength="109.1995" x="5231.8297" y="124.5">LinkDecorator</text><line style="stroke:#181818;stroke-width:0.5;" x1="5151.78" x2="5388.579" y1="135.46" y2="135.46"/><text fill="#000000" font-family="JetBrains Mono" font-size="14" lengthAdjust="spacing" textLength="226.799" x="5156.78" y="153.7399">#std::unique_ptr&lt;Link&gt; base</text></g><!--class LinkBoostDecorator--><g class="entity" data-entity="LinkBoostDecorator" data-source-line="114" data-uid="ent0020" id="entity_LinkBoostDecorator"><rect fill="#F1F1F1" height="32" rx="2.5" ry="2.5" style="stroke:#181818;stroke-width:0.5;" width="183.1993" x="5491.58" y="363.7"/><ellipse cx="5506.58" cy="379.7" fill="#ADD1B2" rx="11" ry="11" style="stroke:#181818;stroke-width:1;"/><path d="M5506.6894,375.2312 Q5505.7675,375.2312 5505.0331,375.5437 Q5504.3144,375.8562 5503.8144,376.45 Q5503.3144,377.0281 5503.0331,377.9031 Q5502.7675,378.7781 5502.7675,379.8719 Q5502.7675,381.3094 5503.205,382.3562 Q5503.6581,383.4031 5504.5019,383.95 Q5505.3613,384.4969 5506.6738,384.4969 Q5507.455,384.4969 5508.1425,384.3719 Q5508.8456,384.2312 5509.8456,383.9187 L5509.8456,385.7937 Q5508.9863,386.1219 5508.2206,386.2469 Q5507.4706,386.3719 5506.455,386.3719 Q5504.5331,386.3719 5503.2206,385.575 Q5501.9238,384.7625 5501.2675,383.2937 Q5500.6113,381.8094 5500.6113,379.8406 Q5500.6113,378.4187 5501.0019,377.2469 Q5501.4081,376.0594 5502.1894,375.1844 Q5502.9706,374.3094 5504.1113,373.8406 Q5505.2519,373.3562 5506.7206,373.3562 Q5507.6738,373.3562 5508.5644,373.5594 Q5509.4706,373.7469 5510.4081,374.2156 L5509.58,375.9969 Q5508.7988,375.6219 5508.1425,375.4344 Q5507.4863,375.2312 5506.6894,375.2312 Z " fill="#000000"/><text fill="#000000" font-family="JetBrains Mono" font-size="14" lengthAdjust="spacing" textLength="151.1993" x="5520.58" y="384.74">LinkBoostDecorator</text></g><!--class PolarizeDecorator--><g class="entity" data-entity="PolarizeDecorator" data-source-line="115" data-uid="ent0021" id="entity_PolarizeDecorator"><rect fill="#F1F1F1" height="32" rx="2.5" ry="2.5" style="stroke:#181818;stroke-width:0.5;" width="174.7994" x="5495.78" y="296.7"/><ellipse cx="5510.78" cy="312.7" fill="#ADD1B2" rx="11" ry="11" style="stroke:#181818;stroke-width:1;"/><path d="M5510.8894,308.2312 Q5509.9675,308.2312 5509.2331,308.5437 Q5508.5144,308.8562 5508.0144,309.45 Q5507.5144,310.0281 5507.2331,310.9031 Q5506.9675,311.7781 5506.9675,312.8719 Q5506.9675,314.3094 5507.405,315.3562 Q5507.8581,316.4031 5508.7019,316.95 Q5509.5613,317.4969 5510.8738,317.4969 Q5511.655,317.4969 5512.3425,317.3719 Q5513.0456,317.2312 5514.0456,316.9187 L5514.0456,318.7937 Q5513.1863,319.1219 5512.4206,319.2469 Q5511.6706,319.3719 5510.655,319.3719 Q5508.7331,319.3719 5507.4206,318.575 Q5506.1238,317.7625 5505.4675,316.2937 Q5504.8113,314.8094 5504.8113,312.8406 Q5504.8113,311.4187 5505.2019,310.2469 Q5505.6081,309.0594 5506.3894,308.1844 Q5507.1706,307.3094 5508.3113,306.8406 Q5509.4519,306.3562 5510.9206,306.3562 Q5511.8738,306.3562 5512.7644,306.5594 Q5513.6706,306.7469 5514.6081,307.2156 L5513.78,308.9969 Q5512.9988,308.6219 5512.3425,308.4344 Q5511.6863,308.2312 5510.8894,308.2312 Z " fill="#000000"/><text fill="#000000" font-family="JetBrains Mono" font-size="14" lengthAdjust="spacing" textLength="142.7994" x="5524.78" y="317.74">PolarizeDecorator</text></g><!--class RevealDecorator--><g class="entity" data-entity="RevealDecorator" data-source-line="116" data-uid="ent0022" id="entity_RevealDecorator"><rect fill="#F1F1F1" height="32" rx="2.5" ry="2.5" style="stroke:#181818;stroke-width:0.5;" width="157.9995" x="5504.18" y="229.7"/><ellipse cx="5519.18" cy="245.7" fill="#ADD1B2" rx="11" ry="11" style="stroke:#181818;stroke-width:1;"/><path d="M5519.2894,241.2312 Q5518.3675,241.2312 5517.6331,241.5437 Q5516.9144,241.8562 5516.4144,242.45 Q5515.9144,243.0281 5515.6331,243.9031 Q5515.3675,244.7781 5515.3675,245.8719 Q5515.3675,247.3094 5515.805,248.3562 Q5516.2581,249.4031 5517.1019,249.95 Q5517.9613,250.4969 5519.2738,250.4969 Q5520.055,250.4969 5520.7425,250.3719 Q5521.4456,250.2312 5522.4456,249.9187 L5522.4456,251.7937 Q5521.5863,252.1219 5520.8206,252.2469 Q5520.0706,252.3719 5519.055,252.3719 Q5517.1331,252.3719 5515.8206,251.575 Q5514.5238,250.7625 5513.8675,249.2937 Q5513.2113,247.8094 5513.2113,245.8406 Q5513.2113,244.4187 5513.6019,243.2469 Q5514.0081,242.0594 5514.7894,241.1844 Q5515.5706,240.3094 5516.7113,239.8406 Q5517.8519,239.3562 5519.3206,239.3562 Q5520.2738,239.3562 5521.1644,239.5594 Q5522.0706,239.7469 5523.0081,240.2156 L5522.18,241.9969 Q5521.3988,241.6219 5520.7425,241.4344 Q5520.0863,241.2312 5519.2894,241.2312 Z " fill="#000000"/><text fill="#000000" font-family="JetBrains Mono" font-size="14" lengthAdjust="spacing" textLength="125.9995" x="5533.18" y="250.74">RevealDecorator</text></g><!--class LagDecorator--><g class="entity" data-entity="LagDecorator" data-source-line="117" data-uid="ent0023" id="entity_LagDecorator"><rect fill="#F1F1F1" height="58.4799" rx="2.5" ry="2.5" style="stroke:#181818;stroke-width:0.5;" width="132.7996" x="5516.78" y="136.46"/><ellipse cx="5531.78" cy="152.46" fill="#ADD1B2" rx="11" ry="11" style="stroke:#181818;stroke-width:1;"/><path d="M5531.8894,147.9912 Q5530.9675,147.9912 5530.2331,148.3037 Q5529.5144,148.6162 5529.0144,149.21 Q5528.5144,149.7881 5528.2331,150.6631 Q5527.9675,151.5381 5527.9675,152.6319 Q5527.9675,154.0694 5528.405,155.1162 Q5528.8581,156.1631 5529.7019,156.71 Q5530.5613,157.2569 5531.8738,157.2569 Q5532.655,157.2569 5533.3425,157.1319 Q5534.0456,156.9912 5535.0456,156.6787 L5535.0456,158.5537 Q5534.1863,158.8819 5533.4206,159.0069 Q5532.6706,159.1319 5531.655,159.1319 Q5529.7331,159.1319 5528.4206,158.335 Q5527.1238,157.5225 5526.4675,156.0537 Q5525.8113,154.5694 5525.8113,152.6006 Q5525.8113,151.1787 5526.2019,150.0069 Q5526.6081,148.8194 5527.3894,147.9444 Q5528.1706,147.0694 5529.3113,146.6006 Q5530.4519,146.1162 5531.9206,146.1162 Q5532.8738,146.1162 5533.7644,146.3194 Q5534.6706,146.5069 5535.6081,146.9756 L5534.78,148.7569 Q5533.9988,148.3819 5533.3425,148.1944 Q5532.6863,147.9912 5531.8894,147.9912 Z " fill="#000000"/><text fill="#000000" font-family="JetBrains Mono" font-size="14" lengthAdjust="spacing" textLength="100.7996" x="5545.78" y="157.5">LagDecorator</text><line style="stroke:#181818;stroke-width:0.5;" x1="5517.78" x2="5648.5796" y1="168.46" y2="168.46"/><text fill="#000000" font-family="JetBrains Mono" font-size="14" lengthAdjust="spacing" textLength="117.5995" x="5522.78" y="186.7399">-int turnsLeft</text></g><!--class QuantumEntanglementDecorator--><g class="entity" data-entity="QuantumEntanglementDecorator" data-source-line="120" data-uid="ent0024" id="entity_QuantumEntanglementDecorator"><rect fill="#F1F1F1" height="58.4799" rx="2.5" ry="2.5" style="stroke:#181818;stroke-width:0.5;" width="267.199" x="5449.58" y="43.46"/><ellipse cx="5464.58" cy="59.46" fill="#ADD1B2" rx="11" ry="11" style="stroke:#181818;stroke-width:1;"/><path d="M5464.6894,54.9912 Q5463.7675,54.9912 5463.0331,55.3037 Q5462.3144,55.6162 5461.8144,56.21 Q5461.3144,56.7881 5461.0331,57.6631 Q5460.7675,58.5381 5460.7675,59.6319 Q5460.7675,61.0694 5461.205,62.1162 Q5461.6581,63.1631 5462.5019,63.71 Q5463.3613,64.2569 5464.6738,64.2569 Q5465.455,64.2569 5466.1425,64.1319 Q5466.8456,63.9912 5467.8456,63.6787 L5467.8456,65.5537 Q5466.9863,65.8819 5466.2206,66.0069 Q5465.4706,66.1319 5464.455,66.1319 Q5462.5331,66.1319 5461.2206,65.335 Q5459.9238,64.5225 5459.2675,63.0537 Q5458.6113,61.5694 5458.6113,59.6006 Q5458.6113,58.1787 5459.0019,57.0069 Q5459.4081,55.8194 5460.1894,54.9444 Q5460.9706,54.0694 5462.1113,53.6006 Q5463.2519,53.1162 5464.7206,53.1162 Q5465.6738,53.1162 5466.5644,53.3194 Q5467.4706,53.5069 5468.4081,53.9756 L5467.58,55.7569 Q5466.7988,55.3819 5466.1425,55.1944 Q5465.4863,54.9912 5464.6894,54.9912 Z " fill="#000000"/><text fill="#000000" font-family="JetBrains Mono" font-size="14" lengthAdjust="spacing" textLength="235.199" x="5478.58" y="64.5">QuantumEntanglementDecorator</text><line style="stroke:#181818;stroke-width:0.5;" x1="5450.58" x2="5715.779" y1="75.46" y2="75.46"/><text fill="#000000" font-family="JetBrains Mono" font-size="14" lengthAdjust="spacing" textLength="117.5995" x="5455.58" y="93.7399">-Link* partner</text></g><!--class Ability--><g class="entity" data-entity="Ability" data-source-line="124" data-uid="ent0025" id="entity_Ability"><rect fill="#F1F1F1" height="121.9197" rx="2.5" ry="2.5" style="stroke:#181818;stroke-width:0.5;" width="625.1973" x="3944.18" y="479.74"/><ellipse cx="4223.1288" cy="495.74" fill="#A9DCDF" rx="11" ry="11" style="stroke:#181818;stroke-width:1;"/><path d="M4226.4725,500.99 L4225.0038,497.24 L4220.5663,497.24 L4219.1288,500.99 L4217.0038,500.99 L4221.9569,488.2712 L4223.7069,488.2712 L4228.6288,500.99 L4226.4725,500.99 Z M4223.1288,492.0369 Q4223.0819,491.8806 4222.9569,491.5212 Q4222.8319,491.1619 4222.7225,490.7869 Q4222.6132,490.3962 4222.8163,490.3337 Q4222.9725,490.5212 4222.8788,490.8806 Q4222.785,491.2244 4222.6913,491.5212 Q4222.5975,491.8025 4222.5194,492.0369 L4221.285,495.3494 L4224.3632,495.3494 L4223.1288,492.0369 Z " fill="#000000"/><text fill="#000000" font-family="JetBrains Mono" font-size="14" font-style="italic" lengthAdjust="spacing" textLength="58.7997" x="4243.6288" y="500.78">Ability</text><line style="stroke:#181818;stroke-width:0.5;" x1="3945.18" x2="4568.3773" y1="511.74" y2="511.74"/><text fill="#000000" font-family="JetBrains Mono" font-size="14" lengthAdjust="spacing" textLength="142.7994" x="3950.18" y="530.0199">#std::string name</text><text fill="#000000" font-family="JetBrains Mono" font-size="14" lengthAdjust="spacing" textLength="83.9996" x="3950.18" y="548.4998">#bool used</text><line style="stroke:#181818;stroke-width:0.5;" x1="3945.18" x2="4568.3773" y1="556.6998" y2="556.6998"/><text fill="#000000" font-family="JetBrains Mono" font-size="14" lengthAdjust="spacing" textLength="613.1973" x="3950.18" y="574.9798">+virtual void use(Game &amp;game, const std::vector&lt;std::string&gt; &amp;params) = 0</text><text fill="#000000" font-family="JetBrains Mono" font-size="14" lengthAdjust="spacing" textLength="235.199" x="3950.18" y="593.4597">+std::string getName() const</text></g><!--class FirewallAbility--><g class="entity" data-entity="FirewallAbility" data-source-line="132" data-uid="ent0026" id="entity_FirewallAbility"><rect fill="#F1F1F1" height="32" rx="2.5" ry="2.5" style="stroke:#181818;stroke-width:0.5;" width="157.9995" x="4820.98" y="323.7"/><ellipse cx="4835.98" cy="339.7" fill="#ADD1B2" rx="11" ry="11" style="stroke:#181818;stroke-width:1;"/><path d="M4836.0894,335.2312 Q4835.1675,335.2312 4834.4331,335.5437 Q4833.7144,335.8562 4833.2144,336.45 Q4832.7144,337.0281 4832.4331,337.9031 Q4832.1675,338.7781 4832.1675,339.8719 Q4832.1675,341.3094 4832.605,342.3562 Q4833.0581,343.4031 4833.9019,343.95 Q4834.7613,344.4969 4836.0738,344.4969 Q4836.855,344.4969 4837.5425,344.3719 Q4838.2456,344.2312 4839.2456,343.9187 L4839.2456,345.7937 Q4838.3863,346.1219 4837.6206,346.2469 Q4836.8706,346.3719 4835.855,346.3719 Q4833.9331,346.3719 4832.6206,345.575 Q4831.3238,344.7625 4830.6675,343.2937 Q4830.0113,341.8094 4830.0113,339.8406 Q4830.0113,338.4187 4830.4019,337.2469 Q4830.8081,336.0594 4831.5894,335.1844 Q4832.3706,334.3094 4833.5113,333.8406 Q4834.6519,333.3562 4836.1206,333.3562 Q4837.0738,333.3562 4837.9644,333.5594 Q4838.8706,333.7469 4839.8081,334.2156 L4838.98,335.9969 Q4838.1988,335.6219 4837.5425,335.4344 Q4836.8863,335.2312 4836.0894,335.2312 Z " fill="#000000"/><text fill="#000000" font-family="JetBrains Mono" font-size="14" lengthAdjust="spacing" textLength="125.9995" x="4849.98" y="344.74">FirewallAbility</text></g><!--class DownloadAbility--><g class="entity" data-entity="DownloadAbility" data-source-line="133" data-uid="ent0027" id="entity_DownloadAbility"><rect fill="#F1F1F1" height="32" rx="2.5" ry="2.5" style="stroke:#181818;stroke-width:0.5;" width="157.9995" x="4820.98" y="256.7"/><ellipse cx="4835.98" cy="272.7" fill="#ADD1B2" rx="11" ry="11" style="stroke:#181818;stroke-width:1;"/><path d="M4836.0894,268.2312 Q4835.1675,268.2312 4834.4331,268.5437 Q4833.7144,268.8562 4833.2144,269.45 Q4832.7144,270.0281 4832.4331,270.9031 Q4832.1675,271.7781 4832.1675,272.8719 Q4832.1675,274.3094 4832.605,275.3562 Q4833.0581,276.4031 4833.9019,276.95 Q4834.7613,277.4969 4836.0738,277.4969 Q4836.855,277.4969 4837.5425,277.3719 Q4838.2456,277.2312 4839.2456,276.9187 L4839.2456,278.7937 Q4838.3863,279.1219 4837.6206,279.2469 Q4836.8706,279.3719 4835.855,279.3719 Q4833.9331,279.3719 4832.6206,278.575 Q4831.3238,277.7625 4830.6675,276.2937 Q4830.0113,274.8094 4830.0113,272.8406 Q4830.0113,271.4187 4830.4019,270.2469 Q4830.8081,269.0594 4831.5894,268.1844 Q4832.3706,267.3094 4833.5113,266.8406 Q4834.6519,266.3562 4836.1206,266.3562 Q4837.0738,266.3562 4837.9644,266.5594 Q4838.8706,266.7469 4839.8081,267.2156 L4838.98,268.9969 Q4838.1988,268.6219 4837.5425,268.4344 Q4836.8863,268.2312 4836.0894,268.2312 Z " fill="#000000"/><text fill="#000000" font-family="JetBrains Mono" font-size="14" lengthAdjust="spacing" textLength="125.9995" x="4849.98" y="277.74">DownloadAbility</text></g><!--class LinkBoostAbility--><g class="entity" data-entity="LinkBoostAbility" data-source-line="134" data-uid="ent0028" id="entity_LinkBoostAbility"><rect fill="#F1F1F1" height="32" rx="2.5" ry="2.5" style="stroke:#181818;stroke-width:0.5;" width="166.3994" x="4816.78" y="725.7"/><ellipse cx="4831.78" cy="741.7" fill="#ADD1B2" rx="11" ry="11" style="stroke:#181818;stroke-width:1;"/><path d="M4831.8894,737.2312 Q4830.9675,737.2312 4830.2331,737.5437 Q4829.5144,737.8562 4829.0144,738.45 Q4828.5144,739.0281 4828.2331,739.9031 Q4827.9675,740.7781 4827.9675,741.8719 Q4827.9675,743.3094 4828.405,744.3562 Q4828.8581,745.4031 4829.7019,745.95 Q4830.5613,746.4969 4831.8738,746.4969 Q4832.655,746.4969 4833.3425,746.3719 Q4834.0456,746.2312 4835.0456,745.9187 L4835.0456,747.7937 Q4834.1863,748.1219 4833.4206,748.2469 Q4832.6706,748.3719 4831.655,748.3719 Q4829.7331,748.3719 4828.4206,747.575 Q4827.1238,746.7625 4826.4675,745.2937 Q4825.8113,743.8094 4825.8113,741.8406 Q4825.8113,740.4187 4826.2019,739.2469 Q4826.6081,738.0594 4827.3894,737.1844 Q4828.1706,736.3094 4829.3113,735.8406 Q4830.4519,735.3562 4831.9206,735.3562 Q4832.8738,735.3562 4833.7644,735.5594 Q4834.6706,735.7469 4835.6081,736.2156 L4834.78,737.9969 Q4833.9988,737.6219 4833.3425,737.4344 Q4832.6863,737.2312 4831.8894,737.2312 Z " fill="#000000"/><text fill="#000000" font-family="JetBrains Mono" font-size="14" lengthAdjust="spacing" textLength="134.3994" x="4845.78" y="746.74">LinkBoostAbility</text></g><!--class PolarizeAbility--><g class="entity" data-entity="PolarizeAbility" data-source-line="135" data-uid="ent0029" id="entity_PolarizeAbility"><rect fill="#F1F1F1" height="32" rx="2.5" ry="2.5" style="stroke:#181818;stroke-width:0.5;" width="157.9995" x="4820.98" y="658.7"/><ellipse cx="4835.98" cy="674.7" fill="#ADD1B2" rx="11" ry="11" style="stroke:#181818;stroke-width:1;"/><path d="M4836.0894,670.2312 Q4835.1675,670.2312 4834.4331,670.5437 Q4833.7144,670.8562 4833.2144,671.45 Q4832.7144,672.0281 4832.4331,672.9031 Q4832.1675,673.7781 4832.1675,674.8719 Q4832.1675,676.3094 4832.605,677.3562 Q4833.0581,678.4031 4833.9019,678.95 Q4834.7613,679.4969 4836.0738,679.4969 Q4836.855,679.4969 4837.5425,679.3719 Q4838.2456,679.2312 4839.2456,678.9187 L4839.2456,680.7937 Q4838.3863,681.1219 4837.6206,681.2469 Q4836.8706,681.3719 4835.855,681.3719 Q4833.9331,681.3719 4832.6206,680.575 Q4831.3238,679.7625 4830.6675,678.2937 Q4830.0113,676.8094 4830.0113,674.8406 Q4830.0113,673.4187 4830.4019,672.2469 Q4830.8081,671.0594 4831.5894,670.1844 Q4832.3706,669.3094 4833.5113,668.8406 Q4834.6519,668.3562 4836.1206,668.3562 Q4837.0738,668.3562 4837.9644,668.5594 Q4838.8706,668.7469 4839.8081,669.2156 L4838.98,670.9969 Q4838.1988,670.6219 4837.5425,670.4344 Q4836.8863,670.2312 4836.0894,670.2312 Z " fill="#000000"/><text fill="#000000" font-family="JetBrains Mono" font-size="14" lengthAdjust="spacing" textLength="125.9995" x="4849.98" y="679.74">PolarizeAbility</text></g><!--class ScanAbility--><g class="entity" data-entity="ScanAbility" data-source-line="136" data-uid="ent0030" id="entity_ScanAbility"><rect fill="#F1F1F1" height="32" rx="2.5" ry="2.5" style="stroke:#181818;stroke-width:0.5;" width="124.3996" x="4837.78" y="591.7"/><ellipse cx="4852.78" cy="607.7" fill="#ADD1B2" rx="11" ry="11" style="stroke:#181818;stroke-width:1;"/><path d="M4852.8894,603.2312 Q4851.9675,603.2312 4851.2331,603.5437 Q4850.5144,603.8562 4850.0144,604.45 Q4849.5144,605.0281 4849.2331,605.9031 Q4848.9675,606.7781 4848.9675,607.8719 Q4848.9675,609.3094 4849.405,610.3562 Q4849.8581,611.4031 4850.7019,611.95 Q4851.5613,612.4969 4852.8738,612.4969 Q4853.655,612.4969 4854.3425,612.3719 Q4855.0456,612.2312 4856.0456,611.9187 L4856.0456,613.7937 Q4855.1863,614.1219 4854.4206,614.2469 Q4853.6706,614.3719 4852.655,614.3719 Q4850.7331,614.3719 4849.4206,613.575 Q4848.1238,612.7625 4847.4675,611.2937 Q4846.8113,609.8094 4846.8113,607.8406 Q4846.8113,606.4187 4847.2019,605.2469 Q4847.6081,604.0594 4848.3894,603.1844 Q4849.1706,602.3094 4850.3113,601.8406 Q4851.4519,601.3562 4852.9206,601.3562 Q4853.8738,601.3562 4854.7644,601.5594 Q4855.6706,601.7469 4856.6081,602.2156 L4855.78,603.9969 Q4854.9988,603.6219 4854.3425,603.4344 Q4853.6863,603.2312 4852.8894,603.2312 Z " fill="#000000"/><text fill="#000000" font-family="JetBrains Mono" font-size="14" lengthAdjust="spacing" textLength="92.3996" x="4866.78" y="612.74">ScanAbility</text></g><!--class BadConnectionAbility--><g class="entity" data-entity="BadConnectionAbility" data-source-line="137" data-uid="ent0031" id="entity_BadConnectionAbility"><rect fill="#F1F1F1" height="32" rx="2.5" ry="2.5" style="stroke:#181818;stroke-width:0.5;" width="199.9993" x="4799.98" y="524.7"/><ellipse cx="4814.98" cy="540.7" fill="#ADD1B2" rx="11" ry="11" style="stroke:#181818;stroke-width:1;"/><path d="M4815.0894,536.2312 Q4814.1675,536.2312 4813.4331,536.5437 Q4812.7144,536.8562 4812.2144,537.45 Q4811.7144,538.0281 4811.4331,538.9031 Q4811.1675,539.7781 4811.1675,540.8719 Q4811.1675,542.3094 4811.605,543.3562 Q4812.0581,544.4031 4812.9019,544.95 Q4813.7613,545.4969 4815.0738,545.4969 Q4815.855,545.4969 4816.5425,545.3719 Q4817.2456,545.2312 4818.2456,544.9187 L4818.2456,546.7937 Q4817.3863,547.1219 4816.6206,547.2469 Q4815.8706,547.3719 4814.855,547.3719 Q4812.9331,547.3719 4811.6206,546.575 Q4810.3238,545.7625 4809.6675,544.2937 Q4809.0113,542.8094 4809.0113,540.8406 Q4809.0113,539.4187 4809.4019,538.2469 Q4809.8081,537.0594 4810.5894,536.1844 Q4811.3706,535.3094 4812.5113,534.8406 Q4813.6519,534.3562 4815.1206,534.3562 Q4816.0738,534.3562 4816.9644,534.5594 Q4817.8706,534.7469 4818.8081,535.2156 L4817.98,536.9969 Q4817.1988,536.6219 4816.5425,536.4344 Q4815.8863,536.2312 4815.0894,536.2312 Z " fill="#000000"/><text fill="#000000" font-family="JetBrains Mono" font-size="14" lengthAdjust="spacing" textLength="167.9993" x="4828.98" y="545.74">BadConnectionAbility</text></g><!--class QuantumEntanglementAbility--><g class="entity" data-entity="QuantumEntanglementAbility" data-source-line="138" data-uid="ent0032" id="entity_QuantumEntanglementAbility"><rect fill="#F1F1F1" height="32" rx="2.5" ry="2.5" style="stroke:#181818;stroke-width:0.5;" width="250.399" x="4774.78" y="457.7"/><ellipse cx="4789.78" cy="473.7" fill="#ADD1B2" rx="11" ry="11" style="stroke:#181818;stroke-width:1;"/><path d="M4789.8894,469.2312 Q4788.9675,469.2312 4788.2331,469.5437 Q4787.5144,469.8562 4787.0144,470.45 Q4786.5144,471.0281 4786.2331,471.9031 Q4785.9675,472.7781 4785.9675,473.8719 Q4785.9675,475.3094 4786.405,476.3562 Q4786.8581,477.4031 4787.7019,477.95 Q4788.5613,478.4969 4789.8738,478.4969 Q4790.655,478.4969 4791.3425,478.3719 Q4792.0456,478.2312 4793.0456,477.9187 L4793.0456,479.7937 Q4792.1863,480.1219 4791.4206,480.2469 Q4790.6706,480.3719 4789.655,480.3719 Q4787.7331,480.3719 4786.4206,479.575 Q4785.1238,478.7625 4784.4675,477.2937 Q4783.8113,475.8094 4783.8113,473.8406 Q4783.8113,472.4187 4784.2019,471.2469 Q4784.6081,470.0594 4785.3894,469.1844 Q4786.1706,468.3094 4787.3113,467.8406 Q4788.4519,467.3562 4789.9206,467.3562 Q4790.8738,467.3562 4791.7644,467.5594 Q4792.6706,467.7469 4793.6081,468.2156 L4792.78,469.9969 Q4791.9988,469.6219 4791.3425,469.4344 Q4790.6863,469.2312 4789.8894,469.2312 Z " fill="#000000"/><text fill="#000000" font-family="JetBrains Mono" font-size="14" lengthAdjust="spacing" textLength="218.399" x="4803.78" y="478.74">QuantumEntanglementAbility</text></g><!--class PappleAbility--><g class="entity" data-entity="PappleAbility" data-source-line="139" data-uid="ent0033" id="entity_PappleAbility"><rect fill="#F1F1F1" height="32" rx="2.5" ry="2.5" style="stroke:#181818;stroke-width:0.5;" width="141.1995" x="4829.38" y="390.7"/><ellipse cx="4844.38" cy="406.7" fill="#ADD1B2" rx="11" ry="11" style="stroke:#181818;stroke-width:1;"/><path d="M4844.4894,402.2312 Q4843.5675,402.2312 4842.8331,402.5437 Q4842.1144,402.8562 4841.6144,403.45 Q4841.1144,404.0281 4840.8331,404.9031 Q4840.5675,405.7781 4840.5675,406.8719 Q4840.5675,408.3094 4841.005,409.3562 Q4841.4581,410.4031 4842.3019,410.95 Q4843.1613,411.4969 4844.4738,411.4969 Q4845.255,411.4969 4845.9425,411.3719 Q4846.6456,411.2312 4847.6456,410.9187 L4847.6456,412.7937 Q4846.7863,413.1219 4846.0206,413.2469 Q4845.2706,413.3719 4844.255,413.3719 Q4842.3331,413.3719 4841.0206,412.575 Q4839.7238,411.7625 4839.0675,410.2937 Q4838.4113,408.8094 4838.4113,406.8406 Q4838.4113,405.4187 4838.8019,404.2469 Q4839.2081,403.0594 4839.9894,402.1844 Q4840.7706,401.3094 4841.9113,400.8406 Q4843.0519,400.3562 4844.5206,400.3562 Q4845.4738,400.3562 4846.3644,400.5594 Q4847.2706,400.7469 4848.2081,401.2156 L4847.38,402.9969 Q4846.5988,402.6219 4845.9425,402.4344 Q4845.2863,402.2312 4844.4894,402.2312 Z " fill="#000000"/><text fill="#000000" font-family="JetBrains Mono" font-size="14" lengthAdjust="spacing" textLength="109.1995" x="4858.38" y="411.74">PappleAbility</text></g><!--class Controller--><g class="entity" data-entity="Controller" data-source-line="144" data-uid="ent0035" id="entity_Controller"><rect fill="#F1F1F1" height="158.8795" rx="2.5" ry="2.5" style="stroke:#181818;stroke-width:0.5;" width="599.9974" x="22" y="440.26"/><ellipse cx="275.7489" cy="456.26" fill="#ADD1B2" rx="11" ry="11" style="stroke:#181818;stroke-width:1;"/><path d="M275.8583,451.7912 Q274.9364,451.7912 274.202,452.1037 Q273.4833,452.4162 272.9833,453.01 Q272.4833,453.5881 272.202,454.4631 Q271.9364,455.3381 271.9364,456.4319 Q271.9364,457.8694 272.3739,458.9162 Q272.827,459.9631 273.6708,460.51 Q274.5302,461.0569 275.8427,461.0569 Q276.6239,461.0569 277.3114,460.9319 Q278.0145,460.7912 279.0145,460.4787 L279.0145,462.3537 Q278.1552,462.6819 277.3895,462.8069 Q276.6395,462.9319 275.6239,462.9319 Q273.702,462.9319 272.3895,462.135 Q271.0927,461.3225 270.4364,459.8537 Q269.7802,458.3694 269.7802,456.4006 Q269.7802,454.9787 270.1708,453.8069 Q270.577,452.6194 271.3583,451.7444 Q272.1395,450.8694 273.2802,450.4006 Q274.4208,449.9162 275.8895,449.9162 Q276.8427,449.9162 277.7333,450.1194 Q278.6395,450.3069 279.577,450.7756 L278.7489,452.5569 Q277.9677,452.1819 277.3114,451.9944 Q276.6552,451.7912 275.8583,451.7912 Z " fill="#000000"/><text fill="#000000" font-family="JetBrains Mono" font-size="14" lengthAdjust="spacing" textLength="83.9996" x="296.2489" y="461.3">Controller</text><line style="stroke:#181818;stroke-width:0.5;" x1="23" x2="620.9974" y1="472.26" y2="472.26"/><text fill="#000000" font-family="JetBrains Mono" font-size="14" lengthAdjust="spacing" textLength="226.799" x="28" y="490.5399">-std::unique_ptr&lt;Game&gt; game</text><text fill="#000000" font-family="JetBrains Mono" font-size="14" lengthAdjust="spacing" textLength="587.9974" x="28" y="509.0198">-std::unordered_map&lt;Player*, std::vector&lt;std::unique_ptr&lt;View&gt;&gt;&gt; views</text><text fill="#000000" font-family="JetBrains Mono" font-size="14" lengthAdjust="spacing" textLength="159.5993" x="28" y="527.4998">-bool gameIsRunning</text><line style="stroke:#181818;stroke-width:0.5;" x1="23" x2="620.9974" y1="535.6997" y2="535.6997"/><text fill="#000000" font-family="JetBrains Mono" font-size="14" lengthAdjust="spacing" textLength="159.5993" x="28" y="553.9797">+void runGameLoop()</text><text fill="#000000" font-family="JetBrains Mono" font-size="14" lengthAdjust="spacing" textLength="419.9982" x="28" y="572.4596">+void parseCommand(const std::string&amp; commandLine)</text><text fill="#000000" font-family="JetBrains Mono" font-size="14" lengthAdjust="spacing" textLength="285.5988" x="28" y="590.9395">+void init(int argc, char* argv[])</text></g><!--class View--><g class="entity" data-entity="View" data-source-line="157" data-uid="ent0037" id="entity_View"><rect fill="#F1F1F1" height="195.8394" rx="2.5" ry="2.5" style="stroke:#181818;stroke-width:0.5;" width="381.5984" x="766" y="834.78"/><ellipse cx="935.7493" cy="850.78" fill="#A9DCDF" rx="11" ry="11" style="stroke:#181818;stroke-width:1;"/><path d="M939.093,856.03 L937.6243,852.28 L933.1868,852.28 L931.7493,856.03 L929.6243,856.03 L934.5774,843.3112 L936.3274,843.3112 L941.2493,856.03 L939.093,856.03 Z M935.7493,847.0769 Q935.7024,846.9206 935.5774,846.5612 Q935.4524,846.2019 935.343,845.8269 Q935.2336,845.4362 935.4368,845.3737 Q935.593,845.5612 935.4993,845.9206 Q935.4055,846.2644 935.3118,846.5612 Q935.218,846.8425 935.1399,847.0769 L933.9055,850.3894 L936.9836,850.3894 L935.7493,847.0769 Z " fill="#000000"/><text fill="#000000" font-family="JetBrains Mono" font-size="14" font-style="italic" lengthAdjust="spacing" textLength="33.5999" x="956.2493" y="855.82">View</text><line style="stroke:#181818;stroke-width:0.5;" x1="767" x2="1146.5984" y1="866.78" y2="866.78"/><text fill="#000000" font-family="JetBrains Mono" font-size="14" lengthAdjust="spacing" textLength="277.1988" x="772" y="885.0599">#std::vector&lt;PlayerStats&gt; players</text><text fill="#000000" font-family="JetBrains Mono" font-size="14" lengthAdjust="spacing" textLength="176.3992" x="772" y="903.5398">#const Player *viewer</text><text fill="#000000" font-family="JetBrains Mono" font-size="14" lengthAdjust="spacing" textLength="142.7994" x="772" y="922.0198">#const Game *game</text><line style="stroke:#181818;stroke-width:0.5;" x1="767" x2="1146.5984" y1="930.2197" y2="930.2197"/><text fill="#000000" font-family="JetBrains Mono" font-size="14" lengthAdjust="spacing" textLength="302.3987" x="772" y="948.4997">+virtual void update(CellUpdate) = 0</text><text fill="#000000" font-family="JetBrains Mono" font-size="14" lengthAdjust="spacing" textLength="352.7985" x="772" y="966.9796">+virtual void update(RevealLinkUpdate) = 0</text><text fill="#000000" font-family="JetBrains Mono" font-size="14" lengthAdjust="spacing" textLength="369.5984" x="772" y="985.4595">+virtual void update(AbilityCountUpdate) = 0</text><text fill="#000000" font-family="JetBrains Mono" font-size="14" lengthAdjust="spacing" textLength="310.7986" x="772" y="1003.9394">+virtual void update(ScoreUpdate) = 0</text><text fill="#000000" font-family="JetBrains Mono" font-size="14" lengthAdjust="spacing" textLength="277.1988" x="772" y="1022.4194">+virtual void display() const = 0</text></g><!--class TextView--><g class="entity" data-entity="TextView" data-source-line="169" data-uid="ent0038" id="entity_TextView"><rect fill="#F1F1F1" height="103.4398" rx="2.5" ry="2.5" style="stroke:#181818;stroke-width:0.5;" width="381.5984" x="1484.79" y="945.98"/><ellipse cx="1637.7393" cy="961.98" fill="#ADD1B2" rx="11" ry="11" style="stroke:#181818;stroke-width:1;"/><path d="M1637.8487,957.5112 Q1636.9268,957.5112 1636.1925,957.8237 Q1635.4737,958.1362 1634.9737,958.73 Q1634.4737,959.3081 1634.1925,960.1831 Q1633.9268,961.0581 1633.9268,962.1519 Q1633.9268,963.5894 1634.3643,964.6362 Q1634.8175,965.6831 1635.6612,966.23 Q1636.5206,966.7769 1637.8331,966.7769 Q1638.6143,966.7769 1639.3018,966.6519 Q1640.005,966.5112 1641.005,966.1987 L1641.005,968.0737 Q1640.1456,968.4019 1639.38,968.5269 Q1638.63,968.6519 1637.6143,968.6519 Q1635.6925,968.6519 1634.38,967.855 Q1633.0831,967.0425 1632.4268,965.5737 Q1631.7706,964.0894 1631.7706,962.1206 Q1631.7706,960.6987 1632.1612,959.5269 Q1632.5675,958.3394 1633.3487,957.4644 Q1634.13,956.5894 1635.2706,956.1206 Q1636.4112,955.6362 1637.88,955.6362 Q1638.8331,955.6362 1639.7237,955.8394 Q1640.63,956.0269 1641.5675,956.4956 L1640.7393,958.2769 Q1639.9581,957.9019 1639.3018,957.7144 Q1638.6456,957.5112 1637.8487,957.5112 Z " fill="#000000"/><text fill="#000000" font-family="JetBrains Mono" font-size="14" lengthAdjust="spacing" textLength="67.1997" x="1658.2393" y="967.02">TextView</text><line style="stroke:#181818;stroke-width:0.5;" x1="1485.79" x2="1865.3884" y1="977.98" y2="977.98"/><text fill="#000000" font-family="JetBrains Mono" font-size="14" lengthAdjust="spacing" textLength="369.5984" x="1490.79" y="996.2599">-std::vector&lt;std::vector&lt;std::string&gt;&gt; board</text><line style="stroke:#181818;stroke-width:0.5;" x1="1485.79" x2="1865.3884" y1="1004.4599" y2="1004.4599"/><text fill="#000000" font-family="JetBrains Mono" font-size="14" lengthAdjust="spacing" textLength="201.5991" x="1490.79" y="1022.7398">+void update(CellUpdate)</text><text fill="#000000" font-family="JetBrains Mono" font-size="14" lengthAdjust="spacing" textLength="176.3992" x="1490.79" y="1041.2198">+void display() const</text></g><!--class GraphicsView--><g class="entity" data-entity="GraphicsView" data-source-line="175" data-uid="ent0039" id="entity_GraphicsView"><rect fill="#F1F1F1" height="76.9598" rx="2.5" ry="2.5" style="stroke:#181818;stroke-width:0.5;" width="213.5991" x="1568.79" y="834.22"/><ellipse cx="1620.9398" cy="850.22" fill="#ADD1B2" rx="11" ry="11" style="stroke:#181818;stroke-width:1;"/><path d="M1621.0492,845.7512 Q1620.1273,845.7512 1619.3929,846.0637 Q1618.6742,846.3762 1618.1742,846.97 Q1617.6742,847.5481 1617.3929,848.4231 Q1617.1273,849.2981 1617.1273,850.3919 Q1617.1273,851.8294 1617.5648,852.8762 Q1618.0179,853.9231 1618.8617,854.47 Q1619.721,855.0169 1621.0335,855.0169 Q1621.8148,855.0169 1622.5023,854.8919 Q1623.2054,854.7512 1624.2054,854.4387 L1624.2054,856.3137 Q1623.346,856.6419 1622.5804,856.7669 Q1621.8304,856.8919 1620.8148,856.8919 Q1618.8929,856.8919 1617.5804,856.095 Q1616.2835,855.2825 1615.6273,853.8137 Q1614.971,852.3294 1614.971,850.3606 Q1614.971,848.9387 1615.3617,847.7669 Q1615.7679,846.5794 1616.5492,845.7044 Q1617.3304,844.8294 1618.471,844.3606 Q1619.6117,843.8762 1621.0804,843.8762 Q1622.0335,843.8762 1622.9242,844.0794 Q1623.8304,844.2669 1624.7679,844.7356 L1623.9398,846.5169 Q1623.1585,846.1419 1622.5023,845.9544 Q1621.846,845.7512 1621.0492,845.7512 Z " fill="#000000"/><text fill="#000000" font-family="JetBrains Mono" font-size="14" lengthAdjust="spacing" textLength="100.7996" x="1641.4398" y="855.26">GraphicsView</text><line style="stroke:#181818;stroke-width:0.5;" x1="1569.79" x2="1781.3891" y1="866.22" y2="866.22"/><text fill="#000000" font-family="JetBrains Mono" font-size="14" lengthAdjust="spacing" textLength="201.5991" x="1574.79" y="884.4999">+void update(CellUpdate)</text><text fill="#000000" font-family="JetBrains Mono" font-size="14" lengthAdjust="spacing" textLength="176.3992" x="1574.79" y="902.9798">+void display() const</text></g><!--class LinkFactory--><g class="entity" data-entity="LinkFactory" data-source-line="183" data-uid="ent0041" id="entity_LinkFactory"><rect fill="#F1F1F1" height="58.4799" rx="2.5" ry="2.5" style="stroke:#181818;stroke-width:0.5;" width="331.1986" x="156.4" y="221.46"/><ellipse cx="271.5495" cy="237.46" fill="#ADD1B2" rx="11" ry="11" style="stroke:#181818;stroke-width:1;"/><path d="M271.6589,232.9912 Q270.737,232.9912 270.0026,233.3037 Q269.2839,233.6162 268.7839,234.21 Q268.2839,234.7881 268.0026,235.6631 Q267.737,236.5381 267.737,237.6319 Q267.737,239.0694 268.1745,240.1162 Q268.6276,241.1631 269.4714,241.71 Q270.3308,242.2569 271.6433,242.2569 Q272.4245,242.2569 273.112,242.1319 Q273.8151,241.9912 274.8151,241.6787 L274.8151,243.5537 Q273.9558,243.8819 273.1901,244.0069 Q272.4401,244.1319 271.4245,244.1319 Q269.5026,244.1319 268.1901,243.335 Q266.8933,242.5225 266.237,241.0537 Q265.5808,239.5694 265.5808,237.6006 Q265.5808,236.1787 265.9714,235.0069 Q266.3776,233.8194 267.1589,232.9444 Q267.9401,232.0694 269.0808,231.6006 Q270.2214,231.1162 271.6901,231.1162 Q272.6433,231.1162 273.5339,231.3194 Q274.4401,231.5069 275.3776,231.9756 L274.5495,233.7569 Q273.7683,233.3819 273.112,233.1944 Q272.4558,232.9912 271.6589,232.9912 Z " fill="#000000"/><text fill="#000000" font-family="JetBrains Mono" font-size="14" lengthAdjust="spacing" textLength="92.3996" x="292.0495" y="242.5">LinkFactory</text><line style="stroke:#181818;stroke-width:0.5;" x1="157.4" x2="486.5986" y1="253.46" y2="253.46"/><text fill="#000000" font-family="JetBrains Mono" font-size="14" lengthAdjust="spacing" text-decoration="underline" textLength="319.1986" x="162.4" y="271.7399">+std::unique_ptr&lt;Link&gt; createLink(...)</text></g><!--class AbilityFactory--><g class="entity" data-entity="AbilityFactory" data-source-line="187" data-uid="ent0042" id="entity_AbilityFactory"><rect fill="#F1F1F1" height="58.4799" rx="2.5" ry="2.5" style="stroke:#181818;stroke-width:0.5;" width="465.598" x="89.2" y="128.46"/><ellipse cx="258.9493" cy="144.46" fill="#ADD1B2" rx="11" ry="11" style="stroke:#181818;stroke-width:1;"/><path d="M259.0586,139.9912 Q258.1368,139.9912 257.4024,140.3037 Q256.6836,140.6162 256.1836,141.21 Q255.6836,141.7881 255.4024,142.6631 Q255.1368,143.5381 255.1368,144.6319 Q255.1368,146.0694 255.5743,147.1162 Q256.0274,148.1631 256.8711,148.71 Q257.7305,149.2569 259.043,149.2569 Q259.8243,149.2569 260.5118,149.1319 Q261.2149,148.9912 262.2149,148.6787 L262.2149,150.5537 Q261.3555,150.8819 260.5899,151.0069 Q259.8399,151.1319 258.8243,151.1319 Q256.9024,151.1319 255.5899,150.335 Q254.293,149.5225 253.6368,148.0537 Q252.9805,146.5694 252.9805,144.6006 Q252.9805,143.1787 253.3711,142.0069 Q253.7774,140.8194 254.5586,139.9444 Q255.3399,139.0694 256.4805,138.6006 Q257.6211,138.1162 259.0899,138.1162 Q260.043,138.1162 260.9336,138.3194 Q261.8399,138.5069 262.7774,138.9756 L261.9493,140.7569 Q261.168,140.3819 260.5118,140.1944 Q259.8555,139.9912 259.0586,139.9912 Z " fill="#000000"/><text fill="#000000" font-family="JetBrains Mono" font-size="14" lengthAdjust="spacing" textLength="117.5995" x="279.4493" y="149.5">AbilityFactory</text><line style="stroke:#181818;stroke-width:0.5;" x1="90.2" x2="553.798" y1="160.46" y2="160.46"/><text fill="#000000" font-family="JetBrains Mono" font-size="14" lengthAdjust="spacing" text-decoration="underline" textLength="453.598" x="95.2" y="178.7399">+std::unique_ptr&lt;Ability&gt; createPlayerAbility(char id)</text></g><!--reverse link Controller to Game--><g class="link" data-entity-1="Controller" data-entity-2="Game" data-source-line="196" data-uid="lnk43" id="link_Controller_Game"><path codeLine="196" d="M634.213,492.1586 C654.033,490.3986 661.99,489.7 681.68,487.96" fill="none" id="Controller-backto-Game" style="stroke:#181818;stroke-width:1;"/><polygon fill="#181818" points="622.26,493.22,628.5903,496.6736,634.213,492.1586,627.8827,488.705,622.26,493.22" style="stroke:#181818;stroke-width:1;"/></g><!--reverse link Controller to View--><g class="link" data-entity-1="Controller" data-entity-2="View" data-source-line="197" data-uid="lnk44" id="link_Controller_View"><path codeLine="197" d="M467.6433,606.0731 C529.6933,647.0531 591.48,694.24 646,753.7 C653,761.34 650.49,766.56 658,773.7 C689.32,803.49 727.31,829.31 765.52,850.98" fill="none" id="Controller-backto-View" style="stroke:#181818;stroke-width:1;"/><polygon fill="#181818" points="457.63,599.46,460.4323,606.1043,467.6433,606.0731,464.841,599.4288,457.63,599.46" style="stroke:#181818;stroke-width:1;"/></g><!--reverse link Game to Board--><g class="link" data-entity-1="Game" data-entity-2="Board" data-source-line="198" data-uid="lnk45" id="link_Game_Board"><path codeLine="198" d="M1243.2388,368.9191 C1309.8388,346.8091 1369.16,327.11 1434.07,305.56" fill="none" id="Game-backto-Board" style="stroke:#181818;stroke-width:1;"/><polygon fill="#181818" points="1231.85,372.7,1238.8047,374.6058,1243.2388,368.9191,1236.2841,367.0133,1231.85,372.7" style="stroke:#181818;stroke-width:1;"/></g><!--reverse link Game to Player--><g class="link" data-entity-1="Game" data-entity-2="Player" data-source-line="199" data-uid="lnk46" id="link_Game_Player"><path codeLine="199" d="M1244.0146,472.3005 C1733.8146,487.0205 2742.04,517.32 3237.72,532.21" fill="none" id="Game-backto-Player" style="stroke:#181818;stroke-width:1;"/><polygon fill="#181818" points="1232.02,471.94,1237.8971,476.1184,1244.0146,472.3005,1238.1375,468.122,1232.02,471.94" style="stroke:#181818;stroke-width:1;"/></g><!--reverse link Board to BaseCell--><g class="link" data-entity-1="Board" data-entity-2="BaseCell" data-source-line="200" data-uid="lnk47" id="link_Board_BaseCell"><path codeLine="200" d="M2071.91,225.7 C2091.89,225.7 2099.77,225.7 2119.3,225.7" fill="none" id="Board-backto-BaseCell" style="stroke:#181818;stroke-width:1;"/><polygon fill="#181818" points="2059.91,225.7,2065.91,229.7,2071.91,225.7,2065.91,221.7,2059.91,225.7" style="stroke:#181818;stroke-width:1;"/></g><!--reverse link Player to Ability--><g class="link" data-entity-1="Player" data-entity-2="Ability" data-source-line="201" data-uid="lnk48" id="link_Player_Ability"><path codeLine="201" d="M3816.76,540.7 C3862.27,540.7 3897.61,540.7 3943.76,540.7" fill="none" id="Player-backto-Ability" style="stroke:#181818;stroke-width:1;"/><polygon fill="#181818" points="3804.76,540.7,3810.76,544.7,3816.76,540.7,3810.76,536.7,3804.76,540.7" style="stroke:#181818;stroke-width:1;"/></g><!--reverse link LinkManager to Link--><g class="link" data-entity-1="LinkManager" data-entity-2="Link" data-source-line="202" data-uid="lnk49" id="link_LinkManager_Link"><path codeLine="202" d="M4490.3298,263.3548 C4565.1898,239.4148 4636.67,216.57 4708.91,193.47" fill="none" id="LinkManager-backto-Link" style="stroke:#181818;stroke-width:1;"/><polygon fill="#181818" points="4478.9,267.01,4485.8333,268.9923,4490.3298,263.3548,4483.3965,261.3725,4478.9,267.01" style="stroke:#181818;stroke-width:1;"/></g><!--reverse link LinkDecorator to Link--><g class="link" data-entity-1="LinkDecorator" data-entity-2="Link" data-source-line="203" data-uid="lnk50" id="link_LinkDecorator_Link"><path codeLine="203" d="M5138.4135,120.0503 C5119.3635,119.5903 5111.23,119.62 5091.01,119.58" fill="none" id="LinkDecorator-backto-Link" style="stroke:#181818;stroke-width:1;"/><polygon fill="#181818" points="5150.41,120.34,5144.5083,116.1963,5138.4135,120.0503,5144.3152,124.194,5150.41,120.34" style="stroke:#181818;stroke-width:1;"/></g><!--reverse link Link to LinkDecorator--><g class="link" data-entity-1="Link" data-entity-2="LinkDecorator" data-source-line="224" data-uid="lnk65" id="link_Link_LinkDecorator"><path codeLine="224" d="M5109.01,145.7844 C5129.23,145.7444 5131.36,145.52 5150.41,145.06" fill="none" id="Link-backto-LinkDecorator" style="stroke:#181818;stroke-width:1;"/><polygon fill="none" points="5091.01,145.82,5109.0218,151.7844,5108.9981,139.7844,5091.01,145.82" style="stroke:#181818;stroke-width:1;"/></g><!--reverse link PlayerCell to BaseCell--><g class="link" data-entity-1="PlayerCell" data-entity-2="BaseCell" data-source-line="204" data-uid="lnk51" id="link_PlayerCell_BaseCell"><path codeLine="204" d="M2805.0506,241.1496 C2760.3106,237.0296 2720.78,234.15 2669.5,230.78" fill="none" id="PlayerCell-backto-BaseCell" style="stroke:#181818;stroke-width:1;"/><polygon fill="#181818" points="2817,242.25,2811.3921,237.7166,2805.0506,241.1496,2810.6585,245.6829,2817,242.25" style="stroke:#181818;stroke-width:1;"/></g><!--reverse link BaseCell to PlayerCell--><g class="link" data-entity-1="BaseCell" data-entity-2="PlayerCell" data-source-line="217" data-uid="lnk59" id="link_BaseCell_PlayerCell"><path codeLine="217" d="M2687.4596,258.2348 C2738.7396,261.6748 2772.26,263.33 2817,265.14" fill="none" id="BaseCell-backto-PlayerCell" style="stroke:#181818;stroke-width:1;"/><polygon fill="none" points="2669.5,257.03,2687.058,264.2213,2687.8612,252.2482,2669.5,257.03" style="stroke:#181818;stroke-width:1;"/></g><!--reverse link Game to LinkManager--><g class="link" data-entity-1="Game" data-entity-2="LinkManager" data-source-line="208" data-uid="lnk52" id="link_Game_LinkManager"><path codeLine="208" d="M1243.941,451.6659 C1532.801,440.4859 1989.02,425.7 2393.39,425.7 C2393.39,425.7 2393.39,425.7 2954.59,425.7 C3332.36,425.7 3428.06,440.72 3804.39,407.7 C3823.94,405.98 3843.93,403.95 3864.09,401.66" fill="none" id="Game-backto-LinkManager" style="stroke:#181818;stroke-width:1;"/><polygon fill="none" points="1231.95,452.13,1238.1002,455.8949,1243.941,451.6659,1237.7908,447.9009,1231.95,452.13" style="stroke:#181818;stroke-width:1;"/></g><!--reverse link Player to LinkManager--><g class="link" data-entity-1="Player" data-entity-2="LinkManager" data-source-line="209" data-uid="lnk53" id="link_Player_LinkManager"><path codeLine="209" d="M3785.9469,457.3219 C3816.1769,448.2819 3835.18,442.84 3864.39,434.7 C3896.17,425.85 3929.51,416.97 3962.76,408.37" fill="none" id="Player-backto-LinkManager" style="stroke:#181818;stroke-width:1;"/><polygon fill="none" points="3774.45,460.76,3781.3445,462.8733,3785.9469,457.3219,3779.0525,455.2086,3774.45,460.76" style="stroke:#181818;stroke-width:1;"/></g><!--reverse link Link to Player--><g class="link" data-entity-1="Link" data-entity-2="Player" data-source-line="210" data-uid="lnk54" id="link_Link_Player"><path codeLine="210" d="M4717.2265,229.9818 C4711.2465,235.6718 4714.33,233.4 4709.18,239.7 C4654.24,306.98 4718.18,372.93 4649.18,425.7 C4579.84,478.73 3950.88,450.9 3864.39,462.7 C3844.91,465.36 3824.92,468.58 3804.84,472.19" fill="none" id="Link-backto-Player" style="stroke:#181818;stroke-width:1;"/><polygon fill="none" points="4725.92,221.71,4718.816,222.9481,4717.2265,229.9818,4724.3306,228.7437,4725.92,221.71" style="stroke:#181818;stroke-width:1;"/></g><!--reverse link Link to Board--><g class="link" data-entity-1="Link" data-entity-2="Board" data-source-line="211" data-uid="lnk55" id="link_Link_Board"><path codeLine="211" d="M4696.7997,98.171 C4676.7497,95.441 4668.52,94.61 4649.18,92.7 C4150.36,43.43 4023.44,49.7 3522.19,49.7 C2952.59,49.7 2952.59,49.7 2952.59,49.7 C2648.74,49.7 2307.97,99.28 2055.08,145.81" fill="none" id="Link-backto-Board" style="stroke:#181818;stroke-width:1;"/><polygon fill="none" points="4708.69,99.79,4703.2845,95.0171,4696.7997,98.171,4702.2052,102.9439,4708.69,99.79" style="stroke:#181818;stroke-width:1;"/></g><!--reverse link PlayerCell to Player--><g class="link" data-entity-1="PlayerCell" data-entity-2="Player" data-source-line="212" data-uid="lnk56" id="link_PlayerCell_Player"><path codeLine="212" d="M3039.7896,307.2104 C3096.7496,336.7904 3166.68,372.67 3237.99,407.7 C3273.6,425.19 3311.93,443.57 3348.52,460.88" fill="none" id="PlayerCell-backto-Player" style="stroke:#181818;stroke-width:1;"/><polygon fill="none" points="3029.14,301.68,3032.6213,307.9951,3039.7896,307.2104,3036.3083,300.8953,3029.14,301.68" style="stroke:#181818;stroke-width:1;"/></g><!--reverse link BaseCell to Link--><g class="link" data-entity-1="BaseCell" data-entity-2="Link" data-source-line="213" data-uid="lnk57" id="link_BaseCell_Link"><path codeLine="213" d="M2681.4345,208.3076 C2887.2945,194.8576 3129.74,176.55 3177.99,161.7 C3207.28,152.68 3208.35,135.51 3237.99,127.7 C3510.21,55.93 4333.39,96.55 4708.75,119.86" fill="none" id="BaseCell-backto-Link" style="stroke:#181818;stroke-width:1;"/><polygon fill="none" points="2669.46,209.09,2675.708,212.6903,2681.4345,208.3076,2675.1864,204.7073,2669.46,209.09" style="stroke:#181818;stroke-width:1;"/></g><!--reverse link BaseCell to BoardCell--><g class="link" data-entity-1="BaseCell" data-entity-2="BoardCell" data-source-line="216" data-uid="lnk58" id="link_BaseCell_BoardCell"><path codeLine="216" d="M2674.923,170.0128 C2725.063,160.0228 2758.28,153.41 2803.35,144.43" fill="none" id="BaseCell-backto-BoardCell" style="stroke:#181818;stroke-width:1;"/><polygon fill="none" points="2657.27,173.53,2676.0954,175.8971,2673.7506,164.1284,2657.27,173.53" style="stroke:#181818;stroke-width:1;"/></g><!--reverse link PlayerCell to Server--><g class="link" data-entity-1="PlayerCell" data-entity-2="Server" data-source-line="218" data-uid="lnk60" id="link_PlayerCell_Server"><path codeLine="218" d="M3107.6914,291.3751 C3154.5314,300.0151 3189.68,306.33 3237.99,314.7 C3269.17,320.1 3302.32,325.67 3334.53,330.98" fill="none" id="PlayerCell-backto-Server" style="stroke:#181818;stroke-width:1;"/><polygon fill="none" points="3089.99,288.11,3106.603,297.2756,3108.7798,285.4747,3089.99,288.11" style="stroke:#181818;stroke-width:1;"/></g><!--reverse link PlayerCell to Firewall--><g class="link" data-entity-1="PlayerCell" data-entity-2="Firewall" data-source-line="219" data-uid="lnk61" id="link_PlayerCell_Firewall"><path codeLine="219" d="M3108.0593,264.0573 C3169.8293,264.5973 3226.61,265.1 3296.37,265.72" fill="none" id="PlayerCell-backto-Firewall" style="stroke:#181818;stroke-width:1;"/><polygon fill="none" points="3090.06,263.9,3108.0069,270.0571,3108.1118,258.0576,3090.06,263.9" style="stroke:#181818;stroke-width:1;"/></g><!--reverse link PlayerCell to Goal--><g class="link" data-entity-1="PlayerCell" data-entity-2="Goal" data-source-line="220" data-uid="lnk62" id="link_PlayerCell_Goal"><path codeLine="220" d="M3107.8462,238.854 C3179.4162,227.724 3250.67,216.63 3329.14,204.42" fill="none" id="PlayerCell-backto-Goal" style="stroke:#181818;stroke-width:1;"/><polygon fill="none" points="3090.06,241.62,3108.7682,244.7827,3106.9242,232.9253,3090.06,241.62" style="stroke:#181818;stroke-width:1;"/></g><!--reverse link Link to VirusLink--><g class="link" data-entity-1="Link" data-entity-2="VirusLink" data-source-line="222" data-uid="lnk63" id="link_Link_VirusLink"><path codeLine="222" d="M5106.9893,228.7815 C5127.2093,237.2615 5131.01,238.43 5150.78,245.7 C5171.76,253.41 5195.34,260.49 5215.9,266.17" fill="none" id="Link-backto-VirusLink" style="stroke:#181818;stroke-width:1;"/><polygon fill="none" points="5090.39,221.82,5104.6688,234.3146,5109.3098,223.2484,5090.39,221.82" style="stroke:#181818;stroke-width:1;"/></g><!--reverse link Link to DataLink--><g class="link" data-entity-1="Link" data-entity-2="DataLink" data-source-line="223" data-uid="lnk64" id="link_Link_DataLink"><path codeLine="223" d="M5108.5997,177.8113 C5156.6097,188.2413 5186.48,194.73 5220.34,202.09" fill="none" id="Link-backto-DataLink" style="stroke:#181818;stroke-width:1;"/><polygon fill="none" points="5091.01,173.99,5107.3259,183.6745,5109.8735,171.948,5091.01,173.99" style="stroke:#181818;stroke-width:1;"/></g><!--reverse link LinkDecorator to LinkBoostDecorator--><g class="link" data-entity-1="LinkDecorator" data-entity-2="LinkBoostDecorator" data-source-line="226" data-uid="lnk66" id="link_LinkDecorator_LinkBoostDecorator"><path codeLine="226" d="M5382.862,171.7376 C5390.932,176.6776 5383.11,173.03 5389.58,179.7 C5444.18,236.03 5391.51,292.95 5449.58,345.7 C5461.36,356.41 5476.06,363.84 5491.34,368.98" fill="none" id="LinkDecorator-backto-LinkBoostDecorator" style="stroke:#181818;stroke-width:1;"/><polygon fill="none" points="5367.51,162.34,5379.7295,176.855,5385.9946,166.6203,5367.51,162.34" style="stroke:#181818;stroke-width:1;"/></g><!--reverse link LinkDecorator to PolarizeDecorator--><g class="link" data-entity-1="LinkDecorator" data-entity-2="PolarizeDecorator" data-source-line="227" data-uid="lnk67" id="link_LinkDecorator_PolarizeDecorator"><path codeLine="227" d="M5379.6336,170.9914 C5388.8436,175.9714 5381.81,173.13 5389.58,179.7 C5428.87,212.92 5408.26,248.04 5449.58,278.7 C5463.03,288.69 5479.13,295.75 5495.4,300.74" fill="none" id="LinkDecorator-backto-PolarizeDecorator" style="stroke:#181818;stroke-width:1;"/><polygon fill="none" points="5363.8,162.43,5376.7797,176.2693,5382.4874,165.7136,5363.8,162.43" style="stroke:#181818;stroke-width:1;"/></g><!--reverse link LinkDecorator to RevealDecorator--><g class="link" data-entity-1="LinkDecorator" data-entity-2="RevealDecorator" data-source-line="228" data-uid="lnk68" id="link_LinkDecorator_RevealDecorator"><path codeLine="228" d="M5366.7552,169.281 C5380.0452,174.751 5376.98,173.76 5389.58,179.7 C5417.11,192.67 5421.24,201.6 5449.58,212.7 C5466.81,219.45 5485.85,225.15 5504,229.81" fill="none" id="LinkDecorator-backto-RevealDecorator" style="stroke:#181818;stroke-width:1;"/><polygon fill="none" points="5350.11,162.43,5364.4716,174.8294,5369.0389,163.7325,5350.11,162.43" style="stroke:#181818;stroke-width:1;"/></g><!--reverse link LinkDecorator to LagDecorator--><g class="link" data-entity-1="LinkDecorator" data-entity-2="LagDecorator" data-source-line="229" data-uid="lnk69" id="link_LinkDecorator_LagDecorator"><path codeLine="229" d="M5407.5396,147.1684 C5450.6296,151.7384 5479.84,154.84 5516.68,158.75" fill="none" id="LinkDecorator-backto-LagDecorator" style="stroke:#181818;stroke-width:1;"/><polygon fill="none" points="5389.64,145.27,5406.9068,153.1349,5408.1724,141.2018,5389.64,145.27" style="stroke:#181818;stroke-width:1;"/></g><!--reverse link LinkDecorator to QuantumEntanglementDecorator--><g class="link" data-entity-1="LinkDecorator" data-entity-2="QuantumEntanglementDecorator" data-source-line="230" data-uid="lnk70" id="link_LinkDecorator_QuantumEntanglementDecorator"><path codeLine="230" d="M5407.3141,106.4403 C5426.8041,102.6803 5429.43,102.17 5449.24,98.35" fill="none" id="LinkDecorator-backto-QuantumEntanglementDecorator" style="stroke:#181818;stroke-width:1;"/><polygon fill="none" points="5389.64,109.85,5408.4507,112.3317,5406.1775,100.5489,5389.64,109.85" style="stroke:#181818;stroke-width:1;"/></g><!--reverse link Ability to FirewallAbility--><g class="link" data-entity-1="Ability" data-entity-2="FirewallAbility" data-source-line="232" data-uid="lnk71" id="link_Ability_FirewallAbility"><path codeLine="232" d="M4586.5198,485.6796 C4614.4898,475.0196 4624.65,468.47 4649.18,452.7 C4686.27,428.86 4671.58,396.72 4709.18,373.7 C4742.3,353.43 4784.38,344.55 4820.49,340.9" fill="none" id="Ability-backto-FirewallAbility" style="stroke:#181818;stroke-width:1;"/><polygon fill="none" points="4569.7,492.09,4588.6566,491.2862,4584.383,480.073,4569.7,492.09" style="stroke:#181818;stroke-width:1;"/></g><!--reverse link Ability to DownloadAbility--><g class="link" data-entity-1="Ability" data-entity-2="DownloadAbility" data-source-line="233" data-uid="lnk72" id="link_Ability_DownloadAbility"><path codeLine="233" d="M4586.3535,493.4103 C4615.0835,481.1403 4625.63,472.58 4649.18,452.7 C4702.79,407.45 4654.59,350.76 4709.18,306.7 C4740.18,281.68 4783.37,272.57 4820.72,269.99" fill="none" id="Ability-backto-DownloadAbility" style="stroke:#181818;stroke-width:1;"/><polygon fill="none" points="4569.8,500.48,4588.7101,498.9281,4583.997,487.8925,4569.8,500.48" style="stroke:#181818;stroke-width:1;"/></g><!--reverse link Ability to LinkBoostAbility--><g class="link" data-entity-1="Ability" data-entity-2="LinkBoostAbility" data-source-line="234" data-uid="lnk73" id="link_Ability_LinkBoostAbility"><path codeLine="234" d="M4420.2543,608.7907 C4507.6443,643.7207 4604.97,679.33 4709.18,707.7 C4743.9,717.15 4782.93,724.66 4816.53,730.19" fill="none" id="Ability-backto-LinkBoostAbility" style="stroke:#181818;stroke-width:1;"/><polygon fill="none" points="4403.54,602.11,4418.0274,614.3622,4422.4812,603.2193,4403.54,602.11" style="stroke:#181818;stroke-width:1;"/></g><!--reverse link Ability to PolarizeAbility--><g class="link" data-entity-1="Ability" data-entity-2="PolarizeAbility" data-source-line="235" data-uid="lnk74" id="link_Ability_PolarizeAbility"><path codeLine="235" d="M4544.1105,605.9835 C4604.1305,619.1735 4649.96,628.84 4709.18,640.7 C4745.78,648.03 4786.5,655.42 4820.82,661.44" fill="none" id="Ability-backto-PolarizeAbility" style="stroke:#181818;stroke-width:1;"/><polygon fill="none" points="4526.53,602.12,4542.8227,611.8436,4545.3983,600.1233,4526.53,602.12" style="stroke:#181818;stroke-width:1;"/></g><!--reverse link Ability to ScanAbility--><g class="link" data-entity-1="Ability" data-entity-2="ScanAbility" data-source-line="236" data-uid="lnk75" id="link_Ability_ScanAbility"><path codeLine="236" d="M4587.3626,575.1402 C4689.2126,585.7802 4774.37,594.68 4837.46,601.27" fill="none" id="Ability-backto-ScanAbility" style="stroke:#181818;stroke-width:1;"/><polygon fill="none" points="4569.46,573.27,4586.7392,581.1077,4587.986,569.1727,4569.46,573.27" style="stroke:#181818;stroke-width:1;"/></g><!--reverse link Ability to BadConnectionAbility--><g class="link" data-entity-1="Ability" data-entity-2="BadConnectionAbility" data-source-line="237" data-uid="lnk76" id="link_Ability_BadConnectionAbility"><path codeLine="237" d="M4587.46,540.7 C4670.98,540.7 4737.31,540.7 4799.75,540.7" fill="none" id="Ability-backto-BadConnectionAbility" style="stroke:#181818;stroke-width:1;"/><polygon fill="none" points="4569.46,540.7,4587.46,546.7,4587.46,534.7,4569.46,540.7" style="stroke:#181818;stroke-width:1;"/></g><!--reverse link Ability to QuantumEntanglementAbility--><g class="link" data-entity-1="Ability" data-entity-2="QuantumEntanglementAbility" data-source-line="238" data-uid="lnk77" id="link_Ability_QuantumEntanglementAbility"><path codeLine="238" d="M4587.3626,506.2604 C4660.0426,498.6704 4715.44,492.88 4774.39,486.72" fill="none" id="Ability-backto-QuantumEntanglementAbility" style="stroke:#181818;stroke-width:1;"/><polygon fill="none" points="4569.46,508.13,4587.9858,512.2279,4586.7395,500.2929,4569.46,508.13" style="stroke:#181818;stroke-width:1;"/></g><!--reverse link Ability to PappleAbility--><g class="link" data-entity-1="Ability" data-entity-2="PappleAbility" data-source-line="239" data-uid="lnk78" id="link_Ability_PappleAbility"><path codeLine="239" d="M4544.1105,475.4165 C4604.1305,462.2265 4649.96,452.56 4709.18,440.7 C4748.73,432.78 4793.1,424.78 4828.99,418.54" fill="none" id="Ability-backto-PappleAbility" style="stroke:#181818;stroke-width:1;"/><polygon fill="none" points="4526.53,479.28,4545.3983,481.2767,4542.8227,469.5563,4526.53,479.28" style="stroke:#181818;stroke-width:1;"/></g><!--reverse link View to TextView--><g class="link" data-entity-1="View" data-entity-2="TextView" data-source-line="241" data-uid="lnk79" id="link_View_TextView"><path codeLine="241" d="M1165.9265,951.5754 C1269.9265,961.0054 1380.44,971.03 1484.43,980.46" fill="none" id="View-backto-TextView" style="stroke:#181818;stroke-width:1;"/><polygon fill="none" points="1148,949.95,1165.3846,957.5509,1166.4683,945.5999,1148,949.95" style="stroke:#181818;stroke-width:1;"/></g><!--reverse link View to GraphicsView--><g class="link" data-entity-1="View" data-entity-2="GraphicsView" data-source-line="242" data-uid="lnk80" id="link_View_GraphicsView"><path codeLine="242" d="M1165.9372,915.2782 C1300.4272,904.0182 1457.83,890.84 1568.35,881.59" fill="none" id="View-backto-GraphicsView" style="stroke:#181818;stroke-width:1;"/><polygon fill="none" points="1148,916.78,1166.4378,921.2573,1165.4367,909.2991,1148,916.78" style="stroke:#181818;stroke-width:1;"/></g><!--SRC=[hLZTRzis47_NNq5aGEQwJhVd83FWVBJDcZHTdBOFmr0m4cCJaKYDf99wNVxttP4IHL9ocgxjWqFnZiUxtttmhYMxCSH8elXgRKZ15SiDboBJjrpKLD6Av2NLUc6CujUDOQUv54l-3oE_1Ym5kw5DQLvAOTxIYf6TtvavL9GBJSwba3lPcXUCiAes6rAnwfefdMK_axszFN8YcahZAgjfVajNS9ZXrWxvaX62Ix9pniNj_lvnfziEePhWdj-nl8IylRYyUcrNoultxUfaiRooYuydTl6G9MBnzsfJCoyLFrg17qulto_jwdXnjR2d7ph5psN1IdA4uB34W0f9EwqC2nzvXR2u3KBsY3R5_luTA2_LWLqtWl_Ti4-rKGVlIhfXQZudjLreVuWBG_96AIQCupaL1ViSompa74ggYZcvnZynarvJnGhBX0QVKm5ggpaf-u_u08Xis45J5zImJmRmcHExbRLipycTv0NmKcNGqicB5o-UnJJ1FfkhHeb9lsyLt2KhY1LSJPuHY2rjFDqPEINvckMt7xauare7npiod3yAKGbO0kliFS7tu3QhPKLlsRcyOvD6QBuIhB2Op405gZ0v4gCQpHRNlEHcCq7dy6BcX0xzgo5zn6g-Isp2Q2Vd8GiYn6BmM8Xi2PT3gjaHAylvFFMrjq79UptSpMMf4mTMO3fYDB6Nr9Ih0x1hXf4t9x8iFkLIgaBFo1XTi7jFno00py1luEvMKUi9N8pUuYGaEDEYU0cvVayVFJJp8U4oPmJa801Ig2jQjwatdJsQdoW3mNRPKWyqHRf-ALKRZLyB21GpK7tcmc7gFDgZSIrbIHJpViAVDsn3RjacZdeVxkCiLWwjwt9pp7AfAAZLvsoB6Bq67MbkklXitUTn-yaP9MkimBGCIuchgd2hGmaMFKfScOQM3YqfJeG1ZCQEjfbd2-VKHXBv3HwTL8wrXEkBF6zgpk8YCiolo83d_qU9Hn1oBXp3Q2nToJMiF5ldVdalsk8RARzawYu8sU_Mt4djSkf7otqbwG-NwG1AapQf0nfYcJtfaMtBDgGnjIlEzBU_aTx2CLqW_vQepk2XsL8GnfIpMRpe51n_iWe8cLBIOZkoRxhC7mzRP4q3ThI-FXAik1jMBB-9poBSniJAhBD1ylfs2yp4lvs5spCT62_P7QFbqa0lCew8OW2aDlOTxrj4UBs7xr8KOX-uQhH3uo7OFgQ6ThlRyFDLz97Cj-z6d_M3T-bGIcq2GQ4ExsH95NJTMyWEaYt4CxeQgkUwIGCDcJw32Q3Lg3_qHqE5QIh8MIfM9QkWkneJWdfFiQSnITbAC6eZEaN7FO94W3yymReP6giY6typW3InbM8NtVYrXelijWrN55BXvH1HEBDiVpYwAkbjY8AZpRvHelVgABNpwIXncLCnIZYanP4KmWNrACU8wyRln_S_lDsFDd21KR8ieTv6Sqtkz-FX9k3_idKSGP_DRUgbB51R6DRQ9tTW7pYxnmxi3lxsPTlL1v1_gYyR8S2tINUh6e5Ad4bPJv864u84dcLPLLGKOSVcOcGNGiEImA4iESa5DxRvfsgLkq5XYkkxF__gIep75VME4KKBEYoJbB7C7Pm-Orf474nO0tKw9oAhiw1zCgTuYQ_JFRb_RZDFItFDJdmJx5VUssMOHjkuNJ72s7_wcJOAZsGZpDDFsVVr2Um5ruZHu7M9qlmA1jG4ywyCOMs9YSUkVZOSO9To96gDz56ArckUwqIjxxp0X-DBYhPinlyFuyOHuqH7ftQd-lxk2ypzXkSFMrwyN35GpiuYwOWHFGxV8BXha5hPBj2xITpEwhm8ig-rzvAL5AkcNlFQMGi4IFfQQcvRXCd5lT1xT4OgsqPfw9vkcE7OB0GbRWgYRF8CDj5FcKqhzyzkshPeiEjKpjpG7p2tqq7MvgudjCPbuG2B1FpEuWx4yjlzO229fQFXYzLAiPK5XFn25bhBdBkloMjgKIWaG22aQU48q0YiaTrjNLCSQ3wWsJOgEDUYa6uxo0BjGsO_XmRoqPvJiMQAmvkNCp8v1GEUzQm7_mAd7m2J_VwUy4fBScFNOBlh20O477moPuxzzXrbiDUray5MvByiSQVdYFl3CQv1bpZ6bFIAexS57UCO_R7cCCkwZYA2gelVY9WqJp4nRPvYQj8ynSIWUOe9OyrJpB6zUKhk3vkdBBCLsXAwPoJO2ijublq7]--></g></svg>