<svg xmlns="http://www.w3.org/2000/svg" xmlns:xlink="http://www.w3.org/1999/xlink" contentStyleType="text/css" data-diagram-type="CLASS" height="1595px" preserveAspectRatio="none" style="width:3765px;height:1595px;background:#FFFFFF;" version="1.1" viewBox="0 0 3765 1595" width="3765px" zoomAndPan="magnify"><defs/><g><!--cluster model--><g class="cluster" data-entity="model" data-source-line="3" data-uid="ent0002" id="cluster_model"><path d="M1068.5,227.942 L1113.3653,227.942 A3.75,3.75 0 0 1 1115.8653,230.442 L1122.8653,253.0099 L3258.5,253.0099 A2.5,2.5 0 0 1 3261,255.5099 L3261,1585.612 A2.5,2.5 0 0 1 3258.5,1588.112 L1068.5,1588.112 A2.5,2.5 0 0 1 1066,1585.612 L1066,230.442 A2.5,2.5 0 0 1 1068.5,227.942" fill="none" style="stroke:#000000;stroke-width:1.5;"/><line style="stroke:#000000;stroke-width:1.5;" x1="1066" x2="1122.8653" y1="253.0099" y2="253.0099"/><text fill="#000000" font-family="sans-serif" font-size="14" font-weight="bold" lengthAdjust="spacing" textLength="43.8653" x="1070" y="244.9079">model</text></g><!--cluster view--><g class="cluster" data-entity="view" data-source-line="133" data-uid="ent0030" id="cluster_view"><path d="M3287.5,294.672 L3319.8739,294.672 A3.75,3.75 0 0 1 3322.3739,297.172 L3329.3739,319.7399 L3755.5,319.7399 A2.5,2.5 0 0 1 3758,322.2399 L3758,750.062 A2.5,2.5 0 0 1 3755.5,752.562 L3287.5,752.562 A2.5,2.5 0 0 1 3285,750.062 L3285,297.172 A2.5,2.5 0 0 1 3287.5,294.672" fill="none" style="stroke:#000000;stroke-width:1.5;"/><line style="stroke:#000000;stroke-width:1.5;" x1="3285" x2="3329.3739" y1="319.7399" y2="319.7399"/><text fill="#000000" font-family="sans-serif" font-size="14" font-weight="bold" lengthAdjust="spacing" textLength="31.3739" x="3289" y="311.6379">view</text></g><!--cluster controller--><g class="cluster" data-entity="controller" data-source-line="154" data-uid="ent0034" id="cluster_controller"><path d="M2440.5,6.602 L2509.9248,6.602 A3.75,3.75 0 0 1 2512.4248,9.102 L2519.4248,31.6699 L2851.5,31.6699 A2.5,2.5 0 0 1 2854,34.1699 L2854,201.442 A2.5,2.5 0 0 1 2851.5,203.942 L2440.5,203.942 A2.5,2.5 0 0 1 2438,201.442 L2438,9.102 A2.5,2.5 0 0 1 2440.5,6.602" fill="none" style="stroke:#000000;stroke-width:1.5;"/><line style="stroke:#000000;stroke-width:1.5;" x1="2438" x2="2519.4248" y1="31.6699" y2="31.6699"/><text fill="#000000" font-family="sans-serif" font-size="14" font-weight="bold" lengthAdjust="spacing" textLength="68.4248" x="2442" y="23.5679">controller</text></g><!--cluster factory--><g class="cluster" data-entity="factory" data-source-line="166" data-uid="ent0036" id="cluster_factory"><path d="M8.5,882.502 L58.3983,882.502 A3.75,3.75 0 0 1 60.8983,885.002 L67.8983,907.5699 L1039.5,907.5699 A2.5,2.5 0 0 1 1042,910.0699 L1042,1001.072 A2.5,2.5 0 0 1 1039.5,1003.572 L8.5,1003.572 A2.5,2.5 0 0 1 6,1001.072 L6,885.002 A2.5,2.5 0 0 1 8.5,882.502" fill="none" style="stroke:#000000;stroke-width:1.5;"/><line style="stroke:#000000;stroke-width:1.5;" x1="6" x2="67.8983" y1="907.5699" y2="907.5699"/><text fill="#000000" font-family="sans-serif" font-size="14" font-weight="bold" lengthAdjust="spacing" textLength="48.8983" x="10" y="899.4679">factory</text></g><!--class Game--><g class="entity" data-entity="Game" data-source-line="4" data-uid="ent0003" id="entity_Game"><rect fill="#F1F1F1" height="238.6792" rx="2.5" ry="2.5" style="stroke:#181818;stroke-width:0.5;" width="319.2569" x="1734.37" y="265.942"/><ellipse cx="1870.2325" cy="281.942" fill="#ADD1B2" rx="11" ry="11" style="stroke:#181818;stroke-width:1;"/><path d="M1870.3419,277.4732 Q1869.42,277.4732 1868.6856,277.7857 Q1867.9669,278.0982 1867.4669,278.692 Q1866.9669,279.2701 1866.6856,280.1451 Q1866.42,281.0201 1866.42,282.1139 Q1866.42,283.5514 1866.8575,284.5982 Q1867.3106,285.6451 1868.1544,286.192 Q1869.0138,286.7389 1870.3263,286.7389 Q1871.1075,286.7389 1871.795,286.6139 Q1872.4981,286.4732 1873.4981,286.1607 L1873.4981,288.0357 Q1872.6388,288.3639 1871.8731,288.4889 Q1871.1231,288.6139 1870.1075,288.6139 Q1868.1856,288.6139 1866.8731,287.817 Q1865.5763,287.0045 1864.92,285.5357 Q1864.2638,284.0514 1864.2638,282.0826 Q1864.2638,280.6607 1864.6544,279.4889 Q1865.0606,278.3014 1865.8419,277.4264 Q1866.6231,276.5514 1867.7638,276.0826 Q1868.9044,275.5982 1870.3731,275.5982 Q1871.3263,275.5982 1872.2169,275.8014 Q1873.1231,275.9889 1874.0606,276.4576 L1873.2325,278.2389 Q1872.4513,277.8639 1871.795,277.6764 Q1871.1388,277.4732 1870.3419,277.4732 Z " fill="#000000"/><text fill="#000000" font-family="sans-serif" font-size="14" lengthAdjust="spacing" textLength="39.0318" x="1890.7325" y="287.374">Game</text><line style="stroke:#181818;stroke-width:0.5;" x1="1735.37" x2="2052.6269" y1="297.942" y2="297.942"/><rect fill="none" height="6" style="stroke:#C82930;stroke-width:1;" width="6" x="1742.37" y="309.9759"/><text fill="#000000" font-family="sans-serif" font-size="14" lengthAdjust="spacing" textLength="149.0434" x="1754.37" y="316.9079">vector&lt;Player&gt; players</text><rect fill="none" height="6" style="stroke:#C82930;stroke-width:1;" width="6" x="1742.37" y="329.0439"/><text fill="#000000" font-family="sans-serif" font-size="14" lengthAdjust="spacing" textLength="151.3114" x="1754.37" y="335.9758">int currentPlayerIndex;</text><line style="stroke:#181818;stroke-width:0.5;" x1="1735.37" x2="2052.6269" y1="344.0778" y2="344.0778"/><ellipse cx="1745.37" cy="359.1118" fill="#84BE84" rx="3" ry="3" style="stroke:#038048;stroke-width:1;"/><text fill="#000000" font-family="sans-serif" font-size="14" lengthAdjust="spacing" textLength="109.3256" x="1754.37" y="363.0438">void startGame()</text><ellipse cx="1745.37" cy="378.1797" fill="#84BE84" rx="3" ry="3" style="stroke:#038048;stroke-width:1;"/><text fill="#000000" font-family="sans-serif" font-size="14" lengthAdjust="spacing" textLength="99.7216" x="1754.37" y="382.1117">void nextTurn()</text><ellipse cx="1745.37" cy="397.2476" fill="#84BE84" rx="3" ry="3" style="stroke:#038048;stroke-width:1;"/><text fill="#000000" font-family="sans-serif" font-size="14" lengthAdjust="spacing" textLength="133.1675" x="1754.37" y="401.1796">bool checkWinLoss()</text><ellipse cx="1745.37" cy="416.3155" fill="#84BE84" rx="3" ry="3" style="stroke:#038048;stroke-width:1;"/><text fill="#000000" font-family="sans-serif" font-size="14" lengthAdjust="spacing" textLength="173.4873" x="1754.37" y="420.2475">Player* getCurrentPlayer()</text><ellipse cx="1745.37" cy="435.3834" fill="#84BE84" rx="3" ry="3" style="stroke:#038048;stroke-width:1;"/><text fill="#000000" font-family="sans-serif" font-size="14" lengthAdjust="spacing" textLength="181.0893" x="1754.37" y="439.3154">int getPlayerIndex(Player *)</text><ellipse cx="1745.37" cy="454.4514" fill="#84BE84" rx="3" ry="3" style="stroke:#038048;stroke-width:1;"/><text fill="#000000" font-family="sans-serif" font-size="14" lengthAdjust="spacing" textLength="226.3791" x="1754.37" y="458.3833">void makeMove(char link, char dir)</text><ellipse cx="1745.37" cy="473.5193" fill="#84BE84" rx="3" ry="3" style="stroke:#038048;stroke-width:1;"/><text fill="#000000" font-family="sans-serif" font-size="14" lengthAdjust="spacing" textLength="206.6812" x="1754.37" y="477.4513">void showCurrentPlayerAbility()</text><ellipse cx="1745.37" cy="492.5872" fill="#84BE84" rx="3" ry="3" style="stroke:#038048;stroke-width:1;"/><text fill="#000000" font-family="sans-serif" font-size="14" lengthAdjust="spacing" textLength="293.2569" x="1754.37" y="496.5192">void useAbility(int id, vector&lt;string&gt; params)</text></g><!--class Board--><g class="entity" data-entity="Board" data-source-line="18" data-uid="ent0004" id="entity_Board"><rect fill="#F1F1F1" height="86.1358" rx="2.5" ry="2.5" style="stroke:#181818;stroke-width:0.5;" width="332.3188" x="1525.84" y="1104.772"/><ellipse cx="1667.8415" cy="1120.772" fill="#ADD1B2" rx="11" ry="11" style="stroke:#181818;stroke-width:1;"/><path d="M1667.9509,1116.3032 Q1667.029,1116.3032 1666.2946,1116.6157 Q1665.5759,1116.9282 1665.0759,1117.522 Q1664.5759,1118.1001 1664.2946,1118.9751 Q1664.029,1119.8501 1664.029,1120.9439 Q1664.029,1122.3814 1664.4665,1123.4282 Q1664.9196,1124.4751 1665.7634,1125.022 Q1666.6227,1125.5689 1667.9352,1125.5689 Q1668.7165,1125.5689 1669.404,1125.4439 Q1670.1071,1125.3032 1671.1071,1124.9907 L1671.1071,1126.8657 Q1670.2477,1127.1939 1669.4821,1127.3189 Q1668.7321,1127.4439 1667.7165,1127.4439 Q1665.7946,1127.4439 1664.4821,1126.647 Q1663.1852,1125.8345 1662.529,1124.3657 Q1661.8727,1122.8814 1661.8727,1120.9126 Q1661.8727,1119.4907 1662.2634,1118.3189 Q1662.6696,1117.1314 1663.4509,1116.2564 Q1664.2321,1115.3814 1665.3727,1114.9126 Q1666.5134,1114.4282 1667.9821,1114.4282 Q1668.9352,1114.4282 1669.8259,1114.6314 Q1670.7321,1114.8189 1671.6696,1115.2876 L1670.8415,1117.0689 Q1670.0602,1116.6939 1669.404,1116.5064 Q1668.7477,1116.3032 1667.9509,1116.3032 Z " fill="#000000"/><text fill="#000000" font-family="sans-serif" font-size="14" lengthAdjust="spacing" textLength="39.8159" x="1688.3415" y="1126.204">Board</text><line style="stroke:#181818;stroke-width:0.5;" x1="1526.84" x2="1857.1588" y1="1136.772" y2="1136.772"/><rect fill="none" height="6" style="stroke:#C82930;stroke-width:1;" width="6" x="1533.84" y="1148.8059"/><text fill="#000000" font-family="sans-serif" font-size="14" lengthAdjust="spacing" textLength="216.3412" x="1545.84" y="1155.7379">vector&lt;vector&lt;BaseCell&gt;&gt; board;</text><line style="stroke:#181818;stroke-width:0.5;" x1="1526.84" x2="1857.1588" y1="1163.8399" y2="1163.8399"/><ellipse cx="1536.84" cy="1178.8739" fill="#84BE84" rx="3" ry="3" style="stroke:#038048;stroke-width:1;"/><text fill="#000000" font-family="sans-serif" font-size="14" lengthAdjust="spacing" textLength="306.3188" x="1545.84" y="1182.8058">bool moveLink(Link* link, pair&lt;int, int&gt; coords)</text></g><!--class BaseCell--><g class="entity" data-entity="BaseCell" data-source-line="24" data-uid="ent0005" id="entity_BaseCell"><rect fill="#F1F1F1" height="86.1358" rx="2.5" ry="2.5" style="stroke:#181818;stroke-width:0.5;" width="156.5635" x="2088.72" y="1250.912"/><ellipse cx="2136.8448" cy="1266.912" fill="#A9DCDF" rx="11" ry="11" style="stroke:#181818;stroke-width:1;"/><path d="M2140.1886,1272.162 L2138.7198,1268.412 L2134.2823,1268.412 L2132.8448,1272.162 L2130.7198,1272.162 L2135.673,1259.4432 L2137.423,1259.4432 L2142.3448,1272.162 L2140.1886,1272.162 Z M2136.8448,1263.2089 Q2136.798,1263.0526 2136.673,1262.6932 Q2136.548,1262.3339 2136.4386,1261.9589 Q2136.3292,1261.5682 2136.5323,1261.5057 Q2136.6886,1261.6932 2136.5948,1262.0526 Q2136.5011,1262.3964 2136.4073,1262.6932 Q2136.3136,1262.9745 2136.2355,1263.2089 L2135.0011,1266.5214 L2138.0792,1266.5214 L2136.8448,1263.2089 Z " fill="#000000"/><text fill="#000000" font-family="sans-serif" font-size="14" font-style="italic" lengthAdjust="spacing" textLength="51.8138" x="2157.3448" y="1272.344">BaseCell</text><line style="stroke:#181818;stroke-width:0.5;" x1="2089.72" x2="2244.2835" y1="1282.912" y2="1282.912"/><rect fill="none" height="6" style="stroke:#C82930;stroke-width:1;" width="6" x="2096.72" y="1294.9459"/><text fill="#000000" font-family="sans-serif" font-size="14" lengthAdjust="spacing" textLength="126.2375" x="2108.72" y="1301.8779">Link* occupantLink</text><line style="stroke:#181818;stroke-width:0.5;" x1="2089.72" x2="2244.2835" y1="1309.9799" y2="1309.9799"/><ellipse cx="2099.72" cy="1325.0139" fill="#84BE84" rx="3" ry="3" style="stroke:#038048;stroke-width:1;"/><text fill="#000000" font-family="sans-serif" font-size="14" lengthAdjust="spacing" textLength="130.5635" x="2108.72" y="1328.9458">void onEnter(Link *)</text></g><!--class BoardCell--><g class="entity" data-entity="BoardCell" data-source-line="30" data-uid="ent0006" id="entity_BoardCell"><rect fill="#F1F1F1" height="48" rx="2.5" ry="2.5" style="stroke:#181818;stroke-width:0.5;" width="95.7838" x="2033.11" y="1406.582"/><ellipse cx="2048.11" cy="1422.582" fill="#ADD1B2" rx="11" ry="11" style="stroke:#181818;stroke-width:1;"/><path d="M2048.2194,1418.1132 Q2047.2975,1418.1132 2046.5631,1418.4257 Q2045.8444,1418.7382 2045.3444,1419.332 Q2044.8444,1419.9101 2044.5631,1420.7851 Q2044.2975,1421.6601 2044.2975,1422.7539 Q2044.2975,1424.1914 2044.735,1425.2382 Q2045.1881,1426.2851 2046.0319,1426.832 Q2046.8912,1427.3789 2048.2037,1427.3789 Q2048.985,1427.3789 2049.6725,1427.2539 Q2050.3756,1427.1132 2051.3756,1426.8007 L2051.3756,1428.6757 Q2050.5162,1429.0039 2049.7506,1429.1289 Q2049.0006,1429.2539 2047.985,1429.2539 Q2046.0631,1429.2539 2044.7506,1428.457 Q2043.4537,1427.6445 2042.7975,1426.1757 Q2042.1412,1424.6914 2042.1412,1422.7226 Q2042.1412,1421.3007 2042.5319,1420.1289 Q2042.9381,1418.9414 2043.7194,1418.0664 Q2044.5006,1417.1914 2045.6412,1416.7226 Q2046.7819,1416.2382 2048.2506,1416.2382 Q2049.2037,1416.2382 2050.0944,1416.4414 Q2051.0006,1416.6289 2051.9381,1417.0976 L2051.11,1418.8789 Q2050.3287,1418.5039 2049.6725,1418.3164 Q2049.0162,1418.1132 2048.2194,1418.1132 Z " fill="#000000"/><text fill="#000000" font-family="sans-serif" font-size="14" lengthAdjust="spacing" textLength="63.7838" x="2062.11" y="1428.014">BoardCell</text><line style="stroke:#181818;stroke-width:0.5;" x1="2034.11" x2="2127.8938" y1="1438.582" y2="1438.582"/><line style="stroke:#181818;stroke-width:0.5;" x1="2034.11" x2="2127.8938" y1="1446.582" y2="1446.582"/></g><!--class PlayerCell--><g class="entity" data-entity="PlayerCell" data-source-line="33" data-uid="ent0007" id="entity_PlayerCell"><rect fill="#F1F1F1" height="67.0679" rx="2.5" ry="2.5" style="stroke:#181818;stroke-width:0.5;" width="119.9116" x="2164.04" y="1397.042"/><ellipse cx="2191.1386" cy="1413.042" fill="#A9DCDF" rx="11" ry="11" style="stroke:#181818;stroke-width:1;"/><path d="M2194.4824,1418.292 L2193.0136,1414.542 L2188.5761,1414.542 L2187.1386,1418.292 L2185.0136,1418.292 L2189.9668,1405.5732 L2191.7168,1405.5732 L2196.6386,1418.292 L2194.4824,1418.292 Z M2191.1386,1409.3389 Q2191.0918,1409.1826 2190.9668,1408.8232 Q2190.8418,1408.4639 2190.7324,1408.0889 Q2190.623,1407.6982 2190.8261,1407.6357 Q2190.9824,1407.8232 2190.8886,1408.1826 Q2190.7949,1408.5264 2190.7011,1408.8232 Q2190.6074,1409.1045 2190.5293,1409.3389 L2189.2949,1412.6514 L2192.373,1412.6514 L2191.1386,1409.3389 Z " fill="#000000"/><text fill="#000000" font-family="sans-serif" font-size="14" font-style="italic" lengthAdjust="spacing" textLength="61.0258" x="2207.8272" y="1418.474">PlayerCell</text><line style="stroke:#181818;stroke-width:0.5;" x1="2165.04" x2="2282.9516" y1="1429.042" y2="1429.042"/><rect fill="none" height="6" style="stroke:#C82930;stroke-width:1;" width="6" x="2172.04" y="1441.0759"/><text fill="#000000" font-family="sans-serif" font-size="14" lengthAdjust="spacing" textLength="93.9116" x="2184.04" y="1448.0079">Player* owner</text><line style="stroke:#181818;stroke-width:0.5;" x1="2165.04" x2="2282.9516" y1="1456.1099" y2="1456.1099"/></g><!--class Server--><g class="entity" data-entity="Server" data-source-line="37" data-uid="ent0008" id="entity_Server"><rect fill="#F1F1F1" height="48" rx="2.5" ry="2.5" style="stroke:#181818;stroke-width:0.5;" width="74.1538" x="2073.92" y="1524.112"/><ellipse cx="2088.92" cy="1540.112" fill="#ADD1B2" rx="11" ry="11" style="stroke:#181818;stroke-width:1;"/><path d="M2089.0294,1535.6432 Q2088.1075,1535.6432 2087.3731,1535.9557 Q2086.6544,1536.2682 2086.1544,1536.862 Q2085.6544,1537.4401 2085.3731,1538.3151 Q2085.1075,1539.1901 2085.1075,1540.2839 Q2085.1075,1541.7214 2085.545,1542.7682 Q2085.9981,1543.8151 2086.8419,1544.362 Q2087.7013,1544.9089 2089.0138,1544.9089 Q2089.795,1544.9089 2090.4825,1544.7839 Q2091.1856,1544.6432 2092.1856,1544.3307 L2092.1856,1546.2057 Q2091.3263,1546.5339 2090.5606,1546.6589 Q2089.8106,1546.7839 2088.795,1546.7839 Q2086.8731,1546.7839 2085.5606,1545.987 Q2084.2638,1545.1745 2083.6075,1543.7057 Q2082.9513,1542.2214 2082.9513,1540.2526 Q2082.9513,1538.8307 2083.3419,1537.6589 Q2083.7481,1536.4714 2084.5294,1535.5964 Q2085.3106,1534.7214 2086.4513,1534.2526 Q2087.5919,1533.7682 2089.0606,1533.7682 Q2090.0138,1533.7682 2090.9044,1533.9714 Q2091.8106,1534.1589 2092.7481,1534.6276 L2091.92,1536.4089 Q2091.1388,1536.0339 2090.4825,1535.8464 Q2089.8263,1535.6432 2089.0294,1535.6432 Z " fill="#000000"/><text fill="#000000" font-family="sans-serif" font-size="14" lengthAdjust="spacing" textLength="42.1538" x="2102.92" y="1545.544">Server</text><line style="stroke:#181818;stroke-width:0.5;" x1="2074.92" x2="2147.0738" y1="1556.112" y2="1556.112"/><line style="stroke:#181818;stroke-width:0.5;" x1="2074.92" x2="2147.0738" y1="1564.112" y2="1564.112"/></g><!--class Firewall--><g class="entity" data-entity="Firewall" data-source-line="40" data-uid="ent0009" id="entity_Firewall"><rect fill="#F1F1F1" height="48" rx="2.5" ry="2.5" style="stroke:#181818;stroke-width:0.5;" width="82.6378" x="2182.68" y="1524.112"/><ellipse cx="2197.68" cy="1540.112" fill="#ADD1B2" rx="11" ry="11" style="stroke:#181818;stroke-width:1;"/><path d="M2197.7894,1535.6432 Q2196.8675,1535.6432 2196.1331,1535.9557 Q2195.4144,1536.2682 2194.9144,1536.862 Q2194.4144,1537.4401 2194.1331,1538.3151 Q2193.8675,1539.1901 2193.8675,1540.2839 Q2193.8675,1541.7214 2194.305,1542.7682 Q2194.7581,1543.8151 2195.6019,1544.362 Q2196.4613,1544.9089 2197.7738,1544.9089 Q2198.555,1544.9089 2199.2425,1544.7839 Q2199.9456,1544.6432 2200.9456,1544.3307 L2200.9456,1546.2057 Q2200.0863,1546.5339 2199.3206,1546.6589 Q2198.5706,1546.7839 2197.555,1546.7839 Q2195.6331,1546.7839 2194.3206,1545.987 Q2193.0238,1545.1745 2192.3675,1543.7057 Q2191.7113,1542.2214 2191.7113,1540.2526 Q2191.7113,1538.8307 2192.1019,1537.6589 Q2192.5081,1536.4714 2193.2894,1535.5964 Q2194.0706,1534.7214 2195.2113,1534.2526 Q2196.3519,1533.7682 2197.8206,1533.7682 Q2198.7738,1533.7682 2199.6644,1533.9714 Q2200.5706,1534.1589 2201.5081,1534.6276 L2200.68,1536.4089 Q2199.8988,1536.0339 2199.2425,1535.8464 Q2198.5863,1535.6432 2197.7894,1535.6432 Z " fill="#000000"/><text fill="#000000" font-family="sans-serif" font-size="14" lengthAdjust="spacing" textLength="50.6378" x="2211.68" y="1545.544">Firewall</text><line style="stroke:#181818;stroke-width:0.5;" x1="2183.68" x2="2264.3178" y1="1556.112" y2="1556.112"/><line style="stroke:#181818;stroke-width:0.5;" x1="2183.68" x2="2264.3178" y1="1564.112" y2="1564.112"/></g><!--class Goal--><g class="entity" data-entity="Goal" data-source-line="43" data-uid="ent0010" id="entity_Goal"><rect fill="#F1F1F1" height="48" rx="2.5" ry="2.5" style="stroke:#181818;stroke-width:0.5;" width="62.1279" x="2299.94" y="1524.112"/><ellipse cx="2314.94" cy="1540.112" fill="#ADD1B2" rx="11" ry="11" style="stroke:#181818;stroke-width:1;"/><path d="M2315.0494,1535.6432 Q2314.1275,1535.6432 2313.3931,1535.9557 Q2312.6744,1536.2682 2312.1744,1536.862 Q2311.6744,1537.4401 2311.3931,1538.3151 Q2311.1275,1539.1901 2311.1275,1540.2839 Q2311.1275,1541.7214 2311.565,1542.7682 Q2312.0181,1543.8151 2312.8619,1544.362 Q2313.7213,1544.9089 2315.0338,1544.9089 Q2315.815,1544.9089 2316.5025,1544.7839 Q2317.2056,1544.6432 2318.2056,1544.3307 L2318.2056,1546.2057 Q2317.3463,1546.5339 2316.5806,1546.6589 Q2315.8306,1546.7839 2314.815,1546.7839 Q2312.8931,1546.7839 2311.5806,1545.987 Q2310.2838,1545.1745 2309.6275,1543.7057 Q2308.9713,1542.2214 2308.9713,1540.2526 Q2308.9713,1538.8307 2309.3619,1537.6589 Q2309.7681,1536.4714 2310.5494,1535.5964 Q2311.3306,1534.7214 2312.4713,1534.2526 Q2313.6119,1533.7682 2315.0806,1533.7682 Q2316.0338,1533.7682 2316.9244,1533.9714 Q2317.8306,1534.1589 2318.7681,1534.6276 L2317.94,1536.4089 Q2317.1588,1536.0339 2316.5025,1535.8464 Q2315.8463,1535.6432 2315.0494,1535.6432 Z " fill="#000000"/><text fill="#000000" font-family="sans-serif" font-size="14" lengthAdjust="spacing" textLength="30.1279" x="2328.94" y="1545.544">Goal</text><line style="stroke:#181818;stroke-width:0.5;" x1="2300.94" x2="2361.0679" y1="1556.112" y2="1556.112"/><line style="stroke:#181818;stroke-width:0.5;" x1="2300.94" x2="2361.0679" y1="1564.112" y2="1564.112"/></g><!--class Player--><g class="entity" data-entity="Player" data-source-line="46" data-uid="ent0011" id="entity_Player"><rect fill="#F1F1F1" height="238.6792" rx="2.5" ry="2.5" style="stroke:#181818;stroke-width:0.5;" width="234.2772" x="1776.86" y="564.622"/><ellipse cx="1869.3717" cy="580.622" fill="#ADD1B2" rx="11" ry="11" style="stroke:#181818;stroke-width:1;"/><path d="M1869.481,576.1532 Q1868.5592,576.1532 1867.8248,576.4657 Q1867.106,576.7782 1866.606,577.372 Q1866.106,577.9501 1865.8248,578.8251 Q1865.5592,579.7001 1865.5592,580.7939 Q1865.5592,582.2314 1865.9967,583.2782 Q1866.4498,584.3251 1867.2935,584.872 Q1868.1529,585.4189 1869.4654,585.4189 Q1870.2467,585.4189 1870.9342,585.2939 Q1871.6373,585.1532 1872.6373,584.8407 L1872.6373,586.7157 Q1871.7779,587.0439 1871.0123,587.1689 Q1870.2623,587.2939 1869.2467,587.2939 Q1867.3248,587.2939 1866.0123,586.497 Q1864.7154,585.6845 1864.0592,584.2157 Q1863.4029,582.7314 1863.4029,580.7626 Q1863.4029,579.3407 1863.7935,578.1689 Q1864.1998,576.9814 1864.981,576.1064 Q1865.7623,575.2314 1866.9029,574.7626 Q1868.0435,574.2782 1869.5123,574.2782 Q1870.4654,574.2782 1871.356,574.4814 Q1872.2623,574.6689 1873.1998,575.1376 L1872.3717,576.9189 Q1871.5904,576.5439 1870.9342,576.3564 Q1870.2779,576.1532 1869.481,576.1532 Z " fill="#000000"/><text fill="#000000" font-family="sans-serif" font-size="14" lengthAdjust="spacing" textLength="40.7538" x="1889.8717" y="586.054">Player</text><line style="stroke:#181818;stroke-width:0.5;" x1="1777.86" x2="2010.1372" y1="596.622" y2="596.622"/><rect fill="none" height="6" style="stroke:#C82930;stroke-width:1;" width="6" x="1784.86" y="608.6559"/><text fill="#000000" font-family="sans-serif" font-size="14" lengthAdjust="spacing" textLength="145.6554" x="1796.86" y="615.5879">pair&lt;int, int&gt; getScore</text><rect fill="none" height="6" style="stroke:#C82930;stroke-width:1;" width="6" x="1784.86" y="627.7239"/><text fill="#000000" font-family="sans-serif" font-size="14" lengthAdjust="spacing" textLength="159.5574" x="1796.86" y="634.6558">vector&lt;Ability*&gt; abilities</text><rect fill="none" height="6" style="stroke:#C82930;stroke-width:1;" width="6" x="1784.86" y="646.7918"/><text fill="#000000" font-family="sans-serif" font-size="14" lengthAdjust="spacing" textLength="125.5375" x="1796.86" y="653.7238">vector&lt;Link*&gt; links</text><line style="stroke:#181818;stroke-width:0.5;" x1="1777.86" x2="2010.1372" y1="661.8257" y2="661.8257"/><ellipse cx="1787.86" cy="676.8597" fill="#84BE84" rx="3" ry="3" style="stroke:#038048;stroke-width:1;"/><text fill="#000000" font-family="sans-serif" font-size="14" lengthAdjust="spacing" textLength="154.0554" x="1796.86" y="680.7917">pair&lt;int, int&gt; getScore()</text><ellipse cx="1787.86" cy="695.9276" fill="#84BE84" rx="3" ry="3" style="stroke:#038048;stroke-width:1;"/><text fill="#000000" font-family="sans-serif" font-size="14" lengthAdjust="spacing" textLength="190.6093" x="1796.86" y="699.8596">vector&lt;Ability*&gt; getAbilities()</text><ellipse cx="1787.86" cy="714.9955" fill="#84BE84" rx="3" ry="3" style="stroke:#038048;stroke-width:1;"/><text fill="#000000" font-family="sans-serif" font-size="14" lengthAdjust="spacing" textLength="122.4855" x="1796.86" y="718.9275">Ability* getAbility()</text><ellipse cx="1787.86" cy="734.0634" fill="#84BE84" rx="3" ry="3" style="stroke:#038048;stroke-width:1;"/><text fill="#000000" font-family="sans-serif" font-size="14" lengthAdjust="spacing" textLength="166.9073" x="1796.86" y="737.9954">void download(Link* link)</text><ellipse cx="1787.86" cy="753.1314" fill="#84BE84" rx="3" ry="3" style="stroke:#038048;stroke-width:1;"/><text fill="#000000" font-family="sans-serif" font-size="14" lengthAdjust="spacing" textLength="208.2772" x="1796.86" y="757.0633">void requestMove(Direction dir)</text><ellipse cx="1787.86" cy="772.1993" fill="#84BE84" rx="3" ry="3" style="stroke:#038048;stroke-width:1;"/><text fill="#000000" font-family="sans-serif" font-size="14" lengthAdjust="spacing" textLength="169.6653" x="1796.86" y="776.1313">void deleteLink(Link* link)</text><ellipse cx="1787.86" cy="791.2672" fill="#84BE84" rx="3" ry="3" style="stroke:#038048;stroke-width:1;"/><text fill="#000000" font-family="sans-serif" font-size="14" lengthAdjust="spacing" textLength="151.4654" x="1796.86" y="795.1992">Link* getLink(char link)</text></g><!--class Link--><g class="entity" data-entity="Link" data-source-line="60" data-uid="ent0012" id="entity_Link"><rect fill="#F1F1F1" height="181.4754" rx="2.5" ry="2.5" style="stroke:#181818;stroke-width:0.5;" width="294.365" x="1198.82" y="863.292"/><ellipse cx="1329.0825" cy="879.292" fill="#A9DCDF" rx="11" ry="11" style="stroke:#181818;stroke-width:1;"/><path d="M1332.4263,884.542 L1330.9575,880.792 L1326.52,880.792 L1325.0825,884.542 L1322.9575,884.542 L1327.9107,871.8232 L1329.6607,871.8232 L1334.5825,884.542 L1332.4263,884.542 Z M1329.0825,875.5889 Q1329.0357,875.4326 1328.9107,875.0732 Q1328.7857,874.7139 1328.6763,874.3389 Q1328.5669,873.9482 1328.77,873.8857 Q1328.9263,874.0732 1328.8325,874.4326 Q1328.7388,874.7764 1328.645,875.0732 Q1328.5513,875.3545 1328.4732,875.5889 L1327.2388,878.9014 L1330.3169,878.9014 L1329.0825,875.5889 Z " fill="#000000"/><text fill="#000000" font-family="sans-serif" font-size="14" font-style="italic" lengthAdjust="spacing" textLength="25.3399" x="1349.5825" y="884.724">Link</text><line style="stroke:#181818;stroke-width:0.5;" x1="1199.82" x2="1492.185" y1="895.292" y2="895.292"/><rect fill="none" height="6" style="stroke:#C82930;stroke-width:1;" width="6" x="1206.82" y="907.3259"/><text fill="#000000" font-family="sans-serif" font-size="14" lengthAdjust="spacing" textLength="132.2995" x="1218.82" y="914.2579">pair&lt;int, int&gt; coords</text><rect fill="none" height="6" style="stroke:#C82930;stroke-width:1;" width="6" x="1206.82" y="926.3939"/><text fill="#000000" font-family="sans-serif" font-size="14" lengthAdjust="spacing" textLength="77.3637" x="1218.82" y="933.3258">int strength</text><text fill="#000000" font-family="sans-serif" font-size="14" lengthAdjust="spacing" textLength="3.64" x="1218.82" y="952.3938">&#160;</text><ellipse cx="1209.82" cy="967.5297" fill="none" rx="3" ry="3" style="stroke:#038048;stroke-width:1;"/><text fill="#000000" font-family="sans-serif" font-size="14" lengthAdjust="spacing" textLength="99.9036" x="1218.82" y="971.4617">int getStrength</text><line style="stroke:#181818;stroke-width:0.5;" x1="1199.82" x2="1492.185" y1="979.5636" y2="979.5636"/><ellipse cx="1209.82" cy="994.5976" fill="#84BE84" rx="3" ry="3" style="stroke:#038048;stroke-width:1;"/><text fill="#000000" font-family="sans-serif" font-size="14" lengthAdjust="spacing" textLength="164.3874" x="1218.82" y="998.5296">pair&lt;int, int&gt; getCoords()</text><ellipse cx="1209.82" cy="1013.6655" fill="#84BE84" rx="3" ry="3" style="stroke:#038048;stroke-width:1;"/><text fill="#000000" font-family="sans-serif" font-size="14" lengthAdjust="spacing" textLength="268.365" x="1218.82" y="1017.5975">void setCoords(pair&lt;int, int&gt; newCoords)</text><ellipse cx="1209.82" cy="1032.7334" fill="#84BE84" rx="3" ry="3" style="stroke:#038048;stroke-width:1;"/><text fill="#000000" font-family="sans-serif" font-size="14" lengthAdjust="spacing" textLength="84.6717" x="1218.82" y="1036.6654">bool isVirus()</text></g><!--class VirusLink--><g class="entity" data-entity="VirusLink" data-source-line="70" data-uid="ent0013" id="entity_VirusLink"><rect fill="#F1F1F1" height="48" rx="2.5" ry="2.5" style="stroke:#181818;stroke-width:0.5;" width="92.2278" x="1236.89" y="1123.842"/><ellipse cx="1251.89" cy="1139.842" fill="#ADD1B2" rx="11" ry="11" style="stroke:#181818;stroke-width:1;"/><path d="M1251.9994,1135.3732 Q1251.0775,1135.3732 1250.3431,1135.6857 Q1249.6244,1135.9982 1249.1244,1136.592 Q1248.6244,1137.1701 1248.3431,1138.0451 Q1248.0775,1138.9201 1248.0775,1140.0139 Q1248.0775,1141.4514 1248.515,1142.4982 Q1248.9681,1143.5451 1249.8119,1144.092 Q1250.6713,1144.6389 1251.9838,1144.6389 Q1252.765,1144.6389 1253.4525,1144.5139 Q1254.1556,1144.3732 1255.1556,1144.0607 L1255.1556,1145.9357 Q1254.2963,1146.2639 1253.5306,1146.3889 Q1252.7806,1146.5139 1251.765,1146.5139 Q1249.8431,1146.5139 1248.5306,1145.717 Q1247.2338,1144.9045 1246.5775,1143.4357 Q1245.9213,1141.9514 1245.9213,1139.9826 Q1245.9213,1138.5607 1246.3119,1137.3889 Q1246.7181,1136.2014 1247.4994,1135.3264 Q1248.2806,1134.4514 1249.4213,1133.9826 Q1250.5619,1133.4982 1252.0306,1133.4982 Q1252.9838,1133.4982 1253.8744,1133.7014 Q1254.7806,1133.8889 1255.7181,1134.3576 L1254.89,1136.1389 Q1254.1088,1135.7639 1253.4525,1135.5764 Q1252.7963,1135.3732 1251.9994,1135.3732 Z " fill="#000000"/><text fill="#000000" font-family="sans-serif" font-size="14" lengthAdjust="spacing" textLength="60.2278" x="1265.89" y="1145.274">VirusLink</text><line style="stroke:#181818;stroke-width:0.5;" x1="1237.89" x2="1328.1178" y1="1155.842" y2="1155.842"/><line style="stroke:#181818;stroke-width:0.5;" x1="1237.89" x2="1328.1178" y1="1163.842" y2="1163.842"/></g><!--class DataLink--><g class="entity" data-entity="DataLink" data-source-line="73" data-uid="ent0014" id="entity_DataLink"><rect fill="#F1F1F1" height="48" rx="2.5" ry="2.5" style="stroke:#181818;stroke-width:0.5;" width="90.0578" x="1363.97" y="1123.842"/><ellipse cx="1378.97" cy="1139.842" fill="#ADD1B2" rx="11" ry="11" style="stroke:#181818;stroke-width:1;"/><path d="M1379.0794,1135.3732 Q1378.1575,1135.3732 1377.4231,1135.6857 Q1376.7044,1135.9982 1376.2044,1136.592 Q1375.7044,1137.1701 1375.4231,1138.0451 Q1375.1575,1138.9201 1375.1575,1140.0139 Q1375.1575,1141.4514 1375.595,1142.4982 Q1376.0481,1143.5451 1376.8919,1144.092 Q1377.7513,1144.6389 1379.0638,1144.6389 Q1379.845,1144.6389 1380.5325,1144.5139 Q1381.2356,1144.3732 1382.2356,1144.0607 L1382.2356,1145.9357 Q1381.3763,1146.2639 1380.6106,1146.3889 Q1379.8606,1146.5139 1378.845,1146.5139 Q1376.9231,1146.5139 1375.6106,1145.717 Q1374.3138,1144.9045 1373.6575,1143.4357 Q1373.0013,1141.9514 1373.0013,1139.9826 Q1373.0013,1138.5607 1373.3919,1137.3889 Q1373.7981,1136.2014 1374.5794,1135.3264 Q1375.3606,1134.4514 1376.5013,1133.9826 Q1377.6419,1133.4982 1379.1106,1133.4982 Q1380.0638,1133.4982 1380.9544,1133.7014 Q1381.8606,1133.8889 1382.7981,1134.3576 L1381.97,1136.1389 Q1381.1888,1135.7639 1380.5325,1135.5764 Q1379.8763,1135.3732 1379.0794,1135.3732 Z " fill="#000000"/><text fill="#000000" font-family="sans-serif" font-size="14" lengthAdjust="spacing" textLength="58.0578" x="1392.97" y="1145.274">DataLink</text><line style="stroke:#181818;stroke-width:0.5;" x1="1364.97" x2="1453.0278" y1="1155.842" y2="1155.842"/><line style="stroke:#181818;stroke-width:0.5;" x1="1364.97" x2="1453.0278" y1="1163.842" y2="1163.842"/></g><!--class LinkDecorator--><g class="entity" data-entity="LinkDecorator" data-source-line="76" data-uid="ent0015" id="entity_LinkDecorator"><rect fill="#F1F1F1" height="67.0679" rx="2.5" ry="2.5" style="stroke:#181818;stroke-width:0.5;" width="119.5137" x="1082.24" y="1114.302"/><ellipse cx="1097.24" cy="1130.302" fill="#A9DCDF" rx="11" ry="11" style="stroke:#181818;stroke-width:1;"/><path d="M1100.5838,1135.552 L1099.115,1131.802 L1094.6775,1131.802 L1093.24,1135.552 L1091.115,1135.552 L1096.0681,1122.8332 L1097.8181,1122.8332 L1102.74,1135.552 L1100.5838,1135.552 Z M1097.24,1126.5989 Q1097.1931,1126.4426 1097.0681,1126.0832 Q1096.9431,1125.7239 1096.8338,1125.3489 Q1096.7244,1124.9582 1096.9275,1124.8957 Q1097.0838,1125.0832 1096.99,1125.4426 Q1096.8963,1125.7864 1096.8025,1126.0832 Q1096.7088,1126.3645 1096.6306,1126.5989 L1095.3963,1129.9114 L1098.4744,1129.9114 L1097.24,1126.5989 Z " fill="#000000"/><text fill="#000000" font-family="sans-serif" font-size="14" font-style="italic" lengthAdjust="spacing" textLength="87.5137" x="1111.24" y="1135.734">LinkDecorator</text><line style="stroke:#181818;stroke-width:0.5;" x1="1083.24" x2="1200.7537" y1="1146.302" y2="1146.302"/><polygon fill="none" points="1093.24,1156.3359,1097.24,1160.3359,1093.24,1164.3359,1089.24,1160.3359" style="stroke:#B38D22;stroke-width:1;"/><text fill="#000000" font-family="sans-serif" font-size="14" lengthAdjust="spacing" textLength="69.4957" x="1102.24" y="1165.2679">Link* base</text><line style="stroke:#181818;stroke-width:0.5;" x1="1083.24" x2="1200.7537" y1="1173.3699" y2="1173.3699"/></g><!--class LinkBoostDecorator--><g class="entity" data-entity="LinkBoostDecorator" data-source-line="80" data-uid="ent0016" id="entity_LinkBoostDecorator"><rect fill="#F1F1F1" height="48" rx="2.5" ry="2.5" style="stroke:#181818;stroke-width:0.5;" width="163.1235" x="1082.44" y="1269.972"/><ellipse cx="1097.44" cy="1285.972" fill="#ADD1B2" rx="11" ry="11" style="stroke:#181818;stroke-width:1;"/><path d="M1097.5494,1281.5032 Q1096.6275,1281.5032 1095.8931,1281.8157 Q1095.1744,1282.1282 1094.6744,1282.722 Q1094.1744,1283.3001 1093.8931,1284.1751 Q1093.6275,1285.0501 1093.6275,1286.1439 Q1093.6275,1287.5814 1094.065,1288.6282 Q1094.5181,1289.6751 1095.3619,1290.222 Q1096.2213,1290.7689 1097.5338,1290.7689 Q1098.315,1290.7689 1099.0025,1290.6439 Q1099.7056,1290.5032 1100.7056,1290.1907 L1100.7056,1292.0657 Q1099.8463,1292.3939 1099.0806,1292.5189 Q1098.3306,1292.6439 1097.315,1292.6439 Q1095.3931,1292.6439 1094.0806,1291.847 Q1092.7838,1291.0345 1092.1275,1289.5657 Q1091.4713,1288.0814 1091.4713,1286.1126 Q1091.4713,1284.6907 1091.8619,1283.5189 Q1092.2681,1282.3314 1093.0494,1281.4564 Q1093.8306,1280.5814 1094.9713,1280.1126 Q1096.1119,1279.6282 1097.5806,1279.6282 Q1098.5338,1279.6282 1099.4244,1279.8314 Q1100.3306,1280.0189 1101.2681,1280.4876 L1100.44,1282.2689 Q1099.6588,1281.8939 1099.0025,1281.7064 Q1098.3463,1281.5032 1097.5494,1281.5032 Z " fill="#000000"/><text fill="#000000" font-family="sans-serif" font-size="14" lengthAdjust="spacing" textLength="131.1235" x="1111.44" y="1291.404">LinkBoostDecorator</text><line style="stroke:#181818;stroke-width:0.5;" x1="1083.44" x2="1244.5635" y1="1301.972" y2="1301.972"/><line style="stroke:#181818;stroke-width:0.5;" x1="1083.44" x2="1244.5635" y1="1309.972" y2="1309.972"/></g><!--class PolarizeDecorator--><g class="entity" data-entity="PolarizeDecorator" data-source-line="83" data-uid="ent0017" id="entity_PolarizeDecorator"><rect fill="#F1F1F1" height="48" rx="2.5" ry="2.5" style="stroke:#181818;stroke-width:0.5;" width="150.5236" x="1280.74" y="1269.972"/><ellipse cx="1295.74" cy="1285.972" fill="#ADD1B2" rx="11" ry="11" style="stroke:#181818;stroke-width:1;"/><path d="M1295.8494,1281.5032 Q1294.9275,1281.5032 1294.1931,1281.8157 Q1293.4744,1282.1282 1292.9744,1282.722 Q1292.4744,1283.3001 1292.1931,1284.1751 Q1291.9275,1285.0501 1291.9275,1286.1439 Q1291.9275,1287.5814 1292.365,1288.6282 Q1292.8181,1289.6751 1293.6619,1290.222 Q1294.5213,1290.7689 1295.8338,1290.7689 Q1296.615,1290.7689 1297.3025,1290.6439 Q1298.0056,1290.5032 1299.0056,1290.1907 L1299.0056,1292.0657 Q1298.1463,1292.3939 1297.3806,1292.5189 Q1296.6306,1292.6439 1295.615,1292.6439 Q1293.6931,1292.6439 1292.3806,1291.847 Q1291.0838,1291.0345 1290.4275,1289.5657 Q1289.7713,1288.0814 1289.7713,1286.1126 Q1289.7713,1284.6907 1290.1619,1283.5189 Q1290.5681,1282.3314 1291.3494,1281.4564 Q1292.1306,1280.5814 1293.2713,1280.1126 Q1294.4119,1279.6282 1295.8806,1279.6282 Q1296.8338,1279.6282 1297.7244,1279.8314 Q1298.6306,1280.0189 1299.5681,1280.4876 L1298.74,1282.2689 Q1297.9588,1281.8939 1297.3025,1281.7064 Q1296.6463,1281.5032 1295.8494,1281.5032 Z " fill="#000000"/><text fill="#000000" font-family="sans-serif" font-size="14" lengthAdjust="spacing" textLength="118.5236" x="1309.74" y="1291.404">PolarizeDecorator</text><line style="stroke:#181818;stroke-width:0.5;" x1="1281.74" x2="1430.2636" y1="1301.972" y2="1301.972"/><line style="stroke:#181818;stroke-width:0.5;" x1="1281.74" x2="1430.2636" y1="1309.972" y2="1309.972"/></g><!--class RevealDecorator--><g class="entity" data-entity="RevealDecorator" data-source-line="86" data-uid="ent0018" id="entity_RevealDecorator"><rect fill="#F1F1F1" height="48" rx="2.5" ry="2.5" style="stroke:#181818;stroke-width:0.5;" width="141.3256" x="1466.34" y="1269.972"/><ellipse cx="1481.34" cy="1285.972" fill="#ADD1B2" rx="11" ry="11" style="stroke:#181818;stroke-width:1;"/><path d="M1481.4494,1281.5032 Q1480.5275,1281.5032 1479.7931,1281.8157 Q1479.0744,1282.1282 1478.5744,1282.722 Q1478.0744,1283.3001 1477.7931,1284.1751 Q1477.5275,1285.0501 1477.5275,1286.1439 Q1477.5275,1287.5814 1477.965,1288.6282 Q1478.4181,1289.6751 1479.2619,1290.222 Q1480.1213,1290.7689 1481.4338,1290.7689 Q1482.215,1290.7689 1482.9025,1290.6439 Q1483.6056,1290.5032 1484.6056,1290.1907 L1484.6056,1292.0657 Q1483.7463,1292.3939 1482.9806,1292.5189 Q1482.2306,1292.6439 1481.215,1292.6439 Q1479.2931,1292.6439 1477.9806,1291.847 Q1476.6838,1291.0345 1476.0275,1289.5657 Q1475.3713,1288.0814 1475.3713,1286.1126 Q1475.3713,1284.6907 1475.7619,1283.5189 Q1476.1681,1282.3314 1476.9494,1281.4564 Q1477.7306,1280.5814 1478.8713,1280.1126 Q1480.0119,1279.6282 1481.4806,1279.6282 Q1482.4338,1279.6282 1483.3244,1279.8314 Q1484.2306,1280.0189 1485.1681,1280.4876 L1484.34,1282.2689 Q1483.5588,1281.8939 1482.9025,1281.7064 Q1482.2463,1281.5032 1481.4494,1281.5032 Z " fill="#000000"/><text fill="#000000" font-family="sans-serif" font-size="14" lengthAdjust="spacing" textLength="109.3256" x="1495.34" y="1291.404">RevealDecorator</text><line style="stroke:#181818;stroke-width:0.5;" x1="1467.34" x2="1606.6656" y1="1301.972" y2="1301.972"/><line style="stroke:#181818;stroke-width:0.5;" x1="1467.34" x2="1606.6656" y1="1309.972" y2="1309.972"/></g><!--class LagDecorator--><g class="entity" data-entity="LagDecorator" data-source-line="89" data-uid="ent0019" id="entity_LagDecorator"><rect fill="#F1F1F1" height="67.0679" rx="2.5" ry="2.5" style="stroke:#181818;stroke-width:0.5;" width="122.0477" x="1642.98" y="1260.442"/><ellipse cx="1657.98" cy="1276.442" fill="#ADD1B2" rx="11" ry="11" style="stroke:#181818;stroke-width:1;"/><path d="M1658.0894,1271.9732 Q1657.1675,1271.9732 1656.4331,1272.2857 Q1655.7144,1272.5982 1655.2144,1273.192 Q1654.7144,1273.7701 1654.4331,1274.6451 Q1654.1675,1275.5201 1654.1675,1276.6139 Q1654.1675,1278.0514 1654.605,1279.0982 Q1655.0581,1280.1451 1655.9019,1280.692 Q1656.7613,1281.2389 1658.0738,1281.2389 Q1658.855,1281.2389 1659.5425,1281.1139 Q1660.2456,1280.9732 1661.2456,1280.6607 L1661.2456,1282.5357 Q1660.3863,1282.8639 1659.6206,1282.9889 Q1658.8706,1283.1139 1657.855,1283.1139 Q1655.9331,1283.1139 1654.6206,1282.317 Q1653.3238,1281.5045 1652.6675,1280.0357 Q1652.0113,1278.5514 1652.0113,1276.5826 Q1652.0113,1275.1607 1652.4019,1273.9889 Q1652.8081,1272.8014 1653.5894,1271.9264 Q1654.3706,1271.0514 1655.5113,1270.5826 Q1656.6519,1270.0982 1658.1206,1270.0982 Q1659.0738,1270.0982 1659.9644,1270.3014 Q1660.8706,1270.4889 1661.8081,1270.9576 L1660.98,1272.7389 Q1660.1988,1272.3639 1659.5425,1272.1764 Q1658.8863,1271.9732 1658.0894,1271.9732 Z " fill="#000000"/><text fill="#000000" font-family="sans-serif" font-size="14" lengthAdjust="spacing" textLength="90.0477" x="1671.98" y="1281.874">LagDecorator</text><line style="stroke:#181818;stroke-width:0.5;" x1="1643.98" x2="1764.0277" y1="1292.442" y2="1292.442"/><rect fill="none" height="6" style="stroke:#C82930;stroke-width:1;" width="6" x="1650.98" y="1304.4759"/><text fill="#000000" font-family="sans-serif" font-size="14" lengthAdjust="spacing" textLength="80.9057" x="1662.98" y="1311.4079">int turnsLeft</text><line style="stroke:#181818;stroke-width:0.5;" x1="1643.98" x2="1764.0277" y1="1319.5099" y2="1319.5099"/></g><!--class QuantumEntanglementDecorator--><g class="entity" data-entity="QuantumEntanglementDecorator" data-source-line="93" data-uid="ent0020" id="entity_QuantumEntanglementDecorator"><rect fill="#F1F1F1" height="67.0679" rx="2.5" ry="2.5" style="stroke:#181818;stroke-width:0.5;" width="253.9411" x="1800.03" y="1260.442"/><ellipse cx="1815.03" cy="1276.442" fill="#ADD1B2" rx="11" ry="11" style="stroke:#181818;stroke-width:1;"/><path d="M1815.1394,1271.9732 Q1814.2175,1271.9732 1813.4831,1272.2857 Q1812.7644,1272.5982 1812.2644,1273.192 Q1811.7644,1273.7701 1811.4831,1274.6451 Q1811.2175,1275.5201 1811.2175,1276.6139 Q1811.2175,1278.0514 1811.655,1279.0982 Q1812.1081,1280.1451 1812.9519,1280.692 Q1813.8113,1281.2389 1815.1238,1281.2389 Q1815.905,1281.2389 1816.5925,1281.1139 Q1817.2956,1280.9732 1818.2956,1280.6607 L1818.2956,1282.5357 Q1817.4363,1282.8639 1816.6706,1282.9889 Q1815.9206,1283.1139 1814.905,1283.1139 Q1812.9831,1283.1139 1811.6706,1282.317 Q1810.3738,1281.5045 1809.7175,1280.0357 Q1809.0613,1278.5514 1809.0613,1276.5826 Q1809.0613,1275.1607 1809.4519,1273.9889 Q1809.8581,1272.8014 1810.6394,1271.9264 Q1811.4206,1271.0514 1812.5613,1270.5826 Q1813.7019,1270.0982 1815.1706,1270.0982 Q1816.1238,1270.0982 1817.0144,1270.3014 Q1817.9206,1270.4889 1818.8581,1270.9576 L1818.03,1272.7389 Q1817.2488,1272.3639 1816.5925,1272.1764 Q1815.9363,1271.9732 1815.1394,1271.9732 Z " fill="#000000"/><text fill="#000000" font-family="sans-serif" font-size="14" lengthAdjust="spacing" textLength="221.9411" x="1829.03" y="1281.874">QuantumEntanglementDecorator</text><line style="stroke:#181818;stroke-width:0.5;" x1="1801.03" x2="2052.9711" y1="1292.442" y2="1292.442"/><rect fill="none" height="6" style="stroke:#C82930;stroke-width:1;" width="6" x="1808.03" y="1304.4759"/><text fill="#000000" font-family="sans-serif" font-size="14" lengthAdjust="spacing" textLength="88.0597" x="1820.03" y="1311.4079">Link* partner</text><line style="stroke:#181818;stroke-width:0.5;" x1="1801.03" x2="2052.9711" y1="1319.5099" y2="1319.5099"/></g><!--class Ability--><g class="entity" data-entity="Ability" data-source-line="97" data-uid="ent0021" id="entity_Ability"><rect fill="#F1F1F1" height="162.4075" rx="2.5" ry="2.5" style="stroke:#181818;stroke-width:0.5;" width="137.4956" x="2302.25" y="872.832"/><ellipse cx="2347.7499" cy="888.832" fill="#A9DCDF" rx="11" ry="11" style="stroke:#181818;stroke-width:1;"/><path d="M2351.0936,894.082 L2349.6249,890.332 L2345.1874,890.332 L2343.7499,894.082 L2341.6249,894.082 L2346.578,881.3632 L2348.328,881.3632 L2353.2499,894.082 L2351.0936,894.082 Z M2347.7499,885.1289 Q2347.703,884.9726 2347.578,884.6132 Q2347.453,884.2539 2347.3436,883.8789 Q2347.2342,883.4882 2347.4374,883.4257 Q2347.5936,883.6132 2347.4999,883.9726 Q2347.4061,884.3164 2347.3124,884.6132 Q2347.2186,884.8945 2347.1405,885.1289 L2345.9061,888.4414 L2348.9842,888.4414 L2347.7499,885.1289 Z " fill="#000000"/><text fill="#000000" font-family="sans-serif" font-size="14" font-style="italic" lengthAdjust="spacing" textLength="37.9958" x="2368.2499" y="894.264">Ability</text><line style="stroke:#181818;stroke-width:0.5;" x1="2303.25" x2="2438.7456" y1="904.832" y2="904.832"/><rect fill="none" height="6" style="stroke:#C82930;stroke-width:1;" width="6" x="2310.25" y="916.8659"/><text fill="#000000" font-family="sans-serif" font-size="14" lengthAdjust="spacing" textLength="79.5477" x="2322.25" y="923.7979">string name</text><rect fill="none" height="6" style="stroke:#C82930;stroke-width:1;" width="6" x="2310.25" y="935.9339"/><text fill="#000000" font-family="sans-serif" font-size="14" lengthAdjust="spacing" textLength="64.6658" x="2322.25" y="942.8658">bool used</text><line style="stroke:#181818;stroke-width:0.5;" x1="2303.25" x2="2438.7456" y1="950.9678" y2="950.9678"/><ellipse cx="2313.25" cy="966.0018" fill="#84BE84" rx="3" ry="3" style="stroke:#038048;stroke-width:1;"/><text fill="#000000" font-family="sans-serif" font-size="14" lengthAdjust="spacing" textLength="63.0977" x="2322.25" y="969.9338">void use()</text><ellipse cx="2313.25" cy="985.0697" fill="#84BE84" rx="3" ry="3" style="stroke:#038048;stroke-width:1;"/><text fill="#000000" font-family="sans-serif" font-size="14" lengthAdjust="spacing" textLength="84.9657" x="2322.25" y="989.0017">bool isUsed()</text><ellipse cx="2313.25" cy="1004.1376" fill="#84BE84" rx="3" ry="3" style="stroke:#038048;stroke-width:1;"/><text fill="#000000" font-family="sans-serif" font-size="14" lengthAdjust="spacing" textLength="107.4916" x="2322.25" y="1008.0696">void markUsed()</text><ellipse cx="2313.25" cy="1023.2055" fill="#84BE84" rx="3" ry="3" style="stroke:#038048;stroke-width:1;"/><text fill="#000000" font-family="sans-serif" font-size="14" lengthAdjust="spacing" textLength="111.4956" x="2322.25" y="1027.1375">string getName()</text></g><!--class FirewallAbility--><g class="entity" data-entity="FirewallAbility" data-source-line="107" data-uid="ent0022" id="entity_FirewallAbility"><rect fill="#F1F1F1" height="48" rx="2.5" ry="2.5" style="stroke:#181818;stroke-width:0.5;" width="123.2236" x="2788.39" y="1123.842"/><ellipse cx="2803.39" cy="1139.842" fill="#ADD1B2" rx="11" ry="11" style="stroke:#181818;stroke-width:1;"/><path d="M2803.4994,1135.3732 Q2802.5775,1135.3732 2801.8431,1135.6857 Q2801.1244,1135.9982 2800.6244,1136.592 Q2800.1244,1137.1701 2799.8431,1138.0451 Q2799.5775,1138.9201 2799.5775,1140.0139 Q2799.5775,1141.4514 2800.015,1142.4982 Q2800.4681,1143.5451 2801.3119,1144.092 Q2802.1713,1144.6389 2803.4838,1144.6389 Q2804.265,1144.6389 2804.9525,1144.5139 Q2805.6556,1144.3732 2806.6556,1144.0607 L2806.6556,1145.9357 Q2805.7963,1146.2639 2805.0306,1146.3889 Q2804.2806,1146.5139 2803.265,1146.5139 Q2801.3431,1146.5139 2800.0306,1145.717 Q2798.7338,1144.9045 2798.0775,1143.4357 Q2797.4213,1141.9514 2797.4213,1139.9826 Q2797.4213,1138.5607 2797.8119,1137.3889 Q2798.2181,1136.2014 2798.9994,1135.3264 Q2799.7806,1134.4514 2800.9213,1133.9826 Q2802.0619,1133.4982 2803.5306,1133.4982 Q2804.4838,1133.4982 2805.3744,1133.7014 Q2806.2806,1133.8889 2807.2181,1134.3576 L2806.39,1136.1389 Q2805.6088,1135.7639 2804.9525,1135.5764 Q2804.2963,1135.3732 2803.4994,1135.3732 Z " fill="#000000"/><text fill="#000000" font-family="sans-serif" font-size="14" lengthAdjust="spacing" textLength="91.2236" x="2817.39" y="1145.274">FirewallAbility</text><line style="stroke:#181818;stroke-width:0.5;" x1="2789.39" x2="2910.6136" y1="1155.842" y2="1155.842"/><line style="stroke:#181818;stroke-width:0.5;" x1="2789.39" x2="2910.6136" y1="1163.842" y2="1163.842"/></g><!--class DownloadAbility--><g class="entity" data-entity="DownloadAbility" data-source-line="110" data-uid="ent0023" id="entity_DownloadAbility"><rect fill="#F1F1F1" height="48" rx="2.5" ry="2.5" style="stroke:#181818;stroke-width:0.5;" width="139.4776" x="2946.26" y="1123.842"/><ellipse cx="2961.26" cy="1139.842" fill="#ADD1B2" rx="11" ry="11" style="stroke:#181818;stroke-width:1;"/><path d="M2961.3694,1135.3732 Q2960.4475,1135.3732 2959.7131,1135.6857 Q2958.9944,1135.9982 2958.4944,1136.592 Q2957.9944,1137.1701 2957.7131,1138.0451 Q2957.4475,1138.9201 2957.4475,1140.0139 Q2957.4475,1141.4514 2957.885,1142.4982 Q2958.3381,1143.5451 2959.1819,1144.092 Q2960.0413,1144.6389 2961.3538,1144.6389 Q2962.135,1144.6389 2962.8225,1144.5139 Q2963.5256,1144.3732 2964.5256,1144.0607 L2964.5256,1145.9357 Q2963.6663,1146.2639 2962.9006,1146.3889 Q2962.1506,1146.5139 2961.135,1146.5139 Q2959.2131,1146.5139 2957.9006,1145.717 Q2956.6038,1144.9045 2955.9475,1143.4357 Q2955.2913,1141.9514 2955.2913,1139.9826 Q2955.2913,1138.5607 2955.6819,1137.3889 Q2956.0881,1136.2014 2956.8694,1135.3264 Q2957.6506,1134.4514 2958.7913,1133.9826 Q2959.9319,1133.4982 2961.4006,1133.4982 Q2962.3538,1133.4982 2963.2444,1133.7014 Q2964.1506,1133.8889 2965.0881,1134.3576 L2964.26,1136.1389 Q2963.4788,1135.7639 2962.8225,1135.5764 Q2962.1663,1135.3732 2961.3694,1135.3732 Z " fill="#000000"/><text fill="#000000" font-family="sans-serif" font-size="14" lengthAdjust="spacing" textLength="107.4776" x="2975.26" y="1145.274">DownloadAbility</text><line style="stroke:#181818;stroke-width:0.5;" x1="2947.26" x2="3084.7376" y1="1155.842" y2="1155.842"/><line style="stroke:#181818;stroke-width:0.5;" x1="2947.26" x2="3084.7376" y1="1163.842" y2="1163.842"/></g><!--class PolarizeAbility--><g class="entity" data-entity="PolarizeAbility" data-source-line="113" data-uid="ent0024" id="entity_PolarizeAbility"><rect fill="#F1F1F1" height="48" rx="2.5" ry="2.5" style="stroke:#181818;stroke-width:0.5;" width="124.8616" x="3120.57" y="1123.842"/><ellipse cx="3135.57" cy="1139.842" fill="#ADD1B2" rx="11" ry="11" style="stroke:#181818;stroke-width:1;"/><path d="M3135.6794,1135.3732 Q3134.7575,1135.3732 3134.0231,1135.6857 Q3133.3044,1135.9982 3132.8044,1136.592 Q3132.3044,1137.1701 3132.0231,1138.0451 Q3131.7575,1138.9201 3131.7575,1140.0139 Q3131.7575,1141.4514 3132.195,1142.4982 Q3132.6481,1143.5451 3133.4919,1144.092 Q3134.3513,1144.6389 3135.6638,1144.6389 Q3136.445,1144.6389 3137.1325,1144.5139 Q3137.8356,1144.3732 3138.8356,1144.0607 L3138.8356,1145.9357 Q3137.9763,1146.2639 3137.2106,1146.3889 Q3136.4606,1146.5139 3135.445,1146.5139 Q3133.5231,1146.5139 3132.2106,1145.717 Q3130.9138,1144.9045 3130.2575,1143.4357 Q3129.6013,1141.9514 3129.6013,1139.9826 Q3129.6013,1138.5607 3129.9919,1137.3889 Q3130.3981,1136.2014 3131.1794,1135.3264 Q3131.9606,1134.4514 3133.1013,1133.9826 Q3134.2419,1133.4982 3135.7106,1133.4982 Q3136.6638,1133.4982 3137.5544,1133.7014 Q3138.4606,1133.8889 3139.3981,1134.3576 L3138.57,1136.1389 Q3137.7888,1135.7639 3137.1325,1135.5764 Q3136.4763,1135.3732 3135.6794,1135.3732 Z " fill="#000000"/><text fill="#000000" font-family="sans-serif" font-size="14" lengthAdjust="spacing" textLength="92.8616" x="3149.57" y="1145.274">PolarizeAbility</text><line style="stroke:#181818;stroke-width:0.5;" x1="3121.57" x2="3244.4316" y1="1155.842" y2="1155.842"/><line style="stroke:#181818;stroke-width:0.5;" x1="3121.57" x2="3244.4316" y1="1163.842" y2="1163.842"/></g><!--class ScanAbility--><g class="entity" data-entity="ScanAbility" data-source-line="116" data-uid="ent0025" id="entity_ScanAbility"><rect fill="#F1F1F1" height="48" rx="2.5" ry="2.5" style="stroke:#181818;stroke-width:0.5;" width="103.4977" x="1930.25" y="1123.842"/><ellipse cx="1945.25" cy="1139.842" fill="#ADD1B2" rx="11" ry="11" style="stroke:#181818;stroke-width:1;"/><path d="M1945.3594,1135.3732 Q1944.4375,1135.3732 1943.7031,1135.6857 Q1942.9844,1135.9982 1942.4844,1136.592 Q1941.9844,1137.1701 1941.7031,1138.0451 Q1941.4375,1138.9201 1941.4375,1140.0139 Q1941.4375,1141.4514 1941.875,1142.4982 Q1942.3281,1143.5451 1943.1719,1144.092 Q1944.0313,1144.6389 1945.3438,1144.6389 Q1946.125,1144.6389 1946.8125,1144.5139 Q1947.5156,1144.3732 1948.5156,1144.0607 L1948.5156,1145.9357 Q1947.6563,1146.2639 1946.8906,1146.3889 Q1946.1406,1146.5139 1945.125,1146.5139 Q1943.2031,1146.5139 1941.8906,1145.717 Q1940.5938,1144.9045 1939.9375,1143.4357 Q1939.2813,1141.9514 1939.2813,1139.9826 Q1939.2813,1138.5607 1939.6719,1137.3889 Q1940.0781,1136.2014 1940.8594,1135.3264 Q1941.6406,1134.4514 1942.7813,1133.9826 Q1943.9219,1133.4982 1945.3906,1133.4982 Q1946.3438,1133.4982 1947.2344,1133.7014 Q1948.1406,1133.8889 1949.0781,1134.3576 L1948.25,1136.1389 Q1947.4688,1135.7639 1946.8125,1135.5764 Q1946.1563,1135.3732 1945.3594,1135.3732 Z " fill="#000000"/><text fill="#000000" font-family="sans-serif" font-size="14" lengthAdjust="spacing" textLength="71.4977" x="1959.25" y="1145.274">ScanAbility</text><line style="stroke:#181818;stroke-width:0.5;" x1="1931.25" x2="2032.7477" y1="1155.842" y2="1155.842"/><line style="stroke:#181818;stroke-width:0.5;" x1="1931.25" x2="2032.7477" y1="1163.842" y2="1163.842"/></g><!--class LinkBoostAbility--><g class="entity" data-entity="LinkBoostAbility" data-source-line="119" data-uid="ent0026" id="entity_LinkBoostAbility"><rect fill="#F1F1F1" height="48" rx="2.5" ry="2.5" style="stroke:#181818;stroke-width:0.5;" width="137.4616" x="2068.27" y="1123.842"/><ellipse cx="2083.27" cy="1139.842" fill="#ADD1B2" rx="11" ry="11" style="stroke:#181818;stroke-width:1;"/><path d="M2083.3794,1135.3732 Q2082.4575,1135.3732 2081.7231,1135.6857 Q2081.0044,1135.9982 2080.5044,1136.592 Q2080.0044,1137.1701 2079.7231,1138.0451 Q2079.4575,1138.9201 2079.4575,1140.0139 Q2079.4575,1141.4514 2079.895,1142.4982 Q2080.3481,1143.5451 2081.1919,1144.092 Q2082.0513,1144.6389 2083.3638,1144.6389 Q2084.145,1144.6389 2084.8325,1144.5139 Q2085.5356,1144.3732 2086.5356,1144.0607 L2086.5356,1145.9357 Q2085.6763,1146.2639 2084.9106,1146.3889 Q2084.1606,1146.5139 2083.145,1146.5139 Q2081.2231,1146.5139 2079.9106,1145.717 Q2078.6138,1144.9045 2077.9575,1143.4357 Q2077.3013,1141.9514 2077.3013,1139.9826 Q2077.3013,1138.5607 2077.6919,1137.3889 Q2078.0981,1136.2014 2078.8794,1135.3264 Q2079.6606,1134.4514 2080.8013,1133.9826 Q2081.9419,1133.4982 2083.4106,1133.4982 Q2084.3638,1133.4982 2085.2544,1133.7014 Q2086.1606,1133.8889 2087.0981,1134.3576 L2086.27,1136.1389 Q2085.4888,1135.7639 2084.8325,1135.5764 Q2084.1763,1135.3732 2083.3794,1135.3732 Z " fill="#000000"/><text fill="#000000" font-family="sans-serif" font-size="14" lengthAdjust="spacing" textLength="105.4616" x="2097.27" y="1145.274">LinkBoostAbility</text><line style="stroke:#181818;stroke-width:0.5;" x1="2069.27" x2="2204.7316" y1="1155.842" y2="1155.842"/><line style="stroke:#181818;stroke-width:0.5;" x1="2069.27" x2="2204.7316" y1="1163.842" y2="1163.842"/></g><!--class PappleAbility--><g class="entity" data-entity="PappleAbility" data-source-line="122" data-uid="ent0027" id="entity_PappleAbility"><rect fill="#F1F1F1" height="48" rx="2.5" ry="2.5" style="stroke:#181818;stroke-width:0.5;" width="117.6377" x="2241.18" y="1123.842"/><ellipse cx="2256.18" cy="1139.842" fill="#ADD1B2" rx="11" ry="11" style="stroke:#181818;stroke-width:1;"/><path d="M2256.2894,1135.3732 Q2255.3675,1135.3732 2254.6331,1135.6857 Q2253.9144,1135.9982 2253.4144,1136.592 Q2252.9144,1137.1701 2252.6331,1138.0451 Q2252.3675,1138.9201 2252.3675,1140.0139 Q2252.3675,1141.4514 2252.805,1142.4982 Q2253.2581,1143.5451 2254.1019,1144.092 Q2254.9613,1144.6389 2256.2738,1144.6389 Q2257.055,1144.6389 2257.7425,1144.5139 Q2258.4456,1144.3732 2259.4456,1144.0607 L2259.4456,1145.9357 Q2258.5863,1146.2639 2257.8206,1146.3889 Q2257.0706,1146.5139 2256.055,1146.5139 Q2254.1331,1146.5139 2252.8206,1145.717 Q2251.5238,1144.9045 2250.8675,1143.4357 Q2250.2113,1141.9514 2250.2113,1139.9826 Q2250.2113,1138.5607 2250.6019,1137.3889 Q2251.0081,1136.2014 2251.7894,1135.3264 Q2252.5706,1134.4514 2253.7113,1133.9826 Q2254.8519,1133.4982 2256.3206,1133.4982 Q2257.2738,1133.4982 2258.1644,1133.7014 Q2259.0706,1133.8889 2260.0081,1134.3576 L2259.18,1136.1389 Q2258.3988,1135.7639 2257.7425,1135.5764 Q2257.0863,1135.3732 2256.2894,1135.3732 Z " fill="#000000"/><text fill="#000000" font-family="sans-serif" font-size="14" lengthAdjust="spacing" textLength="85.6377" x="2270.18" y="1145.274">PappleAbility</text><line style="stroke:#181818;stroke-width:0.5;" x1="2242.18" x2="2357.8177" y1="1155.842" y2="1155.842"/><line style="stroke:#181818;stroke-width:0.5;" x1="2242.18" x2="2357.8177" y1="1163.842" y2="1163.842"/></g><!--class LagAbility--><g class="entity" data-entity="LagAbility" data-source-line="125" data-uid="ent0028" id="entity_LagAbility"><rect fill="#F1F1F1" height="48" rx="2.5" ry="2.5" style="stroke:#181818;stroke-width:0.5;" width="96.3858" x="2393.81" y="1123.842"/><ellipse cx="2408.81" cy="1139.842" fill="#ADD1B2" rx="11" ry="11" style="stroke:#181818;stroke-width:1;"/><path d="M2408.9194,1135.3732 Q2407.9975,1135.3732 2407.2631,1135.6857 Q2406.5444,1135.9982 2406.0444,1136.592 Q2405.5444,1137.1701 2405.2631,1138.0451 Q2404.9975,1138.9201 2404.9975,1140.0139 Q2404.9975,1141.4514 2405.435,1142.4982 Q2405.8881,1143.5451 2406.7319,1144.092 Q2407.5913,1144.6389 2408.9038,1144.6389 Q2409.685,1144.6389 2410.3725,1144.5139 Q2411.0756,1144.3732 2412.0756,1144.0607 L2412.0756,1145.9357 Q2411.2163,1146.2639 2410.4506,1146.3889 Q2409.7006,1146.5139 2408.685,1146.5139 Q2406.7631,1146.5139 2405.4506,1145.717 Q2404.1538,1144.9045 2403.4975,1143.4357 Q2402.8413,1141.9514 2402.8413,1139.9826 Q2402.8413,1138.5607 2403.2319,1137.3889 Q2403.6381,1136.2014 2404.4194,1135.3264 Q2405.2006,1134.4514 2406.3413,1133.9826 Q2407.4819,1133.4982 2408.9506,1133.4982 Q2409.9038,1133.4982 2410.7944,1133.7014 Q2411.7006,1133.8889 2412.6381,1134.3576 L2411.81,1136.1389 Q2411.0288,1135.7639 2410.3725,1135.5764 Q2409.7163,1135.3732 2408.9194,1135.3732 Z " fill="#000000"/><text fill="#000000" font-family="sans-serif" font-size="14" lengthAdjust="spacing" textLength="64.3858" x="2422.81" y="1145.274">LagAbility</text><line style="stroke:#181818;stroke-width:0.5;" x1="2394.81" x2="2489.1958" y1="1155.842" y2="1155.842"/><line style="stroke:#181818;stroke-width:0.5;" x1="2394.81" x2="2489.1958" y1="1163.842" y2="1163.842"/></g><!--class QuantumEntanglementAbility--><g class="entity" data-entity="QuantumEntanglementAbility" data-source-line="128" data-uid="ent0029" id="entity_QuantumEntanglementAbility"><rect fill="#F1F1F1" height="48" rx="2.5" ry="2.5" style="stroke:#181818;stroke-width:0.5;" width="228.2792" x="2524.86" y="1123.842"/><ellipse cx="2539.86" cy="1139.842" fill="#ADD1B2" rx="11" ry="11" style="stroke:#181818;stroke-width:1;"/><path d="M2539.9694,1135.3732 Q2539.0475,1135.3732 2538.3131,1135.6857 Q2537.5944,1135.9982 2537.0944,1136.592 Q2536.5944,1137.1701 2536.3131,1138.0451 Q2536.0475,1138.9201 2536.0475,1140.0139 Q2536.0475,1141.4514 2536.485,1142.4982 Q2536.9381,1143.5451 2537.7819,1144.092 Q2538.6413,1144.6389 2539.9538,1144.6389 Q2540.735,1144.6389 2541.4225,1144.5139 Q2542.1256,1144.3732 2543.1256,1144.0607 L2543.1256,1145.9357 Q2542.2663,1146.2639 2541.5006,1146.3889 Q2540.7506,1146.5139 2539.735,1146.5139 Q2537.8131,1146.5139 2536.5006,1145.717 Q2535.2038,1144.9045 2534.5475,1143.4357 Q2533.8913,1141.9514 2533.8913,1139.9826 Q2533.8913,1138.5607 2534.2819,1137.3889 Q2534.6881,1136.2014 2535.4694,1135.3264 Q2536.2506,1134.4514 2537.3913,1133.9826 Q2538.5319,1133.4982 2540.0006,1133.4982 Q2540.9538,1133.4982 2541.8444,1133.7014 Q2542.7506,1133.8889 2543.6881,1134.3576 L2542.86,1136.1389 Q2542.0788,1135.7639 2541.4225,1135.5764 Q2540.7663,1135.3732 2539.9694,1135.3732 Z " fill="#000000"/><text fill="#000000" font-family="sans-serif" font-size="14" lengthAdjust="spacing" textLength="196.2792" x="2553.86" y="1145.274">QuantumEntanglementAbility</text><line style="stroke:#181818;stroke-width:0.5;" x1="2525.86" x2="2752.1392" y1="1155.842" y2="1155.842"/><line style="stroke:#181818;stroke-width:0.5;" x1="2525.86" x2="2752.1392" y1="1163.842" y2="1163.842"/></g><!--class View--><g class="entity" data-entity="View" data-source-line="134" data-uid="ent0031" id="entity_View"><rect fill="#F1F1F1" height="105.2038" rx="2.5" ry="2.5" style="stroke:#181818;stroke-width:0.5;" width="196.5893" x="3300.71" y="332.672"/><ellipse cx="3380.5307" cy="348.672" fill="#A9DCDF" rx="11" ry="11" style="stroke:#181818;stroke-width:1;"/><path d="M3383.8745,353.922 L3382.4057,350.172 L3377.9682,350.172 L3376.5307,353.922 L3374.4057,353.922 L3379.3588,341.2032 L3381.1088,341.2032 L3386.0307,353.922 L3383.8745,353.922 Z M3380.5307,344.9689 Q3380.4838,344.8126 3380.3588,344.4532 Q3380.2338,344.0939 3380.1245,343.7189 Q3380.0151,343.3282 3380.2182,343.2657 Q3380.3745,343.4532 3380.2807,343.8126 Q3380.187,344.1564 3380.0932,344.4532 Q3379.9995,344.7345 3379.9213,344.9689 L3378.687,348.2814 L3381.7651,348.2814 L3380.5307,344.9689 Z " fill="#000000"/><text fill="#000000" font-family="sans-serif" font-size="14" font-style="italic" lengthAdjust="spacing" textLength="28.4479" x="3401.0307" y="354.104">View</text><line style="stroke:#181818;stroke-width:0.5;" x1="3301.71" x2="3496.2993" y1="364.672" y2="364.672"/><line style="stroke:#181818;stroke-width:0.5;" x1="3301.71" x2="3496.2993" y1="372.672" y2="372.672"/><ellipse cx="3311.71" cy="387.7059" fill="#84BE84" rx="3" ry="3" style="stroke:#038048;stroke-width:1;"/><text fill="#000000" font-family="sans-serif" font-size="14" lengthAdjust="spacing" textLength="86.5197" x="3320.71" y="391.6379">void update()</text><ellipse cx="3311.71" cy="406.7739" fill="#84BE84" rx="3" ry="3" style="stroke:#038048;stroke-width:1;"/><text fill="#000000" font-family="sans-serif" font-size="14" lengthAdjust="spacing" textLength="85.9877" x="3320.71" y="410.7058">void display()</text><ellipse cx="3311.71" cy="425.8418" fill="#84BE84" rx="3" ry="3" style="stroke:#038048;stroke-width:1;"/><text fill="#000000" font-family="sans-serif" font-size="14" lengthAdjust="spacing" textLength="170.5893" x="3320.71" y="429.7738">void notify(Player* player)</text></g><!--class TextView--><g class="entity" data-entity="TextView" data-source-line="140" data-uid="ent0032" id="entity_TextView"><rect fill="#F1F1F1" height="105.2038" rx="2.5" ry="2.5" style="stroke:#181818;stroke-width:0.5;" width="185.5154" x="3301.24" y="631.352"/><ellipse cx="3360.2218" cy="647.352" fill="#ADD1B2" rx="11" ry="11" style="stroke:#181818;stroke-width:1;"/><path d="M3360.3312,642.8832 Q3359.4093,642.8832 3358.6749,643.1957 Q3357.9562,643.5082 3357.4562,644.102 Q3356.9562,644.6801 3356.6749,645.5551 Q3356.4093,646.4301 3356.4093,647.5239 Q3356.4093,648.9614 3356.8468,650.0082 Q3357.2999,651.0551 3358.1437,651.602 Q3359.0031,652.1489 3360.3156,652.1489 Q3361.0968,652.1489 3361.7843,652.0239 Q3362.4874,651.8832 3363.4874,651.5707 L3363.4874,653.4457 Q3362.6281,653.7739 3361.8624,653.8989 Q3361.1124,654.0239 3360.0968,654.0239 Q3358.1749,654.0239 3356.8624,653.227 Q3355.5656,652.4145 3354.9093,650.9457 Q3354.2531,649.4614 3354.2531,647.4926 Q3354.2531,646.0707 3354.6437,644.8989 Q3355.0499,643.7114 3355.8312,642.8364 Q3356.6124,641.9614 3357.7531,641.4926 Q3358.8937,641.0082 3360.3624,641.0082 Q3361.3156,641.0082 3362.2062,641.2114 Q3363.1124,641.3989 3364.0499,641.8676 L3363.2218,643.6489 Q3362.4406,643.2739 3361.7843,643.0864 Q3361.1281,642.8832 3360.3312,642.8832 Z " fill="#000000"/><text fill="#000000" font-family="sans-serif" font-size="14" lengthAdjust="spacing" textLength="59.0518" x="3380.7218" y="652.784">TextView</text><line style="stroke:#181818;stroke-width:0.5;" x1="3302.24" x2="3485.7554" y1="663.352" y2="663.352"/><line style="stroke:#181818;stroke-width:0.5;" x1="3302.24" x2="3485.7554" y1="671.352" y2="671.352"/><ellipse cx="3312.24" cy="686.3859" fill="#84BE84" rx="3" ry="3" style="stroke:#038048;stroke-width:1;"/><text fill="#000000" font-family="sans-serif" font-size="14" lengthAdjust="spacing" textLength="159.5154" x="3321.24" y="690.3179">TextView(Game* model)</text><ellipse cx="3312.24" cy="705.4539" fill="#84BE84" rx="3" ry="3" style="stroke:#038048;stroke-width:1;"/><text fill="#000000" font-family="sans-serif" font-size="14" lengthAdjust="spacing" textLength="145.3194" x="3321.24" y="709.3858">void update() override</text><ellipse cx="3312.24" cy="724.5218" fill="#84BE84" rx="3" ry="3" style="stroke:#038048;stroke-width:1;"/><text fill="#000000" font-family="sans-serif" font-size="14" lengthAdjust="spacing" textLength="144.7874" x="3321.24" y="728.4538">void display() override</text></g><!--class GraphicalView--><g class="entity" data-entity="GraphicalView" data-source-line="146" data-uid="ent0033" id="entity_GraphicalView"><rect fill="#F1F1F1" height="105.2038" rx="2.5" ry="2.5" style="stroke:#181818;stroke-width:0.5;" width="220.2632" x="3521.87" y="631.352"/><ellipse cx="3580.8518" cy="647.352" fill="#ADD1B2" rx="11" ry="11" style="stroke:#181818;stroke-width:1;"/><path d="M3580.9612,642.8832 Q3580.0393,642.8832 3579.3049,643.1957 Q3578.5862,643.5082 3578.0862,644.102 Q3577.5862,644.6801 3577.3049,645.5551 Q3577.0393,646.4301 3577.0393,647.5239 Q3577.0393,648.9614 3577.4768,650.0082 Q3577.9299,651.0551 3578.7737,651.602 Q3579.6331,652.1489 3580.9456,652.1489 Q3581.7268,652.1489 3582.4143,652.0239 Q3583.1174,651.8832 3584.1174,651.5707 L3584.1174,653.4457 Q3583.2581,653.7739 3582.4924,653.8989 Q3581.7424,654.0239 3580.7268,654.0239 Q3578.8049,654.0239 3577.4924,653.227 Q3576.1956,652.4145 3575.5393,650.9457 Q3574.8831,649.4614 3574.8831,647.4926 Q3574.8831,646.0707 3575.2737,644.8989 Q3575.6799,643.7114 3576.4612,642.8364 Q3577.2424,641.9614 3578.3831,641.4926 Q3579.5237,641.0082 3580.9924,641.0082 Q3581.9456,641.0082 3582.8362,641.2114 Q3583.7424,641.3989 3584.6799,641.8676 L3583.8518,643.6489 Q3583.0706,643.2739 3582.4143,643.0864 Q3581.7581,642.8832 3580.9612,642.8832 Z " fill="#000000"/><text fill="#000000" font-family="sans-serif" font-size="14" lengthAdjust="spacing" textLength="93.7996" x="3601.3518" y="652.784">GraphicalView</text><line style="stroke:#181818;stroke-width:0.5;" x1="3522.87" x2="3741.1332" y1="663.352" y2="663.352"/><line style="stroke:#181818;stroke-width:0.5;" x1="3522.87" x2="3741.1332" y1="671.352" y2="671.352"/><ellipse cx="3532.87" cy="686.3859" fill="#84BE84" rx="3" ry="3" style="stroke:#038048;stroke-width:1;"/><text fill="#000000" font-family="sans-serif" font-size="14" lengthAdjust="spacing" textLength="194.2632" x="3541.87" y="690.3179">GraphicalView(Game* model)</text><ellipse cx="3532.87" cy="705.4539" fill="#84BE84" rx="3" ry="3" style="stroke:#038048;stroke-width:1;"/><text fill="#000000" font-family="sans-serif" font-size="14" lengthAdjust="spacing" textLength="145.3194" x="3541.87" y="709.3858">void update() override</text><ellipse cx="3532.87" cy="724.5218" fill="#84BE84" rx="3" ry="3" style="stroke:#038048;stroke-width:1;"/><text fill="#000000" font-family="sans-serif" font-size="14" lengthAdjust="spacing" textLength="144.7874" x="3541.87" y="728.4538">void display() override</text></g><!--class Controller--><g class="entity" data-entity="Controller" data-source-line="155" data-uid="ent0035" id="entity_Controller"><rect fill="#F1F1F1" height="143.3396" rx="2.5" ry="2.5" style="stroke:#181818;stroke-width:0.5;" width="384.7067" x="2453.65" y="44.602"/><ellipse cx="2608.6645" cy="60.602" fill="#ADD1B2" rx="11" ry="11" style="stroke:#181818;stroke-width:1;"/><path d="M2608.7738,56.1332 Q2607.852,56.1332 2607.1176,56.4457 Q2606.3988,56.7582 2605.8988,57.352 Q2605.3988,57.9301 2605.1176,58.8051 Q2604.852,59.6801 2604.852,60.7739 Q2604.852,62.2114 2605.2895,63.2582 Q2605.7426,64.3051 2606.5863,64.852 Q2607.4457,65.3989 2608.7582,65.3989 Q2609.5395,65.3989 2610.227,65.2739 Q2610.9301,65.1332 2611.9301,64.8207 L2611.9301,66.6957 Q2611.0707,67.0239 2610.3051,67.1489 Q2609.5551,67.2739 2608.5395,67.2739 Q2606.6176,67.2739 2605.3051,66.477 Q2604.0082,65.6645 2603.352,64.1957 Q2602.6957,62.7114 2602.6957,60.7426 Q2602.6957,59.3207 2603.0863,58.1489 Q2603.4926,56.9614 2604.2738,56.0864 Q2605.0551,55.2114 2606.1957,54.7426 Q2607.3363,54.2582 2608.8051,54.2582 Q2609.7582,54.2582 2610.6488,54.4614 Q2611.5551,54.6489 2612.4926,55.1176 L2611.6645,56.8989 Q2610.8832,56.5239 2610.227,56.3364 Q2609.5707,56.1332 2608.7738,56.1332 Z " fill="#000000"/><text fill="#000000" font-family="sans-serif" font-size="14" lengthAdjust="spacing" textLength="66.1777" x="2629.1645" y="66.034">Controller</text><line style="stroke:#181818;stroke-width:0.5;" x1="2454.65" x2="2837.3567" y1="76.602" y2="76.602"/><rect fill="none" height="6" style="stroke:#C82930;stroke-width:1;" width="6" x="2461.65" y="88.6359"/><text fill="#000000" font-family="sans-serif" font-size="14" lengthAdjust="spacing" textLength="184.9812" x="2473.65" y="95.5679">vector&lt;vector&lt;View&gt;&gt; views</text><rect fill="none" height="6" style="stroke:#C82930;stroke-width:1;" width="6" x="2461.65" y="107.7039"/><text fill="#000000" font-family="sans-serif" font-size="14" lengthAdjust="spacing" textLength="87.8357" x="2473.65" y="114.6358">Game* game</text><line style="stroke:#181818;stroke-width:0.5;" x1="2454.65" x2="2837.3567" y1="122.7378" y2="122.7378"/><ellipse cx="2464.65" cy="137.7718" fill="#84BE84" rx="3" ry="3" style="stroke:#038048;stroke-width:1;"/><text fill="#000000" font-family="sans-serif" font-size="14" lengthAdjust="spacing" textLength="162.4134" x="2473.65" y="141.7038">Controller(Game* game)</text><ellipse cx="2464.65" cy="156.8397" fill="#84BE84" rx="3" ry="3" style="stroke:#038048;stroke-width:1;"/><text fill="#000000" font-family="sans-serif" font-size="14" lengthAdjust="spacing" textLength="134.8475" x="2473.65" y="160.7717">void runGameLoop()</text><ellipse cx="2464.65" cy="175.9076" fill="#84BE84" rx="3" ry="3" style="stroke:#038048;stroke-width:1;"/><text fill="#000000" font-family="sans-serif" font-size="14" lengthAdjust="spacing" textLength="358.7067" x="2473.65" y="179.8396">void parseCommand(const std::string&amp; commandLine)</text></g><!--class LinkFactory--><g class="entity" data-entity="LinkFactory" data-source-line="167" data-uid="ent0037" id="entity_LinkFactory"><rect fill="#F1F1F1" height="67.0679" rx="2.5" ry="2.5" style="stroke:#181818;stroke-width:0.5;" width="282.143" x="398.93" y="920.502"/><ellipse cx="498.0706" cy="936.502" fill="#ADD1B2" rx="11" ry="11" style="stroke:#181818;stroke-width:1;"/><path d="M498.18,932.0332 Q497.2581,932.0332 496.5238,932.3457 Q495.805,932.6582 495.305,933.252 Q494.805,933.8301 494.5238,934.7051 Q494.2581,935.5801 494.2581,936.6739 Q494.2581,938.1114 494.6956,939.1582 Q495.1488,940.2051 495.9925,940.752 Q496.8519,941.2989 498.1644,941.2989 Q498.9456,941.2989 499.6331,941.1739 Q500.3363,941.0332 501.3363,940.7207 L501.3363,942.5957 Q500.4769,942.9239 499.7113,943.0489 Q498.9613,943.1739 497.9456,943.1739 Q496.0238,943.1739 494.7113,942.377 Q493.4144,941.5645 492.7581,940.0957 Q492.1019,938.6114 492.1019,936.6426 Q492.1019,935.2207 492.4925,934.0489 Q492.8988,932.8614 493.68,931.9864 Q494.4613,931.1114 495.6019,930.6426 Q496.7425,930.1582 498.2113,930.1582 Q499.1644,930.1582 500.055,930.3614 Q500.9613,930.5489 501.8988,931.0176 L501.0706,932.7989 Q500.2894,932.4239 499.6331,932.2364 Q498.9769,932.0332 498.18,932.0332 Z " fill="#000000"/><text fill="#000000" font-family="sans-serif" font-size="14" lengthAdjust="spacing" textLength="75.3617" x="518.5706" y="941.934">LinkFactory</text><line style="stroke:#181818;stroke-width:0.5;" x1="399.93" x2="680.073" y1="952.502" y2="952.502"/><line style="stroke:#181818;stroke-width:0.5;" x1="399.93" x2="680.073" y1="960.502" y2="960.502"/><ellipse cx="409.93" cy="975.5359" fill="#84BE84" rx="3" ry="3" style="stroke:#038048;stroke-width:1;"/><text fill="#000000" font-family="sans-serif" font-size="14" lengthAdjust="spacing" textLength="256.143" x="418.93" y="979.4679">Link * createPlayerLink(Player * player)</text></g><!--class AbilityFactory--><g class="entity" data-entity="AbilityFactory" data-source-line="171" data-uid="ent0038" id="entity_AbilityFactory"><rect fill="#F1F1F1" height="67.0679" rx="2.5" ry="2.5" style="stroke:#181818;stroke-width:0.5;" width="309.1629" x="716.42" y="920.502"/><ellipse cx="822.3156" cy="936.502" fill="#ADD1B2" rx="11" ry="11" style="stroke:#181818;stroke-width:1;"/><path d="M822.425,932.0332 Q821.5031,932.0332 820.7687,932.3457 Q820.05,932.6582 819.55,933.252 Q819.05,933.8301 818.7687,934.7051 Q818.5031,935.5801 818.5031,936.6739 Q818.5031,938.1114 818.9406,939.1582 Q819.3937,940.2051 820.2375,940.752 Q821.0969,941.2989 822.4094,941.2989 Q823.1906,941.2989 823.8781,941.1739 Q824.5812,941.0332 825.5812,940.7207 L825.5812,942.5957 Q824.7219,942.9239 823.9562,943.0489 Q823.2062,943.1739 822.1906,943.1739 Q820.2687,943.1739 818.9562,942.377 Q817.6594,941.5645 817.0031,940.0957 Q816.3469,938.6114 816.3469,936.6426 Q816.3469,935.2207 816.7375,934.0489 Q817.1437,932.8614 817.925,931.9864 Q818.7062,931.1114 819.8469,930.6426 Q820.9875,930.1582 822.4562,930.1582 Q823.4094,930.1582 824.3,930.3614 Q825.2062,930.5489 826.1437,931.0176 L825.3156,932.7989 Q824.5344,932.4239 823.8781,932.2364 Q823.2219,932.0332 822.425,932.0332 Z " fill="#000000"/><text fill="#000000" font-family="sans-serif" font-size="14" lengthAdjust="spacing" textLength="88.8717" x="842.8156" y="941.934">AbilityFactory</text><line style="stroke:#181818;stroke-width:0.5;" x1="717.42" x2="1024.5829" y1="952.502" y2="952.502"/><line style="stroke:#181818;stroke-width:0.5;" x1="717.42" x2="1024.5829" y1="960.502" y2="960.502"/><ellipse cx="727.42" cy="975.5359" fill="#84BE84" rx="3" ry="3" style="stroke:#038048;stroke-width:1;"/><text fill="#000000" font-family="sans-serif" font-size="14" lengthAdjust="spacing" textLength="283.1629" x="736.42" y="979.4679">Ability * createPlayerAbility(Player * player)</text></g><!--class LinkDecoratorFactory--><g class="entity" data-entity="LinkDecoratorFactory" data-source-line="175" data-uid="ent0039" id="entity_LinkDecoratorFactory"><rect fill="#F1F1F1" height="67.0679" rx="2.5" ry="2.5" style="stroke:#181818;stroke-width:0.5;" width="342.6647" x="21.67" y="920.502"/><ellipse cx="117.9476" cy="936.502" fill="#ADD1B2" rx="11" ry="11" style="stroke:#181818;stroke-width:1;"/><path d="M118.057,932.0332 Q117.1351,932.0332 116.4007,932.3457 Q115.682,932.6582 115.182,933.252 Q114.682,933.8301 114.4007,934.7051 Q114.1351,935.5801 114.1351,936.6739 Q114.1351,938.1114 114.5726,939.1582 Q115.0257,940.2051 115.8695,940.752 Q116.7289,941.2989 118.0414,941.2989 Q118.8226,941.2989 119.5101,941.1739 Q120.2132,941.0332 121.2132,940.7207 L121.2132,942.5957 Q120.3539,942.9239 119.5882,943.0489 Q118.8382,943.1739 117.8226,943.1739 Q115.9007,943.1739 114.5882,942.377 Q113.2914,941.5645 112.6351,940.0957 Q111.9789,938.6114 111.9789,936.6426 Q111.9789,935.2207 112.3695,934.0489 Q112.7757,932.8614 113.557,931.9864 Q114.3382,931.1114 115.4789,930.6426 Q116.6195,930.1582 118.0882,930.1582 Q119.0414,930.1582 119.932,930.3614 Q120.8382,930.5489 121.7757,931.0176 L120.9476,932.7989 Q120.1664,932.4239 119.5101,932.2364 Q118.8539,932.0332 118.057,932.0332 Z " fill="#000000"/><text fill="#000000" font-family="sans-serif" font-size="14" lengthAdjust="spacing" textLength="141.6095" x="138.4476" y="941.934">LinkDecoratorFactory</text><line style="stroke:#181818;stroke-width:0.5;" x1="22.67" x2="363.3347" y1="952.502" y2="952.502"/><line style="stroke:#181818;stroke-width:0.5;" x1="22.67" x2="363.3347" y1="960.502" y2="960.502"/><ellipse cx="32.67" cy="975.5359" fill="#84BE84" rx="3" ry="3" style="stroke:#038048;stroke-width:1;"/><text fill="#000000" font-family="sans-serif" font-size="14" lengthAdjust="spacing" textLength="316.6647" x="41.67" y="979.4679">LinkDecorator * createLinkDecorator(Link * link)</text></g><!--reverse link Game to Board--><g class="link" data-entity-1="Game" data-entity-2="Board" data-source-line="183" data-uid="lnk40" id="link_Game_Board"><path codeLine="183" d="M1784.2721,515.0719 C1771.8121,534.0419 1767.2,544.162 1759,564.622 C1682.81,754.682 1685,1005.732 1689.43,1104.422" fill="none" id="Game-backto-Board" style="stroke:#181818;stroke-width:1;"/><polygon fill="#181818" points="1790.86,505.042,1784.2227,507.861,1784.2721,515.0719,1790.9093,512.2529,1790.86,505.042" style="stroke:#181818;stroke-width:1;"/></g><!--reverse link Game to Player--><g class="link" data-entity-1="Game" data-entity-2="Player" data-source-line="184" data-uid="lnk41" id="link_Game_Player"><path codeLine="184" d="M1894,516.812 C1894,536.342 1894,544.592 1894,564.122" fill="none" id="Game-backto-Player" style="stroke:#181818;stroke-width:1;"/><polygon fill="#181818" points="1894,504.812,1890,510.812,1894,516.812,1898,510.812,1894,504.812" style="stroke:#181818;stroke-width:1;"/></g><!--reverse link Board to BaseCell--><g class="link" data-entity-1="Board" data-entity-2="BaseCell" data-source-line="186" data-uid="lnk42" id="link_Board_BaseCell"><path codeLine="186" d="M1869.9026,1190.8577 C1936.7026,1208.0177 2002.37,1226.782 2071,1250.912 C2076.67,1252.902 2082.46,1255.072 2088.27,1257.362" fill="none" id="Board-backto-BaseCell" style="stroke:#181818;stroke-width:1;"/><polygon fill="#181818" points="1858.28,1187.872,1863.0961,1193.239,1869.9026,1190.8577,1865.0865,1185.4906,1858.28,1187.872" style="stroke:#181818;stroke-width:1;"/></g><!--reverse link BaseCell to Link--><g class="link" data-entity-1="BaseCell" data-entity-2="Link" data-source-line="187" data-uid="lnk43" id="link_BaseCell_Link"><path codeLine="187" d="M2076.9837,1252.3066 C2071.1937,1250.2966 2076.72,1252.422 2071,1250.912 C1949.4,1218.612 1608.88,1266.102 1508,1190.912 C1474.73,1166.112 1493.61,1140.192 1472,1104.772 C1459.62,1084.472 1444.58,1064.072 1429.28,1045.152" fill="none" id="BaseCell-backto-Link" style="stroke:#181818;stroke-width:1;"/><polygon fill="none" points="2088.32,1256.242,2083.9636,1250.4955,2076.9837,1252.3066,2081.34,1258.0531,2088.32,1256.242" style="stroke:#181818;stroke-width:1;"/></g><!--reverse link Player to Ability--><g class="link" data-entity-1="Player" data-entity-2="Ability" data-source-line="189" data-uid="lnk44" id="link_Player_Ability"><path codeLine="189" d="M2022.0613,756.9309 C2113.2413,808.1709 2226,871.542 2301.9,914.202" fill="none" id="Player-backto-Ability" style="stroke:#181818;stroke-width:1;"/><polygon fill="#181818" points="2011.6,751.052,2014.871,757.4785,2022.0613,756.9309,2018.7903,750.5043,2011.6,751.052" style="stroke:#181818;stroke-width:1;"/></g><!--reverse link Player to Link--><g class="link" data-entity-1="Player" data-entity-2="Link" data-source-line="190" data-uid="lnk45" id="link_Player_Link"><path codeLine="190" d="M1765.6612,747.7362 C1682.8712,788.2462 1582.2,837.482 1493.45,880.902" fill="none" id="Player-backto-Link" style="stroke:#181818;stroke-width:1;"/><polygon fill="#181818" points="1776.44,742.462,1769.2925,741.5061,1765.6612,747.7362,1772.8087,748.692,1776.44,742.462" style="stroke:#181818;stroke-width:1;"/></g><!--reverse link Link to Board--><g class="link" data-entity-1="Link" data-entity-2="Board" data-source-line="192" data-uid="lnk46" id="link_Link_Board"><path codeLine="192" d="M1503.9845,1042.6114 C1546.0745,1065.9514 1579.73,1084.602 1615.68,1104.532" fill="none" id="Link-backto-Board" style="stroke:#181818;stroke-width:1;"/><polygon fill="none" points="1493.49,1036.792,1496.7974,1043.1999,1503.9845,1042.6114,1500.6771,1036.2036,1493.49,1036.792" style="stroke:#181818;stroke-width:1;"/></g><!--reverse link Player to PlayerCell--><g class="link" data-entity-1="Player" data-entity-2="PlayerCell" data-source-line="194" data-uid="lnk47" id="link_Player_PlayerCell"><path codeLine="194" d="M1880.9862,815.4832 C1870.4062,946.7832 1864.35,1135.362 1913,1190.912 C2016.98,1309.632 2161.27,1130.252 2263,1250.912 C2297.79,1292.172 2269.18,1357.422 2246.03,1396.602" fill="none" id="Player-backto-PlayerCell" style="stroke:#181818;stroke-width:1;"/><polygon fill="#181818" points="1881.95,803.522,1877.481,809.1813,1880.9862,815.4832,1885.4552,809.8239,1881.95,803.522" style="stroke:#181818;stroke-width:1;"/></g><!--reverse link PlayerCell to BaseCell--><g class="link" data-entity-1="PlayerCell" data-entity-2="BaseCell" data-source-line="195" data-uid="lnk48" id="link_PlayerCell_BaseCell"><path codeLine="195" d="M2217.9797,1385.4611 C2212.2997,1367.5111 2206.68,1356.472 2197.16,1337.192" fill="none" id="PlayerCell-backto-BaseCell" style="stroke:#181818;stroke-width:1;"/><polygon fill="#181818" points="2221.6,1396.902,2223.6035,1389.9748,2217.9797,1385.4611,2215.9762,1392.3883,2221.6,1396.902" style="stroke:#181818;stroke-width:1;"/></g><!--reverse link BaseCell to PlayerCell--><g class="link" data-entity-1="BaseCell" data-entity-2="PlayerCell" data-source-line="198" data-uid="lnk50" id="link_BaseCell_PlayerCell"><path codeLine="198" d="M2178.5871,1354.1671 C2185.3871,1373.4471 2189.2,1378.952 2198.72,1396.902" fill="none" id="BaseCell-backto-PlayerCell" style="stroke:#181818;stroke-width:1;"/><polygon fill="none" points="2172.6,1337.192,2172.9287,1356.1628,2184.2455,1352.1714,2172.6,1337.192" style="stroke:#181818;stroke-width:1;"/></g><!--reverse link BaseCell to BoardCell--><g class="link" data-entity-1="BaseCell" data-entity-2="BoardCell" data-source-line="197" data-uid="lnk49" id="link_BaseCell_BoardCell"><path codeLine="197" d="M2130.334,1352.3573 C2115.744,1375.1773 2107.99,1387.332 2095.87,1406.312" fill="none" id="BaseCell-backto-BoardCell" style="stroke:#181818;stroke-width:1;"/><polygon fill="none" points="2140.03,1337.192,2125.2789,1349.1253,2135.3891,1355.5893,2140.03,1337.192" style="stroke:#181818;stroke-width:1;"/></g><!--reverse link PlayerCell to Server--><g class="link" data-entity-1="PlayerCell" data-entity-2="Server" data-source-line="199" data-uid="lnk51" id="link_PlayerCell_Server"><path codeLine="199" d="M2179.3355,1477.2417 C2160.8055,1496.1917 2150.52,1506.702 2133.82,1523.772" fill="none" id="PlayerCell-backto-Server" style="stroke:#181818;stroke-width:1;"/><polygon fill="none" points="2191.92,1464.372,2175.0456,1473.0469,2183.6254,1481.4366,2191.92,1464.372" style="stroke:#181818;stroke-width:1;"/></g><!--reverse link PlayerCell to Firewall--><g class="link" data-entity-1="PlayerCell" data-entity-2="Firewall" data-source-line="200" data-uid="lnk52" id="link_PlayerCell_Firewall"><path codeLine="200" d="M2224,1482.372 C2224,1501.322 2224,1506.702 2224,1523.772" fill="none" id="PlayerCell-backto-Firewall" style="stroke:#181818;stroke-width:1;"/><polygon fill="none" points="2224,1464.372,2218,1482.372,2230,1482.372,2224,1464.372" style="stroke:#181818;stroke-width:1;"/></g><!--reverse link PlayerCell to Goal--><g class="link" data-entity-1="PlayerCell" data-entity-2="Goal" data-source-line="201" data-uid="lnk53" id="link_PlayerCell_Goal"><path codeLine="201" d="M2266.607,1477.5819 C2284.147,1496.5319 2293.58,1506.702 2309.39,1523.772" fill="none" id="PlayerCell-backto-Goal" style="stroke:#181818;stroke-width:1;"/><polygon fill="none" points="2254.38,1464.372,2262.2037,1481.6575,2271.0103,1473.5062,2254.38,1464.372" style="stroke:#181818;stroke-width:1;"/></g><!--reverse link Link to VirusLink--><g class="link" data-entity-1="Link" data-entity-2="VirusLink" data-source-line="203" data-uid="lnk54" id="link_Link_VirusLink"><path codeLine="203" d="M1310.8205,1062.1423 C1301.2905,1091.1423 1297.15,1103.772 1290.65,1123.552" fill="none" id="Link-backto-VirusLink" style="stroke:#181818;stroke-width:1;"/><polygon fill="none" points="1316.44,1045.042,1305.1204,1060.2691,1316.5206,1064.0155,1316.44,1045.042" style="stroke:#181818;stroke-width:1;"/></g><!--reverse link Link to DataLink--><g class="link" data-entity-1="Link" data-entity-2="DataLink" data-source-line="204" data-uid="lnk55" id="link_Link_DataLink"><path codeLine="204" d="M1381.1795,1062.1423 C1390.7095,1091.1423 1394.85,1103.772 1401.35,1123.552" fill="none" id="Link-backto-DataLink" style="stroke:#181818;stroke-width:1;"/><polygon fill="none" points="1375.56,1045.042,1375.4794,1064.0155,1386.8796,1060.2691,1375.56,1045.042" style="stroke:#181818;stroke-width:1;"/></g><!--reverse link Link to LinkDecorator--><g class="link" data-entity-1="Link" data-entity-2="LinkDecorator" data-source-line="205" data-uid="lnk56" id="link_Link_LinkDecorator"><path codeLine="205" d="M1224.0123,1057.3251 C1197.5323,1082.0451 1184.82,1095.012 1166.58,1114.172" fill="none" id="Link-backto-LinkDecorator" style="stroke:#181818;stroke-width:1;"/><polygon fill="none" points="1237.17,1045.042,1219.9179,1052.9392,1228.1067,1061.711,1237.17,1045.042" style="stroke:#181818;stroke-width:1;"/></g><!--reverse link LinkDecorator to Link--><g class="link" data-entity-1="LinkDecorator" data-entity-2="Link" data-source-line="222" data-uid="lnk70" id="link_LinkDecorator_Link"><path codeLine="222" d="M1196.3069,1106.1727 C1218.7869,1087.0327 1237.37,1069.662 1263.37,1045.042" fill="none" id="LinkDecorator-backto-Link" style="stroke:#181818;stroke-width:1;"/><polygon fill="#181818" points="1187.17,1113.952,1194.3315,1113.1079,1196.3069,1106.1727,1189.1453,1107.0167,1187.17,1113.952" style="stroke:#181818;stroke-width:1;"/></g><!--reverse link LinkDecorator to LinkBoostDecorator--><g class="link" data-entity-1="LinkDecorator" data-entity-2="LinkBoostDecorator" data-source-line="207" data-uid="lnk57" id="link_LinkDecorator_LinkBoostDecorator"><path codeLine="207" d="M1149.7067,1199.3358 C1153.8167,1226.2558 1156.82,1245.932 1160.47,1269.822" fill="none" id="LinkDecorator-backto-LinkBoostDecorator" style="stroke:#181818;stroke-width:1;"/><polygon fill="none" points="1146.99,1181.542,1143.7754,1200.2413,1155.6379,1198.4302,1146.99,1181.542" style="stroke:#181818;stroke-width:1;"/></g><!--reverse link LinkDecorator to PolarizeDecorator--><g class="link" data-entity-1="LinkDecorator" data-entity-2="PolarizeDecorator" data-source-line="208" data-uid="lnk58" id="link_LinkDecorator_PolarizeDecorator"><path codeLine="208" d="M1205.76,1191.7865 C1245.6,1218.6165 1285.98,1245.812 1321.38,1269.662" fill="none" id="LinkDecorator-backto-PolarizeDecorator" style="stroke:#181818;stroke-width:1;"/><polygon fill="none" points="1190.83,1181.732,1202.4085,1196.7632,1209.1116,1186.8098,1190.83,1181.732" style="stroke:#181818;stroke-width:1;"/></g><!--reverse link LinkDecorator to RevealDecorator--><g class="link" data-entity-1="LinkDecorator" data-entity-2="RevealDecorator" data-source-line="209" data-uid="lnk59" id="link_LinkDecorator_RevealDecorator"><path codeLine="209" d="M1214.5674,1189.656 C1221.3874,1193.026 1212.2,1188.212 1219,1190.912 C1317.2,1229.862 1349.78,1214.632 1449,1250.912 C1463.47,1256.202 1478.78,1263.042 1492.49,1269.672" fill="none" id="LinkDecorator-backto-RevealDecorator" style="stroke:#181818;stroke-width:1;"/><polygon fill="none" points="1198.43,1181.682,1211.9094,1195.0351,1217.2254,1184.2769,1198.43,1181.682" style="stroke:#181818;stroke-width:1;"/></g><!--reverse link LinkDecorator to LagDecorator--><g class="link" data-entity-1="LinkDecorator" data-entity-2="LagDecorator" data-source-line="210" data-uid="lnk60" id="link_LinkDecorator_LagDecorator"><path codeLine="210" d="M1213.1245,1189.5655 C1220.3945,1193.0355 1211.63,1188.442 1219,1190.912 C1391.95,1248.872 1451.74,1193.872 1625,1250.912 C1632.53,1253.382 1640.19,1256.542 1647.64,1260.022" fill="none" id="LinkDecorator-backto-LagDecorator" style="stroke:#181818;stroke-width:1;"/><polygon fill="none" points="1196.88,1181.812,1210.5399,1194.9803,1215.709,1184.1507,1196.88,1181.812" style="stroke:#181818;stroke-width:1;"/></g><!--reverse link LinkDecorator to QuantumEntanglementDecorator--><g class="link" data-entity-1="LinkDecorator" data-entity-2="QuantumEntanglementDecorator" data-source-line="211" data-uid="lnk61" id="link_LinkDecorator_QuantumEntanglementDecorator"><path codeLine="211" d="M1212.1942,1189.414 C1219.7442,1192.994 1211.29,1188.502 1219,1190.912 C1459.6,1266.122 1535.7,1202.032 1783,1250.912 C1795.78,1253.432 1809.05,1256.572 1822.15,1260.002" fill="none" id="LinkDecorator-backto-QuantumEntanglementDecorator" style="stroke:#181818;stroke-width:1;"/><polygon fill="none" points="1195.93,1181.702,1209.6235,1194.8354,1214.7649,1183.9926,1195.93,1181.702" style="stroke:#181818;stroke-width:1;"/></g><!--reverse link Ability to FirewallAbility--><g class="link" data-entity-1="Ability" data-entity-2="FirewallAbility" data-source-line="213" data-uid="lnk62" id="link_Ability_FirewallAbility"><path codeLine="213" d="M2457.1003,983.5614 C2537.7203,1010.8414 2657.45,1053.552 2771,1104.772 C2783.46,1110.392 2796.69,1117.122 2808.69,1123.532" fill="none" id="Ability-backto-FirewallAbility" style="stroke:#181818;stroke-width:1;"/><polygon fill="none" points="2440.05,977.792,2455.1772,989.2449,2459.0235,977.878,2440.05,977.792" style="stroke:#181818;stroke-width:1;"/></g><!--reverse link Ability to DownloadAbility--><g class="link" data-entity-1="Ability" data-entity-2="DownloadAbility" data-source-line="214" data-uid="lnk63" id="link_Ability_DownloadAbility"><path codeLine="214" d="M2457.7524,972.9545 C2564.5124,995.7745 2757.44,1040.922 2929,1104.772 C2943.15,1110.042 2958.11,1116.802 2971.55,1123.362" fill="none" id="Ability-backto-DownloadAbility" style="stroke:#181818;stroke-width:1;"/><polygon fill="none" points="2440.15,969.192,2456.4982,978.822,2459.0065,967.087,2440.15,969.192" style="stroke:#181818;stroke-width:1;"/></g><!--reverse link Ability to PolarizeAbility--><g class="link" data-entity-1="Ability" data-entity-2="PolarizeAbility" data-source-line="215" data-uid="lnk64" id="link_Ability_PolarizeAbility"><path codeLine="215" d="M2457.982,964.7147 C2589.932,980.5347 2867.69,1020.752 3103,1104.772 C3116.74,1109.682 3131.06,1116.572 3143.72,1123.362" fill="none" id="Ability-backto-PolarizeAbility" style="stroke:#181818;stroke-width:1;"/><polygon fill="none" points="2440.11,962.572,2457.2678,970.6721,2458.6963,958.7574,2440.11,962.572" style="stroke:#181818;stroke-width:1;"/></g><!--reverse link Ability to ScanAbility--><g class="link" data-entity-1="Ability" data-entity-2="ScanAbility" data-source-line="216" data-uid="lnk65" id="link_Ability_ScanAbility"><path codeLine="216" d="M2285.4086,991.9782 C2219.8586,1020.7582 2135.58,1059.382 2051,1104.772 C2040.37,1110.482 2029.09,1117.102 2018.81,1123.372" fill="none" id="Ability-backto-ScanAbility" style="stroke:#181818;stroke-width:1;"/><polygon fill="none" points="2301.89,984.742,2282.9965,986.4844,2287.8207,997.472,2301.89,984.742" style="stroke:#181818;stroke-width:1;"/></g><!--reverse link Ability to LinkBoostAbility--><g class="link" data-entity-1="Ability" data-entity-2="LinkBoostAbility" data-source-line="217" data-uid="lnk66" id="link_Ability_LinkBoostAbility"><path codeLine="217" d="M2288.1386,1022.9522 C2242.5686,1060.3022 2199.15,1095.892 2165.44,1123.522" fill="none" id="Ability-backto-LinkBoostAbility" style="stroke:#181818;stroke-width:1;"/><polygon fill="none" points="2302.06,1011.542,2284.3352,1018.3118,2291.942,1027.5927,2302.06,1011.542" style="stroke:#181818;stroke-width:1;"/></g><!--reverse link Ability to PappleAbility--><g class="link" data-entity-1="Ability" data-entity-2="PappleAbility" data-source-line="218" data-uid="lnk67" id="link_Ability_PappleAbility"><path codeLine="218" d="M2334.9485,1052.4215 C2323.1785,1084.2015 2316.81,1101.422 2308.68,1123.382" fill="none" id="Ability-backto-PappleAbility" style="stroke:#181818;stroke-width:1;"/><polygon fill="none" points="2341.2,1035.542,2329.322,1050.3377,2340.575,1054.5054,2341.2,1035.542" style="stroke:#181818;stroke-width:1;"/></g><!--reverse link Ability to LagAbility--><g class="link" data-entity-1="Ability" data-entity-2="LagAbility" data-source-line="219" data-uid="lnk68" id="link_Ability_LagAbility"><path codeLine="219" d="M2407.0515,1052.4215 C2418.8215,1084.2015 2425.19,1101.422 2433.32,1123.382" fill="none" id="Ability-backto-LagAbility" style="stroke:#181818;stroke-width:1;"/><polygon fill="none" points="2400.8,1035.542,2401.425,1054.5054,2412.678,1050.3377,2400.8,1035.542" style="stroke:#181818;stroke-width:1;"/></g><!--reverse link Ability to QuantumEntanglementAbility--><g class="link" data-entity-1="Ability" data-entity-2="QuantumEntanglementAbility" data-source-line="220" data-uid="lnk69" id="link_Ability_QuantumEntanglementAbility"><path codeLine="220" d="M2454.6574,1014.908 C2508.1574,1053.198 2565.27,1094.072 2606.38,1123.492" fill="none" id="Ability-backto-QuantumEntanglementAbility" style="stroke:#181818;stroke-width:1;"/><polygon fill="none" points="2440.02,1004.432,2451.1654,1019.7871,2458.1494,1010.0288,2440.02,1004.432" style="stroke:#181818;stroke-width:1;"/></g><!--reverse link View to TextView--><g class="link" data-entity-1="View" data-entity-2="TextView" data-source-line="224" data-uid="lnk71" id="link_View_TextView"><path codeLine="224" d="M3397.8177,456.2894 C3396.9077,510.4694 3395.79,576.842 3394.88,631.002" fill="none" id="View-backto-TextView" style="stroke:#181818;stroke-width:1;"/><polygon fill="none" points="3398.12,438.292,3391.8186,456.1887,3403.8169,456.3902,3398.12,438.292" style="stroke:#181818;stroke-width:1;"/></g><!--reverse link View to GraphicalView--><g class="link" data-entity-1="View" data-entity-2="GraphicalView" data-source-line="225" data-uid="lnk72" id="link_View_GraphicalView"><path codeLine="225" d="M3450.9676,452.4483 C3493.5176,506.6283 3548.66,576.842 3591.19,631.002" fill="none" id="View-backto-GraphicalView" style="stroke:#181818;stroke-width:1;"/><polygon fill="none" points="3439.85,438.292,3446.2488,456.1541,3455.6863,448.7424,3439.85,438.292" style="stroke:#181818;stroke-width:1;"/></g><!--reverse link Controller to Game--><g class="link" data-entity-1="Controller" data-entity-2="Game" data-source-line="227" data-uid="lnk73" id="link_Controller_Game"><path codeLine="227" d="M2442.0116,189.697 C2318.3116,233.617 2170.88,285.972 2054.13,327.422" fill="none" id="Controller-backto-Game" style="stroke:#181818;stroke-width:1;"/><polygon fill="none" points="2453.32,185.682,2446.3275,183.9201,2442.0116,189.697,2449.0042,191.459,2453.32,185.682" style="stroke:#181818;stroke-width:1;"/></g><!--reverse link Controller to View--><g class="link" data-entity-1="Controller" data-entity-2="View" data-source-line="228" data-uid="lnk74" id="link_Controller_View"><path codeLine="228" d="M2850.6701,136.0855 C3003.4001,152.6455 3190.5,179.682 3261,219.942 C3307.43,246.452 3345.17,294.882 3369.37,332.322" fill="none" id="Controller-backto-View" style="stroke:#181818;stroke-width:1;"/><polygon fill="none" points="2838.74,134.792,2844.2739,139.4154,2850.6701,136.0855,2845.1362,131.4621,2838.74,134.792" style="stroke:#181818;stroke-width:1;"/></g><!--link LinkFactory to Link--><g class="link" data-entity-1="LinkFactory" data-entity-2="Link" data-source-line="230" data-uid="lnk75" id="link_LinkFactory_Link"><path codeLine="230" d="M575.39,920.142 C608.76,890.712 661.7,850.242 716.5,833.292 C877.96,783.352 1063.8114,832.9784 1192.8314,883.3884" fill="none" id="LinkFactory-to-Link" style="stroke:#181818;stroke-width:1;stroke-dasharray:7.0,7.0;"/><polygon fill="#181818" points="1198.42,885.572,1191.4928,878.571,1193.7629,883.7524,1188.5814,886.0224,1198.42,885.572" style="stroke:#181818;stroke-width:1;"/></g><!--link AbilityFactory to Ability--><g class="link" data-entity-1="AbilityFactory" data-entity-2="Ability" data-source-line="231" data-uid="lnk76" id="link_AbilityFactory_Ability"><path codeLine="231" d="M914.84,920.042 C955.84,890.552 1020.12,850.042 1083.5,833.292 C1255.81,787.762 1708.6,811.632 1885.5,833.292 C2036.8,851.832 2203.1101,899.8801 2296.3301,929.4101" fill="none" id="AbilityFactory-to-Ability" style="stroke:#181818;stroke-width:1;stroke-dasharray:7.0,7.0;"/><polygon fill="#181818" points="2302.05,931.222,2294.6781,924.6908,2297.2834,929.712,2292.2622,932.3173,2302.05,931.222" style="stroke:#181818;stroke-width:1;"/></g><!--link LinkDecoratorFactory to LinkDecorator--><g class="link" data-entity-1="LinkDecoratorFactory" data-entity-2="LinkDecorator" data-source-line="232" data-uid="lnk77" id="link_LinkDecoratorFactory_LinkDecorator"><path codeLine="232" d="M249.98,987.992 C286.32,1007.542 335.07,1031.102 381,1044.772 C634.28,1120.172 945.6646,1139.7669 1075.9646,1144.8769" fill="none" id="LinkDecoratorFactory-to-LinkDecorator" style="stroke:#181818;stroke-width:1;stroke-dasharray:7.0,7.0;"/><polygon fill="#181818" points="1081.96,1145.112,1073.1237,1140.7624,1076.9638,1144.916,1072.8102,1148.7562,1081.96,1145.112" style="stroke:#181818;stroke-width:1;"/></g><!--SRC=[jLVRRkCs47tNLn1ReEkuSJzW6nZOEDsYWBTeDzljCoDDRC8IgPAKlMdQV-_m9l4Ygq_DGsBF6NA6SprvIpQR3Vae6cZ9hgLAWJAIggVrYHw0lEaCz8QyLWH_QgD1Vg8TU04X6tA6MWjvzsjBNq1kIM__gX5cN9Dwa1AuTYe_ymQ-_b1vXU_8MR26A4sbDXUlRbA0mrVzUP0yaZy9qPBw2FNf3yRtGga8SoRMv01w5nkDL8n324VEhDndiiviT_G47yKPLlMHIj8oVhebzcF3PAQgZkAI67p_n5gcN_Bd30e2OlnWpMs8dzAIyGF6ZqhQANVidoeA-xsWiYdZxl_SKmKxQDlj5kE3Yb60RRmwVCSUNx0olzR-CJrbyWxzk3L1sP9Q2DcafkaJ-aLh7NpmLY8tt7sYheUUScs-PQaL_4UkCGC62Y4k7nRTEc_QXJKp7j8jBXnaUVCZo3FczRL4FZ095vgRzFKjwApSLybaFGiV5jLZBIJa6V89Ns_nIUOJ0vMhs21kRLRK5BuhzySrbLj0dVV1IAGN52QygCm6OzWAsaG5acb8-7C0fMr7F63yQiq4d-a571YWysART9mC7R4QOsijbPqjdQjnTsMR31my3VoWZsGfc3jxBe-36e7i18VBBcgGQ9GyUcjfnp7rXSaXt9zKaWMYHoNW0zMqn6OYyW1O3HJpFuRc6n_S9snJKjvim7iXbCvFfcKkMYhPNx2ez0dEGDj5bJqzb1wwz6WSw6eFpxeyzTk0KsJeS6HGVcYXmu4wTujx9yvAdJL-5YTVxED9SzPDMi9nsqHIcpCSpqqr2gUPFHP9bDtVKJUH-vqXJmNYBMAf_3AjkDbvbFgRreLlq0MLaBe5bSUQyWLuB94bAxJlsoKRcFa5T2R3kJRglxN4v0k3opmlEICIQ4cMStlejSXYtr0DPS8QfWnbAG4kD7j-MOKLutZDJEe-8qCfJ0RXod2QDR4iwkQQImGdgfIiWQk-fHhfjfAqFxAQjeKF2V8_EJ9cQYUubg9jSK7QVANPgaSqfPBHgRX3KsfZt4TQOpAk8YNte8FfuiZTwSRLf50yM0xSe7iX-ZBnE5MGvOYkexnPeUVAx9FctJlNnT_Ylh4GjWhSv67uG8tBB_Cr- -p0D0IcuyAfrsH9aZMf9M1YN0dQTHcOwlLozBrKNXcQBBqri87_lZXPEVCUJvCw64cadW8cwnvD-D1zWfOQHg6Eh7U1g-n_6cl4B4MSlZfdgyfHOglWYMarCbInSLkYgiBJKE1V6ukyadLDZAOIZObwLX4BJSnETk_-3fUa_bZv_4qMybora8zCjK0CJ_MEs-yZguXaWKn4eYGbxloKjr4ZvGbpMWLFc5FAUCAijOWdpE5BZA2gGbKdiGffJi1iVwPWjZbJCDgPAP1lo-pEU4zc1ySDcSglxyOyKUknlEtSjwV3qeb4oGwegcZUcbgt3PKBdMOybhxVEbFPQ45nS6vsDlXZKxB-1G00]--></g></svg>