<svg xmlns="http://www.w3.org/2000/svg" xmlns:xlink="http://www.w3.org/1999/xlink" contentStyleType="text/css" data-diagram-type="CLASS" height="1595px" preserveAspectRatio="none" style="width:3554px;height:1595px;background:#FFFFFF;" version="1.1" viewBox="0 0 3554 1595" width="3554px" zoomAndPan="magnify"><defs/><g><!--cluster enums--><g class="cluster" data-entity="enums" data-source-line="3" data-uid="ent0002" id="cluster_enums"><path d="M3001.5,6.602 L3049.6833,6.602 A3.75,3.75 0 0 1 3052.1833,9.102 L3059.1833,31.6699 L3245.5,31.6699 A2.5,2.5 0 0 1 3248,34.1699 L3248,182.372 A2.5,2.5 0 0 1 3245.5,184.872 L3001.5,184.872 A2.5,2.5 0 0 1 2999,182.372 L2999,9.102 A2.5,2.5 0 0 1 3001.5,6.602" fill="none" style="stroke:#000000;stroke-width:1.5;"/><line style="stroke:#000000;stroke-width:1.5;" x1="2999" x2="3059.1833" y1="31.6699" y2="31.6699"/><text fill="#000000" font-family="sans-serif" font-size="14" font-weight="bold" lengthAdjust="spacing" textLength="47.1833" x="3003" y="23.5679">enums</text></g><!--cluster model--><g class="cluster" data-entity="model" data-source-line="19" data-uid="ent0005" id="cluster_model"><path d="M1046.5,208.872 L1091.3653,208.872 A3.75,3.75 0 0 1 1093.8653,211.372 L1100.8653,233.9399 L3236.5,233.9399 A2.5,2.5 0 0 1 3239,236.4399 L3239,1585.612 A2.5,2.5 0 0 1 3236.5,1588.112 L1046.5,1588.112 A2.5,2.5 0 0 1 1044,1585.612 L1044,211.372 A2.5,2.5 0 0 1 1046.5,208.872" fill="none" style="stroke:#000000;stroke-width:1.5;"/><line style="stroke:#000000;stroke-width:1.5;" x1="1044" x2="1100.8653" y1="233.9399" y2="233.9399"/><text fill="#000000" font-family="sans-serif" font-size="14" font-weight="bold" lengthAdjust="spacing" textLength="43.8653" x="1048" y="225.8379">model</text></g><!--cluster view--><g class="cluster" data-entity="view" data-source-line="151" data-uid="ent0033" id="cluster_view"><path d="M3265.5,294.672 L3297.8739,294.672 A3.75,3.75 0 0 1 3300.3739,297.172 L3307.3739,319.7399 L3544.5,319.7399 A2.5,2.5 0 0 1 3547,322.2399 L3547,721.462 A2.5,2.5 0 0 1 3544.5,723.962 L3265.5,723.962 A2.5,2.5 0 0 1 3263,721.462 L3263,297.172 A2.5,2.5 0 0 1 3265.5,294.672" fill="none" style="stroke:#000000;stroke-width:1.5;"/><line style="stroke:#000000;stroke-width:1.5;" x1="3263" x2="3307.3739" y1="319.7399" y2="319.7399"/><text fill="#000000" font-family="sans-serif" font-size="14" font-weight="bold" lengthAdjust="spacing" textLength="31.3739" x="3267" y="311.6379">view</text></g><!--cluster controller--><g class="cluster" data-entity="controller" data-source-line="166" data-uid="ent0037" id="cluster_controller"><path d="M1964.5,6.602 L2033.9248,6.602 A3.75,3.75 0 0 1 2036.4248,9.102 L2043.4248,31.6699 L2375.5,31.6699 A2.5,2.5 0 0 1 2378,34.1699 L2378,182.372 A2.5,2.5 0 0 1 2375.5,184.872 L1964.5,184.872 A2.5,2.5 0 0 1 1962,182.372 L1962,9.102 A2.5,2.5 0 0 1 1964.5,6.602" fill="none" style="stroke:#000000;stroke-width:1.5;"/><line style="stroke:#000000;stroke-width:1.5;" x1="1962" x2="2043.4248" y1="31.6699" y2="31.6699"/><text fill="#000000" font-family="sans-serif" font-size="14" font-weight="bold" lengthAdjust="spacing" textLength="68.4248" x="1966" y="23.5679">controller</text></g><!--cluster factory--><g class="cluster" data-entity="factory" data-source-line="177" data-uid="ent0039" id="cluster_factory"><path d="M8.5,863.432 L58.3983,863.432 A3.75,3.75 0 0 1 60.8983,865.932 L67.8983,888.4999 L1017.5,888.4999 A2.5,2.5 0 0 1 1020,890.9999 L1020,982.002 A2.5,2.5 0 0 1 1017.5,984.502 L8.5,984.502 A2.5,2.5 0 0 1 6,982.002 L6,865.932 A2.5,2.5 0 0 1 8.5,863.432" fill="none" style="stroke:#000000;stroke-width:1.5;"/><line style="stroke:#000000;stroke-width:1.5;" x1="6" x2="67.8983" y1="888.4999" y2="888.4999"/><text fill="#000000" font-family="sans-serif" font-size="14" font-weight="bold" lengthAdjust="spacing" textLength="48.8983" x="10" y="880.3979">factory</text></g><!--class Direction--><g class="entity" data-entity="Direction" data-source-line="4" data-uid="ent0003" id="entity_Direction"><rect fill="#F1F1F1" height="124.2717" rx="2.5" ry="2.5" style="stroke:#181818;stroke-width:0.5;" width="92.0178" x="3014.99" y="44.602"/><ellipse cx="3029.99" cy="60.602" fill="#EB937F" rx="11" ry="11" style="stroke:#181818;stroke-width:1;"/><path d="M3033.4588,67.102 L3026.1463,67.102 L3026.1463,54.4301 L3033.4588,54.4301 L3033.4588,56.3051 L3028.1931,56.3051 L3028.1931,59.5707 L3033.1463,59.5707 L3033.1463,61.4301 L3028.1931,61.4301 L3028.1931,65.227 L3033.4588,65.227 L3033.4588,67.102 Z " fill="#000000"/><text fill="#000000" font-family="sans-serif" font-size="14" lengthAdjust="spacing" textLength="60.0178" x="3043.99" y="66.034">Direction</text><line style="stroke:#181818;stroke-width:0.5;" x1="3015.99" x2="3106.0078" y1="76.602" y2="76.602"/><text fill="#000000" font-family="sans-serif" font-size="14" lengthAdjust="spacing" textLength="48.4398" x="3020.99" y="95.5679">NORTH</text><text fill="#000000" font-family="sans-serif" font-size="14" lengthAdjust="spacing" textLength="47.0118" x="3020.99" y="114.6358">SOUTH</text><text fill="#000000" font-family="sans-serif" font-size="14" lengthAdjust="spacing" textLength="32.1999" x="3020.99" y="133.7038">EAST</text><text fill="#000000" font-family="sans-serif" font-size="14" lengthAdjust="spacing" textLength="36.2738" x="3020.99" y="152.7717">WEST</text><line style="stroke:#181818;stroke-width:0.5;" x1="3015.99" x2="3106.0078" y1="160.8736" y2="160.8736"/></g><!--class LinkType--><g class="entity" data-entity="LinkType" data-source-line="11" data-uid="ent0004" id="entity_LinkType"><rect fill="#F1F1F1" height="86.1358" rx="2.5" ry="2.5" style="stroke:#181818;stroke-width:0.5;" width="90.5058" x="3141.75" y="63.662"/><ellipse cx="3156.75" cy="79.662" fill="#EB937F" rx="11" ry="11" style="stroke:#181818;stroke-width:1;"/><path d="M3160.2188,86.162 L3152.9063,86.162 L3152.9063,73.4901 L3160.2188,73.4901 L3160.2188,75.3651 L3154.9531,75.3651 L3154.9531,78.6307 L3159.9063,78.6307 L3159.9063,80.4901 L3154.9531,80.4901 L3154.9531,84.287 L3160.2188,84.287 L3160.2188,86.162 Z " fill="#000000"/><text fill="#000000" font-family="sans-serif" font-size="14" lengthAdjust="spacing" textLength="58.5058" x="3170.75" y="85.094">LinkType</text><line style="stroke:#181818;stroke-width:0.5;" x1="3142.75" x2="3231.2558" y1="95.662" y2="95.662"/><text fill="#000000" font-family="sans-serif" font-size="14" lengthAdjust="spacing" textLength="39.7738" x="3147.75" y="114.6279">VIRUS</text><text fill="#000000" font-family="sans-serif" font-size="14" lengthAdjust="spacing" textLength="35.8959" x="3147.75" y="133.6958">DATA</text><line style="stroke:#181818;stroke-width:0.5;" x1="3142.75" x2="3231.2558" y1="141.7978" y2="141.7978"/></g><!--class Game--><g class="entity" data-entity="Game" data-source-line="20" data-uid="ent0006" id="entity_Game"><rect fill="#F1F1F1" height="276.815" rx="2.5" ry="2.5" style="stroke:#181818;stroke-width:0.5;" width="319.2569" x="1712.37" y="246.872"/><ellipse cx="1848.2325" cy="262.872" fill="#ADD1B2" rx="11" ry="11" style="stroke:#181818;stroke-width:1;"/><path d="M1848.3419,258.4032 Q1847.42,258.4032 1846.6856,258.7157 Q1845.9669,259.0282 1845.4669,259.622 Q1844.9669,260.2001 1844.6856,261.0751 Q1844.42,261.9501 1844.42,263.0439 Q1844.42,264.4814 1844.8575,265.5282 Q1845.3106,266.5751 1846.1544,267.122 Q1847.0138,267.6689 1848.3263,267.6689 Q1849.1075,267.6689 1849.795,267.5439 Q1850.4981,267.4032 1851.4981,267.0907 L1851.4981,268.9657 Q1850.6388,269.2939 1849.8731,269.4189 Q1849.1231,269.5439 1848.1075,269.5439 Q1846.1856,269.5439 1844.8731,268.747 Q1843.5763,267.9345 1842.92,266.4657 Q1842.2638,264.9814 1842.2638,263.0126 Q1842.2638,261.5907 1842.6544,260.4189 Q1843.0606,259.2314 1843.8419,258.3564 Q1844.6231,257.4814 1845.7638,257.0126 Q1846.9044,256.5282 1848.3731,256.5282 Q1849.3263,256.5282 1850.2169,256.7314 Q1851.1231,256.9189 1852.0606,257.3876 L1851.2325,259.1689 Q1850.4513,258.7939 1849.795,258.6064 Q1849.1388,258.4032 1848.3419,258.4032 Z " fill="#000000"/><text fill="#000000" font-family="sans-serif" font-size="14" lengthAdjust="spacing" textLength="39.0318" x="1868.7325" y="268.304">Game</text><line style="stroke:#181818;stroke-width:0.5;" x1="1713.37" x2="2030.6269" y1="278.872" y2="278.872"/><rect fill="none" height="6" style="stroke:#C82930;stroke-width:1;" width="6" x="1720.37" y="290.9059"/><text fill="#000000" font-family="sans-serif" font-size="14" lengthAdjust="spacing" textLength="149.0434" x="1732.37" y="297.8379">vector&lt;Player&gt; players</text><rect fill="none" height="6" style="stroke:#C82930;stroke-width:1;" width="6" x="1720.37" y="309.9739"/><text fill="#000000" font-family="sans-serif" font-size="14" lengthAdjust="spacing" textLength="151.3114" x="1732.37" y="316.9058">int currentPlayerIndex;</text><rect fill="none" height="6" style="stroke:#C82930;stroke-width:1;" width="6" x="1720.37" y="329.0418"/><text fill="#000000" font-family="sans-serif" font-size="14" lengthAdjust="spacing" textLength="82.7817" x="1732.37" y="335.9738">Board board</text><line style="stroke:#181818;stroke-width:0.5;" x1="1713.37" x2="2030.6269" y1="344.0757" y2="344.0757"/><ellipse cx="1723.37" cy="359.1097" fill="#84BE84" rx="3" ry="3" style="stroke:#038048;stroke-width:1;"/><text fill="#000000" font-family="sans-serif" font-size="14" lengthAdjust="spacing" textLength="109.3256" x="1732.37" y="363.0417">void startGame()</text><ellipse cx="1723.37" cy="378.1776" fill="#84BE84" rx="3" ry="3" style="stroke:#038048;stroke-width:1;"/><text fill="#000000" font-family="sans-serif" font-size="14" lengthAdjust="spacing" textLength="99.7216" x="1732.37" y="382.1096">void nextTurn()</text><ellipse cx="1723.37" cy="397.2455" fill="#84BE84" rx="3" ry="3" style="stroke:#038048;stroke-width:1;"/><text fill="#000000" font-family="sans-serif" font-size="14" lengthAdjust="spacing" textLength="120.9456" x="1732.37" y="401.1775">Board* getBoard()</text><ellipse cx="1723.37" cy="416.3134" fill="#84BE84" rx="3" ry="3" style="stroke:#038048;stroke-width:1;"/><text fill="#000000" font-family="sans-serif" font-size="14" lengthAdjust="spacing" textLength="133.1675" x="1732.37" y="420.2454">bool checkWinLoss()</text><ellipse cx="1723.37" cy="435.3814" fill="#84BE84" rx="3" ry="3" style="stroke:#038048;stroke-width:1;"/><text fill="#000000" font-family="sans-serif" font-size="14" lengthAdjust="spacing" textLength="173.4873" x="1732.37" y="439.3133">Player* getCurrentPlayer()</text><ellipse cx="1723.37" cy="454.4493" fill="#84BE84" rx="3" ry="3" style="stroke:#038048;stroke-width:1;"/><text fill="#000000" font-family="sans-serif" font-size="14" lengthAdjust="spacing" textLength="177.4493" x="1732.37" y="458.3813">int getPlayerIndex(Player*)</text><ellipse cx="1723.37" cy="473.5172" fill="#84BE84" rx="3" ry="3" style="stroke:#038048;stroke-width:1;"/><text fill="#000000" font-family="sans-serif" font-size="14" lengthAdjust="spacing" textLength="226.3791" x="1732.37" y="477.4492">void makeMove(char link, char dir)</text><ellipse cx="1723.37" cy="492.5851" fill="#84BE84" rx="3" ry="3" style="stroke:#038048;stroke-width:1;"/><text fill="#000000" font-family="sans-serif" font-size="14" lengthAdjust="spacing" textLength="206.6812" x="1732.37" y="496.5171">void showCurrentPlayerAbility()</text><ellipse cx="1723.37" cy="511.653" fill="#84BE84" rx="3" ry="3" style="stroke:#038048;stroke-width:1;"/><text fill="#000000" font-family="sans-serif" font-size="14" lengthAdjust="spacing" textLength="293.2569" x="1732.37" y="515.585">void useAbility(int id, vector&lt;string&gt; params)</text></g><!--class Board--><g class="entity" data-entity="Board" data-source-line="36" data-uid="ent0007" id="entity_Board"><rect fill="#F1F1F1" height="86.1358" rx="2.5" ry="2.5" style="stroke:#181818;stroke-width:0.5;" width="332.3188" x="1503.84" y="1085.702"/><ellipse cx="1645.8415" cy="1101.702" fill="#ADD1B2" rx="11" ry="11" style="stroke:#181818;stroke-width:1;"/><path d="M1645.9509,1097.2332 Q1645.029,1097.2332 1644.2946,1097.5457 Q1643.5759,1097.8582 1643.0759,1098.452 Q1642.5759,1099.0301 1642.2946,1099.9051 Q1642.029,1100.7801 1642.029,1101.8739 Q1642.029,1103.3114 1642.4665,1104.3582 Q1642.9196,1105.4051 1643.7634,1105.952 Q1644.6227,1106.4989 1645.9352,1106.4989 Q1646.7165,1106.4989 1647.404,1106.3739 Q1648.1071,1106.2332 1649.1071,1105.9207 L1649.1071,1107.7957 Q1648.2477,1108.1239 1647.4821,1108.2489 Q1646.7321,1108.3739 1645.7165,1108.3739 Q1643.7946,1108.3739 1642.4821,1107.577 Q1641.1852,1106.7645 1640.529,1105.2957 Q1639.8727,1103.8114 1639.8727,1101.8426 Q1639.8727,1100.4207 1640.2634,1099.2489 Q1640.6696,1098.0614 1641.4509,1097.1864 Q1642.2321,1096.3114 1643.3727,1095.8426 Q1644.5134,1095.3582 1645.9821,1095.3582 Q1646.9352,1095.3582 1647.8259,1095.5614 Q1648.7321,1095.7489 1649.6696,1096.2176 L1648.8415,1097.9989 Q1648.0602,1097.6239 1647.404,1097.4364 Q1646.7477,1097.2332 1645.9509,1097.2332 Z " fill="#000000"/><text fill="#000000" font-family="sans-serif" font-size="14" lengthAdjust="spacing" textLength="39.8159" x="1666.3415" y="1107.134">Board</text><line style="stroke:#181818;stroke-width:0.5;" x1="1504.84" x2="1835.1588" y1="1117.702" y2="1117.702"/><rect fill="none" height="6" style="stroke:#C82930;stroke-width:1;" width="6" x="1511.84" y="1129.7359"/><text fill="#000000" font-family="sans-serif" font-size="14" lengthAdjust="spacing" textLength="216.3412" x="1523.84" y="1136.6679">vector&lt;vector&lt;BaseCell&gt;&gt; board;</text><line style="stroke:#181818;stroke-width:0.5;" x1="1504.84" x2="1835.1588" y1="1144.7699" y2="1144.7699"/><ellipse cx="1514.84" cy="1159.8039" fill="#84BE84" rx="3" ry="3" style="stroke:#038048;stroke-width:1;"/><text fill="#000000" font-family="sans-serif" font-size="14" lengthAdjust="spacing" textLength="306.3188" x="1523.84" y="1163.7358">bool moveLink(Link* link, pair&lt;int, int&gt; coords)</text></g><!--class BaseCell--><g class="entity" data-entity="BaseCell" data-source-line="42" data-uid="ent0008" id="entity_BaseCell"><rect fill="#F1F1F1" height="86.1358" rx="2.5" ry="2.5" style="stroke:#181818;stroke-width:0.5;" width="152.9235" x="2066.54" y="1231.842"/><ellipse cx="2112.8448" cy="1247.842" fill="#A9DCDF" rx="11" ry="11" style="stroke:#181818;stroke-width:1;"/><path d="M2116.1886,1253.092 L2114.7198,1249.342 L2110.2823,1249.342 L2108.8448,1253.092 L2106.7198,1253.092 L2111.673,1240.3732 L2113.423,1240.3732 L2118.3448,1253.092 L2116.1886,1253.092 Z M2112.8448,1244.1389 Q2112.798,1243.9826 2112.673,1243.6232 Q2112.548,1243.2639 2112.4386,1242.8889 Q2112.3292,1242.4982 2112.5323,1242.4357 Q2112.6886,1242.6232 2112.5948,1242.9826 Q2112.5011,1243.3264 2112.4073,1243.6232 Q2112.3136,1243.9045 2112.2355,1244.1389 L2111.0011,1247.4514 L2114.0792,1247.4514 L2112.8448,1244.1389 Z " fill="#000000"/><text fill="#000000" font-family="sans-serif" font-size="14" font-style="italic" lengthAdjust="spacing" textLength="51.8138" x="2133.3448" y="1253.274">BaseCell</text><line style="stroke:#181818;stroke-width:0.5;" x1="2067.54" x2="2218.4635" y1="1263.842" y2="1263.842"/><rect fill="none" height="6" style="stroke:#C82930;stroke-width:1;" width="6" x="2074.54" y="1275.8759"/><text fill="#000000" font-family="sans-serif" font-size="14" lengthAdjust="spacing" textLength="126.2375" x="2086.54" y="1282.8079">Link* occupantLink</text><line style="stroke:#181818;stroke-width:0.5;" x1="2067.54" x2="2218.4635" y1="1290.9099" y2="1290.9099"/><ellipse cx="2077.54" cy="1305.9439" fill="#84BE84" rx="3" ry="3" style="stroke:#038048;stroke-width:1;"/><text fill="#000000" font-family="sans-serif" font-size="14" lengthAdjust="spacing" textLength="126.9235" x="2086.54" y="1309.8758">void onEnter(Link*)</text></g><!--class BoardCell--><g class="entity" data-entity="BoardCell" data-source-line="48" data-uid="ent0009" id="entity_BoardCell"><rect fill="#F1F1F1" height="48" rx="2.5" ry="2.5" style="stroke:#181818;stroke-width:0.5;" width="95.7838" x="2006.11" y="1397.042"/><ellipse cx="2021.11" cy="1413.042" fill="#ADD1B2" rx="11" ry="11" style="stroke:#181818;stroke-width:1;"/><path d="M2021.2194,1408.5732 Q2020.2975,1408.5732 2019.5631,1408.8857 Q2018.8444,1409.1982 2018.3444,1409.792 Q2017.8444,1410.3701 2017.5631,1411.2451 Q2017.2975,1412.1201 2017.2975,1413.2139 Q2017.2975,1414.6514 2017.735,1415.6982 Q2018.1881,1416.7451 2019.0319,1417.292 Q2019.8913,1417.8389 2021.2038,1417.8389 Q2021.985,1417.8389 2022.6725,1417.7139 Q2023.3756,1417.5732 2024.3756,1417.2607 L2024.3756,1419.1357 Q2023.5163,1419.4639 2022.7506,1419.5889 Q2022.0006,1419.7139 2020.985,1419.7139 Q2019.0631,1419.7139 2017.7506,1418.917 Q2016.4538,1418.1045 2015.7975,1416.6357 Q2015.1413,1415.1514 2015.1413,1413.1826 Q2015.1413,1411.7607 2015.5319,1410.5889 Q2015.9381,1409.4014 2016.7194,1408.5264 Q2017.5006,1407.6514 2018.6413,1407.1826 Q2019.7819,1406.6982 2021.2506,1406.6982 Q2022.2038,1406.6982 2023.0944,1406.9014 Q2024.0006,1407.0889 2024.9381,1407.5576 L2024.11,1409.3389 Q2023.3288,1408.9639 2022.6725,1408.7764 Q2022.0163,1408.5732 2021.2194,1408.5732 Z " fill="#000000"/><text fill="#000000" font-family="sans-serif" font-size="14" lengthAdjust="spacing" textLength="63.7838" x="2035.11" y="1418.474">BoardCell</text><line style="stroke:#181818;stroke-width:0.5;" x1="2007.11" x2="2100.8938" y1="1429.042" y2="1429.042"/><line style="stroke:#181818;stroke-width:0.5;" x1="2007.11" x2="2100.8938" y1="1437.042" y2="1437.042"/></g><!--class PlayerCell--><g class="entity" data-entity="PlayerCell" data-source-line="51" data-uid="ent0010" id="entity_PlayerCell"><rect fill="#F1F1F1" height="86.1358" rx="2.5" ry="2.5" style="stroke:#181818;stroke-width:0.5;" width="123.9436" x="2137.03" y="1377.972"/><ellipse cx="2165.943" cy="1393.972" fill="#A9DCDF" rx="11" ry="11" style="stroke:#181818;stroke-width:1;"/><path d="M2169.2868,1399.222 L2167.818,1395.472 L2163.3805,1395.472 L2161.943,1399.222 L2159.818,1399.222 L2164.7712,1386.5032 L2166.5212,1386.5032 L2171.443,1399.222 L2169.2868,1399.222 Z M2165.943,1390.2689 Q2165.8962,1390.1126 2165.7712,1389.7532 Q2165.6462,1389.3939 2165.5368,1389.0189 Q2165.4274,1388.6282 2165.6305,1388.5657 Q2165.7868,1388.7532 2165.693,1389.1126 Q2165.5993,1389.4564 2165.5055,1389.7532 Q2165.4118,1390.0345 2165.3337,1390.2689 L2164.0993,1393.5814 L2167.1774,1393.5814 L2165.943,1390.2689 Z " fill="#000000"/><text fill="#000000" font-family="sans-serif" font-size="14" font-style="italic" lengthAdjust="spacing" textLength="61.0258" x="2183.0348" y="1399.404">PlayerCell</text><line style="stroke:#181818;stroke-width:0.5;" x1="2138.03" x2="2259.9736" y1="1409.972" y2="1409.972"/><rect fill="none" height="6" style="stroke:#C82930;stroke-width:1;" width="6" x="2145.03" y="1422.0059"/><text fill="#000000" font-family="sans-serif" font-size="14" lengthAdjust="spacing" textLength="97.9436" x="2157.03" y="1428.9379">BaseCell* base</text><rect fill="none" height="6" style="stroke:#C82930;stroke-width:1;" width="6" x="2145.03" y="1441.0739"/><text fill="#000000" font-family="sans-serif" font-size="14" lengthAdjust="spacing" textLength="93.9116" x="2157.03" y="1448.0058">Player* owner</text><line style="stroke:#181818;stroke-width:0.5;" x1="2138.03" x2="2259.9736" y1="1456.1078" y2="1456.1078"/></g><!--class Server--><g class="entity" data-entity="Server" data-source-line="56" data-uid="ent0011" id="entity_Server"><rect fill="#F1F1F1" height="48" rx="2.5" ry="2.5" style="stroke:#181818;stroke-width:0.5;" width="74.1538" x="2048.92" y="1524.112"/><ellipse cx="2063.92" cy="1540.112" fill="#ADD1B2" rx="11" ry="11" style="stroke:#181818;stroke-width:1;"/><path d="M2064.0294,1535.6432 Q2063.1075,1535.6432 2062.3731,1535.9557 Q2061.6544,1536.2682 2061.1544,1536.862 Q2060.6544,1537.4401 2060.3731,1538.3151 Q2060.1075,1539.1901 2060.1075,1540.2839 Q2060.1075,1541.7214 2060.545,1542.7682 Q2060.9981,1543.8151 2061.8419,1544.362 Q2062.7013,1544.9089 2064.0138,1544.9089 Q2064.795,1544.9089 2065.4825,1544.7839 Q2066.1856,1544.6432 2067.1856,1544.3307 L2067.1856,1546.2057 Q2066.3263,1546.5339 2065.5606,1546.6589 Q2064.8106,1546.7839 2063.795,1546.7839 Q2061.8731,1546.7839 2060.5606,1545.987 Q2059.2638,1545.1745 2058.6075,1543.7057 Q2057.9513,1542.2214 2057.9513,1540.2526 Q2057.9513,1538.8307 2058.3419,1537.6589 Q2058.7481,1536.4714 2059.5294,1535.5964 Q2060.3106,1534.7214 2061.4513,1534.2526 Q2062.5919,1533.7682 2064.0606,1533.7682 Q2065.0138,1533.7682 2065.9044,1533.9714 Q2066.8106,1534.1589 2067.7481,1534.6276 L2066.92,1536.4089 Q2066.1388,1536.0339 2065.4825,1535.8464 Q2064.8263,1535.6432 2064.0294,1535.6432 Z " fill="#000000"/><text fill="#000000" font-family="sans-serif" font-size="14" lengthAdjust="spacing" textLength="42.1538" x="2077.92" y="1545.544">Server</text><line style="stroke:#181818;stroke-width:0.5;" x1="2049.92" x2="2122.0738" y1="1556.112" y2="1556.112"/><line style="stroke:#181818;stroke-width:0.5;" x1="2049.92" x2="2122.0738" y1="1564.112" y2="1564.112"/></g><!--class Firewall--><g class="entity" data-entity="Firewall" data-source-line="59" data-uid="ent0012" id="entity_Firewall"><rect fill="#F1F1F1" height="48" rx="2.5" ry="2.5" style="stroke:#181818;stroke-width:0.5;" width="82.6378" x="2157.68" y="1524.112"/><ellipse cx="2172.68" cy="1540.112" fill="#ADD1B2" rx="11" ry="11" style="stroke:#181818;stroke-width:1;"/><path d="M2172.7894,1535.6432 Q2171.8675,1535.6432 2171.1331,1535.9557 Q2170.4144,1536.2682 2169.9144,1536.862 Q2169.4144,1537.4401 2169.1331,1538.3151 Q2168.8675,1539.1901 2168.8675,1540.2839 Q2168.8675,1541.7214 2169.305,1542.7682 Q2169.7581,1543.8151 2170.6019,1544.362 Q2171.4613,1544.9089 2172.7738,1544.9089 Q2173.555,1544.9089 2174.2425,1544.7839 Q2174.9456,1544.6432 2175.9456,1544.3307 L2175.9456,1546.2057 Q2175.0863,1546.5339 2174.3206,1546.6589 Q2173.5706,1546.7839 2172.555,1546.7839 Q2170.6331,1546.7839 2169.3206,1545.987 Q2168.0238,1545.1745 2167.3675,1543.7057 Q2166.7113,1542.2214 2166.7113,1540.2526 Q2166.7113,1538.8307 2167.1019,1537.6589 Q2167.5081,1536.4714 2168.2894,1535.5964 Q2169.0706,1534.7214 2170.2113,1534.2526 Q2171.3519,1533.7682 2172.8206,1533.7682 Q2173.7738,1533.7682 2174.6644,1533.9714 Q2175.5706,1534.1589 2176.5081,1534.6276 L2175.68,1536.4089 Q2174.8988,1536.0339 2174.2425,1535.8464 Q2173.5863,1535.6432 2172.7894,1535.6432 Z " fill="#000000"/><text fill="#000000" font-family="sans-serif" font-size="14" lengthAdjust="spacing" textLength="50.6378" x="2186.68" y="1545.544">Firewall</text><line style="stroke:#181818;stroke-width:0.5;" x1="2158.68" x2="2239.3178" y1="1556.112" y2="1556.112"/><line style="stroke:#181818;stroke-width:0.5;" x1="2158.68" x2="2239.3178" y1="1564.112" y2="1564.112"/></g><!--class Goal--><g class="entity" data-entity="Goal" data-source-line="62" data-uid="ent0013" id="entity_Goal"><rect fill="#F1F1F1" height="48" rx="2.5" ry="2.5" style="stroke:#181818;stroke-width:0.5;" width="62.1279" x="2274.94" y="1524.112"/><ellipse cx="2289.94" cy="1540.112" fill="#ADD1B2" rx="11" ry="11" style="stroke:#181818;stroke-width:1;"/><path d="M2290.0494,1535.6432 Q2289.1275,1535.6432 2288.3931,1535.9557 Q2287.6744,1536.2682 2287.1744,1536.862 Q2286.6744,1537.4401 2286.3931,1538.3151 Q2286.1275,1539.1901 2286.1275,1540.2839 Q2286.1275,1541.7214 2286.565,1542.7682 Q2287.0181,1543.8151 2287.8619,1544.362 Q2288.7213,1544.9089 2290.0338,1544.9089 Q2290.815,1544.9089 2291.5025,1544.7839 Q2292.2056,1544.6432 2293.2056,1544.3307 L2293.2056,1546.2057 Q2292.3463,1546.5339 2291.5806,1546.6589 Q2290.8306,1546.7839 2289.815,1546.7839 Q2287.8931,1546.7839 2286.5806,1545.987 Q2285.2838,1545.1745 2284.6275,1543.7057 Q2283.9713,1542.2214 2283.9713,1540.2526 Q2283.9713,1538.8307 2284.3619,1537.6589 Q2284.7681,1536.4714 2285.5494,1535.5964 Q2286.3306,1534.7214 2287.4713,1534.2526 Q2288.6119,1533.7682 2290.0806,1533.7682 Q2291.0338,1533.7682 2291.9244,1533.9714 Q2292.8306,1534.1589 2293.7681,1534.6276 L2292.94,1536.4089 Q2292.1588,1536.0339 2291.5025,1535.8464 Q2290.8463,1535.6432 2290.0494,1535.6432 Z " fill="#000000"/><text fill="#000000" font-family="sans-serif" font-size="14" lengthAdjust="spacing" textLength="30.1279" x="2303.94" y="1545.544">Goal</text><line style="stroke:#181818;stroke-width:0.5;" x1="2275.94" x2="2336.0679" y1="1556.112" y2="1556.112"/><line style="stroke:#181818;stroke-width:0.5;" x1="2275.94" x2="2336.0679" y1="1564.112" y2="1564.112"/></g><!--class Player--><g class="entity" data-entity="Player" data-source-line="65" data-uid="ent0014" id="entity_Player"><rect fill="#F1F1F1" height="200.5433" rx="2.5" ry="2.5" style="stroke:#181818;stroke-width:0.5;" width="216.6093" x="1763.7" y="583.682"/><ellipse cx="1847.3777" cy="599.682" fill="#ADD1B2" rx="11" ry="11" style="stroke:#181818;stroke-width:1;"/><path d="M1847.4871,595.2132 Q1846.5652,595.2132 1845.8308,595.5257 Q1845.1121,595.8382 1844.6121,596.432 Q1844.1121,597.0101 1843.8308,597.8851 Q1843.5652,598.7601 1843.5652,599.8539 Q1843.5652,601.2914 1844.0027,602.3382 Q1844.4558,603.3851 1845.2996,603.932 Q1846.159,604.4789 1847.4715,604.4789 Q1848.2527,604.4789 1848.9402,604.3539 Q1849.6433,604.2132 1850.6433,603.9007 L1850.6433,605.7757 Q1849.784,606.1039 1849.0183,606.2289 Q1848.2683,606.3539 1847.2527,606.3539 Q1845.3308,606.3539 1844.0183,605.557 Q1842.7215,604.7445 1842.0652,603.2757 Q1841.409,601.7914 1841.409,599.8226 Q1841.409,598.4007 1841.7996,597.2289 Q1842.2058,596.0414 1842.9871,595.1664 Q1843.7683,594.2914 1844.909,593.8226 Q1846.0496,593.3382 1847.5183,593.3382 Q1848.4715,593.3382 1849.3621,593.5414 Q1850.2683,593.7289 1851.2058,594.1976 L1850.3777,595.9789 Q1849.5965,595.6039 1848.9402,595.4164 Q1848.284,595.2132 1847.4871,595.2132 Z " fill="#000000"/><text fill="#000000" font-family="sans-serif" font-size="14" lengthAdjust="spacing" textLength="40.7538" x="1867.8777" y="605.114">Player</text><line style="stroke:#181818;stroke-width:0.5;" x1="1764.7" x2="1979.3093" y1="615.682" y2="615.682"/><rect fill="none" height="6" style="stroke:#C82930;stroke-width:1;" width="6" x="1771.7" y="627.7159"/><text fill="#000000" font-family="sans-serif" font-size="14" lengthAdjust="spacing" textLength="145.6554" x="1783.7" y="634.6479">pair&lt;int, int&gt; getScore</text><rect fill="none" height="6" style="stroke:#C82930;stroke-width:1;" width="6" x="1771.7" y="646.7839"/><text fill="#000000" font-family="sans-serif" font-size="14" lengthAdjust="spacing" textLength="159.5574" x="1783.7" y="653.7158">vector&lt;Ability*&gt; abilities</text><rect fill="none" height="6" style="stroke:#C82930;stroke-width:1;" width="6" x="1771.7" y="665.8518"/><text fill="#000000" font-family="sans-serif" font-size="14" lengthAdjust="spacing" textLength="125.5375" x="1783.7" y="672.7838">vector&lt;Link*&gt; links</text><line style="stroke:#181818;stroke-width:0.5;" x1="1764.7" x2="1979.3093" y1="680.8857" y2="680.8857"/><ellipse cx="1774.7" cy="695.9197" fill="#84BE84" rx="3" ry="3" style="stroke:#038048;stroke-width:1;"/><text fill="#000000" font-family="sans-serif" font-size="14" lengthAdjust="spacing" textLength="154.0554" x="1783.7" y="699.8517">pair&lt;int, int&gt; getScore()</text><ellipse cx="1774.7" cy="714.9876" fill="#84BE84" rx="3" ry="3" style="stroke:#038048;stroke-width:1;"/><text fill="#000000" font-family="sans-serif" font-size="14" lengthAdjust="spacing" textLength="190.6093" x="1783.7" y="718.9196">vector&lt;Ability*&gt; getAbilities()</text><ellipse cx="1774.7" cy="734.0555" fill="#84BE84" rx="3" ry="3" style="stroke:#038048;stroke-width:1;"/><text fill="#000000" font-family="sans-serif" font-size="14" lengthAdjust="spacing" textLength="166.9073" x="1783.7" y="737.9875">void download(Link* link)</text><ellipse cx="1774.7" cy="753.1234" fill="#84BE84" rx="3" ry="3" style="stroke:#038048;stroke-width:1;"/><text fill="#000000" font-family="sans-serif" font-size="14" lengthAdjust="spacing" textLength="169.6653" x="1783.7" y="757.0554">void deleteLink(Link* link)</text><ellipse cx="1774.7" cy="772.1914" fill="#84BE84" rx="3" ry="3" style="stroke:#038048;stroke-width:1;"/><text fill="#000000" font-family="sans-serif" font-size="14" lengthAdjust="spacing" textLength="151.4654" x="1783.7" y="776.1233">Link* getLink(char link)</text></g><!--class Link--><g class="entity" data-entity="Link" data-source-line="77" data-uid="ent0015" id="entity_Link"><rect fill="#F1F1F1" height="181.4754" rx="2.5" ry="2.5" style="stroke:#181818;stroke-width:0.5;" width="294.365" x="1176.82" y="844.232"/><ellipse cx="1307.0825" cy="860.232" fill="#A9DCDF" rx="11" ry="11" style="stroke:#181818;stroke-width:1;"/><path d="M1310.4263,865.482 L1308.9575,861.732 L1304.52,861.732 L1303.0825,865.482 L1300.9575,865.482 L1305.9107,852.7632 L1307.6607,852.7632 L1312.5825,865.482 L1310.4263,865.482 Z M1307.0825,856.5289 Q1307.0357,856.3726 1306.9107,856.0132 Q1306.7857,855.6539 1306.6763,855.2789 Q1306.5669,854.8882 1306.77,854.8257 Q1306.9263,855.0132 1306.8325,855.3726 Q1306.7388,855.7164 1306.645,856.0132 Q1306.5513,856.2945 1306.4732,856.5289 L1305.2388,859.8414 L1308.3169,859.8414 L1307.0825,856.5289 Z " fill="#000000"/><text fill="#000000" font-family="sans-serif" font-size="14" font-style="italic" lengthAdjust="spacing" textLength="25.3399" x="1327.5825" y="865.664">Link</text><line style="stroke:#181818;stroke-width:0.5;" x1="1177.82" x2="1470.185" y1="876.232" y2="876.232"/><rect fill="none" height="6" style="stroke:#C82930;stroke-width:1;" width="6" x="1184.82" y="888.2659"/><text fill="#000000" font-family="sans-serif" font-size="14" lengthAdjust="spacing" textLength="132.2995" x="1196.82" y="895.1979">pair&lt;int, int&gt; coords</text><rect fill="none" height="6" style="stroke:#C82930;stroke-width:1;" width="6" x="1184.82" y="907.3339"/><text fill="#000000" font-family="sans-serif" font-size="14" lengthAdjust="spacing" textLength="77.3637" x="1196.82" y="914.2658">int strength</text><line style="stroke:#181818;stroke-width:0.5;" x1="1177.82" x2="1470.185" y1="922.3678" y2="922.3678"/><ellipse cx="1187.82" cy="937.4018" fill="#84BE84" rx="3" ry="3" style="stroke:#038048;stroke-width:1;"/><text fill="#000000" font-family="sans-serif" font-size="14" lengthAdjust="spacing" textLength="164.3874" x="1196.82" y="941.3338">pair&lt;int, int&gt; getCoords()</text><ellipse cx="1187.82" cy="956.4697" fill="#84BE84" rx="3" ry="3" style="stroke:#038048;stroke-width:1;"/><text fill="#000000" font-family="sans-serif" font-size="14" lengthAdjust="spacing" textLength="268.365" x="1196.82" y="960.4017">void setCoords(pair&lt;int, int&gt; newCoords)</text><ellipse cx="1187.82" cy="975.5376" fill="#84BE84" rx="3" ry="3" style="stroke:#038048;stroke-width:1;"/><text fill="#000000" font-family="sans-serif" font-size="14" lengthAdjust="spacing" textLength="208.2772" x="1196.82" y="979.4696">void requestMove(Direction dir)</text><ellipse cx="1187.82" cy="994.6055" fill="#84BE84" rx="3" ry="3" style="stroke:#038048;stroke-width:1;"/><text fill="#000000" font-family="sans-serif" font-size="14" lengthAdjust="spacing" textLength="108.3036" x="1196.82" y="998.5375">int getStrength()</text><ellipse cx="1187.82" cy="1013.6734" fill="#84BE84" rx="3" ry="3" style="stroke:#038048;stroke-width:1;"/><text fill="#000000" font-family="sans-serif" font-size="14" lengthAdjust="spacing" textLength="123.5355" x="1196.82" y="1017.6054">LinkType getType()</text></g><!--class VirusLink--><g class="entity" data-entity="VirusLink" data-source-line="88" data-uid="ent0016" id="entity_VirusLink"><rect fill="#F1F1F1" height="48" rx="2.5" ry="2.5" style="stroke:#181818;stroke-width:0.5;" width="92.2278" x="1214.89" y="1104.772"/><ellipse cx="1229.89" cy="1120.772" fill="#ADD1B2" rx="11" ry="11" style="stroke:#181818;stroke-width:1;"/><path d="M1229.9994,1116.3032 Q1229.0775,1116.3032 1228.3431,1116.6157 Q1227.6244,1116.9282 1227.1244,1117.522 Q1226.6244,1118.1001 1226.3431,1118.9751 Q1226.0775,1119.8501 1226.0775,1120.9439 Q1226.0775,1122.3814 1226.515,1123.4282 Q1226.9681,1124.4751 1227.8119,1125.022 Q1228.6713,1125.5689 1229.9838,1125.5689 Q1230.765,1125.5689 1231.4525,1125.4439 Q1232.1556,1125.3032 1233.1556,1124.9907 L1233.1556,1126.8657 Q1232.2963,1127.1939 1231.5306,1127.3189 Q1230.7806,1127.4439 1229.765,1127.4439 Q1227.8431,1127.4439 1226.5306,1126.647 Q1225.2338,1125.8345 1224.5775,1124.3657 Q1223.9213,1122.8814 1223.9213,1120.9126 Q1223.9213,1119.4907 1224.3119,1118.3189 Q1224.7181,1117.1314 1225.4994,1116.2564 Q1226.2806,1115.3814 1227.4213,1114.9126 Q1228.5619,1114.4282 1230.0306,1114.4282 Q1230.9838,1114.4282 1231.8744,1114.6314 Q1232.7806,1114.8189 1233.7181,1115.2876 L1232.89,1117.0689 Q1232.1088,1116.6939 1231.4525,1116.5064 Q1230.7963,1116.3032 1229.9994,1116.3032 Z " fill="#000000"/><text fill="#000000" font-family="sans-serif" font-size="14" lengthAdjust="spacing" textLength="60.2278" x="1243.89" y="1126.204">VirusLink</text><line style="stroke:#181818;stroke-width:0.5;" x1="1215.89" x2="1306.1178" y1="1136.772" y2="1136.772"/><line style="stroke:#181818;stroke-width:0.5;" x1="1215.89" x2="1306.1178" y1="1144.772" y2="1144.772"/></g><!--class DataLink--><g class="entity" data-entity="DataLink" data-source-line="91" data-uid="ent0017" id="entity_DataLink"><rect fill="#F1F1F1" height="48" rx="2.5" ry="2.5" style="stroke:#181818;stroke-width:0.5;" width="90.0578" x="1341.97" y="1104.772"/><ellipse cx="1356.97" cy="1120.772" fill="#ADD1B2" rx="11" ry="11" style="stroke:#181818;stroke-width:1;"/><path d="M1357.0794,1116.3032 Q1356.1575,1116.3032 1355.4231,1116.6157 Q1354.7044,1116.9282 1354.2044,1117.522 Q1353.7044,1118.1001 1353.4231,1118.9751 Q1353.1575,1119.8501 1353.1575,1120.9439 Q1353.1575,1122.3814 1353.595,1123.4282 Q1354.0481,1124.4751 1354.8919,1125.022 Q1355.7513,1125.5689 1357.0638,1125.5689 Q1357.845,1125.5689 1358.5325,1125.4439 Q1359.2356,1125.3032 1360.2356,1124.9907 L1360.2356,1126.8657 Q1359.3763,1127.1939 1358.6106,1127.3189 Q1357.8606,1127.4439 1356.845,1127.4439 Q1354.9231,1127.4439 1353.6106,1126.647 Q1352.3138,1125.8345 1351.6575,1124.3657 Q1351.0013,1122.8814 1351.0013,1120.9126 Q1351.0013,1119.4907 1351.3919,1118.3189 Q1351.7981,1117.1314 1352.5794,1116.2564 Q1353.3606,1115.3814 1354.5013,1114.9126 Q1355.6419,1114.4282 1357.1106,1114.4282 Q1358.0638,1114.4282 1358.9544,1114.6314 Q1359.8606,1114.8189 1360.7981,1115.2876 L1359.97,1117.0689 Q1359.1888,1116.6939 1358.5325,1116.5064 Q1357.8763,1116.3032 1357.0794,1116.3032 Z " fill="#000000"/><text fill="#000000" font-family="sans-serif" font-size="14" lengthAdjust="spacing" textLength="58.0578" x="1370.97" y="1126.204">DataLink</text><line style="stroke:#181818;stroke-width:0.5;" x1="1342.97" x2="1431.0278" y1="1136.772" y2="1136.772"/><line style="stroke:#181818;stroke-width:0.5;" x1="1342.97" x2="1431.0278" y1="1144.772" y2="1144.772"/></g><!--class LinkDecorator--><g class="entity" data-entity="LinkDecorator" data-source-line="94" data-uid="ent0018" id="entity_LinkDecorator"><rect fill="#F1F1F1" height="67.0679" rx="2.5" ry="2.5" style="stroke:#181818;stroke-width:0.5;" width="119.5137" x="1060.24" y="1095.242"/><ellipse cx="1075.24" cy="1111.242" fill="#A9DCDF" rx="11" ry="11" style="stroke:#181818;stroke-width:1;"/><path d="M1078.5838,1116.492 L1077.115,1112.742 L1072.6775,1112.742 L1071.24,1116.492 L1069.115,1116.492 L1074.0681,1103.7732 L1075.8181,1103.7732 L1080.74,1116.492 L1078.5838,1116.492 Z M1075.24,1107.5389 Q1075.1931,1107.3826 1075.0681,1107.0232 Q1074.9431,1106.6639 1074.8338,1106.2889 Q1074.7244,1105.8982 1074.9275,1105.8357 Q1075.0838,1106.0232 1074.99,1106.3826 Q1074.8963,1106.7264 1074.8025,1107.0232 Q1074.7088,1107.3045 1074.6306,1107.5389 L1073.3963,1110.8514 L1076.4744,1110.8514 L1075.24,1107.5389 Z " fill="#000000"/><text fill="#000000" font-family="sans-serif" font-size="14" font-style="italic" lengthAdjust="spacing" textLength="87.5137" x="1089.24" y="1116.674">LinkDecorator</text><line style="stroke:#181818;stroke-width:0.5;" x1="1061.24" x2="1178.7537" y1="1127.242" y2="1127.242"/><polygon fill="none" points="1071.24,1137.2759,1075.24,1141.2759,1071.24,1145.2759,1067.24,1141.2759" style="stroke:#B38D22;stroke-width:1;"/><text fill="#000000" font-family="sans-serif" font-size="14" lengthAdjust="spacing" textLength="69.4957" x="1080.24" y="1146.2079">Link* base</text><line style="stroke:#181818;stroke-width:0.5;" x1="1061.24" x2="1178.7537" y1="1154.3099" y2="1154.3099"/></g><!--class LinkBoostDecorator--><g class="entity" data-entity="LinkBoostDecorator" data-source-line="98" data-uid="ent0019" id="entity_LinkBoostDecorator"><rect fill="#F1F1F1" height="48" rx="2.5" ry="2.5" style="stroke:#181818;stroke-width:0.5;" width="163.1235" x="1060.44" y="1250.912"/><ellipse cx="1075.44" cy="1266.912" fill="#ADD1B2" rx="11" ry="11" style="stroke:#181818;stroke-width:1;"/><path d="M1075.5494,1262.4432 Q1074.6275,1262.4432 1073.8931,1262.7557 Q1073.1744,1263.0682 1072.6744,1263.662 Q1072.1744,1264.2401 1071.8931,1265.1151 Q1071.6275,1265.9901 1071.6275,1267.0839 Q1071.6275,1268.5214 1072.065,1269.5682 Q1072.5181,1270.6151 1073.3619,1271.162 Q1074.2213,1271.7089 1075.5338,1271.7089 Q1076.315,1271.7089 1077.0025,1271.5839 Q1077.7056,1271.4432 1078.7056,1271.1307 L1078.7056,1273.0057 Q1077.8463,1273.3339 1077.0806,1273.4589 Q1076.3306,1273.5839 1075.315,1273.5839 Q1073.3931,1273.5839 1072.0806,1272.787 Q1070.7838,1271.9745 1070.1275,1270.5057 Q1069.4713,1269.0214 1069.4713,1267.0526 Q1069.4713,1265.6307 1069.8619,1264.4589 Q1070.2681,1263.2714 1071.0494,1262.3964 Q1071.8306,1261.5214 1072.9713,1261.0526 Q1074.1119,1260.5682 1075.5806,1260.5682 Q1076.5338,1260.5682 1077.4244,1260.7714 Q1078.3306,1260.9589 1079.2681,1261.4276 L1078.44,1263.2089 Q1077.6588,1262.8339 1077.0025,1262.6464 Q1076.3463,1262.4432 1075.5494,1262.4432 Z " fill="#000000"/><text fill="#000000" font-family="sans-serif" font-size="14" lengthAdjust="spacing" textLength="131.1235" x="1089.44" y="1272.344">LinkBoostDecorator</text><line style="stroke:#181818;stroke-width:0.5;" x1="1061.44" x2="1222.5635" y1="1282.912" y2="1282.912"/><line style="stroke:#181818;stroke-width:0.5;" x1="1061.44" x2="1222.5635" y1="1290.912" y2="1290.912"/></g><!--class PolarizeDecorator--><g class="entity" data-entity="PolarizeDecorator" data-source-line="101" data-uid="ent0020" id="entity_PolarizeDecorator"><rect fill="#F1F1F1" height="48" rx="2.5" ry="2.5" style="stroke:#181818;stroke-width:0.5;" width="150.5236" x="1258.74" y="1250.912"/><ellipse cx="1273.74" cy="1266.912" fill="#ADD1B2" rx="11" ry="11" style="stroke:#181818;stroke-width:1;"/><path d="M1273.8494,1262.4432 Q1272.9275,1262.4432 1272.1931,1262.7557 Q1271.4744,1263.0682 1270.9744,1263.662 Q1270.4744,1264.2401 1270.1931,1265.1151 Q1269.9275,1265.9901 1269.9275,1267.0839 Q1269.9275,1268.5214 1270.365,1269.5682 Q1270.8181,1270.6151 1271.6619,1271.162 Q1272.5213,1271.7089 1273.8338,1271.7089 Q1274.615,1271.7089 1275.3025,1271.5839 Q1276.0056,1271.4432 1277.0056,1271.1307 L1277.0056,1273.0057 Q1276.1463,1273.3339 1275.3806,1273.4589 Q1274.6306,1273.5839 1273.615,1273.5839 Q1271.6931,1273.5839 1270.3806,1272.787 Q1269.0838,1271.9745 1268.4275,1270.5057 Q1267.7713,1269.0214 1267.7713,1267.0526 Q1267.7713,1265.6307 1268.1619,1264.4589 Q1268.5681,1263.2714 1269.3494,1262.3964 Q1270.1306,1261.5214 1271.2713,1261.0526 Q1272.4119,1260.5682 1273.8806,1260.5682 Q1274.8338,1260.5682 1275.7244,1260.7714 Q1276.6306,1260.9589 1277.5681,1261.4276 L1276.74,1263.2089 Q1275.9588,1262.8339 1275.3025,1262.6464 Q1274.6463,1262.4432 1273.8494,1262.4432 Z " fill="#000000"/><text fill="#000000" font-family="sans-serif" font-size="14" lengthAdjust="spacing" textLength="118.5236" x="1287.74" y="1272.344">PolarizeDecorator</text><line style="stroke:#181818;stroke-width:0.5;" x1="1259.74" x2="1408.2636" y1="1282.912" y2="1282.912"/><line style="stroke:#181818;stroke-width:0.5;" x1="1259.74" x2="1408.2636" y1="1290.912" y2="1290.912"/></g><!--class RevealDecorator--><g class="entity" data-entity="RevealDecorator" data-source-line="104" data-uid="ent0021" id="entity_RevealDecorator"><rect fill="#F1F1F1" height="48" rx="2.5" ry="2.5" style="stroke:#181818;stroke-width:0.5;" width="141.3256" x="1444.34" y="1250.912"/><ellipse cx="1459.34" cy="1266.912" fill="#ADD1B2" rx="11" ry="11" style="stroke:#181818;stroke-width:1;"/><path d="M1459.4494,1262.4432 Q1458.5275,1262.4432 1457.7931,1262.7557 Q1457.0744,1263.0682 1456.5744,1263.662 Q1456.0744,1264.2401 1455.7931,1265.1151 Q1455.5275,1265.9901 1455.5275,1267.0839 Q1455.5275,1268.5214 1455.965,1269.5682 Q1456.4181,1270.6151 1457.2619,1271.162 Q1458.1213,1271.7089 1459.4338,1271.7089 Q1460.215,1271.7089 1460.9025,1271.5839 Q1461.6056,1271.4432 1462.6056,1271.1307 L1462.6056,1273.0057 Q1461.7463,1273.3339 1460.9806,1273.4589 Q1460.2306,1273.5839 1459.215,1273.5839 Q1457.2931,1273.5839 1455.9806,1272.787 Q1454.6838,1271.9745 1454.0275,1270.5057 Q1453.3713,1269.0214 1453.3713,1267.0526 Q1453.3713,1265.6307 1453.7619,1264.4589 Q1454.1681,1263.2714 1454.9494,1262.3964 Q1455.7306,1261.5214 1456.8713,1261.0526 Q1458.0119,1260.5682 1459.4806,1260.5682 Q1460.4338,1260.5682 1461.3244,1260.7714 Q1462.2306,1260.9589 1463.1681,1261.4276 L1462.34,1263.2089 Q1461.5588,1262.8339 1460.9025,1262.6464 Q1460.2463,1262.4432 1459.4494,1262.4432 Z " fill="#000000"/><text fill="#000000" font-family="sans-serif" font-size="14" lengthAdjust="spacing" textLength="109.3256" x="1473.34" y="1272.344">RevealDecorator</text><line style="stroke:#181818;stroke-width:0.5;" x1="1445.34" x2="1584.6656" y1="1282.912" y2="1282.912"/><line style="stroke:#181818;stroke-width:0.5;" x1="1445.34" x2="1584.6656" y1="1290.912" y2="1290.912"/></g><!--class LagDecorator--><g class="entity" data-entity="LagDecorator" data-source-line="107" data-uid="ent0022" id="entity_LagDecorator"><rect fill="#F1F1F1" height="67.0679" rx="2.5" ry="2.5" style="stroke:#181818;stroke-width:0.5;" width="122.0477" x="1620.98" y="1241.372"/><ellipse cx="1635.98" cy="1257.372" fill="#ADD1B2" rx="11" ry="11" style="stroke:#181818;stroke-width:1;"/><path d="M1636.0894,1252.9032 Q1635.1675,1252.9032 1634.4331,1253.2157 Q1633.7144,1253.5282 1633.2144,1254.122 Q1632.7144,1254.7001 1632.4331,1255.5751 Q1632.1675,1256.4501 1632.1675,1257.5439 Q1632.1675,1258.9814 1632.605,1260.0282 Q1633.0581,1261.0751 1633.9019,1261.622 Q1634.7613,1262.1689 1636.0738,1262.1689 Q1636.855,1262.1689 1637.5425,1262.0439 Q1638.2456,1261.9032 1639.2456,1261.5907 L1639.2456,1263.4657 Q1638.3863,1263.7939 1637.6206,1263.9189 Q1636.8706,1264.0439 1635.855,1264.0439 Q1633.9331,1264.0439 1632.6206,1263.247 Q1631.3238,1262.4345 1630.6675,1260.9657 Q1630.0113,1259.4814 1630.0113,1257.5126 Q1630.0113,1256.0907 1630.4019,1254.9189 Q1630.8081,1253.7314 1631.5894,1252.8564 Q1632.3706,1251.9814 1633.5113,1251.5126 Q1634.6519,1251.0282 1636.1206,1251.0282 Q1637.0738,1251.0282 1637.9644,1251.2314 Q1638.8706,1251.4189 1639.8081,1251.8876 L1638.98,1253.6689 Q1638.1988,1253.2939 1637.5425,1253.1064 Q1636.8863,1252.9032 1636.0894,1252.9032 Z " fill="#000000"/><text fill="#000000" font-family="sans-serif" font-size="14" lengthAdjust="spacing" textLength="90.0477" x="1649.98" y="1262.804">LagDecorator</text><line style="stroke:#181818;stroke-width:0.5;" x1="1621.98" x2="1742.0277" y1="1273.372" y2="1273.372"/><rect fill="none" height="6" style="stroke:#C82930;stroke-width:1;" width="6" x="1628.98" y="1285.4059"/><text fill="#000000" font-family="sans-serif" font-size="14" lengthAdjust="spacing" textLength="80.9057" x="1640.98" y="1292.3379">int turnsLeft</text><line style="stroke:#181818;stroke-width:0.5;" x1="1621.98" x2="1742.0277" y1="1300.4399" y2="1300.4399"/></g><!--class QuantumEntanglementDecorator--><g class="entity" data-entity="QuantumEntanglementDecorator" data-source-line="111" data-uid="ent0023" id="entity_QuantumEntanglementDecorator"><rect fill="#F1F1F1" height="67.0679" rx="2.5" ry="2.5" style="stroke:#181818;stroke-width:0.5;" width="253.9411" x="1778.03" y="1241.372"/><ellipse cx="1793.03" cy="1257.372" fill="#ADD1B2" rx="11" ry="11" style="stroke:#181818;stroke-width:1;"/><path d="M1793.1394,1252.9032 Q1792.2175,1252.9032 1791.4831,1253.2157 Q1790.7644,1253.5282 1790.2644,1254.122 Q1789.7644,1254.7001 1789.4831,1255.5751 Q1789.2175,1256.4501 1789.2175,1257.5439 Q1789.2175,1258.9814 1789.655,1260.0282 Q1790.1081,1261.0751 1790.9519,1261.622 Q1791.8113,1262.1689 1793.1238,1262.1689 Q1793.905,1262.1689 1794.5925,1262.0439 Q1795.2956,1261.9032 1796.2956,1261.5907 L1796.2956,1263.4657 Q1795.4363,1263.7939 1794.6706,1263.9189 Q1793.9206,1264.0439 1792.905,1264.0439 Q1790.9831,1264.0439 1789.6706,1263.247 Q1788.3738,1262.4345 1787.7175,1260.9657 Q1787.0613,1259.4814 1787.0613,1257.5126 Q1787.0613,1256.0907 1787.4519,1254.9189 Q1787.8581,1253.7314 1788.6394,1252.8564 Q1789.4206,1251.9814 1790.5613,1251.5126 Q1791.7019,1251.0282 1793.1706,1251.0282 Q1794.1238,1251.0282 1795.0144,1251.2314 Q1795.9206,1251.4189 1796.8581,1251.8876 L1796.03,1253.6689 Q1795.2488,1253.2939 1794.5925,1253.1064 Q1793.9363,1252.9032 1793.1394,1252.9032 Z " fill="#000000"/><text fill="#000000" font-family="sans-serif" font-size="14" lengthAdjust="spacing" textLength="221.9411" x="1807.03" y="1262.804">QuantumEntanglementDecorator</text><line style="stroke:#181818;stroke-width:0.5;" x1="1779.03" x2="2030.9711" y1="1273.372" y2="1273.372"/><rect fill="none" height="6" style="stroke:#C82930;stroke-width:1;" width="6" x="1786.03" y="1285.4059"/><text fill="#000000" font-family="sans-serif" font-size="14" lengthAdjust="spacing" textLength="88.0597" x="1798.03" y="1292.3379">Link* partner</text><line style="stroke:#181818;stroke-width:0.5;" x1="1779.03" x2="2030.9711" y1="1300.4399" y2="1300.4399"/></g><!--class Ability--><g class="entity" data-entity="Ability" data-source-line="115" data-uid="ent0024" id="entity_Ability"><rect fill="#F1F1F1" height="162.4075" rx="2.5" ry="2.5" style="stroke:#181818;stroke-width:0.5;" width="137.4956" x="2280.25" y="853.762"/><ellipse cx="2325.7499" cy="869.762" fill="#A9DCDF" rx="11" ry="11" style="stroke:#181818;stroke-width:1;"/><path d="M2329.0936,875.012 L2327.6249,871.262 L2323.1874,871.262 L2321.7499,875.012 L2319.6249,875.012 L2324.578,862.2932 L2326.328,862.2932 L2331.2499,875.012 L2329.0936,875.012 Z M2325.7499,866.0589 Q2325.703,865.9026 2325.578,865.5432 Q2325.453,865.1839 2325.3436,864.8089 Q2325.2342,864.4182 2325.4374,864.3557 Q2325.5936,864.5432 2325.4999,864.9026 Q2325.4061,865.2464 2325.3124,865.5432 Q2325.2186,865.8245 2325.1405,866.0589 L2323.9061,869.3714 L2326.9842,869.3714 L2325.7499,866.0589 Z " fill="#000000"/><text fill="#000000" font-family="sans-serif" font-size="14" font-style="italic" lengthAdjust="spacing" textLength="37.9958" x="2346.2499" y="875.194">Ability</text><line style="stroke:#181818;stroke-width:0.5;" x1="2281.25" x2="2416.7456" y1="885.762" y2="885.762"/><rect fill="none" height="6" style="stroke:#C82930;stroke-width:1;" width="6" x="2288.25" y="897.7959"/><text fill="#000000" font-family="sans-serif" font-size="14" lengthAdjust="spacing" textLength="79.5477" x="2300.25" y="904.7279">string name</text><rect fill="none" height="6" style="stroke:#C82930;stroke-width:1;" width="6" x="2288.25" y="916.8639"/><text fill="#000000" font-family="sans-serif" font-size="14" lengthAdjust="spacing" textLength="64.6658" x="2300.25" y="923.7958">bool used</text><line style="stroke:#181818;stroke-width:0.5;" x1="2281.25" x2="2416.7456" y1="931.8978" y2="931.8978"/><ellipse cx="2291.25" cy="946.9318" fill="#84BE84" rx="3" ry="3" style="stroke:#038048;stroke-width:1;"/><text fill="#000000" font-family="sans-serif" font-size="14" lengthAdjust="spacing" textLength="63.0977" x="2300.25" y="950.8638">void use()</text><ellipse cx="2291.25" cy="965.9997" fill="#84BE84" rx="3" ry="3" style="stroke:#038048;stroke-width:1;"/><text fill="#000000" font-family="sans-serif" font-size="14" lengthAdjust="spacing" textLength="84.9657" x="2300.25" y="969.9317">bool isUsed()</text><ellipse cx="2291.25" cy="985.0676" fill="#84BE84" rx="3" ry="3" style="stroke:#038048;stroke-width:1;"/><text fill="#000000" font-family="sans-serif" font-size="14" lengthAdjust="spacing" textLength="107.4916" x="2300.25" y="988.9996">void markUsed()</text><ellipse cx="2291.25" cy="1004.1355" fill="#84BE84" rx="3" ry="3" style="stroke:#038048;stroke-width:1;"/><text fill="#000000" font-family="sans-serif" font-size="14" lengthAdjust="spacing" textLength="111.4956" x="2300.25" y="1008.0675">string getName()</text></g><!--class FirewallAbility--><g class="entity" data-entity="FirewallAbility" data-source-line="125" data-uid="ent0025" id="entity_FirewallAbility"><rect fill="#F1F1F1" height="48" rx="2.5" ry="2.5" style="stroke:#181818;stroke-width:0.5;" width="123.2236" x="2766.39" y="1104.772"/><ellipse cx="2781.39" cy="1120.772" fill="#ADD1B2" rx="11" ry="11" style="stroke:#181818;stroke-width:1;"/><path d="M2781.4994,1116.3032 Q2780.5775,1116.3032 2779.8431,1116.6157 Q2779.1244,1116.9282 2778.6244,1117.522 Q2778.1244,1118.1001 2777.8431,1118.9751 Q2777.5775,1119.8501 2777.5775,1120.9439 Q2777.5775,1122.3814 2778.015,1123.4282 Q2778.4681,1124.4751 2779.3119,1125.022 Q2780.1713,1125.5689 2781.4838,1125.5689 Q2782.265,1125.5689 2782.9525,1125.4439 Q2783.6556,1125.3032 2784.6556,1124.9907 L2784.6556,1126.8657 Q2783.7963,1127.1939 2783.0306,1127.3189 Q2782.2806,1127.4439 2781.265,1127.4439 Q2779.3431,1127.4439 2778.0306,1126.647 Q2776.7338,1125.8345 2776.0775,1124.3657 Q2775.4213,1122.8814 2775.4213,1120.9126 Q2775.4213,1119.4907 2775.8119,1118.3189 Q2776.2181,1117.1314 2776.9994,1116.2564 Q2777.7806,1115.3814 2778.9213,1114.9126 Q2780.0619,1114.4282 2781.5306,1114.4282 Q2782.4838,1114.4282 2783.3744,1114.6314 Q2784.2806,1114.8189 2785.2181,1115.2876 L2784.39,1117.0689 Q2783.6088,1116.6939 2782.9525,1116.5064 Q2782.2963,1116.3032 2781.4994,1116.3032 Z " fill="#000000"/><text fill="#000000" font-family="sans-serif" font-size="14" lengthAdjust="spacing" textLength="91.2236" x="2795.39" y="1126.204">FirewallAbility</text><line style="stroke:#181818;stroke-width:0.5;" x1="2767.39" x2="2888.6136" y1="1136.772" y2="1136.772"/><line style="stroke:#181818;stroke-width:0.5;" x1="2767.39" x2="2888.6136" y1="1144.772" y2="1144.772"/></g><!--class DownloadAbility--><g class="entity" data-entity="DownloadAbility" data-source-line="128" data-uid="ent0026" id="entity_DownloadAbility"><rect fill="#F1F1F1" height="48" rx="2.5" ry="2.5" style="stroke:#181818;stroke-width:0.5;" width="139.4776" x="2924.26" y="1104.772"/><ellipse cx="2939.26" cy="1120.772" fill="#ADD1B2" rx="11" ry="11" style="stroke:#181818;stroke-width:1;"/><path d="M2939.3694,1116.3032 Q2938.4475,1116.3032 2937.7131,1116.6157 Q2936.9944,1116.9282 2936.4944,1117.522 Q2935.9944,1118.1001 2935.7131,1118.9751 Q2935.4475,1119.8501 2935.4475,1120.9439 Q2935.4475,1122.3814 2935.885,1123.4282 Q2936.3381,1124.4751 2937.1819,1125.022 Q2938.0413,1125.5689 2939.3538,1125.5689 Q2940.135,1125.5689 2940.8225,1125.4439 Q2941.5256,1125.3032 2942.5256,1124.9907 L2942.5256,1126.8657 Q2941.6663,1127.1939 2940.9006,1127.3189 Q2940.1506,1127.4439 2939.135,1127.4439 Q2937.2131,1127.4439 2935.9006,1126.647 Q2934.6038,1125.8345 2933.9475,1124.3657 Q2933.2913,1122.8814 2933.2913,1120.9126 Q2933.2913,1119.4907 2933.6819,1118.3189 Q2934.0881,1117.1314 2934.8694,1116.2564 Q2935.6506,1115.3814 2936.7913,1114.9126 Q2937.9319,1114.4282 2939.4006,1114.4282 Q2940.3538,1114.4282 2941.2444,1114.6314 Q2942.1506,1114.8189 2943.0881,1115.2876 L2942.26,1117.0689 Q2941.4788,1116.6939 2940.8225,1116.5064 Q2940.1663,1116.3032 2939.3694,1116.3032 Z " fill="#000000"/><text fill="#000000" font-family="sans-serif" font-size="14" lengthAdjust="spacing" textLength="107.4776" x="2953.26" y="1126.204">DownloadAbility</text><line style="stroke:#181818;stroke-width:0.5;" x1="2925.26" x2="3062.7376" y1="1136.772" y2="1136.772"/><line style="stroke:#181818;stroke-width:0.5;" x1="2925.26" x2="3062.7376" y1="1144.772" y2="1144.772"/></g><!--class PolarizeAbility--><g class="entity" data-entity="PolarizeAbility" data-source-line="131" data-uid="ent0027" id="entity_PolarizeAbility"><rect fill="#F1F1F1" height="48" rx="2.5" ry="2.5" style="stroke:#181818;stroke-width:0.5;" width="124.8616" x="3098.57" y="1104.772"/><ellipse cx="3113.57" cy="1120.772" fill="#ADD1B2" rx="11" ry="11" style="stroke:#181818;stroke-width:1;"/><path d="M3113.6794,1116.3032 Q3112.7575,1116.3032 3112.0231,1116.6157 Q3111.3044,1116.9282 3110.8044,1117.522 Q3110.3044,1118.1001 3110.0231,1118.9751 Q3109.7575,1119.8501 3109.7575,1120.9439 Q3109.7575,1122.3814 3110.195,1123.4282 Q3110.6481,1124.4751 3111.4919,1125.022 Q3112.3513,1125.5689 3113.6638,1125.5689 Q3114.445,1125.5689 3115.1325,1125.4439 Q3115.8356,1125.3032 3116.8356,1124.9907 L3116.8356,1126.8657 Q3115.9763,1127.1939 3115.2106,1127.3189 Q3114.4606,1127.4439 3113.445,1127.4439 Q3111.5231,1127.4439 3110.2106,1126.647 Q3108.9138,1125.8345 3108.2575,1124.3657 Q3107.6013,1122.8814 3107.6013,1120.9126 Q3107.6013,1119.4907 3107.9919,1118.3189 Q3108.3981,1117.1314 3109.1794,1116.2564 Q3109.9606,1115.3814 3111.1013,1114.9126 Q3112.2419,1114.4282 3113.7106,1114.4282 Q3114.6638,1114.4282 3115.5544,1114.6314 Q3116.4606,1114.8189 3117.3981,1115.2876 L3116.57,1117.0689 Q3115.7888,1116.6939 3115.1325,1116.5064 Q3114.4763,1116.3032 3113.6794,1116.3032 Z " fill="#000000"/><text fill="#000000" font-family="sans-serif" font-size="14" lengthAdjust="spacing" textLength="92.8616" x="3127.57" y="1126.204">PolarizeAbility</text><line style="stroke:#181818;stroke-width:0.5;" x1="3099.57" x2="3222.4316" y1="1136.772" y2="1136.772"/><line style="stroke:#181818;stroke-width:0.5;" x1="3099.57" x2="3222.4316" y1="1144.772" y2="1144.772"/></g><!--class ScanAbility--><g class="entity" data-entity="ScanAbility" data-source-line="134" data-uid="ent0028" id="entity_ScanAbility"><rect fill="#F1F1F1" height="48" rx="2.5" ry="2.5" style="stroke:#181818;stroke-width:0.5;" width="103.4977" x="1908.25" y="1104.772"/><ellipse cx="1923.25" cy="1120.772" fill="#ADD1B2" rx="11" ry="11" style="stroke:#181818;stroke-width:1;"/><path d="M1923.3594,1116.3032 Q1922.4375,1116.3032 1921.7031,1116.6157 Q1920.9844,1116.9282 1920.4844,1117.522 Q1919.9844,1118.1001 1919.7031,1118.9751 Q1919.4375,1119.8501 1919.4375,1120.9439 Q1919.4375,1122.3814 1919.875,1123.4282 Q1920.3281,1124.4751 1921.1719,1125.022 Q1922.0313,1125.5689 1923.3438,1125.5689 Q1924.125,1125.5689 1924.8125,1125.4439 Q1925.5156,1125.3032 1926.5156,1124.9907 L1926.5156,1126.8657 Q1925.6563,1127.1939 1924.8906,1127.3189 Q1924.1406,1127.4439 1923.125,1127.4439 Q1921.2031,1127.4439 1919.8906,1126.647 Q1918.5938,1125.8345 1917.9375,1124.3657 Q1917.2813,1122.8814 1917.2813,1120.9126 Q1917.2813,1119.4907 1917.6719,1118.3189 Q1918.0781,1117.1314 1918.8594,1116.2564 Q1919.6406,1115.3814 1920.7813,1114.9126 Q1921.9219,1114.4282 1923.3906,1114.4282 Q1924.3438,1114.4282 1925.2344,1114.6314 Q1926.1406,1114.8189 1927.0781,1115.2876 L1926.25,1117.0689 Q1925.4688,1116.6939 1924.8125,1116.5064 Q1924.1563,1116.3032 1923.3594,1116.3032 Z " fill="#000000"/><text fill="#000000" font-family="sans-serif" font-size="14" lengthAdjust="spacing" textLength="71.4977" x="1937.25" y="1126.204">ScanAbility</text><line style="stroke:#181818;stroke-width:0.5;" x1="1909.25" x2="2010.7477" y1="1136.772" y2="1136.772"/><line style="stroke:#181818;stroke-width:0.5;" x1="1909.25" x2="2010.7477" y1="1144.772" y2="1144.772"/></g><!--class LinkBoostAbility--><g class="entity" data-entity="LinkBoostAbility" data-source-line="137" data-uid="ent0029" id="entity_LinkBoostAbility"><rect fill="#F1F1F1" height="48" rx="2.5" ry="2.5" style="stroke:#181818;stroke-width:0.5;" width="137.4616" x="2046.27" y="1104.772"/><ellipse cx="2061.27" cy="1120.772" fill="#ADD1B2" rx="11" ry="11" style="stroke:#181818;stroke-width:1;"/><path d="M2061.3794,1116.3032 Q2060.4575,1116.3032 2059.7231,1116.6157 Q2059.0044,1116.9282 2058.5044,1117.522 Q2058.0044,1118.1001 2057.7231,1118.9751 Q2057.4575,1119.8501 2057.4575,1120.9439 Q2057.4575,1122.3814 2057.895,1123.4282 Q2058.3481,1124.4751 2059.1919,1125.022 Q2060.0513,1125.5689 2061.3638,1125.5689 Q2062.145,1125.5689 2062.8325,1125.4439 Q2063.5356,1125.3032 2064.5356,1124.9907 L2064.5356,1126.8657 Q2063.6763,1127.1939 2062.9106,1127.3189 Q2062.1606,1127.4439 2061.145,1127.4439 Q2059.2231,1127.4439 2057.9106,1126.647 Q2056.6138,1125.8345 2055.9575,1124.3657 Q2055.3013,1122.8814 2055.3013,1120.9126 Q2055.3013,1119.4907 2055.6919,1118.3189 Q2056.0981,1117.1314 2056.8794,1116.2564 Q2057.6606,1115.3814 2058.8013,1114.9126 Q2059.9419,1114.4282 2061.4106,1114.4282 Q2062.3638,1114.4282 2063.2544,1114.6314 Q2064.1606,1114.8189 2065.0981,1115.2876 L2064.27,1117.0689 Q2063.4888,1116.6939 2062.8325,1116.5064 Q2062.1763,1116.3032 2061.3794,1116.3032 Z " fill="#000000"/><text fill="#000000" font-family="sans-serif" font-size="14" lengthAdjust="spacing" textLength="105.4616" x="2075.27" y="1126.204">LinkBoostAbility</text><line style="stroke:#181818;stroke-width:0.5;" x1="2047.27" x2="2182.7316" y1="1136.772" y2="1136.772"/><line style="stroke:#181818;stroke-width:0.5;" x1="2047.27" x2="2182.7316" y1="1144.772" y2="1144.772"/></g><!--class PappleAbility--><g class="entity" data-entity="PappleAbility" data-source-line="140" data-uid="ent0030" id="entity_PappleAbility"><rect fill="#F1F1F1" height="48" rx="2.5" ry="2.5" style="stroke:#181818;stroke-width:0.5;" width="117.6377" x="2219.18" y="1104.772"/><ellipse cx="2234.18" cy="1120.772" fill="#ADD1B2" rx="11" ry="11" style="stroke:#181818;stroke-width:1;"/><path d="M2234.2894,1116.3032 Q2233.3675,1116.3032 2232.6331,1116.6157 Q2231.9144,1116.9282 2231.4144,1117.522 Q2230.9144,1118.1001 2230.6331,1118.9751 Q2230.3675,1119.8501 2230.3675,1120.9439 Q2230.3675,1122.3814 2230.805,1123.4282 Q2231.2581,1124.4751 2232.1019,1125.022 Q2232.9613,1125.5689 2234.2738,1125.5689 Q2235.055,1125.5689 2235.7425,1125.4439 Q2236.4456,1125.3032 2237.4456,1124.9907 L2237.4456,1126.8657 Q2236.5863,1127.1939 2235.8206,1127.3189 Q2235.0706,1127.4439 2234.055,1127.4439 Q2232.1331,1127.4439 2230.8206,1126.647 Q2229.5238,1125.8345 2228.8675,1124.3657 Q2228.2113,1122.8814 2228.2113,1120.9126 Q2228.2113,1119.4907 2228.6019,1118.3189 Q2229.0081,1117.1314 2229.7894,1116.2564 Q2230.5706,1115.3814 2231.7113,1114.9126 Q2232.8519,1114.4282 2234.3206,1114.4282 Q2235.2738,1114.4282 2236.1644,1114.6314 Q2237.0706,1114.8189 2238.0081,1115.2876 L2237.18,1117.0689 Q2236.3988,1116.6939 2235.7425,1116.5064 Q2235.0863,1116.3032 2234.2894,1116.3032 Z " fill="#000000"/><text fill="#000000" font-family="sans-serif" font-size="14" lengthAdjust="spacing" textLength="85.6377" x="2248.18" y="1126.204">PappleAbility</text><line style="stroke:#181818;stroke-width:0.5;" x1="2220.18" x2="2335.8177" y1="1136.772" y2="1136.772"/><line style="stroke:#181818;stroke-width:0.5;" x1="2220.18" x2="2335.8177" y1="1144.772" y2="1144.772"/></g><!--class LagAbility--><g class="entity" data-entity="LagAbility" data-source-line="143" data-uid="ent0031" id="entity_LagAbility"><rect fill="#F1F1F1" height="48" rx="2.5" ry="2.5" style="stroke:#181818;stroke-width:0.5;" width="96.3858" x="2371.81" y="1104.772"/><ellipse cx="2386.81" cy="1120.772" fill="#ADD1B2" rx="11" ry="11" style="stroke:#181818;stroke-width:1;"/><path d="M2386.9194,1116.3032 Q2385.9975,1116.3032 2385.2631,1116.6157 Q2384.5444,1116.9282 2384.0444,1117.522 Q2383.5444,1118.1001 2383.2631,1118.9751 Q2382.9975,1119.8501 2382.9975,1120.9439 Q2382.9975,1122.3814 2383.435,1123.4282 Q2383.8881,1124.4751 2384.7319,1125.022 Q2385.5913,1125.5689 2386.9038,1125.5689 Q2387.685,1125.5689 2388.3725,1125.4439 Q2389.0756,1125.3032 2390.0756,1124.9907 L2390.0756,1126.8657 Q2389.2163,1127.1939 2388.4506,1127.3189 Q2387.7006,1127.4439 2386.685,1127.4439 Q2384.7631,1127.4439 2383.4506,1126.647 Q2382.1538,1125.8345 2381.4975,1124.3657 Q2380.8413,1122.8814 2380.8413,1120.9126 Q2380.8413,1119.4907 2381.2319,1118.3189 Q2381.6381,1117.1314 2382.4194,1116.2564 Q2383.2006,1115.3814 2384.3413,1114.9126 Q2385.4819,1114.4282 2386.9506,1114.4282 Q2387.9038,1114.4282 2388.7944,1114.6314 Q2389.7006,1114.8189 2390.6381,1115.2876 L2389.81,1117.0689 Q2389.0288,1116.6939 2388.3725,1116.5064 Q2387.7163,1116.3032 2386.9194,1116.3032 Z " fill="#000000"/><text fill="#000000" font-family="sans-serif" font-size="14" lengthAdjust="spacing" textLength="64.3858" x="2400.81" y="1126.204">LagAbility</text><line style="stroke:#181818;stroke-width:0.5;" x1="2372.81" x2="2467.1958" y1="1136.772" y2="1136.772"/><line style="stroke:#181818;stroke-width:0.5;" x1="2372.81" x2="2467.1958" y1="1144.772" y2="1144.772"/></g><!--class QuantumEntanglementAbility--><g class="entity" data-entity="QuantumEntanglementAbility" data-source-line="146" data-uid="ent0032" id="entity_QuantumEntanglementAbility"><rect fill="#F1F1F1" height="48" rx="2.5" ry="2.5" style="stroke:#181818;stroke-width:0.5;" width="228.2792" x="2502.86" y="1104.772"/><ellipse cx="2517.86" cy="1120.772" fill="#ADD1B2" rx="11" ry="11" style="stroke:#181818;stroke-width:1;"/><path d="M2517.9694,1116.3032 Q2517.0475,1116.3032 2516.3131,1116.6157 Q2515.5944,1116.9282 2515.0944,1117.522 Q2514.5944,1118.1001 2514.3131,1118.9751 Q2514.0475,1119.8501 2514.0475,1120.9439 Q2514.0475,1122.3814 2514.485,1123.4282 Q2514.9381,1124.4751 2515.7819,1125.022 Q2516.6413,1125.5689 2517.9538,1125.5689 Q2518.735,1125.5689 2519.4225,1125.4439 Q2520.1256,1125.3032 2521.1256,1124.9907 L2521.1256,1126.8657 Q2520.2663,1127.1939 2519.5006,1127.3189 Q2518.7506,1127.4439 2517.735,1127.4439 Q2515.8131,1127.4439 2514.5006,1126.647 Q2513.2038,1125.8345 2512.5475,1124.3657 Q2511.8913,1122.8814 2511.8913,1120.9126 Q2511.8913,1119.4907 2512.2819,1118.3189 Q2512.6881,1117.1314 2513.4694,1116.2564 Q2514.2506,1115.3814 2515.3913,1114.9126 Q2516.5319,1114.4282 2518.0006,1114.4282 Q2518.9538,1114.4282 2519.8444,1114.6314 Q2520.7506,1114.8189 2521.6881,1115.2876 L2520.86,1117.0689 Q2520.0788,1116.6939 2519.4225,1116.5064 Q2518.7663,1116.3032 2517.9694,1116.3032 Z " fill="#000000"/><text fill="#000000" font-family="sans-serif" font-size="14" lengthAdjust="spacing" textLength="196.2792" x="2531.86" y="1126.204">QuantumEntanglementAbility</text><line style="stroke:#181818;stroke-width:0.5;" x1="2503.86" x2="2730.1392" y1="1136.772" y2="1136.772"/><line style="stroke:#181818;stroke-width:0.5;" x1="2503.86" x2="2730.1392" y1="1144.772" y2="1144.772"/></g><!--class View--><g class="entity" data-entity="View" data-source-line="152" data-uid="ent0034" id="entity_View"><rect fill="#F1F1F1" height="105.2038" rx="2.5" ry="2.5" style="stroke:#181818;stroke-width:0.5;" width="196.5893" x="3278.71" y="332.672"/><ellipse cx="3358.5307" cy="348.672" fill="#A9DCDF" rx="11" ry="11" style="stroke:#181818;stroke-width:1;"/><path d="M3361.8745,353.922 L3360.4057,350.172 L3355.9682,350.172 L3354.5307,353.922 L3352.4057,353.922 L3357.3588,341.2032 L3359.1088,341.2032 L3364.0307,353.922 L3361.8745,353.922 Z M3358.5307,344.9689 Q3358.4838,344.8126 3358.3588,344.4532 Q3358.2338,344.0939 3358.1245,343.7189 Q3358.0151,343.3282 3358.2182,343.2657 Q3358.3745,343.4532 3358.2807,343.8126 Q3358.187,344.1564 3358.0932,344.4532 Q3357.9995,344.7345 3357.9213,344.9689 L3356.687,348.2814 L3359.7651,348.2814 L3358.5307,344.9689 Z " fill="#000000"/><text fill="#000000" font-family="sans-serif" font-size="14" font-style="italic" lengthAdjust="spacing" textLength="28.4479" x="3379.0307" y="354.104">View</text><line style="stroke:#181818;stroke-width:0.5;" x1="3279.71" x2="3474.2993" y1="364.672" y2="364.672"/><line style="stroke:#181818;stroke-width:0.5;" x1="3279.71" x2="3474.2993" y1="372.672" y2="372.672"/><ellipse cx="3289.71" cy="387.7059" fill="#84BE84" rx="3" ry="3" style="stroke:#038048;stroke-width:1;"/><text fill="#000000" font-family="sans-serif" font-size="14" lengthAdjust="spacing" textLength="86.5197" x="3298.71" y="391.6379">void update()</text><ellipse cx="3289.71" cy="406.7739" fill="#84BE84" rx="3" ry="3" style="stroke:#038048;stroke-width:1;"/><text fill="#000000" font-family="sans-serif" font-size="14" lengthAdjust="spacing" textLength="85.9877" x="3298.71" y="410.7058">void display()</text><ellipse cx="3289.71" cy="425.8418" fill="#84BE84" rx="3" ry="3" style="stroke:#038048;stroke-width:1;"/><text fill="#000000" font-family="sans-serif" font-size="14" lengthAdjust="spacing" textLength="170.5893" x="3298.71" y="429.7738">void notify(Player* player)</text></g><!--class TextView--><g class="entity" data-entity="TextView" data-source-line="158" data-uid="ent0035" id="entity_TextView"><rect fill="#F1F1F1" height="48" rx="2.5" ry="2.5" style="stroke:#181818;stroke-width:0.5;" width="91.0518" x="3279.47" y="659.962"/><ellipse cx="3294.47" cy="675.962" fill="#ADD1B2" rx="11" ry="11" style="stroke:#181818;stroke-width:1;"/><path d="M3294.5794,671.4932 Q3293.6575,671.4932 3292.9231,671.8057 Q3292.2044,672.1182 3291.7044,672.712 Q3291.2044,673.2901 3290.9231,674.1651 Q3290.6575,675.0401 3290.6575,676.1339 Q3290.6575,677.5714 3291.095,678.6182 Q3291.5481,679.6651 3292.3919,680.212 Q3293.2513,680.7589 3294.5638,680.7589 Q3295.345,680.7589 3296.0325,680.6339 Q3296.7356,680.4932 3297.7356,680.1807 L3297.7356,682.0557 Q3296.8763,682.3839 3296.1106,682.5089 Q3295.3606,682.6339 3294.345,682.6339 Q3292.4231,682.6339 3291.1106,681.837 Q3289.8138,681.0245 3289.1575,679.5557 Q3288.5013,678.0714 3288.5013,676.1026 Q3288.5013,674.6807 3288.8919,673.5089 Q3289.2981,672.3214 3290.0794,671.4464 Q3290.8606,670.5714 3292.0013,670.1026 Q3293.1419,669.6182 3294.6106,669.6182 Q3295.5638,669.6182 3296.4544,669.8214 Q3297.3606,670.0089 3298.2981,670.4776 L3297.47,672.2589 Q3296.6888,671.8839 3296.0325,671.6964 Q3295.3763,671.4932 3294.5794,671.4932 Z " fill="#000000"/><text fill="#000000" font-family="sans-serif" font-size="14" lengthAdjust="spacing" textLength="59.0518" x="3308.47" y="681.394">TextView</text><line style="stroke:#181818;stroke-width:0.5;" x1="3280.47" x2="3369.5218" y1="691.962" y2="691.962"/><line style="stroke:#181818;stroke-width:0.5;" x1="3280.47" x2="3369.5218" y1="699.962" y2="699.962"/></g><!--class GraphicalView--><g class="entity" data-entity="GraphicalView" data-source-line="161" data-uid="ent0036" id="entity_GraphicalView"><rect fill="#F1F1F1" height="48" rx="2.5" ry="2.5" style="stroke:#181818;stroke-width:0.5;" width="125.7996" x="3405.1" y="659.962"/><ellipse cx="3420.1" cy="675.962" fill="#ADD1B2" rx="11" ry="11" style="stroke:#181818;stroke-width:1;"/><path d="M3420.2094,671.4932 Q3419.2875,671.4932 3418.5531,671.8057 Q3417.8344,672.1182 3417.3344,672.712 Q3416.8344,673.2901 3416.5531,674.1651 Q3416.2875,675.0401 3416.2875,676.1339 Q3416.2875,677.5714 3416.725,678.6182 Q3417.1781,679.6651 3418.0219,680.212 Q3418.8813,680.7589 3420.1938,680.7589 Q3420.975,680.7589 3421.6625,680.6339 Q3422.3656,680.4932 3423.3656,680.1807 L3423.3656,682.0557 Q3422.5063,682.3839 3421.7406,682.5089 Q3420.9906,682.6339 3419.975,682.6339 Q3418.0531,682.6339 3416.7406,681.837 Q3415.4438,681.0245 3414.7875,679.5557 Q3414.1313,678.0714 3414.1313,676.1026 Q3414.1313,674.6807 3414.5219,673.5089 Q3414.9281,672.3214 3415.7094,671.4464 Q3416.4906,670.5714 3417.6313,670.1026 Q3418.7719,669.6182 3420.2406,669.6182 Q3421.1938,669.6182 3422.0844,669.8214 Q3422.9906,670.0089 3423.9281,670.4776 L3423.1,672.2589 Q3422.3188,671.8839 3421.6625,671.6964 Q3421.0063,671.4932 3420.2094,671.4932 Z " fill="#000000"/><text fill="#000000" font-family="sans-serif" font-size="14" lengthAdjust="spacing" textLength="93.7996" x="3434.1" y="681.394">GraphicalView</text><line style="stroke:#181818;stroke-width:0.5;" x1="3406.1" x2="3529.8996" y1="691.962" y2="691.962"/><line style="stroke:#181818;stroke-width:0.5;" x1="3406.1" x2="3529.8996" y1="699.962" y2="699.962"/></g><!--class Controller--><g class="entity" data-entity="Controller" data-source-line="167" data-uid="ent0038" id="entity_Controller"><rect fill="#F1F1F1" height="124.2717" rx="2.5" ry="2.5" style="stroke:#181818;stroke-width:0.5;" width="384.7067" x="1977.65" y="44.602"/><ellipse cx="2132.6645" cy="60.602" fill="#ADD1B2" rx="11" ry="11" style="stroke:#181818;stroke-width:1;"/><path d="M2132.7738,56.1332 Q2131.852,56.1332 2131.1176,56.4457 Q2130.3988,56.7582 2129.8988,57.352 Q2129.3988,57.9301 2129.1176,58.8051 Q2128.852,59.6801 2128.852,60.7739 Q2128.852,62.2114 2129.2895,63.2582 Q2129.7426,64.3051 2130.5863,64.852 Q2131.4457,65.3989 2132.7582,65.3989 Q2133.5395,65.3989 2134.227,65.2739 Q2134.9301,65.1332 2135.9301,64.8207 L2135.9301,66.6957 Q2135.0707,67.0239 2134.3051,67.1489 Q2133.5551,67.2739 2132.5395,67.2739 Q2130.6176,67.2739 2129.3051,66.477 Q2128.0082,65.6645 2127.352,64.1957 Q2126.6957,62.7114 2126.6957,60.7426 Q2126.6957,59.3207 2127.0863,58.1489 Q2127.4926,56.9614 2128.2738,56.0864 Q2129.0551,55.2114 2130.1957,54.7426 Q2131.3363,54.2582 2132.8051,54.2582 Q2133.7582,54.2582 2134.6488,54.4614 Q2135.5551,54.6489 2136.4926,55.1176 L2135.6645,56.8989 Q2134.8832,56.5239 2134.227,56.3364 Q2133.5707,56.1332 2132.7738,56.1332 Z " fill="#000000"/><text fill="#000000" font-family="sans-serif" font-size="14" lengthAdjust="spacing" textLength="66.1777" x="2153.1645" y="66.034">Controller</text><line style="stroke:#181818;stroke-width:0.5;" x1="1978.65" x2="2361.3567" y1="76.602" y2="76.602"/><rect fill="none" height="6" style="stroke:#C82930;stroke-width:1;" width="6" x="1985.65" y="88.6359"/><text fill="#000000" font-family="sans-serif" font-size="14" lengthAdjust="spacing" textLength="184.9812" x="1997.65" y="95.5679">vector&lt;vector&lt;View&gt;&gt; views</text><rect fill="none" height="6" style="stroke:#C82930;stroke-width:1;" width="6" x="1985.65" y="107.7039"/><text fill="#000000" font-family="sans-serif" font-size="14" lengthAdjust="spacing" textLength="87.8357" x="1997.65" y="114.6358">Game* game</text><line style="stroke:#181818;stroke-width:0.5;" x1="1978.65" x2="2361.3567" y1="122.7378" y2="122.7378"/><ellipse cx="1988.65" cy="137.7718" fill="#84BE84" rx="3" ry="3" style="stroke:#038048;stroke-width:1;"/><text fill="#000000" font-family="sans-serif" font-size="14" lengthAdjust="spacing" textLength="134.8475" x="1997.65" y="141.7038">void runGameLoop()</text><ellipse cx="1988.65" cy="156.8397" fill="#84BE84" rx="3" ry="3" style="stroke:#038048;stroke-width:1;"/><text fill="#000000" font-family="sans-serif" font-size="14" lengthAdjust="spacing" textLength="358.7067" x="1997.65" y="160.7717">void parseCommand(const std::string&amp; commandLine)</text></g><!--class LinkFactory--><g class="entity" data-entity="LinkFactory" data-source-line="178" data-uid="ent0040" id="entity_LinkFactory"><rect fill="#F1F1F1" height="67.0679" rx="2.5" ry="2.5" style="stroke:#181818;stroke-width:0.5;" width="274.863" x="392.57" y="901.432"/><ellipse cx="488.0707" cy="917.432" fill="#ADD1B2" rx="11" ry="11" style="stroke:#181818;stroke-width:1;"/><path d="M488.18,912.9632 Q487.2582,912.9632 486.5238,913.2757 Q485.805,913.5882 485.305,914.182 Q484.805,914.7601 484.5238,915.6351 Q484.2582,916.5101 484.2582,917.6039 Q484.2582,919.0414 484.6957,920.0882 Q485.1488,921.1351 485.9925,921.682 Q486.8519,922.2289 488.1644,922.2289 Q488.9457,922.2289 489.6332,922.1039 Q490.3363,921.9632 491.3363,921.6507 L491.3363,923.5257 Q490.4769,923.8539 489.7113,923.9789 Q488.9613,924.1039 487.9457,924.1039 Q486.0238,924.1039 484.7113,923.307 Q483.4144,922.4945 482.7582,921.0257 Q482.1019,919.5414 482.1019,917.5726 Q482.1019,916.1507 482.4925,914.9789 Q482.8988,913.7914 483.68,912.9164 Q484.4613,912.0414 485.6019,911.5726 Q486.7425,911.0882 488.2113,911.0882 Q489.1644,911.0882 490.055,911.2914 Q490.9613,911.4789 491.8988,911.9476 L491.0707,913.7289 Q490.2894,913.3539 489.6332,913.1664 Q488.9769,912.9632 488.18,912.9632 Z " fill="#000000"/><text fill="#000000" font-family="sans-serif" font-size="14" lengthAdjust="spacing" textLength="75.3617" x="508.5707" y="922.864">LinkFactory</text><line style="stroke:#181818;stroke-width:0.5;" x1="393.57" x2="666.433" y1="933.432" y2="933.432"/><line style="stroke:#181818;stroke-width:0.5;" x1="393.57" x2="666.433" y1="941.432" y2="941.432"/><ellipse cx="403.57" cy="956.4659" fill="#84BE84" rx="3" ry="3" style="stroke:#038048;stroke-width:1;"/><text fill="#000000" font-family="sans-serif" font-size="14" lengthAdjust="spacing" textLength="248.863" x="412.57" y="960.3979">Link* createPlayerLink(Player* player)</text></g><!--class AbilityFactory--><g class="entity" data-entity="AbilityFactory" data-source-line="182" data-uid="ent0041" id="entity_AbilityFactory"><rect fill="#F1F1F1" height="67.0679" rx="2.5" ry="2.5" style="stroke:#181818;stroke-width:0.5;" width="301.8829" x="702.06" y="901.432"/><ellipse cx="804.3156" cy="917.432" fill="#ADD1B2" rx="11" ry="11" style="stroke:#181818;stroke-width:1;"/><path d="M804.425,912.9632 Q803.5031,912.9632 802.7688,913.2757 Q802.05,913.5882 801.55,914.182 Q801.05,914.7601 800.7688,915.6351 Q800.5031,916.5101 800.5031,917.6039 Q800.5031,919.0414 800.9406,920.0882 Q801.3938,921.1351 802.2375,921.682 Q803.0969,922.2289 804.4094,922.2289 Q805.1906,922.2289 805.8781,922.1039 Q806.5813,921.9632 807.5813,921.6507 L807.5813,923.5257 Q806.7219,923.8539 805.9563,923.9789 Q805.2063,924.1039 804.1906,924.1039 Q802.2688,924.1039 800.9563,923.307 Q799.6594,922.4945 799.0031,921.0257 Q798.3469,919.5414 798.3469,917.5726 Q798.3469,916.1507 798.7375,914.9789 Q799.1438,913.7914 799.925,912.9164 Q800.7063,912.0414 801.8469,911.5726 Q802.9875,911.0882 804.4563,911.0882 Q805.4094,911.0882 806.3,911.2914 Q807.2063,911.4789 808.1438,911.9476 L807.3156,913.7289 Q806.5344,913.3539 805.8781,913.1664 Q805.2219,912.9632 804.425,912.9632 Z " fill="#000000"/><text fill="#000000" font-family="sans-serif" font-size="14" lengthAdjust="spacing" textLength="88.8717" x="824.8156" y="922.864">AbilityFactory</text><line style="stroke:#181818;stroke-width:0.5;" x1="703.06" x2="1002.9429" y1="933.432" y2="933.432"/><line style="stroke:#181818;stroke-width:0.5;" x1="703.06" x2="1002.9429" y1="941.432" y2="941.432"/><ellipse cx="713.06" cy="956.4659" fill="#84BE84" rx="3" ry="3" style="stroke:#038048;stroke-width:1;"/><text fill="#000000" font-family="sans-serif" font-size="14" lengthAdjust="spacing" textLength="275.8829" x="722.06" y="960.3979">Ability* createPlayerAbility(Player* player)</text></g><!--class LinkDecoratorFactory--><g class="entity" data-entity="LinkDecoratorFactory" data-source-line="186" data-uid="ent0042" id="entity_LinkDecoratorFactory"><rect fill="#F1F1F1" height="67.0679" rx="2.5" ry="2.5" style="stroke:#181818;stroke-width:0.5;" width="335.3848" x="22.31" y="901.432"/><ellipse cx="114.9477" cy="917.432" fill="#ADD1B2" rx="11" ry="11" style="stroke:#181818;stroke-width:1;"/><path d="M115.057,912.9632 Q114.1352,912.9632 113.4008,913.2757 Q112.682,913.5882 112.182,914.182 Q111.682,914.7601 111.4008,915.6351 Q111.1352,916.5101 111.1352,917.6039 Q111.1352,919.0414 111.5727,920.0882 Q112.0258,921.1351 112.8695,921.682 Q113.7289,922.2289 115.0414,922.2289 Q115.8227,922.2289 116.5102,922.1039 Q117.2133,921.9632 118.2133,921.6507 L118.2133,923.5257 Q117.3539,923.8539 116.5883,923.9789 Q115.8383,924.1039 114.8227,924.1039 Q112.9008,924.1039 111.5883,923.307 Q110.2914,922.4945 109.6352,921.0257 Q108.9789,919.5414 108.9789,917.5726 Q108.9789,916.1507 109.3695,914.9789 Q109.7758,913.7914 110.557,912.9164 Q111.3383,912.0414 112.4789,911.5726 Q113.6195,911.0882 115.0883,911.0882 Q116.0414,911.0882 116.932,911.2914 Q117.8383,911.4789 118.7758,911.9476 L117.9477,913.7289 Q117.1664,913.3539 116.5102,913.1664 Q115.8539,912.9632 115.057,912.9632 Z " fill="#000000"/><text fill="#000000" font-family="sans-serif" font-size="14" lengthAdjust="spacing" textLength="141.6095" x="135.4477" y="922.864">LinkDecoratorFactory</text><line style="stroke:#181818;stroke-width:0.5;" x1="23.31" x2="356.6948" y1="933.432" y2="933.432"/><line style="stroke:#181818;stroke-width:0.5;" x1="23.31" x2="356.6948" y1="941.432" y2="941.432"/><ellipse cx="33.31" cy="956.4659" fill="#84BE84" rx="3" ry="3" style="stroke:#038048;stroke-width:1;"/><text fill="#000000" font-family="sans-serif" font-size="14" lengthAdjust="spacing" textLength="309.3848" x="42.31" y="960.3979">LinkDecorator* createLinkDecorator(Link* link)</text></g><!--reverse link Game to Board--><g class="link" data-entity-1="Game" data-entity-2="Board" data-source-line="194" data-uid="lnk43" id="link_Game_Board"><path codeLine="194" d="M1768.0702,534.4418 C1757.3302,553.8518 1753.42,563.562 1746,583.682 C1680.31,761.752 1670.82,991.752 1669.85,1085.342" fill="none" id="Game-backto-Board" style="stroke:#181818;stroke-width:1;"/><polygon fill="#181818" points="1773.88,523.942,1767.4752,527.2553,1768.0702,534.4418,1774.475,531.1285,1773.88,523.942" style="stroke:#181818;stroke-width:1;"/></g><!--reverse link Game to Player--><g class="link" data-entity-1="Game" data-entity-2="Player" data-source-line="195" data-uid="lnk44" id="link_Game_Player"><path codeLine="195" d="M1872,535.762 C1872,555.922 1872,564.352 1872,583.542" fill="none" id="Game-backto-Player" style="stroke:#181818;stroke-width:1;"/><polygon fill="#181818" points="1872,523.762,1868,529.762,1872,535.762,1876,529.762,1872,523.762" style="stroke:#181818;stroke-width:1;"/></g><!--reverse link Board to BaseCell--><g class="link" data-entity-1="Board" data-entity-2="BaseCell" data-source-line="197" data-uid="lnk45" id="link_Board_BaseCell"><path codeLine="197" d="M1848.004,1171.5024 C1914.814,1188.6324 1980.47,1207.452 2049,1231.842 C2054.64,1233.852 2060.42,1236.052 2066.2,1238.362" fill="none" id="Board-backto-BaseCell" style="stroke:#181818;stroke-width:1;"/><polygon fill="#181818" points="1836.38,1168.522,1841.1985,1173.8868,1848.004,1171.5024,1843.1855,1166.1375,1836.38,1168.522" style="stroke:#181818;stroke-width:1;"/></g><!--reverse link BaseCell to Link--><g class="link" data-entity-1="BaseCell" data-entity-2="Link" data-source-line="198" data-uid="lnk46" id="link_BaseCell_Link"><path codeLine="198" d="M2054.9385,1233.2458 C2049.1785,1231.2058 2054.7,1233.372 2049,1231.842 C1927.52,1199.072 1586.88,1247.032 1486,1171.842 C1452.73,1147.042 1471.61,1121.122 1450,1085.702 C1437.62,1065.402 1422.58,1045.002 1407.28,1026.082" fill="none" id="BaseCell-backto-Link" style="stroke:#181818;stroke-width:1;"/><polygon fill="none" points="2066.25,1237.252,2061.9296,1231.4784,2054.9385,1233.2458,2059.2588,1239.0194,2066.25,1237.252" style="stroke:#181818;stroke-width:1;"/></g><!--reverse link Player to Ability--><g class="link" data-entity-1="Player" data-entity-2="Ability" data-source-line="200" data-uid="lnk47" id="link_Player_Ability"><path codeLine="200" d="M1991.178,747.1747 C2083.138,795.1747 2201.57,857.002 2280.01,897.952" fill="none" id="Player-backto-Ability" style="stroke:#181818;stroke-width:1;"/><polygon fill="#181818" points="1980.54,741.622,1984.0081,747.9443,1991.178,747.1747,1987.7099,740.8523,1980.54,741.622" style="stroke:#181818;stroke-width:1;"/></g><!--reverse link Player to Link--><g class="link" data-entity-1="Player" data-entity-2="Link" data-source-line="201" data-uid="lnk48" id="link_Player_Link"><path codeLine="201" d="M1752.4848,739.2657 C1668.9348,777.2257 1563.53,825.122 1471.55,866.922" fill="none" id="Player-backto-Link" style="stroke:#181818;stroke-width:1;"/><polygon fill="#181818" points="1763.41,734.302,1756.2928,733.1421,1752.4848,739.2657,1759.602,740.4256,1763.41,734.302" style="stroke:#181818;stroke-width:1;"/></g><!--reverse link Link to Board--><g class="link" data-entity-1="Link" data-entity-2="Board" data-source-line="203" data-uid="lnk49" id="link_Link_Board"><path codeLine="203" d="M1481.9845,1023.5414 C1524.0745,1046.8814 1557.73,1065.532 1593.68,1085.462" fill="none" id="Link-backto-Board" style="stroke:#181818;stroke-width:1;"/><polygon fill="none" points="1471.49,1017.722,1474.7974,1024.1299,1481.9845,1023.5414,1478.6771,1017.1336,1471.49,1017.722" style="stroke:#181818;stroke-width:1;"/></g><!--reverse link Player to PlayerCell--><g class="link" data-entity-1="Player" data-entity-2="PlayerCell" data-source-line="205" data-uid="lnk50" id="link_Player_PlayerCell"><path codeLine="205" d="M1860.7653,796.6499 C1850.2153,922.2199 1842.39,1116.302 1891,1171.842 C1993.8,1289.272 2136.51,1112.422 2237,1231.842 C2271.34,1272.652 2247.91,1335.962 2225.51,1377.712" fill="none" id="Player-backto-PlayerCell" style="stroke:#181818;stroke-width:1;"/><polygon fill="#181818" points="1861.77,784.692,1857.2817,790.336,1860.7653,796.6499,1865.2536,791.0058,1861.77,784.692" style="stroke:#181818;stroke-width:1;"/></g><!--reverse link PlayerCell to BaseCell--><g class="link" data-entity-1="PlayerCell" data-entity-2="BaseCell" data-source-line="206" data-uid="lnk51" id="link_PlayerCell_BaseCell"><path codeLine="206" d="M2191.0913,1366.4312 C2185.2213,1347.7012 2180.27,1337.142 2171.59,1318.372" fill="none" id="PlayerCell-backto-BaseCell" style="stroke:#181818;stroke-width:1;"/><polygon fill="#181818" points="2194.68,1377.882,2196.7026,1370.9603,2191.0913,1366.4312,2189.0687,1373.3528,2194.68,1377.882" style="stroke:#181818;stroke-width:1;"/></g><!--reverse link BaseCell to PlayerCell--><g class="link" data-entity-1="BaseCell" data-entity-2="PlayerCell" data-source-line="209" data-uid="lnk53" id="link_BaseCell_PlayerCell"><path codeLine="209" d="M2152.8076,1335.5436 C2158.7076,1354.3136 2161.87,1359.152 2170.55,1377.882" fill="none" id="BaseCell-backto-PlayerCell" style="stroke:#181818;stroke-width:1;"/><polygon fill="none" points="2147.41,1318.372,2147.0837,1337.3428,2158.5315,1333.7444,2147.41,1318.372" style="stroke:#181818;stroke-width:1;"/></g><!--reverse link BaseCell to BoardCell--><g class="link" data-entity-1="BaseCell" data-entity-2="BoardCell" data-source-line="208" data-uid="lnk52" id="link_BaseCell_BoardCell"><path codeLine="208" d="M2107.3252,1333.6889 C2091.5352,1359.2689 2081.48,1375.552 2068.44,1396.662" fill="none" id="BaseCell-backto-BoardCell" style="stroke:#181818;stroke-width:1;"/><polygon fill="none" points="2116.78,1318.372,2102.2196,1330.5373,2112.4308,1336.8405,2116.78,1318.372" style="stroke:#181818;stroke-width:1;"/></g><!--reverse link PlayerCell to Server--><g class="link" data-entity-1="PlayerCell" data-entity-2="Server" data-source-line="210" data-uid="lnk54" id="link_PlayerCell_Server"><path codeLine="210" d="M2148.6782,1477.7429 C2130.7582,1497.5929 2122.14,1507.112 2107.09,1523.772" fill="none" id="PlayerCell-backto-Server" style="stroke:#181818;stroke-width:1;"/><polygon fill="none" points="2160.74,1464.382,2144.2246,1473.7223,2153.1318,1481.7635,2160.74,1464.382" style="stroke:#181818;stroke-width:1;"/></g><!--reverse link PlayerCell to Firewall--><g class="link" data-entity-1="PlayerCell" data-entity-2="Firewall" data-source-line="211" data-uid="lnk55" id="link_PlayerCell_Firewall"><path codeLine="211" d="M2199,1482.382 C2199,1502.232 2199,1507.112 2199,1523.772" fill="none" id="PlayerCell-backto-Firewall" style="stroke:#181818;stroke-width:1;"/><polygon fill="none" points="2199,1464.382,2193,1482.382,2205,1482.382,2199,1464.382" style="stroke:#181818;stroke-width:1;"/></g><!--reverse link PlayerCell to Goal--><g class="link" data-entity-1="PlayerCell" data-entity-2="Goal" data-source-line="212" data-uid="lnk56" id="link_PlayerCell_Goal"><path codeLine="212" d="M2246.9266,1478.0637 C2263.8966,1497.9137 2271.78,1507.112 2286.03,1523.772" fill="none" id="PlayerCell-backto-Goal" style="stroke:#181818;stroke-width:1;"/><polygon fill="none" points="2235.23,1464.382,2242.3661,1481.9626,2251.4872,1474.1648,2235.23,1464.382" style="stroke:#181818;stroke-width:1;"/></g><!--reverse link Link to VirusLink--><g class="link" data-entity-1="Link" data-entity-2="VirusLink" data-source-line="214" data-uid="lnk57" id="link_Link_VirusLink"><path codeLine="214" d="M1288.8222,1043.0729 C1279.2922,1072.0829 1275.15,1084.702 1268.65,1104.492" fill="none" id="Link-backto-VirusLink" style="stroke:#181818;stroke-width:1;"/><polygon fill="none" points="1294.44,1025.972,1283.1219,1041.2003,1294.5225,1044.9455,1294.44,1025.972" style="stroke:#181818;stroke-width:1;"/></g><!--reverse link Link to DataLink--><g class="link" data-entity-1="Link" data-entity-2="DataLink" data-source-line="215" data-uid="lnk58" id="link_Link_DataLink"><path codeLine="215" d="M1359.1778,1043.0729 C1368.7078,1072.0829 1372.85,1084.702 1379.35,1104.492" fill="none" id="Link-backto-DataLink" style="stroke:#181818;stroke-width:1;"/><polygon fill="none" points="1353.56,1025.972,1353.4775,1044.9455,1364.8781,1041.2003,1353.56,1025.972" style="stroke:#181818;stroke-width:1;"/></g><!--reverse link Link to LinkDecorator--><g class="link" data-entity-1="Link" data-entity-2="LinkDecorator" data-source-line="216" data-uid="lnk59" id="link_Link_LinkDecorator"><path codeLine="216" d="M1202.0123,1038.2551 C1175.5323,1062.9751 1162.82,1075.942 1144.58,1095.112" fill="none" id="Link-backto-LinkDecorator" style="stroke:#181818;stroke-width:1;"/><polygon fill="none" points="1215.17,1025.972,1197.9179,1033.8692,1206.1067,1042.641,1215.17,1025.972" style="stroke:#181818;stroke-width:1;"/></g><!--reverse link LinkDecorator to Link--><g class="link" data-entity-1="LinkDecorator" data-entity-2="Link" data-source-line="233" data-uid="lnk73" id="link_LinkDecorator_Link"><path codeLine="233" d="M1174.3069,1087.1027 C1196.7869,1067.9627 1215.37,1050.602 1241.37,1025.972" fill="none" id="LinkDecorator-backto-Link" style="stroke:#181818;stroke-width:1;"/><polygon fill="#181818" points="1165.17,1094.882,1172.3315,1094.0379,1174.3069,1087.1027,1167.1453,1087.9467,1165.17,1094.882" style="stroke:#181818;stroke-width:1;"/></g><!--reverse link LinkDecorator to LinkBoostDecorator--><g class="link" data-entity-1="LinkDecorator" data-entity-2="LinkBoostDecorator" data-source-line="218" data-uid="lnk60" id="link_LinkDecorator_LinkBoostDecorator"><path codeLine="218" d="M1127.7076,1180.2756 C1131.8176,1207.1856 1134.82,1226.862 1138.47,1250.752" fill="none" id="LinkDecorator-backto-LinkBoostDecorator" style="stroke:#181818;stroke-width:1;"/><polygon fill="none" points="1124.99,1162.482,1121.7764,1181.1815,1133.6389,1179.3698,1124.99,1162.482" style="stroke:#181818;stroke-width:1;"/></g><!--reverse link LinkDecorator to PolarizeDecorator--><g class="link" data-entity-1="LinkDecorator" data-entity-2="PolarizeDecorator" data-source-line="219" data-uid="lnk61" id="link_LinkDecorator_PolarizeDecorator"><path codeLine="219" d="M1183.76,1172.7165 C1223.6,1199.5465 1263.98,1226.752 1299.38,1250.592" fill="none" id="LinkDecorator-backto-PolarizeDecorator" style="stroke:#181818;stroke-width:1;"/><polygon fill="none" points="1168.83,1162.662,1180.4085,1177.6932,1187.1116,1167.7398,1168.83,1162.662" style="stroke:#181818;stroke-width:1;"/></g><!--reverse link LinkDecorator to RevealDecorator--><g class="link" data-entity-1="LinkDecorator" data-entity-2="RevealDecorator" data-source-line="220" data-uid="lnk62" id="link_LinkDecorator_RevealDecorator"><path codeLine="220" d="M1192.5768,1170.577 C1199.3968,1173.937 1190.2,1169.142 1197,1171.842 C1295.2,1210.792 1327.78,1195.562 1427,1231.842 C1441.47,1237.132 1456.78,1243.982 1470.49,1250.602" fill="none" id="LinkDecorator-backto-RevealDecorator" style="stroke:#181818;stroke-width:1;"/><polygon fill="none" points="1176.43,1162.622,1189.9251,1175.9592,1195.2284,1165.1947,1176.43,1162.622" style="stroke:#181818;stroke-width:1;"/></g><!--reverse link LinkDecorator to LagDecorator--><g class="link" data-entity-1="LinkDecorator" data-entity-2="LagDecorator" data-source-line="221" data-uid="lnk63" id="link_LinkDecorator_LagDecorator"><path codeLine="221" d="M1191.1331,1170.4873 C1198.4031,1173.9473 1189.63,1169.372 1197,1171.842 C1369.95,1229.802 1429.74,1174.802 1603,1231.842 C1610.53,1234.322 1618.19,1237.482 1625.64,1240.952" fill="none" id="LinkDecorator-backto-LagDecorator" style="stroke:#181818;stroke-width:1;"/><polygon fill="none" points="1174.88,1162.752,1188.5547,1175.905,1193.7116,1165.0696,1174.88,1162.752" style="stroke:#181818;stroke-width:1;"/></g><!--reverse link LinkDecorator to QuantumEntanglementDecorator--><g class="link" data-entity-1="LinkDecorator" data-entity-2="QuantumEntanglementDecorator" data-source-line="222" data-uid="lnk64" id="link_LinkDecorator_QuantumEntanglementDecorator"><path codeLine="222" d="M1190.1942,1170.344 C1197.7442,1173.924 1189.29,1169.432 1197,1171.842 C1437.6,1247.062 1513.7,1182.972 1761,1231.842 C1773.78,1234.362 1787.05,1237.512 1800.15,1240.932" fill="none" id="LinkDecorator-backto-QuantumEntanglementDecorator" style="stroke:#181818;stroke-width:1;"/><polygon fill="none" points="1173.93,1162.632,1187.6235,1175.7654,1192.7649,1164.9226,1173.93,1162.632" style="stroke:#181818;stroke-width:1;"/></g><!--reverse link Ability to FirewallAbility--><g class="link" data-entity-1="Ability" data-entity-2="FirewallAbility" data-source-line="224" data-uid="lnk65" id="link_Ability_FirewallAbility"><path codeLine="224" d="M2435.1003,964.4914 C2515.7203,991.7714 2635.45,1034.482 2749,1085.702 C2761.46,1091.332 2774.69,1098.052 2786.69,1104.462" fill="none" id="Ability-backto-FirewallAbility" style="stroke:#181818;stroke-width:1;"/><polygon fill="none" points="2418.05,958.722,2433.1772,970.1749,2437.0235,958.808,2418.05,958.722" style="stroke:#181818;stroke-width:1;"/></g><!--reverse link Ability to DownloadAbility--><g class="link" data-entity-1="Ability" data-entity-2="DownloadAbility" data-source-line="225" data-uid="lnk66" id="link_Ability_DownloadAbility"><path codeLine="225" d="M2435.7524,953.8845 C2542.5124,976.7045 2735.44,1021.862 2907,1085.702 C2921.15,1090.972 2936.11,1097.732 2949.55,1104.292" fill="none" id="Ability-backto-DownloadAbility" style="stroke:#181818;stroke-width:1;"/><polygon fill="none" points="2418.15,950.122,2434.4982,959.752,2437.0065,948.017,2418.15,950.122" style="stroke:#181818;stroke-width:1;"/></g><!--reverse link Ability to PolarizeAbility--><g class="link" data-entity-1="Ability" data-entity-2="PolarizeAbility" data-source-line="226" data-uid="lnk67" id="link_Ability_PolarizeAbility"><path codeLine="226" d="M2435.9818,945.6461 C2567.9318,961.4761 2845.69,1001.682 3081,1085.702 C3094.74,1090.612 3109.06,1097.502 3121.72,1104.292" fill="none" id="Ability-backto-PolarizeAbility" style="stroke:#181818;stroke-width:1;"/><polygon fill="none" points="2418.11,943.502,2435.2672,951.6033,2436.6965,939.6888,2418.11,943.502" style="stroke:#181818;stroke-width:1;"/></g><!--reverse link Ability to ScanAbility--><g class="link" data-entity-1="Ability" data-entity-2="ScanAbility" data-source-line="227" data-uid="lnk68" id="link_Ability_ScanAbility"><path codeLine="227" d="M2263.4086,972.9082 C2197.8586,1001.6882 2113.58,1040.312 2029,1085.702 C2018.37,1091.412 2007.09,1098.032 1996.81,1104.302" fill="none" id="Ability-backto-ScanAbility" style="stroke:#181818;stroke-width:1;"/><polygon fill="none" points="2279.89,965.672,2260.9965,967.4144,2265.8207,978.402,2279.89,965.672" style="stroke:#181818;stroke-width:1;"/></g><!--reverse link Ability to LinkBoostAbility--><g class="link" data-entity-1="Ability" data-entity-2="LinkBoostAbility" data-source-line="228" data-uid="lnk69" id="link_Ability_LinkBoostAbility"><path codeLine="228" d="M2266.1386,1003.8922 C2220.5686,1041.2422 2177.15,1076.822 2143.44,1104.452" fill="none" id="Ability-backto-LinkBoostAbility" style="stroke:#181818;stroke-width:1;"/><polygon fill="none" points="2280.06,992.482,2262.3352,999.2518,2269.942,1008.5327,2280.06,992.482" style="stroke:#181818;stroke-width:1;"/></g><!--reverse link Ability to PappleAbility--><g class="link" data-entity-1="Ability" data-entity-2="PappleAbility" data-source-line="229" data-uid="lnk70" id="link_Ability_PappleAbility"><path codeLine="229" d="M2312.9485,1033.3515 C2301.1785,1065.1315 2294.81,1082.352 2286.68,1104.312" fill="none" id="Ability-backto-PappleAbility" style="stroke:#181818;stroke-width:1;"/><polygon fill="none" points="2319.2,1016.472,2307.322,1031.2677,2318.575,1035.4354,2319.2,1016.472" style="stroke:#181818;stroke-width:1;"/></g><!--reverse link Ability to LagAbility--><g class="link" data-entity-1="Ability" data-entity-2="LagAbility" data-source-line="230" data-uid="lnk71" id="link_Ability_LagAbility"><path codeLine="230" d="M2385.0515,1033.3515 C2396.8215,1065.1315 2403.19,1082.352 2411.32,1104.312" fill="none" id="Ability-backto-LagAbility" style="stroke:#181818;stroke-width:1;"/><polygon fill="none" points="2378.8,1016.472,2379.425,1035.4354,2390.678,1031.2677,2378.8,1016.472" style="stroke:#181818;stroke-width:1;"/></g><!--reverse link Ability to QuantumEntanglementAbility--><g class="link" data-entity-1="Ability" data-entity-2="QuantumEntanglementAbility" data-source-line="231" data-uid="lnk72" id="link_Ability_QuantumEntanglementAbility"><path codeLine="231" d="M2432.6574,995.838 C2486.1574,1034.128 2543.27,1075.002 2584.38,1104.422" fill="none" id="Ability-backto-QuantumEntanglementAbility" style="stroke:#181818;stroke-width:1;"/><polygon fill="none" points="2418.02,985.362,2429.1654,1000.7171,2436.1494,990.9588,2418.02,985.362" style="stroke:#181818;stroke-width:1;"/></g><!--reverse link View to TextView--><g class="link" data-entity-1="View" data-entity-2="TextView" data-source-line="235" data-uid="lnk74" id="link_View_TextView"><path codeLine="235" d="M3364.7722,456.0217 C3353.3522,521.1717 3337.39,612.252 3329.08,659.672" fill="none" id="View-backto-TextView" style="stroke:#181818;stroke-width:1;"/><polygon fill="none" points="3367.88,438.292,3358.8623,454.9857,3370.6821,457.0576,3367.88,438.292" style="stroke:#181818;stroke-width:1;"/></g><!--reverse link View to GraphicalView--><g class="link" data-entity-1="View" data-entity-2="GraphicalView" data-source-line="236" data-uid="lnk75" id="link_View_GraphicalView"><path codeLine="236" d="M3398.2376,455.5009 C3418.2176,520.6509 3446.31,612.252 3460.86,659.672" fill="none" id="View-backto-GraphicalView" style="stroke:#181818;stroke-width:1;"/><polygon fill="none" points="3392.96,438.292,3392.5013,457.2601,3403.9739,453.7417,3392.96,438.292" style="stroke:#181818;stroke-width:1;"/></g><!--reverse link Controller to Game--><g class="link" data-entity-1="Controller" data-entity-2="Game" data-source-line="238" data-uid="lnk76" id="link_Controller_Game"><path codeLine="238" d="M2095.0646,177.2754 C2070.2946,200.2654 2049.83,219.252 2020.59,246.392" fill="none" id="Controller-backto-Game" style="stroke:#181818;stroke-width:1;"/><polygon fill="none" points="2103.86,169.112,2096.7412,170.2619,2095.0646,177.2754,2102.1834,176.1255,2103.86,169.112" style="stroke:#181818;stroke-width:1;"/></g><!--reverse link Controller to View--><g class="link" data-entity-1="Controller" data-entity-2="View" data-source-line="239" data-uid="lnk77" id="link_Controller_View"><path codeLine="239" d="M2374.6486,132.7269 C2542.4586,152.3669 2780.49,178.022 2999,192.872 C3025.62,194.682 3215.33,188.562 3239,200.872 C3292.91,228.912 3331.57,288.622 3354.01,332.332" fill="none" id="Controller-backto-View" style="stroke:#181818;stroke-width:1;"/><polygon fill="none" points="2362.73,131.332,2368.2243,136.0023,2374.6486,132.7269,2369.1543,128.0566,2362.73,131.332" style="stroke:#181818;stroke-width:1;"/></g><!--link LinkFactory to Link--><g class="link" data-entity-1="LinkFactory" data-entity-2="Link" data-source-line="241" data-uid="lnk78" id="link_LinkFactory_Link"><path codeLine="241" d="M564.45,901.082 C596.96,871.672 648.64,831.212 702.5,814.232 C861.06,764.252 1043.6189,813.2694 1171.0489,863.5594" fill="none" id="LinkFactory-to-Link" style="stroke:#181818;stroke-width:1;stroke-dasharray:7.0,7.0;"/><polygon fill="#181818" points="1176.63,865.762,1169.7267,858.7374,1171.9791,863.9265,1166.79,866.1789,1176.63,865.762" style="stroke:#181818;stroke-width:1;"/></g><!--link AbilityFactory to Ability--><g class="link" data-entity-1="AbilityFactory" data-entity-2="Ability" data-source-line="242" data-uid="lnk79" id="link_AbilityFactory_Ability"><path codeLine="242" d="M895.9,900.982 C936.07,871.502 999.09,830.992 1061.5,814.232 C1233.62,767.992 1686.6,792.562 1863.5,814.232 C2014.8,832.762 2181.11,880.8206 2274.33,910.3406" fill="none" id="AbilityFactory-to-Ability" style="stroke:#181818;stroke-width:1;stroke-dasharray:7.0,7.0;"/><polygon fill="#181818" points="2280.05,912.152,2272.6775,905.6216,2275.2833,910.6425,2270.2623,913.2483,2280.05,912.152" style="stroke:#181818;stroke-width:1;"/></g><!--link LinkDecoratorFactory to LinkDecorator--><g class="link" data-entity-1="LinkDecoratorFactory" data-entity-2="LinkDecorator" data-source-line="243" data-uid="lnk80" id="link_LinkDecoratorFactory_LinkDecorator"><path codeLine="243" d="M246.02,968.902 C281.76,988.442 329.73,1012.002 375,1025.702 C622.09,1100.492 925.9851,1120.3942 1054.2251,1125.6942" fill="none" id="LinkDecoratorFactory-to-LinkDecorator" style="stroke:#181818;stroke-width:1;stroke-dasharray:7.0,7.0;"/><polygon fill="#181818" points="1060.22,1125.942,1051.3929,1121.5738,1055.2243,1125.7355,1051.0625,1129.5669,1060.22,1125.942" style="stroke:#181818;stroke-width:1;"/></g><!--SRC=[XLPjSnet4Fv-lqBZpZI4clw0nCCCnawR6PAq1ZkVnPqC6kwagwI3KDV_lQjN9DtvyW4G- -oRTbUx-mxDPZDqpxf6wbFHulA0TmHT4KswGYy5Glg8xgWWfQAS6H92NxyzRFuqf_MtHtUwNwmtvl3ztXnUuUFbLvGTDkUMEF6dpm-FQtEwMsmMXlUrA8ftnfqll28rMjPOIfAvrMZeoYafDGVw0pTUAq8pT0GtkRZvgyPd8kQeDRyom9GfL7P24AOiosTMaHyV0txBiQZGLdyNZlWREd9Q8QcmKDhOv7qACF93RJh18hhHCaKxeimfGhQSrwZSa_BmdR8LbpB2h4D6R1cx6B5ezm6EN9yugSof1X_85tuaatAF1QeX-jV872igCbQvvwV4tc9BQwhE-JqxIJoYtQ3LjG-sL8Ao7GGR2zn8A_PQH3coKUqboVtSOacMfAxdSnluZqKQhWRkeUjdeh-cxZ8jfk86_BZMCPcZadDHfQRn5lp2fV8-E2kH6rOVBykknKpfVrdEERjd2X9W6D-wLwHqsBADQcRRkpD5MpW5igy1Vc94z0skYJWIaLgpo2Tue2USU-AU2CU3T6iiSYeBAbJQkkI2v7bpPJ2TmqtrYHAPivY8pKskv2MeR-YFAost03mBRoIlo0gYL7DSHOMHSv2QgBnuBZoM1YOCHtWgOsMaET-Ec2t3fDk0D64xjKTZOLWQkVn-CW2P12EdPLJmGK2GVpeYbNdubuwTF7dNGTREgqaQ3DEY0TQ_au62VwAYar484l0EAzp71k9tHo3h6F8S0lcBIuL-2wYlMOEtd4kLIwRbp6iiwBzabEc170ckHrbMUDVtq2PJGP-NA_Ai-b9_Tz13kWOQ1cQxcZJGJeUqs7j2frJP0y_Yv5v0aDIojiyY1aCeefeU2Sqv3AouOuVyXcvAvIFm9dGtCSIXXpYBK15VBvDliE-a_gPruPxf28jFtGZBkiHi10ubCcO5jsqzPWCoFu8EP3ZdVlKxp1Cbf-4LvWY8ts2od1kXbruMsmehqazOHQNURle0uue-d_rYu5QWWTHjO769JAOZG-1sJqjS9mpXUalEbE1r3TF3N3AzOXdGT5MBfEAoJhS1RH0s0Hqc6J7fpGjQjIxz_BwYOnfTSTxsWm4l3GOjRnhCgWau9dL7hZvyi9NzAtHi0q7vaFVvBJzXxT5vE8_F5anlgAlGIxraOwOK1F9eisBcpKyJvAghhz2FnqIdNyv-gZPfmSFU1jYRI8YzMHflxm-andhio3rjRSWAiw9FPswxllordXQ5NGyDWzkAYh2jyPdjcKNXjXNDvguQanoJcJyyc4euBdjO4QraYTcBtPl_l9BK7qCVrcGWjw7rw64_wo5wEtEEc_zXnaOqFreZKf8HAt-PDu4ZdPf3NBsfESIKJSr1Qz7K7CB7vcDH-4QQnCgdEG6pQPA2sHn9mMY2f40-EpATyTJ81CEyIEblJueyKTDGtgRH6cdVboDIqewB8cgakjRDWyg9bZDkIB_FhQcihG3PEpVO6PpO9Ld_0m00]--></g></svg>