<svg xmlns="http://www.w3.org/2000/svg" xmlns:xlink="http://www.w3.org/1999/xlink" contentStyleType="text/css" data-diagram-type="CLASS" height="1633px" preserveAspectRatio="none" style="width:3554px;height:1633px;background:#FFFFFF;" version="1.1" viewBox="0 0 3554 1633" width="3554px" zoomAndPan="magnify"><defs/><g><!--cluster enums--><g class="cluster" data-entity="enums" data-source-line="3" data-uid="ent0002" id="cluster_enums"><path d="M3001.5,6.602 L3049.6833,6.602 A3.75,3.75 0 0 1 3052.1833,9.102 L3059.1833,31.6699 L3245.5,31.6699 A2.5,2.5 0 0 1 3248,34.1699 L3248,182.372 A2.5,2.5 0 0 1 3245.5,184.872 L3001.5,184.872 A2.5,2.5 0 0 1 2999,182.372 L2999,9.102 A2.5,2.5 0 0 1 3001.5,6.602" fill="none" style="stroke:#000000;stroke-width:1.5;"/><line style="stroke:#000000;stroke-width:1.5;" x1="2999" x2="3059.1833" y1="31.6699" y2="31.6699"/><text fill="#000000" font-family="sans-serif" font-size="14" font-weight="bold" lengthAdjust="spacing" textLength="47.1833" x="3003" y="23.5679">enums</text></g><!--cluster model--><g class="cluster" data-entity="model" data-source-line="19" data-uid="ent0005" id="cluster_model"><path d="M1046.5,208.872 L1091.3653,208.872 A3.75,3.75 0 0 1 1093.8653,211.372 L1100.8653,233.9399 L3236.5,233.9399 A2.5,2.5 0 0 1 3239,236.4399 L3239,1623.752 A2.5,2.5 0 0 1 3236.5,1626.252 L1046.5,1626.252 A2.5,2.5 0 0 1 1044,1623.752 L1044,211.372 A2.5,2.5 0 0 1 1046.5,208.872" fill="none" style="stroke:#000000;stroke-width:1.5;"/><line style="stroke:#000000;stroke-width:1.5;" x1="1044" x2="1100.8653" y1="233.9399" y2="233.9399"/><text fill="#000000" font-family="sans-serif" font-size="14" font-weight="bold" lengthAdjust="spacing" textLength="43.8653" x="1048" y="225.8379">model</text></g><!--cluster view--><g class="cluster" data-entity="view" data-source-line="153" data-uid="ent0033" id="cluster_view"><path d="M3265.5,294.682 L3297.8739,294.682 A3.75,3.75 0 0 1 3300.3739,297.182 L3307.3739,319.7499 L3544.5,319.7499 A2.5,2.5 0 0 1 3547,322.2499 L3547,721.462 A2.5,2.5 0 0 1 3544.5,723.962 L3265.5,723.962 A2.5,2.5 0 0 1 3263,721.462 L3263,297.182 A2.5,2.5 0 0 1 3265.5,294.682" fill="none" style="stroke:#000000;stroke-width:1.5;"/><line style="stroke:#000000;stroke-width:1.5;" x1="3263" x2="3307.3739" y1="319.7499" y2="319.7499"/><text fill="#000000" font-family="sans-serif" font-size="14" font-weight="bold" lengthAdjust="spacing" textLength="31.3739" x="3267" y="311.6479">view</text></g><!--cluster controller--><g class="cluster" data-entity="controller" data-source-line="168" data-uid="ent0037" id="cluster_controller"><path d="M1964.5,6.602 L2033.9248,6.602 A3.75,3.75 0 0 1 2036.4248,9.102 L2043.4248,31.6699 L2375.5,31.6699 A2.5,2.5 0 0 1 2378,34.1699 L2378,182.372 A2.5,2.5 0 0 1 2375.5,184.872 L1964.5,184.872 A2.5,2.5 0 0 1 1962,182.372 L1962,9.102 A2.5,2.5 0 0 1 1964.5,6.602" fill="none" style="stroke:#000000;stroke-width:1.5;"/><line style="stroke:#000000;stroke-width:1.5;" x1="1962" x2="2043.4248" y1="31.6699" y2="31.6699"/><text fill="#000000" font-family="sans-serif" font-size="14" font-weight="bold" lengthAdjust="spacing" textLength="68.4248" x="1966" y="23.5679">controller</text></g><!--cluster factory--><g class="cluster" data-entity="factory" data-source-line="179" data-uid="ent0039" id="cluster_factory"><path d="M8.5,882.502 L58.3983,882.502 A3.75,3.75 0 0 1 60.8983,885.002 L67.8983,907.5699 L1017.5,907.5699 A2.5,2.5 0 0 1 1020,910.0699 L1020,1001.072 A2.5,2.5 0 0 1 1017.5,1003.572 L8.5,1003.572 A2.5,2.5 0 0 1 6,1001.072 L6,885.002 A2.5,2.5 0 0 1 8.5,882.502" fill="none" style="stroke:#000000;stroke-width:1.5;"/><line style="stroke:#000000;stroke-width:1.5;" x1="6" x2="67.8983" y1="907.5699" y2="907.5699"/><text fill="#000000" font-family="sans-serif" font-size="14" font-weight="bold" lengthAdjust="spacing" textLength="48.8983" x="10" y="899.4679">factory</text></g><!--class Direction--><g class="entity" data-entity="Direction" data-source-line="4" data-uid="ent0003" id="entity_Direction"><rect fill="#F1F1F1" height="124.2717" rx="2.5" ry="2.5" style="stroke:#181818;stroke-width:0.5;" width="92.0178" x="3014.99" y="44.602"/><ellipse cx="3029.99" cy="60.602" fill="#EB937F" rx="11" ry="11" style="stroke:#181818;stroke-width:1;"/><path d="M3033.4588,67.102 L3026.1463,67.102 L3026.1463,54.4301 L3033.4588,54.4301 L3033.4588,56.3051 L3028.1931,56.3051 L3028.1931,59.5707 L3033.1463,59.5707 L3033.1463,61.4301 L3028.1931,61.4301 L3028.1931,65.227 L3033.4588,65.227 L3033.4588,67.102 Z " fill="#000000"/><text fill="#000000" font-family="sans-serif" font-size="14" lengthAdjust="spacing" textLength="60.0178" x="3043.99" y="66.034">Direction</text><line style="stroke:#181818;stroke-width:0.5;" x1="3015.99" x2="3106.0078" y1="76.602" y2="76.602"/><text fill="#000000" font-family="sans-serif" font-size="14" lengthAdjust="spacing" textLength="48.4398" x="3020.99" y="95.5679">NORTH</text><text fill="#000000" font-family="sans-serif" font-size="14" lengthAdjust="spacing" textLength="47.0118" x="3020.99" y="114.6358">SOUTH</text><text fill="#000000" font-family="sans-serif" font-size="14" lengthAdjust="spacing" textLength="32.1999" x="3020.99" y="133.7038">EAST</text><text fill="#000000" font-family="sans-serif" font-size="14" lengthAdjust="spacing" textLength="36.2738" x="3020.99" y="152.7717">WEST</text><line style="stroke:#181818;stroke-width:0.5;" x1="3015.99" x2="3106.0078" y1="160.8736" y2="160.8736"/></g><!--class LinkType--><g class="entity" data-entity="LinkType" data-source-line="11" data-uid="ent0004" id="entity_LinkType"><rect fill="#F1F1F1" height="86.1358" rx="2.5" ry="2.5" style="stroke:#181818;stroke-width:0.5;" width="90.5058" x="3141.75" y="63.672"/><ellipse cx="3156.75" cy="79.672" fill="#EB937F" rx="11" ry="11" style="stroke:#181818;stroke-width:1;"/><path d="M3160.2188,86.172 L3152.9063,86.172 L3152.9063,73.5001 L3160.2188,73.5001 L3160.2188,75.3751 L3154.9531,75.3751 L3154.9531,78.6407 L3159.9063,78.6407 L3159.9063,80.5001 L3154.9531,80.5001 L3154.9531,84.297 L3160.2188,84.297 L3160.2188,86.172 Z " fill="#000000"/><text fill="#000000" font-family="sans-serif" font-size="14" lengthAdjust="spacing" textLength="58.5058" x="3170.75" y="85.104">LinkType</text><line style="stroke:#181818;stroke-width:0.5;" x1="3142.75" x2="3231.2558" y1="95.672" y2="95.672"/><text fill="#000000" font-family="sans-serif" font-size="14" lengthAdjust="spacing" textLength="39.7738" x="3147.75" y="114.6379">VIRUS</text><text fill="#000000" font-family="sans-serif" font-size="14" lengthAdjust="spacing" textLength="35.8959" x="3147.75" y="133.7058">DATA</text><line style="stroke:#181818;stroke-width:0.5;" x1="3142.75" x2="3231.2558" y1="141.8078" y2="141.8078"/></g><!--class Game--><g class="entity" data-entity="Game" data-source-line="20" data-uid="ent0006" id="entity_Game"><rect fill="#F1F1F1" height="276.815" rx="2.5" ry="2.5" style="stroke:#181818;stroke-width:0.5;" width="319.2569" x="1712.37" y="246.872"/><ellipse cx="1848.2325" cy="262.872" fill="#ADD1B2" rx="11" ry="11" style="stroke:#181818;stroke-width:1;"/><path d="M1848.3419,258.4032 Q1847.42,258.4032 1846.6856,258.7157 Q1845.9669,259.0282 1845.4669,259.622 Q1844.9669,260.2001 1844.6856,261.0751 Q1844.42,261.9501 1844.42,263.0439 Q1844.42,264.4814 1844.8575,265.5282 Q1845.3106,266.5751 1846.1544,267.122 Q1847.0138,267.6689 1848.3263,267.6689 Q1849.1075,267.6689 1849.795,267.5439 Q1850.4981,267.4032 1851.4981,267.0907 L1851.4981,268.9657 Q1850.6388,269.2939 1849.8731,269.4189 Q1849.1231,269.5439 1848.1075,269.5439 Q1846.1856,269.5439 1844.8731,268.747 Q1843.5763,267.9345 1842.92,266.4657 Q1842.2638,264.9814 1842.2638,263.0126 Q1842.2638,261.5907 1842.6544,260.4189 Q1843.0606,259.2314 1843.8419,258.3564 Q1844.6231,257.4814 1845.7638,257.0126 Q1846.9044,256.5282 1848.3731,256.5282 Q1849.3263,256.5282 1850.2169,256.7314 Q1851.1231,256.9189 1852.0606,257.3876 L1851.2325,259.1689 Q1850.4513,258.7939 1849.795,258.6064 Q1849.1388,258.4032 1848.3419,258.4032 Z " fill="#000000"/><text fill="#000000" font-family="sans-serif" font-size="14" lengthAdjust="spacing" textLength="39.0318" x="1868.7325" y="268.304">Game</text><line style="stroke:#181818;stroke-width:0.5;" x1="1713.37" x2="2030.6269" y1="278.872" y2="278.872"/><rect fill="none" height="6" style="stroke:#C82930;stroke-width:1;" width="6" x="1720.37" y="290.9059"/><text fill="#000000" font-family="sans-serif" font-size="14" lengthAdjust="spacing" textLength="149.0434" x="1732.37" y="297.8379">vector&lt;Player&gt; players</text><rect fill="none" height="6" style="stroke:#C82930;stroke-width:1;" width="6" x="1720.37" y="309.9739"/><text fill="#000000" font-family="sans-serif" font-size="14" lengthAdjust="spacing" textLength="151.3114" x="1732.37" y="316.9058">int currentPlayerIndex;</text><rect fill="none" height="6" style="stroke:#C82930;stroke-width:1;" width="6" x="1720.37" y="329.0418"/><text fill="#000000" font-family="sans-serif" font-size="14" lengthAdjust="spacing" textLength="82.7817" x="1732.37" y="335.9738">Board board</text><line style="stroke:#181818;stroke-width:0.5;" x1="1713.37" x2="2030.6269" y1="344.0757" y2="344.0757"/><ellipse cx="1723.37" cy="359.1097" fill="#84BE84" rx="3" ry="3" style="stroke:#038048;stroke-width:1;"/><text fill="#000000" font-family="sans-serif" font-size="14" lengthAdjust="spacing" textLength="109.3256" x="1732.37" y="363.0417">void startGame()</text><ellipse cx="1723.37" cy="378.1776" fill="#84BE84" rx="3" ry="3" style="stroke:#038048;stroke-width:1;"/><text fill="#000000" font-family="sans-serif" font-size="14" lengthAdjust="spacing" textLength="99.7216" x="1732.37" y="382.1096">void nextTurn()</text><ellipse cx="1723.37" cy="397.2455" fill="#84BE84" rx="3" ry="3" style="stroke:#038048;stroke-width:1;"/><text fill="#000000" font-family="sans-serif" font-size="14" lengthAdjust="spacing" textLength="120.9456" x="1732.37" y="401.1775">Board* getBoard()</text><ellipse cx="1723.37" cy="416.3134" fill="#84BE84" rx="3" ry="3" style="stroke:#038048;stroke-width:1;"/><text fill="#000000" font-family="sans-serif" font-size="14" lengthAdjust="spacing" textLength="133.1675" x="1732.37" y="420.2454">bool checkWinLoss()</text><ellipse cx="1723.37" cy="435.3814" fill="#84BE84" rx="3" ry="3" style="stroke:#038048;stroke-width:1;"/><text fill="#000000" font-family="sans-serif" font-size="14" lengthAdjust="spacing" textLength="173.4873" x="1732.37" y="439.3133">Player* getCurrentPlayer()</text><ellipse cx="1723.37" cy="454.4493" fill="#84BE84" rx="3" ry="3" style="stroke:#038048;stroke-width:1;"/><text fill="#000000" font-family="sans-serif" font-size="14" lengthAdjust="spacing" textLength="177.4493" x="1732.37" y="458.3813">int getPlayerIndex(Player*)</text><ellipse cx="1723.37" cy="473.5172" fill="#84BE84" rx="3" ry="3" style="stroke:#038048;stroke-width:1;"/><text fill="#000000" font-family="sans-serif" font-size="14" lengthAdjust="spacing" textLength="226.3791" x="1732.37" y="477.4492">void makeMove(char link, char dir)</text><ellipse cx="1723.37" cy="492.5851" fill="#84BE84" rx="3" ry="3" style="stroke:#038048;stroke-width:1;"/><text fill="#000000" font-family="sans-serif" font-size="14" lengthAdjust="spacing" textLength="206.6812" x="1732.37" y="496.5171">void showCurrentPlayerAbility()</text><ellipse cx="1723.37" cy="511.653" fill="#84BE84" rx="3" ry="3" style="stroke:#038048;stroke-width:1;"/><text fill="#000000" font-family="sans-serif" font-size="14" lengthAdjust="spacing" textLength="293.2569" x="1732.37" y="515.585">void useAbility(int id, vector&lt;string&gt; params)</text></g><!--class Board--><g class="entity" data-entity="Board" data-source-line="36" data-uid="ent0007" id="entity_Board"><rect fill="#F1F1F1" height="86.1358" rx="2.5" ry="2.5" style="stroke:#181818;stroke-width:0.5;" width="332.3188" x="1503.84" y="1123.842"/><ellipse cx="1645.8415" cy="1139.842" fill="#ADD1B2" rx="11" ry="11" style="stroke:#181818;stroke-width:1;"/><path d="M1645.9509,1135.3732 Q1645.029,1135.3732 1644.2946,1135.6857 Q1643.5759,1135.9982 1643.0759,1136.592 Q1642.5759,1137.1701 1642.2946,1138.0451 Q1642.029,1138.9201 1642.029,1140.0139 Q1642.029,1141.4514 1642.4665,1142.4982 Q1642.9196,1143.5451 1643.7634,1144.092 Q1644.6227,1144.6389 1645.9352,1144.6389 Q1646.7165,1144.6389 1647.404,1144.5139 Q1648.1071,1144.3732 1649.1071,1144.0607 L1649.1071,1145.9357 Q1648.2477,1146.2639 1647.4821,1146.3889 Q1646.7321,1146.5139 1645.7165,1146.5139 Q1643.7946,1146.5139 1642.4821,1145.717 Q1641.1852,1144.9045 1640.529,1143.4357 Q1639.8727,1141.9514 1639.8727,1139.9826 Q1639.8727,1138.5607 1640.2634,1137.3889 Q1640.6696,1136.2014 1641.4509,1135.3264 Q1642.2321,1134.4514 1643.3727,1133.9826 Q1644.5134,1133.4982 1645.9821,1133.4982 Q1646.9352,1133.4982 1647.8259,1133.7014 Q1648.7321,1133.8889 1649.6696,1134.3576 L1648.8415,1136.1389 Q1648.0602,1135.7639 1647.404,1135.5764 Q1646.7477,1135.3732 1645.9509,1135.3732 Z " fill="#000000"/><text fill="#000000" font-family="sans-serif" font-size="14" lengthAdjust="spacing" textLength="39.8159" x="1666.3415" y="1145.274">Board</text><line style="stroke:#181818;stroke-width:0.5;" x1="1504.84" x2="1835.1588" y1="1155.842" y2="1155.842"/><rect fill="none" height="6" style="stroke:#C82930;stroke-width:1;" width="6" x="1511.84" y="1167.8759"/><text fill="#000000" font-family="sans-serif" font-size="14" lengthAdjust="spacing" textLength="216.3412" x="1523.84" y="1174.8079">vector&lt;vector&lt;BaseCell&gt;&gt; board;</text><line style="stroke:#181818;stroke-width:0.5;" x1="1504.84" x2="1835.1588" y1="1182.9099" y2="1182.9099"/><ellipse cx="1514.84" cy="1197.9439" fill="#84BE84" rx="3" ry="3" style="stroke:#038048;stroke-width:1;"/><text fill="#000000" font-family="sans-serif" font-size="14" lengthAdjust="spacing" textLength="306.3188" x="1523.84" y="1201.8758">bool moveLink(Link* link, pair&lt;int, int&gt; coords)</text></g><!--class BaseCell--><g class="entity" data-entity="BaseCell" data-source-line="42" data-uid="ent0008" id="entity_BaseCell"><rect fill="#F1F1F1" height="86.1358" rx="2.5" ry="2.5" style="stroke:#181818;stroke-width:0.5;" width="152.9235" x="2066.54" y="1269.982"/><ellipse cx="2112.8448" cy="1285.982" fill="#A9DCDF" rx="11" ry="11" style="stroke:#181818;stroke-width:1;"/><path d="M2116.1886,1291.232 L2114.7198,1287.482 L2110.2823,1287.482 L2108.8448,1291.232 L2106.7198,1291.232 L2111.673,1278.5132 L2113.423,1278.5132 L2118.3448,1291.232 L2116.1886,1291.232 Z M2112.8448,1282.2789 Q2112.798,1282.1226 2112.673,1281.7632 Q2112.548,1281.4039 2112.4386,1281.0289 Q2112.3292,1280.6382 2112.5323,1280.5757 Q2112.6886,1280.7632 2112.5948,1281.1226 Q2112.5011,1281.4664 2112.4073,1281.7632 Q2112.3136,1282.0445 2112.2355,1282.2789 L2111.0011,1285.5914 L2114.0792,1285.5914 L2112.8448,1282.2789 Z " fill="#000000"/><text fill="#000000" font-family="sans-serif" font-size="14" font-style="italic" lengthAdjust="spacing" textLength="51.8138" x="2133.3448" y="1291.414">BaseCell</text><line style="stroke:#181818;stroke-width:0.5;" x1="2067.54" x2="2218.4635" y1="1301.982" y2="1301.982"/><rect fill="none" height="6" style="stroke:#C82930;stroke-width:1;" width="6" x="2074.54" y="1314.0159"/><text fill="#000000" font-family="sans-serif" font-size="14" lengthAdjust="spacing" textLength="126.2375" x="2086.54" y="1320.9479">Link* occupantLink</text><line style="stroke:#181818;stroke-width:0.5;" x1="2067.54" x2="2218.4635" y1="1329.0499" y2="1329.0499"/><ellipse cx="2077.54" cy="1344.0839" fill="#84BE84" rx="3" ry="3" style="stroke:#038048;stroke-width:1;"/><text fill="#000000" font-family="sans-serif" font-size="14" lengthAdjust="spacing" textLength="126.9235" x="2086.54" y="1348.0158">void onEnter(Link*)</text></g><!--class BoardCell--><g class="entity" data-entity="BoardCell" data-source-line="48" data-uid="ent0009" id="entity_BoardCell"><rect fill="#F1F1F1" height="48" rx="2.5" ry="2.5" style="stroke:#181818;stroke-width:0.5;" width="95.7838" x="2006.11" y="1435.182"/><ellipse cx="2021.11" cy="1451.182" fill="#ADD1B2" rx="11" ry="11" style="stroke:#181818;stroke-width:1;"/><path d="M2021.2194,1446.7132 Q2020.2975,1446.7132 2019.5631,1447.0257 Q2018.8444,1447.3382 2018.3444,1447.932 Q2017.8444,1448.5101 2017.5631,1449.3851 Q2017.2975,1450.2601 2017.2975,1451.3539 Q2017.2975,1452.7914 2017.735,1453.8382 Q2018.1881,1454.8851 2019.0319,1455.432 Q2019.8913,1455.9789 2021.2038,1455.9789 Q2021.985,1455.9789 2022.6725,1455.8539 Q2023.3756,1455.7132 2024.3756,1455.4007 L2024.3756,1457.2757 Q2023.5163,1457.6039 2022.7506,1457.7289 Q2022.0006,1457.8539 2020.985,1457.8539 Q2019.0631,1457.8539 2017.7506,1457.057 Q2016.4538,1456.2445 2015.7975,1454.7757 Q2015.1413,1453.2914 2015.1413,1451.3226 Q2015.1413,1449.9007 2015.5319,1448.7289 Q2015.9381,1447.5414 2016.7194,1446.6664 Q2017.5006,1445.7914 2018.6413,1445.3226 Q2019.7819,1444.8382 2021.2506,1444.8382 Q2022.2038,1444.8382 2023.0944,1445.0414 Q2024.0006,1445.2289 2024.9381,1445.6976 L2024.11,1447.4789 Q2023.3288,1447.1039 2022.6725,1446.9164 Q2022.0163,1446.7132 2021.2194,1446.7132 Z " fill="#000000"/><text fill="#000000" font-family="sans-serif" font-size="14" lengthAdjust="spacing" textLength="63.7838" x="2035.11" y="1456.614">BoardCell</text><line style="stroke:#181818;stroke-width:0.5;" x1="2007.11" x2="2100.8938" y1="1467.182" y2="1467.182"/><line style="stroke:#181818;stroke-width:0.5;" x1="2007.11" x2="2100.8938" y1="1475.182" y2="1475.182"/></g><!--class PlayerCell--><g class="entity" data-entity="PlayerCell" data-source-line="51" data-uid="ent0010" id="entity_PlayerCell"><rect fill="#F1F1F1" height="86.1358" rx="2.5" ry="2.5" style="stroke:#181818;stroke-width:0.5;" width="123.9436" x="2137.03" y="1416.112"/><ellipse cx="2165.943" cy="1432.112" fill="#A9DCDF" rx="11" ry="11" style="stroke:#181818;stroke-width:1;"/><path d="M2169.2868,1437.362 L2167.818,1433.612 L2163.3805,1433.612 L2161.943,1437.362 L2159.818,1437.362 L2164.7712,1424.6432 L2166.5212,1424.6432 L2171.443,1437.362 L2169.2868,1437.362 Z M2165.943,1428.4089 Q2165.8962,1428.2526 2165.7712,1427.8932 Q2165.6462,1427.5339 2165.5368,1427.1589 Q2165.4274,1426.7682 2165.6305,1426.7057 Q2165.7868,1426.8932 2165.693,1427.2526 Q2165.5993,1427.5964 2165.5055,1427.8932 Q2165.4118,1428.1745 2165.3337,1428.4089 L2164.0993,1431.7214 L2167.1774,1431.7214 L2165.943,1428.4089 Z " fill="#000000"/><text fill="#000000" font-family="sans-serif" font-size="14" font-style="italic" lengthAdjust="spacing" textLength="61.0258" x="2183.0348" y="1437.544">PlayerCell</text><line style="stroke:#181818;stroke-width:0.5;" x1="2138.03" x2="2259.9736" y1="1448.112" y2="1448.112"/><rect fill="none" height="6" style="stroke:#C82930;stroke-width:1;" width="6" x="2145.03" y="1460.1459"/><text fill="#000000" font-family="sans-serif" font-size="14" lengthAdjust="spacing" textLength="97.9436" x="2157.03" y="1467.0779">BaseCell* base</text><rect fill="none" height="6" style="stroke:#C82930;stroke-width:1;" width="6" x="2145.03" y="1479.2139"/><text fill="#000000" font-family="sans-serif" font-size="14" lengthAdjust="spacing" textLength="93.9116" x="2157.03" y="1486.1458">Player* owner</text><line style="stroke:#181818;stroke-width:0.5;" x1="2138.03" x2="2259.9736" y1="1494.2478" y2="1494.2478"/></g><!--class Server--><g class="entity" data-entity="Server" data-source-line="56" data-uid="ent0011" id="entity_Server"><rect fill="#F1F1F1" height="48" rx="2.5" ry="2.5" style="stroke:#181818;stroke-width:0.5;" width="74.1538" x="2048.92" y="1562.252"/><ellipse cx="2063.92" cy="1578.252" fill="#ADD1B2" rx="11" ry="11" style="stroke:#181818;stroke-width:1;"/><path d="M2064.0294,1573.7832 Q2063.1075,1573.7832 2062.3731,1574.0957 Q2061.6544,1574.4082 2061.1544,1575.002 Q2060.6544,1575.5801 2060.3731,1576.4551 Q2060.1075,1577.3301 2060.1075,1578.4239 Q2060.1075,1579.8614 2060.545,1580.9082 Q2060.9981,1581.9551 2061.8419,1582.502 Q2062.7013,1583.0489 2064.0138,1583.0489 Q2064.795,1583.0489 2065.4825,1582.9239 Q2066.1856,1582.7832 2067.1856,1582.4707 L2067.1856,1584.3457 Q2066.3263,1584.6739 2065.5606,1584.7989 Q2064.8106,1584.9239 2063.795,1584.9239 Q2061.8731,1584.9239 2060.5606,1584.127 Q2059.2638,1583.3145 2058.6075,1581.8457 Q2057.9513,1580.3614 2057.9513,1578.3926 Q2057.9513,1576.9707 2058.3419,1575.7989 Q2058.7481,1574.6114 2059.5294,1573.7364 Q2060.3106,1572.8614 2061.4513,1572.3926 Q2062.5919,1571.9082 2064.0606,1571.9082 Q2065.0138,1571.9082 2065.9044,1572.1114 Q2066.8106,1572.2989 2067.7481,1572.7676 L2066.92,1574.5489 Q2066.1388,1574.1739 2065.4825,1573.9864 Q2064.8263,1573.7832 2064.0294,1573.7832 Z " fill="#000000"/><text fill="#000000" font-family="sans-serif" font-size="14" lengthAdjust="spacing" textLength="42.1538" x="2077.92" y="1583.684">Server</text><line style="stroke:#181818;stroke-width:0.5;" x1="2049.92" x2="2122.0738" y1="1594.252" y2="1594.252"/><line style="stroke:#181818;stroke-width:0.5;" x1="2049.92" x2="2122.0738" y1="1602.252" y2="1602.252"/></g><!--class Firewall--><g class="entity" data-entity="Firewall" data-source-line="59" data-uid="ent0012" id="entity_Firewall"><rect fill="#F1F1F1" height="48" rx="2.5" ry="2.5" style="stroke:#181818;stroke-width:0.5;" width="82.6378" x="2157.68" y="1562.252"/><ellipse cx="2172.68" cy="1578.252" fill="#ADD1B2" rx="11" ry="11" style="stroke:#181818;stroke-width:1;"/><path d="M2172.7894,1573.7832 Q2171.8675,1573.7832 2171.1331,1574.0957 Q2170.4144,1574.4082 2169.9144,1575.002 Q2169.4144,1575.5801 2169.1331,1576.4551 Q2168.8675,1577.3301 2168.8675,1578.4239 Q2168.8675,1579.8614 2169.305,1580.9082 Q2169.7581,1581.9551 2170.6019,1582.502 Q2171.4613,1583.0489 2172.7738,1583.0489 Q2173.555,1583.0489 2174.2425,1582.9239 Q2174.9456,1582.7832 2175.9456,1582.4707 L2175.9456,1584.3457 Q2175.0863,1584.6739 2174.3206,1584.7989 Q2173.5706,1584.9239 2172.555,1584.9239 Q2170.6331,1584.9239 2169.3206,1584.127 Q2168.0238,1583.3145 2167.3675,1581.8457 Q2166.7113,1580.3614 2166.7113,1578.3926 Q2166.7113,1576.9707 2167.1019,1575.7989 Q2167.5081,1574.6114 2168.2894,1573.7364 Q2169.0706,1572.8614 2170.2113,1572.3926 Q2171.3519,1571.9082 2172.8206,1571.9082 Q2173.7738,1571.9082 2174.6644,1572.1114 Q2175.5706,1572.2989 2176.5081,1572.7676 L2175.68,1574.5489 Q2174.8988,1574.1739 2174.2425,1573.9864 Q2173.5863,1573.7832 2172.7894,1573.7832 Z " fill="#000000"/><text fill="#000000" font-family="sans-serif" font-size="14" lengthAdjust="spacing" textLength="50.6378" x="2186.68" y="1583.684">Firewall</text><line style="stroke:#181818;stroke-width:0.5;" x1="2158.68" x2="2239.3178" y1="1594.252" y2="1594.252"/><line style="stroke:#181818;stroke-width:0.5;" x1="2158.68" x2="2239.3178" y1="1602.252" y2="1602.252"/></g><!--class Goal--><g class="entity" data-entity="Goal" data-source-line="62" data-uid="ent0013" id="entity_Goal"><rect fill="#F1F1F1" height="48" rx="2.5" ry="2.5" style="stroke:#181818;stroke-width:0.5;" width="62.1279" x="2274.94" y="1562.252"/><ellipse cx="2289.94" cy="1578.252" fill="#ADD1B2" rx="11" ry="11" style="stroke:#181818;stroke-width:1;"/><path d="M2290.0494,1573.7832 Q2289.1275,1573.7832 2288.3931,1574.0957 Q2287.6744,1574.4082 2287.1744,1575.002 Q2286.6744,1575.5801 2286.3931,1576.4551 Q2286.1275,1577.3301 2286.1275,1578.4239 Q2286.1275,1579.8614 2286.565,1580.9082 Q2287.0181,1581.9551 2287.8619,1582.502 Q2288.7213,1583.0489 2290.0338,1583.0489 Q2290.815,1583.0489 2291.5025,1582.9239 Q2292.2056,1582.7832 2293.2056,1582.4707 L2293.2056,1584.3457 Q2292.3463,1584.6739 2291.5806,1584.7989 Q2290.8306,1584.9239 2289.815,1584.9239 Q2287.8931,1584.9239 2286.5806,1584.127 Q2285.2838,1583.3145 2284.6275,1581.8457 Q2283.9713,1580.3614 2283.9713,1578.3926 Q2283.9713,1576.9707 2284.3619,1575.7989 Q2284.7681,1574.6114 2285.5494,1573.7364 Q2286.3306,1572.8614 2287.4713,1572.3926 Q2288.6119,1571.9082 2290.0806,1571.9082 Q2291.0338,1571.9082 2291.9244,1572.1114 Q2292.8306,1572.2989 2293.7681,1572.7676 L2292.94,1574.5489 Q2292.1588,1574.1739 2291.5025,1573.9864 Q2290.8463,1573.7832 2290.0494,1573.7832 Z " fill="#000000"/><text fill="#000000" font-family="sans-serif" font-size="14" lengthAdjust="spacing" textLength="30.1279" x="2303.94" y="1583.684">Goal</text><line style="stroke:#181818;stroke-width:0.5;" x1="2275.94" x2="2336.0679" y1="1594.252" y2="1594.252"/><line style="stroke:#181818;stroke-width:0.5;" x1="2275.94" x2="2336.0679" y1="1602.252" y2="1602.252"/></g><!--class Player--><g class="entity" data-entity="Player" data-source-line="65" data-uid="ent0014" id="entity_Player"><rect fill="#F1F1F1" height="200.5433" rx="2.5" ry="2.5" style="stroke:#181818;stroke-width:0.5;" width="216.6093" x="1763.7" y="583.692"/><ellipse cx="1847.3777" cy="599.692" fill="#ADD1B2" rx="11" ry="11" style="stroke:#181818;stroke-width:1;"/><path d="M1847.4871,595.2232 Q1846.5652,595.2232 1845.8308,595.5357 Q1845.1121,595.8482 1844.6121,596.442 Q1844.1121,597.0201 1843.8308,597.8951 Q1843.5652,598.7701 1843.5652,599.8639 Q1843.5652,601.3014 1844.0027,602.3482 Q1844.4558,603.3951 1845.2996,603.942 Q1846.159,604.4889 1847.4715,604.4889 Q1848.2527,604.4889 1848.9402,604.3639 Q1849.6433,604.2232 1850.6433,603.9107 L1850.6433,605.7857 Q1849.784,606.1139 1849.0183,606.2389 Q1848.2683,606.3639 1847.2527,606.3639 Q1845.3308,606.3639 1844.0183,605.567 Q1842.7215,604.7545 1842.0652,603.2857 Q1841.409,601.8014 1841.409,599.8326 Q1841.409,598.4107 1841.7996,597.2389 Q1842.2058,596.0514 1842.9871,595.1764 Q1843.7683,594.3014 1844.909,593.8326 Q1846.0496,593.3482 1847.5183,593.3482 Q1848.4715,593.3482 1849.3621,593.5514 Q1850.2683,593.7389 1851.2058,594.2076 L1850.3777,595.9889 Q1849.5965,595.6139 1848.9402,595.4264 Q1848.284,595.2232 1847.4871,595.2232 Z " fill="#000000"/><text fill="#000000" font-family="sans-serif" font-size="14" lengthAdjust="spacing" textLength="40.7538" x="1867.8777" y="605.124">Player</text><line style="stroke:#181818;stroke-width:0.5;" x1="1764.7" x2="1979.3093" y1="615.692" y2="615.692"/><rect fill="none" height="6" style="stroke:#C82930;stroke-width:1;" width="6" x="1771.7" y="627.7259"/><text fill="#000000" font-family="sans-serif" font-size="14" lengthAdjust="spacing" textLength="145.6554" x="1783.7" y="634.6579">pair&lt;int, int&gt; getScore</text><rect fill="none" height="6" style="stroke:#C82930;stroke-width:1;" width="6" x="1771.7" y="646.7939"/><text fill="#000000" font-family="sans-serif" font-size="14" lengthAdjust="spacing" textLength="159.5574" x="1783.7" y="653.7258">vector&lt;Ability*&gt; abilities</text><rect fill="none" height="6" style="stroke:#C82930;stroke-width:1;" width="6" x="1771.7" y="665.8618"/><text fill="#000000" font-family="sans-serif" font-size="14" lengthAdjust="spacing" textLength="125.5375" x="1783.7" y="672.7938">vector&lt;Link*&gt; links</text><line style="stroke:#181818;stroke-width:0.5;" x1="1764.7" x2="1979.3093" y1="680.8957" y2="680.8957"/><ellipse cx="1774.7" cy="695.9297" fill="#84BE84" rx="3" ry="3" style="stroke:#038048;stroke-width:1;"/><text fill="#000000" font-family="sans-serif" font-size="14" lengthAdjust="spacing" textLength="154.0554" x="1783.7" y="699.8617">pair&lt;int, int&gt; getScore()</text><ellipse cx="1774.7" cy="714.9976" fill="#84BE84" rx="3" ry="3" style="stroke:#038048;stroke-width:1;"/><text fill="#000000" font-family="sans-serif" font-size="14" lengthAdjust="spacing" textLength="190.6093" x="1783.7" y="718.9296">vector&lt;Ability*&gt; getAbilities()</text><ellipse cx="1774.7" cy="734.0655" fill="#84BE84" rx="3" ry="3" style="stroke:#038048;stroke-width:1;"/><text fill="#000000" font-family="sans-serif" font-size="14" lengthAdjust="spacing" textLength="166.9073" x="1783.7" y="737.9975">void download(Link* link)</text><ellipse cx="1774.7" cy="753.1334" fill="#84BE84" rx="3" ry="3" style="stroke:#038048;stroke-width:1;"/><text fill="#000000" font-family="sans-serif" font-size="14" lengthAdjust="spacing" textLength="169.6653" x="1783.7" y="757.0654">void deleteLink(Link* link)</text><ellipse cx="1774.7" cy="772.2014" fill="#84BE84" rx="3" ry="3" style="stroke:#038048;stroke-width:1;"/><text fill="#000000" font-family="sans-serif" font-size="14" lengthAdjust="spacing" textLength="151.4654" x="1783.7" y="776.1333">Link* getLink(char link)</text></g><!--class Link--><g class="entity" data-entity="Link" data-source-line="77" data-uid="ent0015" id="entity_Link"><rect fill="#F1F1F1" height="219.6113" rx="2.5" ry="2.5" style="stroke:#181818;stroke-width:0.5;" width="294.365" x="1176.82" y="844.232"/><ellipse cx="1307.0825" cy="860.232" fill="#A9DCDF" rx="11" ry="11" style="stroke:#181818;stroke-width:1;"/><path d="M1310.4263,865.482 L1308.9575,861.732 L1304.52,861.732 L1303.0825,865.482 L1300.9575,865.482 L1305.9107,852.7632 L1307.6607,852.7632 L1312.5825,865.482 L1310.4263,865.482 Z M1307.0825,856.5289 Q1307.0357,856.3726 1306.9107,856.0132 Q1306.7857,855.6539 1306.6763,855.2789 Q1306.5669,854.8882 1306.77,854.8257 Q1306.9263,855.0132 1306.8325,855.3726 Q1306.7388,855.7164 1306.645,856.0132 Q1306.5513,856.2945 1306.4732,856.5289 L1305.2388,859.8414 L1308.3169,859.8414 L1307.0825,856.5289 Z " fill="#000000"/><text fill="#000000" font-family="sans-serif" font-size="14" font-style="italic" lengthAdjust="spacing" textLength="25.3399" x="1327.5825" y="865.664">Link</text><line style="stroke:#181818;stroke-width:0.5;" x1="1177.82" x2="1470.185" y1="876.232" y2="876.232"/><rect fill="none" height="6" style="stroke:#C82930;stroke-width:1;" width="6" x="1184.82" y="888.2659"/><text fill="#000000" font-family="sans-serif" font-size="14" lengthAdjust="spacing" textLength="132.2995" x="1196.82" y="895.1979">pair&lt;int, int&gt; coords</text><rect fill="none" height="6" style="stroke:#C82930;stroke-width:1;" width="6" x="1184.82" y="907.3339"/><text fill="#000000" font-family="sans-serif" font-size="14" lengthAdjust="spacing" textLength="77.3637" x="1196.82" y="914.2658">int strength</text><rect fill="none" height="6" style="stroke:#C82930;stroke-width:1;" width="6" x="1184.82" y="926.4018"/><text fill="#000000" font-family="sans-serif" font-size="14" lengthAdjust="spacing" textLength="106.4976" x="1196.82" y="933.3338">bool revealState</text><line style="stroke:#181818;stroke-width:0.5;" x1="1177.82" x2="1470.185" y1="941.4357" y2="941.4357"/><ellipse cx="1187.82" cy="956.4697" fill="#84BE84" rx="3" ry="3" style="stroke:#038048;stroke-width:1;"/><text fill="#000000" font-family="sans-serif" font-size="14" lengthAdjust="spacing" textLength="164.3874" x="1196.82" y="960.4017">pair&lt;int, int&gt; getCoords()</text><ellipse cx="1187.82" cy="975.5376" fill="#84BE84" rx="3" ry="3" style="stroke:#038048;stroke-width:1;"/><text fill="#000000" font-family="sans-serif" font-size="14" lengthAdjust="spacing" textLength="268.365" x="1196.82" y="979.4696">void setCoords(pair&lt;int, int&gt; newCoords)</text><ellipse cx="1187.82" cy="994.6055" fill="#84BE84" rx="3" ry="3" style="stroke:#038048;stroke-width:1;"/><text fill="#000000" font-family="sans-serif" font-size="14" lengthAdjust="spacing" textLength="208.2772" x="1196.82" y="998.5375">void requestMove(Direction dir)</text><ellipse cx="1187.82" cy="1013.6734" fill="#84BE84" rx="3" ry="3" style="stroke:#038048;stroke-width:1;"/><text fill="#000000" font-family="sans-serif" font-size="14" lengthAdjust="spacing" textLength="108.3036" x="1196.82" y="1017.6054">int getStrength()</text><ellipse cx="1187.82" cy="1032.7414" fill="#84BE84" rx="3" ry="3" style="stroke:#038048;stroke-width:1;"/><text fill="#000000" font-family="sans-serif" font-size="14" lengthAdjust="spacing" textLength="123.5355" x="1196.82" y="1036.6733">LinkType getType()</text><ellipse cx="1187.82" cy="1051.8093" fill="#84BE84" rx="3" ry="3" style="stroke:#038048;stroke-width:1;"/><text fill="#000000" font-family="sans-serif" font-size="14" lengthAdjust="spacing" textLength="126.4755" x="1196.82" y="1055.7413">bool getRevealSet()</text></g><!--class VirusLink--><g class="entity" data-entity="VirusLink" data-source-line="90" data-uid="ent0016" id="entity_VirusLink"><rect fill="#F1F1F1" height="48" rx="2.5" ry="2.5" style="stroke:#181818;stroke-width:0.5;" width="92.2278" x="1214.89" y="1142.912"/><ellipse cx="1229.89" cy="1158.912" fill="#ADD1B2" rx="11" ry="11" style="stroke:#181818;stroke-width:1;"/><path d="M1229.9994,1154.4432 Q1229.0775,1154.4432 1228.3431,1154.7557 Q1227.6244,1155.0682 1227.1244,1155.662 Q1226.6244,1156.2401 1226.3431,1157.1151 Q1226.0775,1157.9901 1226.0775,1159.0839 Q1226.0775,1160.5214 1226.515,1161.5682 Q1226.9681,1162.6151 1227.8119,1163.162 Q1228.6713,1163.7089 1229.9838,1163.7089 Q1230.765,1163.7089 1231.4525,1163.5839 Q1232.1556,1163.4432 1233.1556,1163.1307 L1233.1556,1165.0057 Q1232.2963,1165.3339 1231.5306,1165.4589 Q1230.7806,1165.5839 1229.765,1165.5839 Q1227.8431,1165.5839 1226.5306,1164.787 Q1225.2338,1163.9745 1224.5775,1162.5057 Q1223.9213,1161.0214 1223.9213,1159.0526 Q1223.9213,1157.6307 1224.3119,1156.4589 Q1224.7181,1155.2714 1225.4994,1154.3964 Q1226.2806,1153.5214 1227.4213,1153.0526 Q1228.5619,1152.5682 1230.0306,1152.5682 Q1230.9838,1152.5682 1231.8744,1152.7714 Q1232.7806,1152.9589 1233.7181,1153.4276 L1232.89,1155.2089 Q1232.1088,1154.8339 1231.4525,1154.6464 Q1230.7963,1154.4432 1229.9994,1154.4432 Z " fill="#000000"/><text fill="#000000" font-family="sans-serif" font-size="14" lengthAdjust="spacing" textLength="60.2278" x="1243.89" y="1164.344">VirusLink</text><line style="stroke:#181818;stroke-width:0.5;" x1="1215.89" x2="1306.1178" y1="1174.912" y2="1174.912"/><line style="stroke:#181818;stroke-width:0.5;" x1="1215.89" x2="1306.1178" y1="1182.912" y2="1182.912"/></g><!--class DataLink--><g class="entity" data-entity="DataLink" data-source-line="93" data-uid="ent0017" id="entity_DataLink"><rect fill="#F1F1F1" height="48" rx="2.5" ry="2.5" style="stroke:#181818;stroke-width:0.5;" width="90.0578" x="1341.97" y="1142.912"/><ellipse cx="1356.97" cy="1158.912" fill="#ADD1B2" rx="11" ry="11" style="stroke:#181818;stroke-width:1;"/><path d="M1357.0794,1154.4432 Q1356.1575,1154.4432 1355.4231,1154.7557 Q1354.7044,1155.0682 1354.2044,1155.662 Q1353.7044,1156.2401 1353.4231,1157.1151 Q1353.1575,1157.9901 1353.1575,1159.0839 Q1353.1575,1160.5214 1353.595,1161.5682 Q1354.0481,1162.6151 1354.8919,1163.162 Q1355.7513,1163.7089 1357.0638,1163.7089 Q1357.845,1163.7089 1358.5325,1163.5839 Q1359.2356,1163.4432 1360.2356,1163.1307 L1360.2356,1165.0057 Q1359.3763,1165.3339 1358.6106,1165.4589 Q1357.8606,1165.5839 1356.845,1165.5839 Q1354.9231,1165.5839 1353.6106,1164.787 Q1352.3138,1163.9745 1351.6575,1162.5057 Q1351.0013,1161.0214 1351.0013,1159.0526 Q1351.0013,1157.6307 1351.3919,1156.4589 Q1351.7981,1155.2714 1352.5794,1154.3964 Q1353.3606,1153.5214 1354.5013,1153.0526 Q1355.6419,1152.5682 1357.1106,1152.5682 Q1358.0638,1152.5682 1358.9544,1152.7714 Q1359.8606,1152.9589 1360.7981,1153.4276 L1359.97,1155.2089 Q1359.1888,1154.8339 1358.5325,1154.6464 Q1357.8763,1154.4432 1357.0794,1154.4432 Z " fill="#000000"/><text fill="#000000" font-family="sans-serif" font-size="14" lengthAdjust="spacing" textLength="58.0578" x="1370.97" y="1164.344">DataLink</text><line style="stroke:#181818;stroke-width:0.5;" x1="1342.97" x2="1431.0278" y1="1174.912" y2="1174.912"/><line style="stroke:#181818;stroke-width:0.5;" x1="1342.97" x2="1431.0278" y1="1182.912" y2="1182.912"/></g><!--class LinkDecorator--><g class="entity" data-entity="LinkDecorator" data-source-line="96" data-uid="ent0018" id="entity_LinkDecorator"><rect fill="#F1F1F1" height="67.0679" rx="2.5" ry="2.5" style="stroke:#181818;stroke-width:0.5;" width="119.5137" x="1060.24" y="1133.382"/><ellipse cx="1075.24" cy="1149.382" fill="#A9DCDF" rx="11" ry="11" style="stroke:#181818;stroke-width:1;"/><path d="M1078.5838,1154.632 L1077.115,1150.882 L1072.6775,1150.882 L1071.24,1154.632 L1069.115,1154.632 L1074.0681,1141.9132 L1075.8181,1141.9132 L1080.74,1154.632 L1078.5838,1154.632 Z M1075.24,1145.6789 Q1075.1931,1145.5226 1075.0681,1145.1632 Q1074.9431,1144.8039 1074.8338,1144.4289 Q1074.7244,1144.0382 1074.9275,1143.9757 Q1075.0838,1144.1632 1074.99,1144.5226 Q1074.8963,1144.8664 1074.8025,1145.1632 Q1074.7088,1145.4445 1074.6306,1145.6789 L1073.3963,1148.9914 L1076.4744,1148.9914 L1075.24,1145.6789 Z " fill="#000000"/><text fill="#000000" font-family="sans-serif" font-size="14" font-style="italic" lengthAdjust="spacing" textLength="87.5137" x="1089.24" y="1154.814">LinkDecorator</text><line style="stroke:#181818;stroke-width:0.5;" x1="1061.24" x2="1178.7537" y1="1165.382" y2="1165.382"/><polygon fill="none" points="1071.24,1175.4159,1075.24,1179.4159,1071.24,1183.4159,1067.24,1179.4159" style="stroke:#B38D22;stroke-width:1;"/><text fill="#000000" font-family="sans-serif" font-size="14" lengthAdjust="spacing" textLength="69.4957" x="1080.24" y="1184.3479">Link* base</text><line style="stroke:#181818;stroke-width:0.5;" x1="1061.24" x2="1178.7537" y1="1192.4499" y2="1192.4499"/></g><!--class LinkBoostDecorator--><g class="entity" data-entity="LinkBoostDecorator" data-source-line="100" data-uid="ent0019" id="entity_LinkBoostDecorator"><rect fill="#F1F1F1" height="48" rx="2.5" ry="2.5" style="stroke:#181818;stroke-width:0.5;" width="163.1235" x="1060.44" y="1289.052"/><ellipse cx="1075.44" cy="1305.052" fill="#ADD1B2" rx="11" ry="11" style="stroke:#181818;stroke-width:1;"/><path d="M1075.5494,1300.5832 Q1074.6275,1300.5832 1073.8931,1300.8957 Q1073.1744,1301.2082 1072.6744,1301.802 Q1072.1744,1302.3801 1071.8931,1303.2551 Q1071.6275,1304.1301 1071.6275,1305.2239 Q1071.6275,1306.6614 1072.065,1307.7082 Q1072.5181,1308.7551 1073.3619,1309.302 Q1074.2213,1309.8489 1075.5338,1309.8489 Q1076.315,1309.8489 1077.0025,1309.7239 Q1077.7056,1309.5832 1078.7056,1309.2707 L1078.7056,1311.1457 Q1077.8463,1311.4739 1077.0806,1311.5989 Q1076.3306,1311.7239 1075.315,1311.7239 Q1073.3931,1311.7239 1072.0806,1310.927 Q1070.7838,1310.1145 1070.1275,1308.6457 Q1069.4713,1307.1614 1069.4713,1305.1926 Q1069.4713,1303.7707 1069.8619,1302.5989 Q1070.2681,1301.4114 1071.0494,1300.5364 Q1071.8306,1299.6614 1072.9713,1299.1926 Q1074.1119,1298.7082 1075.5806,1298.7082 Q1076.5338,1298.7082 1077.4244,1298.9114 Q1078.3306,1299.0989 1079.2681,1299.5676 L1078.44,1301.3489 Q1077.6588,1300.9739 1077.0025,1300.7864 Q1076.3463,1300.5832 1075.5494,1300.5832 Z " fill="#000000"/><text fill="#000000" font-family="sans-serif" font-size="14" lengthAdjust="spacing" textLength="131.1235" x="1089.44" y="1310.484">LinkBoostDecorator</text><line style="stroke:#181818;stroke-width:0.5;" x1="1061.44" x2="1222.5635" y1="1321.052" y2="1321.052"/><line style="stroke:#181818;stroke-width:0.5;" x1="1061.44" x2="1222.5635" y1="1329.052" y2="1329.052"/></g><!--class PolarizeDecorator--><g class="entity" data-entity="PolarizeDecorator" data-source-line="103" data-uid="ent0020" id="entity_PolarizeDecorator"><rect fill="#F1F1F1" height="48" rx="2.5" ry="2.5" style="stroke:#181818;stroke-width:0.5;" width="150.5236" x="1258.74" y="1289.052"/><ellipse cx="1273.74" cy="1305.052" fill="#ADD1B2" rx="11" ry="11" style="stroke:#181818;stroke-width:1;"/><path d="M1273.8494,1300.5832 Q1272.9275,1300.5832 1272.1931,1300.8957 Q1271.4744,1301.2082 1270.9744,1301.802 Q1270.4744,1302.3801 1270.1931,1303.2551 Q1269.9275,1304.1301 1269.9275,1305.2239 Q1269.9275,1306.6614 1270.365,1307.7082 Q1270.8181,1308.7551 1271.6619,1309.302 Q1272.5213,1309.8489 1273.8338,1309.8489 Q1274.615,1309.8489 1275.3025,1309.7239 Q1276.0056,1309.5832 1277.0056,1309.2707 L1277.0056,1311.1457 Q1276.1463,1311.4739 1275.3806,1311.5989 Q1274.6306,1311.7239 1273.615,1311.7239 Q1271.6931,1311.7239 1270.3806,1310.927 Q1269.0838,1310.1145 1268.4275,1308.6457 Q1267.7713,1307.1614 1267.7713,1305.1926 Q1267.7713,1303.7707 1268.1619,1302.5989 Q1268.5681,1301.4114 1269.3494,1300.5364 Q1270.1306,1299.6614 1271.2713,1299.1926 Q1272.4119,1298.7082 1273.8806,1298.7082 Q1274.8338,1298.7082 1275.7244,1298.9114 Q1276.6306,1299.0989 1277.5681,1299.5676 L1276.74,1301.3489 Q1275.9588,1300.9739 1275.3025,1300.7864 Q1274.6463,1300.5832 1273.8494,1300.5832 Z " fill="#000000"/><text fill="#000000" font-family="sans-serif" font-size="14" lengthAdjust="spacing" textLength="118.5236" x="1287.74" y="1310.484">PolarizeDecorator</text><line style="stroke:#181818;stroke-width:0.5;" x1="1259.74" x2="1408.2636" y1="1321.052" y2="1321.052"/><line style="stroke:#181818;stroke-width:0.5;" x1="1259.74" x2="1408.2636" y1="1329.052" y2="1329.052"/></g><!--class RevealDecorator--><g class="entity" data-entity="RevealDecorator" data-source-line="106" data-uid="ent0021" id="entity_RevealDecorator"><rect fill="#F1F1F1" height="48" rx="2.5" ry="2.5" style="stroke:#181818;stroke-width:0.5;" width="141.3256" x="1444.34" y="1289.052"/><ellipse cx="1459.34" cy="1305.052" fill="#ADD1B2" rx="11" ry="11" style="stroke:#181818;stroke-width:1;"/><path d="M1459.4494,1300.5832 Q1458.5275,1300.5832 1457.7931,1300.8957 Q1457.0744,1301.2082 1456.5744,1301.802 Q1456.0744,1302.3801 1455.7931,1303.2551 Q1455.5275,1304.1301 1455.5275,1305.2239 Q1455.5275,1306.6614 1455.965,1307.7082 Q1456.4181,1308.7551 1457.2619,1309.302 Q1458.1213,1309.8489 1459.4338,1309.8489 Q1460.215,1309.8489 1460.9025,1309.7239 Q1461.6056,1309.5832 1462.6056,1309.2707 L1462.6056,1311.1457 Q1461.7463,1311.4739 1460.9806,1311.5989 Q1460.2306,1311.7239 1459.215,1311.7239 Q1457.2931,1311.7239 1455.9806,1310.927 Q1454.6838,1310.1145 1454.0275,1308.6457 Q1453.3713,1307.1614 1453.3713,1305.1926 Q1453.3713,1303.7707 1453.7619,1302.5989 Q1454.1681,1301.4114 1454.9494,1300.5364 Q1455.7306,1299.6614 1456.8713,1299.1926 Q1458.0119,1298.7082 1459.4806,1298.7082 Q1460.4338,1298.7082 1461.3244,1298.9114 Q1462.2306,1299.0989 1463.1681,1299.5676 L1462.34,1301.3489 Q1461.5588,1300.9739 1460.9025,1300.7864 Q1460.2463,1300.5832 1459.4494,1300.5832 Z " fill="#000000"/><text fill="#000000" font-family="sans-serif" font-size="14" lengthAdjust="spacing" textLength="109.3256" x="1473.34" y="1310.484">RevealDecorator</text><line style="stroke:#181818;stroke-width:0.5;" x1="1445.34" x2="1584.6656" y1="1321.052" y2="1321.052"/><line style="stroke:#181818;stroke-width:0.5;" x1="1445.34" x2="1584.6656" y1="1329.052" y2="1329.052"/></g><!--class LagDecorator--><g class="entity" data-entity="LagDecorator" data-source-line="109" data-uid="ent0022" id="entity_LagDecorator"><rect fill="#F1F1F1" height="67.0679" rx="2.5" ry="2.5" style="stroke:#181818;stroke-width:0.5;" width="122.0477" x="1620.98" y="1279.512"/><ellipse cx="1635.98" cy="1295.512" fill="#ADD1B2" rx="11" ry="11" style="stroke:#181818;stroke-width:1;"/><path d="M1636.0894,1291.0432 Q1635.1675,1291.0432 1634.4331,1291.3557 Q1633.7144,1291.6682 1633.2144,1292.262 Q1632.7144,1292.8401 1632.4331,1293.7151 Q1632.1675,1294.5901 1632.1675,1295.6839 Q1632.1675,1297.1214 1632.605,1298.1682 Q1633.0581,1299.2151 1633.9019,1299.762 Q1634.7613,1300.3089 1636.0738,1300.3089 Q1636.855,1300.3089 1637.5425,1300.1839 Q1638.2456,1300.0432 1639.2456,1299.7307 L1639.2456,1301.6057 Q1638.3863,1301.9339 1637.6206,1302.0589 Q1636.8706,1302.1839 1635.855,1302.1839 Q1633.9331,1302.1839 1632.6206,1301.387 Q1631.3238,1300.5745 1630.6675,1299.1057 Q1630.0113,1297.6214 1630.0113,1295.6526 Q1630.0113,1294.2307 1630.4019,1293.0589 Q1630.8081,1291.8714 1631.5894,1290.9964 Q1632.3706,1290.1214 1633.5113,1289.6526 Q1634.6519,1289.1682 1636.1206,1289.1682 Q1637.0738,1289.1682 1637.9644,1289.3714 Q1638.8706,1289.5589 1639.8081,1290.0276 L1638.98,1291.8089 Q1638.1988,1291.4339 1637.5425,1291.2464 Q1636.8863,1291.0432 1636.0894,1291.0432 Z " fill="#000000"/><text fill="#000000" font-family="sans-serif" font-size="14" lengthAdjust="spacing" textLength="90.0477" x="1649.98" y="1300.944">LagDecorator</text><line style="stroke:#181818;stroke-width:0.5;" x1="1621.98" x2="1742.0277" y1="1311.512" y2="1311.512"/><rect fill="none" height="6" style="stroke:#C82930;stroke-width:1;" width="6" x="1628.98" y="1323.5459"/><text fill="#000000" font-family="sans-serif" font-size="14" lengthAdjust="spacing" textLength="80.9057" x="1640.98" y="1330.4779">int turnsLeft</text><line style="stroke:#181818;stroke-width:0.5;" x1="1621.98" x2="1742.0277" y1="1338.5799" y2="1338.5799"/></g><!--class QuantumEntanglementDecorator--><g class="entity" data-entity="QuantumEntanglementDecorator" data-source-line="113" data-uid="ent0023" id="entity_QuantumEntanglementDecorator"><rect fill="#F1F1F1" height="67.0679" rx="2.5" ry="2.5" style="stroke:#181818;stroke-width:0.5;" width="253.9411" x="1778.03" y="1279.512"/><ellipse cx="1793.03" cy="1295.512" fill="#ADD1B2" rx="11" ry="11" style="stroke:#181818;stroke-width:1;"/><path d="M1793.1394,1291.0432 Q1792.2175,1291.0432 1791.4831,1291.3557 Q1790.7644,1291.6682 1790.2644,1292.262 Q1789.7644,1292.8401 1789.4831,1293.7151 Q1789.2175,1294.5901 1789.2175,1295.6839 Q1789.2175,1297.1214 1789.655,1298.1682 Q1790.1081,1299.2151 1790.9519,1299.762 Q1791.8113,1300.3089 1793.1238,1300.3089 Q1793.905,1300.3089 1794.5925,1300.1839 Q1795.2956,1300.0432 1796.2956,1299.7307 L1796.2956,1301.6057 Q1795.4363,1301.9339 1794.6706,1302.0589 Q1793.9206,1302.1839 1792.905,1302.1839 Q1790.9831,1302.1839 1789.6706,1301.387 Q1788.3738,1300.5745 1787.7175,1299.1057 Q1787.0613,1297.6214 1787.0613,1295.6526 Q1787.0613,1294.2307 1787.4519,1293.0589 Q1787.8581,1291.8714 1788.6394,1290.9964 Q1789.4206,1290.1214 1790.5613,1289.6526 Q1791.7019,1289.1682 1793.1706,1289.1682 Q1794.1238,1289.1682 1795.0144,1289.3714 Q1795.9206,1289.5589 1796.8581,1290.0276 L1796.03,1291.8089 Q1795.2488,1291.4339 1794.5925,1291.2464 Q1793.9363,1291.0432 1793.1394,1291.0432 Z " fill="#000000"/><text fill="#000000" font-family="sans-serif" font-size="14" lengthAdjust="spacing" textLength="221.9411" x="1807.03" y="1300.944">QuantumEntanglementDecorator</text><line style="stroke:#181818;stroke-width:0.5;" x1="1779.03" x2="2030.9711" y1="1311.512" y2="1311.512"/><rect fill="none" height="6" style="stroke:#C82930;stroke-width:1;" width="6" x="1786.03" y="1323.5459"/><text fill="#000000" font-family="sans-serif" font-size="14" lengthAdjust="spacing" textLength="88.0597" x="1798.03" y="1330.4779">Link* partner</text><line style="stroke:#181818;stroke-width:0.5;" x1="1779.03" x2="2030.9711" y1="1338.5799" y2="1338.5799"/></g><!--class Ability--><g class="entity" data-entity="Ability" data-source-line="117" data-uid="ent0024" id="entity_Ability"><rect fill="#F1F1F1" height="162.4075" rx="2.5" ry="2.5" style="stroke:#181818;stroke-width:0.5;" width="137.4956" x="2280.25" y="872.832"/><ellipse cx="2325.7499" cy="888.832" fill="#A9DCDF" rx="11" ry="11" style="stroke:#181818;stroke-width:1;"/><path d="M2329.0936,894.082 L2327.6249,890.332 L2323.1874,890.332 L2321.7499,894.082 L2319.6249,894.082 L2324.578,881.3632 L2326.328,881.3632 L2331.2499,894.082 L2329.0936,894.082 Z M2325.7499,885.1289 Q2325.703,884.9726 2325.578,884.6132 Q2325.453,884.2539 2325.3436,883.8789 Q2325.2342,883.4882 2325.4374,883.4257 Q2325.5936,883.6132 2325.4999,883.9726 Q2325.4061,884.3164 2325.3124,884.6132 Q2325.2186,884.8945 2325.1405,885.1289 L2323.9061,888.4414 L2326.9842,888.4414 L2325.7499,885.1289 Z " fill="#000000"/><text fill="#000000" font-family="sans-serif" font-size="14" font-style="italic" lengthAdjust="spacing" textLength="37.9958" x="2346.2499" y="894.264">Ability</text><line style="stroke:#181818;stroke-width:0.5;" x1="2281.25" x2="2416.7456" y1="904.832" y2="904.832"/><rect fill="none" height="6" style="stroke:#C82930;stroke-width:1;" width="6" x="2288.25" y="916.8659"/><text fill="#000000" font-family="sans-serif" font-size="14" lengthAdjust="spacing" textLength="79.5477" x="2300.25" y="923.7979">string name</text><rect fill="none" height="6" style="stroke:#C82930;stroke-width:1;" width="6" x="2288.25" y="935.9339"/><text fill="#000000" font-family="sans-serif" font-size="14" lengthAdjust="spacing" textLength="64.6658" x="2300.25" y="942.8658">bool used</text><line style="stroke:#181818;stroke-width:0.5;" x1="2281.25" x2="2416.7456" y1="950.9678" y2="950.9678"/><ellipse cx="2291.25" cy="966.0018" fill="#84BE84" rx="3" ry="3" style="stroke:#038048;stroke-width:1;"/><text fill="#000000" font-family="sans-serif" font-size="14" lengthAdjust="spacing" textLength="63.0977" x="2300.25" y="969.9338">void use()</text><ellipse cx="2291.25" cy="985.0697" fill="#84BE84" rx="3" ry="3" style="stroke:#038048;stroke-width:1;"/><text fill="#000000" font-family="sans-serif" font-size="14" lengthAdjust="spacing" textLength="84.9657" x="2300.25" y="989.0017">bool isUsed()</text><ellipse cx="2291.25" cy="1004.1376" fill="#84BE84" rx="3" ry="3" style="stroke:#038048;stroke-width:1;"/><text fill="#000000" font-family="sans-serif" font-size="14" lengthAdjust="spacing" textLength="107.4916" x="2300.25" y="1008.0696">void markUsed()</text><ellipse cx="2291.25" cy="1023.2055" fill="#84BE84" rx="3" ry="3" style="stroke:#038048;stroke-width:1;"/><text fill="#000000" font-family="sans-serif" font-size="14" lengthAdjust="spacing" textLength="111.4956" x="2300.25" y="1027.1375">string getName()</text></g><!--class FirewallAbility--><g class="entity" data-entity="FirewallAbility" data-source-line="127" data-uid="ent0025" id="entity_FirewallAbility"><rect fill="#F1F1F1" height="48" rx="2.5" ry="2.5" style="stroke:#181818;stroke-width:0.5;" width="123.2236" x="2766.39" y="1142.912"/><ellipse cx="2781.39" cy="1158.912" fill="#ADD1B2" rx="11" ry="11" style="stroke:#181818;stroke-width:1;"/><path d="M2781.4994,1154.4432 Q2780.5775,1154.4432 2779.8431,1154.7557 Q2779.1244,1155.0682 2778.6244,1155.662 Q2778.1244,1156.2401 2777.8431,1157.1151 Q2777.5775,1157.9901 2777.5775,1159.0839 Q2777.5775,1160.5214 2778.015,1161.5682 Q2778.4681,1162.6151 2779.3119,1163.162 Q2780.1713,1163.7089 2781.4838,1163.7089 Q2782.265,1163.7089 2782.9525,1163.5839 Q2783.6556,1163.4432 2784.6556,1163.1307 L2784.6556,1165.0057 Q2783.7963,1165.3339 2783.0306,1165.4589 Q2782.2806,1165.5839 2781.265,1165.5839 Q2779.3431,1165.5839 2778.0306,1164.787 Q2776.7338,1163.9745 2776.0775,1162.5057 Q2775.4213,1161.0214 2775.4213,1159.0526 Q2775.4213,1157.6307 2775.8119,1156.4589 Q2776.2181,1155.2714 2776.9994,1154.3964 Q2777.7806,1153.5214 2778.9213,1153.0526 Q2780.0619,1152.5682 2781.5306,1152.5682 Q2782.4838,1152.5682 2783.3744,1152.7714 Q2784.2806,1152.9589 2785.2181,1153.4276 L2784.39,1155.2089 Q2783.6088,1154.8339 2782.9525,1154.6464 Q2782.2963,1154.4432 2781.4994,1154.4432 Z " fill="#000000"/><text fill="#000000" font-family="sans-serif" font-size="14" lengthAdjust="spacing" textLength="91.2236" x="2795.39" y="1164.344">FirewallAbility</text><line style="stroke:#181818;stroke-width:0.5;" x1="2767.39" x2="2888.6136" y1="1174.912" y2="1174.912"/><line style="stroke:#181818;stroke-width:0.5;" x1="2767.39" x2="2888.6136" y1="1182.912" y2="1182.912"/></g><!--class DownloadAbility--><g class="entity" data-entity="DownloadAbility" data-source-line="130" data-uid="ent0026" id="entity_DownloadAbility"><rect fill="#F1F1F1" height="48" rx="2.5" ry="2.5" style="stroke:#181818;stroke-width:0.5;" width="139.4776" x="2924.26" y="1142.912"/><ellipse cx="2939.26" cy="1158.912" fill="#ADD1B2" rx="11" ry="11" style="stroke:#181818;stroke-width:1;"/><path d="M2939.3694,1154.4432 Q2938.4475,1154.4432 2937.7131,1154.7557 Q2936.9944,1155.0682 2936.4944,1155.662 Q2935.9944,1156.2401 2935.7131,1157.1151 Q2935.4475,1157.9901 2935.4475,1159.0839 Q2935.4475,1160.5214 2935.885,1161.5682 Q2936.3381,1162.6151 2937.1819,1163.162 Q2938.0413,1163.7089 2939.3538,1163.7089 Q2940.135,1163.7089 2940.8225,1163.5839 Q2941.5256,1163.4432 2942.5256,1163.1307 L2942.5256,1165.0057 Q2941.6663,1165.3339 2940.9006,1165.4589 Q2940.1506,1165.5839 2939.135,1165.5839 Q2937.2131,1165.5839 2935.9006,1164.787 Q2934.6038,1163.9745 2933.9475,1162.5057 Q2933.2913,1161.0214 2933.2913,1159.0526 Q2933.2913,1157.6307 2933.6819,1156.4589 Q2934.0881,1155.2714 2934.8694,1154.3964 Q2935.6506,1153.5214 2936.7913,1153.0526 Q2937.9319,1152.5682 2939.4006,1152.5682 Q2940.3538,1152.5682 2941.2444,1152.7714 Q2942.1506,1152.9589 2943.0881,1153.4276 L2942.26,1155.2089 Q2941.4788,1154.8339 2940.8225,1154.6464 Q2940.1663,1154.4432 2939.3694,1154.4432 Z " fill="#000000"/><text fill="#000000" font-family="sans-serif" font-size="14" lengthAdjust="spacing" textLength="107.4776" x="2953.26" y="1164.344">DownloadAbility</text><line style="stroke:#181818;stroke-width:0.5;" x1="2925.26" x2="3062.7376" y1="1174.912" y2="1174.912"/><line style="stroke:#181818;stroke-width:0.5;" x1="2925.26" x2="3062.7376" y1="1182.912" y2="1182.912"/></g><!--class PolarizeAbility--><g class="entity" data-entity="PolarizeAbility" data-source-line="133" data-uid="ent0027" id="entity_PolarizeAbility"><rect fill="#F1F1F1" height="48" rx="2.5" ry="2.5" style="stroke:#181818;stroke-width:0.5;" width="124.8616" x="3098.57" y="1142.912"/><ellipse cx="3113.57" cy="1158.912" fill="#ADD1B2" rx="11" ry="11" style="stroke:#181818;stroke-width:1;"/><path d="M3113.6794,1154.4432 Q3112.7575,1154.4432 3112.0231,1154.7557 Q3111.3044,1155.0682 3110.8044,1155.662 Q3110.3044,1156.2401 3110.0231,1157.1151 Q3109.7575,1157.9901 3109.7575,1159.0839 Q3109.7575,1160.5214 3110.195,1161.5682 Q3110.6481,1162.6151 3111.4919,1163.162 Q3112.3513,1163.7089 3113.6638,1163.7089 Q3114.445,1163.7089 3115.1325,1163.5839 Q3115.8356,1163.4432 3116.8356,1163.1307 L3116.8356,1165.0057 Q3115.9763,1165.3339 3115.2106,1165.4589 Q3114.4606,1165.5839 3113.445,1165.5839 Q3111.5231,1165.5839 3110.2106,1164.787 Q3108.9138,1163.9745 3108.2575,1162.5057 Q3107.6013,1161.0214 3107.6013,1159.0526 Q3107.6013,1157.6307 3107.9919,1156.4589 Q3108.3981,1155.2714 3109.1794,1154.3964 Q3109.9606,1153.5214 3111.1013,1153.0526 Q3112.2419,1152.5682 3113.7106,1152.5682 Q3114.6638,1152.5682 3115.5544,1152.7714 Q3116.4606,1152.9589 3117.3981,1153.4276 L3116.57,1155.2089 Q3115.7888,1154.8339 3115.1325,1154.6464 Q3114.4763,1154.4432 3113.6794,1154.4432 Z " fill="#000000"/><text fill="#000000" font-family="sans-serif" font-size="14" lengthAdjust="spacing" textLength="92.8616" x="3127.57" y="1164.344">PolarizeAbility</text><line style="stroke:#181818;stroke-width:0.5;" x1="3099.57" x2="3222.4316" y1="1174.912" y2="1174.912"/><line style="stroke:#181818;stroke-width:0.5;" x1="3099.57" x2="3222.4316" y1="1182.912" y2="1182.912"/></g><!--class ScanAbility--><g class="entity" data-entity="ScanAbility" data-source-line="136" data-uid="ent0028" id="entity_ScanAbility"><rect fill="#F1F1F1" height="48" rx="2.5" ry="2.5" style="stroke:#181818;stroke-width:0.5;" width="103.4977" x="1908.25" y="1142.912"/><ellipse cx="1923.25" cy="1158.912" fill="#ADD1B2" rx="11" ry="11" style="stroke:#181818;stroke-width:1;"/><path d="M1923.3594,1154.4432 Q1922.4375,1154.4432 1921.7031,1154.7557 Q1920.9844,1155.0682 1920.4844,1155.662 Q1919.9844,1156.2401 1919.7031,1157.1151 Q1919.4375,1157.9901 1919.4375,1159.0839 Q1919.4375,1160.5214 1919.875,1161.5682 Q1920.3281,1162.6151 1921.1719,1163.162 Q1922.0313,1163.7089 1923.3438,1163.7089 Q1924.125,1163.7089 1924.8125,1163.5839 Q1925.5156,1163.4432 1926.5156,1163.1307 L1926.5156,1165.0057 Q1925.6563,1165.3339 1924.8906,1165.4589 Q1924.1406,1165.5839 1923.125,1165.5839 Q1921.2031,1165.5839 1919.8906,1164.787 Q1918.5938,1163.9745 1917.9375,1162.5057 Q1917.2813,1161.0214 1917.2813,1159.0526 Q1917.2813,1157.6307 1917.6719,1156.4589 Q1918.0781,1155.2714 1918.8594,1154.3964 Q1919.6406,1153.5214 1920.7813,1153.0526 Q1921.9219,1152.5682 1923.3906,1152.5682 Q1924.3438,1152.5682 1925.2344,1152.7714 Q1926.1406,1152.9589 1927.0781,1153.4276 L1926.25,1155.2089 Q1925.4688,1154.8339 1924.8125,1154.6464 Q1924.1563,1154.4432 1923.3594,1154.4432 Z " fill="#000000"/><text fill="#000000" font-family="sans-serif" font-size="14" lengthAdjust="spacing" textLength="71.4977" x="1937.25" y="1164.344">ScanAbility</text><line style="stroke:#181818;stroke-width:0.5;" x1="1909.25" x2="2010.7477" y1="1174.912" y2="1174.912"/><line style="stroke:#181818;stroke-width:0.5;" x1="1909.25" x2="2010.7477" y1="1182.912" y2="1182.912"/></g><!--class LinkBoostAbility--><g class="entity" data-entity="LinkBoostAbility" data-source-line="139" data-uid="ent0029" id="entity_LinkBoostAbility"><rect fill="#F1F1F1" height="48" rx="2.5" ry="2.5" style="stroke:#181818;stroke-width:0.5;" width="137.4616" x="2046.27" y="1142.912"/><ellipse cx="2061.27" cy="1158.912" fill="#ADD1B2" rx="11" ry="11" style="stroke:#181818;stroke-width:1;"/><path d="M2061.3794,1154.4432 Q2060.4575,1154.4432 2059.7231,1154.7557 Q2059.0044,1155.0682 2058.5044,1155.662 Q2058.0044,1156.2401 2057.7231,1157.1151 Q2057.4575,1157.9901 2057.4575,1159.0839 Q2057.4575,1160.5214 2057.895,1161.5682 Q2058.3481,1162.6151 2059.1919,1163.162 Q2060.0513,1163.7089 2061.3638,1163.7089 Q2062.145,1163.7089 2062.8325,1163.5839 Q2063.5356,1163.4432 2064.5356,1163.1307 L2064.5356,1165.0057 Q2063.6763,1165.3339 2062.9106,1165.4589 Q2062.1606,1165.5839 2061.145,1165.5839 Q2059.2231,1165.5839 2057.9106,1164.787 Q2056.6138,1163.9745 2055.9575,1162.5057 Q2055.3013,1161.0214 2055.3013,1159.0526 Q2055.3013,1157.6307 2055.6919,1156.4589 Q2056.0981,1155.2714 2056.8794,1154.3964 Q2057.6606,1153.5214 2058.8013,1153.0526 Q2059.9419,1152.5682 2061.4106,1152.5682 Q2062.3638,1152.5682 2063.2544,1152.7714 Q2064.1606,1152.9589 2065.0981,1153.4276 L2064.27,1155.2089 Q2063.4888,1154.8339 2062.8325,1154.6464 Q2062.1763,1154.4432 2061.3794,1154.4432 Z " fill="#000000"/><text fill="#000000" font-family="sans-serif" font-size="14" lengthAdjust="spacing" textLength="105.4616" x="2075.27" y="1164.344">LinkBoostAbility</text><line style="stroke:#181818;stroke-width:0.5;" x1="2047.27" x2="2182.7316" y1="1174.912" y2="1174.912"/><line style="stroke:#181818;stroke-width:0.5;" x1="2047.27" x2="2182.7316" y1="1182.912" y2="1182.912"/></g><!--class PappleAbility--><g class="entity" data-entity="PappleAbility" data-source-line="142" data-uid="ent0030" id="entity_PappleAbility"><rect fill="#F1F1F1" height="48" rx="2.5" ry="2.5" style="stroke:#181818;stroke-width:0.5;" width="117.6377" x="2219.18" y="1142.912"/><ellipse cx="2234.18" cy="1158.912" fill="#ADD1B2" rx="11" ry="11" style="stroke:#181818;stroke-width:1;"/><path d="M2234.2894,1154.4432 Q2233.3675,1154.4432 2232.6331,1154.7557 Q2231.9144,1155.0682 2231.4144,1155.662 Q2230.9144,1156.2401 2230.6331,1157.1151 Q2230.3675,1157.9901 2230.3675,1159.0839 Q2230.3675,1160.5214 2230.805,1161.5682 Q2231.2581,1162.6151 2232.1019,1163.162 Q2232.9613,1163.7089 2234.2738,1163.7089 Q2235.055,1163.7089 2235.7425,1163.5839 Q2236.4456,1163.4432 2237.4456,1163.1307 L2237.4456,1165.0057 Q2236.5863,1165.3339 2235.8206,1165.4589 Q2235.0706,1165.5839 2234.055,1165.5839 Q2232.1331,1165.5839 2230.8206,1164.787 Q2229.5238,1163.9745 2228.8675,1162.5057 Q2228.2113,1161.0214 2228.2113,1159.0526 Q2228.2113,1157.6307 2228.6019,1156.4589 Q2229.0081,1155.2714 2229.7894,1154.3964 Q2230.5706,1153.5214 2231.7113,1153.0526 Q2232.8519,1152.5682 2234.3206,1152.5682 Q2235.2738,1152.5682 2236.1644,1152.7714 Q2237.0706,1152.9589 2238.0081,1153.4276 L2237.18,1155.2089 Q2236.3988,1154.8339 2235.7425,1154.6464 Q2235.0863,1154.4432 2234.2894,1154.4432 Z " fill="#000000"/><text fill="#000000" font-family="sans-serif" font-size="14" lengthAdjust="spacing" textLength="85.6377" x="2248.18" y="1164.344">PappleAbility</text><line style="stroke:#181818;stroke-width:0.5;" x1="2220.18" x2="2335.8177" y1="1174.912" y2="1174.912"/><line style="stroke:#181818;stroke-width:0.5;" x1="2220.18" x2="2335.8177" y1="1182.912" y2="1182.912"/></g><!--class LagAbility--><g class="entity" data-entity="LagAbility" data-source-line="145" data-uid="ent0031" id="entity_LagAbility"><rect fill="#F1F1F1" height="48" rx="2.5" ry="2.5" style="stroke:#181818;stroke-width:0.5;" width="96.3858" x="2371.81" y="1142.912"/><ellipse cx="2386.81" cy="1158.912" fill="#ADD1B2" rx="11" ry="11" style="stroke:#181818;stroke-width:1;"/><path d="M2386.9194,1154.4432 Q2385.9975,1154.4432 2385.2631,1154.7557 Q2384.5444,1155.0682 2384.0444,1155.662 Q2383.5444,1156.2401 2383.2631,1157.1151 Q2382.9975,1157.9901 2382.9975,1159.0839 Q2382.9975,1160.5214 2383.435,1161.5682 Q2383.8881,1162.6151 2384.7319,1163.162 Q2385.5913,1163.7089 2386.9038,1163.7089 Q2387.685,1163.7089 2388.3725,1163.5839 Q2389.0756,1163.4432 2390.0756,1163.1307 L2390.0756,1165.0057 Q2389.2163,1165.3339 2388.4506,1165.4589 Q2387.7006,1165.5839 2386.685,1165.5839 Q2384.7631,1165.5839 2383.4506,1164.787 Q2382.1538,1163.9745 2381.4975,1162.5057 Q2380.8413,1161.0214 2380.8413,1159.0526 Q2380.8413,1157.6307 2381.2319,1156.4589 Q2381.6381,1155.2714 2382.4194,1154.3964 Q2383.2006,1153.5214 2384.3413,1153.0526 Q2385.4819,1152.5682 2386.9506,1152.5682 Q2387.9038,1152.5682 2388.7944,1152.7714 Q2389.7006,1152.9589 2390.6381,1153.4276 L2389.81,1155.2089 Q2389.0288,1154.8339 2388.3725,1154.6464 Q2387.7163,1154.4432 2386.9194,1154.4432 Z " fill="#000000"/><text fill="#000000" font-family="sans-serif" font-size="14" lengthAdjust="spacing" textLength="64.3858" x="2400.81" y="1164.344">LagAbility</text><line style="stroke:#181818;stroke-width:0.5;" x1="2372.81" x2="2467.1958" y1="1174.912" y2="1174.912"/><line style="stroke:#181818;stroke-width:0.5;" x1="2372.81" x2="2467.1958" y1="1182.912" y2="1182.912"/></g><!--class QuantumEntanglementAbility--><g class="entity" data-entity="QuantumEntanglementAbility" data-source-line="148" data-uid="ent0032" id="entity_QuantumEntanglementAbility"><rect fill="#F1F1F1" height="48" rx="2.5" ry="2.5" style="stroke:#181818;stroke-width:0.5;" width="228.2792" x="2502.86" y="1142.912"/><ellipse cx="2517.86" cy="1158.912" fill="#ADD1B2" rx="11" ry="11" style="stroke:#181818;stroke-width:1;"/><path d="M2517.9694,1154.4432 Q2517.0475,1154.4432 2516.3131,1154.7557 Q2515.5944,1155.0682 2515.0944,1155.662 Q2514.5944,1156.2401 2514.3131,1157.1151 Q2514.0475,1157.9901 2514.0475,1159.0839 Q2514.0475,1160.5214 2514.485,1161.5682 Q2514.9381,1162.6151 2515.7819,1163.162 Q2516.6413,1163.7089 2517.9538,1163.7089 Q2518.735,1163.7089 2519.4225,1163.5839 Q2520.1256,1163.4432 2521.1256,1163.1307 L2521.1256,1165.0057 Q2520.2663,1165.3339 2519.5006,1165.4589 Q2518.7506,1165.5839 2517.735,1165.5839 Q2515.8131,1165.5839 2514.5006,1164.787 Q2513.2038,1163.9745 2512.5475,1162.5057 Q2511.8913,1161.0214 2511.8913,1159.0526 Q2511.8913,1157.6307 2512.2819,1156.4589 Q2512.6881,1155.2714 2513.4694,1154.3964 Q2514.2506,1153.5214 2515.3913,1153.0526 Q2516.5319,1152.5682 2518.0006,1152.5682 Q2518.9538,1152.5682 2519.8444,1152.7714 Q2520.7506,1152.9589 2521.6881,1153.4276 L2520.86,1155.2089 Q2520.0788,1154.8339 2519.4225,1154.6464 Q2518.7663,1154.4432 2517.9694,1154.4432 Z " fill="#000000"/><text fill="#000000" font-family="sans-serif" font-size="14" lengthAdjust="spacing" textLength="196.2792" x="2531.86" y="1164.344">QuantumEntanglementAbility</text><line style="stroke:#181818;stroke-width:0.5;" x1="2503.86" x2="2730.1392" y1="1174.912" y2="1174.912"/><line style="stroke:#181818;stroke-width:0.5;" x1="2503.86" x2="2730.1392" y1="1182.912" y2="1182.912"/></g><!--class View--><g class="entity" data-entity="View" data-source-line="154" data-uid="ent0034" id="entity_View"><rect fill="#F1F1F1" height="105.2038" rx="2.5" ry="2.5" style="stroke:#181818;stroke-width:0.5;" width="196.5893" x="3278.71" y="332.682"/><ellipse cx="3358.5307" cy="348.682" fill="#A9DCDF" rx="11" ry="11" style="stroke:#181818;stroke-width:1;"/><path d="M3361.8745,353.932 L3360.4057,350.182 L3355.9682,350.182 L3354.5307,353.932 L3352.4057,353.932 L3357.3588,341.2132 L3359.1088,341.2132 L3364.0307,353.932 L3361.8745,353.932 Z M3358.5307,344.9789 Q3358.4838,344.8226 3358.3588,344.4632 Q3358.2338,344.1039 3358.1245,343.7289 Q3358.0151,343.3382 3358.2182,343.2757 Q3358.3745,343.4632 3358.2807,343.8226 Q3358.187,344.1664 3358.0932,344.4632 Q3357.9995,344.7445 3357.9213,344.9789 L3356.687,348.2914 L3359.7651,348.2914 L3358.5307,344.9789 Z " fill="#000000"/><text fill="#000000" font-family="sans-serif" font-size="14" font-style="italic" lengthAdjust="spacing" textLength="28.4479" x="3379.0307" y="354.114">View</text><line style="stroke:#181818;stroke-width:0.5;" x1="3279.71" x2="3474.2993" y1="364.682" y2="364.682"/><line style="stroke:#181818;stroke-width:0.5;" x1="3279.71" x2="3474.2993" y1="372.682" y2="372.682"/><ellipse cx="3289.71" cy="387.7159" fill="#84BE84" rx="3" ry="3" style="stroke:#038048;stroke-width:1;"/><text fill="#000000" font-family="sans-serif" font-size="14" lengthAdjust="spacing" textLength="86.5197" x="3298.71" y="391.6479">void update()</text><ellipse cx="3289.71" cy="406.7839" fill="#84BE84" rx="3" ry="3" style="stroke:#038048;stroke-width:1;"/><text fill="#000000" font-family="sans-serif" font-size="14" lengthAdjust="spacing" textLength="85.9877" x="3298.71" y="410.7158">void display()</text><ellipse cx="3289.71" cy="425.8518" fill="#84BE84" rx="3" ry="3" style="stroke:#038048;stroke-width:1;"/><text fill="#000000" font-family="sans-serif" font-size="14" lengthAdjust="spacing" textLength="170.5893" x="3298.71" y="429.7838">void notify(Player* player)</text></g><!--class TextView--><g class="entity" data-entity="TextView" data-source-line="160" data-uid="ent0035" id="entity_TextView"><rect fill="#F1F1F1" height="48" rx="2.5" ry="2.5" style="stroke:#181818;stroke-width:0.5;" width="91.0518" x="3279.47" y="659.962"/><ellipse cx="3294.47" cy="675.962" fill="#ADD1B2" rx="11" ry="11" style="stroke:#181818;stroke-width:1;"/><path d="M3294.5794,671.4932 Q3293.6575,671.4932 3292.9231,671.8057 Q3292.2044,672.1182 3291.7044,672.712 Q3291.2044,673.2901 3290.9231,674.1651 Q3290.6575,675.0401 3290.6575,676.1339 Q3290.6575,677.5714 3291.095,678.6182 Q3291.5481,679.6651 3292.3919,680.212 Q3293.2513,680.7589 3294.5638,680.7589 Q3295.345,680.7589 3296.0325,680.6339 Q3296.7356,680.4932 3297.7356,680.1807 L3297.7356,682.0557 Q3296.8763,682.3839 3296.1106,682.5089 Q3295.3606,682.6339 3294.345,682.6339 Q3292.4231,682.6339 3291.1106,681.837 Q3289.8138,681.0245 3289.1575,679.5557 Q3288.5013,678.0714 3288.5013,676.1026 Q3288.5013,674.6807 3288.8919,673.5089 Q3289.2981,672.3214 3290.0794,671.4464 Q3290.8606,670.5714 3292.0013,670.1026 Q3293.1419,669.6182 3294.6106,669.6182 Q3295.5638,669.6182 3296.4544,669.8214 Q3297.3606,670.0089 3298.2981,670.4776 L3297.47,672.2589 Q3296.6888,671.8839 3296.0325,671.6964 Q3295.3763,671.4932 3294.5794,671.4932 Z " fill="#000000"/><text fill="#000000" font-family="sans-serif" font-size="14" lengthAdjust="spacing" textLength="59.0518" x="3308.47" y="681.394">TextView</text><line style="stroke:#181818;stroke-width:0.5;" x1="3280.47" x2="3369.5218" y1="691.962" y2="691.962"/><line style="stroke:#181818;stroke-width:0.5;" x1="3280.47" x2="3369.5218" y1="699.962" y2="699.962"/></g><!--class GraphicalView--><g class="entity" data-entity="GraphicalView" data-source-line="163" data-uid="ent0036" id="entity_GraphicalView"><rect fill="#F1F1F1" height="48" rx="2.5" ry="2.5" style="stroke:#181818;stroke-width:0.5;" width="125.7996" x="3405.1" y="659.962"/><ellipse cx="3420.1" cy="675.962" fill="#ADD1B2" rx="11" ry="11" style="stroke:#181818;stroke-width:1;"/><path d="M3420.2094,671.4932 Q3419.2875,671.4932 3418.5531,671.8057 Q3417.8344,672.1182 3417.3344,672.712 Q3416.8344,673.2901 3416.5531,674.1651 Q3416.2875,675.0401 3416.2875,676.1339 Q3416.2875,677.5714 3416.725,678.6182 Q3417.1781,679.6651 3418.0219,680.212 Q3418.8813,680.7589 3420.1938,680.7589 Q3420.975,680.7589 3421.6625,680.6339 Q3422.3656,680.4932 3423.3656,680.1807 L3423.3656,682.0557 Q3422.5063,682.3839 3421.7406,682.5089 Q3420.9906,682.6339 3419.975,682.6339 Q3418.0531,682.6339 3416.7406,681.837 Q3415.4438,681.0245 3414.7875,679.5557 Q3414.1313,678.0714 3414.1313,676.1026 Q3414.1313,674.6807 3414.5219,673.5089 Q3414.9281,672.3214 3415.7094,671.4464 Q3416.4906,670.5714 3417.6313,670.1026 Q3418.7719,669.6182 3420.2406,669.6182 Q3421.1938,669.6182 3422.0844,669.8214 Q3422.9906,670.0089 3423.9281,670.4776 L3423.1,672.2589 Q3422.3188,671.8839 3421.6625,671.6964 Q3421.0063,671.4932 3420.2094,671.4932 Z " fill="#000000"/><text fill="#000000" font-family="sans-serif" font-size="14" lengthAdjust="spacing" textLength="93.7996" x="3434.1" y="681.394">GraphicalView</text><line style="stroke:#181818;stroke-width:0.5;" x1="3406.1" x2="3529.8996" y1="691.962" y2="691.962"/><line style="stroke:#181818;stroke-width:0.5;" x1="3406.1" x2="3529.8996" y1="699.962" y2="699.962"/></g><!--class Controller--><g class="entity" data-entity="Controller" data-source-line="169" data-uid="ent0038" id="entity_Controller"><rect fill="#F1F1F1" height="124.2717" rx="2.5" ry="2.5" style="stroke:#181818;stroke-width:0.5;" width="384.7067" x="1977.65" y="44.602"/><ellipse cx="2132.6645" cy="60.602" fill="#ADD1B2" rx="11" ry="11" style="stroke:#181818;stroke-width:1;"/><path d="M2132.7738,56.1332 Q2131.852,56.1332 2131.1176,56.4457 Q2130.3988,56.7582 2129.8988,57.352 Q2129.3988,57.9301 2129.1176,58.8051 Q2128.852,59.6801 2128.852,60.7739 Q2128.852,62.2114 2129.2895,63.2582 Q2129.7426,64.3051 2130.5863,64.852 Q2131.4457,65.3989 2132.7582,65.3989 Q2133.5395,65.3989 2134.227,65.2739 Q2134.9301,65.1332 2135.9301,64.8207 L2135.9301,66.6957 Q2135.0707,67.0239 2134.3051,67.1489 Q2133.5551,67.2739 2132.5395,67.2739 Q2130.6176,67.2739 2129.3051,66.477 Q2128.0082,65.6645 2127.352,64.1957 Q2126.6957,62.7114 2126.6957,60.7426 Q2126.6957,59.3207 2127.0863,58.1489 Q2127.4926,56.9614 2128.2738,56.0864 Q2129.0551,55.2114 2130.1957,54.7426 Q2131.3363,54.2582 2132.8051,54.2582 Q2133.7582,54.2582 2134.6488,54.4614 Q2135.5551,54.6489 2136.4926,55.1176 L2135.6645,56.8989 Q2134.8832,56.5239 2134.227,56.3364 Q2133.5707,56.1332 2132.7738,56.1332 Z " fill="#000000"/><text fill="#000000" font-family="sans-serif" font-size="14" lengthAdjust="spacing" textLength="66.1777" x="2153.1645" y="66.034">Controller</text><line style="stroke:#181818;stroke-width:0.5;" x1="1978.65" x2="2361.3567" y1="76.602" y2="76.602"/><rect fill="none" height="6" style="stroke:#C82930;stroke-width:1;" width="6" x="1985.65" y="88.6359"/><text fill="#000000" font-family="sans-serif" font-size="14" lengthAdjust="spacing" textLength="184.9812" x="1997.65" y="95.5679">vector&lt;vector&lt;View&gt;&gt; views</text><rect fill="none" height="6" style="stroke:#C82930;stroke-width:1;" width="6" x="1985.65" y="107.7039"/><text fill="#000000" font-family="sans-serif" font-size="14" lengthAdjust="spacing" textLength="87.8357" x="1997.65" y="114.6358">Game* game</text><line style="stroke:#181818;stroke-width:0.5;" x1="1978.65" x2="2361.3567" y1="122.7378" y2="122.7378"/><ellipse cx="1988.65" cy="137.7718" fill="#84BE84" rx="3" ry="3" style="stroke:#038048;stroke-width:1;"/><text fill="#000000" font-family="sans-serif" font-size="14" lengthAdjust="spacing" textLength="134.8475" x="1997.65" y="141.7038">void runGameLoop()</text><ellipse cx="1988.65" cy="156.8397" fill="#84BE84" rx="3" ry="3" style="stroke:#038048;stroke-width:1;"/><text fill="#000000" font-family="sans-serif" font-size="14" lengthAdjust="spacing" textLength="358.7067" x="1997.65" y="160.7717">void parseCommand(const std::string&amp; commandLine)</text></g><!--class LinkFactory--><g class="entity" data-entity="LinkFactory" data-source-line="180" data-uid="ent0040" id="entity_LinkFactory"><rect fill="#F1F1F1" height="67.0679" rx="2.5" ry="2.5" style="stroke:#181818;stroke-width:0.5;" width="274.863" x="392.57" y="920.502"/><ellipse cx="488.0707" cy="936.502" fill="#ADD1B2" rx="11" ry="11" style="stroke:#181818;stroke-width:1;"/><path d="M488.18,932.0332 Q487.2582,932.0332 486.5238,932.3457 Q485.805,932.6582 485.305,933.252 Q484.805,933.8301 484.5238,934.7051 Q484.2582,935.5801 484.2582,936.6739 Q484.2582,938.1114 484.6957,939.1582 Q485.1488,940.2051 485.9925,940.752 Q486.8519,941.2989 488.1644,941.2989 Q488.9457,941.2989 489.6332,941.1739 Q490.3363,941.0332 491.3363,940.7207 L491.3363,942.5957 Q490.4769,942.9239 489.7113,943.0489 Q488.9613,943.1739 487.9457,943.1739 Q486.0238,943.1739 484.7113,942.377 Q483.4144,941.5645 482.7582,940.0957 Q482.1019,938.6114 482.1019,936.6426 Q482.1019,935.2207 482.4925,934.0489 Q482.8988,932.8614 483.68,931.9864 Q484.4613,931.1114 485.6019,930.6426 Q486.7425,930.1582 488.2113,930.1582 Q489.1644,930.1582 490.055,930.3614 Q490.9613,930.5489 491.8988,931.0176 L491.0707,932.7989 Q490.2894,932.4239 489.6332,932.2364 Q488.9769,932.0332 488.18,932.0332 Z " fill="#000000"/><text fill="#000000" font-family="sans-serif" font-size="14" lengthAdjust="spacing" textLength="75.3617" x="508.5707" y="941.934">LinkFactory</text><line style="stroke:#181818;stroke-width:0.5;" x1="393.57" x2="666.433" y1="952.502" y2="952.502"/><line style="stroke:#181818;stroke-width:0.5;" x1="393.57" x2="666.433" y1="960.502" y2="960.502"/><ellipse cx="403.57" cy="975.5359" fill="#84BE84" rx="3" ry="3" style="stroke:#038048;stroke-width:1;"/><text fill="#000000" font-family="sans-serif" font-size="14" lengthAdjust="spacing" textLength="248.863" x="412.57" y="979.4679">Link* createPlayerLink(Player* player)</text></g><!--class AbilityFactory--><g class="entity" data-entity="AbilityFactory" data-source-line="184" data-uid="ent0041" id="entity_AbilityFactory"><rect fill="#F1F1F1" height="67.0679" rx="2.5" ry="2.5" style="stroke:#181818;stroke-width:0.5;" width="301.8829" x="702.06" y="920.502"/><ellipse cx="804.3156" cy="936.502" fill="#ADD1B2" rx="11" ry="11" style="stroke:#181818;stroke-width:1;"/><path d="M804.425,932.0332 Q803.5031,932.0332 802.7688,932.3457 Q802.05,932.6582 801.55,933.252 Q801.05,933.8301 800.7688,934.7051 Q800.5031,935.5801 800.5031,936.6739 Q800.5031,938.1114 800.9406,939.1582 Q801.3938,940.2051 802.2375,940.752 Q803.0969,941.2989 804.4094,941.2989 Q805.1906,941.2989 805.8781,941.1739 Q806.5813,941.0332 807.5813,940.7207 L807.5813,942.5957 Q806.7219,942.9239 805.9563,943.0489 Q805.2063,943.1739 804.1906,943.1739 Q802.2688,943.1739 800.9563,942.377 Q799.6594,941.5645 799.0031,940.0957 Q798.3469,938.6114 798.3469,936.6426 Q798.3469,935.2207 798.7375,934.0489 Q799.1438,932.8614 799.925,931.9864 Q800.7063,931.1114 801.8469,930.6426 Q802.9875,930.1582 804.4563,930.1582 Q805.4094,930.1582 806.3,930.3614 Q807.2063,930.5489 808.1438,931.0176 L807.3156,932.7989 Q806.5344,932.4239 805.8781,932.2364 Q805.2219,932.0332 804.425,932.0332 Z " fill="#000000"/><text fill="#000000" font-family="sans-serif" font-size="14" lengthAdjust="spacing" textLength="88.8717" x="824.8156" y="941.934">AbilityFactory</text><line style="stroke:#181818;stroke-width:0.5;" x1="703.06" x2="1002.9429" y1="952.502" y2="952.502"/><line style="stroke:#181818;stroke-width:0.5;" x1="703.06" x2="1002.9429" y1="960.502" y2="960.502"/><ellipse cx="713.06" cy="975.5359" fill="#84BE84" rx="3" ry="3" style="stroke:#038048;stroke-width:1;"/><text fill="#000000" font-family="sans-serif" font-size="14" lengthAdjust="spacing" textLength="275.8829" x="722.06" y="979.4679">Ability* createPlayerAbility(Player* player)</text></g><!--class LinkDecoratorFactory--><g class="entity" data-entity="LinkDecoratorFactory" data-source-line="188" data-uid="ent0042" id="entity_LinkDecoratorFactory"><rect fill="#F1F1F1" height="67.0679" rx="2.5" ry="2.5" style="stroke:#181818;stroke-width:0.5;" width="335.3848" x="22.31" y="920.502"/><ellipse cx="114.9477" cy="936.502" fill="#ADD1B2" rx="11" ry="11" style="stroke:#181818;stroke-width:1;"/><path d="M115.057,932.0332 Q114.1352,932.0332 113.4008,932.3457 Q112.682,932.6582 112.182,933.252 Q111.682,933.8301 111.4008,934.7051 Q111.1352,935.5801 111.1352,936.6739 Q111.1352,938.1114 111.5727,939.1582 Q112.0258,940.2051 112.8695,940.752 Q113.7289,941.2989 115.0414,941.2989 Q115.8227,941.2989 116.5102,941.1739 Q117.2133,941.0332 118.2133,940.7207 L118.2133,942.5957 Q117.3539,942.9239 116.5883,943.0489 Q115.8383,943.1739 114.8227,943.1739 Q112.9008,943.1739 111.5883,942.377 Q110.2914,941.5645 109.6352,940.0957 Q108.9789,938.6114 108.9789,936.6426 Q108.9789,935.2207 109.3695,934.0489 Q109.7758,932.8614 110.557,931.9864 Q111.3383,931.1114 112.4789,930.6426 Q113.6195,930.1582 115.0883,930.1582 Q116.0414,930.1582 116.932,930.3614 Q117.8383,930.5489 118.7758,931.0176 L117.9477,932.7989 Q117.1664,932.4239 116.5102,932.2364 Q115.8539,932.0332 115.057,932.0332 Z " fill="#000000"/><text fill="#000000" font-family="sans-serif" font-size="14" lengthAdjust="spacing" textLength="141.6095" x="135.4477" y="941.934">LinkDecoratorFactory</text><line style="stroke:#181818;stroke-width:0.5;" x1="23.31" x2="356.6948" y1="952.502" y2="952.502"/><line style="stroke:#181818;stroke-width:0.5;" x1="23.31" x2="356.6948" y1="960.502" y2="960.502"/><ellipse cx="33.31" cy="975.5359" fill="#84BE84" rx="3" ry="3" style="stroke:#038048;stroke-width:1;"/><text fill="#000000" font-family="sans-serif" font-size="14" lengthAdjust="spacing" textLength="309.3848" x="42.31" y="979.4679">LinkDecorator* createLinkDecorator(Link* link)</text></g><!--reverse link Game to Board--><g class="link" data-entity-1="Game" data-entity-2="Board" data-source-line="196" data-uid="lnk43" id="link_Game_Board"><path codeLine="196" d="M1767.7651,534.67 C1757.1051,554 1753.3,563.632 1746,583.692 C1675.95,776.232 1669.05,1025.352 1669.32,1123.502" fill="none" id="Game-backto-Board" style="stroke:#181818;stroke-width:1;"/><polygon fill="#181818" points="1773.56,524.162,1767.1599,527.4844,1767.7651,534.67,1774.1652,531.3476,1773.56,524.162" style="stroke:#181818;stroke-width:1;"/></g><!--reverse link Game to Player--><g class="link" data-entity-1="Game" data-entity-2="Player" data-source-line="197" data-uid="lnk44" id="link_Game_Player"><path codeLine="197" d="M1872,535.762 C1872,555.922 1872,564.352 1872,583.552" fill="none" id="Game-backto-Player" style="stroke:#181818;stroke-width:1;"/><polygon fill="#181818" points="1872,523.762,1868,529.762,1872,535.762,1876,529.762,1872,523.762" style="stroke:#181818;stroke-width:1;"/></g><!--reverse link Board to BaseCell--><g class="link" data-entity-1="Board" data-entity-2="BaseCell" data-source-line="199" data-uid="lnk45" id="link_Board_BaseCell"><path codeLine="199" d="M1848.004,1209.6424 C1914.814,1226.7724 1980.47,1245.592 2049,1269.982 C2054.64,1271.992 2060.42,1274.192 2066.2,1276.502" fill="none" id="Board-backto-BaseCell" style="stroke:#181818;stroke-width:1;"/><polygon fill="#181818" points="1836.38,1206.662,1841.1985,1212.0268,1848.004,1209.6424,1843.1855,1204.2775,1836.38,1206.662" style="stroke:#181818;stroke-width:1;"/></g><!--reverse link BaseCell to Link--><g class="link" data-entity-1="BaseCell" data-entity-2="Link" data-source-line="200" data-uid="lnk46" id="link_BaseCell_Link"><path codeLine="200" d="M2054.9385,1271.3858 C2049.1785,1269.3458 2054.7,1271.512 2049,1269.982 C1927.52,1237.212 1586.88,1285.172 1486,1209.982 C1452.73,1185.182 1470.56,1159.882 1450,1123.842 C1438.58,1103.832 1425.15,1083.452 1411.39,1064.082" fill="none" id="BaseCell-backto-Link" style="stroke:#181818;stroke-width:1;"/><polygon fill="none" points="2066.25,1275.392,2061.9296,1269.6184,2054.9385,1271.3858,2059.2588,1277.1594,2066.25,1275.392" style="stroke:#181818;stroke-width:1;"/></g><!--reverse link Player to Ability--><g class="link" data-entity-1="Player" data-entity-2="Ability" data-source-line="202" data-uid="lnk47" id="link_Player_Ability"><path codeLine="202" d="M1991.0012,751.841 C2082.9612,803.521 2201.57,870.182 2280.01,914.262" fill="none" id="Player-backto-Ability" style="stroke:#181818;stroke-width:1;"/><polygon fill="#181818" points="1980.54,745.962,1983.8109,752.3886,1991.0012,751.841,1987.7303,745.4144,1980.54,745.962" style="stroke:#181818;stroke-width:1;"/></g><!--reverse link Player to Link--><g class="link" data-entity-1="Player" data-entity-2="Link" data-source-line="203" data-uid="lnk48" id="link_Player_Link"><path codeLine="203" d="M1752.6306,743.3549 C1669.0806,784.2249 1563.53,835.862 1471.55,880.862" fill="none" id="Player-backto-Link" style="stroke:#181818;stroke-width:1;"/><polygon fill="#181818" points="1763.41,738.082,1756.2626,737.1253,1752.6306,743.3549,1759.7779,744.3116,1763.41,738.082" style="stroke:#181818;stroke-width:1;"/></g><!--reverse link Link to Board--><g class="link" data-entity-1="Link" data-entity-2="Board" data-source-line="205" data-uid="lnk49" id="link_Link_Board"><path codeLine="205" d="M1481.7357,1051.169 C1526.3957,1078.399 1563.14,1100.782 1600.18,1123.362" fill="none" id="Link-backto-Board" style="stroke:#181818;stroke-width:1;"/><polygon fill="none" points="1471.49,1044.922,1474.5305,1051.4607,1481.7357,1051.169,1478.6952,1044.6302,1471.49,1044.922" style="stroke:#181818;stroke-width:1;"/></g><!--reverse link Player to PlayerCell--><g class="link" data-entity-1="Player" data-entity-2="PlayerCell" data-source-line="207" data-uid="lnk50" id="link_Player_PlayerCell"><path codeLine="207" d="M1860.249,796.6841 C1848.199,931.1641 1837.66,1148.872 1891,1209.982 C1993.63,1327.562 2136.51,1150.562 2237,1269.982 C2271.34,1310.792 2247.91,1374.102 2225.51,1415.852" fill="none" id="Player-backto-PlayerCell" style="stroke:#181818;stroke-width:1;"/><polygon fill="#181818" points="1861.32,784.732,1856.8005,790.3511,1860.249,796.6841,1864.7686,791.065,1861.32,784.732" style="stroke:#181818;stroke-width:1;"/></g><!--reverse link PlayerCell to BaseCell--><g class="link" data-entity-1="PlayerCell" data-entity-2="BaseCell" data-source-line="208" data-uid="lnk51" id="link_PlayerCell_BaseCell"><path codeLine="208" d="M2191.0913,1404.5712 C2185.2213,1385.8412 2180.27,1375.282 2171.59,1356.512" fill="none" id="PlayerCell-backto-BaseCell" style="stroke:#181818;stroke-width:1;"/><polygon fill="#181818" points="2194.68,1416.022,2196.7026,1409.1003,2191.0913,1404.5712,2189.0687,1411.4928,2194.68,1416.022" style="stroke:#181818;stroke-width:1;"/></g><!--reverse link BaseCell to PlayerCell--><g class="link" data-entity-1="BaseCell" data-entity-2="PlayerCell" data-source-line="211" data-uid="lnk53" id="link_BaseCell_PlayerCell"><path codeLine="211" d="M2152.8076,1373.6836 C2158.7076,1392.4536 2161.87,1397.292 2170.55,1416.022" fill="none" id="BaseCell-backto-PlayerCell" style="stroke:#181818;stroke-width:1;"/><polygon fill="none" points="2147.41,1356.512,2147.0837,1375.4828,2158.5315,1371.8844,2147.41,1356.512" style="stroke:#181818;stroke-width:1;"/></g><!--reverse link BaseCell to BoardCell--><g class="link" data-entity-1="BaseCell" data-entity-2="BoardCell" data-source-line="210" data-uid="lnk52" id="link_BaseCell_BoardCell"><path codeLine="210" d="M2107.3252,1371.8289 C2091.5352,1397.4089 2081.48,1413.692 2068.44,1434.802" fill="none" id="BaseCell-backto-BoardCell" style="stroke:#181818;stroke-width:1;"/><polygon fill="none" points="2116.78,1356.512,2102.2196,1368.6773,2112.4308,1374.9805,2116.78,1356.512" style="stroke:#181818;stroke-width:1;"/></g><!--reverse link PlayerCell to Server--><g class="link" data-entity-1="PlayerCell" data-entity-2="Server" data-source-line="212" data-uid="lnk54" id="link_PlayerCell_Server"><path codeLine="212" d="M2148.6782,1515.8829 C2130.7582,1535.7329 2122.14,1545.252 2107.09,1561.912" fill="none" id="PlayerCell-backto-Server" style="stroke:#181818;stroke-width:1;"/><polygon fill="none" points="2160.74,1502.522,2144.2246,1511.8623,2153.1318,1519.9035,2160.74,1502.522" style="stroke:#181818;stroke-width:1;"/></g><!--reverse link PlayerCell to Firewall--><g class="link" data-entity-1="PlayerCell" data-entity-2="Firewall" data-source-line="213" data-uid="lnk55" id="link_PlayerCell_Firewall"><path codeLine="213" d="M2199,1520.522 C2199,1540.372 2199,1545.252 2199,1561.912" fill="none" id="PlayerCell-backto-Firewall" style="stroke:#181818;stroke-width:1;"/><polygon fill="none" points="2199,1502.522,2193,1520.522,2205,1520.522,2199,1502.522" style="stroke:#181818;stroke-width:1;"/></g><!--reverse link PlayerCell to Goal--><g class="link" data-entity-1="PlayerCell" data-entity-2="Goal" data-source-line="214" data-uid="lnk56" id="link_PlayerCell_Goal"><path codeLine="214" d="M2246.9266,1516.2037 C2263.8966,1536.0537 2271.78,1545.252 2286.03,1561.912" fill="none" id="PlayerCell-backto-Goal" style="stroke:#181818;stroke-width:1;"/><polygon fill="none" points="2235.23,1502.522,2242.3661,1520.1026,2251.4872,1512.3048,2235.23,1502.522" style="stroke:#181818;stroke-width:1;"/></g><!--reverse link Link to VirusLink--><g class="link" data-entity-1="Link" data-entity-2="VirusLink" data-source-line="216" data-uid="lnk57" id="link_Link_VirusLink"><path codeLine="216" d="M1286.2417,1081.43 C1277.3617,1111.18 1273.74,1123.282 1267.92,1142.752" fill="none" id="Link-backto-VirusLink" style="stroke:#181818;stroke-width:1;"/><polygon fill="none" points="1291.39,1064.182,1280.4923,1079.7139,1291.991,1083.1461,1291.39,1064.182" style="stroke:#181818;stroke-width:1;"/></g><!--reverse link Link to DataLink--><g class="link" data-entity-1="Link" data-entity-2="DataLink" data-source-line="217" data-uid="lnk58" id="link_Link_DataLink"><path codeLine="217" d="M1361.7583,1081.43 C1370.6383,1111.18 1374.26,1123.282 1380.08,1142.752" fill="none" id="Link-backto-DataLink" style="stroke:#181818;stroke-width:1;"/><polygon fill="none" points="1356.61,1064.182,1356.009,1083.1461,1367.5077,1079.7139,1356.61,1064.182" style="stroke:#181818;stroke-width:1;"/></g><!--reverse link Link to LinkDecorator--><g class="link" data-entity-1="Link" data-entity-2="LinkDecorator" data-source-line="218" data-uid="lnk59" id="link_Link_LinkDecorator"><path codeLine="218" d="M1192.809,1077.1425 C1168.599,1102.2625 1158.15,1114.152 1142,1132.992" fill="none" id="Link-backto-LinkDecorator" style="stroke:#181818;stroke-width:1;"/><polygon fill="none" points="1205.3,1064.182,1188.4888,1072.9788,1197.1292,1081.3062,1205.3,1064.182" style="stroke:#181818;stroke-width:1;"/></g><!--reverse link LinkDecorator to Link--><g class="link" data-entity-1="LinkDecorator" data-entity-2="Link" data-source-line="235" data-uid="lnk73" id="link_LinkDecorator_Link"><path codeLine="235" d="M1170.4797,1124.8332 C1190.7997,1105.9932 1207.13,1089.302 1231.53,1064.182" fill="none" id="LinkDecorator-backto-Link" style="stroke:#181818;stroke-width:1;"/><polygon fill="#181818" points="1161.68,1132.992,1168.7994,1131.8458,1170.4797,1124.8332,1163.3603,1125.9794,1161.68,1132.992" style="stroke:#181818;stroke-width:1;"/></g><!--reverse link LinkDecorator to LinkBoostDecorator--><g class="link" data-entity-1="LinkDecorator" data-entity-2="LinkBoostDecorator" data-source-line="220" data-uid="lnk60" id="link_LinkDecorator_LinkBoostDecorator"><path codeLine="220" d="M1127.7076,1218.4156 C1131.8176,1245.3256 1134.82,1265.002 1138.47,1288.892" fill="none" id="LinkDecorator-backto-LinkBoostDecorator" style="stroke:#181818;stroke-width:1;"/><polygon fill="none" points="1124.99,1200.622,1121.7764,1219.3215,1133.6389,1217.5098,1124.99,1200.622" style="stroke:#181818;stroke-width:1;"/></g><!--reverse link LinkDecorator to PolarizeDecorator--><g class="link" data-entity-1="LinkDecorator" data-entity-2="PolarizeDecorator" data-source-line="221" data-uid="lnk61" id="link_LinkDecorator_PolarizeDecorator"><path codeLine="221" d="M1183.76,1210.8565 C1223.6,1237.6865 1263.98,1264.892 1299.38,1288.732" fill="none" id="LinkDecorator-backto-PolarizeDecorator" style="stroke:#181818;stroke-width:1;"/><polygon fill="none" points="1168.83,1200.802,1180.4085,1215.8332,1187.1116,1205.8798,1168.83,1200.802" style="stroke:#181818;stroke-width:1;"/></g><!--reverse link LinkDecorator to RevealDecorator--><g class="link" data-entity-1="LinkDecorator" data-entity-2="RevealDecorator" data-source-line="222" data-uid="lnk62" id="link_LinkDecorator_RevealDecorator"><path codeLine="222" d="M1192.5768,1208.717 C1199.3968,1212.077 1190.2,1207.282 1197,1209.982 C1295.2,1248.932 1327.78,1233.702 1427,1269.982 C1441.47,1275.272 1456.78,1282.122 1470.49,1288.742" fill="none" id="LinkDecorator-backto-RevealDecorator" style="stroke:#181818;stroke-width:1;"/><polygon fill="none" points="1176.43,1200.762,1189.9251,1214.0992,1195.2284,1203.3347,1176.43,1200.762" style="stroke:#181818;stroke-width:1;"/></g><!--reverse link LinkDecorator to LagDecorator--><g class="link" data-entity-1="LinkDecorator" data-entity-2="LagDecorator" data-source-line="223" data-uid="lnk63" id="link_LinkDecorator_LagDecorator"><path codeLine="223" d="M1191.1331,1208.6273 C1198.4031,1212.0873 1189.63,1207.512 1197,1209.982 C1369.95,1267.942 1429.74,1212.942 1603,1269.982 C1610.53,1272.462 1618.19,1275.622 1625.64,1279.092" fill="none" id="LinkDecorator-backto-LagDecorator" style="stroke:#181818;stroke-width:1;"/><polygon fill="none" points="1174.88,1200.892,1188.5547,1214.045,1193.7116,1203.2096,1174.88,1200.892" style="stroke:#181818;stroke-width:1;"/></g><!--reverse link LinkDecorator to QuantumEntanglementDecorator--><g class="link" data-entity-1="LinkDecorator" data-entity-2="QuantumEntanglementDecorator" data-source-line="224" data-uid="lnk64" id="link_LinkDecorator_QuantumEntanglementDecorator"><path codeLine="224" d="M1190.1942,1208.484 C1197.7442,1212.064 1189.29,1207.572 1197,1209.982 C1437.6,1285.202 1513.7,1221.112 1761,1269.982 C1773.78,1272.502 1787.05,1275.652 1800.15,1279.072" fill="none" id="LinkDecorator-backto-QuantumEntanglementDecorator" style="stroke:#181818;stroke-width:1;"/><polygon fill="none" points="1173.93,1200.772,1187.6235,1213.9054,1192.7649,1203.0626,1173.93,1200.772" style="stroke:#181818;stroke-width:1;"/></g><!--reverse link Ability to FirewallAbility--><g class="link" data-entity-1="Ability" data-entity-2="FirewallAbility" data-source-line="226" data-uid="lnk65" id="link_Ability_FirewallAbility"><path codeLine="226" d="M2434.8629,988.646 C2515.2729,1020.526 2634.84,1069.492 2749,1123.842 C2761.07,1129.592 2773.94,1136.222 2785.72,1142.492" fill="none" id="Ability-backto-FirewallAbility" style="stroke:#181818;stroke-width:1;"/><polygon fill="none" points="2418.13,982.012,2432.6515,994.2237,2437.0742,983.0684,2418.13,982.012" style="stroke:#181818;stroke-width:1;"/></g><!--reverse link Ability to DownloadAbility--><g class="link" data-entity-1="Ability" data-entity-2="DownloadAbility" data-source-line="227" data-uid="lnk66" id="link_Ability_DownloadAbility"><path codeLine="227" d="M2435.4671,976.6584 C2542.0471,1003.9584 2734.93,1056.692 2907,1123.842 C2920.91,1129.272 2935.66,1136.012 2948.99,1142.492" fill="none" id="Ability-backto-DownloadAbility" style="stroke:#181818;stroke-width:1;"/><polygon fill="none" points="2418.03,972.192,2433.9783,982.4708,2436.9559,970.8461,2418.03,972.192" style="stroke:#181818;stroke-width:1;"/></g><!--reverse link Ability to PolarizeAbility--><g class="link" data-entity-1="Ability" data-entity-2="PolarizeAbility" data-source-line="228" data-uid="lnk67" id="link_Ability_PolarizeAbility"><path codeLine="228" d="M2435.8643,967.5954 C2567.7443,987.7054 2845.48,1036.432 3081,1123.842 C3094.53,1128.872 3108.67,1135.712 3121.23,1142.422" fill="none" id="Ability-backto-PolarizeAbility" style="stroke:#181818;stroke-width:1;"/><polygon fill="none" points="2418.07,964.882,2434.9598,973.5268,2436.7688,961.6639,2418.07,964.882" style="stroke:#181818;stroke-width:1;"/></g><!--reverse link Ability to ScanAbility--><g class="link" data-entity-1="Ability" data-entity-2="ScanAbility" data-source-line="229" data-uid="lnk68" id="link_Ability_ScanAbility"><path codeLine="229" d="M2263.9477,998.0652 C2198.6877,1031.3752 2114.34,1075.382 2029,1123.842 C2018.63,1129.732 2007.54,1136.352 1997.35,1142.562" fill="none" id="Ability-backto-ScanAbility" style="stroke:#181818;stroke-width:1;"/><polygon fill="none" points="2279.98,989.882,2261.22,992.7211,2266.6754,1003.4093,2279.98,989.882" style="stroke:#181818;stroke-width:1;"/></g><!--reverse link Ability to LinkBoostAbility--><g class="link" data-entity-1="Ability" data-entity-2="LinkBoostAbility" data-source-line="230" data-uid="lnk69" id="link_Ability_LinkBoostAbility"><path codeLine="230" d="M2266.6875,1029.2209 C2219.9075,1071.3709 2174.09,1112.662 2140.8,1142.662" fill="none" id="Ability-backto-LinkBoostAbility" style="stroke:#181818;stroke-width:1;"/><polygon fill="none" points="2280.06,1017.172,2262.6712,1024.7634,2270.7038,1033.6784,2280.06,1017.172" style="stroke:#181818;stroke-width:1;"/></g><!--reverse link Ability to PappleAbility--><g class="link" data-entity-1="Ability" data-entity-2="PappleAbility" data-source-line="231" data-uid="lnk70" id="link_Ability_PappleAbility"><path codeLine="231" d="M2316.1099,1052.7222 C2303.1999,1091.0922 2294.45,1117.052 2285.79,1142.782" fill="none" id="Ability-backto-PappleAbility" style="stroke:#181818;stroke-width:1;"/><polygon fill="none" points="2321.85,1035.662,2310.4232,1050.8088,2321.7966,1054.6356,2321.85,1035.662" style="stroke:#181818;stroke-width:1;"/></g><!--reverse link Ability to LagAbility--><g class="link" data-entity-1="Ability" data-entity-2="LagAbility" data-source-line="232" data-uid="lnk71" id="link_Ability_LagAbility"><path codeLine="232" d="M2381.8901,1052.7222 C2394.8001,1091.0922 2403.55,1117.052 2412.21,1142.782" fill="none" id="Ability-backto-LagAbility" style="stroke:#181818;stroke-width:1;"/><polygon fill="none" points="2376.15,1035.662,2376.2034,1054.6356,2387.5768,1050.8088,2376.15,1035.662" style="stroke:#181818;stroke-width:1;"/></g><!--reverse link Ability to QuantumEntanglementAbility--><g class="link" data-entity-1="Ability" data-entity-2="QuantumEntanglementAbility" data-source-line="233" data-uid="lnk72" id="link_Ability_QuantumEntanglementAbility"><path codeLine="233" d="M2432.1649,1020.474 C2486.9049,1063.554 2546.61,1110.522 2587.19,1142.452" fill="none" id="Ability-backto-QuantumEntanglementAbility" style="stroke:#181818;stroke-width:1;"/><polygon fill="none" points="2418.02,1009.342,2428.4543,1025.1889,2435.8756,1015.759,2418.02,1009.342" style="stroke:#181818;stroke-width:1;"/></g><!--reverse link View to TextView--><g class="link" data-entity-1="View" data-entity-2="TextView" data-source-line="237" data-uid="lnk74" id="link_View_TextView"><path codeLine="237" d="M3364.7717,456.0316 C3353.3517,521.1716 3337.39,612.252 3329.08,659.682" fill="none" id="View-backto-TextView" style="stroke:#181818;stroke-width:1;"/><polygon fill="none" points="3367.88,438.302,3358.8619,454.9955,3370.6816,457.0677,3367.88,438.302" style="stroke:#181818;stroke-width:1;"/></g><!--reverse link View to GraphicalView--><g class="link" data-entity-1="View" data-entity-2="GraphicalView" data-source-line="238" data-uid="lnk75" id="link_View_GraphicalView"><path codeLine="238" d="M3398.2383,455.5107 C3418.2183,520.6507 3446.31,612.252 3460.86,659.682" fill="none" id="View-backto-GraphicalView" style="stroke:#181818;stroke-width:1;"/><polygon fill="none" points="3392.96,438.302,3392.5021,457.2701,3403.9746,453.7512,3392.96,438.302" style="stroke:#181818;stroke-width:1;"/></g><!--reverse link Controller to Game--><g class="link" data-entity-1="Controller" data-entity-2="Game" data-source-line="240" data-uid="lnk76" id="link_Controller_Game"><path codeLine="240" d="M2095.0646,177.2754 C2070.2946,200.2654 2049.83,219.262 2020.59,246.392" fill="none" id="Controller-backto-Game" style="stroke:#181818;stroke-width:1;"/><polygon fill="none" points="2103.86,169.112,2096.7412,170.2619,2095.0646,177.2754,2102.1834,176.1255,2103.86,169.112" style="stroke:#181818;stroke-width:1;"/></g><!--reverse link Controller to View--><g class="link" data-entity-1="Controller" data-entity-2="View" data-source-line="241" data-uid="lnk77" id="link_Controller_View"><path codeLine="241" d="M2374.6487,132.7362 C2542.4587,152.3662 2780.49,178.032 2999,192.872 C3025.62,194.682 3215.33,188.562 3239,200.872 C3292.91,228.912 3331.57,288.632 3354.01,332.332" fill="none" id="Controller-backto-View" style="stroke:#181818;stroke-width:1;"/><polygon fill="none" points="2362.73,131.342,2368.2246,136.012,2374.6487,132.7362,2369.1541,128.0662,2362.73,131.342" style="stroke:#181818;stroke-width:1;"/></g><!--link LinkFactory to Link--><g class="link" data-entity-1="LinkFactory" data-entity-2="Link" data-source-line="243" data-uid="lnk78" id="link_LinkFactory_Link"><path codeLine="243" d="M558.59,920.082 C589.87,885.852 643.46,835.152 702.5,814.232 C860.3,758.312 1043.3212,814.9437 1171.0312,872.5837" fill="none" id="LinkFactory-to-Link" style="stroke:#181818;stroke-width:1;stroke-dasharray:7.0,7.0;"/><polygon fill="#181818" points="1176.5,875.052,1169.9423,867.7037,1171.9427,872.9951,1166.6513,874.9955,1176.5,875.052" style="stroke:#181818;stroke-width:1;"/></g><!--link AbilityFactory to Ability--><g class="link" data-entity-1="AbilityFactory" data-entity-2="Ability" data-source-line="244" data-uid="lnk79" id="link_AbilityFactory_Ability"><path codeLine="244" d="M888.65,920.282 C927.59,885.932 993.54,834.912 1061.5,814.232 C1232.01,762.362 1687.03,789.332 1863.5,814.232 C2015.71,835.712 2181.4189,891.2305 2274.3589,925.4205" fill="none" id="AbilityFactory-to-Ability" style="stroke:#181818;stroke-width:1;stroke-dasharray:7.0,7.0;"/><polygon fill="#181818" points="2279.99,927.492,2272.9244,920.6307,2275.2974,925.7657,2270.1624,928.1388,2279.99,927.492" style="stroke:#181818;stroke-width:1;"/></g><!--link LinkDecoratorFactory to LinkDecorator--><g class="link" data-entity-1="LinkDecoratorFactory" data-entity-2="LinkDecorator" data-source-line="245" data-uid="lnk80" id="link_LinkDecoratorFactory_LinkDecorator"><path codeLine="245" d="M234.28,987.912 C270.3,1012.912 323.43,1045.952 375,1063.842 C619.21,1148.562 925.321,1163.184 1054.211,1165.504" fill="none" id="LinkDecoratorFactory-to-LinkDecorator" style="stroke:#181818;stroke-width:1;stroke-dasharray:7.0,7.0;"/><polygon fill="#181818" points="1060.21,1165.612,1051.2834,1161.4507,1055.2108,1165.522,1051.1395,1169.4494,1060.21,1165.612" style="stroke:#181818;stroke-width:1;"/></g><!--SRC=[XLPjSnet4Fv-lqBZpZI4clw0nCCCnawR6PAq1ZkVnPqC6kwagwI3KDV_lQjN9DtvyW4G- -ngNxMxxz1iDaFth6kaFXKjBWzuHz0LqQGhz58Wf8_eZWfIAigP8I7qzTl3vazpMdzxTAVxnNfZ3j_lpU4LFbv-HTbXSsw94t_w_F2uDgUxnMPXU5-BedXdpFd2ArAZPOsb99bPZOQkt2Mbva1_uCRVYj0C7S5CBcx-gl6PY3bgpQyCC6KAbPqGX2dByfbLvCV7WDzoB2gqrT-58_w6ZfnMI2eib5OsUPy2ZFnGcqwmY6vkcQ8TKUOK8LlEQrJkINduJjcAInbXrY0ZjenDZ5Yq-G17fa-SL6PKWm_a2p-IIRd70jKG_MjaZXKL6QlSyrEYRx6bDLNdtCzE4ezeCsXrxOCjbQ1i1y760ZVIYhqMKOviL7j9SZ-tM98bgUlvt0R-Ov66gm4_TFrCzDVKETDYAcx0ZciTapagEHTLgXflmIvSAc-3qnAPOU_ZPTcrc2dzByivP_TCGG8Curj-HPSEQxPHpNHxSwPe2wT0zZN0Juo8li8r4KSYKcqM-GGFz8HpIzmJuNYGRfL5HcL1XKfRbroGF6-k3APpy5IVA94vYudOtEHANeBwnlrnfUKQW6VXbUGLMK6KQewhg31o3b8JbHVFXSVIG8NX24zbh8mqvziHisMOT1kG9codzYXGJL4BSYIuNYkio5XybkR2t74PW4o2aTCoUWb1G91_EYALwGYNLfxq0jTQrixSIHebqxi1rhzvEmFoW_M6gCd0AtcYefDHt1Bm3YlSnmQ2VaUWL30KHuZ-Bov_-W6X_iqQlELSgbmoVGEyneB-IqQPh7kZB2kywrjeAq31S90hygpwKdztq7Yw1heCPhkQDD23XswnVa9xLLbNoEBadasGrBAsEIC6aokYciH1HmzJBcxp8S4XnLG-0cz2TsD677g8qmXbyVKoBWURLMflMXVkRO-m-DIDiAnBp4RWK29ZMd3RrcCw8FCZw426S-vNl_WyKN8QtdkEWFYr9ykv4NhfPR6jeBFq4rPHgLUYFi2ueizdlqsulMaWTHlOTYALwPmHkDtJ4jS9Gt1loPaIlAvXv1WdKnVBWARxNIGLbtMwGcY5i3xeCCc8IQzhqDzrwUV-YevfTCLvsmy6l3IOphnfCAicO9ZKRRpwyC5Mzg_GvWq4vKFUvrv-mjgYyt0UdosOUgYhq4kzPBEf50JoQBDYXjHF4-Iggt-Xdwd9dNwZ- -crIGiUjZR0NaL2x0tWUEL_83NM8qdkQMj3LfYzVZfpA_dbhxMqAEnEQHZSAbM45O_FRCyi2hVYQ3RdQanoJ6R-yA0guRWiRqMqnoLgBtfl_lENfFOO-l1D1d9hNOyUbheUebSwPxZv7sPiHFEZDI8b6R7obtaJEDAfESJLcvf3JDdK7DGMJSqXV6m-5eLlf4ciV9eJC9icAPZDaHIC9aWAvBCZkpEU6fbWc1Sf_Ur9aITg6ihRD5eZxVjoH4hQSL54ZLJNkdbGET5onWtfzxbLbRKL87lZ1Zk34xiawty0]--></g></svg>