<svg xmlns="http://www.w3.org/2000/svg" xmlns:xlink="http://www.w3.org/1999/xlink" contentStyleType="text/css" data-diagram-type="CLASS" height="1589px" preserveAspectRatio="none" style="width:4142px;height:1589px;background:#FFFFFF;" version="1.1" viewBox="0 0 4142 1589" width="4142px" zoomAndPan="magnify"><defs/><g><!--cluster enums--><g class="cluster" data-entity="enums" data-source-line="6" data-uid="ent0002" id="cluster_enums"><path d="M3520.5,6.7 L3563.4998,6.7 A3.75,3.75 0 0 1 3565.9998,9.2 L3572.9998,31.1799 L3789.5,31.1799 A2.5,2.5 0 0 1 3792,33.6799 L3792,179.12 A2.5,2.5 0 0 1 3789.5,181.62 L3520.5,181.62 A2.5,2.5 0 0 1 3518,179.12 L3518,9.2 A2.5,2.5 0 0 1 3520.5,6.7" fill="none" style="stroke:#000000;stroke-width:1.5;"/><line style="stroke:#000000;stroke-width:1.5;" x1="3518" x2="3572.9998" y1="31.1799" y2="31.1799"/><text fill="#000000" font-family="JetBrains Mono" font-size="14" font-weight="bold" lengthAdjust="spacing" textLength="41.9998" x="3522" y="22.9799">enums</text></g><!--cluster model--><g class="cluster" data-entity="model" data-source-line="22" data-uid="ent0005" id="cluster_model"><path d="M1270.5,205.62 L1313.4998,205.62 A3.75,3.75 0 0 1 1315.9998,208.12 L1322.9998,230.0999 L3800.5,230.0999 A2.5,2.5 0 0 1 3803,232.5999 L3803,1580.44 A2.5,2.5 0 0 1 3800.5,1582.94 L1270.5,1582.94 A2.5,2.5 0 0 1 1268,1580.44 L1268,208.12 A2.5,2.5 0 0 1 1270.5,205.62" fill="none" style="stroke:#000000;stroke-width:1.5;"/><line style="stroke:#000000;stroke-width:1.5;" x1="1268" x2="1322.9998" y1="230.0999" y2="230.0999"/><text fill="#000000" font-family="JetBrains Mono" font-size="14" font-weight="bold" lengthAdjust="spacing" textLength="41.9998" x="1272" y="221.8999">model</text></g><!--cluster view--><g class="cluster" data-entity="view" data-source-line="155" data-uid="ent0033" id="cluster_view"><path d="M3829.5,288.78 L3864.0999,288.78 A3.75,3.75 0 0 1 3866.5999,291.28 L3873.5999,313.2599 L4132.5,313.2599 A2.5,2.5 0 0 1 4135,315.7599 L4135,707.8 A2.5,2.5 0 0 1 4132.5,710.3 L3829.5,710.3 A2.5,2.5 0 0 1 3827,707.8 L3827,291.28 A2.5,2.5 0 0 1 3829.5,288.78" fill="none" style="stroke:#000000;stroke-width:1.5;"/><line style="stroke:#000000;stroke-width:1.5;" x1="3827" x2="3873.5999" y1="313.2599" y2="313.2599"/><text fill="#000000" font-family="JetBrains Mono" font-size="14" font-weight="bold" lengthAdjust="spacing" textLength="33.5999" x="3831" y="305.0599">view</text></g><!--cluster controller--><g class="cluster" data-entity="controller" data-source-line="170" data-uid="ent0037" id="cluster_controller"><path d="M2347.5,6.7 L2432.4996,6.7 A3.75,3.75 0 0 1 2434.9996,9.2 L2441.9996,31.1799 L2806.5,31.1799 A2.5,2.5 0 0 1 2809,33.6799 L2809,179.12 A2.5,2.5 0 0 1 2806.5,181.62 L2347.5,181.62 A2.5,2.5 0 0 1 2345,179.12 L2345,9.2 A2.5,2.5 0 0 1 2347.5,6.7" fill="none" style="stroke:#000000;stroke-width:1.5;"/><line style="stroke:#000000;stroke-width:1.5;" x1="2345" x2="2441.9996" y1="31.1799" y2="31.1799"/><text fill="#000000" font-family="JetBrains Mono" font-size="14" font-weight="bold" lengthAdjust="spacing" textLength="83.9996" x="2349" y="22.9799">controller</text></g><!--cluster factory--><g class="cluster" data-entity="factory" data-source-line="181" data-uid="ent0039" id="cluster_factory"><path d="M8.5,855.9 L68.2997,855.9 A3.75,3.75 0 0 1 70.7997,858.4 L77.7997,880.3799 L1241.5,880.3799 A2.5,2.5 0 0 1 1244,882.8799 L1244,972.88 A2.5,2.5 0 0 1 1241.5,975.38 L8.5,975.38 A2.5,2.5 0 0 1 6,972.88 L6,858.4 A2.5,2.5 0 0 1 8.5,855.9" fill="none" style="stroke:#000000;stroke-width:1.5;"/><line style="stroke:#000000;stroke-width:1.5;" x1="6" x2="77.7997" y1="880.3799" y2="880.3799"/><text fill="#000000" font-family="JetBrains Mono" font-size="14" font-weight="bold" lengthAdjust="spacing" textLength="58.7997" x="10" y="872.1799">factory</text></g><!--class Direction--><g class="entity" data-entity="Direction" data-source-line="7" data-uid="ent0003" id="entity_Direction"><rect fill="#F1F1F1" height="121.9197" rx="2.5" ry="2.5" style="stroke:#181818;stroke-width:0.5;" width="107.5997" x="3534.2" y="43.7"/><ellipse cx="3549.2" cy="59.7" fill="#EB937F" rx="11" ry="11" style="stroke:#181818;stroke-width:1;"/><path d="M3552.6688,66.2 L3545.3563,66.2 L3545.3563,53.5281 L3552.6688,53.5281 L3552.6688,55.4031 L3547.4031,55.4031 L3547.4031,58.6687 L3552.3563,58.6687 L3552.3563,60.5281 L3547.4031,60.5281 L3547.4031,64.325 L3552.6688,64.325 L3552.6688,66.2 Z " fill="#000000"/><text fill="#000000" font-family="JetBrains Mono" font-size="14" lengthAdjust="spacing" textLength="75.5997" x="3563.2" y="64.74">Direction</text><line style="stroke:#181818;stroke-width:0.5;" x1="3535.2" x2="3640.7997" y1="75.7" y2="75.7"/><text fill="#000000" font-family="JetBrains Mono" font-size="14" lengthAdjust="spacing" textLength="41.9998" x="3540.2" y="93.9799">NORTH</text><text fill="#000000" font-family="JetBrains Mono" font-size="14" lengthAdjust="spacing" textLength="41.9998" x="3540.2" y="112.4598">SOUTH</text><text fill="#000000" font-family="JetBrains Mono" font-size="14" lengthAdjust="spacing" textLength="33.5999" x="3540.2" y="130.9398">EAST</text><text fill="#000000" font-family="JetBrains Mono" font-size="14" lengthAdjust="spacing" textLength="33.5999" x="3540.2" y="149.4197">WEST</text><line style="stroke:#181818;stroke-width:0.5;" x1="3535.2" x2="3640.7997" y1="157.6197" y2="157.6197"/></g><!--class LinkType--><g class="entity" data-entity="LinkType" data-source-line="14" data-uid="ent0004" id="entity_LinkType"><rect fill="#F1F1F1" height="84.9598" rx="2.5" ry="2.5" style="stroke:#181818;stroke-width:0.5;" width="99.1997" x="3676.4" y="62.18"/><ellipse cx="3691.4" cy="78.18" fill="#EB937F" rx="11" ry="11" style="stroke:#181818;stroke-width:1;"/><path d="M3694.8688,84.68 L3687.5563,84.68 L3687.5563,72.0081 L3694.8688,72.0081 L3694.8688,73.8831 L3689.6031,73.8831 L3689.6031,77.1487 L3694.5563,77.1487 L3694.5563,79.0081 L3689.6031,79.0081 L3689.6031,82.805 L3694.8688,82.805 L3694.8688,84.68 Z " fill="#000000"/><text fill="#000000" font-family="JetBrains Mono" font-size="14" lengthAdjust="spacing" textLength="67.1997" x="3705.4" y="83.22">LinkType</text><line style="stroke:#181818;stroke-width:0.5;" x1="3677.4" x2="3774.5997" y1="94.18" y2="94.18"/><text fill="#000000" font-family="JetBrains Mono" font-size="14" lengthAdjust="spacing" textLength="41.9998" x="3682.4" y="112.4599">VIRUS</text><text fill="#000000" font-family="JetBrains Mono" font-size="14" lengthAdjust="spacing" textLength="33.5999" x="3682.4" y="130.9398">DATA</text><line style="stroke:#181818;stroke-width:0.5;" x1="3677.4" x2="3774.5997" y1="139.1398" y2="139.1398"/></g><!--class Game--><g class="entity" data-entity="Game" data-source-line="23" data-uid="ent0006" id="entity_Game"><rect fill="#F1F1F1" height="269.759" rx="2.5" ry="2.5" style="stroke:#181818;stroke-width:0.5;" width="406.7983" x="2030.6" y="242.62"/><ellipse cx="2212.9492" cy="258.62" fill="#ADD1B2" rx="11" ry="11" style="stroke:#181818;stroke-width:1;"/><path d="M2213.0586,254.1512 Q2212.1367,254.1512 2211.4023,254.4637 Q2210.6836,254.7762 2210.1836,255.37 Q2209.6836,255.9481 2209.4023,256.8231 Q2209.1367,257.6981 2209.1367,258.7919 Q2209.1367,260.2294 2209.5742,261.2762 Q2210.0273,262.3231 2210.8711,262.87 Q2211.7305,263.4169 2213.043,263.4169 Q2213.8242,263.4169 2214.5117,263.2919 Q2215.2148,263.1512 2216.2148,262.8387 L2216.2148,264.7137 Q2215.3555,265.0419 2214.5898,265.1669 Q2213.8398,265.2919 2212.8242,265.2919 Q2210.9023,265.2919 2209.5898,264.495 Q2208.293,263.6825 2207.6367,262.2137 Q2206.9805,260.7294 2206.9805,258.7606 Q2206.9805,257.3387 2207.3711,256.1669 Q2207.7773,254.9794 2208.5586,254.1044 Q2209.3398,253.2294 2210.4805,252.7606 Q2211.6211,252.2762 2213.0898,252.2762 Q2214.043,252.2762 2214.9336,252.4794 Q2215.8398,252.6669 2216.7773,253.1356 L2215.9492,254.9169 Q2215.168,254.5419 2214.5117,254.3544 Q2213.8555,254.1512 2213.0586,254.1512 Z " fill="#000000"/><text fill="#000000" font-family="JetBrains Mono" font-size="14" lengthAdjust="spacing" textLength="33.5999" x="2233.4492" y="263.66">Game</text><line style="stroke:#181818;stroke-width:0.5;" x1="2031.6" x2="2436.3983" y1="274.62" y2="274.62"/><text fill="#000000" font-family="JetBrains Mono" font-size="14" lengthAdjust="spacing" textLength="193.1992" x="2036.6" y="292.8999">-vector&lt;Player&gt; players</text><text fill="#000000" font-family="JetBrains Mono" font-size="14" lengthAdjust="spacing" textLength="201.5991" x="2036.6" y="311.3798">-int currentPlayerIndex;</text><text fill="#000000" font-family="JetBrains Mono" font-size="14" lengthAdjust="spacing" textLength="100.7996" x="2036.6" y="329.8598">-Board board</text><line style="stroke:#181818;stroke-width:0.5;" x1="2031.6" x2="2436.3983" y1="338.0597" y2="338.0597"/><text fill="#000000" font-family="JetBrains Mono" font-size="14" lengthAdjust="spacing" textLength="142.7994" x="2036.6" y="356.3397">+void startGame()</text><text fill="#000000" font-family="JetBrains Mono" font-size="14" lengthAdjust="spacing" textLength="134.3994" x="2036.6" y="374.8196">+void nextTurn()</text><text fill="#000000" font-family="JetBrains Mono" font-size="14" lengthAdjust="spacing" textLength="151.1993" x="2036.6" y="393.2995">+Board* getBoard()</text><text fill="#000000" font-family="JetBrains Mono" font-size="14" lengthAdjust="spacing" textLength="167.9993" x="2036.6" y="411.7794">+bool checkWinLoss()</text><text fill="#000000" font-family="JetBrains Mono" font-size="14" lengthAdjust="spacing" textLength="226.799" x="2036.6" y="430.2594">+Player* getCurrentPlayer()</text><text fill="#000000" font-family="JetBrains Mono" font-size="14" lengthAdjust="spacing" textLength="235.199" x="2036.6" y="448.7393">+int getPlayerIndex(Player*)</text><text fill="#000000" font-family="JetBrains Mono" font-size="14" lengthAdjust="spacing" textLength="293.9987" x="2036.6" y="467.2192">+void makeMove(char link, char dir)</text><text fill="#000000" font-family="JetBrains Mono" font-size="14" lengthAdjust="spacing" textLength="268.7988" x="2036.6" y="485.6991">+void showCurrentPlayerAbility()</text><text fill="#000000" font-family="JetBrains Mono" font-size="14" lengthAdjust="spacing" textLength="394.7983" x="2036.6" y="504.179">+void useAbility(int id, vector&lt;string&gt; params)</text></g><!--class Board--><g class="entity" data-entity="Board" data-source-line="39" data-uid="ent0007" id="entity_Board"><rect fill="#F1F1F1" height="84.9598" rx="2.5" ry="2.5" style="stroke:#181818;stroke-width:0.5;" width="423.5982" x="1774.2" y="1084.06"/><ellipse cx="1960.7492" cy="1100.06" fill="#ADD1B2" rx="11" ry="11" style="stroke:#181818;stroke-width:1;"/><path d="M1960.8586,1095.5912 Q1959.9367,1095.5912 1959.2023,1095.9037 Q1958.4836,1096.2162 1957.9836,1096.81 Q1957.4836,1097.3881 1957.2023,1098.2631 Q1956.9367,1099.1381 1956.9367,1100.2319 Q1956.9367,1101.6694 1957.3742,1102.7162 Q1957.8273,1103.7631 1958.6711,1104.31 Q1959.5304,1104.8569 1960.8429,1104.8569 Q1961.6242,1104.8569 1962.3117,1104.7319 Q1963.0148,1104.5912 1964.0148,1104.2787 L1964.0148,1106.1537 Q1963.1554,1106.4819 1962.3898,1106.6069 Q1961.6398,1106.7319 1960.6242,1106.7319 Q1958.7023,1106.7319 1957.3898,1105.935 Q1956.0929,1105.1225 1955.4367,1103.6537 Q1954.7804,1102.1694 1954.7804,1100.2006 Q1954.7804,1098.7787 1955.1711,1097.6069 Q1955.5773,1096.4194 1956.3586,1095.5444 Q1957.1398,1094.6694 1958.2804,1094.2006 Q1959.4211,1093.7162 1960.8898,1093.7162 Q1961.8429,1093.7162 1962.7336,1093.9194 Q1963.6398,1094.1069 1964.5773,1094.5756 L1963.7492,1096.3569 Q1962.9679,1095.9819 1962.3117,1095.7944 Q1961.6554,1095.5912 1960.8586,1095.5912 Z " fill="#000000"/><text fill="#000000" font-family="JetBrains Mono" font-size="14" lengthAdjust="spacing" textLength="41.9998" x="1981.2492" y="1105.1">Board</text><line style="stroke:#181818;stroke-width:0.5;" x1="1775.2" x2="2196.7982" y1="1116.06" y2="1116.06"/><text fill="#000000" font-family="JetBrains Mono" font-size="14" lengthAdjust="spacing" textLength="268.7988" x="1780.2" y="1134.3399">-vector&lt;vector&lt;BaseCell&gt;&gt; board;</text><line style="stroke:#181818;stroke-width:0.5;" x1="1775.2" x2="2196.7982" y1="1142.5399" y2="1142.5399"/><text fill="#000000" font-family="JetBrains Mono" font-size="14" lengthAdjust="spacing" textLength="411.5982" x="1780.2" y="1160.8198">+bool moveLink(Link* link, pair&lt;int, int&gt; coords)</text></g><!--class BaseCell--><g class="entity" data-entity="BaseCell" data-source-line="45" data-uid="ent0008" id="entity_BaseCell"><rect fill="#F1F1F1" height="84.9598" rx="2.5" ry="2.5" style="stroke:#181818;stroke-width:0.5;" width="179.9993" x="2375" y="1229.02"/><ellipse cx="2427.1498" cy="1245.02" fill="#A9DCDF" rx="11" ry="11" style="stroke:#181818;stroke-width:1;"/><path d="M2430.4935,1250.27 L2429.0248,1246.52 L2424.5873,1246.52 L2423.1498,1250.27 L2421.0248,1250.27 L2425.9779,1237.5512 L2427.7279,1237.5512 L2432.6498,1250.27 L2430.4935,1250.27 Z M2427.1498,1241.3169 Q2427.1029,1241.1606 2426.9779,1240.8012 Q2426.8529,1240.4419 2426.7435,1240.0669 Q2426.6342,1239.6762 2426.8373,1239.6137 Q2426.9935,1239.8012 2426.8998,1240.1606 Q2426.806,1240.5044 2426.7123,1240.8012 Q2426.6185,1241.0825 2426.5404,1241.3169 L2425.306,1244.6294 L2428.3842,1244.6294 L2427.1498,1241.3169 Z " fill="#000000"/><text fill="#000000" font-family="JetBrains Mono" font-size="14" font-style="italic" lengthAdjust="spacing" textLength="67.1997" x="2447.6498" y="1250.06">BaseCell</text><line style="stroke:#181818;stroke-width:0.5;" x1="2376" x2="2553.9993" y1="1261.02" y2="1261.02"/><text fill="#000000" font-family="JetBrains Mono" font-size="14" lengthAdjust="spacing" textLength="159.5993" x="2381" y="1279.2999">-Link* occupantLink</text><line style="stroke:#181818;stroke-width:0.5;" x1="2376" x2="2553.9993" y1="1287.4999" y2="1287.4999"/><text fill="#000000" font-family="JetBrains Mono" font-size="14" lengthAdjust="spacing" textLength="167.9993" x="2381" y="1305.7798">+void onEnter(Link*)</text></g><!--class BoardCell--><g class="entity" data-entity="BoardCell" data-source-line="51" data-uid="ent0009" id="entity_BoardCell"><rect fill="#F1F1F1" height="48" rx="2.5" ry="2.5" style="stroke:#181818;stroke-width:0.5;" width="107.5997" x="2316.2" y="1392.46"/><ellipse cx="2331.2" cy="1408.46" fill="#ADD1B2" rx="11" ry="11" style="stroke:#181818;stroke-width:1;"/><path d="M2331.3094,1403.9912 Q2330.3875,1403.9912 2329.6531,1404.3037 Q2328.9344,1404.6162 2328.4344,1405.21 Q2327.9344,1405.7881 2327.6531,1406.6631 Q2327.3875,1407.5381 2327.3875,1408.6319 Q2327.3875,1410.0694 2327.825,1411.1162 Q2328.2781,1412.1631 2329.1219,1412.71 Q2329.9813,1413.2569 2331.2938,1413.2569 Q2332.075,1413.2569 2332.7625,1413.1319 Q2333.4656,1412.9912 2334.4656,1412.6787 L2334.4656,1414.5537 Q2333.6063,1414.8819 2332.8406,1415.0069 Q2332.0906,1415.1319 2331.075,1415.1319 Q2329.1531,1415.1319 2327.8406,1414.335 Q2326.5438,1413.5225 2325.8875,1412.0537 Q2325.2313,1410.5694 2325.2313,1408.6006 Q2325.2313,1407.1787 2325.6219,1406.0069 Q2326.0281,1404.8194 2326.8094,1403.9444 Q2327.5906,1403.0694 2328.7313,1402.6006 Q2329.8719,1402.1162 2331.3406,1402.1162 Q2332.2938,1402.1162 2333.1844,1402.3194 Q2334.0906,1402.5069 2335.0281,1402.9756 L2334.2,1404.7569 Q2333.4188,1404.3819 2332.7625,1404.1944 Q2332.1063,1403.9912 2331.3094,1403.9912 Z " fill="#000000"/><text fill="#000000" font-family="JetBrains Mono" font-size="14" lengthAdjust="spacing" textLength="75.5997" x="2345.2" y="1413.5">BoardCell</text><line style="stroke:#181818;stroke-width:0.5;" x1="2317.2" x2="2422.7997" y1="1424.46" y2="1424.46"/><line style="stroke:#181818;stroke-width:0.5;" x1="2317.2" x2="2422.7997" y1="1432.46" y2="1432.46"/></g><!--class PlayerCell--><g class="entity" data-entity="PlayerCell" data-source-line="54" data-uid="ent0010" id="entity_PlayerCell"><rect fill="#F1F1F1" height="84.9598" rx="2.5" ry="2.5" style="stroke:#181818;stroke-width:0.5;" width="137.9995" x="2459" y="1373.98"/><ellipse cx="2483.8999" cy="1389.98" fill="#A9DCDF" rx="11" ry="11" style="stroke:#181818;stroke-width:1;"/><path d="M2487.2437,1395.23 L2485.7749,1391.48 L2481.3374,1391.48 L2479.8999,1395.23 L2477.7749,1395.23 L2482.728,1382.5112 L2484.478,1382.5112 L2489.3999,1395.23 L2487.2437,1395.23 Z M2483.8999,1386.2769 Q2483.853,1386.1206 2483.728,1385.7612 Q2483.603,1385.4019 2483.4937,1385.0269 Q2483.3843,1384.6362 2483.5874,1384.5737 Q2483.7437,1384.7612 2483.6499,1385.1206 Q2483.5562,1385.4644 2483.4624,1385.7612 Q2483.3687,1386.0425 2483.2905,1386.2769 L2482.0562,1389.5894 L2485.1343,1389.5894 L2483.8999,1386.2769 Z " fill="#000000"/><text fill="#000000" font-family="JetBrains Mono" font-size="14" font-style="italic" lengthAdjust="spacing" textLength="83.9996" x="2500.0999" y="1395.02">PlayerCell</text><line style="stroke:#181818;stroke-width:0.5;" x1="2460" x2="2595.9995" y1="1405.98" y2="1405.98"/><text fill="#000000" font-family="JetBrains Mono" font-size="14" lengthAdjust="spacing" textLength="125.9995" x="2465" y="1424.2599">#BaseCell* base</text><text fill="#000000" font-family="JetBrains Mono" font-size="14" lengthAdjust="spacing" textLength="117.5995" x="2465" y="1442.7398">-Player* owner</text><line style="stroke:#181818;stroke-width:0.5;" x1="2460" x2="2595.9995" y1="1450.9398" y2="1450.9398"/></g><!--class Server--><g class="entity" data-entity="Server" data-source-line="59" data-uid="ent0011" id="entity_Server"><rect fill="#F1F1F1" height="48" rx="2.5" ry="2.5" style="stroke:#181818;stroke-width:0.5;" width="82.3998" x="2360.8" y="1518.94"/><ellipse cx="2375.8" cy="1534.94" fill="#ADD1B2" rx="11" ry="11" style="stroke:#181818;stroke-width:1;"/><path d="M2375.9094,1530.4712 Q2374.9875,1530.4712 2374.2531,1530.7837 Q2373.5344,1531.0962 2373.0344,1531.69 Q2372.5344,1532.2681 2372.2531,1533.1431 Q2371.9875,1534.0181 2371.9875,1535.1119 Q2371.9875,1536.5494 2372.425,1537.5962 Q2372.8781,1538.6431 2373.7219,1539.19 Q2374.5813,1539.7369 2375.8938,1539.7369 Q2376.675,1539.7369 2377.3625,1539.6119 Q2378.0656,1539.4712 2379.0656,1539.1587 L2379.0656,1541.0337 Q2378.2063,1541.3619 2377.4406,1541.4869 Q2376.6906,1541.6119 2375.675,1541.6119 Q2373.7531,1541.6119 2372.4406,1540.815 Q2371.1438,1540.0025 2370.4875,1538.5337 Q2369.8313,1537.0494 2369.8313,1535.0806 Q2369.8313,1533.6587 2370.2219,1532.4869 Q2370.6281,1531.2994 2371.4094,1530.4244 Q2372.1906,1529.5494 2373.3313,1529.0806 Q2374.4719,1528.5962 2375.9406,1528.5962 Q2376.8938,1528.5962 2377.7844,1528.7994 Q2378.6906,1528.9869 2379.6281,1529.4556 L2378.8,1531.2369 Q2378.0188,1530.8619 2377.3625,1530.6744 Q2376.7063,1530.4712 2375.9094,1530.4712 Z " fill="#000000"/><text fill="#000000" font-family="JetBrains Mono" font-size="14" lengthAdjust="spacing" textLength="50.3998" x="2389.8" y="1539.98">Server</text><line style="stroke:#181818;stroke-width:0.5;" x1="2361.8" x2="2442.1998" y1="1550.94" y2="1550.94"/><line style="stroke:#181818;stroke-width:0.5;" x1="2361.8" x2="2442.1998" y1="1558.94" y2="1558.94"/></g><!--class Firewall--><g class="entity" data-entity="Firewall" data-source-line="62" data-uid="ent0012" id="entity_Firewall"><rect fill="#F1F1F1" height="48" rx="2.5" ry="2.5" style="stroke:#181818;stroke-width:0.5;" width="99.1997" x="2478.4" y="1518.94"/><ellipse cx="2493.4" cy="1534.94" fill="#ADD1B2" rx="11" ry="11" style="stroke:#181818;stroke-width:1;"/><path d="M2493.5094,1530.4712 Q2492.5875,1530.4712 2491.8531,1530.7837 Q2491.1344,1531.0962 2490.6344,1531.69 Q2490.1344,1532.2681 2489.8531,1533.1431 Q2489.5875,1534.0181 2489.5875,1535.1119 Q2489.5875,1536.5494 2490.025,1537.5962 Q2490.4781,1538.6431 2491.3219,1539.19 Q2492.1813,1539.7369 2493.4938,1539.7369 Q2494.275,1539.7369 2494.9625,1539.6119 Q2495.6656,1539.4712 2496.6656,1539.1587 L2496.6656,1541.0337 Q2495.8063,1541.3619 2495.0406,1541.4869 Q2494.2906,1541.6119 2493.275,1541.6119 Q2491.3531,1541.6119 2490.0406,1540.815 Q2488.7438,1540.0025 2488.0875,1538.5337 Q2487.4313,1537.0494 2487.4313,1535.0806 Q2487.4313,1533.6587 2487.8219,1532.4869 Q2488.2281,1531.2994 2489.0094,1530.4244 Q2489.7906,1529.5494 2490.9313,1529.0806 Q2492.0719,1528.5962 2493.5406,1528.5962 Q2494.4938,1528.5962 2495.3844,1528.7994 Q2496.2906,1528.9869 2497.2281,1529.4556 L2496.4,1531.2369 Q2495.6188,1530.8619 2494.9625,1530.6744 Q2494.3063,1530.4712 2493.5094,1530.4712 Z " fill="#000000"/><text fill="#000000" font-family="JetBrains Mono" font-size="14" lengthAdjust="spacing" textLength="67.1997" x="2507.4" y="1539.98">Firewall</text><line style="stroke:#181818;stroke-width:0.5;" x1="2479.4" x2="2576.5997" y1="1550.94" y2="1550.94"/><line style="stroke:#181818;stroke-width:0.5;" x1="2479.4" x2="2576.5997" y1="1558.94" y2="1558.94"/></g><!--class Goal--><g class="entity" data-entity="Goal" data-source-line="65" data-uid="ent0013" id="entity_Goal"><rect fill="#F1F1F1" height="48" rx="2.5" ry="2.5" style="stroke:#181818;stroke-width:0.5;" width="65.5999" x="2612.2" y="1518.94"/><ellipse cx="2627.2" cy="1534.94" fill="#ADD1B2" rx="11" ry="11" style="stroke:#181818;stroke-width:1;"/><path d="M2627.3094,1530.4712 Q2626.3875,1530.4712 2625.6531,1530.7837 Q2624.9344,1531.0962 2624.4344,1531.69 Q2623.9344,1532.2681 2623.6531,1533.1431 Q2623.3875,1534.0181 2623.3875,1535.1119 Q2623.3875,1536.5494 2623.825,1537.5962 Q2624.2781,1538.6431 2625.1219,1539.19 Q2625.9813,1539.7369 2627.2938,1539.7369 Q2628.075,1539.7369 2628.7625,1539.6119 Q2629.4656,1539.4712 2630.4656,1539.1587 L2630.4656,1541.0337 Q2629.6063,1541.3619 2628.8406,1541.4869 Q2628.0906,1541.6119 2627.075,1541.6119 Q2625.1531,1541.6119 2623.8406,1540.815 Q2622.5438,1540.0025 2621.8875,1538.5337 Q2621.2313,1537.0494 2621.2313,1535.0806 Q2621.2313,1533.6587 2621.6219,1532.4869 Q2622.0281,1531.2994 2622.8094,1530.4244 Q2623.5906,1529.5494 2624.7313,1529.0806 Q2625.8719,1528.5962 2627.3406,1528.5962 Q2628.2938,1528.5962 2629.1844,1528.7994 Q2630.0906,1528.9869 2631.0281,1529.4556 L2630.2,1531.2369 Q2629.4188,1530.8619 2628.7625,1530.6744 Q2628.1063,1530.4712 2627.3094,1530.4712 Z " fill="#000000"/><text fill="#000000" font-family="JetBrains Mono" font-size="14" lengthAdjust="spacing" textLength="33.5999" x="2641.2" y="1539.98">Goal</text><line style="stroke:#181818;stroke-width:0.5;" x1="2613.2" x2="2676.7999" y1="1550.94" y2="1550.94"/><line style="stroke:#181818;stroke-width:0.5;" x1="2613.2" x2="2676.7999" y1="1558.94" y2="1558.94"/></g><!--class Player--><g class="entity" data-entity="Player" data-source-line="68" data-uid="ent0014" id="entity_Player"><rect fill="#F1F1F1" height="195.8394" rx="2.5" ry="2.5" style="stroke:#181818;stroke-width:0.5;" width="280.7988" x="2093.6" y="572.38"/><ellipse cx="2204.5495" cy="588.38" fill="#ADD1B2" rx="11" ry="11" style="stroke:#181818;stroke-width:1;"/><path d="M2204.6589,583.9112 Q2203.737,583.9112 2203.0026,584.2237 Q2202.2839,584.5362 2201.7839,585.13 Q2201.2839,585.7081 2201.0026,586.5831 Q2200.737,587.4581 2200.737,588.5519 Q2200.737,589.9894 2201.1745,591.0362 Q2201.6276,592.0831 2202.4714,592.63 Q2203.3308,593.1769 2204.6433,593.1769 Q2205.4245,593.1769 2206.112,593.0519 Q2206.8151,592.9112 2207.8151,592.5987 L2207.8151,594.4737 Q2206.9558,594.8019 2206.1901,594.9269 Q2205.4401,595.0519 2204.4245,595.0519 Q2202.5026,595.0519 2201.1901,594.255 Q2199.8933,593.4425 2199.237,591.9737 Q2198.5808,590.4894 2198.5808,588.5206 Q2198.5808,587.0987 2198.9714,585.9269 Q2199.3776,584.7394 2200.1589,583.8644 Q2200.9401,582.9894 2202.0808,582.5206 Q2203.2214,582.0362 2204.6901,582.0362 Q2205.6433,582.0362 2206.5339,582.2394 Q2207.4401,582.4269 2208.3776,582.8956 L2207.5495,584.6769 Q2206.7683,584.3019 2206.112,584.1144 Q2205.4558,583.9112 2204.6589,583.9112 Z " fill="#000000"/><text fill="#000000" font-family="JetBrains Mono" font-size="14" lengthAdjust="spacing" textLength="50.3998" x="2225.0495" y="593.42">Player</text><line style="stroke:#181818;stroke-width:0.5;" x1="2094.6" x2="2373.3988" y1="604.38" y2="604.38"/><text fill="#000000" font-family="JetBrains Mono" font-size="14" lengthAdjust="spacing" textLength="201.5991" x="2099.6" y="622.6599">-pair&lt;int, int&gt; getScore</text><text fill="#000000" font-family="JetBrains Mono" font-size="14" lengthAdjust="spacing" textLength="226.799" x="2099.6" y="641.1398">-vector&lt;Ability*&gt; abilities</text><text fill="#000000" font-family="JetBrains Mono" font-size="14" lengthAdjust="spacing" textLength="167.9993" x="2099.6" y="659.6198">-vector&lt;Link*&gt; links</text><line style="stroke:#181818;stroke-width:0.5;" x1="2094.6" x2="2373.3988" y1="667.8197" y2="667.8197"/><text fill="#000000" font-family="JetBrains Mono" font-size="14" lengthAdjust="spacing" textLength="218.399" x="2099.6" y="686.0997">+pair&lt;int, int&gt; getScore()</text><text fill="#000000" font-family="JetBrains Mono" font-size="14" lengthAdjust="spacing" textLength="268.7988" x="2099.6" y="704.5796">+vector&lt;Ability*&gt; getAbilities()</text><text fill="#000000" font-family="JetBrains Mono" font-size="14" lengthAdjust="spacing" textLength="218.399" x="2099.6" y="723.0595">+void download(Link* link)</text><text fill="#000000" font-family="JetBrains Mono" font-size="14" lengthAdjust="spacing" textLength="235.199" x="2099.6" y="741.5394">+void deleteLink(Link* link)</text><text fill="#000000" font-family="JetBrains Mono" font-size="14" lengthAdjust="spacing" textLength="209.9991" x="2099.6" y="760.0194">+Link* getLink(char link)</text></g><!--class Link--><g class="entity" data-entity="Link" data-source-line="80" data-uid="ent0015" id="entity_Link"><rect fill="#F1F1F1" height="195.8394" rx="2.5" ry="2.5" style="stroke:#181818;stroke-width:0.5;" width="356.3985" x="1404.8" y="828.22"/><ellipse cx="1561.9493" cy="844.22" fill="#A9DCDF" rx="11" ry="11" style="stroke:#181818;stroke-width:1;"/><path d="M1565.2931,849.47 L1563.8243,845.72 L1559.3868,845.72 L1557.9493,849.47 L1555.8243,849.47 L1560.7774,836.7512 L1562.5274,836.7512 L1567.4493,849.47 L1565.2931,849.47 Z M1561.9493,840.5169 Q1561.9024,840.3606 1561.7774,840.0012 Q1561.6524,839.6419 1561.5431,839.2669 Q1561.4337,838.8762 1561.6368,838.8137 Q1561.7931,839.0012 1561.6993,839.3606 Q1561.6056,839.7044 1561.5118,840.0012 Q1561.4181,840.2825 1561.3399,840.5169 L1560.1056,843.8294 L1563.1837,843.8294 L1561.9493,840.5169 Z " fill="#000000"/><text fill="#000000" font-family="JetBrains Mono" font-size="14" font-style="italic" lengthAdjust="spacing" textLength="33.5999" x="1582.4493" y="849.26">Link</text><line style="stroke:#181818;stroke-width:0.5;" x1="1405.8" x2="1760.1985" y1="860.22" y2="860.22"/><text fill="#000000" font-family="JetBrains Mono" font-size="14" lengthAdjust="spacing" textLength="184.7992" x="1410.8" y="878.4999">-pair&lt;int, int&gt; coords</text><text fill="#000000" font-family="JetBrains Mono" font-size="14" lengthAdjust="spacing" textLength="109.1995" x="1410.8" y="896.9798">-int strength</text><line style="stroke:#181818;stroke-width:0.5;" x1="1405.8" x2="1760.1985" y1="905.1798" y2="905.1798"/><text fill="#000000" font-family="JetBrains Mono" font-size="14" lengthAdjust="spacing" textLength="226.799" x="1410.8" y="923.4598">+pair&lt;int, int&gt; getCoords()</text><text fill="#000000" font-family="JetBrains Mono" font-size="14" lengthAdjust="spacing" textLength="344.3985" x="1410.8" y="941.9397">+void setCoords(pair&lt;int, int&gt; newCoords)</text><text fill="#000000" font-family="JetBrains Mono" font-size="14" lengthAdjust="spacing" textLength="268.7988" x="1410.8" y="960.4196">+void requestMove(Direction dir)</text><text fill="#000000" font-family="JetBrains Mono" font-size="14" lengthAdjust="spacing" textLength="151.1993" x="1410.8" y="978.8995">+int getStrength()</text><text fill="#000000" font-family="JetBrains Mono" font-size="14" lengthAdjust="spacing" textLength="159.5993" x="1410.8" y="997.3794">+LinkType getType()</text><text fill="#000000" font-family="JetBrains Mono" font-size="14" lengthAdjust="spacing" textLength="184.7992" x="1410.8" y="1015.8594">+bool getRevealState()</text></g><!--class VirusLink--><g class="entity" data-entity="VirusLink" data-source-line="92" data-uid="ent0016" id="entity_VirusLink"><rect fill="#F1F1F1" height="48" rx="2.5" ry="2.5" style="stroke:#181818;stroke-width:0.5;" width="107.5997" x="1460.2" y="1102.54"/><ellipse cx="1475.2" cy="1118.54" fill="#ADD1B2" rx="11" ry="11" style="stroke:#181818;stroke-width:1;"/><path d="M1475.3094,1114.0712 Q1474.3875,1114.0712 1473.6531,1114.3837 Q1472.9344,1114.6962 1472.4344,1115.29 Q1471.9344,1115.8681 1471.6531,1116.7431 Q1471.3875,1117.6181 1471.3875,1118.7119 Q1471.3875,1120.1494 1471.825,1121.1962 Q1472.2781,1122.2431 1473.1219,1122.79 Q1473.9813,1123.3369 1475.2938,1123.3369 Q1476.075,1123.3369 1476.7625,1123.2119 Q1477.4656,1123.0712 1478.4656,1122.7587 L1478.4656,1124.6337 Q1477.6063,1124.9619 1476.8406,1125.0869 Q1476.0906,1125.2119 1475.075,1125.2119 Q1473.1531,1125.2119 1471.8406,1124.415 Q1470.5438,1123.6025 1469.8875,1122.1337 Q1469.2313,1120.6494 1469.2313,1118.6806 Q1469.2313,1117.2587 1469.6219,1116.0869 Q1470.0281,1114.8994 1470.8094,1114.0244 Q1471.5906,1113.1494 1472.7313,1112.6806 Q1473.8719,1112.1962 1475.3406,1112.1962 Q1476.2938,1112.1962 1477.1844,1112.3994 Q1478.0906,1112.5869 1479.0281,1113.0556 L1478.2,1114.8369 Q1477.4188,1114.4619 1476.7625,1114.2744 Q1476.1063,1114.0712 1475.3094,1114.0712 Z " fill="#000000"/><text fill="#000000" font-family="JetBrains Mono" font-size="14" lengthAdjust="spacing" textLength="75.5997" x="1489.2" y="1123.58">VirusLink</text><line style="stroke:#181818;stroke-width:0.5;" x1="1461.2" x2="1566.7997" y1="1134.54" y2="1134.54"/><line style="stroke:#181818;stroke-width:0.5;" x1="1461.2" x2="1566.7997" y1="1142.54" y2="1142.54"/></g><!--class DataLink--><g class="entity" data-entity="DataLink" data-source-line="95" data-uid="ent0017" id="entity_DataLink"><rect fill="#F1F1F1" height="48" rx="2.5" ry="2.5" style="stroke:#181818;stroke-width:0.5;" width="99.1997" x="1602.4" y="1102.54"/><ellipse cx="1617.4" cy="1118.54" fill="#ADD1B2" rx="11" ry="11" style="stroke:#181818;stroke-width:1;"/><path d="M1617.5094,1114.0712 Q1616.5875,1114.0712 1615.8531,1114.3837 Q1615.1344,1114.6962 1614.6344,1115.29 Q1614.1344,1115.8681 1613.8531,1116.7431 Q1613.5875,1117.6181 1613.5875,1118.7119 Q1613.5875,1120.1494 1614.025,1121.1962 Q1614.4781,1122.2431 1615.3219,1122.79 Q1616.1813,1123.3369 1617.4938,1123.3369 Q1618.275,1123.3369 1618.9625,1123.2119 Q1619.6656,1123.0712 1620.6656,1122.7587 L1620.6656,1124.6337 Q1619.8063,1124.9619 1619.0406,1125.0869 Q1618.2906,1125.2119 1617.275,1125.2119 Q1615.3531,1125.2119 1614.0406,1124.415 Q1612.7438,1123.6025 1612.0875,1122.1337 Q1611.4313,1120.6494 1611.4313,1118.6806 Q1611.4313,1117.2587 1611.8219,1116.0869 Q1612.2281,1114.8994 1613.0094,1114.0244 Q1613.7906,1113.1494 1614.9313,1112.6806 Q1616.0719,1112.1962 1617.5406,1112.1962 Q1618.4938,1112.1962 1619.3844,1112.3994 Q1620.2906,1112.5869 1621.2281,1113.0556 L1620.4,1114.8369 Q1619.6188,1114.4619 1618.9625,1114.2744 Q1618.3063,1114.0712 1617.5094,1114.0712 Z " fill="#000000"/><text fill="#000000" font-family="JetBrains Mono" font-size="14" lengthAdjust="spacing" textLength="67.1997" x="1631.4" y="1123.58">DataLink</text><line style="stroke:#181818;stroke-width:0.5;" x1="1603.4" x2="1700.5997" y1="1134.54" y2="1134.54"/><line style="stroke:#181818;stroke-width:0.5;" x1="1603.4" x2="1700.5997" y1="1142.54" y2="1142.54"/></g><!--class LinkDecorator--><g class="entity" data-entity="LinkDecorator" data-source-line="98" data-uid="ent0018" id="entity_LinkDecorator"><rect fill="#F1F1F1" height="66.4799" rx="2.5" ry="2.5" style="stroke:#181818;stroke-width:0.5;" width="141.1995" x="1284.4" y="1093.3"/><ellipse cx="1299.4" cy="1109.3" fill="#A9DCDF" rx="11" ry="11" style="stroke:#181818;stroke-width:1;"/><path d="M1302.7438,1114.55 L1301.275,1110.8 L1296.8375,1110.8 L1295.4,1114.55 L1293.275,1114.55 L1298.2281,1101.8312 L1299.9781,1101.8312 L1304.9,1114.55 L1302.7438,1114.55 Z M1299.4,1105.5969 Q1299.3531,1105.4406 1299.2281,1105.0812 Q1299.1031,1104.7219 1298.9938,1104.3469 Q1298.8844,1103.9562 1299.0875,1103.8937 Q1299.2438,1104.0812 1299.15,1104.4406 Q1299.0563,1104.7844 1298.9625,1105.0812 Q1298.8688,1105.3625 1298.7906,1105.5969 L1297.5563,1108.9094 L1300.6344,1108.9094 L1299.4,1105.5969 Z " fill="#000000"/><text fill="#000000" font-family="JetBrains Mono" font-size="14" font-style="italic" lengthAdjust="spacing" textLength="109.1995" x="1313.4" y="1114.34">LinkDecorator</text><line style="stroke:#181818;stroke-width:0.5;" x1="1285.4" x2="1424.5995" y1="1125.3" y2="1125.3"/><text fill="#000000" font-family="JetBrains Mono" font-size="14" lengthAdjust="spacing" textLength="92.3996" x="1290.4" y="1143.5799">#Link* base</text><line style="stroke:#181818;stroke-width:0.5;" x1="1285.4" x2="1424.5995" y1="1151.7799" y2="1151.7799"/></g><!--class LinkBoostDecorator--><g class="entity" data-entity="LinkBoostDecorator" data-source-line="102" data-uid="ent0019" id="entity_LinkBoostDecorator"><rect fill="#F1F1F1" height="48" rx="2.5" ry="2.5" style="stroke:#181818;stroke-width:0.5;" width="183.1993" x="1284.4" y="1247.5"/><ellipse cx="1299.4" cy="1263.5" fill="#ADD1B2" rx="11" ry="11" style="stroke:#181818;stroke-width:1;"/><path d="M1299.5094,1259.0312 Q1298.5875,1259.0312 1297.8531,1259.3437 Q1297.1344,1259.6562 1296.6344,1260.25 Q1296.1344,1260.8281 1295.8531,1261.7031 Q1295.5875,1262.5781 1295.5875,1263.6719 Q1295.5875,1265.1094 1296.025,1266.1562 Q1296.4781,1267.2031 1297.3219,1267.75 Q1298.1813,1268.2969 1299.4938,1268.2969 Q1300.275,1268.2969 1300.9625,1268.1719 Q1301.6656,1268.0312 1302.6656,1267.7187 L1302.6656,1269.5937 Q1301.8063,1269.9219 1301.0406,1270.0469 Q1300.2906,1270.1719 1299.275,1270.1719 Q1297.3531,1270.1719 1296.0406,1269.375 Q1294.7438,1268.5625 1294.0875,1267.0937 Q1293.4313,1265.6094 1293.4313,1263.6406 Q1293.4313,1262.2187 1293.8219,1261.0469 Q1294.2281,1259.8594 1295.0094,1258.9844 Q1295.7906,1258.1094 1296.9313,1257.6406 Q1298.0719,1257.1562 1299.5406,1257.1562 Q1300.4938,1257.1562 1301.3844,1257.3594 Q1302.2906,1257.5469 1303.2281,1258.0156 L1302.4,1259.7969 Q1301.6188,1259.4219 1300.9625,1259.2344 Q1300.3063,1259.0312 1299.5094,1259.0312 Z " fill="#000000"/><text fill="#000000" font-family="JetBrains Mono" font-size="14" lengthAdjust="spacing" textLength="151.1993" x="1313.4" y="1268.54">LinkBoostDecorator</text><line style="stroke:#181818;stroke-width:0.5;" x1="1285.4" x2="1466.5993" y1="1279.5" y2="1279.5"/><line style="stroke:#181818;stroke-width:0.5;" x1="1285.4" x2="1466.5993" y1="1287.5" y2="1287.5"/></g><!--class PolarizeDecorator--><g class="entity" data-entity="PolarizeDecorator" data-source-line="105" data-uid="ent0020" id="entity_PolarizeDecorator"><rect fill="#F1F1F1" height="48" rx="2.5" ry="2.5" style="stroke:#181818;stroke-width:0.5;" width="174.7994" x="1502.6" y="1247.5"/><ellipse cx="1517.6" cy="1263.5" fill="#ADD1B2" rx="11" ry="11" style="stroke:#181818;stroke-width:1;"/><path d="M1517.7094,1259.0312 Q1516.7875,1259.0312 1516.0531,1259.3437 Q1515.3344,1259.6562 1514.8344,1260.25 Q1514.3344,1260.8281 1514.0531,1261.7031 Q1513.7875,1262.5781 1513.7875,1263.6719 Q1513.7875,1265.1094 1514.225,1266.1562 Q1514.6781,1267.2031 1515.5219,1267.75 Q1516.3813,1268.2969 1517.6938,1268.2969 Q1518.475,1268.2969 1519.1625,1268.1719 Q1519.8656,1268.0312 1520.8656,1267.7187 L1520.8656,1269.5937 Q1520.0063,1269.9219 1519.2406,1270.0469 Q1518.4906,1270.1719 1517.475,1270.1719 Q1515.5531,1270.1719 1514.2406,1269.375 Q1512.9438,1268.5625 1512.2875,1267.0937 Q1511.6313,1265.6094 1511.6313,1263.6406 Q1511.6313,1262.2187 1512.0219,1261.0469 Q1512.4281,1259.8594 1513.2094,1258.9844 Q1513.9906,1258.1094 1515.1313,1257.6406 Q1516.2719,1257.1562 1517.7406,1257.1562 Q1518.6938,1257.1562 1519.5844,1257.3594 Q1520.4906,1257.5469 1521.4281,1258.0156 L1520.6,1259.7969 Q1519.8188,1259.4219 1519.1625,1259.2344 Q1518.5063,1259.0312 1517.7094,1259.0312 Z " fill="#000000"/><text fill="#000000" font-family="JetBrains Mono" font-size="14" lengthAdjust="spacing" textLength="142.7994" x="1531.6" y="1268.54">PolarizeDecorator</text><line style="stroke:#181818;stroke-width:0.5;" x1="1503.6" x2="1676.3994" y1="1279.5" y2="1279.5"/><line style="stroke:#181818;stroke-width:0.5;" x1="1503.6" x2="1676.3994" y1="1287.5" y2="1287.5"/></g><!--class RevealDecorator--><g class="entity" data-entity="RevealDecorator" data-source-line="108" data-uid="ent0021" id="entity_RevealDecorator"><rect fill="#F1F1F1" height="48" rx="2.5" ry="2.5" style="stroke:#181818;stroke-width:0.5;" width="157.9995" x="1712" y="1247.5"/><ellipse cx="1727" cy="1263.5" fill="#ADD1B2" rx="11" ry="11" style="stroke:#181818;stroke-width:1;"/><path d="M1727.1094,1259.0312 Q1726.1875,1259.0312 1725.4531,1259.3437 Q1724.7344,1259.6562 1724.2344,1260.25 Q1723.7344,1260.8281 1723.4531,1261.7031 Q1723.1875,1262.5781 1723.1875,1263.6719 Q1723.1875,1265.1094 1723.625,1266.1562 Q1724.0781,1267.2031 1724.9219,1267.75 Q1725.7813,1268.2969 1727.0938,1268.2969 Q1727.875,1268.2969 1728.5625,1268.1719 Q1729.2656,1268.0312 1730.2656,1267.7187 L1730.2656,1269.5937 Q1729.4063,1269.9219 1728.6406,1270.0469 Q1727.8906,1270.1719 1726.875,1270.1719 Q1724.9531,1270.1719 1723.6406,1269.375 Q1722.3438,1268.5625 1721.6875,1267.0937 Q1721.0313,1265.6094 1721.0313,1263.6406 Q1721.0313,1262.2187 1721.4219,1261.0469 Q1721.8281,1259.8594 1722.6094,1258.9844 Q1723.3906,1258.1094 1724.5313,1257.6406 Q1725.6719,1257.1562 1727.1406,1257.1562 Q1728.0938,1257.1562 1728.9844,1257.3594 Q1729.8906,1257.5469 1730.8281,1258.0156 L1730,1259.7969 Q1729.2188,1259.4219 1728.5625,1259.2344 Q1727.9063,1259.0312 1727.1094,1259.0312 Z " fill="#000000"/><text fill="#000000" font-family="JetBrains Mono" font-size="14" lengthAdjust="spacing" textLength="125.9995" x="1741" y="1268.54">RevealDecorator</text><line style="stroke:#181818;stroke-width:0.5;" x1="1713" x2="1868.9995" y1="1279.5" y2="1279.5"/><line style="stroke:#181818;stroke-width:0.5;" x1="1713" x2="1868.9995" y1="1287.5" y2="1287.5"/></g><!--class LagDecorator--><g class="entity" data-entity="LagDecorator" data-source-line="111" data-uid="ent0022" id="entity_LagDecorator"><rect fill="#F1F1F1" height="66.4799" rx="2.5" ry="2.5" style="stroke:#181818;stroke-width:0.5;" width="132.7996" x="1904.6" y="1238.26"/><ellipse cx="1919.6" cy="1254.26" fill="#ADD1B2" rx="11" ry="11" style="stroke:#181818;stroke-width:1;"/><path d="M1919.7094,1249.7912 Q1918.7875,1249.7912 1918.0531,1250.1037 Q1917.3344,1250.4162 1916.8344,1251.01 Q1916.3344,1251.5881 1916.0531,1252.4631 Q1915.7875,1253.3381 1915.7875,1254.4319 Q1915.7875,1255.8694 1916.225,1256.9162 Q1916.6781,1257.9631 1917.5219,1258.51 Q1918.3813,1259.0569 1919.6938,1259.0569 Q1920.475,1259.0569 1921.1625,1258.9319 Q1921.8656,1258.7912 1922.8656,1258.4787 L1922.8656,1260.3537 Q1922.0063,1260.6819 1921.2406,1260.8069 Q1920.4906,1260.9319 1919.475,1260.9319 Q1917.5531,1260.9319 1916.2406,1260.135 Q1914.9438,1259.3225 1914.2875,1257.8537 Q1913.6313,1256.3694 1913.6313,1254.4006 Q1913.6313,1252.9787 1914.0219,1251.8069 Q1914.4281,1250.6194 1915.2094,1249.7444 Q1915.9906,1248.8694 1917.1313,1248.4006 Q1918.2719,1247.9162 1919.7406,1247.9162 Q1920.6938,1247.9162 1921.5844,1248.1194 Q1922.4906,1248.3069 1923.4281,1248.7756 L1922.6,1250.5569 Q1921.8188,1250.1819 1921.1625,1249.9944 Q1920.5063,1249.7912 1919.7094,1249.7912 Z " fill="#000000"/><text fill="#000000" font-family="JetBrains Mono" font-size="14" lengthAdjust="spacing" textLength="100.7996" x="1933.6" y="1259.3">LagDecorator</text><line style="stroke:#181818;stroke-width:0.5;" x1="1905.6" x2="2036.3996" y1="1270.26" y2="1270.26"/><text fill="#000000" font-family="JetBrains Mono" font-size="14" lengthAdjust="spacing" textLength="117.5995" x="1910.6" y="1288.5399">-int turnsLeft</text><line style="stroke:#181818;stroke-width:0.5;" x1="1905.6" x2="2036.3996" y1="1296.7399" y2="1296.7399"/></g><!--class QuantumEntanglementDecorator--><g class="entity" data-entity="QuantumEntanglementDecorator" data-source-line="115" data-uid="ent0023" id="entity_QuantumEntanglementDecorator"><rect fill="#F1F1F1" height="66.4799" rx="2.5" ry="2.5" style="stroke:#181818;stroke-width:0.5;" width="267.199" x="2072.4" y="1238.26"/><ellipse cx="2087.4" cy="1254.26" fill="#ADD1B2" rx="11" ry="11" style="stroke:#181818;stroke-width:1;"/><path d="M2087.5094,1249.7912 Q2086.5875,1249.7912 2085.8531,1250.1037 Q2085.1344,1250.4162 2084.6344,1251.01 Q2084.1344,1251.5881 2083.8531,1252.4631 Q2083.5875,1253.3381 2083.5875,1254.4319 Q2083.5875,1255.8694 2084.025,1256.9162 Q2084.4781,1257.9631 2085.3219,1258.51 Q2086.1813,1259.0569 2087.4938,1259.0569 Q2088.275,1259.0569 2088.9625,1258.9319 Q2089.6656,1258.7912 2090.6656,1258.4787 L2090.6656,1260.3537 Q2089.8063,1260.6819 2089.0406,1260.8069 Q2088.2906,1260.9319 2087.275,1260.9319 Q2085.3531,1260.9319 2084.0406,1260.135 Q2082.7438,1259.3225 2082.0875,1257.8537 Q2081.4313,1256.3694 2081.4313,1254.4006 Q2081.4313,1252.9787 2081.8219,1251.8069 Q2082.2281,1250.6194 2083.0094,1249.7444 Q2083.7906,1248.8694 2084.9313,1248.4006 Q2086.0719,1247.9162 2087.5406,1247.9162 Q2088.4938,1247.9162 2089.3844,1248.1194 Q2090.2906,1248.3069 2091.2281,1248.7756 L2090.4,1250.5569 Q2089.6188,1250.1819 2088.9625,1249.9944 Q2088.3063,1249.7912 2087.5094,1249.7912 Z " fill="#000000"/><text fill="#000000" font-family="JetBrains Mono" font-size="14" lengthAdjust="spacing" textLength="235.199" x="2101.4" y="1259.3">QuantumEntanglementDecorator</text><line style="stroke:#181818;stroke-width:0.5;" x1="2073.4" x2="2338.599" y1="1270.26" y2="1270.26"/><text fill="#000000" font-family="JetBrains Mono" font-size="14" lengthAdjust="spacing" textLength="117.5995" x="2078.4" y="1288.5399">-Link* partner</text><line style="stroke:#181818;stroke-width:0.5;" x1="2073.4" x2="2338.599" y1="1296.7399" y2="1296.7399"/></g><!--class Ability--><g class="entity" data-entity="Ability" data-source-line="119" data-uid="ent0024" id="entity_Ability"><rect fill="#F1F1F1" height="158.8795" rx="2.5" ry="2.5" style="stroke:#181818;stroke-width:0.5;" width="280.7988" x="2642.6" y="846.7"/><ellipse cx="2749.3495" cy="862.7" fill="#A9DCDF" rx="11" ry="11" style="stroke:#181818;stroke-width:1;"/><path d="M2752.6933,867.95 L2751.2245,864.2 L2746.787,864.2 L2745.3495,867.95 L2743.2245,867.95 L2748.1777,855.2312 L2749.9277,855.2312 L2754.8495,867.95 L2752.6933,867.95 Z M2749.3495,858.9969 Q2749.3027,858.8406 2749.1777,858.4812 Q2749.0527,858.1219 2748.9433,857.7469 Q2748.8339,857.3562 2749.037,857.2937 Q2749.1933,857.4812 2749.0995,857.8406 Q2749.0058,858.1844 2748.912,858.4812 Q2748.8183,858.7625 2748.7402,858.9969 L2747.5058,862.3094 L2750.5839,862.3094 L2749.3495,858.9969 Z " fill="#000000"/><text fill="#000000" font-family="JetBrains Mono" font-size="14" font-style="italic" lengthAdjust="spacing" textLength="58.7997" x="2769.8495" y="867.74">Ability</text><line style="stroke:#181818;stroke-width:0.5;" x1="2643.6" x2="2922.3988" y1="878.7" y2="878.7"/><text fill="#000000" font-family="JetBrains Mono" font-size="14" lengthAdjust="spacing" textLength="100.7996" x="2648.6" y="896.9799">-string name</text><text fill="#000000" font-family="JetBrains Mono" font-size="14" lengthAdjust="spacing" textLength="83.9996" x="2648.6" y="915.4598">-bool used</text><line style="stroke:#181818;stroke-width:0.5;" x1="2643.6" x2="2922.3988" y1="923.6598" y2="923.6598"/><text fill="#000000" font-family="JetBrains Mono" font-size="14" lengthAdjust="spacing" textLength="268.7988" x="2648.6" y="941.9398">+void use(vector&lt;string&gt; params)</text><text fill="#000000" font-family="JetBrains Mono" font-size="14" lengthAdjust="spacing" textLength="117.5995" x="2648.6" y="960.4197">+bool isUsed()</text><text fill="#000000" font-family="JetBrains Mono" font-size="14" lengthAdjust="spacing" textLength="134.3994" x="2648.6" y="978.8996">+void markUsed()</text><text fill="#000000" font-family="JetBrains Mono" font-size="14" lengthAdjust="spacing" textLength="142.7994" x="2648.6" y="997.3795">+string getName()</text></g><!--class FirewallAbility--><g class="entity" data-entity="FirewallAbility" data-source-line="129" data-uid="ent0025" id="entity_FirewallAbility"><rect fill="#F1F1F1" height="48" rx="2.5" ry="2.5" style="stroke:#181818;stroke-width:0.5;" width="157.9995" x="3243" y="1102.54"/><ellipse cx="3258" cy="1118.54" fill="#ADD1B2" rx="11" ry="11" style="stroke:#181818;stroke-width:1;"/><path d="M3258.1094,1114.0712 Q3257.1875,1114.0712 3256.4531,1114.3837 Q3255.7344,1114.6962 3255.2344,1115.29 Q3254.7344,1115.8681 3254.4531,1116.7431 Q3254.1875,1117.6181 3254.1875,1118.7119 Q3254.1875,1120.1494 3254.625,1121.1962 Q3255.0781,1122.2431 3255.9219,1122.79 Q3256.7813,1123.3369 3258.0938,1123.3369 Q3258.875,1123.3369 3259.5625,1123.2119 Q3260.2656,1123.0712 3261.2656,1122.7587 L3261.2656,1124.6337 Q3260.4063,1124.9619 3259.6406,1125.0869 Q3258.8906,1125.2119 3257.875,1125.2119 Q3255.9531,1125.2119 3254.6406,1124.415 Q3253.3438,1123.6025 3252.6875,1122.1337 Q3252.0313,1120.6494 3252.0313,1118.6806 Q3252.0313,1117.2587 3252.4219,1116.0869 Q3252.8281,1114.8994 3253.6094,1114.0244 Q3254.3906,1113.1494 3255.5313,1112.6806 Q3256.6719,1112.1962 3258.1406,1112.1962 Q3259.0938,1112.1962 3259.9844,1112.3994 Q3260.8906,1112.5869 3261.8281,1113.0556 L3261,1114.8369 Q3260.2188,1114.4619 3259.5625,1114.2744 Q3258.9063,1114.0712 3258.1094,1114.0712 Z " fill="#000000"/><text fill="#000000" font-family="JetBrains Mono" font-size="14" lengthAdjust="spacing" textLength="125.9995" x="3272" y="1123.58">FirewallAbility</text><line style="stroke:#181818;stroke-width:0.5;" x1="3244" x2="3399.9995" y1="1134.54" y2="1134.54"/><line style="stroke:#181818;stroke-width:0.5;" x1="3244" x2="3399.9995" y1="1142.54" y2="1142.54"/></g><!--class DownloadAbility--><g class="entity" data-entity="DownloadAbility" data-source-line="132" data-uid="ent0026" id="entity_DownloadAbility"><rect fill="#F1F1F1" height="48" rx="2.5" ry="2.5" style="stroke:#181818;stroke-width:0.5;" width="157.9995" x="3436" y="1102.54"/><ellipse cx="3451" cy="1118.54" fill="#ADD1B2" rx="11" ry="11" style="stroke:#181818;stroke-width:1;"/><path d="M3451.1094,1114.0712 Q3450.1875,1114.0712 3449.4531,1114.3837 Q3448.7344,1114.6962 3448.2344,1115.29 Q3447.7344,1115.8681 3447.4531,1116.7431 Q3447.1875,1117.6181 3447.1875,1118.7119 Q3447.1875,1120.1494 3447.625,1121.1962 Q3448.0781,1122.2431 3448.9219,1122.79 Q3449.7813,1123.3369 3451.0938,1123.3369 Q3451.875,1123.3369 3452.5625,1123.2119 Q3453.2656,1123.0712 3454.2656,1122.7587 L3454.2656,1124.6337 Q3453.4063,1124.9619 3452.6406,1125.0869 Q3451.8906,1125.2119 3450.875,1125.2119 Q3448.9531,1125.2119 3447.6406,1124.415 Q3446.3438,1123.6025 3445.6875,1122.1337 Q3445.0313,1120.6494 3445.0313,1118.6806 Q3445.0313,1117.2587 3445.4219,1116.0869 Q3445.8281,1114.8994 3446.6094,1114.0244 Q3447.3906,1113.1494 3448.5313,1112.6806 Q3449.6719,1112.1962 3451.1406,1112.1962 Q3452.0938,1112.1962 3452.9844,1112.3994 Q3453.8906,1112.5869 3454.8281,1113.0556 L3454,1114.8369 Q3453.2188,1114.4619 3452.5625,1114.2744 Q3451.9063,1114.0712 3451.1094,1114.0712 Z " fill="#000000"/><text fill="#000000" font-family="JetBrains Mono" font-size="14" lengthAdjust="spacing" textLength="125.9995" x="3465" y="1123.58">DownloadAbility</text><line style="stroke:#181818;stroke-width:0.5;" x1="3437" x2="3592.9995" y1="1134.54" y2="1134.54"/><line style="stroke:#181818;stroke-width:0.5;" x1="3437" x2="3592.9995" y1="1142.54" y2="1142.54"/></g><!--class PolarizeAbility--><g class="entity" data-entity="PolarizeAbility" data-source-line="135" data-uid="ent0027" id="entity_PolarizeAbility"><rect fill="#F1F1F1" height="48" rx="2.5" ry="2.5" style="stroke:#181818;stroke-width:0.5;" width="157.9995" x="3629" y="1102.54"/><ellipse cx="3644" cy="1118.54" fill="#ADD1B2" rx="11" ry="11" style="stroke:#181818;stroke-width:1;"/><path d="M3644.1094,1114.0712 Q3643.1875,1114.0712 3642.4531,1114.3837 Q3641.7344,1114.6962 3641.2344,1115.29 Q3640.7344,1115.8681 3640.4531,1116.7431 Q3640.1875,1117.6181 3640.1875,1118.7119 Q3640.1875,1120.1494 3640.625,1121.1962 Q3641.0781,1122.2431 3641.9219,1122.79 Q3642.7813,1123.3369 3644.0938,1123.3369 Q3644.875,1123.3369 3645.5625,1123.2119 Q3646.2656,1123.0712 3647.2656,1122.7587 L3647.2656,1124.6337 Q3646.4063,1124.9619 3645.6406,1125.0869 Q3644.8906,1125.2119 3643.875,1125.2119 Q3641.9531,1125.2119 3640.6406,1124.415 Q3639.3438,1123.6025 3638.6875,1122.1337 Q3638.0313,1120.6494 3638.0313,1118.6806 Q3638.0313,1117.2587 3638.4219,1116.0869 Q3638.8281,1114.8994 3639.6094,1114.0244 Q3640.3906,1113.1494 3641.5313,1112.6806 Q3642.6719,1112.1962 3644.1406,1112.1962 Q3645.0938,1112.1962 3645.9844,1112.3994 Q3646.8906,1112.5869 3647.8281,1113.0556 L3647,1114.8369 Q3646.2188,1114.4619 3645.5625,1114.2744 Q3644.9063,1114.0712 3644.1094,1114.0712 Z " fill="#000000"/><text fill="#000000" font-family="JetBrains Mono" font-size="14" lengthAdjust="spacing" textLength="125.9995" x="3658" y="1123.58">PolarizeAbility</text><line style="stroke:#181818;stroke-width:0.5;" x1="3630" x2="3785.9995" y1="1134.54" y2="1134.54"/><line style="stroke:#181818;stroke-width:0.5;" x1="3630" x2="3785.9995" y1="1142.54" y2="1142.54"/></g><!--class ScanAbility--><g class="entity" data-entity="ScanAbility" data-source-line="138" data-uid="ent0028" id="entity_ScanAbility"><rect fill="#F1F1F1" height="48" rx="2.5" ry="2.5" style="stroke:#181818;stroke-width:0.5;" width="124.3996" x="2269.8" y="1102.54"/><ellipse cx="2284.8" cy="1118.54" fill="#ADD1B2" rx="11" ry="11" style="stroke:#181818;stroke-width:1;"/><path d="M2284.9094,1114.0712 Q2283.9875,1114.0712 2283.2531,1114.3837 Q2282.5344,1114.6962 2282.0344,1115.29 Q2281.5344,1115.8681 2281.2531,1116.7431 Q2280.9875,1117.6181 2280.9875,1118.7119 Q2280.9875,1120.1494 2281.425,1121.1962 Q2281.8781,1122.2431 2282.7219,1122.79 Q2283.5813,1123.3369 2284.8938,1123.3369 Q2285.675,1123.3369 2286.3625,1123.2119 Q2287.0656,1123.0712 2288.0656,1122.7587 L2288.0656,1124.6337 Q2287.2063,1124.9619 2286.4406,1125.0869 Q2285.6906,1125.2119 2284.675,1125.2119 Q2282.7531,1125.2119 2281.4406,1124.415 Q2280.1438,1123.6025 2279.4875,1122.1337 Q2278.8313,1120.6494 2278.8313,1118.6806 Q2278.8313,1117.2587 2279.2219,1116.0869 Q2279.6281,1114.8994 2280.4094,1114.0244 Q2281.1906,1113.1494 2282.3313,1112.6806 Q2283.4719,1112.1962 2284.9406,1112.1962 Q2285.8938,1112.1962 2286.7844,1112.3994 Q2287.6906,1112.5869 2288.6281,1113.0556 L2287.8,1114.8369 Q2287.0188,1114.4619 2286.3625,1114.2744 Q2285.7063,1114.0712 2284.9094,1114.0712 Z " fill="#000000"/><text fill="#000000" font-family="JetBrains Mono" font-size="14" lengthAdjust="spacing" textLength="92.3996" x="2298.8" y="1123.58">ScanAbility</text><line style="stroke:#181818;stroke-width:0.5;" x1="2270.8" x2="2393.1996" y1="1134.54" y2="1134.54"/><line style="stroke:#181818;stroke-width:0.5;" x1="2270.8" x2="2393.1996" y1="1142.54" y2="1142.54"/></g><!--class LinkBoostAbility--><g class="entity" data-entity="LinkBoostAbility" data-source-line="141" data-uid="ent0029" id="entity_LinkBoostAbility"><rect fill="#F1F1F1" height="48" rx="2.5" ry="2.5" style="stroke:#181818;stroke-width:0.5;" width="166.3994" x="2428.8" y="1102.54"/><ellipse cx="2443.8" cy="1118.54" fill="#ADD1B2" rx="11" ry="11" style="stroke:#181818;stroke-width:1;"/><path d="M2443.9094,1114.0712 Q2442.9875,1114.0712 2442.2531,1114.3837 Q2441.5344,1114.6962 2441.0344,1115.29 Q2440.5344,1115.8681 2440.2531,1116.7431 Q2439.9875,1117.6181 2439.9875,1118.7119 Q2439.9875,1120.1494 2440.425,1121.1962 Q2440.8781,1122.2431 2441.7219,1122.79 Q2442.5813,1123.3369 2443.8938,1123.3369 Q2444.675,1123.3369 2445.3625,1123.2119 Q2446.0656,1123.0712 2447.0656,1122.7587 L2447.0656,1124.6337 Q2446.2063,1124.9619 2445.4406,1125.0869 Q2444.6906,1125.2119 2443.675,1125.2119 Q2441.7531,1125.2119 2440.4406,1124.415 Q2439.1438,1123.6025 2438.4875,1122.1337 Q2437.8313,1120.6494 2437.8313,1118.6806 Q2437.8313,1117.2587 2438.2219,1116.0869 Q2438.6281,1114.8994 2439.4094,1114.0244 Q2440.1906,1113.1494 2441.3313,1112.6806 Q2442.4719,1112.1962 2443.9406,1112.1962 Q2444.8938,1112.1962 2445.7844,1112.3994 Q2446.6906,1112.5869 2447.6281,1113.0556 L2446.8,1114.8369 Q2446.0188,1114.4619 2445.3625,1114.2744 Q2444.7063,1114.0712 2443.9094,1114.0712 Z " fill="#000000"/><text fill="#000000" font-family="JetBrains Mono" font-size="14" lengthAdjust="spacing" textLength="134.3994" x="2457.8" y="1123.58">LinkBoostAbility</text><line style="stroke:#181818;stroke-width:0.5;" x1="2429.8" x2="2594.1994" y1="1134.54" y2="1134.54"/><line style="stroke:#181818;stroke-width:0.5;" x1="2429.8" x2="2594.1994" y1="1142.54" y2="1142.54"/></g><!--class PappleAbility--><g class="entity" data-entity="PappleAbility" data-source-line="144" data-uid="ent0030" id="entity_PappleAbility"><rect fill="#F1F1F1" height="48" rx="2.5" ry="2.5" style="stroke:#181818;stroke-width:0.5;" width="141.1995" x="2630.4" y="1102.54"/><ellipse cx="2645.4" cy="1118.54" fill="#ADD1B2" rx="11" ry="11" style="stroke:#181818;stroke-width:1;"/><path d="M2645.5094,1114.0712 Q2644.5875,1114.0712 2643.8531,1114.3837 Q2643.1344,1114.6962 2642.6344,1115.29 Q2642.1344,1115.8681 2641.8531,1116.7431 Q2641.5875,1117.6181 2641.5875,1118.7119 Q2641.5875,1120.1494 2642.025,1121.1962 Q2642.4781,1122.2431 2643.3219,1122.79 Q2644.1813,1123.3369 2645.4938,1123.3369 Q2646.275,1123.3369 2646.9625,1123.2119 Q2647.6656,1123.0712 2648.6656,1122.7587 L2648.6656,1124.6337 Q2647.8063,1124.9619 2647.0406,1125.0869 Q2646.2906,1125.2119 2645.275,1125.2119 Q2643.3531,1125.2119 2642.0406,1124.415 Q2640.7438,1123.6025 2640.0875,1122.1337 Q2639.4313,1120.6494 2639.4313,1118.6806 Q2639.4313,1117.2587 2639.8219,1116.0869 Q2640.2281,1114.8994 2641.0094,1114.0244 Q2641.7906,1113.1494 2642.9313,1112.6806 Q2644.0719,1112.1962 2645.5406,1112.1962 Q2646.4938,1112.1962 2647.3844,1112.3994 Q2648.2906,1112.5869 2649.2281,1113.0556 L2648.4,1114.8369 Q2647.6188,1114.4619 2646.9625,1114.2744 Q2646.3063,1114.0712 2645.5094,1114.0712 Z " fill="#000000"/><text fill="#000000" font-family="JetBrains Mono" font-size="14" lengthAdjust="spacing" textLength="109.1995" x="2659.4" y="1123.58">PappleAbility</text><line style="stroke:#181818;stroke-width:0.5;" x1="2631.4" x2="2770.5995" y1="1134.54" y2="1134.54"/><line style="stroke:#181818;stroke-width:0.5;" x1="2631.4" x2="2770.5995" y1="1142.54" y2="1142.54"/></g><!--class LagAbility--><g class="entity" data-entity="LagAbility" data-source-line="147" data-uid="ent0031" id="entity_LagAbility"><rect fill="#F1F1F1" height="48" rx="2.5" ry="2.5" style="stroke:#181818;stroke-width:0.5;" width="115.9996" x="2807" y="1102.54"/><ellipse cx="2822" cy="1118.54" fill="#ADD1B2" rx="11" ry="11" style="stroke:#181818;stroke-width:1;"/><path d="M2822.1094,1114.0712 Q2821.1875,1114.0712 2820.4531,1114.3837 Q2819.7344,1114.6962 2819.2344,1115.29 Q2818.7344,1115.8681 2818.4531,1116.7431 Q2818.1875,1117.6181 2818.1875,1118.7119 Q2818.1875,1120.1494 2818.625,1121.1962 Q2819.0781,1122.2431 2819.9219,1122.79 Q2820.7813,1123.3369 2822.0938,1123.3369 Q2822.875,1123.3369 2823.5625,1123.2119 Q2824.2656,1123.0712 2825.2656,1122.7587 L2825.2656,1124.6337 Q2824.4063,1124.9619 2823.6406,1125.0869 Q2822.8906,1125.2119 2821.875,1125.2119 Q2819.9531,1125.2119 2818.6406,1124.415 Q2817.3438,1123.6025 2816.6875,1122.1337 Q2816.0313,1120.6494 2816.0313,1118.6806 Q2816.0313,1117.2587 2816.4219,1116.0869 Q2816.8281,1114.8994 2817.6094,1114.0244 Q2818.3906,1113.1494 2819.5313,1112.6806 Q2820.6719,1112.1962 2822.1406,1112.1962 Q2823.0938,1112.1962 2823.9844,1112.3994 Q2824.8906,1112.5869 2825.8281,1113.0556 L2825,1114.8369 Q2824.2188,1114.4619 2823.5625,1114.2744 Q2822.9063,1114.0712 2822.1094,1114.0712 Z " fill="#000000"/><text fill="#000000" font-family="JetBrains Mono" font-size="14" lengthAdjust="spacing" textLength="83.9996" x="2836" y="1123.58">LagAbility</text><line style="stroke:#181818;stroke-width:0.5;" x1="2808" x2="2921.9996" y1="1134.54" y2="1134.54"/><line style="stroke:#181818;stroke-width:0.5;" x1="2808" x2="2921.9996" y1="1142.54" y2="1142.54"/></g><!--class QuantumEntanglementAbility--><g class="entity" data-entity="QuantumEntanglementAbility" data-source-line="150" data-uid="ent0032" id="entity_QuantumEntanglementAbility"><rect fill="#F1F1F1" height="48" rx="2.5" ry="2.5" style="stroke:#181818;stroke-width:0.5;" width="250.399" x="2957.8" y="1102.54"/><ellipse cx="2972.8" cy="1118.54" fill="#ADD1B2" rx="11" ry="11" style="stroke:#181818;stroke-width:1;"/><path d="M2972.9094,1114.0712 Q2971.9875,1114.0712 2971.2531,1114.3837 Q2970.5344,1114.6962 2970.0344,1115.29 Q2969.5344,1115.8681 2969.2531,1116.7431 Q2968.9875,1117.6181 2968.9875,1118.7119 Q2968.9875,1120.1494 2969.425,1121.1962 Q2969.8781,1122.2431 2970.7219,1122.79 Q2971.5813,1123.3369 2972.8938,1123.3369 Q2973.675,1123.3369 2974.3625,1123.2119 Q2975.0656,1123.0712 2976.0656,1122.7587 L2976.0656,1124.6337 Q2975.2063,1124.9619 2974.4406,1125.0869 Q2973.6906,1125.2119 2972.675,1125.2119 Q2970.7531,1125.2119 2969.4406,1124.415 Q2968.1438,1123.6025 2967.4875,1122.1337 Q2966.8313,1120.6494 2966.8313,1118.6806 Q2966.8313,1117.2587 2967.2219,1116.0869 Q2967.6281,1114.8994 2968.4094,1114.0244 Q2969.1906,1113.1494 2970.3313,1112.6806 Q2971.4719,1112.1962 2972.9406,1112.1962 Q2973.8938,1112.1962 2974.7844,1112.3994 Q2975.6906,1112.5869 2976.6281,1113.0556 L2975.8,1114.8369 Q2975.0188,1114.4619 2974.3625,1114.2744 Q2973.7063,1114.0712 2972.9094,1114.0712 Z " fill="#000000"/><text fill="#000000" font-family="JetBrains Mono" font-size="14" lengthAdjust="spacing" textLength="218.399" x="2986.8" y="1123.58">QuantumEntanglementAbility</text><line style="stroke:#181818;stroke-width:0.5;" x1="2958.8" x2="3207.199" y1="1134.54" y2="1134.54"/><line style="stroke:#181818;stroke-width:0.5;" x1="2958.8" x2="3207.199" y1="1142.54" y2="1142.54"/></g><!--class View--><g class="entity" data-entity="View" data-source-line="156" data-uid="ent0034" id="entity_View"><rect fill="#F1F1F1" height="103.4398" rx="2.5" ry="2.5" style="stroke:#181818;stroke-width:0.5;" width="247.199" x="3843.4" y="325.78"/><ellipse cx="3945.9496" cy="341.78" fill="#A9DCDF" rx="11" ry="11" style="stroke:#181818;stroke-width:1;"/><path d="M3949.2933,347.03 L3947.8246,343.28 L3943.3871,343.28 L3941.9496,347.03 L3939.8246,347.03 L3944.7777,334.3112 L3946.5277,334.3112 L3951.4496,347.03 L3949.2933,347.03 Z M3945.9496,338.0769 Q3945.9027,337.9206 3945.7777,337.5612 Q3945.6527,337.2019 3945.5433,336.8269 Q3945.4339,336.4362 3945.6371,336.3737 Q3945.7933,336.5612 3945.6996,336.9206 Q3945.6058,337.2644 3945.5121,337.5612 Q3945.4183,337.8425 3945.3402,338.0769 L3944.1058,341.3894 L3947.1839,341.3894 L3945.9496,338.0769 Z " fill="#000000"/><text fill="#000000" font-family="JetBrains Mono" font-size="14" font-style="italic" lengthAdjust="spacing" textLength="33.5999" x="3966.4496" y="346.82">View</text><line style="stroke:#181818;stroke-width:0.5;" x1="3844.4" x2="4089.599" y1="357.78" y2="357.78"/><line style="stroke:#181818;stroke-width:0.5;" x1="3844.4" x2="4089.599" y1="365.78" y2="365.78"/><text fill="#000000" font-family="JetBrains Mono" font-size="14" lengthAdjust="spacing" textLength="117.5995" x="3849.4" y="384.0599">-void update()</text><text fill="#000000" font-family="JetBrains Mono" font-size="14" lengthAdjust="spacing" textLength="125.9995" x="3849.4" y="402.5398">-void display()</text><text fill="#000000" font-family="JetBrains Mono" font-size="14" lengthAdjust="spacing" textLength="235.199" x="3849.4" y="421.0198">+void notify(Player* player)</text></g><!--class TextView--><g class="entity" data-entity="TextView" data-source-line="162" data-uid="ent0035" id="entity_TextView"><rect fill="#F1F1F1" height="48" rx="2.5" ry="2.5" style="stroke:#181818;stroke-width:0.5;" width="99.1997" x="3843.4" y="646.3"/><ellipse cx="3858.4" cy="662.3" fill="#ADD1B2" rx="11" ry="11" style="stroke:#181818;stroke-width:1;"/><path d="M3858.5094,657.8312 Q3857.5875,657.8312 3856.8531,658.1437 Q3856.1344,658.4562 3855.6344,659.05 Q3855.1344,659.6281 3854.8531,660.5031 Q3854.5875,661.3781 3854.5875,662.4719 Q3854.5875,663.9094 3855.025,664.9562 Q3855.4781,666.0031 3856.3219,666.55 Q3857.1813,667.0969 3858.4938,667.0969 Q3859.275,667.0969 3859.9625,666.9719 Q3860.6656,666.8312 3861.6656,666.5187 L3861.6656,668.3937 Q3860.8063,668.7219 3860.0406,668.8469 Q3859.2906,668.9719 3858.275,668.9719 Q3856.3531,668.9719 3855.0406,668.175 Q3853.7438,667.3625 3853.0875,665.8937 Q3852.4313,664.4094 3852.4313,662.4406 Q3852.4313,661.0187 3852.8219,659.8469 Q3853.2281,658.6594 3854.0094,657.7844 Q3854.7906,656.9094 3855.9313,656.4406 Q3857.0719,655.9562 3858.5406,655.9562 Q3859.4938,655.9562 3860.3844,656.1594 Q3861.2906,656.3469 3862.2281,656.8156 L3861.4,658.5969 Q3860.6188,658.2219 3859.9625,658.0344 Q3859.3063,657.8312 3858.5094,657.8312 Z " fill="#000000"/><text fill="#000000" font-family="JetBrains Mono" font-size="14" lengthAdjust="spacing" textLength="67.1997" x="3872.4" y="667.34">TextView</text><line style="stroke:#181818;stroke-width:0.5;" x1="3844.4" x2="3941.5997" y1="678.3" y2="678.3"/><line style="stroke:#181818;stroke-width:0.5;" x1="3844.4" x2="3941.5997" y1="686.3" y2="686.3"/></g><!--class GraphicalView--><g class="entity" data-entity="GraphicalView" data-source-line="165" data-uid="ent0036" id="entity_GraphicalView"><rect fill="#F1F1F1" height="48" rx="2.5" ry="2.5" style="stroke:#181818;stroke-width:0.5;" width="141.1995" x="3977.4" y="646.3"/><ellipse cx="3992.4" cy="662.3" fill="#ADD1B2" rx="11" ry="11" style="stroke:#181818;stroke-width:1;"/><path d="M3992.5094,657.8312 Q3991.5875,657.8312 3990.8531,658.1437 Q3990.1344,658.4562 3989.6344,659.05 Q3989.1344,659.6281 3988.8531,660.5031 Q3988.5875,661.3781 3988.5875,662.4719 Q3988.5875,663.9094 3989.025,664.9562 Q3989.4781,666.0031 3990.3219,666.55 Q3991.1813,667.0969 3992.4938,667.0969 Q3993.275,667.0969 3993.9625,666.9719 Q3994.6656,666.8312 3995.6656,666.5187 L3995.6656,668.3937 Q3994.8063,668.7219 3994.0406,668.8469 Q3993.2906,668.9719 3992.275,668.9719 Q3990.3531,668.9719 3989.0406,668.175 Q3987.7438,667.3625 3987.0875,665.8937 Q3986.4313,664.4094 3986.4313,662.4406 Q3986.4313,661.0187 3986.8219,659.8469 Q3987.2281,658.6594 3988.0094,657.7844 Q3988.7906,656.9094 3989.9313,656.4406 Q3991.0719,655.9562 3992.5406,655.9562 Q3993.4938,655.9562 3994.3844,656.1594 Q3995.2906,656.3469 3996.2281,656.8156 L3995.4,658.5969 Q3994.6188,658.2219 3993.9625,658.0344 Q3993.3063,657.8312 3992.5094,657.8312 Z " fill="#000000"/><text fill="#000000" font-family="JetBrains Mono" font-size="14" lengthAdjust="spacing" textLength="109.1995" x="4006.4" y="667.34">GraphicalView</text><line style="stroke:#181818;stroke-width:0.5;" x1="3978.4" x2="4117.5995" y1="678.3" y2="678.3"/><line style="stroke:#181818;stroke-width:0.5;" x1="3978.4" x2="4117.5995" y1="686.3" y2="686.3"/></g><!--class Controller--><g class="entity" data-entity="Controller" data-source-line="171" data-uid="ent0038" id="entity_Controller"><rect fill="#F1F1F1" height="121.9197" rx="2.5" ry="2.5" style="stroke:#181818;stroke-width:0.5;" width="431.9982" x="2361" y="43.7"/><ellipse cx="2530.7493" cy="59.7" fill="#ADD1B2" rx="11" ry="11" style="stroke:#181818;stroke-width:1;"/><path d="M2530.8586,55.2312 Q2529.9368,55.2312 2529.2024,55.5437 Q2528.4836,55.8562 2527.9836,56.45 Q2527.4836,57.0281 2527.2024,57.9031 Q2526.9368,58.7781 2526.9368,59.8719 Q2526.9368,61.3094 2527.3743,62.3562 Q2527.8274,63.4031 2528.6711,63.95 Q2529.5305,64.4969 2530.843,64.4969 Q2531.6243,64.4969 2532.3118,64.3719 Q2533.0149,64.2312 2534.0149,63.9187 L2534.0149,65.7937 Q2533.1555,66.1219 2532.3899,66.2469 Q2531.6399,66.3719 2530.6243,66.3719 Q2528.7024,66.3719 2527.3899,65.575 Q2526.093,64.7625 2525.4368,63.2937 Q2524.7805,61.8094 2524.7805,59.8406 Q2524.7805,58.4187 2525.1711,57.2469 Q2525.5774,56.0594 2526.3586,55.1844 Q2527.1399,54.3094 2528.2805,53.8406 Q2529.4211,53.3562 2530.8899,53.3562 Q2531.843,53.3562 2532.7336,53.5594 Q2533.6399,53.7469 2534.5774,54.2156 L2533.7493,55.9969 Q2532.968,55.6219 2532.3118,55.4344 Q2531.6555,55.2312 2530.8586,55.2312 Z " fill="#000000"/><text fill="#000000" font-family="JetBrains Mono" font-size="14" lengthAdjust="spacing" textLength="83.9996" x="2551.2493" y="64.74">Controller</text><line style="stroke:#181818;stroke-width:0.5;" x1="2362" x2="2791.9982" y1="75.7" y2="75.7"/><text fill="#000000" font-family="JetBrains Mono" font-size="14" lengthAdjust="spacing" textLength="226.799" x="2367" y="93.9799">-vector&lt;vector&lt;View&gt;&gt; views</text><text fill="#000000" font-family="JetBrains Mono" font-size="14" lengthAdjust="spacing" textLength="92.3996" x="2367" y="112.4598">-Game* game</text><line style="stroke:#181818;stroke-width:0.5;" x1="2362" x2="2791.9982" y1="120.6598" y2="120.6598"/><text fill="#000000" font-family="JetBrains Mono" font-size="14" lengthAdjust="spacing" textLength="159.5993" x="2367" y="138.9398">+void runGameLoop()</text><text fill="#000000" font-family="JetBrains Mono" font-size="14" lengthAdjust="spacing" textLength="419.9982" x="2367" y="157.4197">+void parseCommand(const std::string&amp; commandLine)</text></g><!--class LinkFactory--><g class="entity" data-entity="LinkFactory" data-source-line="182" data-uid="ent0040" id="entity_LinkFactory"><rect fill="#F1F1F1" height="66.4799" rx="2.5" ry="2.5" style="stroke:#181818;stroke-width:0.5;" width="339.5986" x="463.2" y="892.9"/><ellipse cx="582.5495" cy="908.9" fill="#ADD1B2" rx="11" ry="11" style="stroke:#181818;stroke-width:1;"/><path d="M582.6589,904.4312 Q581.737,904.4312 581.0026,904.7437 Q580.2839,905.0562 579.7839,905.65 Q579.2839,906.2281 579.0026,907.1031 Q578.737,907.9781 578.737,909.0719 Q578.737,910.5094 579.1745,911.5562 Q579.6276,912.6031 580.4714,913.15 Q581.3307,913.6969 582.6432,913.6969 Q583.4245,913.6969 584.112,913.5719 Q584.8151,913.4312 585.8151,913.1187 L585.8151,914.9937 Q584.9557,915.3219 584.1901,915.4469 Q583.4401,915.5719 582.4245,915.5719 Q580.5026,915.5719 579.1901,914.775 Q577.8932,913.9625 577.237,912.4937 Q576.5807,911.0094 576.5807,909.0406 Q576.5807,907.6187 576.9714,906.4469 Q577.3776,905.2594 578.1589,904.3844 Q578.9401,903.5094 580.0807,903.0406 Q581.2214,902.5562 582.6901,902.5562 Q583.6432,902.5562 584.5339,902.7594 Q585.4401,902.9469 586.3776,903.4156 L585.5495,905.1969 Q584.7682,904.8219 584.112,904.6344 Q583.4557,904.4312 582.6589,904.4312 Z " fill="#000000"/><text fill="#000000" font-family="JetBrains Mono" font-size="14" lengthAdjust="spacing" textLength="92.3996" x="603.0495" y="913.94">LinkFactory</text><line style="stroke:#181818;stroke-width:0.5;" x1="464.2" x2="801.7986" y1="924.9" y2="924.9"/><line style="stroke:#181818;stroke-width:0.5;" x1="464.2" x2="801.7986" y1="932.9" y2="932.9"/><text fill="#000000" font-family="JetBrains Mono" font-size="14" lengthAdjust="spacing" textLength="327.5986" x="469.2" y="951.1799">+Link* createPlayerLink(Player* player)</text></g><!--class AbilityFactory--><g class="entity" data-entity="AbilityFactory" data-source-line="186" data-uid="ent0041" id="entity_AbilityFactory"><rect fill="#F1F1F1" height="66.4799" rx="2.5" ry="2.5" style="stroke:#181818;stroke-width:0.5;" width="389.9984" x="838" y="892.9"/><ellipse cx="969.9494" cy="908.9" fill="#ADD1B2" rx="11" ry="11" style="stroke:#181818;stroke-width:1;"/><path d="M970.0588,904.4312 Q969.1369,904.4312 968.4026,904.7437 Q967.6838,905.0562 967.1838,905.65 Q966.6838,906.2281 966.4026,907.1031 Q966.1369,907.9781 966.1369,909.0719 Q966.1369,910.5094 966.5744,911.5562 Q967.0276,912.6031 967.8713,913.15 Q968.7307,913.6969 970.0432,913.6969 Q970.8244,913.6969 971.5119,913.5719 Q972.2151,913.4312 973.2151,913.1187 L973.2151,914.9937 Q972.3557,915.3219 971.5901,915.4469 Q970.8401,915.5719 969.8244,915.5719 Q967.9026,915.5719 966.5901,914.775 Q965.2932,913.9625 964.6369,912.4937 Q963.9807,911.0094 963.9807,909.0406 Q963.9807,907.6187 964.3713,906.4469 Q964.7776,905.2594 965.5588,904.3844 Q966.3401,903.5094 967.4807,903.0406 Q968.6213,902.5562 970.0901,902.5562 Q971.0432,902.5562 971.9338,902.7594 Q972.8401,902.9469 973.7776,903.4156 L972.9494,905.1969 Q972.1682,904.8219 971.5119,904.6344 Q970.8557,904.4312 970.0588,904.4312 Z " fill="#000000"/><text fill="#000000" font-family="JetBrains Mono" font-size="14" lengthAdjust="spacing" textLength="117.5995" x="990.4494" y="913.94">AbilityFactory</text><line style="stroke:#181818;stroke-width:0.5;" x1="839" x2="1226.9984" y1="924.9" y2="924.9"/><line style="stroke:#181818;stroke-width:0.5;" x1="839" x2="1226.9984" y1="932.9" y2="932.9"/><text fill="#000000" font-family="JetBrains Mono" font-size="14" lengthAdjust="spacing" textLength="377.9984" x="844" y="951.1799">+Ability* createPlayerAbility(Player* player)</text></g><!--class LinkDecoratorFactory--><g class="entity" data-entity="LinkDecoratorFactory" data-source-line="190" data-uid="ent0042" id="entity_LinkDecoratorFactory"><rect fill="#F1F1F1" height="66.4799" rx="2.5" ry="2.5" style="stroke:#181818;stroke-width:0.5;" width="406.7983" x="21.6" y="892.9"/><ellipse cx="136.7495" cy="908.9" fill="#ADD1B2" rx="11" ry="11" style="stroke:#181818;stroke-width:1;"/><path d="M136.8589,904.4312 Q135.937,904.4312 135.2026,904.7437 Q134.4839,905.0562 133.9839,905.65 Q133.4839,906.2281 133.2026,907.1031 Q132.937,907.9781 132.937,909.0719 Q132.937,910.5094 133.3745,911.5562 Q133.8276,912.6031 134.6714,913.15 Q135.5308,913.6969 136.8433,913.6969 Q137.6245,913.6969 138.312,913.5719 Q139.0151,913.4312 140.0151,913.1187 L140.0151,914.9937 Q139.1558,915.3219 138.3901,915.4469 Q137.6401,915.5719 136.6245,915.5719 Q134.7026,915.5719 133.3901,914.775 Q132.0933,913.9625 131.437,912.4937 Q130.7808,911.0094 130.7808,909.0406 Q130.7808,907.6187 131.1714,906.4469 Q131.5776,905.2594 132.3589,904.3844 Q133.1401,903.5094 134.2808,903.0406 Q135.4214,902.5562 136.8901,902.5562 Q137.8433,902.5562 138.7339,902.7594 Q139.6401,902.9469 140.5776,903.4156 L139.7495,905.1969 Q138.9683,904.8219 138.312,904.6344 Q137.6558,904.4312 136.8589,904.4312 Z " fill="#000000"/><text fill="#000000" font-family="JetBrains Mono" font-size="14" lengthAdjust="spacing" textLength="167.9993" x="157.2495" y="913.94">LinkDecoratorFactory</text><line style="stroke:#181818;stroke-width:0.5;" x1="22.6" x2="427.3983" y1="924.9" y2="924.9"/><line style="stroke:#181818;stroke-width:0.5;" x1="22.6" x2="427.3983" y1="932.9" y2="932.9"/><text fill="#000000" font-family="JetBrains Mono" font-size="14" lengthAdjust="spacing" textLength="394.7983" x="27.6" y="951.1799">+LinkDecorator* createLinkDecorator(Link* link)</text></g><!--reverse link Game to Board--><g class="link" data-entity-1="Game" data-entity-2="Board" data-source-line="198" data-uid="lnk43" id="link_Game_Board"><path codeLine="198" d="M2103.5327,522.5485 C2090.3327,541.6285 2085.21,551.89 2076,572.38 C1996,750.31 1986.11,988.84 1985.58,1083.9" fill="none" id="Game-backto-Board" style="stroke:#181818;stroke-width:1;"/><polygon fill="#181818" points="2110.36,512.68,2103.6568,515.3385,2103.5327,522.5485,2110.2359,519.89,2110.36,512.68" style="stroke:#181818;stroke-width:1;"/></g><!--reverse link Game to Player--><g class="link" data-entity-1="Game" data-entity-2="Player" data-source-line="199" data-uid="lnk44" id="link_Game_Player"><path codeLine="199" d="M2234,524.84 C2234,544.78 2234,553 2234,571.99" fill="none" id="Game-backto-Player" style="stroke:#181818;stroke-width:1;"/><polygon fill="#181818" points="2234,512.84,2230,518.84,2234,524.84,2238,518.84,2234,512.84" style="stroke:#181818;stroke-width:1;"/></g><!--reverse link Board to BaseCell--><g class="link" data-entity-1="Board" data-entity-2="BaseCell" data-source-line="201" data-uid="lnk45" id="link_Board_BaseCell"><path codeLine="201" d="M2164.8659,1172.5879 C2229.0059,1189.6679 2291.01,1207.38 2357,1229.02 C2362.82,1230.93 2368.79,1232.97 2374.78,1235.09" fill="none" id="Board-backto-BaseCell" style="stroke:#181818;stroke-width:1;"/><polygon fill="#181818" points="2153.27,1169.5,2158.0386,1174.9092,2164.8659,1172.5879,2160.0972,1167.1786,2153.27,1169.5" style="stroke:#181818;stroke-width:1;"/></g><!--reverse link BaseCell to Link--><g class="link" data-entity-1="BaseCell" data-entity-2="Link" data-source-line="202" data-uid="lnk46" id="link_BaseCell_Link"><path codeLine="202" d="M2363.0209,1230.2956 C2357.1509,1228.5256 2362.76,1230.39 2357,1229.02 C2226.63,1198.06 1865.67,1247.42 1757,1169.02 C1723.45,1144.82 1741.23,1118.94 1719,1084.06 C1706.02,1063.69 1690.52,1043.23 1674.7,1024.13" fill="none" id="BaseCell-backto-Link" style="stroke:#181818;stroke-width:1;"/><polygon fill="none" points="2374.51,1233.76,2369.9202,1228.1981,2363.0209,1230.2956,2367.6107,1235.8575,2374.51,1233.76" style="stroke:#181818;stroke-width:1;"/></g><!--reverse link Player to Ability--><g class="link" data-entity-1="Player" data-entity-2="Ability" data-source-line="204" data-uid="lnk47" id="link_Player_Ability"><path codeLine="204" d="M2385.5621,741.3762 C2467.6821,779.3462 2560.08,822.07 2642.22,860.05" fill="none" id="Player-backto-Ability" style="stroke:#181818;stroke-width:1;"/><polygon fill="#181818" points="2374.67,736.34,2378.4373,742.4888,2385.5621,741.3762,2381.7948,735.2274,2374.67,736.34" style="stroke:#181818;stroke-width:1;"/></g><!--reverse link Player to Link--><g class="link" data-entity-1="Player" data-entity-2="Link" data-source-line="205" data-uid="lnk48" id="link_Player_Link"><path codeLine="205" d="M2081.9602,730.5803 C1984.7602,768.4903 1865.9,814.83 1761.45,855.56" fill="none" id="Player-backto-Link" style="stroke:#181818;stroke-width:1;"/><polygon fill="#181818" points="2093.14,726.22,2086.0967,724.6736,2081.9602,730.5803,2089.0036,732.1267,2093.14,726.22" style="stroke:#181818;stroke-width:1;"/></g><!--reverse link Link to Board--><g class="link" data-entity-1="Link" data-entity-2="Board" data-source-line="207" data-uid="lnk49" id="link_Link_Board"><path codeLine="207" d="M1772.2863,1020.3297 C1820.7163,1044.1697 1860.16,1063.59 1900.79,1083.59" fill="none" id="Link-backto-Board" style="stroke:#181818;stroke-width:1;"/><polygon fill="none" points="1761.52,1015.03,1765.1365,1021.2686,1772.2863,1020.3297,1768.6697,1014.0911,1761.52,1015.03" style="stroke:#181818;stroke-width:1;"/></g><!--reverse link Player to PlayerCell--><g class="link" data-entity-1="Player" data-entity-2="PlayerCell" data-source-line="209" data-uid="lnk50" id="link_Player_PlayerCell"><path codeLine="209" d="M2222.7008,780.444 C2211.4908,908.164 2202.18,1111.15 2252,1169.02 C2346.41,1278.68 2479.59,1117.67 2572,1229.02 C2605.98,1269.97 2580.3,1332.56 2556.26,1373.74" fill="none" id="Player-backto-PlayerCell" style="stroke:#181818;stroke-width:1;"/><polygon fill="#181818" points="2223.75,768.49,2219.2407,774.1173,2222.7008,780.444,2227.2101,774.8167,2223.75,768.49" style="stroke:#181818;stroke-width:1;"/></g><!--reverse link PlayerCell to BaseCell--><g class="link" data-entity-1="PlayerCell" data-entity-2="BaseCell" data-source-line="210" data-uid="lnk51" id="link_PlayerCell_BaseCell"><path codeLine="210" d="M2517.6314,1362.6453 C2510.7914,1343.8753 2505.16,1333.03 2495.45,1314.23" fill="none" id="PlayerCell-backto-BaseCell" style="stroke:#181818;stroke-width:1;"/><polygon fill="#181818" points="2521.74,1373.92,2523.4439,1366.9131,2517.6314,1362.6453,2515.9274,1369.6522,2521.74,1373.92" style="stroke:#181818;stroke-width:1;"/></g><!--reverse link BaseCell to PlayerCell--><g class="link" data-entity-1="BaseCell" data-entity-2="PlayerCell" data-source-line="213" data-uid="lnk53" id="link_BaseCell_PlayerCell"><path codeLine="213" d="M2477.5001,1331.1394 C2484.3601,1349.9394 2487.94,1355.15 2497.65,1373.92" fill="none" id="BaseCell-backto-PlayerCell" style="stroke:#181818;stroke-width:1;"/><polygon fill="none" points="2471.33,1314.23,2471.8637,1333.1961,2483.1366,1329.0827,2471.33,1314.23" style="stroke:#181818;stroke-width:1;"/></g><!--reverse link BaseCell to BoardCell--><g class="link" data-entity-1="BaseCell" data-entity-2="BoardCell" data-source-line="212" data-uid="lnk52" id="link_BaseCell_BoardCell"><path codeLine="212" d="M2427.3086,1329.2223 C2410.4386,1354.6123 2399.48,1371.09 2385.49,1392.15" fill="none" id="BaseCell-backto-BoardCell" style="stroke:#181818;stroke-width:1;"/><polygon fill="none" points="2437.27,1314.23,2422.3111,1325.9018,2432.306,1332.5428,2437.27,1314.23" style="stroke:#181818;stroke-width:1;"/></g><!--reverse link PlayerCell to Server--><g class="link" data-entity-1="PlayerCell" data-entity-2="Server" data-source-line="214" data-uid="lnk54" id="link_PlayerCell_Server"><path codeLine="214" d="M2472.8855,1471.9109 C2452.8755,1491.6809 2442.52,1501.91 2425.65,1518.58" fill="none" id="PlayerCell-backto-Server" style="stroke:#181818;stroke-width:1;"/><polygon fill="none" points="2485.69,1459.26,2468.6686,1467.6427,2477.1025,1476.179,2485.69,1459.26" style="stroke:#181818;stroke-width:1;"/></g><!--reverse link PlayerCell to Firewall--><g class="link" data-entity-1="PlayerCell" data-entity-2="Firewall" data-source-line="215" data-uid="lnk55" id="link_PlayerCell_Firewall"><path codeLine="215" d="M2528,1477.26 C2528,1497.03 2528,1501.91 2528,1518.58" fill="none" id="PlayerCell-backto-Firewall" style="stroke:#181818;stroke-width:1;"/><polygon fill="none" points="2528,1459.26,2522,1477.26,2534,1477.26,2528,1459.26" style="stroke:#181818;stroke-width:1;"/></g><!--reverse link PlayerCell to Goal--><g class="link" data-entity-1="PlayerCell" data-entity-2="Goal" data-source-line="216" data-uid="lnk56" id="link_PlayerCell_Goal"><path codeLine="216" d="M2579.6106,1472.3732 C2598.2006,1492.1432 2607.37,1501.91 2623.04,1518.58" fill="none" id="PlayerCell-backto-Goal" style="stroke:#181818;stroke-width:1;"/><polygon fill="none" points="2567.28,1459.26,2575.2395,1476.4834,2583.9816,1468.263,2567.28,1459.26" style="stroke:#181818;stroke-width:1;"/></g><!--reverse link Link to VirusLink--><g class="link" data-entity-1="Link" data-entity-2="VirusLink" data-source-line="218" data-uid="lnk57" id="link_Link_VirusLink"><path codeLine="218" d="M1543.2955,1041.3105 C1533.1855,1070.3705 1528.91,1082.66 1522.11,1102.21" fill="none" id="Link-backto-VirusLink" style="stroke:#181818;stroke-width:1;"/><polygon fill="none" points="1549.21,1024.31,1537.6286,1039.339,1548.9623,1043.282,1549.21,1024.31" style="stroke:#181818;stroke-width:1;"/></g><!--reverse link Link to DataLink--><g class="link" data-entity-1="Link" data-entity-2="DataLink" data-source-line="219" data-uid="lnk58" id="link_Link_DataLink"><path codeLine="219" d="M1622.7045,1041.3105 C1632.8145,1070.3705 1637.09,1082.66 1643.89,1102.21" fill="none" id="Link-backto-DataLink" style="stroke:#181818;stroke-width:1;"/><polygon fill="none" points="1616.79,1024.31,1617.0377,1043.282,1628.3714,1039.339,1616.79,1024.31" style="stroke:#181818;stroke-width:1;"/></g><!--reverse link Link to LinkDecorator--><g class="link" data-entity-1="Link" data-entity-2="LinkDecorator" data-source-line="220" data-uid="lnk59" id="link_Link_LinkDecorator"><path codeLine="220" d="M1444.627,1036.1096 C1416.127,1060.8496 1402.12,1073.96 1382.5,1092.88" fill="none" id="Link-backto-LinkDecorator" style="stroke:#181818;stroke-width:1;"/><polygon fill="none" points="1458.22,1024.31,1440.6938,1031.5786,1448.5603,1040.6406,1458.22,1024.31" style="stroke:#181818;stroke-width:1;"/></g><!--reverse link LinkDecorator to Link--><g class="link" data-entity-1="LinkDecorator" data-entity-2="Link" data-source-line="237" data-uid="lnk73" id="link_LinkDecorator_Link"><path codeLine="237" d="M1411.9726,1085.4241 C1435.8326,1066.5041 1456.09,1049.05 1484.46,1024.31" fill="none" id="LinkDecorator-backto-Link" style="stroke:#181818;stroke-width:1;"/><polygon fill="#181818" points="1402.57,1092.88,1409.7566,1092.2862,1411.9726,1085.4241,1404.786,1086.0178,1402.57,1092.88" style="stroke:#181818;stroke-width:1;"/></g><!--reverse link LinkDecorator to LinkBoostDecorator--><g class="link" data-entity-1="LinkDecorator" data-entity-2="LinkBoostDecorator" data-source-line="222" data-uid="lnk60" id="link_LinkDecorator_LinkBoostDecorator"><path codeLine="222" d="M1362.3814,1177.7896 C1366.2714,1204.3196 1369.08,1223.38 1372.56,1247.1" fill="none" id="LinkDecorator-backto-LinkBoostDecorator" style="stroke:#181818;stroke-width:1;"/><polygon fill="none" points="1359.77,1159.98,1356.4448,1178.66,1368.3179,1176.9191,1359.77,1159.98" style="stroke:#181818;stroke-width:1;"/></g><!--reverse link LinkDecorator to PolarizeDecorator--><g class="link" data-entity-1="LinkDecorator" data-entity-2="PolarizeDecorator" data-source-line="223" data-uid="lnk61" id="link_LinkDecorator_PolarizeDecorator"><path codeLine="223" d="M1423.9989,1169.5135 C1467.6189,1196.0435 1512.73,1223.5 1551.62,1247.16" fill="none" id="LinkDecorator-backto-PolarizeDecorator" style="stroke:#181818;stroke-width:1;"/><polygon fill="none" points="1408.62,1160.16,1420.8811,1174.6398,1427.1168,1164.3872,1408.62,1160.16" style="stroke:#181818;stroke-width:1;"/></g><!--reverse link LinkDecorator to RevealDecorator--><g class="link" data-entity-1="LinkDecorator" data-entity-2="RevealDecorator" data-source-line="224" data-uid="lnk62" id="link_LinkDecorator_RevealDecorator"><path codeLine="224" d="M1436.7647,1167.1568 C1444.3547,1170.3968 1435.51,1166.39 1443,1169.02 C1551.65,1207.1 1585.74,1192.72 1695,1229.02 C1710.33,1234.12 1726.61,1240.68 1741.32,1247.08" fill="none" id="LinkDecorator-backto-RevealDecorator" style="stroke:#181818;stroke-width:1;"/><polygon fill="none" points="1420.21,1160.09,1434.4091,1172.6751,1439.1204,1161.6386,1420.21,1160.09" style="stroke:#181818;stroke-width:1;"/></g><!--reverse link LinkDecorator to LagDecorator--><g class="link" data-entity-1="LinkDecorator" data-entity-2="LagDecorator" data-source-line="225" data-uid="lnk63" id="link_LinkDecorator_LagDecorator"><path codeLine="225" d="M1435.1436,1167.1193 C1443.2436,1170.4693 1434.9,1166.63 1443,1169.02 C1633.96,1225.46 1696.56,1170.84 1887,1229.02 C1894.78,1231.4 1902.72,1234.43 1910.47,1237.76" fill="none" id="LinkDecorator-backto-LagDecorator" style="stroke:#181818;stroke-width:1;"/><polygon fill="none" points="1418.51,1160.24,1432.8505,1172.6638,1437.4367,1161.5748,1418.51,1160.24" style="stroke:#181818;stroke-width:1;"/></g><!--reverse link LinkDecorator to QuantumEntanglementDecorator--><g class="link" data-entity-1="LinkDecorator" data-entity-2="QuantumEntanglementDecorator" data-source-line="226" data-uid="lnk64" id="link_LinkDecorator_QuantumEntanglementDecorator"><path codeLine="226" d="M1434.102,1166.9646 C1442.532,1170.4246 1434.53,1166.69 1443,1169.02 C1706.47,1241.68 1786.25,1179.31 2055,1229.02 C2068.23,1231.47 2081.99,1234.52 2095.58,1237.85" fill="none" id="LinkDecorator-backto-QuantumEntanglementDecorator" style="stroke:#181818;stroke-width:1;"/><polygon fill="none" points="1417.45,1160.13,1431.8238,1172.5153,1436.3802,1161.4139,1417.45,1160.13" style="stroke:#181818;stroke-width:1;"/></g><!--reverse link Ability to FirewallAbility--><g class="link" data-entity-1="Ability" data-entity-2="FirewallAbility" data-source-line="228" data-uid="lnk65" id="link_Ability_FirewallAbility"><path codeLine="228" d="M2940.5884,980.0537 C3028.1284,1010.0437 3125.75,1044.7 3226,1084.06 C3240.2,1089.63 3255.41,1096.02 3269.45,1102.08" fill="none" id="Ability-backto-FirewallAbility" style="stroke:#181818;stroke-width:1;"/><polygon fill="none" points="2923.56,974.22,2938.6439,985.7298,2942.533,974.3775,2923.56,974.22" style="stroke:#181818;stroke-width:1;"/></g><!--reverse link Ability to DownloadAbility--><g class="link" data-entity-1="Ability" data-entity-2="DownloadAbility" data-source-line="229" data-uid="lnk66" id="link_Ability_DownloadAbility"><path codeLine="229" d="M2941.2029,958.7529 C3071.1329,986.1429 3251.1,1028.16 3418,1084.06 C3433.37,1089.21 3449.71,1095.75 3464.5,1102.12" fill="none" id="Ability-backto-DownloadAbility" style="stroke:#181818;stroke-width:1;"/><polygon fill="none" points="2923.59,955.04,2939.9653,964.6239,2942.4405,952.8819,2923.59,955.04" style="stroke:#181818;stroke-width:1;"/></g><!--reverse link Ability to PolarizeAbility--><g class="link" data-entity-1="Ability" data-entity-2="PolarizeAbility" data-source-line="230" data-uid="lnk67" id="link_Ability_PolarizeAbility"><path codeLine="230" d="M2941.508,946.7397 C3108.068,969.2397 3374.82,1012.11 3611,1084.06 C3626.94,1088.92 3643.81,1095.56 3658.93,1102.11" fill="none" id="Ability-backto-PolarizeAbility" style="stroke:#181818;stroke-width:1;"/><polygon fill="none" points="2923.67,944.33,2940.7048,952.6856,2942.3112,940.7937,2923.67,944.33" style="stroke:#181818;stroke-width:1;"/></g><!--reverse link Ability to ScanAbility--><g class="link" data-entity-1="Ability" data-entity-2="ScanAbility" data-source-line="231" data-uid="lnk68" id="link_Ability_ScanAbility"><path codeLine="231" d="M2625.5575,990.0834 C2555.4475,1018.8534 2486.42,1048.43 2411,1084.06 C2399.23,1089.62 2386.68,1096 2375.13,1102.05" fill="none" id="Ability-backto-ScanAbility" style="stroke:#181818;stroke-width:1;"/><polygon fill="none" points="2642.21,983.25,2623.2797,984.5326,2627.8353,995.6342,2642.21,983.25" style="stroke:#181818;stroke-width:1;"/></g><!--reverse link Ability to LinkBoostAbility--><g class="link" data-entity-1="Ability" data-entity-2="LinkBoostAbility" data-source-line="232" data-uid="lnk69" id="link_Ability_LinkBoostAbility"><path codeLine="232" d="M2660.976,1016.4726 C2613.836,1050.9826 2576.49,1078.32 2544.09,1102.05" fill="none" id="Ability-backto-LinkBoostAbility" style="stroke:#181818;stroke-width:1;"/><polygon fill="none" points="2675.5,1005.84,2657.4318,1011.6313,2664.5202,1021.314,2675.5,1005.84" style="stroke:#181818;stroke-width:1;"/></g><!--reverse link Ability to PappleAbility--><g class="link" data-entity-1="Ability" data-entity-2="PappleAbility" data-source-line="233" data-uid="lnk70" id="link_Ability_PappleAbility"><path codeLine="233" d="M2743.594,1022.4749 C2729.284,1057.0949 2720.42,1078.56 2710.62,1102.27" fill="none" id="Ability-backto-PappleAbility" style="stroke:#181818;stroke-width:1;"/><polygon fill="none" points="2750.47,1005.84,2738.0491,1020.1829,2749.139,1024.7669,2750.47,1005.84" style="stroke:#181818;stroke-width:1;"/></g><!--reverse link Ability to LagAbility--><g class="link" data-entity-1="Ability" data-entity-2="LagAbility" data-source-line="234" data-uid="lnk71" id="link_Ability_LagAbility"><path codeLine="234" d="M2822.406,1022.4749 C2836.716,1057.0949 2845.58,1078.56 2855.38,1102.27" fill="none" id="Ability-backto-LagAbility" style="stroke:#181818;stroke-width:1;"/><polygon fill="none" points="2815.53,1005.84,2816.861,1024.7669,2827.9509,1020.1829,2815.53,1005.84" style="stroke:#181818;stroke-width:1;"/></g><!--reverse link Ability to QuantumEntanglementAbility--><g class="link" data-entity-1="Ability" data-entity-2="QuantumEntanglementAbility" data-source-line="235" data-uid="lnk72" id="link_Ability_QuantumEntanglementAbility"><path codeLine="235" d="M2917.0135,1015.7694 C2969.1935,1050.2794 3011.6,1078.32 3047.48,1102.05" fill="none" id="Ability-backto-QuantumEntanglementAbility" style="stroke:#181818;stroke-width:1;"/><polygon fill="none" points="2902,1005.84,2913.7037,1020.7739,2920.3234,1010.7649,2902,1005.84" style="stroke:#181818;stroke-width:1;"/></g><!--reverse link View to TextView--><g class="link" data-entity-1="View" data-entity-2="TextView" data-source-line="239" data-uid="lnk74" id="link_View_TextView"><path codeLine="239" d="M3949.5903,446.9339 C3933.3803,510.6239 3910.78,599.45 3898.9,646.12" fill="none" id="View-backto-TextView" style="stroke:#181818;stroke-width:1;"/><polygon fill="none" points="3954.03,429.49,3943.7757,445.454,3955.4049,448.4138,3954.03,429.49" style="stroke:#181818;stroke-width:1;"/></g><!--reverse link View to GraphicalView--><g class="link" data-entity-1="View" data-entity-2="GraphicalView" data-source-line="240" data-uid="lnk75" id="link_View_GraphicalView"><path codeLine="240" d="M3986.0298,446.8299 C4003.7698,510.5199 4028.54,599.45 4041.54,646.12" fill="none" id="View-backto-GraphicalView" style="stroke:#181818;stroke-width:1;"/><polygon fill="none" points="3981.2,429.49,3980.2498,448.4398,3991.8098,445.22,3981.2,429.49" style="stroke:#181818;stroke-width:1;"/></g><!--reverse link Controller to Game--><g class="link" data-entity-1="Controller" data-entity-2="Game" data-source-line="242" data-uid="lnk76" id="link_Controller_Game"><path codeLine="242" d="M2491.0312,173.5454 C2462.3012,196.2254 2437.81,215.57 2403.97,242.29" fill="none" id="Controller-backto-Game" style="stroke:#181818;stroke-width:1;"/><polygon fill="none" points="2500.45,166.11,2493.2621,166.6881,2491.0312,173.5454,2498.219,172.9673,2500.45,166.11" style="stroke:#181818;stroke-width:1;"/></g><!--reverse link Controller to View--><g class="link" data-entity-1="Controller" data-entity-2="View" data-source-line="243" data-uid="lnk77" id="link_Controller_View"><path codeLine="243" d="M2805.4381,129.9673 C2995.9881,149.3973 3269.12,175.04 3518,189.62 C3533.81,190.55 3788.59,191.04 3803,197.62 C3861.44,224.31 3908.46,282.68 3936.91,325.52" fill="none" id="Controller-backto-View" style="stroke:#181818;stroke-width:1;"/><polygon fill="none" points="2793.5,128.75,2799.0633,133.338,2805.4381,129.9673,2799.8748,125.3793,2793.5,128.75" style="stroke:#181818;stroke-width:1;"/></g><!--link LinkFactory to Link--><g class="link" data-entity-1="LinkFactory" data-entity-2="Link" data-source-line="245" data-uid="lnk78" id="link_LinkFactory_Link"><path codeLine="245" d="M671.85,892.57 C710.94,861.2 774.46,816.53 838.5,798.22 C1004.31,750.83 1056.61,768.66 1226.5,798.22 C1285.94,808.56 1342.9298,825.8462 1398.8298,846.4362" fill="none" id="LinkFactory-to-Link" style="stroke:#181818;stroke-width:1;stroke-dasharray:7.0,7.0;"/><polygon fill="#181818" points="1404.46,848.51,1397.3972,841.6458,1399.7682,846.7818,1394.6321,849.1527,1404.46,848.51" style="stroke:#181818;stroke-width:1;"/></g><!--link AbilityFactory to Ability--><g class="link" data-entity-1="AbilityFactory" data-entity-2="Ability" data-source-line="246" data-uid="lnk79" id="link_AbilityFactory_Ability"><path codeLine="246" d="M1082.01,892.48 C1131,861.04 1209.74,816.32 1285.5,798.22 C1488.67,749.69 2017.94,774.71 2225.5,798.22 C2369.44,814.52 2524.5749,852.1885 2636.3849,882.9485" fill="none" id="AbilityFactory-to-Ability" style="stroke:#181818;stroke-width:1;stroke-dasharray:7.0,7.0;"/><polygon fill="#181818" points="2642.17,884.54,2634.5534,878.296,2637.3491,883.2137,2632.4314,886.0094,2642.17,884.54" style="stroke:#181818;stroke-width:1;"/></g><!--link LinkDecoratorFactory to LinkDecorator--><g class="link" data-entity-1="LinkDecoratorFactory" data-entity-2="LinkDecorator" data-source-line="247" data-uid="lnk80" id="link_LinkDecoratorFactory_LinkDecorator"><path codeLine="247" d="M285.58,959.67 C329,981.49 389.55,1008.91 446,1024.06 C750.43,1105.77 1123.2712,1121.661 1278.1012,1124.731" fill="none" id="LinkDecoratorFactory-to-LinkDecorator" style="stroke:#181818;stroke-width:1;stroke-dasharray:7.0,7.0;"/><polygon fill="#181818" points="1284.1,1124.85,1275.1811,1120.6723,1279.101,1124.7509,1275.0225,1128.6708,1284.1,1124.85" style="stroke:#181818;stroke-width:1;"/></g><!--SRC=[XLRTKnit47-_lq93PbhZu4wV4yOpna1B1qYB3NcMxuIjyPrqbNGc9EL_x-hJakwuFDYMzxUh_TJkoZrbBHQuGMMDfLme9UYcK-Icv6n5lnFqUo43IqMUSLUhQyxKFMu8ElcBg0k1APFeZZD-KXI_ejbiXgvOrqXzAbfSxl4ME8acdQ0V1KBwY2wf8AMYd1aIGlTV7jP_cjFgowCxNIrMQtFuUcKER_3nyhUKxTUlBN7YJpSFZojpkboi5uRthV3ctF6Ar6Yf_IEPMOs6Jjmb9WBe3-sP9I0qGmSmaulplslyIiGSjUPN1fWoXSfE2CAKPRbX5VdsEU0N78iARVHtuOWVqO7J2ac5XTBA9gSfmCWtjUu4Y-ZcbYdQGhZrAK8sdDUet95o_vMoMovbX5c3ZDWoDZ5YqUO379a-SLAPKGtUapj-89DoXmMg8Vfdo1mhAZ9MkUClYRx5XjPKlUP-Tf9uH9j1gpCVR0b5oBOGR5rrqegz5L6ER5HxIN8_5rYI9Qdh-Tm6_dEHXgi1FtJzJFJNr3dJOYhEmOup7PCvAZaNLQeQRy0kN2flWzCIcM7lusNPjPWf_I_BEMTNJ4423EDxVaMN3cksKKrqVmZcJD46Ji4aNmFyXH7HLxWYua14giqYr_10Nt1kYNiY70_IhR8e85bGeT9M9HSapvihW-aSFDKdIcJEOY8sDxcInw2-StzSQRa6u5bu9Nb5LX2bckCgAeoSWzH4vSLpvB4qK64umbCPAoFD-Nx4R1actGQa2Tkg7HeBmzB8vVx906GIZBmieu8F0eBysn6fpCC_TkpaoRiEid9MJT9Wc1ODiFxDknQG7yY1u7gbiF9eKazFL7Go2b02NcA5-zX0T2y9r0I6AeXUYqsKVYceVxC6BpYNAfTCYvtNMC2476Mo3ewotE9jtqARQWLJGDwIPzMN-gU33jCrq4umszQaWMOxT8lr4_geofv_5YVtFeAabhLT634OKH7Lf0vQTnXdSJ-VZ3JmAFDKFi85azFyXWQBVGznPa2rt1-7vM2hIfr8YyMzx14MdyyHbbM9sGWSwcPC2sxRUam7bCC8Ef3sdFlDhprFbBmCRpq7GFpIanM24OghmAQshOvFDA9NLEg5g9z9nXLzVlMxXDkQ1bAtXbqdKfbE6O7R7IrndJ04zvQmXGfUrp1mZ9EfYsL0q-qkaagyJ1O8hH2M1nqc6J7fPGswktuFkR-YOngzvRpj1mDU0SnctZIOLHCmJEecNdtwP2lx5sZo1eBo8QUvbzTOM_GwdCTd2wOUwYhqKZ-ooLGA0dcqMJ4ZwgS9SjNLlz1FrEHEly_zzDgaBmzR6s2l8Y7snc-yy3-G6kj99NUqjI4hp5O_dRc5_FZNMbeKTgCq36wHAiA2nsUsaHQ5Mt0qctCr9ZacCvHuK9Lm75Ut8jhY4hL7lUV_-KjIUmnz-2O3kQMkHmyhNG_H2vqptFmFWpUY-NaRaPACMFdZ40eSwIWTukgDqY6cR9GEQej6wH0-DZIBmZVI95O-pGcOJPCKpEP82aOJ90NosP7T6K-DJ33CYvJ-_gJ84pKDvMqQhP7sVJaY9UsuAA96gclTFAYSQ3dZXlJRtAhAsWgGlN63dS697PFrFm00]--></g></svg>