<svg xmlns="http://www.w3.org/2000/svg" xmlns:xlink="http://www.w3.org/1999/xlink" contentStyleType="text/css" data-diagram-type="CLASS" height="1595px" preserveAspectRatio="none" style="width:3765px;height:1595px;background:#FFFFFF;" version="1.1" viewBox="0 0 3765 1595" width="3765px" zoomAndPan="magnify"><defs/><g><!--cluster model--><g class="cluster" data-entity="model" data-source-line="3" data-uid="ent0002" id="cluster_model"><path d="M1068.5,208.872 L1113.3653,208.872 A3.75,3.75 0 0 1 1115.8653,211.372 L1122.8653,233.9399 L3258.5,233.9399 A2.5,2.5 0 0 1 3261,236.4399 L3261,1585.612 A2.5,2.5 0 0 1 3258.5,1588.112 L1068.5,1588.112 A2.5,2.5 0 0 1 1066,1585.612 L1066,211.372 A2.5,2.5 0 0 1 1068.5,208.872" fill="none" style="stroke:#000000;stroke-width:1.5;"/><line style="stroke:#000000;stroke-width:1.5;" x1="1066" x2="1122.8653" y1="233.9399" y2="233.9399"/><text fill="#000000" font-family="sans-serif" font-size="14" font-weight="bold" lengthAdjust="spacing" textLength="43.8653" x="1070" y="225.8379">model</text></g><!--cluster view--><g class="cluster" data-entity="view" data-source-line="135" data-uid="ent0030" id="cluster_view"><path d="M3287.5,294.672 L3319.8739,294.672 A3.75,3.75 0 0 1 3322.3739,297.172 L3329.3739,319.7399 L3755.5,319.7399 A2.5,2.5 0 0 1 3758,322.2399 L3758,769.132 A2.5,2.5 0 0 1 3755.5,771.632 L3287.5,771.632 A2.5,2.5 0 0 1 3285,769.132 L3285,297.172 A2.5,2.5 0 0 1 3287.5,294.672" fill="none" style="stroke:#000000;stroke-width:1.5;"/><line style="stroke:#000000;stroke-width:1.5;" x1="3285" x2="3329.3739" y1="319.7399" y2="319.7399"/><text fill="#000000" font-family="sans-serif" font-size="14" font-weight="bold" lengthAdjust="spacing" textLength="31.3739" x="3289" y="311.6379">view</text></g><!--cluster controller--><g class="cluster" data-entity="controller" data-source-line="156" data-uid="ent0034" id="cluster_controller"><path d="M2440.5,6.602 L2509.9248,6.602 A3.75,3.75 0 0 1 2512.4248,9.102 L2519.4248,31.6699 L2851.5,31.6699 A2.5,2.5 0 0 1 2854,34.1699 L2854,182.372 A2.5,2.5 0 0 1 2851.5,184.872 L2440.5,184.872 A2.5,2.5 0 0 1 2438,182.372 L2438,9.102 A2.5,2.5 0 0 1 2440.5,6.602" fill="none" style="stroke:#000000;stroke-width:1.5;"/><line style="stroke:#000000;stroke-width:1.5;" x1="2438" x2="2519.4248" y1="31.6699" y2="31.6699"/><text fill="#000000" font-family="sans-serif" font-size="14" font-weight="bold" lengthAdjust="spacing" textLength="68.4248" x="2442" y="23.5679">controller</text></g><!--cluster factory--><g class="cluster" data-entity="factory" data-source-line="167" data-uid="ent0036" id="cluster_factory"><path d="M8.5,892.032 L58.3983,892.032 A3.75,3.75 0 0 1 60.8983,894.532 L67.8983,917.0999 L1039.5,917.0999 A2.5,2.5 0 0 1 1042,919.5999 L1042,1010.602 A2.5,2.5 0 0 1 1039.5,1013.102 L8.5,1013.102 A2.5,2.5 0 0 1 6,1010.602 L6,894.532 A2.5,2.5 0 0 1 8.5,892.032" fill="none" style="stroke:#000000;stroke-width:1.5;"/><line style="stroke:#000000;stroke-width:1.5;" x1="6" x2="67.8983" y1="917.0999" y2="917.0999"/><text fill="#000000" font-family="sans-serif" font-size="14" font-weight="bold" lengthAdjust="spacing" textLength="48.8983" x="10" y="908.9979">factory</text></g><!--class Game--><g class="entity" data-entity="Game" data-source-line="4" data-uid="ent0003" id="entity_Game"><rect fill="#F1F1F1" height="276.815" rx="2.5" ry="2.5" style="stroke:#181818;stroke-width:0.5;" width="319.2569" x="1734.37" y="246.872"/><ellipse cx="1870.2325" cy="262.872" fill="#ADD1B2" rx="11" ry="11" style="stroke:#181818;stroke-width:1;"/><path d="M1870.3419,258.4032 Q1869.42,258.4032 1868.6856,258.7157 Q1867.9669,259.0282 1867.4669,259.622 Q1866.9669,260.2001 1866.6856,261.0751 Q1866.42,261.9501 1866.42,263.0439 Q1866.42,264.4814 1866.8575,265.5282 Q1867.3106,266.5751 1868.1544,267.122 Q1869.0138,267.6689 1870.3263,267.6689 Q1871.1075,267.6689 1871.795,267.5439 Q1872.4981,267.4032 1873.4981,267.0907 L1873.4981,268.9657 Q1872.6388,269.2939 1871.8731,269.4189 Q1871.1231,269.5439 1870.1075,269.5439 Q1868.1856,269.5439 1866.8731,268.747 Q1865.5763,267.9345 1864.92,266.4657 Q1864.2638,264.9814 1864.2638,263.0126 Q1864.2638,261.5907 1864.6544,260.4189 Q1865.0606,259.2314 1865.8419,258.3564 Q1866.6231,257.4814 1867.7638,257.0126 Q1868.9044,256.5282 1870.3731,256.5282 Q1871.3263,256.5282 1872.2169,256.7314 Q1873.1231,256.9189 1874.0606,257.3876 L1873.2325,259.1689 Q1872.4513,258.7939 1871.795,258.6064 Q1871.1388,258.4032 1870.3419,258.4032 Z " fill="#000000"/><text fill="#000000" font-family="sans-serif" font-size="14" lengthAdjust="spacing" textLength="39.0318" x="1890.7325" y="268.304">Game</text><line style="stroke:#181818;stroke-width:0.5;" x1="1735.37" x2="2052.6269" y1="278.872" y2="278.872"/><rect fill="none" height="6" style="stroke:#C82930;stroke-width:1;" width="6" x="1742.37" y="290.9059"/><text fill="#000000" font-family="sans-serif" font-size="14" lengthAdjust="spacing" textLength="149.0434" x="1754.37" y="297.8379">vector&lt;Player&gt; players</text><rect fill="none" height="6" style="stroke:#C82930;stroke-width:1;" width="6" x="1742.37" y="309.9739"/><text fill="#000000" font-family="sans-serif" font-size="14" lengthAdjust="spacing" textLength="151.3114" x="1754.37" y="316.9058">int currentPlayerIndex;</text><rect fill="none" height="6" style="stroke:#C82930;stroke-width:1;" width="6" x="1742.37" y="329.0418"/><text fill="#000000" font-family="sans-serif" font-size="14" lengthAdjust="spacing" textLength="82.7817" x="1754.37" y="335.9738">Board board</text><line style="stroke:#181818;stroke-width:0.5;" x1="1735.37" x2="2052.6269" y1="344.0757" y2="344.0757"/><ellipse cx="1745.37" cy="359.1097" fill="#84BE84" rx="3" ry="3" style="stroke:#038048;stroke-width:1;"/><text fill="#000000" font-family="sans-serif" font-size="14" lengthAdjust="spacing" textLength="109.3256" x="1754.37" y="363.0417">void startGame()</text><ellipse cx="1745.37" cy="378.1776" fill="#84BE84" rx="3" ry="3" style="stroke:#038048;stroke-width:1;"/><text fill="#000000" font-family="sans-serif" font-size="14" lengthAdjust="spacing" textLength="99.7216" x="1754.37" y="382.1096">void nextTurn()</text><ellipse cx="1745.37" cy="397.2455" fill="#84BE84" rx="3" ry="3" style="stroke:#038048;stroke-width:1;"/><text fill="#000000" font-family="sans-serif" font-size="14" lengthAdjust="spacing" textLength="120.9456" x="1754.37" y="401.1775">Board* getBoard()</text><ellipse cx="1745.37" cy="416.3134" fill="#84BE84" rx="3" ry="3" style="stroke:#038048;stroke-width:1;"/><text fill="#000000" font-family="sans-serif" font-size="14" lengthAdjust="spacing" textLength="133.1675" x="1754.37" y="420.2454">bool checkWinLoss()</text><ellipse cx="1745.37" cy="435.3814" fill="#84BE84" rx="3" ry="3" style="stroke:#038048;stroke-width:1;"/><text fill="#000000" font-family="sans-serif" font-size="14" lengthAdjust="spacing" textLength="173.4873" x="1754.37" y="439.3133">Player* getCurrentPlayer()</text><ellipse cx="1745.37" cy="454.4493" fill="#84BE84" rx="3" ry="3" style="stroke:#038048;stroke-width:1;"/><text fill="#000000" font-family="sans-serif" font-size="14" lengthAdjust="spacing" textLength="181.0893" x="1754.37" y="458.3813">int getPlayerIndex(Player *)</text><ellipse cx="1745.37" cy="473.5172" fill="#84BE84" rx="3" ry="3" style="stroke:#038048;stroke-width:1;"/><text fill="#000000" font-family="sans-serif" font-size="14" lengthAdjust="spacing" textLength="226.3791" x="1754.37" y="477.4492">void makeMove(char link, char dir)</text><ellipse cx="1745.37" cy="492.5851" fill="#84BE84" rx="3" ry="3" style="stroke:#038048;stroke-width:1;"/><text fill="#000000" font-family="sans-serif" font-size="14" lengthAdjust="spacing" textLength="206.6812" x="1754.37" y="496.5171">void showCurrentPlayerAbility()</text><ellipse cx="1745.37" cy="511.653" fill="#84BE84" rx="3" ry="3" style="stroke:#038048;stroke-width:1;"/><text fill="#000000" font-family="sans-serif" font-size="14" lengthAdjust="spacing" textLength="293.2569" x="1754.37" y="515.585">void useAbility(int id, vector&lt;string&gt; params)</text></g><!--class Board--><g class="entity" data-entity="Board" data-source-line="20" data-uid="ent0004" id="entity_Board"><rect fill="#F1F1F1" height="86.1358" rx="2.5" ry="2.5" style="stroke:#181818;stroke-width:0.5;" width="332.3188" x="1525.84" y="1104.772"/><ellipse cx="1667.8415" cy="1120.772" fill="#ADD1B2" rx="11" ry="11" style="stroke:#181818;stroke-width:1;"/><path d="M1667.9509,1116.3032 Q1667.029,1116.3032 1666.2946,1116.6157 Q1665.5759,1116.9282 1665.0759,1117.522 Q1664.5759,1118.1001 1664.2946,1118.9751 Q1664.029,1119.8501 1664.029,1120.9439 Q1664.029,1122.3814 1664.4665,1123.4282 Q1664.9196,1124.4751 1665.7634,1125.022 Q1666.6227,1125.5689 1667.9352,1125.5689 Q1668.7165,1125.5689 1669.404,1125.4439 Q1670.1071,1125.3032 1671.1071,1124.9907 L1671.1071,1126.8657 Q1670.2477,1127.1939 1669.4821,1127.3189 Q1668.7321,1127.4439 1667.7165,1127.4439 Q1665.7946,1127.4439 1664.4821,1126.647 Q1663.1852,1125.8345 1662.529,1124.3657 Q1661.8727,1122.8814 1661.8727,1120.9126 Q1661.8727,1119.4907 1662.2634,1118.3189 Q1662.6696,1117.1314 1663.4509,1116.2564 Q1664.2321,1115.3814 1665.3727,1114.9126 Q1666.5134,1114.4282 1667.9821,1114.4282 Q1668.9352,1114.4282 1669.8259,1114.6314 Q1670.7321,1114.8189 1671.6696,1115.2876 L1670.8415,1117.0689 Q1670.0602,1116.6939 1669.404,1116.5064 Q1668.7477,1116.3032 1667.9509,1116.3032 Z " fill="#000000"/><text fill="#000000" font-family="sans-serif" font-size="14" lengthAdjust="spacing" textLength="39.8159" x="1688.3415" y="1126.204">Board</text><line style="stroke:#181818;stroke-width:0.5;" x1="1526.84" x2="1857.1588" y1="1136.772" y2="1136.772"/><rect fill="none" height="6" style="stroke:#C82930;stroke-width:1;" width="6" x="1533.84" y="1148.8059"/><text fill="#000000" font-family="sans-serif" font-size="14" lengthAdjust="spacing" textLength="216.3412" x="1545.84" y="1155.7379">vector&lt;vector&lt;BaseCell&gt;&gt; board;</text><line style="stroke:#181818;stroke-width:0.5;" x1="1526.84" x2="1857.1588" y1="1163.8399" y2="1163.8399"/><ellipse cx="1536.84" cy="1178.8739" fill="#84BE84" rx="3" ry="3" style="stroke:#038048;stroke-width:1;"/><text fill="#000000" font-family="sans-serif" font-size="14" lengthAdjust="spacing" textLength="306.3188" x="1545.84" y="1182.8058">bool moveLink(Link* link, pair&lt;int, int&gt; coords)</text></g><!--class BaseCell--><g class="entity" data-entity="BaseCell" data-source-line="26" data-uid="ent0005" id="entity_BaseCell"><rect fill="#F1F1F1" height="86.1358" rx="2.5" ry="2.5" style="stroke:#181818;stroke-width:0.5;" width="156.5635" x="2088.72" y="1250.912"/><ellipse cx="2136.8448" cy="1266.912" fill="#A9DCDF" rx="11" ry="11" style="stroke:#181818;stroke-width:1;"/><path d="M2140.1886,1272.162 L2138.7198,1268.412 L2134.2823,1268.412 L2132.8448,1272.162 L2130.7198,1272.162 L2135.673,1259.4432 L2137.423,1259.4432 L2142.3448,1272.162 L2140.1886,1272.162 Z M2136.8448,1263.2089 Q2136.798,1263.0526 2136.673,1262.6932 Q2136.548,1262.3339 2136.4386,1261.9589 Q2136.3292,1261.5682 2136.5323,1261.5057 Q2136.6886,1261.6932 2136.5948,1262.0526 Q2136.5011,1262.3964 2136.4073,1262.6932 Q2136.3136,1262.9745 2136.2355,1263.2089 L2135.0011,1266.5214 L2138.0792,1266.5214 L2136.8448,1263.2089 Z " fill="#000000"/><text fill="#000000" font-family="sans-serif" font-size="14" font-style="italic" lengthAdjust="spacing" textLength="51.8138" x="2157.3448" y="1272.344">BaseCell</text><line style="stroke:#181818;stroke-width:0.5;" x1="2089.72" x2="2244.2835" y1="1282.912" y2="1282.912"/><rect fill="none" height="6" style="stroke:#C82930;stroke-width:1;" width="6" x="2096.72" y="1294.9459"/><text fill="#000000" font-family="sans-serif" font-size="14" lengthAdjust="spacing" textLength="126.2375" x="2108.72" y="1301.8779">Link* occupantLink</text><line style="stroke:#181818;stroke-width:0.5;" x1="2089.72" x2="2244.2835" y1="1309.9799" y2="1309.9799"/><ellipse cx="2099.72" cy="1325.0139" fill="#84BE84" rx="3" ry="3" style="stroke:#038048;stroke-width:1;"/><text fill="#000000" font-family="sans-serif" font-size="14" lengthAdjust="spacing" textLength="130.5635" x="2108.72" y="1328.9458">void onEnter(Link *)</text></g><!--class BoardCell--><g class="entity" data-entity="BoardCell" data-source-line="32" data-uid="ent0006" id="entity_BoardCell"><rect fill="#F1F1F1" height="48" rx="2.5" ry="2.5" style="stroke:#181818;stroke-width:0.5;" width="95.7838" x="2033.11" y="1406.582"/><ellipse cx="2048.11" cy="1422.582" fill="#ADD1B2" rx="11" ry="11" style="stroke:#181818;stroke-width:1;"/><path d="M2048.2194,1418.1132 Q2047.2975,1418.1132 2046.5631,1418.4257 Q2045.8444,1418.7382 2045.3444,1419.332 Q2044.8444,1419.9101 2044.5631,1420.7851 Q2044.2975,1421.6601 2044.2975,1422.7539 Q2044.2975,1424.1914 2044.735,1425.2382 Q2045.1881,1426.2851 2046.0319,1426.832 Q2046.8912,1427.3789 2048.2037,1427.3789 Q2048.985,1427.3789 2049.6725,1427.2539 Q2050.3756,1427.1132 2051.3756,1426.8007 L2051.3756,1428.6757 Q2050.5162,1429.0039 2049.7506,1429.1289 Q2049.0006,1429.2539 2047.985,1429.2539 Q2046.0631,1429.2539 2044.7506,1428.457 Q2043.4537,1427.6445 2042.7975,1426.1757 Q2042.1412,1424.6914 2042.1412,1422.7226 Q2042.1412,1421.3007 2042.5319,1420.1289 Q2042.9381,1418.9414 2043.7194,1418.0664 Q2044.5006,1417.1914 2045.6412,1416.7226 Q2046.7819,1416.2382 2048.2506,1416.2382 Q2049.2037,1416.2382 2050.0944,1416.4414 Q2051.0006,1416.6289 2051.9381,1417.0976 L2051.11,1418.8789 Q2050.3287,1418.5039 2049.6725,1418.3164 Q2049.0162,1418.1132 2048.2194,1418.1132 Z " fill="#000000"/><text fill="#000000" font-family="sans-serif" font-size="14" lengthAdjust="spacing" textLength="63.7838" x="2062.11" y="1428.014">BoardCell</text><line style="stroke:#181818;stroke-width:0.5;" x1="2034.11" x2="2127.8938" y1="1438.582" y2="1438.582"/><line style="stroke:#181818;stroke-width:0.5;" x1="2034.11" x2="2127.8938" y1="1446.582" y2="1446.582"/></g><!--class PlayerCell--><g class="entity" data-entity="PlayerCell" data-source-line="35" data-uid="ent0007" id="entity_PlayerCell"><rect fill="#F1F1F1" height="67.0679" rx="2.5" ry="2.5" style="stroke:#181818;stroke-width:0.5;" width="119.9116" x="2164.04" y="1397.042"/><ellipse cx="2191.1386" cy="1413.042" fill="#A9DCDF" rx="11" ry="11" style="stroke:#181818;stroke-width:1;"/><path d="M2194.4824,1418.292 L2193.0136,1414.542 L2188.5761,1414.542 L2187.1386,1418.292 L2185.0136,1418.292 L2189.9668,1405.5732 L2191.7168,1405.5732 L2196.6386,1418.292 L2194.4824,1418.292 Z M2191.1386,1409.3389 Q2191.0918,1409.1826 2190.9668,1408.8232 Q2190.8418,1408.4639 2190.7324,1408.0889 Q2190.623,1407.6982 2190.8261,1407.6357 Q2190.9824,1407.8232 2190.8886,1408.1826 Q2190.7949,1408.5264 2190.7011,1408.8232 Q2190.6074,1409.1045 2190.5293,1409.3389 L2189.2949,1412.6514 L2192.373,1412.6514 L2191.1386,1409.3389 Z " fill="#000000"/><text fill="#000000" font-family="sans-serif" font-size="14" font-style="italic" lengthAdjust="spacing" textLength="61.0258" x="2207.8272" y="1418.474">PlayerCell</text><line style="stroke:#181818;stroke-width:0.5;" x1="2165.04" x2="2282.9516" y1="1429.042" y2="1429.042"/><rect fill="none" height="6" style="stroke:#C82930;stroke-width:1;" width="6" x="2172.04" y="1441.0759"/><text fill="#000000" font-family="sans-serif" font-size="14" lengthAdjust="spacing" textLength="93.9116" x="2184.04" y="1448.0079">Player* owner</text><line style="stroke:#181818;stroke-width:0.5;" x1="2165.04" x2="2282.9516" y1="1456.1099" y2="1456.1099"/></g><!--class Server--><g class="entity" data-entity="Server" data-source-line="39" data-uid="ent0008" id="entity_Server"><rect fill="#F1F1F1" height="48" rx="2.5" ry="2.5" style="stroke:#181818;stroke-width:0.5;" width="74.1538" x="2073.92" y="1524.112"/><ellipse cx="2088.92" cy="1540.112" fill="#ADD1B2" rx="11" ry="11" style="stroke:#181818;stroke-width:1;"/><path d="M2089.0294,1535.6432 Q2088.1075,1535.6432 2087.3731,1535.9557 Q2086.6544,1536.2682 2086.1544,1536.862 Q2085.6544,1537.4401 2085.3731,1538.3151 Q2085.1075,1539.1901 2085.1075,1540.2839 Q2085.1075,1541.7214 2085.545,1542.7682 Q2085.9981,1543.8151 2086.8419,1544.362 Q2087.7013,1544.9089 2089.0138,1544.9089 Q2089.795,1544.9089 2090.4825,1544.7839 Q2091.1856,1544.6432 2092.1856,1544.3307 L2092.1856,1546.2057 Q2091.3263,1546.5339 2090.5606,1546.6589 Q2089.8106,1546.7839 2088.795,1546.7839 Q2086.8731,1546.7839 2085.5606,1545.987 Q2084.2638,1545.1745 2083.6075,1543.7057 Q2082.9513,1542.2214 2082.9513,1540.2526 Q2082.9513,1538.8307 2083.3419,1537.6589 Q2083.7481,1536.4714 2084.5294,1535.5964 Q2085.3106,1534.7214 2086.4513,1534.2526 Q2087.5919,1533.7682 2089.0606,1533.7682 Q2090.0138,1533.7682 2090.9044,1533.9714 Q2091.8106,1534.1589 2092.7481,1534.6276 L2091.92,1536.4089 Q2091.1388,1536.0339 2090.4825,1535.8464 Q2089.8263,1535.6432 2089.0294,1535.6432 Z " fill="#000000"/><text fill="#000000" font-family="sans-serif" font-size="14" lengthAdjust="spacing" textLength="42.1538" x="2102.92" y="1545.544">Server</text><line style="stroke:#181818;stroke-width:0.5;" x1="2074.92" x2="2147.0738" y1="1556.112" y2="1556.112"/><line style="stroke:#181818;stroke-width:0.5;" x1="2074.92" x2="2147.0738" y1="1564.112" y2="1564.112"/></g><!--class Firewall--><g class="entity" data-entity="Firewall" data-source-line="42" data-uid="ent0009" id="entity_Firewall"><rect fill="#F1F1F1" height="48" rx="2.5" ry="2.5" style="stroke:#181818;stroke-width:0.5;" width="82.6378" x="2182.68" y="1524.112"/><ellipse cx="2197.68" cy="1540.112" fill="#ADD1B2" rx="11" ry="11" style="stroke:#181818;stroke-width:1;"/><path d="M2197.7894,1535.6432 Q2196.8675,1535.6432 2196.1331,1535.9557 Q2195.4144,1536.2682 2194.9144,1536.862 Q2194.4144,1537.4401 2194.1331,1538.3151 Q2193.8675,1539.1901 2193.8675,1540.2839 Q2193.8675,1541.7214 2194.305,1542.7682 Q2194.7581,1543.8151 2195.6019,1544.362 Q2196.4613,1544.9089 2197.7738,1544.9089 Q2198.555,1544.9089 2199.2425,1544.7839 Q2199.9456,1544.6432 2200.9456,1544.3307 L2200.9456,1546.2057 Q2200.0863,1546.5339 2199.3206,1546.6589 Q2198.5706,1546.7839 2197.555,1546.7839 Q2195.6331,1546.7839 2194.3206,1545.987 Q2193.0238,1545.1745 2192.3675,1543.7057 Q2191.7113,1542.2214 2191.7113,1540.2526 Q2191.7113,1538.8307 2192.1019,1537.6589 Q2192.5081,1536.4714 2193.2894,1535.5964 Q2194.0706,1534.7214 2195.2113,1534.2526 Q2196.3519,1533.7682 2197.8206,1533.7682 Q2198.7738,1533.7682 2199.6644,1533.9714 Q2200.5706,1534.1589 2201.5081,1534.6276 L2200.68,1536.4089 Q2199.8988,1536.0339 2199.2425,1535.8464 Q2198.5863,1535.6432 2197.7894,1535.6432 Z " fill="#000000"/><text fill="#000000" font-family="sans-serif" font-size="14" lengthAdjust="spacing" textLength="50.6378" x="2211.68" y="1545.544">Firewall</text><line style="stroke:#181818;stroke-width:0.5;" x1="2183.68" x2="2264.3178" y1="1556.112" y2="1556.112"/><line style="stroke:#181818;stroke-width:0.5;" x1="2183.68" x2="2264.3178" y1="1564.112" y2="1564.112"/></g><!--class Goal--><g class="entity" data-entity="Goal" data-source-line="45" data-uid="ent0010" id="entity_Goal"><rect fill="#F1F1F1" height="48" rx="2.5" ry="2.5" style="stroke:#181818;stroke-width:0.5;" width="62.1279" x="2299.94" y="1524.112"/><ellipse cx="2314.94" cy="1540.112" fill="#ADD1B2" rx="11" ry="11" style="stroke:#181818;stroke-width:1;"/><path d="M2315.0494,1535.6432 Q2314.1275,1535.6432 2313.3931,1535.9557 Q2312.6744,1536.2682 2312.1744,1536.862 Q2311.6744,1537.4401 2311.3931,1538.3151 Q2311.1275,1539.1901 2311.1275,1540.2839 Q2311.1275,1541.7214 2311.565,1542.7682 Q2312.0181,1543.8151 2312.8619,1544.362 Q2313.7213,1544.9089 2315.0338,1544.9089 Q2315.815,1544.9089 2316.5025,1544.7839 Q2317.2056,1544.6432 2318.2056,1544.3307 L2318.2056,1546.2057 Q2317.3463,1546.5339 2316.5806,1546.6589 Q2315.8306,1546.7839 2314.815,1546.7839 Q2312.8931,1546.7839 2311.5806,1545.987 Q2310.2838,1545.1745 2309.6275,1543.7057 Q2308.9713,1542.2214 2308.9713,1540.2526 Q2308.9713,1538.8307 2309.3619,1537.6589 Q2309.7681,1536.4714 2310.5494,1535.5964 Q2311.3306,1534.7214 2312.4713,1534.2526 Q2313.6119,1533.7682 2315.0806,1533.7682 Q2316.0338,1533.7682 2316.9244,1533.9714 Q2317.8306,1534.1589 2318.7681,1534.6276 L2317.94,1536.4089 Q2317.1588,1536.0339 2316.5025,1535.8464 Q2315.8463,1535.6432 2315.0494,1535.6432 Z " fill="#000000"/><text fill="#000000" font-family="sans-serif" font-size="14" lengthAdjust="spacing" textLength="30.1279" x="2328.94" y="1545.544">Goal</text><line style="stroke:#181818;stroke-width:0.5;" x1="2300.94" x2="2361.0679" y1="1556.112" y2="1556.112"/><line style="stroke:#181818;stroke-width:0.5;" x1="2300.94" x2="2361.0679" y1="1564.112" y2="1564.112"/></g><!--class Player--><g class="entity" data-entity="Player" data-source-line="48" data-uid="ent0011" id="entity_Player"><rect fill="#F1F1F1" height="238.6792" rx="2.5" ry="2.5" style="stroke:#181818;stroke-width:0.5;" width="234.2772" x="1776.86" y="583.682"/><ellipse cx="1869.3717" cy="599.682" fill="#ADD1B2" rx="11" ry="11" style="stroke:#181818;stroke-width:1;"/><path d="M1869.481,595.2132 Q1868.5592,595.2132 1867.8248,595.5257 Q1867.106,595.8382 1866.606,596.432 Q1866.106,597.0101 1865.8248,597.8851 Q1865.5592,598.7601 1865.5592,599.8539 Q1865.5592,601.2914 1865.9967,602.3382 Q1866.4498,603.3851 1867.2935,603.932 Q1868.1529,604.4789 1869.4654,604.4789 Q1870.2467,604.4789 1870.9342,604.3539 Q1871.6373,604.2132 1872.6373,603.9007 L1872.6373,605.7757 Q1871.7779,606.1039 1871.0123,606.2289 Q1870.2623,606.3539 1869.2467,606.3539 Q1867.3248,606.3539 1866.0123,605.557 Q1864.7154,604.7445 1864.0592,603.2757 Q1863.4029,601.7914 1863.4029,599.8226 Q1863.4029,598.4007 1863.7935,597.2289 Q1864.1998,596.0414 1864.981,595.1664 Q1865.7623,594.2914 1866.9029,593.8226 Q1868.0435,593.3382 1869.5123,593.3382 Q1870.4654,593.3382 1871.356,593.5414 Q1872.2623,593.7289 1873.1998,594.1976 L1872.3717,595.9789 Q1871.5904,595.6039 1870.9342,595.4164 Q1870.2779,595.2132 1869.481,595.2132 Z " fill="#000000"/><text fill="#000000" font-family="sans-serif" font-size="14" lengthAdjust="spacing" textLength="40.7538" x="1889.8717" y="605.114">Player</text><line style="stroke:#181818;stroke-width:0.5;" x1="1777.86" x2="2010.1372" y1="615.682" y2="615.682"/><rect fill="none" height="6" style="stroke:#C82930;stroke-width:1;" width="6" x="1784.86" y="627.7159"/><text fill="#000000" font-family="sans-serif" font-size="14" lengthAdjust="spacing" textLength="145.6554" x="1796.86" y="634.6479">pair&lt;int, int&gt; getScore</text><rect fill="none" height="6" style="stroke:#C82930;stroke-width:1;" width="6" x="1784.86" y="646.7839"/><text fill="#000000" font-family="sans-serif" font-size="14" lengthAdjust="spacing" textLength="159.5574" x="1796.86" y="653.7158">vector&lt;Ability*&gt; abilities</text><rect fill="none" height="6" style="stroke:#C82930;stroke-width:1;" width="6" x="1784.86" y="665.8518"/><text fill="#000000" font-family="sans-serif" font-size="14" lengthAdjust="spacing" textLength="125.5375" x="1796.86" y="672.7838">vector&lt;Link*&gt; links</text><line style="stroke:#181818;stroke-width:0.5;" x1="1777.86" x2="2010.1372" y1="680.8857" y2="680.8857"/><ellipse cx="1787.86" cy="695.9197" fill="#84BE84" rx="3" ry="3" style="stroke:#038048;stroke-width:1;"/><text fill="#000000" font-family="sans-serif" font-size="14" lengthAdjust="spacing" textLength="154.0554" x="1796.86" y="699.8517">pair&lt;int, int&gt; getScore()</text><ellipse cx="1787.86" cy="714.9876" fill="#84BE84" rx="3" ry="3" style="stroke:#038048;stroke-width:1;"/><text fill="#000000" font-family="sans-serif" font-size="14" lengthAdjust="spacing" textLength="190.6093" x="1796.86" y="718.9196">vector&lt;Ability*&gt; getAbilities()</text><ellipse cx="1787.86" cy="734.0555" fill="#84BE84" rx="3" ry="3" style="stroke:#038048;stroke-width:1;"/><text fill="#000000" font-family="sans-serif" font-size="14" lengthAdjust="spacing" textLength="122.4855" x="1796.86" y="737.9875">Ability* getAbility()</text><ellipse cx="1787.86" cy="753.1234" fill="#84BE84" rx="3" ry="3" style="stroke:#038048;stroke-width:1;"/><text fill="#000000" font-family="sans-serif" font-size="14" lengthAdjust="spacing" textLength="166.9073" x="1796.86" y="757.0554">void download(Link* link)</text><ellipse cx="1787.86" cy="772.1914" fill="#84BE84" rx="3" ry="3" style="stroke:#038048;stroke-width:1;"/><text fill="#000000" font-family="sans-serif" font-size="14" lengthAdjust="spacing" textLength="208.2772" x="1796.86" y="776.1233">void requestMove(Direction dir)</text><ellipse cx="1787.86" cy="791.2593" fill="#84BE84" rx="3" ry="3" style="stroke:#038048;stroke-width:1;"/><text fill="#000000" font-family="sans-serif" font-size="14" lengthAdjust="spacing" textLength="169.6653" x="1796.86" y="795.1913">void deleteLink(Link* link)</text><ellipse cx="1787.86" cy="810.3272" fill="#84BE84" rx="3" ry="3" style="stroke:#038048;stroke-width:1;"/><text fill="#000000" font-family="sans-serif" font-size="14" lengthAdjust="spacing" textLength="151.4654" x="1796.86" y="814.2592">Link* getLink(char link)</text></g><!--class Link--><g class="entity" data-entity="Link" data-source-line="62" data-uid="ent0012" id="entity_Link"><rect fill="#F1F1F1" height="162.4075" rx="2.5" ry="2.5" style="stroke:#181818;stroke-width:0.5;" width="294.365" x="1198.82" y="882.362"/><ellipse cx="1329.0825" cy="898.362" fill="#A9DCDF" rx="11" ry="11" style="stroke:#181818;stroke-width:1;"/><path d="M1332.4263,903.612 L1330.9575,899.862 L1326.52,899.862 L1325.0825,903.612 L1322.9575,903.612 L1327.9107,890.8932 L1329.6607,890.8932 L1334.5825,903.612 L1332.4263,903.612 Z M1329.0825,894.6589 Q1329.0357,894.5026 1328.9107,894.1432 Q1328.7857,893.7839 1328.6763,893.4089 Q1328.5669,893.0182 1328.77,892.9557 Q1328.9263,893.1432 1328.8325,893.5026 Q1328.7388,893.8464 1328.645,894.1432 Q1328.5513,894.4245 1328.4732,894.6589 L1327.2388,897.9714 L1330.3169,897.9714 L1329.0825,894.6589 Z " fill="#000000"/><text fill="#000000" font-family="sans-serif" font-size="14" font-style="italic" lengthAdjust="spacing" textLength="25.3399" x="1349.5825" y="903.794">Link</text><line style="stroke:#181818;stroke-width:0.5;" x1="1199.82" x2="1492.185" y1="914.362" y2="914.362"/><rect fill="none" height="6" style="stroke:#C82930;stroke-width:1;" width="6" x="1206.82" y="926.3959"/><text fill="#000000" font-family="sans-serif" font-size="14" lengthAdjust="spacing" textLength="132.2995" x="1218.82" y="933.3279">pair&lt;int, int&gt; coords</text><rect fill="none" height="6" style="stroke:#C82930;stroke-width:1;" width="6" x="1206.82" y="945.4639"/><text fill="#000000" font-family="sans-serif" font-size="14" lengthAdjust="spacing" textLength="77.3637" x="1218.82" y="952.3958">int strength</text><line style="stroke:#181818;stroke-width:0.5;" x1="1199.82" x2="1492.185" y1="960.4978" y2="960.4978"/><ellipse cx="1209.82" cy="975.5318" fill="#84BE84" rx="3" ry="3" style="stroke:#038048;stroke-width:1;"/><text fill="#000000" font-family="sans-serif" font-size="14" lengthAdjust="spacing" textLength="164.3874" x="1218.82" y="979.4638">pair&lt;int, int&gt; getCoords()</text><ellipse cx="1209.82" cy="994.5997" fill="#84BE84" rx="3" ry="3" style="stroke:#038048;stroke-width:1;"/><text fill="#000000" font-family="sans-serif" font-size="14" lengthAdjust="spacing" textLength="268.365" x="1218.82" y="998.5317">void setCoords(pair&lt;int, int&gt; newCoords)</text><ellipse cx="1209.82" cy="1013.6676" fill="#84BE84" rx="3" ry="3" style="stroke:#038048;stroke-width:1;"/><text fill="#000000" font-family="sans-serif" font-size="14" lengthAdjust="spacing" textLength="108.3036" x="1218.82" y="1017.5996">int getStrength()</text><ellipse cx="1209.82" cy="1032.7355" fill="#84BE84" rx="3" ry="3" style="stroke:#038048;stroke-width:1;"/><text fill="#000000" font-family="sans-serif" font-size="14" lengthAdjust="spacing" textLength="84.6717" x="1218.82" y="1036.6675">bool isVirus()</text></g><!--class VirusLink--><g class="entity" data-entity="VirusLink" data-source-line="72" data-uid="ent0013" id="entity_VirusLink"><rect fill="#F1F1F1" height="48" rx="2.5" ry="2.5" style="stroke:#181818;stroke-width:0.5;" width="92.2278" x="1236.89" y="1123.842"/><ellipse cx="1251.89" cy="1139.842" fill="#ADD1B2" rx="11" ry="11" style="stroke:#181818;stroke-width:1;"/><path d="M1251.9994,1135.3732 Q1251.0775,1135.3732 1250.3431,1135.6857 Q1249.6244,1135.9982 1249.1244,1136.592 Q1248.6244,1137.1701 1248.3431,1138.0451 Q1248.0775,1138.9201 1248.0775,1140.0139 Q1248.0775,1141.4514 1248.515,1142.4982 Q1248.9681,1143.5451 1249.8119,1144.092 Q1250.6713,1144.6389 1251.9838,1144.6389 Q1252.765,1144.6389 1253.4525,1144.5139 Q1254.1556,1144.3732 1255.1556,1144.0607 L1255.1556,1145.9357 Q1254.2963,1146.2639 1253.5306,1146.3889 Q1252.7806,1146.5139 1251.765,1146.5139 Q1249.8431,1146.5139 1248.5306,1145.717 Q1247.2338,1144.9045 1246.5775,1143.4357 Q1245.9213,1141.9514 1245.9213,1139.9826 Q1245.9213,1138.5607 1246.3119,1137.3889 Q1246.7181,1136.2014 1247.4994,1135.3264 Q1248.2806,1134.4514 1249.4213,1133.9826 Q1250.5619,1133.4982 1252.0306,1133.4982 Q1252.9838,1133.4982 1253.8744,1133.7014 Q1254.7806,1133.8889 1255.7181,1134.3576 L1254.89,1136.1389 Q1254.1088,1135.7639 1253.4525,1135.5764 Q1252.7963,1135.3732 1251.9994,1135.3732 Z " fill="#000000"/><text fill="#000000" font-family="sans-serif" font-size="14" lengthAdjust="spacing" textLength="60.2278" x="1265.89" y="1145.274">VirusLink</text><line style="stroke:#181818;stroke-width:0.5;" x1="1237.89" x2="1328.1178" y1="1155.842" y2="1155.842"/><line style="stroke:#181818;stroke-width:0.5;" x1="1237.89" x2="1328.1178" y1="1163.842" y2="1163.842"/></g><!--class DataLink--><g class="entity" data-entity="DataLink" data-source-line="75" data-uid="ent0014" id="entity_DataLink"><rect fill="#F1F1F1" height="48" rx="2.5" ry="2.5" style="stroke:#181818;stroke-width:0.5;" width="90.0578" x="1363.97" y="1123.842"/><ellipse cx="1378.97" cy="1139.842" fill="#ADD1B2" rx="11" ry="11" style="stroke:#181818;stroke-width:1;"/><path d="M1379.0794,1135.3732 Q1378.1575,1135.3732 1377.4231,1135.6857 Q1376.7044,1135.9982 1376.2044,1136.592 Q1375.7044,1137.1701 1375.4231,1138.0451 Q1375.1575,1138.9201 1375.1575,1140.0139 Q1375.1575,1141.4514 1375.595,1142.4982 Q1376.0481,1143.5451 1376.8919,1144.092 Q1377.7513,1144.6389 1379.0638,1144.6389 Q1379.845,1144.6389 1380.5325,1144.5139 Q1381.2356,1144.3732 1382.2356,1144.0607 L1382.2356,1145.9357 Q1381.3763,1146.2639 1380.6106,1146.3889 Q1379.8606,1146.5139 1378.845,1146.5139 Q1376.9231,1146.5139 1375.6106,1145.717 Q1374.3138,1144.9045 1373.6575,1143.4357 Q1373.0013,1141.9514 1373.0013,1139.9826 Q1373.0013,1138.5607 1373.3919,1137.3889 Q1373.7981,1136.2014 1374.5794,1135.3264 Q1375.3606,1134.4514 1376.5013,1133.9826 Q1377.6419,1133.4982 1379.1106,1133.4982 Q1380.0638,1133.4982 1380.9544,1133.7014 Q1381.8606,1133.8889 1382.7981,1134.3576 L1381.97,1136.1389 Q1381.1888,1135.7639 1380.5325,1135.5764 Q1379.8763,1135.3732 1379.0794,1135.3732 Z " fill="#000000"/><text fill="#000000" font-family="sans-serif" font-size="14" lengthAdjust="spacing" textLength="58.0578" x="1392.97" y="1145.274">DataLink</text><line style="stroke:#181818;stroke-width:0.5;" x1="1364.97" x2="1453.0278" y1="1155.842" y2="1155.842"/><line style="stroke:#181818;stroke-width:0.5;" x1="1364.97" x2="1453.0278" y1="1163.842" y2="1163.842"/></g><!--class LinkDecorator--><g class="entity" data-entity="LinkDecorator" data-source-line="78" data-uid="ent0015" id="entity_LinkDecorator"><rect fill="#F1F1F1" height="67.0679" rx="2.5" ry="2.5" style="stroke:#181818;stroke-width:0.5;" width="119.5137" x="1082.24" y="1114.302"/><ellipse cx="1097.24" cy="1130.302" fill="#A9DCDF" rx="11" ry="11" style="stroke:#181818;stroke-width:1;"/><path d="M1100.5838,1135.552 L1099.115,1131.802 L1094.6775,1131.802 L1093.24,1135.552 L1091.115,1135.552 L1096.0681,1122.8332 L1097.8181,1122.8332 L1102.74,1135.552 L1100.5838,1135.552 Z M1097.24,1126.5989 Q1097.1931,1126.4426 1097.0681,1126.0832 Q1096.9431,1125.7239 1096.8338,1125.3489 Q1096.7244,1124.9582 1096.9275,1124.8957 Q1097.0838,1125.0832 1096.99,1125.4426 Q1096.8963,1125.7864 1096.8025,1126.0832 Q1096.7088,1126.3645 1096.6306,1126.5989 L1095.3963,1129.9114 L1098.4744,1129.9114 L1097.24,1126.5989 Z " fill="#000000"/><text fill="#000000" font-family="sans-serif" font-size="14" font-style="italic" lengthAdjust="spacing" textLength="87.5137" x="1111.24" y="1135.734">LinkDecorator</text><line style="stroke:#181818;stroke-width:0.5;" x1="1083.24" x2="1200.7537" y1="1146.302" y2="1146.302"/><polygon fill="none" points="1093.24,1156.3359,1097.24,1160.3359,1093.24,1164.3359,1089.24,1160.3359" style="stroke:#B38D22;stroke-width:1;"/><text fill="#000000" font-family="sans-serif" font-size="14" lengthAdjust="spacing" textLength="69.4957" x="1102.24" y="1165.2679">Link* base</text><line style="stroke:#181818;stroke-width:0.5;" x1="1083.24" x2="1200.7537" y1="1173.3699" y2="1173.3699"/></g><!--class LinkBoostDecorator--><g class="entity" data-entity="LinkBoostDecorator" data-source-line="82" data-uid="ent0016" id="entity_LinkBoostDecorator"><rect fill="#F1F1F1" height="48" rx="2.5" ry="2.5" style="stroke:#181818;stroke-width:0.5;" width="163.1235" x="1082.44" y="1269.972"/><ellipse cx="1097.44" cy="1285.972" fill="#ADD1B2" rx="11" ry="11" style="stroke:#181818;stroke-width:1;"/><path d="M1097.5494,1281.5032 Q1096.6275,1281.5032 1095.8931,1281.8157 Q1095.1744,1282.1282 1094.6744,1282.722 Q1094.1744,1283.3001 1093.8931,1284.1751 Q1093.6275,1285.0501 1093.6275,1286.1439 Q1093.6275,1287.5814 1094.065,1288.6282 Q1094.5181,1289.6751 1095.3619,1290.222 Q1096.2213,1290.7689 1097.5338,1290.7689 Q1098.315,1290.7689 1099.0025,1290.6439 Q1099.7056,1290.5032 1100.7056,1290.1907 L1100.7056,1292.0657 Q1099.8463,1292.3939 1099.0806,1292.5189 Q1098.3306,1292.6439 1097.315,1292.6439 Q1095.3931,1292.6439 1094.0806,1291.847 Q1092.7838,1291.0345 1092.1275,1289.5657 Q1091.4713,1288.0814 1091.4713,1286.1126 Q1091.4713,1284.6907 1091.8619,1283.5189 Q1092.2681,1282.3314 1093.0494,1281.4564 Q1093.8306,1280.5814 1094.9713,1280.1126 Q1096.1119,1279.6282 1097.5806,1279.6282 Q1098.5338,1279.6282 1099.4244,1279.8314 Q1100.3306,1280.0189 1101.2681,1280.4876 L1100.44,1282.2689 Q1099.6588,1281.8939 1099.0025,1281.7064 Q1098.3463,1281.5032 1097.5494,1281.5032 Z " fill="#000000"/><text fill="#000000" font-family="sans-serif" font-size="14" lengthAdjust="spacing" textLength="131.1235" x="1111.44" y="1291.404">LinkBoostDecorator</text><line style="stroke:#181818;stroke-width:0.5;" x1="1083.44" x2="1244.5635" y1="1301.972" y2="1301.972"/><line style="stroke:#181818;stroke-width:0.5;" x1="1083.44" x2="1244.5635" y1="1309.972" y2="1309.972"/></g><!--class PolarizeDecorator--><g class="entity" data-entity="PolarizeDecorator" data-source-line="85" data-uid="ent0017" id="entity_PolarizeDecorator"><rect fill="#F1F1F1" height="48" rx="2.5" ry="2.5" style="stroke:#181818;stroke-width:0.5;" width="150.5236" x="1280.74" y="1269.972"/><ellipse cx="1295.74" cy="1285.972" fill="#ADD1B2" rx="11" ry="11" style="stroke:#181818;stroke-width:1;"/><path d="M1295.8494,1281.5032 Q1294.9275,1281.5032 1294.1931,1281.8157 Q1293.4744,1282.1282 1292.9744,1282.722 Q1292.4744,1283.3001 1292.1931,1284.1751 Q1291.9275,1285.0501 1291.9275,1286.1439 Q1291.9275,1287.5814 1292.365,1288.6282 Q1292.8181,1289.6751 1293.6619,1290.222 Q1294.5213,1290.7689 1295.8338,1290.7689 Q1296.615,1290.7689 1297.3025,1290.6439 Q1298.0056,1290.5032 1299.0056,1290.1907 L1299.0056,1292.0657 Q1298.1463,1292.3939 1297.3806,1292.5189 Q1296.6306,1292.6439 1295.615,1292.6439 Q1293.6931,1292.6439 1292.3806,1291.847 Q1291.0838,1291.0345 1290.4275,1289.5657 Q1289.7713,1288.0814 1289.7713,1286.1126 Q1289.7713,1284.6907 1290.1619,1283.5189 Q1290.5681,1282.3314 1291.3494,1281.4564 Q1292.1306,1280.5814 1293.2713,1280.1126 Q1294.4119,1279.6282 1295.8806,1279.6282 Q1296.8338,1279.6282 1297.7244,1279.8314 Q1298.6306,1280.0189 1299.5681,1280.4876 L1298.74,1282.2689 Q1297.9588,1281.8939 1297.3025,1281.7064 Q1296.6463,1281.5032 1295.8494,1281.5032 Z " fill="#000000"/><text fill="#000000" font-family="sans-serif" font-size="14" lengthAdjust="spacing" textLength="118.5236" x="1309.74" y="1291.404">PolarizeDecorator</text><line style="stroke:#181818;stroke-width:0.5;" x1="1281.74" x2="1430.2636" y1="1301.972" y2="1301.972"/><line style="stroke:#181818;stroke-width:0.5;" x1="1281.74" x2="1430.2636" y1="1309.972" y2="1309.972"/></g><!--class RevealDecorator--><g class="entity" data-entity="RevealDecorator" data-source-line="88" data-uid="ent0018" id="entity_RevealDecorator"><rect fill="#F1F1F1" height="48" rx="2.5" ry="2.5" style="stroke:#181818;stroke-width:0.5;" width="141.3256" x="1466.34" y="1269.972"/><ellipse cx="1481.34" cy="1285.972" fill="#ADD1B2" rx="11" ry="11" style="stroke:#181818;stroke-width:1;"/><path d="M1481.4494,1281.5032 Q1480.5275,1281.5032 1479.7931,1281.8157 Q1479.0744,1282.1282 1478.5744,1282.722 Q1478.0744,1283.3001 1477.7931,1284.1751 Q1477.5275,1285.0501 1477.5275,1286.1439 Q1477.5275,1287.5814 1477.965,1288.6282 Q1478.4181,1289.6751 1479.2619,1290.222 Q1480.1213,1290.7689 1481.4338,1290.7689 Q1482.215,1290.7689 1482.9025,1290.6439 Q1483.6056,1290.5032 1484.6056,1290.1907 L1484.6056,1292.0657 Q1483.7463,1292.3939 1482.9806,1292.5189 Q1482.2306,1292.6439 1481.215,1292.6439 Q1479.2931,1292.6439 1477.9806,1291.847 Q1476.6838,1291.0345 1476.0275,1289.5657 Q1475.3713,1288.0814 1475.3713,1286.1126 Q1475.3713,1284.6907 1475.7619,1283.5189 Q1476.1681,1282.3314 1476.9494,1281.4564 Q1477.7306,1280.5814 1478.8713,1280.1126 Q1480.0119,1279.6282 1481.4806,1279.6282 Q1482.4338,1279.6282 1483.3244,1279.8314 Q1484.2306,1280.0189 1485.1681,1280.4876 L1484.34,1282.2689 Q1483.5588,1281.8939 1482.9025,1281.7064 Q1482.2463,1281.5032 1481.4494,1281.5032 Z " fill="#000000"/><text fill="#000000" font-family="sans-serif" font-size="14" lengthAdjust="spacing" textLength="109.3256" x="1495.34" y="1291.404">RevealDecorator</text><line style="stroke:#181818;stroke-width:0.5;" x1="1467.34" x2="1606.6656" y1="1301.972" y2="1301.972"/><line style="stroke:#181818;stroke-width:0.5;" x1="1467.34" x2="1606.6656" y1="1309.972" y2="1309.972"/></g><!--class LagDecorator--><g class="entity" data-entity="LagDecorator" data-source-line="91" data-uid="ent0019" id="entity_LagDecorator"><rect fill="#F1F1F1" height="67.0679" rx="2.5" ry="2.5" style="stroke:#181818;stroke-width:0.5;" width="122.0477" x="1642.98" y="1260.442"/><ellipse cx="1657.98" cy="1276.442" fill="#ADD1B2" rx="11" ry="11" style="stroke:#181818;stroke-width:1;"/><path d="M1658.0894,1271.9732 Q1657.1675,1271.9732 1656.4331,1272.2857 Q1655.7144,1272.5982 1655.2144,1273.192 Q1654.7144,1273.7701 1654.4331,1274.6451 Q1654.1675,1275.5201 1654.1675,1276.6139 Q1654.1675,1278.0514 1654.605,1279.0982 Q1655.0581,1280.1451 1655.9019,1280.692 Q1656.7613,1281.2389 1658.0738,1281.2389 Q1658.855,1281.2389 1659.5425,1281.1139 Q1660.2456,1280.9732 1661.2456,1280.6607 L1661.2456,1282.5357 Q1660.3863,1282.8639 1659.6206,1282.9889 Q1658.8706,1283.1139 1657.855,1283.1139 Q1655.9331,1283.1139 1654.6206,1282.317 Q1653.3238,1281.5045 1652.6675,1280.0357 Q1652.0113,1278.5514 1652.0113,1276.5826 Q1652.0113,1275.1607 1652.4019,1273.9889 Q1652.8081,1272.8014 1653.5894,1271.9264 Q1654.3706,1271.0514 1655.5113,1270.5826 Q1656.6519,1270.0982 1658.1206,1270.0982 Q1659.0738,1270.0982 1659.9644,1270.3014 Q1660.8706,1270.4889 1661.8081,1270.9576 L1660.98,1272.7389 Q1660.1988,1272.3639 1659.5425,1272.1764 Q1658.8863,1271.9732 1658.0894,1271.9732 Z " fill="#000000"/><text fill="#000000" font-family="sans-serif" font-size="14" lengthAdjust="spacing" textLength="90.0477" x="1671.98" y="1281.874">LagDecorator</text><line style="stroke:#181818;stroke-width:0.5;" x1="1643.98" x2="1764.0277" y1="1292.442" y2="1292.442"/><rect fill="none" height="6" style="stroke:#C82930;stroke-width:1;" width="6" x="1650.98" y="1304.4759"/><text fill="#000000" font-family="sans-serif" font-size="14" lengthAdjust="spacing" textLength="80.9057" x="1662.98" y="1311.4079">int turnsLeft</text><line style="stroke:#181818;stroke-width:0.5;" x1="1643.98" x2="1764.0277" y1="1319.5099" y2="1319.5099"/></g><!--class QuantumEntanglementDecorator--><g class="entity" data-entity="QuantumEntanglementDecorator" data-source-line="95" data-uid="ent0020" id="entity_QuantumEntanglementDecorator"><rect fill="#F1F1F1" height="67.0679" rx="2.5" ry="2.5" style="stroke:#181818;stroke-width:0.5;" width="253.9411" x="1800.03" y="1260.442"/><ellipse cx="1815.03" cy="1276.442" fill="#ADD1B2" rx="11" ry="11" style="stroke:#181818;stroke-width:1;"/><path d="M1815.1394,1271.9732 Q1814.2175,1271.9732 1813.4831,1272.2857 Q1812.7644,1272.5982 1812.2644,1273.192 Q1811.7644,1273.7701 1811.4831,1274.6451 Q1811.2175,1275.5201 1811.2175,1276.6139 Q1811.2175,1278.0514 1811.655,1279.0982 Q1812.1081,1280.1451 1812.9519,1280.692 Q1813.8113,1281.2389 1815.1238,1281.2389 Q1815.905,1281.2389 1816.5925,1281.1139 Q1817.2956,1280.9732 1818.2956,1280.6607 L1818.2956,1282.5357 Q1817.4363,1282.8639 1816.6706,1282.9889 Q1815.9206,1283.1139 1814.905,1283.1139 Q1812.9831,1283.1139 1811.6706,1282.317 Q1810.3738,1281.5045 1809.7175,1280.0357 Q1809.0613,1278.5514 1809.0613,1276.5826 Q1809.0613,1275.1607 1809.4519,1273.9889 Q1809.8581,1272.8014 1810.6394,1271.9264 Q1811.4206,1271.0514 1812.5613,1270.5826 Q1813.7019,1270.0982 1815.1706,1270.0982 Q1816.1238,1270.0982 1817.0144,1270.3014 Q1817.9206,1270.4889 1818.8581,1270.9576 L1818.03,1272.7389 Q1817.2488,1272.3639 1816.5925,1272.1764 Q1815.9363,1271.9732 1815.1394,1271.9732 Z " fill="#000000"/><text fill="#000000" font-family="sans-serif" font-size="14" lengthAdjust="spacing" textLength="221.9411" x="1829.03" y="1281.874">QuantumEntanglementDecorator</text><line style="stroke:#181818;stroke-width:0.5;" x1="1801.03" x2="2052.9711" y1="1292.442" y2="1292.442"/><rect fill="none" height="6" style="stroke:#C82930;stroke-width:1;" width="6" x="1808.03" y="1304.4759"/><text fill="#000000" font-family="sans-serif" font-size="14" lengthAdjust="spacing" textLength="88.0597" x="1820.03" y="1311.4079">Link* partner</text><line style="stroke:#181818;stroke-width:0.5;" x1="1801.03" x2="2052.9711" y1="1319.5099" y2="1319.5099"/></g><!--class Ability--><g class="entity" data-entity="Ability" data-source-line="99" data-uid="ent0021" id="entity_Ability"><rect fill="#F1F1F1" height="162.4075" rx="2.5" ry="2.5" style="stroke:#181818;stroke-width:0.5;" width="137.4956" x="2302.25" y="882.362"/><ellipse cx="2347.7499" cy="898.362" fill="#A9DCDF" rx="11" ry="11" style="stroke:#181818;stroke-width:1;"/><path d="M2351.0936,903.612 L2349.6249,899.862 L2345.1874,899.862 L2343.7499,903.612 L2341.6249,903.612 L2346.578,890.8932 L2348.328,890.8932 L2353.2499,903.612 L2351.0936,903.612 Z M2347.7499,894.6589 Q2347.703,894.5026 2347.578,894.1432 Q2347.453,893.7839 2347.3436,893.4089 Q2347.2342,893.0182 2347.4374,892.9557 Q2347.5936,893.1432 2347.4999,893.5026 Q2347.4061,893.8464 2347.3124,894.1432 Q2347.2186,894.4245 2347.1405,894.6589 L2345.9061,897.9714 L2348.9842,897.9714 L2347.7499,894.6589 Z " fill="#000000"/><text fill="#000000" font-family="sans-serif" font-size="14" font-style="italic" lengthAdjust="spacing" textLength="37.9958" x="2368.2499" y="903.794">Ability</text><line style="stroke:#181818;stroke-width:0.5;" x1="2303.25" x2="2438.7456" y1="914.362" y2="914.362"/><rect fill="none" height="6" style="stroke:#C82930;stroke-width:1;" width="6" x="2310.25" y="926.3959"/><text fill="#000000" font-family="sans-serif" font-size="14" lengthAdjust="spacing" textLength="79.5477" x="2322.25" y="933.3279">string name</text><rect fill="none" height="6" style="stroke:#C82930;stroke-width:1;" width="6" x="2310.25" y="945.4639"/><text fill="#000000" font-family="sans-serif" font-size="14" lengthAdjust="spacing" textLength="64.6658" x="2322.25" y="952.3958">bool used</text><line style="stroke:#181818;stroke-width:0.5;" x1="2303.25" x2="2438.7456" y1="960.4978" y2="960.4978"/><ellipse cx="2313.25" cy="975.5318" fill="#84BE84" rx="3" ry="3" style="stroke:#038048;stroke-width:1;"/><text fill="#000000" font-family="sans-serif" font-size="14" lengthAdjust="spacing" textLength="63.0977" x="2322.25" y="979.4638">void use()</text><ellipse cx="2313.25" cy="994.5997" fill="#84BE84" rx="3" ry="3" style="stroke:#038048;stroke-width:1;"/><text fill="#000000" font-family="sans-serif" font-size="14" lengthAdjust="spacing" textLength="84.9657" x="2322.25" y="998.5317">bool isUsed()</text><ellipse cx="2313.25" cy="1013.6676" fill="#84BE84" rx="3" ry="3" style="stroke:#038048;stroke-width:1;"/><text fill="#000000" font-family="sans-serif" font-size="14" lengthAdjust="spacing" textLength="107.4916" x="2322.25" y="1017.5996">void markUsed()</text><ellipse cx="2313.25" cy="1032.7355" fill="#84BE84" rx="3" ry="3" style="stroke:#038048;stroke-width:1;"/><text fill="#000000" font-family="sans-serif" font-size="14" lengthAdjust="spacing" textLength="111.4956" x="2322.25" y="1036.6675">string getName()</text></g><!--class FirewallAbility--><g class="entity" data-entity="FirewallAbility" data-source-line="109" data-uid="ent0022" id="entity_FirewallAbility"><rect fill="#F1F1F1" height="48" rx="2.5" ry="2.5" style="stroke:#181818;stroke-width:0.5;" width="123.2236" x="2788.39" y="1123.842"/><ellipse cx="2803.39" cy="1139.842" fill="#ADD1B2" rx="11" ry="11" style="stroke:#181818;stroke-width:1;"/><path d="M2803.4994,1135.3732 Q2802.5775,1135.3732 2801.8431,1135.6857 Q2801.1244,1135.9982 2800.6244,1136.592 Q2800.1244,1137.1701 2799.8431,1138.0451 Q2799.5775,1138.9201 2799.5775,1140.0139 Q2799.5775,1141.4514 2800.015,1142.4982 Q2800.4681,1143.5451 2801.3119,1144.092 Q2802.1713,1144.6389 2803.4838,1144.6389 Q2804.265,1144.6389 2804.9525,1144.5139 Q2805.6556,1144.3732 2806.6556,1144.0607 L2806.6556,1145.9357 Q2805.7963,1146.2639 2805.0306,1146.3889 Q2804.2806,1146.5139 2803.265,1146.5139 Q2801.3431,1146.5139 2800.0306,1145.717 Q2798.7338,1144.9045 2798.0775,1143.4357 Q2797.4213,1141.9514 2797.4213,1139.9826 Q2797.4213,1138.5607 2797.8119,1137.3889 Q2798.2181,1136.2014 2798.9994,1135.3264 Q2799.7806,1134.4514 2800.9213,1133.9826 Q2802.0619,1133.4982 2803.5306,1133.4982 Q2804.4838,1133.4982 2805.3744,1133.7014 Q2806.2806,1133.8889 2807.2181,1134.3576 L2806.39,1136.1389 Q2805.6088,1135.7639 2804.9525,1135.5764 Q2804.2963,1135.3732 2803.4994,1135.3732 Z " fill="#000000"/><text fill="#000000" font-family="sans-serif" font-size="14" lengthAdjust="spacing" textLength="91.2236" x="2817.39" y="1145.274">FirewallAbility</text><line style="stroke:#181818;stroke-width:0.5;" x1="2789.39" x2="2910.6136" y1="1155.842" y2="1155.842"/><line style="stroke:#181818;stroke-width:0.5;" x1="2789.39" x2="2910.6136" y1="1163.842" y2="1163.842"/></g><!--class DownloadAbility--><g class="entity" data-entity="DownloadAbility" data-source-line="112" data-uid="ent0023" id="entity_DownloadAbility"><rect fill="#F1F1F1" height="48" rx="2.5" ry="2.5" style="stroke:#181818;stroke-width:0.5;" width="139.4776" x="2946.26" y="1123.842"/><ellipse cx="2961.26" cy="1139.842" fill="#ADD1B2" rx="11" ry="11" style="stroke:#181818;stroke-width:1;"/><path d="M2961.3694,1135.3732 Q2960.4475,1135.3732 2959.7131,1135.6857 Q2958.9944,1135.9982 2958.4944,1136.592 Q2957.9944,1137.1701 2957.7131,1138.0451 Q2957.4475,1138.9201 2957.4475,1140.0139 Q2957.4475,1141.4514 2957.885,1142.4982 Q2958.3381,1143.5451 2959.1819,1144.092 Q2960.0413,1144.6389 2961.3538,1144.6389 Q2962.135,1144.6389 2962.8225,1144.5139 Q2963.5256,1144.3732 2964.5256,1144.0607 L2964.5256,1145.9357 Q2963.6663,1146.2639 2962.9006,1146.3889 Q2962.1506,1146.5139 2961.135,1146.5139 Q2959.2131,1146.5139 2957.9006,1145.717 Q2956.6038,1144.9045 2955.9475,1143.4357 Q2955.2913,1141.9514 2955.2913,1139.9826 Q2955.2913,1138.5607 2955.6819,1137.3889 Q2956.0881,1136.2014 2956.8694,1135.3264 Q2957.6506,1134.4514 2958.7913,1133.9826 Q2959.9319,1133.4982 2961.4006,1133.4982 Q2962.3538,1133.4982 2963.2444,1133.7014 Q2964.1506,1133.8889 2965.0881,1134.3576 L2964.26,1136.1389 Q2963.4788,1135.7639 2962.8225,1135.5764 Q2962.1663,1135.3732 2961.3694,1135.3732 Z " fill="#000000"/><text fill="#000000" font-family="sans-serif" font-size="14" lengthAdjust="spacing" textLength="107.4776" x="2975.26" y="1145.274">DownloadAbility</text><line style="stroke:#181818;stroke-width:0.5;" x1="2947.26" x2="3084.7376" y1="1155.842" y2="1155.842"/><line style="stroke:#181818;stroke-width:0.5;" x1="2947.26" x2="3084.7376" y1="1163.842" y2="1163.842"/></g><!--class PolarizeAbility--><g class="entity" data-entity="PolarizeAbility" data-source-line="115" data-uid="ent0024" id="entity_PolarizeAbility"><rect fill="#F1F1F1" height="48" rx="2.5" ry="2.5" style="stroke:#181818;stroke-width:0.5;" width="124.8616" x="3120.57" y="1123.842"/><ellipse cx="3135.57" cy="1139.842" fill="#ADD1B2" rx="11" ry="11" style="stroke:#181818;stroke-width:1;"/><path d="M3135.6794,1135.3732 Q3134.7575,1135.3732 3134.0231,1135.6857 Q3133.3044,1135.9982 3132.8044,1136.592 Q3132.3044,1137.1701 3132.0231,1138.0451 Q3131.7575,1138.9201 3131.7575,1140.0139 Q3131.7575,1141.4514 3132.195,1142.4982 Q3132.6481,1143.5451 3133.4919,1144.092 Q3134.3513,1144.6389 3135.6638,1144.6389 Q3136.445,1144.6389 3137.1325,1144.5139 Q3137.8356,1144.3732 3138.8356,1144.0607 L3138.8356,1145.9357 Q3137.9763,1146.2639 3137.2106,1146.3889 Q3136.4606,1146.5139 3135.445,1146.5139 Q3133.5231,1146.5139 3132.2106,1145.717 Q3130.9138,1144.9045 3130.2575,1143.4357 Q3129.6013,1141.9514 3129.6013,1139.9826 Q3129.6013,1138.5607 3129.9919,1137.3889 Q3130.3981,1136.2014 3131.1794,1135.3264 Q3131.9606,1134.4514 3133.1013,1133.9826 Q3134.2419,1133.4982 3135.7106,1133.4982 Q3136.6638,1133.4982 3137.5544,1133.7014 Q3138.4606,1133.8889 3139.3981,1134.3576 L3138.57,1136.1389 Q3137.7888,1135.7639 3137.1325,1135.5764 Q3136.4763,1135.3732 3135.6794,1135.3732 Z " fill="#000000"/><text fill="#000000" font-family="sans-serif" font-size="14" lengthAdjust="spacing" textLength="92.8616" x="3149.57" y="1145.274">PolarizeAbility</text><line style="stroke:#181818;stroke-width:0.5;" x1="3121.57" x2="3244.4316" y1="1155.842" y2="1155.842"/><line style="stroke:#181818;stroke-width:0.5;" x1="3121.57" x2="3244.4316" y1="1163.842" y2="1163.842"/></g><!--class ScanAbility--><g class="entity" data-entity="ScanAbility" data-source-line="118" data-uid="ent0025" id="entity_ScanAbility"><rect fill="#F1F1F1" height="48" rx="2.5" ry="2.5" style="stroke:#181818;stroke-width:0.5;" width="103.4977" x="1930.25" y="1123.842"/><ellipse cx="1945.25" cy="1139.842" fill="#ADD1B2" rx="11" ry="11" style="stroke:#181818;stroke-width:1;"/><path d="M1945.3594,1135.3732 Q1944.4375,1135.3732 1943.7031,1135.6857 Q1942.9844,1135.9982 1942.4844,1136.592 Q1941.9844,1137.1701 1941.7031,1138.0451 Q1941.4375,1138.9201 1941.4375,1140.0139 Q1941.4375,1141.4514 1941.875,1142.4982 Q1942.3281,1143.5451 1943.1719,1144.092 Q1944.0313,1144.6389 1945.3438,1144.6389 Q1946.125,1144.6389 1946.8125,1144.5139 Q1947.5156,1144.3732 1948.5156,1144.0607 L1948.5156,1145.9357 Q1947.6563,1146.2639 1946.8906,1146.3889 Q1946.1406,1146.5139 1945.125,1146.5139 Q1943.2031,1146.5139 1941.8906,1145.717 Q1940.5938,1144.9045 1939.9375,1143.4357 Q1939.2813,1141.9514 1939.2813,1139.9826 Q1939.2813,1138.5607 1939.6719,1137.3889 Q1940.0781,1136.2014 1940.8594,1135.3264 Q1941.6406,1134.4514 1942.7813,1133.9826 Q1943.9219,1133.4982 1945.3906,1133.4982 Q1946.3438,1133.4982 1947.2344,1133.7014 Q1948.1406,1133.8889 1949.0781,1134.3576 L1948.25,1136.1389 Q1947.4688,1135.7639 1946.8125,1135.5764 Q1946.1563,1135.3732 1945.3594,1135.3732 Z " fill="#000000"/><text fill="#000000" font-family="sans-serif" font-size="14" lengthAdjust="spacing" textLength="71.4977" x="1959.25" y="1145.274">ScanAbility</text><line style="stroke:#181818;stroke-width:0.5;" x1="1931.25" x2="2032.7477" y1="1155.842" y2="1155.842"/><line style="stroke:#181818;stroke-width:0.5;" x1="1931.25" x2="2032.7477" y1="1163.842" y2="1163.842"/></g><!--class LinkBoostAbility--><g class="entity" data-entity="LinkBoostAbility" data-source-line="121" data-uid="ent0026" id="entity_LinkBoostAbility"><rect fill="#F1F1F1" height="48" rx="2.5" ry="2.5" style="stroke:#181818;stroke-width:0.5;" width="137.4616" x="2068.27" y="1123.842"/><ellipse cx="2083.27" cy="1139.842" fill="#ADD1B2" rx="11" ry="11" style="stroke:#181818;stroke-width:1;"/><path d="M2083.3794,1135.3732 Q2082.4575,1135.3732 2081.7231,1135.6857 Q2081.0044,1135.9982 2080.5044,1136.592 Q2080.0044,1137.1701 2079.7231,1138.0451 Q2079.4575,1138.9201 2079.4575,1140.0139 Q2079.4575,1141.4514 2079.895,1142.4982 Q2080.3481,1143.5451 2081.1919,1144.092 Q2082.0513,1144.6389 2083.3638,1144.6389 Q2084.145,1144.6389 2084.8325,1144.5139 Q2085.5356,1144.3732 2086.5356,1144.0607 L2086.5356,1145.9357 Q2085.6763,1146.2639 2084.9106,1146.3889 Q2084.1606,1146.5139 2083.145,1146.5139 Q2081.2231,1146.5139 2079.9106,1145.717 Q2078.6138,1144.9045 2077.9575,1143.4357 Q2077.3013,1141.9514 2077.3013,1139.9826 Q2077.3013,1138.5607 2077.6919,1137.3889 Q2078.0981,1136.2014 2078.8794,1135.3264 Q2079.6606,1134.4514 2080.8013,1133.9826 Q2081.9419,1133.4982 2083.4106,1133.4982 Q2084.3638,1133.4982 2085.2544,1133.7014 Q2086.1606,1133.8889 2087.0981,1134.3576 L2086.27,1136.1389 Q2085.4888,1135.7639 2084.8325,1135.5764 Q2084.1763,1135.3732 2083.3794,1135.3732 Z " fill="#000000"/><text fill="#000000" font-family="sans-serif" font-size="14" lengthAdjust="spacing" textLength="105.4616" x="2097.27" y="1145.274">LinkBoostAbility</text><line style="stroke:#181818;stroke-width:0.5;" x1="2069.27" x2="2204.7316" y1="1155.842" y2="1155.842"/><line style="stroke:#181818;stroke-width:0.5;" x1="2069.27" x2="2204.7316" y1="1163.842" y2="1163.842"/></g><!--class PappleAbility--><g class="entity" data-entity="PappleAbility" data-source-line="124" data-uid="ent0027" id="entity_PappleAbility"><rect fill="#F1F1F1" height="48" rx="2.5" ry="2.5" style="stroke:#181818;stroke-width:0.5;" width="117.6377" x="2241.18" y="1123.842"/><ellipse cx="2256.18" cy="1139.842" fill="#ADD1B2" rx="11" ry="11" style="stroke:#181818;stroke-width:1;"/><path d="M2256.2894,1135.3732 Q2255.3675,1135.3732 2254.6331,1135.6857 Q2253.9144,1135.9982 2253.4144,1136.592 Q2252.9144,1137.1701 2252.6331,1138.0451 Q2252.3675,1138.9201 2252.3675,1140.0139 Q2252.3675,1141.4514 2252.805,1142.4982 Q2253.2581,1143.5451 2254.1019,1144.092 Q2254.9613,1144.6389 2256.2738,1144.6389 Q2257.055,1144.6389 2257.7425,1144.5139 Q2258.4456,1144.3732 2259.4456,1144.0607 L2259.4456,1145.9357 Q2258.5863,1146.2639 2257.8206,1146.3889 Q2257.0706,1146.5139 2256.055,1146.5139 Q2254.1331,1146.5139 2252.8206,1145.717 Q2251.5238,1144.9045 2250.8675,1143.4357 Q2250.2113,1141.9514 2250.2113,1139.9826 Q2250.2113,1138.5607 2250.6019,1137.3889 Q2251.0081,1136.2014 2251.7894,1135.3264 Q2252.5706,1134.4514 2253.7113,1133.9826 Q2254.8519,1133.4982 2256.3206,1133.4982 Q2257.2738,1133.4982 2258.1644,1133.7014 Q2259.0706,1133.8889 2260.0081,1134.3576 L2259.18,1136.1389 Q2258.3988,1135.7639 2257.7425,1135.5764 Q2257.0863,1135.3732 2256.2894,1135.3732 Z " fill="#000000"/><text fill="#000000" font-family="sans-serif" font-size="14" lengthAdjust="spacing" textLength="85.6377" x="2270.18" y="1145.274">PappleAbility</text><line style="stroke:#181818;stroke-width:0.5;" x1="2242.18" x2="2357.8177" y1="1155.842" y2="1155.842"/><line style="stroke:#181818;stroke-width:0.5;" x1="2242.18" x2="2357.8177" y1="1163.842" y2="1163.842"/></g><!--class LagAbility--><g class="entity" data-entity="LagAbility" data-source-line="127" data-uid="ent0028" id="entity_LagAbility"><rect fill="#F1F1F1" height="48" rx="2.5" ry="2.5" style="stroke:#181818;stroke-width:0.5;" width="96.3858" x="2393.81" y="1123.842"/><ellipse cx="2408.81" cy="1139.842" fill="#ADD1B2" rx="11" ry="11" style="stroke:#181818;stroke-width:1;"/><path d="M2408.9194,1135.3732 Q2407.9975,1135.3732 2407.2631,1135.6857 Q2406.5444,1135.9982 2406.0444,1136.592 Q2405.5444,1137.1701 2405.2631,1138.0451 Q2404.9975,1138.9201 2404.9975,1140.0139 Q2404.9975,1141.4514 2405.435,1142.4982 Q2405.8881,1143.5451 2406.7319,1144.092 Q2407.5913,1144.6389 2408.9038,1144.6389 Q2409.685,1144.6389 2410.3725,1144.5139 Q2411.0756,1144.3732 2412.0756,1144.0607 L2412.0756,1145.9357 Q2411.2163,1146.2639 2410.4506,1146.3889 Q2409.7006,1146.5139 2408.685,1146.5139 Q2406.7631,1146.5139 2405.4506,1145.717 Q2404.1538,1144.9045 2403.4975,1143.4357 Q2402.8413,1141.9514 2402.8413,1139.9826 Q2402.8413,1138.5607 2403.2319,1137.3889 Q2403.6381,1136.2014 2404.4194,1135.3264 Q2405.2006,1134.4514 2406.3413,1133.9826 Q2407.4819,1133.4982 2408.9506,1133.4982 Q2409.9038,1133.4982 2410.7944,1133.7014 Q2411.7006,1133.8889 2412.6381,1134.3576 L2411.81,1136.1389 Q2411.0288,1135.7639 2410.3725,1135.5764 Q2409.7163,1135.3732 2408.9194,1135.3732 Z " fill="#000000"/><text fill="#000000" font-family="sans-serif" font-size="14" lengthAdjust="spacing" textLength="64.3858" x="2422.81" y="1145.274">LagAbility</text><line style="stroke:#181818;stroke-width:0.5;" x1="2394.81" x2="2489.1958" y1="1155.842" y2="1155.842"/><line style="stroke:#181818;stroke-width:0.5;" x1="2394.81" x2="2489.1958" y1="1163.842" y2="1163.842"/></g><!--class QuantumEntanglementAbility--><g class="entity" data-entity="QuantumEntanglementAbility" data-source-line="130" data-uid="ent0029" id="entity_QuantumEntanglementAbility"><rect fill="#F1F1F1" height="48" rx="2.5" ry="2.5" style="stroke:#181818;stroke-width:0.5;" width="228.2792" x="2524.86" y="1123.842"/><ellipse cx="2539.86" cy="1139.842" fill="#ADD1B2" rx="11" ry="11" style="stroke:#181818;stroke-width:1;"/><path d="M2539.9694,1135.3732 Q2539.0475,1135.3732 2538.3131,1135.6857 Q2537.5944,1135.9982 2537.0944,1136.592 Q2536.5944,1137.1701 2536.3131,1138.0451 Q2536.0475,1138.9201 2536.0475,1140.0139 Q2536.0475,1141.4514 2536.485,1142.4982 Q2536.9381,1143.5451 2537.7819,1144.092 Q2538.6413,1144.6389 2539.9538,1144.6389 Q2540.735,1144.6389 2541.4225,1144.5139 Q2542.1256,1144.3732 2543.1256,1144.0607 L2543.1256,1145.9357 Q2542.2663,1146.2639 2541.5006,1146.3889 Q2540.7506,1146.5139 2539.735,1146.5139 Q2537.8131,1146.5139 2536.5006,1145.717 Q2535.2038,1144.9045 2534.5475,1143.4357 Q2533.8913,1141.9514 2533.8913,1139.9826 Q2533.8913,1138.5607 2534.2819,1137.3889 Q2534.6881,1136.2014 2535.4694,1135.3264 Q2536.2506,1134.4514 2537.3913,1133.9826 Q2538.5319,1133.4982 2540.0006,1133.4982 Q2540.9538,1133.4982 2541.8444,1133.7014 Q2542.7506,1133.8889 2543.6881,1134.3576 L2542.86,1136.1389 Q2542.0788,1135.7639 2541.4225,1135.5764 Q2540.7663,1135.3732 2539.9694,1135.3732 Z " fill="#000000"/><text fill="#000000" font-family="sans-serif" font-size="14" lengthAdjust="spacing" textLength="196.2792" x="2553.86" y="1145.274">QuantumEntanglementAbility</text><line style="stroke:#181818;stroke-width:0.5;" x1="2525.86" x2="2752.1392" y1="1155.842" y2="1155.842"/><line style="stroke:#181818;stroke-width:0.5;" x1="2525.86" x2="2752.1392" y1="1163.842" y2="1163.842"/></g><!--class View--><g class="entity" data-entity="View" data-source-line="136" data-uid="ent0031" id="entity_View"><rect fill="#F1F1F1" height="105.2038" rx="2.5" ry="2.5" style="stroke:#181818;stroke-width:0.5;" width="196.5893" x="3300.71" y="332.672"/><ellipse cx="3380.5307" cy="348.672" fill="#A9DCDF" rx="11" ry="11" style="stroke:#181818;stroke-width:1;"/><path d="M3383.8745,353.922 L3382.4057,350.172 L3377.9682,350.172 L3376.5307,353.922 L3374.4057,353.922 L3379.3588,341.2032 L3381.1088,341.2032 L3386.0307,353.922 L3383.8745,353.922 Z M3380.5307,344.9689 Q3380.4838,344.8126 3380.3588,344.4532 Q3380.2338,344.0939 3380.1245,343.7189 Q3380.0151,343.3282 3380.2182,343.2657 Q3380.3745,343.4532 3380.2807,343.8126 Q3380.187,344.1564 3380.0932,344.4532 Q3379.9995,344.7345 3379.9213,344.9689 L3378.687,348.2814 L3381.7651,348.2814 L3380.5307,344.9689 Z " fill="#000000"/><text fill="#000000" font-family="sans-serif" font-size="14" font-style="italic" lengthAdjust="spacing" textLength="28.4479" x="3401.0307" y="354.104">View</text><line style="stroke:#181818;stroke-width:0.5;" x1="3301.71" x2="3496.2993" y1="364.672" y2="364.672"/><line style="stroke:#181818;stroke-width:0.5;" x1="3301.71" x2="3496.2993" y1="372.672" y2="372.672"/><ellipse cx="3311.71" cy="387.7059" fill="#84BE84" rx="3" ry="3" style="stroke:#038048;stroke-width:1;"/><text fill="#000000" font-family="sans-serif" font-size="14" lengthAdjust="spacing" textLength="86.5197" x="3320.71" y="391.6379">void update()</text><ellipse cx="3311.71" cy="406.7739" fill="#84BE84" rx="3" ry="3" style="stroke:#038048;stroke-width:1;"/><text fill="#000000" font-family="sans-serif" font-size="14" lengthAdjust="spacing" textLength="85.9877" x="3320.71" y="410.7058">void display()</text><ellipse cx="3311.71" cy="425.8418" fill="#84BE84" rx="3" ry="3" style="stroke:#038048;stroke-width:1;"/><text fill="#000000" font-family="sans-serif" font-size="14" lengthAdjust="spacing" textLength="170.5893" x="3320.71" y="429.7738">void notify(Player* player)</text></g><!--class TextView--><g class="entity" data-entity="TextView" data-source-line="142" data-uid="ent0032" id="entity_TextView"><rect fill="#F1F1F1" height="105.2038" rx="2.5" ry="2.5" style="stroke:#181818;stroke-width:0.5;" width="185.5154" x="3301.24" y="650.422"/><ellipse cx="3360.2218" cy="666.422" fill="#ADD1B2" rx="11" ry="11" style="stroke:#181818;stroke-width:1;"/><path d="M3360.3312,661.9532 Q3359.4093,661.9532 3358.6749,662.2657 Q3357.9562,662.5782 3357.4562,663.172 Q3356.9562,663.7501 3356.6749,664.6251 Q3356.4093,665.5001 3356.4093,666.5939 Q3356.4093,668.0314 3356.8468,669.0782 Q3357.2999,670.1251 3358.1437,670.672 Q3359.0031,671.2189 3360.3156,671.2189 Q3361.0968,671.2189 3361.7843,671.0939 Q3362.4874,670.9532 3363.4874,670.6407 L3363.4874,672.5157 Q3362.6281,672.8439 3361.8624,672.9689 Q3361.1124,673.0939 3360.0968,673.0939 Q3358.1749,673.0939 3356.8624,672.297 Q3355.5656,671.4845 3354.9093,670.0157 Q3354.2531,668.5314 3354.2531,666.5626 Q3354.2531,665.1407 3354.6437,663.9689 Q3355.0499,662.7814 3355.8312,661.9064 Q3356.6124,661.0314 3357.7531,660.5626 Q3358.8937,660.0782 3360.3624,660.0782 Q3361.3156,660.0782 3362.2062,660.2814 Q3363.1124,660.4689 3364.0499,660.9376 L3363.2218,662.7189 Q3362.4406,662.3439 3361.7843,662.1564 Q3361.1281,661.9532 3360.3312,661.9532 Z " fill="#000000"/><text fill="#000000" font-family="sans-serif" font-size="14" lengthAdjust="spacing" textLength="59.0518" x="3380.7218" y="671.854">TextView</text><line style="stroke:#181818;stroke-width:0.5;" x1="3302.24" x2="3485.7554" y1="682.422" y2="682.422"/><line style="stroke:#181818;stroke-width:0.5;" x1="3302.24" x2="3485.7554" y1="690.422" y2="690.422"/><ellipse cx="3312.24" cy="705.4559" fill="#84BE84" rx="3" ry="3" style="stroke:#038048;stroke-width:1;"/><text fill="#000000" font-family="sans-serif" font-size="14" lengthAdjust="spacing" textLength="159.5154" x="3321.24" y="709.3879">TextView(Game* model)</text><ellipse cx="3312.24" cy="724.5239" fill="#84BE84" rx="3" ry="3" style="stroke:#038048;stroke-width:1;"/><text fill="#000000" font-family="sans-serif" font-size="14" lengthAdjust="spacing" textLength="145.3194" x="3321.24" y="728.4558">void update() override</text><ellipse cx="3312.24" cy="743.5918" fill="#84BE84" rx="3" ry="3" style="stroke:#038048;stroke-width:1;"/><text fill="#000000" font-family="sans-serif" font-size="14" lengthAdjust="spacing" textLength="144.7874" x="3321.24" y="747.5238">void display() override</text></g><!--class GraphicalView--><g class="entity" data-entity="GraphicalView" data-source-line="148" data-uid="ent0033" id="entity_GraphicalView"><rect fill="#F1F1F1" height="105.2038" rx="2.5" ry="2.5" style="stroke:#181818;stroke-width:0.5;" width="220.2632" x="3521.87" y="650.422"/><ellipse cx="3580.8518" cy="666.422" fill="#ADD1B2" rx="11" ry="11" style="stroke:#181818;stroke-width:1;"/><path d="M3580.9612,661.9532 Q3580.0393,661.9532 3579.3049,662.2657 Q3578.5862,662.5782 3578.0862,663.172 Q3577.5862,663.7501 3577.3049,664.6251 Q3577.0393,665.5001 3577.0393,666.5939 Q3577.0393,668.0314 3577.4768,669.0782 Q3577.9299,670.1251 3578.7737,670.672 Q3579.6331,671.2189 3580.9456,671.2189 Q3581.7268,671.2189 3582.4143,671.0939 Q3583.1174,670.9532 3584.1174,670.6407 L3584.1174,672.5157 Q3583.2581,672.8439 3582.4924,672.9689 Q3581.7424,673.0939 3580.7268,673.0939 Q3578.8049,673.0939 3577.4924,672.297 Q3576.1956,671.4845 3575.5393,670.0157 Q3574.8831,668.5314 3574.8831,666.5626 Q3574.8831,665.1407 3575.2737,663.9689 Q3575.6799,662.7814 3576.4612,661.9064 Q3577.2424,661.0314 3578.3831,660.5626 Q3579.5237,660.0782 3580.9924,660.0782 Q3581.9456,660.0782 3582.8362,660.2814 Q3583.7424,660.4689 3584.6799,660.9376 L3583.8518,662.7189 Q3583.0706,662.3439 3582.4143,662.1564 Q3581.7581,661.9532 3580.9612,661.9532 Z " fill="#000000"/><text fill="#000000" font-family="sans-serif" font-size="14" lengthAdjust="spacing" textLength="93.7996" x="3601.3518" y="671.854">GraphicalView</text><line style="stroke:#181818;stroke-width:0.5;" x1="3522.87" x2="3741.1332" y1="682.422" y2="682.422"/><line style="stroke:#181818;stroke-width:0.5;" x1="3522.87" x2="3741.1332" y1="690.422" y2="690.422"/><ellipse cx="3532.87" cy="705.4559" fill="#84BE84" rx="3" ry="3" style="stroke:#038048;stroke-width:1;"/><text fill="#000000" font-family="sans-serif" font-size="14" lengthAdjust="spacing" textLength="194.2632" x="3541.87" y="709.3879">GraphicalView(Game* model)</text><ellipse cx="3532.87" cy="724.5239" fill="#84BE84" rx="3" ry="3" style="stroke:#038048;stroke-width:1;"/><text fill="#000000" font-family="sans-serif" font-size="14" lengthAdjust="spacing" textLength="145.3194" x="3541.87" y="728.4558">void update() override</text><ellipse cx="3532.87" cy="743.5918" fill="#84BE84" rx="3" ry="3" style="stroke:#038048;stroke-width:1;"/><text fill="#000000" font-family="sans-serif" font-size="14" lengthAdjust="spacing" textLength="144.7874" x="3541.87" y="747.5238">void display() override</text></g><!--class Controller--><g class="entity" data-entity="Controller" data-source-line="157" data-uid="ent0035" id="entity_Controller"><rect fill="#F1F1F1" height="124.2717" rx="2.5" ry="2.5" style="stroke:#181818;stroke-width:0.5;" width="384.7067" x="2453.65" y="44.602"/><ellipse cx="2608.6645" cy="60.602" fill="#ADD1B2" rx="11" ry="11" style="stroke:#181818;stroke-width:1;"/><path d="M2608.7738,56.1332 Q2607.852,56.1332 2607.1176,56.4457 Q2606.3988,56.7582 2605.8988,57.352 Q2605.3988,57.9301 2605.1176,58.8051 Q2604.852,59.6801 2604.852,60.7739 Q2604.852,62.2114 2605.2895,63.2582 Q2605.7426,64.3051 2606.5863,64.852 Q2607.4457,65.3989 2608.7582,65.3989 Q2609.5395,65.3989 2610.227,65.2739 Q2610.9301,65.1332 2611.9301,64.8207 L2611.9301,66.6957 Q2611.0707,67.0239 2610.3051,67.1489 Q2609.5551,67.2739 2608.5395,67.2739 Q2606.6176,67.2739 2605.3051,66.477 Q2604.0082,65.6645 2603.352,64.1957 Q2602.6957,62.7114 2602.6957,60.7426 Q2602.6957,59.3207 2603.0863,58.1489 Q2603.4926,56.9614 2604.2738,56.0864 Q2605.0551,55.2114 2606.1957,54.7426 Q2607.3363,54.2582 2608.8051,54.2582 Q2609.7582,54.2582 2610.6488,54.4614 Q2611.5551,54.6489 2612.4926,55.1176 L2611.6645,56.8989 Q2610.8832,56.5239 2610.227,56.3364 Q2609.5707,56.1332 2608.7738,56.1332 Z " fill="#000000"/><text fill="#000000" font-family="sans-serif" font-size="14" lengthAdjust="spacing" textLength="66.1777" x="2629.1645" y="66.034">Controller</text><line style="stroke:#181818;stroke-width:0.5;" x1="2454.65" x2="2837.3567" y1="76.602" y2="76.602"/><rect fill="none" height="6" style="stroke:#C82930;stroke-width:1;" width="6" x="2461.65" y="88.6359"/><text fill="#000000" font-family="sans-serif" font-size="14" lengthAdjust="spacing" textLength="184.9812" x="2473.65" y="95.5679">vector&lt;vector&lt;View&gt;&gt; views</text><rect fill="none" height="6" style="stroke:#C82930;stroke-width:1;" width="6" x="2461.65" y="107.7039"/><text fill="#000000" font-family="sans-serif" font-size="14" lengthAdjust="spacing" textLength="87.8357" x="2473.65" y="114.6358">Game* game</text><line style="stroke:#181818;stroke-width:0.5;" x1="2454.65" x2="2837.3567" y1="122.7378" y2="122.7378"/><ellipse cx="2464.65" cy="137.7718" fill="#84BE84" rx="3" ry="3" style="stroke:#038048;stroke-width:1;"/><text fill="#000000" font-family="sans-serif" font-size="14" lengthAdjust="spacing" textLength="134.8475" x="2473.65" y="141.7038">void runGameLoop()</text><ellipse cx="2464.65" cy="156.8397" fill="#84BE84" rx="3" ry="3" style="stroke:#038048;stroke-width:1;"/><text fill="#000000" font-family="sans-serif" font-size="14" lengthAdjust="spacing" textLength="358.7067" x="2473.65" y="160.7717">void parseCommand(const std::string&amp; commandLine)</text></g><!--class LinkFactory--><g class="entity" data-entity="LinkFactory" data-source-line="168" data-uid="ent0037" id="entity_LinkFactory"><rect fill="#F1F1F1" height="67.0679" rx="2.5" ry="2.5" style="stroke:#181818;stroke-width:0.5;" width="282.143" x="398.93" y="930.032"/><ellipse cx="498.0706" cy="946.032" fill="#ADD1B2" rx="11" ry="11" style="stroke:#181818;stroke-width:1;"/><path d="M498.18,941.5632 Q497.2581,941.5632 496.5238,941.8757 Q495.805,942.1882 495.305,942.782 Q494.805,943.3601 494.5238,944.2351 Q494.2581,945.1101 494.2581,946.2039 Q494.2581,947.6414 494.6956,948.6882 Q495.1488,949.7351 495.9925,950.282 Q496.8519,950.8289 498.1644,950.8289 Q498.9456,950.8289 499.6331,950.7039 Q500.3363,950.5632 501.3363,950.2507 L501.3363,952.1257 Q500.4769,952.4539 499.7113,952.5789 Q498.9613,952.7039 497.9456,952.7039 Q496.0238,952.7039 494.7113,951.907 Q493.4144,951.0945 492.7581,949.6257 Q492.1019,948.1414 492.1019,946.1726 Q492.1019,944.7507 492.4925,943.5789 Q492.8988,942.3914 493.68,941.5164 Q494.4613,940.6414 495.6019,940.1726 Q496.7425,939.6882 498.2113,939.6882 Q499.1644,939.6882 500.055,939.8914 Q500.9613,940.0789 501.8988,940.5476 L501.0706,942.3289 Q500.2894,941.9539 499.6331,941.7664 Q498.9769,941.5632 498.18,941.5632 Z " fill="#000000"/><text fill="#000000" font-family="sans-serif" font-size="14" lengthAdjust="spacing" textLength="75.3617" x="518.5706" y="951.464">LinkFactory</text><line style="stroke:#181818;stroke-width:0.5;" x1="399.93" x2="680.073" y1="962.032" y2="962.032"/><line style="stroke:#181818;stroke-width:0.5;" x1="399.93" x2="680.073" y1="970.032" y2="970.032"/><ellipse cx="409.93" cy="985.0659" fill="#84BE84" rx="3" ry="3" style="stroke:#038048;stroke-width:1;"/><text fill="#000000" font-family="sans-serif" font-size="14" lengthAdjust="spacing" textLength="256.143" x="418.93" y="988.9979">Link * createPlayerLink(Player * player)</text></g><!--class AbilityFactory--><g class="entity" data-entity="AbilityFactory" data-source-line="172" data-uid="ent0038" id="entity_AbilityFactory"><rect fill="#F1F1F1" height="67.0679" rx="2.5" ry="2.5" style="stroke:#181818;stroke-width:0.5;" width="309.1629" x="716.42" y="930.032"/><ellipse cx="822.3156" cy="946.032" fill="#ADD1B2" rx="11" ry="11" style="stroke:#181818;stroke-width:1;"/><path d="M822.425,941.5632 Q821.5031,941.5632 820.7687,941.8757 Q820.05,942.1882 819.55,942.782 Q819.05,943.3601 818.7687,944.2351 Q818.5031,945.1101 818.5031,946.2039 Q818.5031,947.6414 818.9406,948.6882 Q819.3937,949.7351 820.2375,950.282 Q821.0969,950.8289 822.4094,950.8289 Q823.1906,950.8289 823.8781,950.7039 Q824.5812,950.5632 825.5812,950.2507 L825.5812,952.1257 Q824.7219,952.4539 823.9562,952.5789 Q823.2062,952.7039 822.1906,952.7039 Q820.2687,952.7039 818.9562,951.907 Q817.6594,951.0945 817.0031,949.6257 Q816.3469,948.1414 816.3469,946.1726 Q816.3469,944.7507 816.7375,943.5789 Q817.1437,942.3914 817.925,941.5164 Q818.7062,940.6414 819.8469,940.1726 Q820.9875,939.6882 822.4562,939.6882 Q823.4094,939.6882 824.3,939.8914 Q825.2062,940.0789 826.1437,940.5476 L825.3156,942.3289 Q824.5344,941.9539 823.8781,941.7664 Q823.2219,941.5632 822.425,941.5632 Z " fill="#000000"/><text fill="#000000" font-family="sans-serif" font-size="14" lengthAdjust="spacing" textLength="88.8717" x="842.8156" y="951.464">AbilityFactory</text><line style="stroke:#181818;stroke-width:0.5;" x1="717.42" x2="1024.5829" y1="962.032" y2="962.032"/><line style="stroke:#181818;stroke-width:0.5;" x1="717.42" x2="1024.5829" y1="970.032" y2="970.032"/><ellipse cx="727.42" cy="985.0659" fill="#84BE84" rx="3" ry="3" style="stroke:#038048;stroke-width:1;"/><text fill="#000000" font-family="sans-serif" font-size="14" lengthAdjust="spacing" textLength="283.1629" x="736.42" y="988.9979">Ability * createPlayerAbility(Player * player)</text></g><!--class LinkDecoratorFactory--><g class="entity" data-entity="LinkDecoratorFactory" data-source-line="176" data-uid="ent0039" id="entity_LinkDecoratorFactory"><rect fill="#F1F1F1" height="67.0679" rx="2.5" ry="2.5" style="stroke:#181818;stroke-width:0.5;" width="342.6647" x="21.67" y="930.032"/><ellipse cx="117.9476" cy="946.032" fill="#ADD1B2" rx="11" ry="11" style="stroke:#181818;stroke-width:1;"/><path d="M118.057,941.5632 Q117.1351,941.5632 116.4007,941.8757 Q115.682,942.1882 115.182,942.782 Q114.682,943.3601 114.4007,944.2351 Q114.1351,945.1101 114.1351,946.2039 Q114.1351,947.6414 114.5726,948.6882 Q115.0257,949.7351 115.8695,950.282 Q116.7289,950.8289 118.0414,950.8289 Q118.8226,950.8289 119.5101,950.7039 Q120.2132,950.5632 121.2132,950.2507 L121.2132,952.1257 Q120.3539,952.4539 119.5882,952.5789 Q118.8382,952.7039 117.8226,952.7039 Q115.9007,952.7039 114.5882,951.907 Q113.2914,951.0945 112.6351,949.6257 Q111.9789,948.1414 111.9789,946.1726 Q111.9789,944.7507 112.3695,943.5789 Q112.7757,942.3914 113.557,941.5164 Q114.3382,940.6414 115.4789,940.1726 Q116.6195,939.6882 118.0882,939.6882 Q119.0414,939.6882 119.932,939.8914 Q120.8382,940.0789 121.7757,940.5476 L120.9476,942.3289 Q120.1664,941.9539 119.5101,941.7664 Q118.8539,941.5632 118.057,941.5632 Z " fill="#000000"/><text fill="#000000" font-family="sans-serif" font-size="14" lengthAdjust="spacing" textLength="141.6095" x="138.4476" y="951.464">LinkDecoratorFactory</text><line style="stroke:#181818;stroke-width:0.5;" x1="22.67" x2="363.3347" y1="962.032" y2="962.032"/><line style="stroke:#181818;stroke-width:0.5;" x1="22.67" x2="363.3347" y1="970.032" y2="970.032"/><ellipse cx="32.67" cy="985.0659" fill="#84BE84" rx="3" ry="3" style="stroke:#038048;stroke-width:1;"/><text fill="#000000" font-family="sans-serif" font-size="14" lengthAdjust="spacing" textLength="316.6647" x="41.67" y="988.9979">LinkDecorator * createLinkDecorator(Link * link)</text></g><!--reverse link Game to Board--><g class="link" data-entity-1="Game" data-entity-2="Board" data-source-line="184" data-uid="lnk40" id="link_Game_Board"><path codeLine="184" d="M1781.8539,534.4175 C1770.6139,553.6875 1766.59,563.472 1759,583.682 C1689.71,768.272 1687.82,1008.662 1690.29,1104.612" fill="none" id="Game-backto-Board" style="stroke:#181818;stroke-width:1;"/><polygon fill="#181818" points="1787.9,524.052,1781.4218,527.2194,1781.8539,534.4175,1788.3321,531.2501,1787.9,524.052" style="stroke:#181818;stroke-width:1;"/></g><!--reverse link Game to Player--><g class="link" data-entity-1="Game" data-entity-2="Player" data-source-line="185" data-uid="lnk41" id="link_Game_Player"><path codeLine="185" d="M1894,535.852 C1894,555.632 1894,563.832 1894,583.202" fill="none" id="Game-backto-Player" style="stroke:#181818;stroke-width:1;"/><polygon fill="#181818" points="1894,523.852,1890,529.852,1894,535.852,1898,529.852,1894,523.852" style="stroke:#181818;stroke-width:1;"/></g><!--reverse link Board to BaseCell--><g class="link" data-entity-1="Board" data-entity-2="BaseCell" data-source-line="187" data-uid="lnk42" id="link_Board_BaseCell"><path codeLine="187" d="M1869.9026,1190.8577 C1936.7026,1208.0177 2002.37,1226.782 2071,1250.912 C2076.67,1252.902 2082.46,1255.072 2088.27,1257.362" fill="none" id="Board-backto-BaseCell" style="stroke:#181818;stroke-width:1;"/><polygon fill="#181818" points="1858.28,1187.872,1863.0961,1193.239,1869.9026,1190.8577,1865.0865,1185.4906,1858.28,1187.872" style="stroke:#181818;stroke-width:1;"/></g><!--reverse link BaseCell to Link--><g class="link" data-entity-1="BaseCell" data-entity-2="Link" data-source-line="188" data-uid="lnk43" id="link_BaseCell_Link"><path codeLine="188" d="M2076.9837,1252.3066 C2071.1937,1250.2966 2076.72,1252.422 2071,1250.912 C1949.4,1218.612 1608.88,1266.102 1508,1190.912 C1474.73,1166.112 1494.18,1139.842 1472,1104.772 C1458.97,1084.172 1442.85,1063.682 1426.54,1044.992" fill="none" id="BaseCell-backto-Link" style="stroke:#181818;stroke-width:1;"/><polygon fill="none" points="2088.32,1256.242,2083.9636,1250.4955,2076.9837,1252.3066,2081.34,1258.0531,2088.32,1256.242" style="stroke:#181818;stroke-width:1;"/></g><!--reverse link Player to Ability--><g class="link" data-entity-1="Player" data-entity-2="Ability" data-source-line="190" data-uid="lnk44" id="link_Player_Ability"><path codeLine="190" d="M2022.15,773.4901 C2113.33,822.9101 2226,883.972 2301.9,925.112" fill="none" id="Player-backto-Ability" style="stroke:#181818;stroke-width:1;"/><polygon fill="#181818" points="2011.6,767.772,2014.969,774.1477,2022.15,773.4901,2018.7811,767.1144,2011.6,767.772" style="stroke:#181818;stroke-width:1;"/></g><!--reverse link Player to Link--><g class="link" data-entity-1="Player" data-entity-2="Link" data-source-line="191" data-uid="lnk45" id="link_Player_Link"><path codeLine="191" d="M1765.5872,764.6123 C1682.7972,803.6723 1582.2,851.132 1493.45,893.002" fill="none" id="Player-backto-Link" style="stroke:#181818;stroke-width:1;"/><polygon fill="#181818" points="1776.44,759.492,1769.3069,758.4345,1765.5872,764.6123,1772.7204,765.6697,1776.44,759.492" style="stroke:#181818;stroke-width:1;"/></g><!--reverse link Link to Board--><g class="link" data-entity-1="Link" data-entity-2="Board" data-source-line="193" data-uid="lnk46" id="link_Link_Board"><path codeLine="193" d="M1504.1067,1047.8553 C1544.5367,1069.1553 1576.26,1085.872 1611.4,1104.382" fill="none" id="Link-backto-Board" style="stroke:#181818;stroke-width:1;"/><polygon fill="none" points="1493.49,1042.262,1496.9339,1048.5975,1504.1067,1047.8553,1500.6628,1041.5197,1493.49,1042.262" style="stroke:#181818;stroke-width:1;"/></g><!--reverse link Player to PlayerCell--><g class="link" data-entity-1="Player" data-entity-2="PlayerCell" data-source-line="195" data-uid="lnk47" id="link_Player_PlayerCell"><path codeLine="195" d="M1881.3052,834.6363 C1871.5352,961.0363 1866.7,1138.122 1913,1190.912 C2017.07,1309.562 2161.27,1130.252 2263,1250.912 C2297.79,1292.172 2269.18,1357.422 2246.03,1396.602" fill="none" id="Player-backto-PlayerCell" style="stroke:#181818;stroke-width:1;"/><polygon fill="#181818" points="1882.23,822.672,1877.7795,828.3459,1881.3052,834.6363,1885.7557,828.9624,1882.23,822.672" style="stroke:#181818;stroke-width:1;"/></g><!--reverse link PlayerCell to BaseCell--><g class="link" data-entity-1="PlayerCell" data-entity-2="BaseCell" data-source-line="196" data-uid="lnk48" id="link_PlayerCell_BaseCell"><path codeLine="196" d="M2217.9797,1385.4611 C2212.2997,1367.5111 2206.68,1356.472 2197.16,1337.192" fill="none" id="PlayerCell-backto-BaseCell" style="stroke:#181818;stroke-width:1;"/><polygon fill="#181818" points="2221.6,1396.902,2223.6035,1389.9748,2217.9797,1385.4611,2215.9762,1392.3883,2221.6,1396.902" style="stroke:#181818;stroke-width:1;"/></g><!--reverse link BaseCell to PlayerCell--><g class="link" data-entity-1="BaseCell" data-entity-2="PlayerCell" data-source-line="199" data-uid="lnk50" id="link_BaseCell_PlayerCell"><path codeLine="199" d="M2178.5871,1354.1671 C2185.3871,1373.4471 2189.2,1378.952 2198.72,1396.902" fill="none" id="BaseCell-backto-PlayerCell" style="stroke:#181818;stroke-width:1;"/><polygon fill="none" points="2172.6,1337.192,2172.9287,1356.1628,2184.2455,1352.1714,2172.6,1337.192" style="stroke:#181818;stroke-width:1;"/></g><!--reverse link BaseCell to BoardCell--><g class="link" data-entity-1="BaseCell" data-entity-2="BoardCell" data-source-line="198" data-uid="lnk49" id="link_BaseCell_BoardCell"><path codeLine="198" d="M2130.334,1352.3573 C2115.744,1375.1773 2107.99,1387.332 2095.87,1406.312" fill="none" id="BaseCell-backto-BoardCell" style="stroke:#181818;stroke-width:1;"/><polygon fill="none" points="2140.03,1337.192,2125.2789,1349.1253,2135.3891,1355.5893,2140.03,1337.192" style="stroke:#181818;stroke-width:1;"/></g><!--reverse link PlayerCell to Server--><g class="link" data-entity-1="PlayerCell" data-entity-2="Server" data-source-line="200" data-uid="lnk51" id="link_PlayerCell_Server"><path codeLine="200" d="M2179.3355,1477.2417 C2160.8055,1496.1917 2150.52,1506.702 2133.82,1523.772" fill="none" id="PlayerCell-backto-Server" style="stroke:#181818;stroke-width:1;"/><polygon fill="none" points="2191.92,1464.372,2175.0456,1473.0469,2183.6254,1481.4366,2191.92,1464.372" style="stroke:#181818;stroke-width:1;"/></g><!--reverse link PlayerCell to Firewall--><g class="link" data-entity-1="PlayerCell" data-entity-2="Firewall" data-source-line="201" data-uid="lnk52" id="link_PlayerCell_Firewall"><path codeLine="201" d="M2224,1482.372 C2224,1501.322 2224,1506.702 2224,1523.772" fill="none" id="PlayerCell-backto-Firewall" style="stroke:#181818;stroke-width:1;"/><polygon fill="none" points="2224,1464.372,2218,1482.372,2230,1482.372,2224,1464.372" style="stroke:#181818;stroke-width:1;"/></g><!--reverse link PlayerCell to Goal--><g class="link" data-entity-1="PlayerCell" data-entity-2="Goal" data-source-line="202" data-uid="lnk53" id="link_PlayerCell_Goal"><path codeLine="202" d="M2266.607,1477.5819 C2284.147,1496.5319 2293.58,1506.702 2309.39,1523.772" fill="none" id="PlayerCell-backto-Goal" style="stroke:#181818;stroke-width:1;"/><polygon fill="none" points="2254.38,1464.372,2262.2037,1481.6575,2271.0103,1473.5062,2254.38,1464.372" style="stroke:#181818;stroke-width:1;"/></g><!--reverse link Link to VirusLink--><g class="link" data-entity-1="Link" data-entity-2="VirusLink" data-source-line="204" data-uid="lnk54" id="link_Link_VirusLink"><path codeLine="204" d="M1312.3045,1062.056 C1302.4245,1090.666 1297.92,1103.692 1291.01,1123.652" fill="none" id="Link-backto-VirusLink" style="stroke:#181818;stroke-width:1;"/><polygon fill="none" points="1318.18,1045.042,1306.6331,1060.0975,1317.9758,1064.0145,1318.18,1045.042" style="stroke:#181818;stroke-width:1;"/></g><!--reverse link Link to DataLink--><g class="link" data-entity-1="Link" data-entity-2="DataLink" data-source-line="205" data-uid="lnk55" id="link_Link_DataLink"><path codeLine="205" d="M1379.6955,1062.056 C1389.5755,1090.666 1394.08,1103.692 1400.99,1123.652" fill="none" id="Link-backto-DataLink" style="stroke:#181818;stroke-width:1;"/><polygon fill="none" points="1373.82,1045.042,1374.0242,1064.0145,1385.3669,1060.0975,1373.82,1045.042" style="stroke:#181818;stroke-width:1;"/></g><!--reverse link Link to LinkDecorator--><g class="link" data-entity-1="Link" data-entity-2="LinkDecorator" data-source-line="206" data-uid="lnk56" id="link_Link_LinkDecorator"><path codeLine="206" d="M1229.3799,1056.9478 C1201.6899,1081.3678 1187.61,1094.912 1168.13,1114.252" fill="none" id="Link-backto-LinkDecorator" style="stroke:#181818;stroke-width:1;"/><polygon fill="none" points="1242.88,1045.042,1225.4113,1052.4478,1233.3485,1061.4478,1242.88,1045.042" style="stroke:#181818;stroke-width:1;"/></g><!--reverse link LinkDecorator to Link--><g class="link" data-entity-1="LinkDecorator" data-entity-2="Link" data-source-line="223" data-uid="lnk70" id="link_LinkDecorator_Link"><path codeLine="223" d="M1198.404,1106.4556 C1222.174,1087.1456 1242.12,1069.362 1268.97,1045.042" fill="none" id="LinkDecorator-backto-Link" style="stroke:#181818;stroke-width:1;"/><polygon fill="#181818" points="1189.09,1114.022,1196.2691,1113.3435,1198.404,1106.4556,1191.2249,1107.1341,1189.09,1114.022" style="stroke:#181818;stroke-width:1;"/></g><!--reverse link LinkDecorator to LinkBoostDecorator--><g class="link" data-entity-1="LinkDecorator" data-entity-2="LinkBoostDecorator" data-source-line="208" data-uid="lnk57" id="link_LinkDecorator_LinkBoostDecorator"><path codeLine="208" d="M1149.7067,1199.3358 C1153.8167,1226.2558 1156.82,1245.932 1160.47,1269.822" fill="none" id="LinkDecorator-backto-LinkBoostDecorator" style="stroke:#181818;stroke-width:1;"/><polygon fill="none" points="1146.99,1181.542,1143.7754,1200.2413,1155.6379,1198.4302,1146.99,1181.542" style="stroke:#181818;stroke-width:1;"/></g><!--reverse link LinkDecorator to PolarizeDecorator--><g class="link" data-entity-1="LinkDecorator" data-entity-2="PolarizeDecorator" data-source-line="209" data-uid="lnk58" id="link_LinkDecorator_PolarizeDecorator"><path codeLine="209" d="M1205.76,1191.7865 C1245.6,1218.6165 1285.98,1245.812 1321.38,1269.662" fill="none" id="LinkDecorator-backto-PolarizeDecorator" style="stroke:#181818;stroke-width:1;"/><polygon fill="none" points="1190.83,1181.732,1202.4085,1196.7632,1209.1116,1186.8098,1190.83,1181.732" style="stroke:#181818;stroke-width:1;"/></g><!--reverse link LinkDecorator to RevealDecorator--><g class="link" data-entity-1="LinkDecorator" data-entity-2="RevealDecorator" data-source-line="210" data-uid="lnk59" id="link_LinkDecorator_RevealDecorator"><path codeLine="210" d="M1214.5674,1189.656 C1221.3874,1193.026 1212.2,1188.212 1219,1190.912 C1317.2,1229.862 1349.78,1214.632 1449,1250.912 C1463.47,1256.202 1478.78,1263.042 1492.49,1269.672" fill="none" id="LinkDecorator-backto-RevealDecorator" style="stroke:#181818;stroke-width:1;"/><polygon fill="none" points="1198.43,1181.682,1211.9094,1195.0351,1217.2254,1184.2769,1198.43,1181.682" style="stroke:#181818;stroke-width:1;"/></g><!--reverse link LinkDecorator to LagDecorator--><g class="link" data-entity-1="LinkDecorator" data-entity-2="LagDecorator" data-source-line="211" data-uid="lnk60" id="link_LinkDecorator_LagDecorator"><path codeLine="211" d="M1213.1245,1189.5655 C1220.3945,1193.0355 1211.63,1188.442 1219,1190.912 C1391.95,1248.872 1451.74,1193.872 1625,1250.912 C1632.53,1253.382 1640.19,1256.542 1647.64,1260.022" fill="none" id="LinkDecorator-backto-LagDecorator" style="stroke:#181818;stroke-width:1;"/><polygon fill="none" points="1196.88,1181.812,1210.5399,1194.9803,1215.709,1184.1507,1196.88,1181.812" style="stroke:#181818;stroke-width:1;"/></g><!--reverse link LinkDecorator to QuantumEntanglementDecorator--><g class="link" data-entity-1="LinkDecorator" data-entity-2="QuantumEntanglementDecorator" data-source-line="212" data-uid="lnk61" id="link_LinkDecorator_QuantumEntanglementDecorator"><path codeLine="212" d="M1212.1942,1189.414 C1219.7442,1192.994 1211.29,1188.502 1219,1190.912 C1459.6,1266.122 1535.7,1202.032 1783,1250.912 C1795.78,1253.432 1809.05,1256.572 1822.15,1260.002" fill="none" id="LinkDecorator-backto-QuantumEntanglementDecorator" style="stroke:#181818;stroke-width:1;"/><polygon fill="none" points="1195.93,1181.702,1209.6235,1194.8354,1214.7649,1183.9926,1195.93,1181.702" style="stroke:#181818;stroke-width:1;"/></g><!--reverse link Ability to FirewallAbility--><g class="link" data-entity-1="Ability" data-entity-2="FirewallAbility" data-source-line="214" data-uid="lnk62" id="link_Ability_FirewallAbility"><path codeLine="214" d="M2457.3656,990.6028 C2538.0956,1015.5828 2657.78,1055.132 2771,1104.772 C2783.52,1110.262 2796.77,1116.952 2808.77,1123.362" fill="none" id="Ability-backto-FirewallAbility" style="stroke:#181818;stroke-width:1;"/><polygon fill="none" points="2440.17,985.282,2455.592,996.3346,2459.1392,984.8709,2440.17,985.282" style="stroke:#181818;stroke-width:1;"/></g><!--reverse link Ability to DownloadAbility--><g class="link" data-entity-1="Ability" data-entity-2="DownloadAbility" data-source-line="215" data-uid="lnk63" id="link_Ability_DownloadAbility"><path codeLine="215" d="M2457.8853,980.6257 C2564.7053,1001.1957 2757.65,1042.562 2929,1104.772 C2943.35,1109.982 2958.49,1116.802 2972.05,1123.432" fill="none" id="Ability-backto-DownloadAbility" style="stroke:#181818;stroke-width:1;"/><polygon fill="none" points="2440.21,977.222,2456.7507,986.5174,2459.0198,974.7339,2440.21,977.222" style="stroke:#181818;stroke-width:1;"/></g><!--reverse link Ability to PolarizeAbility--><g class="link" data-entity-1="Ability" data-entity-2="PolarizeAbility" data-source-line="216" data-uid="lnk64" id="link_Ability_PolarizeAbility"><path codeLine="216" d="M2458.0242,972.8066 C2589.9942,986.4766 2867.75,1022.432 3103,1104.772 C3116.92,1109.642 3131.41,1116.612 3144.16,1123.472" fill="none" id="Ability-backto-PolarizeAbility" style="stroke:#181818;stroke-width:1;"/><polygon fill="none" points="2440.12,970.952,2457.406,978.7746,2458.6424,966.8385,2440.12,970.952" style="stroke:#181818;stroke-width:1;"/></g><!--reverse link Ability to ScanAbility--><g class="link" data-entity-1="Ability" data-entity-2="ScanAbility" data-source-line="217" data-uid="lnk65" id="link_Ability_ScanAbility"><path codeLine="217" d="M2285.3291,998.3809 C2219.6691,1024.8909 2135.32,1060.852 2051,1104.772 C2040.17,1110.412 2028.74,1117.072 2018.36,1123.422" fill="none" id="Ability-backto-ScanAbility" style="stroke:#181818;stroke-width:1;"/><polygon fill="none" points="2302.02,991.642,2283.0828,992.8172,2287.5754,1003.9445,2302.02,991.642" style="stroke:#181818;stroke-width:1;"/></g><!--reverse link Ability to LinkBoostAbility--><g class="link" data-entity-1="Ability" data-entity-2="LinkBoostAbility" data-source-line="218" data-uid="lnk66" id="link_Ability_LinkBoostAbility"><path codeLine="218" d="M2287.8602,1029.3339 C2242.9702,1064.3039 2200.85,1097.112 2166.96,1123.502" fill="none" id="Ability-backto-LinkBoostAbility" style="stroke:#181818;stroke-width:1;"/><polygon fill="none" points="2302.06,1018.272,2284.1729,1024.6006,2291.5475,1034.0671,2302.06,1018.272" style="stroke:#181818;stroke-width:1;"/></g><!--reverse link Ability to PappleAbility--><g class="link" data-entity-1="Ability" data-entity-2="PappleAbility" data-source-line="219" data-uid="lnk67" id="link_Ability_PappleAbility"><path codeLine="219" d="M2333.1189,1061.8153 C2321.9789,1090.4253 2316.81,1103.692 2309.03,1123.652" fill="none" id="Ability-backto-PappleAbility" style="stroke:#181818;stroke-width:1;"/><polygon fill="none" points="2339.65,1045.042,2327.5278,1059.6383,2338.71,1063.9923,2339.65,1045.042" style="stroke:#181818;stroke-width:1;"/></g><!--reverse link Ability to LagAbility--><g class="link" data-entity-1="Ability" data-entity-2="LagAbility" data-source-line="220" data-uid="lnk68" id="link_Ability_LagAbility"><path codeLine="220" d="M2408.8811,1061.8153 C2420.0211,1090.4253 2425.19,1103.692 2432.97,1123.652" fill="none" id="Ability-backto-LagAbility" style="stroke:#181818;stroke-width:1;"/><polygon fill="none" points="2402.35,1045.042,2403.29,1063.9923,2414.4722,1059.6383,2402.35,1045.042" style="stroke:#181818;stroke-width:1;"/></g><!--reverse link Ability to QuantumEntanglementAbility--><g class="link" data-entity-1="Ability" data-entity-2="QuantumEntanglementAbility" data-source-line="221" data-uid="lnk69" id="link_Ability_QuantumEntanglementAbility"><path codeLine="221" d="M2454.9042,1021.6343 C2507.6342,1057.4943 2563.19,1095.282 2604.57,1123.422" fill="none" id="Ability-backto-QuantumEntanglementAbility" style="stroke:#181818;stroke-width:1;"/><polygon fill="none" points="2440.02,1011.512,2451.5301,1026.5957,2458.2783,1016.6729,2440.02,1011.512" style="stroke:#181818;stroke-width:1;"/></g><!--reverse link View to TextView--><g class="link" data-entity-1="View" data-entity-2="TextView" data-source-line="225" data-uid="lnk71" id="link_View_TextView"><path codeLine="225" d="M3397.894,456.0597 C3396.964,514.5797 3395.75,591.302 3394.82,649.952" fill="none" id="View-backto-TextView" style="stroke:#181818;stroke-width:1;"/><polygon fill="none" points="3398.18,438.062,3391.8947,455.9644,3403.8932,456.155,3398.18,438.062" style="stroke:#181818;stroke-width:1;"/></g><!--reverse link View to GraphicalView--><g class="link" data-entity-1="View" data-entity-2="GraphicalView" data-source-line="226" data-uid="lnk72" id="link_View_GraphicalView"><path codeLine="226" d="M3447.8988,452.5447 C3491.0888,511.0647 3550.3,591.302 3593.57,649.952" fill="none" id="View-backto-GraphicalView" style="stroke:#181818;stroke-width:1;"/><polygon fill="none" points="3437.21,438.062,3443.0712,456.1076,3452.7264,448.9818,3437.21,438.062" style="stroke:#181818;stroke-width:1;"/></g><!--reverse link Controller to Game--><g class="link" data-entity-1="Controller" data-entity-2="Game" data-source-line="228" data-uid="lnk73" id="link_Controller_Game"><path codeLine="228" d="M2467.3773,173.4235 C2340.6773,220.0135 2178.99,279.472 2054.11,325.402" fill="none" id="Controller-backto-Game" style="stroke:#181818;stroke-width:1;"/><polygon fill="none" points="2478.64,169.282,2471.6282,167.5985,2467.3773,173.4235,2474.3892,175.107,2478.64,169.282" style="stroke:#181818;stroke-width:1;"/></g><!--reverse link Controller to View--><g class="link" data-entity-1="Controller" data-entity-2="View" data-source-line="229" data-uid="lnk74" id="link_Controller_View"><path codeLine="229" d="M2850.8039,122.0823 C3003.8839,135.5323 3191.39,159.332 3261,200.872 C3312.67,231.702 3351.4,289.972 3374.47,332.582" fill="none" id="Controller-backto-View" style="stroke:#181818;stroke-width:1;"/><polygon fill="none" points="2838.85,121.032,2844.4769,125.5418,2850.8039,122.0823,2845.1771,117.5725,2838.85,121.032" style="stroke:#181818;stroke-width:1;"/></g><!--link LinkFactory to Link--><g class="link" data-entity-1="LinkFactory" data-entity-2="Link" data-source-line="231" data-uid="lnk75" id="link_LinkFactory_Link"><path codeLine="231" d="M579.22,929.642 C613.03,902.792 664.48,867.382 716.5,852.362 C878.3,805.642 1063.828,851.3505 1192.698,897.9805" fill="none" id="LinkFactory-to-Link" style="stroke:#181818;stroke-width:1;stroke-dasharray:7.0,7.0;"/><polygon fill="#181818" points="1198.34,900.022,1191.238,893.1984,1193.6383,898.3207,1188.516,900.7211,1198.34,900.022" style="stroke:#181818;stroke-width:1;"/></g><!--link AbilityFactory to Ability--><g class="link" data-entity-1="AbilityFactory" data-entity-2="Ability" data-source-line="232" data-uid="lnk76" id="link_AbilityFactory_Ability"><path codeLine="232" d="M919.35,929.562 C960.73,902.652 1023.05,867.222 1083.5,852.362 C1256.57,809.822 1708.41,832.342 1885.5,852.362 C2036.3,869.412 2202.7494,913.6742 2296.1394,940.8742" fill="none" id="AbilityFactory-to-Ability" style="stroke:#181818;stroke-width:1;stroke-dasharray:7.0,7.0;"/><polygon fill="#181818" points="2301.9,942.552,2294.3776,936.1949,2297.0995,941.1538,2292.1405,943.8757,2301.9,942.552" style="stroke:#181818;stroke-width:1;"/></g><!--link LinkDecoratorFactory to LinkDecorator--><g class="link" data-entity-1="LinkDecoratorFactory" data-entity-2="LinkDecorator" data-source-line="233" data-uid="lnk77" id="link_LinkDecoratorFactory_LinkDecorator"><path codeLine="233" d="M258,997.452 C293.5,1014.082 338.74,1033.152 381,1044.772 C635.82,1114.822 946.358,1137.2828 1076.198,1143.9828" fill="none" id="LinkDecoratorFactory-to-LinkDecorator" style="stroke:#181818;stroke-width:1;stroke-dasharray:7.0,7.0;"/><polygon fill="#181818" points="1082.19,1144.292,1073.4081,1139.8335,1077.1966,1144.0343,1072.9958,1147.8229,1082.19,1144.292" style="stroke:#181818;stroke-width:1;"/></g><!--SRC=[jLVRZjis47tNLn0fq7ZTTJyWMHZ8UfkYW5EqsJHzfgLPcx14gYHjPxlDltTuatYHbQVumPRcp726S_Thibgjo0VHG4isBLKAbA5KFQsFT0_aLMUWL-Ib8lYf3GVvbNRW2OIio1bgBUJT7orz1haclVrL0you9lL9Ik3QiVp66_ZoTi3l1PKDsPdloXD_8cV16g8qbTeeMzoa08Sl-jD9yeXkJrcIFMZx524x8LfI7w0-_ituLYWLOSuWAxQ9JOnOZFa8HwOlt3DPPbPrz0WVn1aMzO5AqZ9-l2NsiM4oOrK7SKaKljknbkdd_A8d1G4nTh3cDdXRQSdu7hrD9UsK4_jQHK5oRYsYv7_kgO8DjErwxJp_jahzrU4zjdY3XVbQ-ilqbCaxjEFME6LDQY5aawgcExIBrZhOuBL4PhZpH5sVUigrUSk2BlWlN6C431HSN5uiEdLQjNDhfZo4MrmuoFBaHv1dZEjBYRnd4YuqL-chGT19ki-IKNlcFaognrf8o2Fa0xvSuvNC4mELirWdhcrKrEY-A-V7EPLhG9vtGKd45nX6lCZC1dtO2jf42P9nIFZd14hRYdX0_zMQ2JvH2zXUGEV9Dl8u6XfYEORIcaixcpfN_UxIDcbFA0ryhmzapfaRAvVxGGr09i7XieaA96ebZrvRtgEO-ipaAMX8Sia2qRKIy85gMc8JFda0p0UA6J0uvmVltXqMAYbFDk2z44hdaccYYvPAzY_CCds4Cz1sbcLBzwM5Ba0QcxtQmfCkfVuyOHyvTTWqAD-tq65BdJh5tHExfSvAF_EJJ_T1qiYwNaiuJgA8QcE63NgOMd7N7c8RHVSlv4teVch8Ou5uZPWilu_ZRx8ZfVQcUU5BT8ObX6w6vR6cV0OUKcHE2-txTau7Hdu6dOXmpetyh-qYyvd1PNgFEICIrfWivbRefOXYtr0DPS0QfioAKm9SQFRql0X3nkr14w7xXDjBeJ8G5sRVMHAxTTrSCubWJvMIDN3LjfGZdLUIzWTMqxQm8K6-ao53f3Q2QodQ5aUaZLSQhNf0qzKpaeehD5rkZFcus9Y8guZ9NMXlgZWtLvwuGRT2z6LSiMdW6YEwZl9cWOOfCp2QDszSaVw80yL2M0bmaz_oFJKMFK-dv9C3qnkQWWfIByaK94jIIq2_kmopyp2iejUppPTAUMIeeVJKCEw_VN0oKQOj7XjnK99G_OwNp7DKuLtt4LfgLWPrOBrpN6N_U2nN_Z_3-EgChIgtyre6ltbMmmegLcu8L5Mu6XByRMEIPxAcYK5LmZ7kbbMqPYPgHxrt_uL3KdiiVVea2_bbjA0FgsY1c4NK6sxVXwKXeeLT8I8b8N7oOzm6ZdGDcE8gre0ffcmDcDGMhG5J-Dp0hwgGrOclGfWJC1kFAPWDnXICHc8AvCCmEpCUWvdWC01J-lNHbmTgEQItRUjMEioKY9Iq-AgAsgd9TLjGET5nnctfvxLJbRKM90VZ9dk35nk3zJy0]--></g></svg>