<svg xmlns="http://www.w3.org/2000/svg" xmlns:xlink="http://www.w3.org/1999/xlink" contentStyleType="text/css" data-diagram-type="CLASS" height="1708px" preserveAspectRatio="none" style="width:2919px;height:1708px;background:#FFFFFF;" version="1.1" viewBox="0 0 2919 1708" width="2919px" zoomAndPan="magnify"><defs/><g><!--cluster enums--><g class="cluster" data-entity="enums" data-source-line="7" data-uid="ent0002" id="cluster_enums"><path d="M170.7,302.7 L213.6998,302.7 A3.75,3.75 0 0 1 216.1998,305.2 L223.1998,327.1799 L305.3,327.1799 A2.5,2.5 0 0 1 307.8,329.6799 L307.8,594.2 A2.5,2.5 0 0 1 305.3,596.7 L170.7,596.7 A2.5,2.5 0 0 1 168.2,594.2 L168.2,305.2 A2.5,2.5 0 0 1 170.7,302.7" fill="none" style="stroke:#000000;stroke-width:1.5;"/><line style="stroke:#000000;stroke-width:1.5;" x1="168.2" x2="223.1998" y1="327.1799" y2="327.1799"/><text fill="#000000" font-family="JetBrains Mono" font-size="14" font-weight="bold" lengthAdjust="spacing" textLength="41.9998" x="172.2" y="318.9799">enums</text></g><!--cluster model--><g class="cluster" data-entity="model" data-source-line="23" data-uid="ent0005" id="cluster_model"><path d="M500.5,351.7 L543.4998,351.7 A3.75,3.75 0 0 1 545.9998,354.2 L552.9998,376.1799 L2909.89,376.1799 A2.5,2.5 0 0 1 2912.39,378.6799 L2912.39,1491.2 A2.5,2.5 0 0 1 2909.89,1493.7 L500.5,1493.7 A2.5,2.5 0 0 1 498,1491.2 L498,354.2 A2.5,2.5 0 0 1 500.5,351.7" fill="none" style="stroke:#000000;stroke-width:1.5;"/><line style="stroke:#000000;stroke-width:1.5;" x1="498" x2="552.9998" y1="376.1799" y2="376.1799"/><text fill="#000000" font-family="JetBrains Mono" font-size="14" font-weight="bold" lengthAdjust="spacing" textLength="41.9998" x="502" y="367.9799">model</text></g><!--cluster view--><g class="cluster" data-entity="view" data-source-line="156" data-uid="ent0033" id="cluster_view"><path d="M580.3,1517.7 L614.8999,1517.7 A3.75,3.75 0 0 1 617.3999,1520.2 L624.3999,1542.1799 L1205.3,1542.1799 A2.5,2.5 0 0 1 1207.8,1544.6799 L1207.8,1699.2 A2.5,2.5 0 0 1 1205.3,1701.7 L580.3,1701.7 A2.5,2.5 0 0 1 577.8,1699.2 L577.8,1520.2 A2.5,2.5 0 0 1 580.3,1517.7" fill="none" style="stroke:#000000;stroke-width:1.5;"/><line style="stroke:#000000;stroke-width:1.5;" x1="577.8" x2="624.3999" y1="1542.1799" y2="1542.1799"/><text fill="#000000" font-family="JetBrains Mono" font-size="14" font-weight="bold" lengthAdjust="spacing" textLength="33.5999" x="581.8" y="1533.9799">view</text></g><!--cluster controller--><g class="cluster" data-entity="controller" data-source-line="171" data-uid="ent0037" id="cluster_controller"><path d="M8.5,1212.7 L93.4996,1212.7 A3.75,3.75 0 0 1 95.9996,1215.2 L102.9996,1237.1799 L467.5,1237.1799 A2.5,2.5 0 0 1 470,1239.6799 L470,1385.2 A2.5,2.5 0 0 1 467.5,1387.7 L8.5,1387.7 A2.5,2.5 0 0 1 6,1385.2 L6,1215.2 A2.5,2.5 0 0 1 8.5,1212.7" fill="none" style="stroke:#000000;stroke-width:1.5;"/><line style="stroke:#000000;stroke-width:1.5;" x1="6" x2="102.9996" y1="1237.1799" y2="1237.1799"/><text fill="#000000" font-family="JetBrains Mono" font-size="14" font-weight="bold" lengthAdjust="spacing" textLength="83.9996" x="10" y="1228.9799">controller</text></g><!--cluster factory--><g class="cluster" data-entity="factory" data-source-line="182" data-uid="ent0039" id="cluster_factory"><path d="M1308.1,6.7 L1367.8997,6.7 A3.75,3.75 0 0 1 1370.3997,9.2 L1377.3997,31.1799 L1741.89,31.1799 A2.5,2.5 0 0 1 1744.39,33.6799 L1744.39,325.2 A2.5,2.5 0 0 1 1741.89,327.7 L1308.1,327.7 A2.5,2.5 0 0 1 1305.6,325.2 L1305.6,9.2 A2.5,2.5 0 0 1 1308.1,6.7" fill="none" style="stroke:#000000;stroke-width:1.5;"/><line style="stroke:#000000;stroke-width:1.5;" x1="1305.6" x2="1377.3997" y1="31.1799" y2="31.1799"/><text fill="#000000" font-family="JetBrains Mono" font-size="14" font-weight="bold" lengthAdjust="spacing" textLength="58.7997" x="1309.6" y="22.9799">factory</text></g><!--class Direction--><g class="entity" data-entity="Direction" data-source-line="8" data-uid="ent0003" id="entity_Direction"><rect fill="#F1F1F1" height="121.9197" rx="2.5" ry="2.5" style="stroke:#181818;stroke-width:0.5;" width="107.5997" x="184.2" y="458.74"/><ellipse cx="199.2" cy="474.74" fill="#EB937F" rx="11" ry="11" style="stroke:#181818;stroke-width:1;"/><path d="M202.6688,481.24 L195.3563,481.24 L195.3563,468.5681 L202.6688,468.5681 L202.6688,470.4431 L197.4031,470.4431 L197.4031,473.7087 L202.3563,473.7087 L202.3563,475.5681 L197.4031,475.5681 L197.4031,479.365 L202.6688,479.365 L202.6688,481.24 Z " fill="#000000"/><text fill="#000000" font-family="JetBrains Mono" font-size="14" lengthAdjust="spacing" textLength="75.5997" x="213.2" y="479.78">Direction</text><line style="stroke:#181818;stroke-width:0.5;" x1="185.2" x2="290.7997" y1="490.74" y2="490.74"/><text fill="#000000" font-family="JetBrains Mono" font-size="14" lengthAdjust="spacing" textLength="41.9998" x="190.2" y="509.0199">NORTH</text><text fill="#000000" font-family="JetBrains Mono" font-size="14" lengthAdjust="spacing" textLength="41.9998" x="190.2" y="527.4998">SOUTH</text><text fill="#000000" font-family="JetBrains Mono" font-size="14" lengthAdjust="spacing" textLength="33.5999" x="190.2" y="545.9798">EAST</text><text fill="#000000" font-family="JetBrains Mono" font-size="14" lengthAdjust="spacing" textLength="33.5999" x="190.2" y="564.4597">WEST</text><line style="stroke:#181818;stroke-width:0.5;" x1="185.2" x2="290.7997" y1="572.6597" y2="572.6597"/></g><!--class LinkType--><g class="entity" data-entity="LinkType" data-source-line="15" data-uid="ent0004" id="entity_LinkType"><rect fill="#F1F1F1" height="84.9598" rx="2.5" ry="2.5" style="stroke:#181818;stroke-width:0.5;" width="99.1997" x="188.4" y="339.22"/><ellipse cx="203.4" cy="355.22" fill="#EB937F" rx="11" ry="11" style="stroke:#181818;stroke-width:1;"/><path d="M206.8688,361.72 L199.5563,361.72 L199.5563,349.0481 L206.8688,349.0481 L206.8688,350.9231 L201.6031,350.9231 L201.6031,354.1887 L206.5563,354.1887 L206.5563,356.0481 L201.6031,356.0481 L201.6031,359.845 L206.8688,359.845 L206.8688,361.72 Z " fill="#000000"/><text fill="#000000" font-family="JetBrains Mono" font-size="14" lengthAdjust="spacing" textLength="67.1997" x="217.4" y="360.26">LinkType</text><line style="stroke:#181818;stroke-width:0.5;" x1="189.4" x2="286.5997" y1="371.22" y2="371.22"/><text fill="#000000" font-family="JetBrains Mono" font-size="14" lengthAdjust="spacing" textLength="41.9998" x="194.4" y="389.4999">VIRUS</text><text fill="#000000" font-family="JetBrains Mono" font-size="14" lengthAdjust="spacing" textLength="33.5999" x="194.4" y="407.9798">DATA</text><line style="stroke:#181818;stroke-width:0.5;" x1="189.4" x2="286.5997" y1="416.1798" y2="416.1798"/></g><!--class Game--><g class="entity" data-entity="Game" data-source-line="24" data-uid="ent0006" id="entity_Game"><rect fill="#F1F1F1" height="269.759" rx="2.5" ry="2.5" style="stroke:#181818;stroke-width:0.5;" width="406.7983" x="514" y="733.82"/><ellipse cx="696.3492" cy="749.82" fill="#ADD1B2" rx="11" ry="11" style="stroke:#181818;stroke-width:1;"/><path d="M696.4586,745.3512 Q695.5367,745.3512 694.8023,745.6637 Q694.0836,745.9762 693.5836,746.57 Q693.0836,747.1481 692.8023,748.0231 Q692.5367,748.8981 692.5367,749.9919 Q692.5367,751.4294 692.9742,752.4762 Q693.4273,753.5231 694.2711,754.07 Q695.1305,754.6169 696.443,754.6169 Q697.2242,754.6169 697.9117,754.4919 Q698.6148,754.3512 699.6148,754.0387 L699.6148,755.9137 Q698.7555,756.2419 697.9898,756.3669 Q697.2398,756.4919 696.2242,756.4919 Q694.3023,756.4919 692.9898,755.695 Q691.693,754.8825 691.0367,753.4137 Q690.3805,751.9294 690.3805,749.9606 Q690.3805,748.5387 690.7711,747.3669 Q691.1773,746.1794 691.9586,745.3044 Q692.7398,744.4294 693.8805,743.9606 Q695.0211,743.4762 696.4898,743.4762 Q697.443,743.4762 698.3336,743.6794 Q699.2398,743.8669 700.1773,744.3356 L699.3492,746.1169 Q698.568,745.7419 697.9117,745.5544 Q697.2555,745.3512 696.4586,745.3512 Z " fill="#000000"/><text fill="#000000" font-family="JetBrains Mono" font-size="14" lengthAdjust="spacing" textLength="33.5999" x="716.8492" y="754.86">Game</text><line style="stroke:#181818;stroke-width:0.5;" x1="515" x2="919.7983" y1="765.82" y2="765.82"/><text fill="#000000" font-family="JetBrains Mono" font-size="14" lengthAdjust="spacing" textLength="193.1992" x="520" y="784.0999">-vector&lt;Player&gt; players</text><text fill="#000000" font-family="JetBrains Mono" font-size="14" lengthAdjust="spacing" textLength="201.5991" x="520" y="802.5798">-int currentPlayerIndex;</text><text fill="#000000" font-family="JetBrains Mono" font-size="14" lengthAdjust="spacing" textLength="100.7996" x="520" y="821.0598">-Board board</text><line style="stroke:#181818;stroke-width:0.5;" x1="515" x2="919.7983" y1="829.2597" y2="829.2597"/><text fill="#000000" font-family="JetBrains Mono" font-size="14" lengthAdjust="spacing" textLength="142.7994" x="520" y="847.5397">+void startGame()</text><text fill="#000000" font-family="JetBrains Mono" font-size="14" lengthAdjust="spacing" textLength="134.3994" x="520" y="866.0196">+void nextTurn()</text><text fill="#000000" font-family="JetBrains Mono" font-size="14" lengthAdjust="spacing" textLength="151.1993" x="520" y="884.4995">+Board* getBoard()</text><text fill="#000000" font-family="JetBrains Mono" font-size="14" lengthAdjust="spacing" textLength="167.9993" x="520" y="902.9794">+bool checkWinLoss()</text><text fill="#000000" font-family="JetBrains Mono" font-size="14" lengthAdjust="spacing" textLength="226.799" x="520" y="921.4594">+Player* getCurrentPlayer()</text><text fill="#000000" font-family="JetBrains Mono" font-size="14" lengthAdjust="spacing" textLength="235.199" x="520" y="939.9393">+int getPlayerIndex(Player*)</text><text fill="#000000" font-family="JetBrains Mono" font-size="14" lengthAdjust="spacing" textLength="293.9987" x="520" y="958.4192">+void makeMove(char link, char dir)</text><text fill="#000000" font-family="JetBrains Mono" font-size="14" lengthAdjust="spacing" textLength="268.7988" x="520" y="976.8991">+void showCurrentPlayerAbility()</text><text fill="#000000" font-family="JetBrains Mono" font-size="14" lengthAdjust="spacing" textLength="394.7983" x="520" y="995.379">+void useAbility(int id, vector&lt;string&gt; params)</text></g><!--class Board--><g class="entity" data-entity="Board" data-source-line="40" data-uid="ent0007" id="entity_Board"><rect fill="#F1F1F1" height="84.9598" rx="2.5" ry="2.5" style="stroke:#181818;stroke-width:0.5;" width="423.5982" x="1788.39" y="692.22"/><ellipse cx="1974.9392" cy="708.22" fill="#ADD1B2" rx="11" ry="11" style="stroke:#181818;stroke-width:1;"/><path d="M1975.0486,703.7512 Q1974.1267,703.7512 1973.3923,704.0637 Q1972.6736,704.3762 1972.1736,704.97 Q1971.6736,705.5481 1971.3923,706.4231 Q1971.1267,707.2981 1971.1267,708.3919 Q1971.1267,709.8294 1971.5642,710.8762 Q1972.0173,711.9231 1972.8611,712.47 Q1973.7204,713.0169 1975.0329,713.0169 Q1975.8142,713.0169 1976.5017,712.8919 Q1977.2048,712.7512 1978.2048,712.4387 L1978.2048,714.3137 Q1977.3454,714.6419 1976.5798,714.7669 Q1975.8298,714.8919 1974.8142,714.8919 Q1972.8923,714.8919 1971.5798,714.095 Q1970.2829,713.2825 1969.6267,711.8137 Q1968.9704,710.3294 1968.9704,708.3606 Q1968.9704,706.9387 1969.3611,705.7669 Q1969.7673,704.5794 1970.5486,703.7044 Q1971.3298,702.8294 1972.4704,702.3606 Q1973.6111,701.8762 1975.0798,701.8762 Q1976.0329,701.8762 1976.9236,702.0794 Q1977.8298,702.2669 1978.7673,702.7356 L1977.9392,704.5169 Q1977.1579,704.1419 1976.5017,703.9544 Q1975.8454,703.7512 1975.0486,703.7512 Z " fill="#000000"/><text fill="#000000" font-family="JetBrains Mono" font-size="14" lengthAdjust="spacing" textLength="41.9998" x="1995.4392" y="713.26">Board</text><line style="stroke:#181818;stroke-width:0.5;" x1="1789.39" x2="2210.9882" y1="724.22" y2="724.22"/><text fill="#000000" font-family="JetBrains Mono" font-size="14" lengthAdjust="spacing" textLength="268.7988" x="1794.39" y="742.4999">-vector&lt;vector&lt;BaseCell&gt;&gt; board;</text><line style="stroke:#181818;stroke-width:0.5;" x1="1789.39" x2="2210.9882" y1="750.6999" y2="750.6999"/><text fill="#000000" font-family="JetBrains Mono" font-size="14" lengthAdjust="spacing" textLength="411.5982" x="1794.39" y="768.9798">+bool moveLink(Link* link, pair&lt;int, int&gt; coords)</text></g><!--class BaseCell--><g class="entity" data-entity="BaseCell" data-source-line="46" data-uid="ent0008" id="entity_BaseCell"><rect fill="#F1F1F1" height="84.9598" rx="2.5" ry="2.5" style="stroke:#181818;stroke-width:0.5;" width="179.9993" x="2315.59" y="839.22"/><ellipse cx="2367.7398" cy="855.22" fill="#A9DCDF" rx="11" ry="11" style="stroke:#181818;stroke-width:1;"/><path d="M2371.0835,860.47 L2369.6148,856.72 L2365.1773,856.72 L2363.7398,860.47 L2361.6148,860.47 L2366.5679,847.7512 L2368.3179,847.7512 L2373.2398,860.47 L2371.0835,860.47 Z M2367.7398,851.5169 Q2367.6929,851.3606 2367.5679,851.0012 Q2367.4429,850.6419 2367.3335,850.2669 Q2367.2242,849.8762 2367.4273,849.8137 Q2367.5835,850.0012 2367.4898,850.3606 Q2367.396,850.7044 2367.3023,851.0012 Q2367.2085,851.2825 2367.1304,851.5169 L2365.896,854.8294 L2368.9742,854.8294 L2367.7398,851.5169 Z " fill="#000000"/><text fill="#000000" font-family="JetBrains Mono" font-size="14" font-style="italic" lengthAdjust="spacing" textLength="67.1997" x="2388.2398" y="860.26">BaseCell</text><line style="stroke:#181818;stroke-width:0.5;" x1="2316.59" x2="2494.5893" y1="871.22" y2="871.22"/><text fill="#000000" font-family="JetBrains Mono" font-size="14" lengthAdjust="spacing" textLength="159.5993" x="2321.59" y="889.4999">-Link* occupantLink</text><line style="stroke:#181818;stroke-width:0.5;" x1="2316.59" x2="2494.5893" y1="897.6999" y2="897.6999"/><text fill="#000000" font-family="JetBrains Mono" font-size="14" lengthAdjust="spacing" textLength="167.9993" x="2321.59" y="915.9798">+void onEnter(Link*)</text></g><!--class BoardCell--><g class="entity" data-entity="BoardCell" data-source-line="52" data-uid="ent0009" id="entity_BoardCell"><rect fill="#F1F1F1" height="48" rx="2.5" ry="2.5" style="stroke:#181818;stroke-width:0.5;" width="107.5997" x="2614.39" y="795.7"/><ellipse cx="2629.39" cy="811.7" fill="#ADD1B2" rx="11" ry="11" style="stroke:#181818;stroke-width:1;"/><path d="M2629.4994,807.2312 Q2628.5775,807.2312 2627.8431,807.5437 Q2627.1244,807.8562 2626.6244,808.45 Q2626.1244,809.0281 2625.8431,809.9031 Q2625.5775,810.7781 2625.5775,811.8719 Q2625.5775,813.3094 2626.015,814.3562 Q2626.4681,815.4031 2627.3119,815.95 Q2628.1713,816.4969 2629.4838,816.4969 Q2630.265,816.4969 2630.9525,816.3719 Q2631.6556,816.2312 2632.6556,815.9187 L2632.6556,817.7937 Q2631.7963,818.1219 2631.0306,818.2469 Q2630.2806,818.3719 2629.265,818.3719 Q2627.3431,818.3719 2626.0306,817.575 Q2624.7338,816.7625 2624.0775,815.2937 Q2623.4213,813.8094 2623.4213,811.8406 Q2623.4213,810.4187 2623.8119,809.2469 Q2624.2181,808.0594 2624.9994,807.1844 Q2625.7806,806.3094 2626.9213,805.8406 Q2628.0619,805.3562 2629.5306,805.3562 Q2630.4838,805.3562 2631.3744,805.5594 Q2632.2806,805.7469 2633.2181,806.2156 L2632.39,807.9969 Q2631.6088,807.6219 2630.9525,807.4344 Q2630.2963,807.2312 2629.4994,807.2312 Z " fill="#000000"/><text fill="#000000" font-family="JetBrains Mono" font-size="14" lengthAdjust="spacing" textLength="75.5997" x="2643.39" y="816.74">BoardCell</text><line style="stroke:#181818;stroke-width:0.5;" x1="2615.39" x2="2720.9897" y1="827.7" y2="827.7"/><line style="stroke:#181818;stroke-width:0.5;" x1="2615.39" x2="2720.9897" y1="835.7" y2="835.7"/></g><!--class PlayerCell--><g class="entity" data-entity="PlayerCell" data-source-line="55" data-uid="ent0010" id="entity_PlayerCell"><rect fill="#F1F1F1" height="84.9598" rx="2.5" ry="2.5" style="stroke:#181818;stroke-width:0.5;" width="137.9995" x="2599.19" y="878.22"/><ellipse cx="2624.0899" cy="894.22" fill="#A9DCDF" rx="11" ry="11" style="stroke:#181818;stroke-width:1;"/><path d="M2627.4337,899.47 L2625.9649,895.72 L2621.5274,895.72 L2620.0899,899.47 L2617.9649,899.47 L2622.918,886.7512 L2624.668,886.7512 L2629.5899,899.47 L2627.4337,899.47 Z M2624.0899,890.5169 Q2624.043,890.3606 2623.918,890.0012 Q2623.793,889.6419 2623.6837,889.2669 Q2623.5743,888.8762 2623.7774,888.8137 Q2623.9337,889.0012 2623.8399,889.3606 Q2623.7462,889.7044 2623.6524,890.0012 Q2623.5587,890.2825 2623.4805,890.5169 L2622.2462,893.8294 L2625.3243,893.8294 L2624.0899,890.5169 Z " fill="#000000"/><text fill="#000000" font-family="JetBrains Mono" font-size="14" font-style="italic" lengthAdjust="spacing" textLength="83.9996" x="2640.2899" y="899.26">PlayerCell</text><line style="stroke:#181818;stroke-width:0.5;" x1="2600.19" x2="2736.1895" y1="910.22" y2="910.22"/><text fill="#000000" font-family="JetBrains Mono" font-size="14" lengthAdjust="spacing" textLength="125.9995" x="2605.19" y="928.4999">#BaseCell* base</text><text fill="#000000" font-family="JetBrains Mono" font-size="14" lengthAdjust="spacing" textLength="117.5995" x="2605.19" y="946.9798">-Player* owner</text><line style="stroke:#181818;stroke-width:0.5;" x1="2600.19" x2="2736.1895" y1="955.1798" y2="955.1798"/></g><!--class Server--><g class="entity" data-entity="Server" data-source-line="60" data-uid="ent0011" id="entity_Server"><rect fill="#F1F1F1" height="48" rx="2.5" ry="2.5" style="stroke:#181818;stroke-width:0.5;" width="82.3998" x="2805.59" y="979.7"/><ellipse cx="2820.59" cy="995.7" fill="#ADD1B2" rx="11" ry="11" style="stroke:#181818;stroke-width:1;"/><path d="M2820.6994,991.2312 Q2819.7775,991.2312 2819.0431,991.5437 Q2818.3244,991.8562 2817.8244,992.45 Q2817.3244,993.0281 2817.0431,993.9031 Q2816.7775,994.7781 2816.7775,995.8719 Q2816.7775,997.3094 2817.215,998.3562 Q2817.6681,999.4031 2818.5119,999.95 Q2819.3713,1000.4969 2820.6838,1000.4969 Q2821.465,1000.4969 2822.1525,1000.3719 Q2822.8556,1000.2312 2823.8556,999.9187 L2823.8556,1001.7937 Q2822.9963,1002.1219 2822.2306,1002.2469 Q2821.4806,1002.3719 2820.465,1002.3719 Q2818.5431,1002.3719 2817.2306,1001.575 Q2815.9338,1000.7625 2815.2775,999.2937 Q2814.6213,997.8094 2814.6213,995.8406 Q2814.6213,994.4187 2815.0119,993.2469 Q2815.4181,992.0594 2816.1994,991.1844 Q2816.9806,990.3094 2818.1213,989.8406 Q2819.2619,989.3562 2820.7306,989.3562 Q2821.6838,989.3562 2822.5744,989.5594 Q2823.4806,989.7469 2824.4181,990.2156 L2823.59,991.9969 Q2822.8088,991.6219 2822.1525,991.4344 Q2821.4963,991.2312 2820.6994,991.2312 Z " fill="#000000"/><text fill="#000000" font-family="JetBrains Mono" font-size="14" lengthAdjust="spacing" textLength="50.3998" x="2834.59" y="1000.74">Server</text><line style="stroke:#181818;stroke-width:0.5;" x1="2806.59" x2="2886.9898" y1="1011.7" y2="1011.7"/><line style="stroke:#181818;stroke-width:0.5;" x1="2806.59" x2="2886.9898" y1="1019.7" y2="1019.7"/></g><!--class Firewall--><g class="entity" data-entity="Firewall" data-source-line="63" data-uid="ent0012" id="entity_Firewall"><rect fill="#F1F1F1" height="48" rx="2.5" ry="2.5" style="stroke:#181818;stroke-width:0.5;" width="99.1997" x="2797.19" y="896.7"/><ellipse cx="2812.19" cy="912.7" fill="#ADD1B2" rx="11" ry="11" style="stroke:#181818;stroke-width:1;"/><path d="M2812.2994,908.2312 Q2811.3775,908.2312 2810.6431,908.5437 Q2809.9244,908.8562 2809.4244,909.45 Q2808.9244,910.0281 2808.6431,910.9031 Q2808.3775,911.7781 2808.3775,912.8719 Q2808.3775,914.3094 2808.815,915.3562 Q2809.2681,916.4031 2810.1119,916.95 Q2810.9713,917.4969 2812.2838,917.4969 Q2813.065,917.4969 2813.7525,917.3719 Q2814.4556,917.2312 2815.4556,916.9187 L2815.4556,918.7937 Q2814.5963,919.1219 2813.8306,919.2469 Q2813.0806,919.3719 2812.065,919.3719 Q2810.1431,919.3719 2808.8306,918.575 Q2807.5338,917.7625 2806.8775,916.2937 Q2806.2213,914.8094 2806.2213,912.8406 Q2806.2213,911.4187 2806.6119,910.2469 Q2807.0181,909.0594 2807.7994,908.1844 Q2808.5806,907.3094 2809.7213,906.8406 Q2810.8619,906.3562 2812.3306,906.3562 Q2813.2838,906.3562 2814.1744,906.5594 Q2815.0806,906.7469 2816.0181,907.2156 L2815.19,908.9969 Q2814.4088,908.6219 2813.7525,908.4344 Q2813.0963,908.2312 2812.2994,908.2312 Z " fill="#000000"/><text fill="#000000" font-family="JetBrains Mono" font-size="14" lengthAdjust="spacing" textLength="67.1997" x="2826.19" y="917.74">Firewall</text><line style="stroke:#181818;stroke-width:0.5;" x1="2798.19" x2="2895.3897" y1="928.7" y2="928.7"/><line style="stroke:#181818;stroke-width:0.5;" x1="2798.19" x2="2895.3897" y1="936.7" y2="936.7"/></g><!--class Goal--><g class="entity" data-entity="Goal" data-source-line="66" data-uid="ent0013" id="entity_Goal"><rect fill="#F1F1F1" height="48" rx="2.5" ry="2.5" style="stroke:#181818;stroke-width:0.5;" width="65.5999" x="2813.99" y="813.7"/><ellipse cx="2828.99" cy="829.7" fill="#ADD1B2" rx="11" ry="11" style="stroke:#181818;stroke-width:1;"/><path d="M2829.0994,825.2312 Q2828.1775,825.2312 2827.4431,825.5437 Q2826.7244,825.8562 2826.2244,826.45 Q2825.7244,827.0281 2825.4431,827.9031 Q2825.1775,828.7781 2825.1775,829.8719 Q2825.1775,831.3094 2825.615,832.3562 Q2826.0681,833.4031 2826.9119,833.95 Q2827.7713,834.4969 2829.0838,834.4969 Q2829.865,834.4969 2830.5525,834.3719 Q2831.2556,834.2312 2832.2556,833.9187 L2832.2556,835.7937 Q2831.3963,836.1219 2830.6306,836.2469 Q2829.8806,836.3719 2828.865,836.3719 Q2826.9431,836.3719 2825.6306,835.575 Q2824.3338,834.7625 2823.6775,833.2937 Q2823.0213,831.8094 2823.0213,829.8406 Q2823.0213,828.4187 2823.4119,827.2469 Q2823.8181,826.0594 2824.5994,825.1844 Q2825.3806,824.3094 2826.5213,823.8406 Q2827.6619,823.3562 2829.1306,823.3562 Q2830.0838,823.3562 2830.9744,823.5594 Q2831.8806,823.7469 2832.8181,824.2156 L2831.99,825.9969 Q2831.2088,825.6219 2830.5525,825.4344 Q2829.8963,825.2312 2829.0994,825.2312 Z " fill="#000000"/><text fill="#000000" font-family="JetBrains Mono" font-size="14" lengthAdjust="spacing" textLength="33.5999" x="2842.99" y="834.74">Goal</text><line style="stroke:#181818;stroke-width:0.5;" x1="2814.99" x2="2878.5899" y1="845.7" y2="845.7"/><line style="stroke:#181818;stroke-width:0.5;" x1="2814.99" x2="2878.5899" y1="853.7" y2="853.7"/></g><!--class Player--><g class="entity" data-entity="Player" data-source-line="69" data-uid="ent0014" id="entity_Player"><rect fill="#F1F1F1" height="195.8394" rx="2.5" ry="2.5" style="stroke:#181818;stroke-width:0.5;" width="280.7988" x="980.8" y="770.78"/><ellipse cx="1091.7495" cy="786.78" fill="#ADD1B2" rx="11" ry="11" style="stroke:#181818;stroke-width:1;"/><path d="M1091.8589,782.3112 Q1090.937,782.3112 1090.2026,782.6237 Q1089.4839,782.9362 1088.9839,783.53 Q1088.4839,784.1081 1088.2026,784.9831 Q1087.937,785.8581 1087.937,786.9519 Q1087.937,788.3894 1088.3745,789.4362 Q1088.8276,790.4831 1089.6714,791.03 Q1090.5308,791.5769 1091.8433,791.5769 Q1092.6245,791.5769 1093.312,791.4519 Q1094.0151,791.3112 1095.0151,790.9987 L1095.0151,792.8737 Q1094.1558,793.2019 1093.3901,793.3269 Q1092.6401,793.4519 1091.6245,793.4519 Q1089.7026,793.4519 1088.3901,792.655 Q1087.0933,791.8425 1086.437,790.3737 Q1085.7808,788.8894 1085.7808,786.9206 Q1085.7808,785.4987 1086.1714,784.3269 Q1086.5776,783.1394 1087.3589,782.2644 Q1088.1401,781.3894 1089.2808,780.9206 Q1090.4214,780.4362 1091.8901,780.4362 Q1092.8433,780.4362 1093.7339,780.6394 Q1094.6401,780.8269 1095.5776,781.2956 L1094.7495,783.0769 Q1093.9683,782.7019 1093.312,782.5144 Q1092.6558,782.3112 1091.8589,782.3112 Z " fill="#000000"/><text fill="#000000" font-family="JetBrains Mono" font-size="14" lengthAdjust="spacing" textLength="50.3998" x="1112.2495" y="791.82">Player</text><line style="stroke:#181818;stroke-width:0.5;" x1="981.8" x2="1260.5988" y1="802.78" y2="802.78"/><text fill="#000000" font-family="JetBrains Mono" font-size="14" lengthAdjust="spacing" textLength="201.5991" x="986.8" y="821.0599">-pair&lt;int, int&gt; getScore</text><text fill="#000000" font-family="JetBrains Mono" font-size="14" lengthAdjust="spacing" textLength="226.799" x="986.8" y="839.5398">-vector&lt;Ability*&gt; abilities</text><text fill="#000000" font-family="JetBrains Mono" font-size="14" lengthAdjust="spacing" textLength="167.9993" x="986.8" y="858.0198">-vector&lt;Link*&gt; links</text><line style="stroke:#181818;stroke-width:0.5;" x1="981.8" x2="1260.5988" y1="866.2197" y2="866.2197"/><text fill="#000000" font-family="JetBrains Mono" font-size="14" lengthAdjust="spacing" textLength="218.399" x="986.8" y="884.4997">+pair&lt;int, int&gt; getScore()</text><text fill="#000000" font-family="JetBrains Mono" font-size="14" lengthAdjust="spacing" textLength="268.7988" x="986.8" y="902.9796">+vector&lt;Ability*&gt; getAbilities()</text><text fill="#000000" font-family="JetBrains Mono" font-size="14" lengthAdjust="spacing" textLength="218.399" x="986.8" y="921.4595">+void download(Link* link)</text><text fill="#000000" font-family="JetBrains Mono" font-size="14" lengthAdjust="spacing" textLength="235.199" x="986.8" y="939.9394">+void deleteLink(Link* link)</text><text fill="#000000" font-family="JetBrains Mono" font-size="14" lengthAdjust="spacing" textLength="209.9991" x="986.8" y="958.4194">+Link* getLink(char link)</text></g><!--class Link--><g class="entity" data-entity="Link" data-source-line="81" data-uid="ent0015" id="entity_Link"><rect fill="#F1F1F1" height="195.8394" rx="2.5" ry="2.5" style="stroke:#181818;stroke-width:0.5;" width="356.3985" x="1346.8" y="445.78"/><ellipse cx="1503.9493" cy="461.78" fill="#A9DCDF" rx="11" ry="11" style="stroke:#181818;stroke-width:1;"/><path d="M1507.2931,467.03 L1505.8243,463.28 L1501.3868,463.28 L1499.9493,467.03 L1497.8243,467.03 L1502.7774,454.3112 L1504.5274,454.3112 L1509.4493,467.03 L1507.2931,467.03 Z M1503.9493,458.0769 Q1503.9024,457.9206 1503.7774,457.5612 Q1503.6524,457.2019 1503.5431,456.8269 Q1503.4337,456.4362 1503.6368,456.3737 Q1503.7931,456.5612 1503.6993,456.9206 Q1503.6056,457.2644 1503.5118,457.5612 Q1503.4181,457.8425 1503.3399,458.0769 L1502.1056,461.3894 L1505.1837,461.3894 L1503.9493,458.0769 Z " fill="#000000"/><text fill="#000000" font-family="JetBrains Mono" font-size="14" font-style="italic" lengthAdjust="spacing" textLength="33.5999" x="1524.4493" y="466.82">Link</text><line style="stroke:#181818;stroke-width:0.5;" x1="1347.8" x2="1702.1985" y1="477.78" y2="477.78"/><text fill="#000000" font-family="JetBrains Mono" font-size="14" lengthAdjust="spacing" textLength="184.7992" x="1352.8" y="496.0599">-pair&lt;int, int&gt; coords</text><text fill="#000000" font-family="JetBrains Mono" font-size="14" lengthAdjust="spacing" textLength="109.1995" x="1352.8" y="514.5398">-int strength</text><line style="stroke:#181818;stroke-width:0.5;" x1="1347.8" x2="1702.1985" y1="522.7398" y2="522.7398"/><text fill="#000000" font-family="JetBrains Mono" font-size="14" lengthAdjust="spacing" textLength="226.799" x="1352.8" y="541.0198">+pair&lt;int, int&gt; getCoords()</text><text fill="#000000" font-family="JetBrains Mono" font-size="14" lengthAdjust="spacing" textLength="344.3985" x="1352.8" y="559.4997">+void setCoords(pair&lt;int, int&gt; newCoords)</text><text fill="#000000" font-family="JetBrains Mono" font-size="14" lengthAdjust="spacing" textLength="268.7988" x="1352.8" y="577.9796">+void requestMove(Direction dir)</text><text fill="#000000" font-family="JetBrains Mono" font-size="14" lengthAdjust="spacing" textLength="151.1993" x="1352.8" y="596.4595">+int getStrength()</text><text fill="#000000" font-family="JetBrains Mono" font-size="14" lengthAdjust="spacing" textLength="159.5993" x="1352.8" y="614.9394">+LinkType getType()</text><text fill="#000000" font-family="JetBrains Mono" font-size="14" lengthAdjust="spacing" textLength="184.7992" x="1352.8" y="633.4194">+bool getRevealState()</text></g><!--class VirusLink--><g class="entity" data-entity="VirusLink" data-source-line="93" data-uid="ent0016" id="entity_VirusLink"><rect fill="#F1F1F1" height="48" rx="2.5" ry="2.5" style="stroke:#181818;stroke-width:0.5;" width="107.5997" x="1946.39" y="489.7"/><ellipse cx="1961.39" cy="505.7" fill="#ADD1B2" rx="11" ry="11" style="stroke:#181818;stroke-width:1;"/><path d="M1961.4994,501.2312 Q1960.5775,501.2312 1959.8431,501.5437 Q1959.1244,501.8562 1958.6244,502.45 Q1958.1244,503.0281 1957.8431,503.9031 Q1957.5775,504.7781 1957.5775,505.8719 Q1957.5775,507.3094 1958.015,508.3562 Q1958.4681,509.4031 1959.3119,509.95 Q1960.1713,510.4969 1961.4838,510.4969 Q1962.265,510.4969 1962.9525,510.3719 Q1963.6556,510.2312 1964.6556,509.9187 L1964.6556,511.7937 Q1963.7963,512.1219 1963.0306,512.2469 Q1962.2806,512.3719 1961.265,512.3719 Q1959.3431,512.3719 1958.0306,511.575 Q1956.7338,510.7625 1956.0775,509.2937 Q1955.4213,507.8094 1955.4213,505.8406 Q1955.4213,504.4187 1955.8119,503.2469 Q1956.2181,502.0594 1956.9994,501.1844 Q1957.7806,500.3094 1958.9213,499.8406 Q1960.0619,499.3562 1961.5306,499.3562 Q1962.4838,499.3562 1963.3744,499.5594 Q1964.2806,499.7469 1965.2181,500.2156 L1964.39,501.9969 Q1963.6088,501.6219 1962.9525,501.4344 Q1962.2963,501.2312 1961.4994,501.2312 Z " fill="#000000"/><text fill="#000000" font-family="JetBrains Mono" font-size="14" lengthAdjust="spacing" textLength="75.5997" x="1975.39" y="510.74">VirusLink</text><line style="stroke:#181818;stroke-width:0.5;" x1="1947.39" x2="2052.9897" y1="521.7" y2="521.7"/><line style="stroke:#181818;stroke-width:0.5;" x1="1947.39" x2="2052.9897" y1="529.7" y2="529.7"/></g><!--class DataLink--><g class="entity" data-entity="DataLink" data-source-line="96" data-uid="ent0017" id="entity_DataLink"><rect fill="#F1F1F1" height="48" rx="2.5" ry="2.5" style="stroke:#181818;stroke-width:0.5;" width="99.1997" x="1950.59" y="609.7"/><ellipse cx="1965.59" cy="625.7" fill="#ADD1B2" rx="11" ry="11" style="stroke:#181818;stroke-width:1;"/><path d="M1965.6994,621.2312 Q1964.7775,621.2312 1964.0431,621.5437 Q1963.3244,621.8562 1962.8244,622.45 Q1962.3244,623.0281 1962.0431,623.9031 Q1961.7775,624.7781 1961.7775,625.8719 Q1961.7775,627.3094 1962.215,628.3562 Q1962.6681,629.4031 1963.5119,629.95 Q1964.3713,630.4969 1965.6838,630.4969 Q1966.465,630.4969 1967.1525,630.3719 Q1967.8556,630.2312 1968.8556,629.9187 L1968.8556,631.7937 Q1967.9963,632.1219 1967.2306,632.2469 Q1966.4806,632.3719 1965.465,632.3719 Q1963.5431,632.3719 1962.2306,631.575 Q1960.9338,630.7625 1960.2775,629.2937 Q1959.6213,627.8094 1959.6213,625.8406 Q1959.6213,624.4187 1960.0119,623.2469 Q1960.4181,622.0594 1961.1994,621.1844 Q1961.9806,620.3094 1963.1213,619.8406 Q1964.2619,619.3562 1965.7306,619.3562 Q1966.6838,619.3562 1967.5744,619.5594 Q1968.4806,619.7469 1969.4181,620.2156 L1968.59,621.9969 Q1967.8088,621.6219 1967.1525,621.4344 Q1966.4963,621.2312 1965.6994,621.2312 Z " fill="#000000"/><text fill="#000000" font-family="JetBrains Mono" font-size="14" lengthAdjust="spacing" textLength="67.1997" x="1979.59" y="630.74">DataLink</text><line style="stroke:#181818;stroke-width:0.5;" x1="1951.59" x2="2048.7897" y1="641.7" y2="641.7"/><line style="stroke:#181818;stroke-width:0.5;" x1="1951.59" x2="2048.7897" y1="649.7" y2="649.7"/></g><!--class LinkDecorator--><g class="entity" data-entity="LinkDecorator" data-source-line="99" data-uid="ent0018" id="entity_LinkDecorator"><rect fill="#F1F1F1" height="66.4799" rx="2.5" ry="2.5" style="stroke:#181818;stroke-width:0.5;" width="141.1995" x="1929.59" y="388.46"/><ellipse cx="1944.59" cy="404.46" fill="#A9DCDF" rx="11" ry="11" style="stroke:#181818;stroke-width:1;"/><path d="M1947.9338,409.71 L1946.465,405.96 L1942.0275,405.96 L1940.59,409.71 L1938.465,409.71 L1943.4181,396.9912 L1945.1681,396.9912 L1950.09,409.71 L1947.9338,409.71 Z M1944.59,400.7569 Q1944.5431,400.6006 1944.4181,400.2412 Q1944.2931,399.8819 1944.1838,399.5069 Q1944.0744,399.1162 1944.2775,399.0537 Q1944.4338,399.2412 1944.34,399.6006 Q1944.2463,399.9444 1944.1525,400.2412 Q1944.0588,400.5225 1943.9806,400.7569 L1942.7463,404.0694 L1945.8244,404.0694 L1944.59,400.7569 Z " fill="#000000"/><text fill="#000000" font-family="JetBrains Mono" font-size="14" font-style="italic" lengthAdjust="spacing" textLength="109.1995" x="1958.59" y="409.5">LinkDecorator</text><line style="stroke:#181818;stroke-width:0.5;" x1="1930.59" x2="2069.7895" y1="420.46" y2="420.46"/><text fill="#000000" font-family="JetBrains Mono" font-size="14" lengthAdjust="spacing" textLength="92.3996" x="1935.59" y="438.7399">#Link* base</text><line style="stroke:#181818;stroke-width:0.5;" x1="1930.59" x2="2069.7895" y1="446.9399" y2="446.9399"/></g><!--class LinkBoostDecorator--><g class="entity" data-entity="LinkBoostDecorator" data-source-line="103" data-uid="ent0019" id="entity_LinkBoostDecorator"><rect fill="#F1F1F1" height="48" rx="2.5" ry="2.5" style="stroke:#181818;stroke-width:0.5;" width="183.1993" x="2313.99" y="471.7"/><ellipse cx="2328.99" cy="487.7" fill="#ADD1B2" rx="11" ry="11" style="stroke:#181818;stroke-width:1;"/><path d="M2329.0994,483.2312 Q2328.1775,483.2312 2327.4431,483.5437 Q2326.7244,483.8562 2326.2244,484.45 Q2325.7244,485.0281 2325.4431,485.9031 Q2325.1775,486.7781 2325.1775,487.8719 Q2325.1775,489.3094 2325.615,490.3562 Q2326.0681,491.4031 2326.9119,491.95 Q2327.7713,492.4969 2329.0838,492.4969 Q2329.865,492.4969 2330.5525,492.3719 Q2331.2556,492.2312 2332.2556,491.9187 L2332.2556,493.7937 Q2331.3963,494.1219 2330.6306,494.2469 Q2329.8806,494.3719 2328.865,494.3719 Q2326.9431,494.3719 2325.6306,493.575 Q2324.3338,492.7625 2323.6775,491.2937 Q2323.0213,489.8094 2323.0213,487.8406 Q2323.0213,486.4187 2323.4119,485.2469 Q2323.8181,484.0594 2324.5994,483.1844 Q2325.3806,482.3094 2326.5213,481.8406 Q2327.6619,481.3562 2329.1306,481.3562 Q2330.0838,481.3562 2330.9744,481.5594 Q2331.8806,481.7469 2332.8181,482.2156 L2331.99,483.9969 Q2331.2088,483.6219 2330.5525,483.4344 Q2329.8963,483.2312 2329.0994,483.2312 Z " fill="#000000"/><text fill="#000000" font-family="JetBrains Mono" font-size="14" lengthAdjust="spacing" textLength="151.1993" x="2342.99" y="492.74">LinkBoostDecorator</text><line style="stroke:#181818;stroke-width:0.5;" x1="2314.99" x2="2496.1893" y1="503.7" y2="503.7"/><line style="stroke:#181818;stroke-width:0.5;" x1="2314.99" x2="2496.1893" y1="511.7" y2="511.7"/></g><!--class PolarizeDecorator--><g class="entity" data-entity="PolarizeDecorator" data-source-line="106" data-uid="ent0020" id="entity_PolarizeDecorator"><rect fill="#F1F1F1" height="48" rx="2.5" ry="2.5" style="stroke:#181818;stroke-width:0.5;" width="174.7994" x="2318.19" y="388.7"/><ellipse cx="2333.19" cy="404.7" fill="#ADD1B2" rx="11" ry="11" style="stroke:#181818;stroke-width:1;"/><path d="M2333.2994,400.2312 Q2332.3775,400.2312 2331.6431,400.5437 Q2330.9244,400.8562 2330.4244,401.45 Q2329.9244,402.0281 2329.6431,402.9031 Q2329.3775,403.7781 2329.3775,404.8719 Q2329.3775,406.3094 2329.815,407.3562 Q2330.2681,408.4031 2331.1119,408.95 Q2331.9713,409.4969 2333.2838,409.4969 Q2334.065,409.4969 2334.7525,409.3719 Q2335.4556,409.2312 2336.4556,408.9187 L2336.4556,410.7937 Q2335.5963,411.1219 2334.8306,411.2469 Q2334.0806,411.3719 2333.065,411.3719 Q2331.1431,411.3719 2329.8306,410.575 Q2328.5338,409.7625 2327.8775,408.2937 Q2327.2213,406.8094 2327.2213,404.8406 Q2327.2213,403.4187 2327.6119,402.2469 Q2328.0181,401.0594 2328.7994,400.1844 Q2329.5806,399.3094 2330.7213,398.8406 Q2331.8619,398.3562 2333.3306,398.3562 Q2334.2838,398.3562 2335.1744,398.5594 Q2336.0806,398.7469 2337.0181,399.2156 L2336.19,400.9969 Q2335.4088,400.6219 2334.7525,400.4344 Q2334.0963,400.2312 2333.2994,400.2312 Z " fill="#000000"/><text fill="#000000" font-family="JetBrains Mono" font-size="14" lengthAdjust="spacing" textLength="142.7994" x="2347.19" y="409.74">PolarizeDecorator</text><line style="stroke:#181818;stroke-width:0.5;" x1="2319.19" x2="2491.9894" y1="420.7" y2="420.7"/><line style="stroke:#181818;stroke-width:0.5;" x1="2319.19" x2="2491.9894" y1="428.7" y2="428.7"/></g><!--class RevealDecorator--><g class="entity" data-entity="RevealDecorator" data-source-line="109" data-uid="ent0021" id="entity_RevealDecorator"><rect fill="#F1F1F1" height="48" rx="2.5" ry="2.5" style="stroke:#181818;stroke-width:0.5;" width="157.9995" x="2326.59" y="756.7"/><ellipse cx="2341.59" cy="772.7" fill="#ADD1B2" rx="11" ry="11" style="stroke:#181818;stroke-width:1;"/><path d="M2341.6994,768.2312 Q2340.7775,768.2312 2340.0431,768.5437 Q2339.3244,768.8562 2338.8244,769.45 Q2338.3244,770.0281 2338.0431,770.9031 Q2337.7775,771.7781 2337.7775,772.8719 Q2337.7775,774.3094 2338.215,775.3562 Q2338.6681,776.4031 2339.5119,776.95 Q2340.3713,777.4969 2341.6838,777.4969 Q2342.465,777.4969 2343.1525,777.3719 Q2343.8556,777.2312 2344.8556,776.9187 L2344.8556,778.7937 Q2343.9963,779.1219 2343.2306,779.2469 Q2342.4806,779.3719 2341.465,779.3719 Q2339.5431,779.3719 2338.2306,778.575 Q2336.9338,777.7625 2336.2775,776.2937 Q2335.6213,774.8094 2335.6213,772.8406 Q2335.6213,771.4187 2336.0119,770.2469 Q2336.4181,769.0594 2337.1994,768.1844 Q2337.9806,767.3094 2339.1213,766.8406 Q2340.2619,766.3562 2341.7306,766.3562 Q2342.6838,766.3562 2343.5744,766.5594 Q2344.4806,766.7469 2345.4181,767.2156 L2344.59,768.9969 Q2343.8088,768.6219 2343.1525,768.4344 Q2342.4963,768.2312 2341.6994,768.2312 Z " fill="#000000"/><text fill="#000000" font-family="JetBrains Mono" font-size="14" lengthAdjust="spacing" textLength="125.9995" x="2355.59" y="777.74">RevealDecorator</text><line style="stroke:#181818;stroke-width:0.5;" x1="2327.59" x2="2483.5895" y1="788.7" y2="788.7"/><line style="stroke:#181818;stroke-width:0.5;" x1="2327.59" x2="2483.5895" y1="796.7" y2="796.7"/></g><!--class LagDecorator--><g class="entity" data-entity="LagDecorator" data-source-line="112" data-uid="ent0022" id="entity_LagDecorator"><rect fill="#F1F1F1" height="66.4799" rx="2.5" ry="2.5" style="stroke:#181818;stroke-width:0.5;" width="132.7996" x="2339.19" y="655.46"/><ellipse cx="2354.19" cy="671.46" fill="#ADD1B2" rx="11" ry="11" style="stroke:#181818;stroke-width:1;"/><path d="M2354.2994,666.9912 Q2353.3775,666.9912 2352.6431,667.3037 Q2351.9244,667.6162 2351.4244,668.21 Q2350.9244,668.7881 2350.6431,669.6631 Q2350.3775,670.5381 2350.3775,671.6319 Q2350.3775,673.0694 2350.815,674.1162 Q2351.2681,675.1631 2352.1119,675.71 Q2352.9713,676.2569 2354.2838,676.2569 Q2355.065,676.2569 2355.7525,676.1319 Q2356.4556,675.9912 2357.4556,675.6787 L2357.4556,677.5537 Q2356.5963,677.8819 2355.8306,678.0069 Q2355.0806,678.1319 2354.065,678.1319 Q2352.1431,678.1319 2350.8306,677.335 Q2349.5338,676.5225 2348.8775,675.0537 Q2348.2213,673.5694 2348.2213,671.6006 Q2348.2213,670.1787 2348.6119,669.0069 Q2349.0181,667.8194 2349.7994,666.9444 Q2350.5806,666.0694 2351.7213,665.6006 Q2352.8619,665.1162 2354.3306,665.1162 Q2355.2838,665.1162 2356.1744,665.3194 Q2357.0806,665.5069 2358.0181,665.9756 L2357.19,667.7569 Q2356.4088,667.3819 2355.7525,667.1944 Q2355.0963,666.9912 2354.2994,666.9912 Z " fill="#000000"/><text fill="#000000" font-family="JetBrains Mono" font-size="14" lengthAdjust="spacing" textLength="100.7996" x="2368.19" y="676.5">LagDecorator</text><line style="stroke:#181818;stroke-width:0.5;" x1="2340.19" x2="2470.9896" y1="687.46" y2="687.46"/><text fill="#000000" font-family="JetBrains Mono" font-size="14" lengthAdjust="spacing" textLength="117.5995" x="2345.19" y="705.7399">-int turnsLeft</text><line style="stroke:#181818;stroke-width:0.5;" x1="2340.19" x2="2470.9896" y1="713.9399" y2="713.9399"/></g><!--class QuantumEntanglementDecorator--><g class="entity" data-entity="QuantumEntanglementDecorator" data-source-line="116" data-uid="ent0023" id="entity_QuantumEntanglementDecorator"><rect fill="#F1F1F1" height="66.4799" rx="2.5" ry="2.5" style="stroke:#181818;stroke-width:0.5;" width="267.199" x="2271.99" y="554.46"/><ellipse cx="2286.99" cy="570.46" fill="#ADD1B2" rx="11" ry="11" style="stroke:#181818;stroke-width:1;"/><path d="M2287.0994,565.9912 Q2286.1775,565.9912 2285.4431,566.3037 Q2284.7244,566.6162 2284.2244,567.21 Q2283.7244,567.7881 2283.4431,568.6631 Q2283.1775,569.5381 2283.1775,570.6319 Q2283.1775,572.0694 2283.615,573.1162 Q2284.0681,574.1631 2284.9119,574.71 Q2285.7713,575.2569 2287.0838,575.2569 Q2287.865,575.2569 2288.5525,575.1319 Q2289.2556,574.9912 2290.2556,574.6787 L2290.2556,576.5537 Q2289.3963,576.8819 2288.6306,577.0069 Q2287.8806,577.1319 2286.865,577.1319 Q2284.9431,577.1319 2283.6306,576.335 Q2282.3338,575.5225 2281.6775,574.0537 Q2281.0213,572.5694 2281.0213,570.6006 Q2281.0213,569.1787 2281.4119,568.0069 Q2281.8181,566.8194 2282.5994,565.9444 Q2283.3806,565.0694 2284.5213,564.6006 Q2285.6619,564.1162 2287.1306,564.1162 Q2288.0838,564.1162 2288.9744,564.3194 Q2289.8806,564.5069 2290.8181,564.9756 L2289.99,566.7569 Q2289.2088,566.3819 2288.5525,566.1944 Q2287.8963,565.9912 2287.0994,565.9912 Z " fill="#000000"/><text fill="#000000" font-family="JetBrains Mono" font-size="14" lengthAdjust="spacing" textLength="235.199" x="2300.99" y="575.5">QuantumEntanglementDecorator</text><line style="stroke:#181818;stroke-width:0.5;" x1="2272.99" x2="2538.189" y1="586.46" y2="586.46"/><text fill="#000000" font-family="JetBrains Mono" font-size="14" lengthAdjust="spacing" textLength="117.5995" x="2277.99" y="604.7399">-Link* partner</text><line style="stroke:#181818;stroke-width:0.5;" x1="2272.99" x2="2538.189" y1="612.9399" y2="612.9399"/></g><!--class Ability--><g class="entity" data-entity="Ability" data-source-line="120" data-uid="ent0024" id="entity_Ability"><rect fill="#F1F1F1" height="158.8795" rx="2.5" ry="2.5" style="stroke:#181818;stroke-width:0.5;" width="280.7988" x="1384.6" y="1001.26"/><ellipse cx="1491.3495" cy="1017.26" fill="#A9DCDF" rx="11" ry="11" style="stroke:#181818;stroke-width:1;"/><path d="M1494.6933,1022.51 L1493.2245,1018.76 L1488.787,1018.76 L1487.3495,1022.51 L1485.2245,1022.51 L1490.1777,1009.7912 L1491.9277,1009.7912 L1496.8495,1022.51 L1494.6933,1022.51 Z M1491.3495,1013.5569 Q1491.3027,1013.4006 1491.1777,1013.0412 Q1491.0527,1012.6819 1490.9433,1012.3069 Q1490.8339,1011.9162 1491.037,1011.8537 Q1491.1933,1012.0412 1491.0995,1012.4006 Q1491.0058,1012.7444 1490.912,1013.0412 Q1490.8183,1013.3225 1490.7402,1013.5569 L1489.5058,1016.8694 L1492.5839,1016.8694 L1491.3495,1013.5569 Z " fill="#000000"/><text fill="#000000" font-family="JetBrains Mono" font-size="14" font-style="italic" lengthAdjust="spacing" textLength="58.7997" x="1511.8495" y="1022.3">Ability</text><line style="stroke:#181818;stroke-width:0.5;" x1="1385.6" x2="1664.3988" y1="1033.26" y2="1033.26"/><text fill="#000000" font-family="JetBrains Mono" font-size="14" lengthAdjust="spacing" textLength="100.7996" x="1390.6" y="1051.5399">-string name</text><text fill="#000000" font-family="JetBrains Mono" font-size="14" lengthAdjust="spacing" textLength="83.9996" x="1390.6" y="1070.0198">-bool used</text><line style="stroke:#181818;stroke-width:0.5;" x1="1385.6" x2="1664.3988" y1="1078.2198" y2="1078.2198"/><text fill="#000000" font-family="JetBrains Mono" font-size="14" lengthAdjust="spacing" textLength="268.7988" x="1390.6" y="1096.4998">+void use(vector&lt;string&gt; params)</text><text fill="#000000" font-family="JetBrains Mono" font-size="14" lengthAdjust="spacing" textLength="117.5995" x="1390.6" y="1114.9797">+bool isUsed()</text><text fill="#000000" font-family="JetBrains Mono" font-size="14" lengthAdjust="spacing" textLength="134.3994" x="1390.6" y="1133.4596">+void markUsed()</text><text fill="#000000" font-family="JetBrains Mono" font-size="14" lengthAdjust="spacing" textLength="142.7994" x="1390.6" y="1151.9395">+string getName()</text></g><!--class FirewallAbility--><g class="entity" data-entity="FirewallAbility" data-source-line="130" data-uid="ent0025" id="entity_FirewallAbility"><rect fill="#F1F1F1" height="48" rx="2.5" ry="2.5" style="stroke:#181818;stroke-width:0.5;" width="157.9995" x="1921.19" y="848.7"/><ellipse cx="1936.19" cy="864.7" fill="#ADD1B2" rx="11" ry="11" style="stroke:#181818;stroke-width:1;"/><path d="M1936.2994,860.2312 Q1935.3775,860.2312 1934.6431,860.5437 Q1933.9244,860.8562 1933.4244,861.45 Q1932.9244,862.0281 1932.6431,862.9031 Q1932.3775,863.7781 1932.3775,864.8719 Q1932.3775,866.3094 1932.815,867.3562 Q1933.2681,868.4031 1934.1119,868.95 Q1934.9713,869.4969 1936.2838,869.4969 Q1937.065,869.4969 1937.7525,869.3719 Q1938.4556,869.2312 1939.4556,868.9187 L1939.4556,870.7937 Q1938.5963,871.1219 1937.8306,871.2469 Q1937.0806,871.3719 1936.065,871.3719 Q1934.1431,871.3719 1932.8306,870.575 Q1931.5338,869.7625 1930.8775,868.2937 Q1930.2213,866.8094 1930.2213,864.8406 Q1930.2213,863.4187 1930.6119,862.2469 Q1931.0181,861.0594 1931.7994,860.1844 Q1932.5806,859.3094 1933.7213,858.8406 Q1934.8619,858.3562 1936.3306,858.3562 Q1937.2838,858.3562 1938.1744,858.5594 Q1939.0806,858.7469 1940.0181,859.2156 L1939.19,860.9969 Q1938.4088,860.6219 1937.7525,860.4344 Q1937.0963,860.2312 1936.2994,860.2312 Z " fill="#000000"/><text fill="#000000" font-family="JetBrains Mono" font-size="14" lengthAdjust="spacing" textLength="125.9995" x="1950.19" y="869.74">FirewallAbility</text><line style="stroke:#181818;stroke-width:0.5;" x1="1922.19" x2="2078.1895" y1="880.7" y2="880.7"/><line style="stroke:#181818;stroke-width:0.5;" x1="1922.19" x2="2078.1895" y1="888.7" y2="888.7"/></g><!--class DownloadAbility--><g class="entity" data-entity="DownloadAbility" data-source-line="133" data-uid="ent0026" id="entity_DownloadAbility"><rect fill="#F1F1F1" height="48" rx="2.5" ry="2.5" style="stroke:#181818;stroke-width:0.5;" width="157.9995" x="1921.19" y="1429.7"/><ellipse cx="1936.19" cy="1445.7" fill="#ADD1B2" rx="11" ry="11" style="stroke:#181818;stroke-width:1;"/><path d="M1936.2994,1441.2312 Q1935.3775,1441.2312 1934.6431,1441.5437 Q1933.9244,1441.8562 1933.4244,1442.45 Q1932.9244,1443.0281 1932.6431,1443.9031 Q1932.3775,1444.7781 1932.3775,1445.8719 Q1932.3775,1447.3094 1932.815,1448.3562 Q1933.2681,1449.4031 1934.1119,1449.95 Q1934.9713,1450.4969 1936.2838,1450.4969 Q1937.065,1450.4969 1937.7525,1450.3719 Q1938.4556,1450.2312 1939.4556,1449.9187 L1939.4556,1451.7937 Q1938.5963,1452.1219 1937.8306,1452.2469 Q1937.0806,1452.3719 1936.065,1452.3719 Q1934.1431,1452.3719 1932.8306,1451.575 Q1931.5338,1450.7625 1930.8775,1449.2937 Q1930.2213,1447.8094 1930.2213,1445.8406 Q1930.2213,1444.4187 1930.6119,1443.2469 Q1931.0181,1442.0594 1931.7994,1441.1844 Q1932.5806,1440.3094 1933.7213,1439.8406 Q1934.8619,1439.3562 1936.3306,1439.3562 Q1937.2838,1439.3562 1938.1744,1439.5594 Q1939.0806,1439.7469 1940.0181,1440.2156 L1939.19,1441.9969 Q1938.4088,1441.6219 1937.7525,1441.4344 Q1937.0963,1441.2312 1936.2994,1441.2312 Z " fill="#000000"/><text fill="#000000" font-family="JetBrains Mono" font-size="14" lengthAdjust="spacing" textLength="125.9995" x="1950.19" y="1450.74">DownloadAbility</text><line style="stroke:#181818;stroke-width:0.5;" x1="1922.19" x2="2078.1895" y1="1461.7" y2="1461.7"/><line style="stroke:#181818;stroke-width:0.5;" x1="1922.19" x2="2078.1895" y1="1469.7" y2="1469.7"/></g><!--class PolarizeAbility--><g class="entity" data-entity="PolarizeAbility" data-source-line="136" data-uid="ent0027" id="entity_PolarizeAbility"><rect fill="#F1F1F1" height="48" rx="2.5" ry="2.5" style="stroke:#181818;stroke-width:0.5;" width="157.9995" x="1921.19" y="1346.7"/><ellipse cx="1936.19" cy="1362.7" fill="#ADD1B2" rx="11" ry="11" style="stroke:#181818;stroke-width:1;"/><path d="M1936.2994,1358.2312 Q1935.3775,1358.2312 1934.6431,1358.5437 Q1933.9244,1358.8562 1933.4244,1359.45 Q1932.9244,1360.0281 1932.6431,1360.9031 Q1932.3775,1361.7781 1932.3775,1362.8719 Q1932.3775,1364.3094 1932.815,1365.3562 Q1933.2681,1366.4031 1934.1119,1366.95 Q1934.9713,1367.4969 1936.2838,1367.4969 Q1937.065,1367.4969 1937.7525,1367.3719 Q1938.4556,1367.2312 1939.4556,1366.9187 L1939.4556,1368.7937 Q1938.5963,1369.1219 1937.8306,1369.2469 Q1937.0806,1369.3719 1936.065,1369.3719 Q1934.1431,1369.3719 1932.8306,1368.575 Q1931.5338,1367.7625 1930.8775,1366.2937 Q1930.2213,1364.8094 1930.2213,1362.8406 Q1930.2213,1361.4187 1930.6119,1360.2469 Q1931.0181,1359.0594 1931.7994,1358.1844 Q1932.5806,1357.3094 1933.7213,1356.8406 Q1934.8619,1356.3562 1936.3306,1356.3562 Q1937.2838,1356.3562 1938.1744,1356.5594 Q1939.0806,1356.7469 1940.0181,1357.2156 L1939.19,1358.9969 Q1938.4088,1358.6219 1937.7525,1358.4344 Q1937.0963,1358.2312 1936.2994,1358.2312 Z " fill="#000000"/><text fill="#000000" font-family="JetBrains Mono" font-size="14" lengthAdjust="spacing" textLength="125.9995" x="1950.19" y="1367.74">PolarizeAbility</text><line style="stroke:#181818;stroke-width:0.5;" x1="1922.19" x2="2078.1895" y1="1378.7" y2="1378.7"/><line style="stroke:#181818;stroke-width:0.5;" x1="1922.19" x2="2078.1895" y1="1386.7" y2="1386.7"/></g><!--class ScanAbility--><g class="entity" data-entity="ScanAbility" data-source-line="139" data-uid="ent0028" id="entity_ScanAbility"><rect fill="#F1F1F1" height="48" rx="2.5" ry="2.5" style="stroke:#181818;stroke-width:0.5;" width="124.3996" x="1937.99" y="1263.7"/><ellipse cx="1952.99" cy="1279.7" fill="#ADD1B2" rx="11" ry="11" style="stroke:#181818;stroke-width:1;"/><path d="M1953.0994,1275.2312 Q1952.1775,1275.2312 1951.4431,1275.5437 Q1950.7244,1275.8562 1950.2244,1276.45 Q1949.7244,1277.0281 1949.4431,1277.9031 Q1949.1775,1278.7781 1949.1775,1279.8719 Q1949.1775,1281.3094 1949.615,1282.3562 Q1950.0681,1283.4031 1950.9119,1283.95 Q1951.7713,1284.4969 1953.0838,1284.4969 Q1953.865,1284.4969 1954.5525,1284.3719 Q1955.2556,1284.2312 1956.2556,1283.9187 L1956.2556,1285.7937 Q1955.3963,1286.1219 1954.6306,1286.2469 Q1953.8806,1286.3719 1952.865,1286.3719 Q1950.9431,1286.3719 1949.6306,1285.575 Q1948.3338,1284.7625 1947.6775,1283.2937 Q1947.0213,1281.8094 1947.0213,1279.8406 Q1947.0213,1278.4187 1947.4119,1277.2469 Q1947.8181,1276.0594 1948.5994,1275.1844 Q1949.3806,1274.3094 1950.5213,1273.8406 Q1951.6619,1273.3562 1953.1306,1273.3562 Q1954.0838,1273.3562 1954.9744,1273.5594 Q1955.8806,1273.7469 1956.8181,1274.2156 L1955.99,1275.9969 Q1955.2088,1275.6219 1954.5525,1275.4344 Q1953.8963,1275.2312 1953.0994,1275.2312 Z " fill="#000000"/><text fill="#000000" font-family="JetBrains Mono" font-size="14" lengthAdjust="spacing" textLength="92.3996" x="1966.99" y="1284.74">ScanAbility</text><line style="stroke:#181818;stroke-width:0.5;" x1="1938.99" x2="2061.3896" y1="1295.7" y2="1295.7"/><line style="stroke:#181818;stroke-width:0.5;" x1="1938.99" x2="2061.3896" y1="1303.7" y2="1303.7"/></g><!--class LinkBoostAbility--><g class="entity" data-entity="LinkBoostAbility" data-source-line="142" data-uid="ent0029" id="entity_LinkBoostAbility"><rect fill="#F1F1F1" height="48" rx="2.5" ry="2.5" style="stroke:#181818;stroke-width:0.5;" width="166.3994" x="1916.99" y="1180.7"/><ellipse cx="1931.99" cy="1196.7" fill="#ADD1B2" rx="11" ry="11" style="stroke:#181818;stroke-width:1;"/><path d="M1932.0994,1192.2312 Q1931.1775,1192.2312 1930.4431,1192.5437 Q1929.7244,1192.8562 1929.2244,1193.45 Q1928.7244,1194.0281 1928.4431,1194.9031 Q1928.1775,1195.7781 1928.1775,1196.8719 Q1928.1775,1198.3094 1928.615,1199.3562 Q1929.0681,1200.4031 1929.9119,1200.95 Q1930.7713,1201.4969 1932.0838,1201.4969 Q1932.865,1201.4969 1933.5525,1201.3719 Q1934.2556,1201.2312 1935.2556,1200.9187 L1935.2556,1202.7937 Q1934.3963,1203.1219 1933.6306,1203.2469 Q1932.8806,1203.3719 1931.865,1203.3719 Q1929.9431,1203.3719 1928.6306,1202.575 Q1927.3338,1201.7625 1926.6775,1200.2937 Q1926.0213,1198.8094 1926.0213,1196.8406 Q1926.0213,1195.4187 1926.4119,1194.2469 Q1926.8181,1193.0594 1927.5994,1192.1844 Q1928.3806,1191.3094 1929.5213,1190.8406 Q1930.6619,1190.3562 1932.1306,1190.3562 Q1933.0838,1190.3562 1933.9744,1190.5594 Q1934.8806,1190.7469 1935.8181,1191.2156 L1934.99,1192.9969 Q1934.2088,1192.6219 1933.5525,1192.4344 Q1932.8963,1192.2312 1932.0994,1192.2312 Z " fill="#000000"/><text fill="#000000" font-family="JetBrains Mono" font-size="14" lengthAdjust="spacing" textLength="134.3994" x="1945.99" y="1201.74">LinkBoostAbility</text><line style="stroke:#181818;stroke-width:0.5;" x1="1917.99" x2="2082.3894" y1="1212.7" y2="1212.7"/><line style="stroke:#181818;stroke-width:0.5;" x1="1917.99" x2="2082.3894" y1="1220.7" y2="1220.7"/></g><!--class PappleAbility--><g class="entity" data-entity="PappleAbility" data-source-line="145" data-uid="ent0030" id="entity_PappleAbility"><rect fill="#F1F1F1" height="48" rx="2.5" ry="2.5" style="stroke:#181818;stroke-width:0.5;" width="141.1995" x="1929.59" y="1097.7"/><ellipse cx="1944.59" cy="1113.7" fill="#ADD1B2" rx="11" ry="11" style="stroke:#181818;stroke-width:1;"/><path d="M1944.6994,1109.2312 Q1943.7775,1109.2312 1943.0431,1109.5437 Q1942.3244,1109.8562 1941.8244,1110.45 Q1941.3244,1111.0281 1941.0431,1111.9031 Q1940.7775,1112.7781 1940.7775,1113.8719 Q1940.7775,1115.3094 1941.215,1116.3562 Q1941.6681,1117.4031 1942.5119,1117.95 Q1943.3713,1118.4969 1944.6838,1118.4969 Q1945.465,1118.4969 1946.1525,1118.3719 Q1946.8556,1118.2312 1947.8556,1117.9187 L1947.8556,1119.7937 Q1946.9963,1120.1219 1946.2306,1120.2469 Q1945.4806,1120.3719 1944.465,1120.3719 Q1942.5431,1120.3719 1941.2306,1119.575 Q1939.9338,1118.7625 1939.2775,1117.2937 Q1938.6213,1115.8094 1938.6213,1113.8406 Q1938.6213,1112.4187 1939.0119,1111.2469 Q1939.4181,1110.0594 1940.1994,1109.1844 Q1940.9806,1108.3094 1942.1213,1107.8406 Q1943.2619,1107.3562 1944.7306,1107.3562 Q1945.6838,1107.3562 1946.5744,1107.5594 Q1947.4806,1107.7469 1948.4181,1108.2156 L1947.59,1109.9969 Q1946.8088,1109.6219 1946.1525,1109.4344 Q1945.4963,1109.2312 1944.6994,1109.2312 Z " fill="#000000"/><text fill="#000000" font-family="JetBrains Mono" font-size="14" lengthAdjust="spacing" textLength="109.1995" x="1958.59" y="1118.74">PappleAbility</text><line style="stroke:#181818;stroke-width:0.5;" x1="1930.59" x2="2069.7895" y1="1129.7" y2="1129.7"/><line style="stroke:#181818;stroke-width:0.5;" x1="1930.59" x2="2069.7895" y1="1137.7" y2="1137.7"/></g><!--class LagAbility--><g class="entity" data-entity="LagAbility" data-source-line="148" data-uid="ent0031" id="entity_LagAbility"><rect fill="#F1F1F1" height="48" rx="2.5" ry="2.5" style="stroke:#181818;stroke-width:0.5;" width="115.9996" x="1942.19" y="1014.7"/><ellipse cx="1957.19" cy="1030.7" fill="#ADD1B2" rx="11" ry="11" style="stroke:#181818;stroke-width:1;"/><path d="M1957.2994,1026.2312 Q1956.3775,1026.2312 1955.6431,1026.5437 Q1954.9244,1026.8562 1954.4244,1027.45 Q1953.9244,1028.0281 1953.6431,1028.9031 Q1953.3775,1029.7781 1953.3775,1030.8719 Q1953.3775,1032.3094 1953.815,1033.3562 Q1954.2681,1034.4031 1955.1119,1034.95 Q1955.9713,1035.4969 1957.2838,1035.4969 Q1958.065,1035.4969 1958.7525,1035.3719 Q1959.4556,1035.2312 1960.4556,1034.9187 L1960.4556,1036.7937 Q1959.5963,1037.1219 1958.8306,1037.2469 Q1958.0806,1037.3719 1957.065,1037.3719 Q1955.1431,1037.3719 1953.8306,1036.575 Q1952.5338,1035.7625 1951.8775,1034.2937 Q1951.2213,1032.8094 1951.2213,1030.8406 Q1951.2213,1029.4187 1951.6119,1028.2469 Q1952.0181,1027.0594 1952.7994,1026.1844 Q1953.5806,1025.3094 1954.7213,1024.8406 Q1955.8619,1024.3562 1957.3306,1024.3562 Q1958.2838,1024.3562 1959.1744,1024.5594 Q1960.0806,1024.7469 1961.0181,1025.2156 L1960.19,1026.9969 Q1959.4088,1026.6219 1958.7525,1026.4344 Q1958.0963,1026.2312 1957.2994,1026.2312 Z " fill="#000000"/><text fill="#000000" font-family="JetBrains Mono" font-size="14" lengthAdjust="spacing" textLength="83.9996" x="1971.19" y="1035.74">LagAbility</text><line style="stroke:#181818;stroke-width:0.5;" x1="1943.19" x2="2057.1896" y1="1046.7" y2="1046.7"/><line style="stroke:#181818;stroke-width:0.5;" x1="1943.19" x2="2057.1896" y1="1054.7" y2="1054.7"/></g><!--class QuantumEntanglementAbility--><g class="entity" data-entity="QuantumEntanglementAbility" data-source-line="151" data-uid="ent0032" id="entity_QuantumEntanglementAbility"><rect fill="#F1F1F1" height="48" rx="2.5" ry="2.5" style="stroke:#181818;stroke-width:0.5;" width="250.399" x="1874.99" y="931.7"/><ellipse cx="1889.99" cy="947.7" fill="#ADD1B2" rx="11" ry="11" style="stroke:#181818;stroke-width:1;"/><path d="M1890.0994,943.2312 Q1889.1775,943.2312 1888.4431,943.5437 Q1887.7244,943.8562 1887.2244,944.45 Q1886.7244,945.0281 1886.4431,945.9031 Q1886.1775,946.7781 1886.1775,947.8719 Q1886.1775,949.3094 1886.615,950.3562 Q1887.0681,951.4031 1887.9119,951.95 Q1888.7713,952.4969 1890.0838,952.4969 Q1890.865,952.4969 1891.5525,952.3719 Q1892.2556,952.2312 1893.2556,951.9187 L1893.2556,953.7937 Q1892.3963,954.1219 1891.6306,954.2469 Q1890.8806,954.3719 1889.865,954.3719 Q1887.9431,954.3719 1886.6306,953.575 Q1885.3338,952.7625 1884.6775,951.2937 Q1884.0213,949.8094 1884.0213,947.8406 Q1884.0213,946.4187 1884.4119,945.2469 Q1884.8181,944.0594 1885.5994,943.1844 Q1886.3806,942.3094 1887.5213,941.8406 Q1888.6619,941.3562 1890.1306,941.3562 Q1891.0838,941.3562 1891.9744,941.5594 Q1892.8806,941.7469 1893.8181,942.2156 L1892.99,943.9969 Q1892.2088,943.6219 1891.5525,943.4344 Q1890.8963,943.2312 1890.0994,943.2312 Z " fill="#000000"/><text fill="#000000" font-family="JetBrains Mono" font-size="14" lengthAdjust="spacing" textLength="218.399" x="1903.99" y="952.74">QuantumEntanglementAbility</text><line style="stroke:#181818;stroke-width:0.5;" x1="1875.99" x2="2124.389" y1="963.7" y2="963.7"/><line style="stroke:#181818;stroke-width:0.5;" x1="1875.99" x2="2124.389" y1="971.7" y2="971.7"/></g><!--class View--><g class="entity" data-entity="View" data-source-line="157" data-uid="ent0034" id="entity_View"><rect fill="#F1F1F1" height="103.4398" rx="2.5" ry="2.5" style="stroke:#181818;stroke-width:0.5;" width="247.199" x="593.8" y="1554.98"/><ellipse cx="696.3496" cy="1570.98" fill="#A9DCDF" rx="11" ry="11" style="stroke:#181818;stroke-width:1;"/><path d="M699.6933,1576.23 L698.2246,1572.48 L693.7871,1572.48 L692.3496,1576.23 L690.2246,1576.23 L695.1777,1563.5112 L696.9277,1563.5112 L701.8496,1576.23 L699.6933,1576.23 Z M696.3496,1567.2769 Q696.3027,1567.1206 696.1777,1566.7612 Q696.0527,1566.4019 695.9433,1566.0269 Q695.8339,1565.6362 696.0371,1565.5737 Q696.1933,1565.7612 696.0996,1566.1206 Q696.0058,1566.4644 695.9121,1566.7612 Q695.8183,1567.0425 695.7402,1567.2769 L694.5058,1570.5894 L697.5839,1570.5894 L696.3496,1567.2769 Z " fill="#000000"/><text fill="#000000" font-family="JetBrains Mono" font-size="14" font-style="italic" lengthAdjust="spacing" textLength="33.5999" x="716.8496" y="1576.02">View</text><line style="stroke:#181818;stroke-width:0.5;" x1="594.8" x2="839.999" y1="1586.98" y2="1586.98"/><line style="stroke:#181818;stroke-width:0.5;" x1="594.8" x2="839.999" y1="1594.98" y2="1594.98"/><text fill="#000000" font-family="JetBrains Mono" font-size="14" lengthAdjust="spacing" textLength="117.5995" x="599.8" y="1613.2599">-void update()</text><text fill="#000000" font-family="JetBrains Mono" font-size="14" lengthAdjust="spacing" textLength="125.9995" x="599.8" y="1631.7398">-void display()</text><text fill="#000000" font-family="JetBrains Mono" font-size="14" lengthAdjust="spacing" textLength="235.199" x="599.8" y="1650.2198">+void notify(Player* player)</text></g><!--class TextView--><g class="entity" data-entity="TextView" data-source-line="163" data-uid="ent0035" id="entity_TextView"><rect fill="#F1F1F1" height="48" rx="2.5" ry="2.5" style="stroke:#181818;stroke-width:0.5;" width="99.1997" x="1071.6" y="1637.7"/><ellipse cx="1086.6" cy="1653.7" fill="#ADD1B2" rx="11" ry="11" style="stroke:#181818;stroke-width:1;"/><path d="M1086.7094,1649.2312 Q1085.7875,1649.2312 1085.0531,1649.5437 Q1084.3344,1649.8562 1083.8344,1650.45 Q1083.3344,1651.0281 1083.0531,1651.9031 Q1082.7875,1652.7781 1082.7875,1653.8719 Q1082.7875,1655.3094 1083.225,1656.3562 Q1083.6781,1657.4031 1084.5219,1657.95 Q1085.3813,1658.4969 1086.6938,1658.4969 Q1087.475,1658.4969 1088.1625,1658.3719 Q1088.8656,1658.2312 1089.8656,1657.9187 L1089.8656,1659.7937 Q1089.0063,1660.1219 1088.2406,1660.2469 Q1087.4906,1660.3719 1086.475,1660.3719 Q1084.5531,1660.3719 1083.2406,1659.575 Q1081.9438,1658.7625 1081.2875,1657.2937 Q1080.6313,1655.8094 1080.6313,1653.8406 Q1080.6313,1652.4187 1081.0219,1651.2469 Q1081.4281,1650.0594 1082.2094,1649.1844 Q1082.9906,1648.3094 1084.1313,1647.8406 Q1085.2719,1647.3562 1086.7406,1647.3562 Q1087.6938,1647.3562 1088.5844,1647.5594 Q1089.4906,1647.7469 1090.4281,1648.2156 L1089.6,1649.9969 Q1088.8188,1649.6219 1088.1625,1649.4344 Q1087.5063,1649.2312 1086.7094,1649.2312 Z " fill="#000000"/><text fill="#000000" font-family="JetBrains Mono" font-size="14" lengthAdjust="spacing" textLength="67.1997" x="1100.6" y="1658.74">TextView</text><line style="stroke:#181818;stroke-width:0.5;" x1="1072.6" x2="1169.7997" y1="1669.7" y2="1669.7"/><line style="stroke:#181818;stroke-width:0.5;" x1="1072.6" x2="1169.7997" y1="1677.7" y2="1677.7"/></g><!--class GraphicalView--><g class="entity" data-entity="GraphicalView" data-source-line="166" data-uid="ent0036" id="entity_GraphicalView"><rect fill="#F1F1F1" height="48" rx="2.5" ry="2.5" style="stroke:#181818;stroke-width:0.5;" width="141.1995" x="1050.6" y="1554.7"/><ellipse cx="1065.6" cy="1570.7" fill="#ADD1B2" rx="11" ry="11" style="stroke:#181818;stroke-width:1;"/><path d="M1065.7094,1566.2312 Q1064.7875,1566.2312 1064.0531,1566.5437 Q1063.3344,1566.8562 1062.8344,1567.45 Q1062.3344,1568.0281 1062.0531,1568.9031 Q1061.7875,1569.7781 1061.7875,1570.8719 Q1061.7875,1572.3094 1062.225,1573.3562 Q1062.6781,1574.4031 1063.5219,1574.95 Q1064.3813,1575.4969 1065.6938,1575.4969 Q1066.475,1575.4969 1067.1625,1575.3719 Q1067.8656,1575.2312 1068.8656,1574.9187 L1068.8656,1576.7937 Q1068.0063,1577.1219 1067.2406,1577.2469 Q1066.4906,1577.3719 1065.475,1577.3719 Q1063.5531,1577.3719 1062.2406,1576.575 Q1060.9438,1575.7625 1060.2875,1574.2937 Q1059.6313,1572.8094 1059.6313,1570.8406 Q1059.6313,1569.4187 1060.0219,1568.2469 Q1060.4281,1567.0594 1061.2094,1566.1844 Q1061.9906,1565.3094 1063.1313,1564.8406 Q1064.2719,1564.3562 1065.7406,1564.3562 Q1066.6938,1564.3562 1067.5844,1564.5594 Q1068.4906,1564.7469 1069.4281,1565.2156 L1068.6,1566.9969 Q1067.8188,1566.6219 1067.1625,1566.4344 Q1066.5063,1566.2312 1065.7094,1566.2312 Z " fill="#000000"/><text fill="#000000" font-family="JetBrains Mono" font-size="14" lengthAdjust="spacing" textLength="109.1995" x="1079.6" y="1575.74">GraphicalView</text><line style="stroke:#181818;stroke-width:0.5;" x1="1051.6" x2="1190.7995" y1="1586.7" y2="1586.7"/><line style="stroke:#181818;stroke-width:0.5;" x1="1051.6" x2="1190.7995" y1="1594.7" y2="1594.7"/></g><!--class Controller--><g class="entity" data-entity="Controller" data-source-line="172" data-uid="ent0038" id="entity_Controller"><rect fill="#F1F1F1" height="121.9197" rx="2.5" ry="2.5" style="stroke:#181818;stroke-width:0.5;" width="431.9982" x="22" y="1249.74"/><ellipse cx="191.7493" cy="1265.74" fill="#ADD1B2" rx="11" ry="11" style="stroke:#181818;stroke-width:1;"/><path d="M191.8586,1261.2712 Q190.9368,1261.2712 190.2024,1261.5837 Q189.4836,1261.8962 188.9836,1262.49 Q188.4836,1263.0681 188.2024,1263.9431 Q187.9368,1264.8181 187.9368,1265.9119 Q187.9368,1267.3494 188.3743,1268.3962 Q188.8274,1269.4431 189.6711,1269.99 Q190.5305,1270.5369 191.843,1270.5369 Q192.6243,1270.5369 193.3118,1270.4119 Q194.0149,1270.2712 195.0149,1269.9587 L195.0149,1271.8337 Q194.1555,1272.1619 193.3899,1272.2869 Q192.6399,1272.4119 191.6243,1272.4119 Q189.7024,1272.4119 188.3899,1271.615 Q187.093,1270.8025 186.4368,1269.3337 Q185.7805,1267.8494 185.7805,1265.8806 Q185.7805,1264.4587 186.1711,1263.2869 Q186.5774,1262.0994 187.3586,1261.2244 Q188.1399,1260.3494 189.2805,1259.8806 Q190.4211,1259.3962 191.8899,1259.3962 Q192.843,1259.3962 193.7336,1259.5994 Q194.6399,1259.7869 195.5774,1260.2556 L194.7493,1262.0369 Q193.968,1261.6619 193.3118,1261.4744 Q192.6555,1261.2712 191.8586,1261.2712 Z " fill="#000000"/><text fill="#000000" font-family="JetBrains Mono" font-size="14" lengthAdjust="spacing" textLength="83.9996" x="212.2493" y="1270.78">Controller</text><line style="stroke:#181818;stroke-width:0.5;" x1="23" x2="452.9982" y1="1281.74" y2="1281.74"/><text fill="#000000" font-family="JetBrains Mono" font-size="14" lengthAdjust="spacing" textLength="226.799" x="28" y="1300.0199">-vector&lt;vector&lt;View&gt;&gt; views</text><text fill="#000000" font-family="JetBrains Mono" font-size="14" lengthAdjust="spacing" textLength="92.3996" x="28" y="1318.4998">-Game* game</text><line style="stroke:#181818;stroke-width:0.5;" x1="23" x2="452.9982" y1="1326.6998" y2="1326.6998"/><text fill="#000000" font-family="JetBrains Mono" font-size="14" lengthAdjust="spacing" textLength="159.5993" x="28" y="1344.9798">+void runGameLoop()</text><text fill="#000000" font-family="JetBrains Mono" font-size="14" lengthAdjust="spacing" textLength="419.9982" x="28" y="1363.4597">+void parseCommand(const std::string&amp; commandLine)</text></g><!--class LinkFactory--><g class="entity" data-entity="LinkFactory" data-source-line="183" data-uid="ent0040" id="entity_LinkFactory"><rect fill="#F1F1F1" height="66.4799" rx="2.5" ry="2.5" style="stroke:#181818;stroke-width:0.5;" width="339.5986" x="1355.2" y="245.46"/><ellipse cx="1474.5495" cy="261.46" fill="#ADD1B2" rx="11" ry="11" style="stroke:#181818;stroke-width:1;"/><path d="M1474.6589,256.9912 Q1473.737,256.9912 1473.0026,257.3037 Q1472.2839,257.6162 1471.7839,258.21 Q1471.2839,258.7881 1471.0026,259.6631 Q1470.737,260.5381 1470.737,261.6319 Q1470.737,263.0694 1471.1745,264.1162 Q1471.6276,265.1631 1472.4714,265.71 Q1473.3307,266.2569 1474.6432,266.2569 Q1475.4245,266.2569 1476.112,266.1319 Q1476.8151,265.9912 1477.8151,265.6787 L1477.8151,267.5537 Q1476.9557,267.8819 1476.1901,268.0069 Q1475.4401,268.1319 1474.4245,268.1319 Q1472.5026,268.1319 1471.1901,267.335 Q1469.8932,266.5225 1469.237,265.0537 Q1468.5807,263.5694 1468.5807,261.6006 Q1468.5807,260.1787 1468.9714,259.0069 Q1469.3776,257.8194 1470.1589,256.9444 Q1470.9401,256.0694 1472.0807,255.6006 Q1473.2214,255.1162 1474.6901,255.1162 Q1475.6432,255.1162 1476.5339,255.3194 Q1477.4401,255.5069 1478.3776,255.9756 L1477.5495,257.7569 Q1476.7682,257.3819 1476.112,257.1944 Q1475.4557,256.9912 1474.6589,256.9912 Z " fill="#000000"/><text fill="#000000" font-family="JetBrains Mono" font-size="14" lengthAdjust="spacing" textLength="92.3996" x="1495.0495" y="266.5">LinkFactory</text><line style="stroke:#181818;stroke-width:0.5;" x1="1356.2" x2="1693.7986" y1="277.46" y2="277.46"/><line style="stroke:#181818;stroke-width:0.5;" x1="1356.2" x2="1693.7986" y1="285.46" y2="285.46"/><text fill="#000000" font-family="JetBrains Mono" font-size="14" lengthAdjust="spacing" textLength="327.5986" x="1361.2" y="303.7399">+Link* createPlayerLink(Player* player)</text></g><!--class AbilityFactory--><g class="entity" data-entity="AbilityFactory" data-source-line="187" data-uid="ent0041" id="entity_AbilityFactory"><rect fill="#F1F1F1" height="66.4799" rx="2.5" ry="2.5" style="stroke:#181818;stroke-width:0.5;" width="389.9984" x="1330" y="144.46"/><ellipse cx="1461.9494" cy="160.46" fill="#ADD1B2" rx="11" ry="11" style="stroke:#181818;stroke-width:1;"/><path d="M1462.0588,155.9912 Q1461.1369,155.9912 1460.4026,156.3037 Q1459.6838,156.6162 1459.1838,157.21 Q1458.6838,157.7881 1458.4026,158.6631 Q1458.1369,159.5381 1458.1369,160.6319 Q1458.1369,162.0694 1458.5744,163.1162 Q1459.0276,164.1631 1459.8713,164.71 Q1460.7307,165.2569 1462.0432,165.2569 Q1462.8244,165.2569 1463.5119,165.1319 Q1464.2151,164.9912 1465.2151,164.6787 L1465.2151,166.5537 Q1464.3557,166.8819 1463.5901,167.0069 Q1462.8401,167.1319 1461.8244,167.1319 Q1459.9026,167.1319 1458.5901,166.335 Q1457.2932,165.5225 1456.6369,164.0537 Q1455.9807,162.5694 1455.9807,160.6006 Q1455.9807,159.1787 1456.3713,158.0069 Q1456.7776,156.8194 1457.5588,155.9444 Q1458.3401,155.0694 1459.4807,154.6006 Q1460.6213,154.1162 1462.0901,154.1162 Q1463.0432,154.1162 1463.9338,154.3194 Q1464.8401,154.5069 1465.7776,154.9756 L1464.9494,156.7569 Q1464.1682,156.3819 1463.5119,156.1944 Q1462.8557,155.9912 1462.0588,155.9912 Z " fill="#000000"/><text fill="#000000" font-family="JetBrains Mono" font-size="14" lengthAdjust="spacing" textLength="117.5995" x="1482.4494" y="165.5">AbilityFactory</text><line style="stroke:#181818;stroke-width:0.5;" x1="1331" x2="1718.9984" y1="176.46" y2="176.46"/><line style="stroke:#181818;stroke-width:0.5;" x1="1331" x2="1718.9984" y1="184.46" y2="184.46"/><text fill="#000000" font-family="JetBrains Mono" font-size="14" lengthAdjust="spacing" textLength="377.9984" x="1336" y="202.7399">+Ability* createPlayerAbility(Player* player)</text></g><!--class LinkDecoratorFactory--><g class="entity" data-entity="LinkDecoratorFactory" data-source-line="191" data-uid="ent0042" id="entity_LinkDecoratorFactory"><rect fill="#F1F1F1" height="66.4799" rx="2.5" ry="2.5" style="stroke:#181818;stroke-width:0.5;" width="406.7983" x="1321.6" y="43.46"/><ellipse cx="1436.7495" cy="59.46" fill="#ADD1B2" rx="11" ry="11" style="stroke:#181818;stroke-width:1;"/><path d="M1436.8589,54.9912 Q1435.937,54.9912 1435.2026,55.3037 Q1434.4839,55.6162 1433.9839,56.21 Q1433.4839,56.7881 1433.2026,57.6631 Q1432.937,58.5381 1432.937,59.6319 Q1432.937,61.0694 1433.3745,62.1162 Q1433.8276,63.1631 1434.6714,63.71 Q1435.5308,64.2569 1436.8433,64.2569 Q1437.6245,64.2569 1438.312,64.1319 Q1439.0151,63.9912 1440.0151,63.6787 L1440.0151,65.5537 Q1439.1558,65.8819 1438.3901,66.0069 Q1437.6401,66.1319 1436.6245,66.1319 Q1434.7026,66.1319 1433.3901,65.335 Q1432.0933,64.5225 1431.437,63.0537 Q1430.7808,61.5694 1430.7808,59.6006 Q1430.7808,58.1787 1431.1714,57.0069 Q1431.5776,55.8194 1432.3589,54.9444 Q1433.1401,54.0694 1434.2808,53.6006 Q1435.4214,53.1162 1436.8901,53.1162 Q1437.8433,53.1162 1438.7339,53.3194 Q1439.6401,53.5069 1440.5776,53.9756 L1439.7495,55.7569 Q1438.9683,55.3819 1438.312,55.1944 Q1437.6558,54.9912 1436.8589,54.9912 Z " fill="#000000"/><text fill="#000000" font-family="JetBrains Mono" font-size="14" lengthAdjust="spacing" textLength="167.9993" x="1457.2495" y="64.5">LinkDecoratorFactory</text><line style="stroke:#181818;stroke-width:0.5;" x1="1322.6" x2="1727.3983" y1="75.46" y2="75.46"/><line style="stroke:#181818;stroke-width:0.5;" x1="1322.6" x2="1727.3983" y1="83.46" y2="83.46"/><text fill="#000000" font-family="JetBrains Mono" font-size="14" lengthAdjust="spacing" textLength="394.7983" x="1327.6" y="101.7399">+LinkDecorator* createLinkDecorator(Link* link)</text></g><!--reverse link Game to Board--><g class="link" data-entity-1="Game" data-entity-2="Board" data-source-line="199" data-uid="lnk43" id="link_Game_Board"><path codeLine="199" d="M932.3318,766.8294 C952.2018,760.0194 961,758.04 980.8,753.7 C1254.79,693.62 1580.24,700.7 1788.18,714.78" fill="none" id="Game-backto-Board" style="stroke:#181818;stroke-width:1;"/><polygon fill="#181818" points="920.98,770.72,927.9528,772.5586,932.3318,766.8294,925.359,764.9908,920.98,770.72" style="stroke:#181818;stroke-width:1;"/></g><!--reverse link Game to Player--><g class="link" data-entity-1="Game" data-entity-2="Player" data-source-line="200" data-uid="lnk44" id="link_Game_Player"><path codeLine="200" d="M933.06,868.7 C953.15,868.7 961.22,868.7 980.45,868.7" fill="none" id="Game-backto-Player" style="stroke:#181818;stroke-width:1;"/><polygon fill="#181818" points="921.06,868.7,927.06,872.7,933.06,868.7,927.06,864.7,921.06,868.7" style="stroke:#181818;stroke-width:1;"/></g><!--reverse link Board to BaseCell--><g class="link" data-entity-1="Board" data-entity-2="BaseCell" data-source-line="202" data-uid="lnk45" id="link_Board_BaseCell"><path codeLine="202" d="M2148.2742,781.3947 C2173.3542,789.7547 2187.85,794.87 2211.99,803.7 C2246.04,816.15 2283.04,830.85 2315.43,844.11" fill="none" id="Board-backto-BaseCell" style="stroke:#181818;stroke-width:1;"/><polygon fill="#181818" points="2136.89,777.6,2141.3172,783.2921,2148.2742,781.3947,2143.847,775.7026,2136.89,777.6" style="stroke:#181818;stroke-width:1;"/></g><!--reverse link BaseCell to Link--><g class="link" data-entity-1="BaseCell" data-entity-2="Link" data-source-line="203" data-uid="lnk46" id="link_BaseCell_Link"><path codeLine="203" d="M2304.6947,849.9282 C2288.4247,841.6882 2283.64,836.44 2271.99,822.7 C2203.4,741.79 2293.58,659.49 2211.99,591.7 C2202.24,583.6 1903.37,565.11 1703.37,553.59" fill="none" id="BaseCell-backto-Link" style="stroke:#181818;stroke-width:1;"/><polygon fill="none" points="2315.4,855.35,2311.8546,849.0707,2304.6947,849.9282,2308.2401,856.2076,2315.4,855.35" style="stroke:#181818;stroke-width:1;"/></g><!--reverse link Player to Ability--><g class="link" data-entity-1="Player" data-entity-2="Ability" data-source-line="205" data-uid="lnk47" id="link_Player_Ability"><path codeLine="205" d="M1272.4933,947.9997 C1312.1433,968.9197 1344.7,986.1 1384.34,1007.02" fill="none" id="Player-backto-Ability" style="stroke:#181818;stroke-width:1;"/><polygon fill="#181818" points="1261.88,942.4,1265.3201,948.7376,1272.4933,947.9997,1269.0533,941.6621,1261.88,942.4" style="stroke:#181818;stroke-width:1;"/></g><!--reverse link Player to Link--><g class="link" data-entity-1="Player" data-entity-2="Link" data-source-line="206" data-uid="lnk48" id="link_Player_Link"><path codeLine="206" d="M1253.1697,762.763 C1303.4097,722.123 1352.19,682.67 1402.42,642.04" fill="none" id="Player-backto-Link" style="stroke:#181818;stroke-width:1;"/><polygon fill="#181818" points="1243.84,770.31,1251.0205,769.6464,1253.1697,762.763,1245.9892,763.4266,1243.84,770.31" style="stroke:#181818;stroke-width:1;"/></g><!--reverse link Link to Board--><g class="link" data-entity-1="Link" data-entity-2="Board" data-source-line="208" data-uid="lnk49" id="link_Link_Board"><path codeLine="208" d="M1714.3578,643.9118 C1742.3578,657.2218 1760.46,664.88 1788.39,675.7 C1803.01,681.36 1818.39,686.73 1833.91,691.75" fill="none" id="Link-backto-Board" style="stroke:#181818;stroke-width:1;"/><polygon fill="none" points="1703.52,638.76,1707.2216,644.9485,1714.3578,643.9118,1710.6562,637.7233,1703.52,638.76" style="stroke:#181818;stroke-width:1;"/></g><!--reverse link Player to PlayerCell--><g class="link" data-entity-1="Player" data-entity-2="PlayerCell" data-source-line="210" data-uid="lnk50" id="link_Player_PlayerCell"><path codeLine="210" d="M1273.8714,854.3906 C1549.6814,829.4806 2132.44,783.27 2211.99,830.7 C2260.16,859.42 2223.82,912.98 2271.99,941.7 C2372.91,1001.87 2515.34,972.28 2598.79,946.01" fill="none" id="Player-backto-PlayerCell" style="stroke:#181818;stroke-width:1;"/><polygon fill="#181818" points="1261.92,855.47,1268.2555,858.9141,1273.8714,854.3906,1267.5359,850.9465,1261.92,855.47" style="stroke:#181818;stroke-width:1;"/></g><!--reverse link PlayerCell to BaseCell--><g class="link" data-entity-1="PlayerCell" data-entity-2="BaseCell" data-source-line="211" data-uid="lnk51" id="link_PlayerCell_BaseCell"><path codeLine="211" d="M2587.2115,896.4445 C2555.7015,890.1645 2529.65,886.58 2495.91,882.54" fill="none" id="PlayerCell-backto-BaseCell" style="stroke:#181818;stroke-width:1;"/><polygon fill="#181818" points="2598.98,898.79,2593.8776,893.6944,2587.2115,896.4445,2592.3139,901.5401,2598.98,898.79" style="stroke:#181818;stroke-width:1;"/></g><!--reverse link BaseCell to PlayerCell--><g class="link" data-entity-1="BaseCell" data-entity-2="PlayerCell" data-source-line="214" data-uid="lnk53" id="link_BaseCell_PlayerCell"><path codeLine="214" d="M2513.6265,910.782 C2547.3665,916.842 2567.47,919.04 2598.98,922.19" fill="none" id="BaseCell-backto-PlayerCell" style="stroke:#181818;stroke-width:1;"/><polygon fill="none" points="2495.91,907.6,2512.5658,916.6875,2514.6872,904.8765,2495.91,907.6" style="stroke:#181818;stroke-width:1;"/></g><!--reverse link BaseCell to BoardCell--><g class="link" data-entity-1="BaseCell" data-entity-2="BoardCell" data-source-line="213" data-uid="lnk52" id="link_BaseCell_BoardCell"><path codeLine="213" d="M2513.4212,856.2836 C2552.7612,846.9236 2580.14,840.41 2614.09,832.33" fill="none" id="BaseCell-backto-BoardCell" style="stroke:#181818;stroke-width:1;"/><polygon fill="none" points="2495.91,860.45,2514.81,862.1207,2512.0324,850.4466,2495.91,860.45" style="stroke:#181818;stroke-width:1;"/></g><!--reverse link PlayerCell to Server--><g class="link" data-entity-1="PlayerCell" data-entity-2="Server" data-source-line="215" data-uid="lnk54" id="link_PlayerCell_Server"><path codeLine="215" d="M2753.7585,960.4506 C2776.6585,971.2206 2785.18,975.21 2805.26,984.65" fill="none" id="PlayerCell-backto-Server" style="stroke:#181818;stroke-width:1;"/><polygon fill="none" points="2737.47,952.79,2751.205,965.8801,2756.312,955.0211,2737.47,952.79" style="stroke:#181818;stroke-width:1;"/></g><!--reverse link PlayerCell to Firewall--><g class="link" data-entity-1="PlayerCell" data-entity-2="Firewall" data-source-line="216" data-uid="lnk55" id="link_PlayerCell_Firewall"><path codeLine="216" d="M2755.47,920.7 C2775.27,920.7 2778.49,920.7 2796.85,920.7" fill="none" id="PlayerCell-backto-Firewall" style="stroke:#181818;stroke-width:1;"/><polygon fill="none" points="2737.47,920.7,2755.47,926.7,2755.47,914.7,2737.47,920.7" style="stroke:#181818;stroke-width:1;"/></g><!--reverse link PlayerCell to Goal--><g class="link" data-entity-1="PlayerCell" data-entity-2="Goal" data-source-line="217" data-uid="lnk56" id="link_PlayerCell_Goal"><path codeLine="217" d="M2753.759,880.9504 C2779.959,868.6304 2792.37,862.81 2813.63,852.81" fill="none" id="PlayerCell-backto-Goal" style="stroke:#181818;stroke-width:1;"/><polygon fill="none" points="2737.47,888.61,2756.3122,886.3801,2751.2058,875.5208,2737.47,888.61" style="stroke:#181818;stroke-width:1;"/></g><!--reverse link Link to VirusLink--><g class="link" data-entity-1="Link" data-entity-2="VirusLink" data-source-line="219" data-uid="lnk57" id="link_Link_VirusLink"><path codeLine="219" d="M1721.5039,531.3011 C1807.7839,525.8311 1887.3,520.79 1945.95,517.08" fill="none" id="Link-backto-VirusLink" style="stroke:#181818;stroke-width:1;"/><polygon fill="none" points="1703.54,532.44,1721.8836,537.2891,1721.1243,525.3131,1703.54,532.44" style="stroke:#181818;stroke-width:1;"/></g><!--reverse link Link to DataLink--><g class="link" data-entity-1="Link" data-entity-2="DataLink" data-source-line="220" data-uid="lnk58" id="link_Link_DataLink"><path codeLine="220" d="M1721.223,580.8333 C1809.603,597.6433 1892.04,613.32 1950.16,624.37" fill="none" id="Link-backto-DataLink" style="stroke:#181818;stroke-width:1;"/><polygon fill="none" points="1703.54,577.47,1720.1019,586.7276,1722.3441,574.939,1703.54,577.47" style="stroke:#181818;stroke-width:1;"/></g><!--reverse link Link to LinkDecorator--><g class="link" data-entity-1="Link" data-entity-2="LinkDecorator" data-source-line="221" data-uid="lnk59" id="link_Link_LinkDecorator"><path codeLine="221" d="M1721.0319,506.7664 C1749.3419,499.3464 1760.93,496.22 1788.39,489.2 C1835.22,477.23 1888.15,464.68 1929.26,452.93" fill="none" id="Link-backto-LinkDecorator" style="stroke:#181818;stroke-width:1;"/><polygon fill="none" points="1703.62,511.33,1722.5531,512.5703,1719.5107,500.9624,1703.62,511.33" style="stroke:#181818;stroke-width:1;"/></g><!--reverse link LinkDecorator to Link--><g class="link" data-entity-1="LinkDecorator" data-entity-2="Link" data-source-line="238" data-uid="lnk73" id="link_LinkDecorator_Link"><path codeLine="238" d="M1917.4458,424.4636 C1876.3358,431.7836 1835.22,442.23 1788.39,454.2 C1760.93,461.22 1731.93,468.91 1703.62,476.78" fill="none" id="LinkDecorator-backto-Link" style="stroke:#181818;stroke-width:1;"/><polygon fill="#181818" points="1929.26,422.36,1922.6517,419.4737,1917.4458,424.4636,1924.0541,427.3499,1929.26,422.36" style="stroke:#181818;stroke-width:1;"/></g><!--reverse link LinkDecorator to LinkBoostDecorator--><g class="link" data-entity-1="LinkDecorator" data-entity-2="LinkBoostDecorator" data-source-line="223" data-uid="lnk60" id="link_LinkDecorator_LinkBoostDecorator"><path codeLine="223" d="M2088.7049,437.7559 C2155.9049,450.0759 2240.18,465.54 2313.69,479.03" fill="none" id="LinkDecorator-backto-LinkBoostDecorator" style="stroke:#181818;stroke-width:1;"/><polygon fill="none" points="2071,434.51,2087.623,443.6575,2089.7869,431.8542,2071,434.51" style="stroke:#181818;stroke-width:1;"/></g><!--reverse link LinkDecorator to PolarizeDecorator--><g class="link" data-entity-1="LinkDecorator" data-entity-2="PolarizeDecorator" data-source-line="224" data-uid="lnk61" id="link_LinkDecorator_PolarizeDecorator"><path codeLine="224" d="M2088.9956,419.7403 C2157.4356,418.2203 2243.96,416.28 2317.73,414.64" fill="none" id="LinkDecorator-backto-PolarizeDecorator" style="stroke:#181818;stroke-width:1;"/><polygon fill="none" points="2071,420.14,2089.1288,425.7388,2088.8623,413.7418,2071,420.14" style="stroke:#181818;stroke-width:1;"/></g><!--reverse link LinkDecorator to RevealDecorator--><g class="link" data-entity-1="LinkDecorator" data-entity-2="RevealDecorator" data-source-line="225" data-uid="lnk62" id="link_LinkDecorator_RevealDecorator"><path codeLine="225" d="M2089.2342,421.3849 C2135.2942,424.2949 2175.59,434.83 2211.99,471.7 C2297.75,558.55 2189.19,650.02 2271.99,739.7 C2286.21,755.1 2306.08,764.77 2326.12,770.82" fill="none" id="LinkDecorator-backto-RevealDecorator" style="stroke:#181818;stroke-width:1;"/><polygon fill="none" points="2071.27,420.25,2088.8559,427.373,2089.6125,415.3969,2071.27,420.25" style="stroke:#181818;stroke-width:1;"/></g><!--reverse link LinkDecorator to LagDecorator--><g class="link" data-entity-1="LinkDecorator" data-entity-2="LagDecorator" data-source-line="226" data-uid="lnk63" id="link_LinkDecorator_LagDecorator"><path codeLine="226" d="M2089.0304,423.3136 C2134.2604,427.0036 2173.71,437.49 2211.99,471.7 C2270.79,524.26 2216.66,582.5 2271.99,638.7 C2289.94,656.93 2315.19,668.6 2338.85,676.04" fill="none" id="LinkDecorator-backto-LagDecorator" style="stroke:#181818;stroke-width:1;"/><polygon fill="none" points="2071.09,421.85,2088.5425,429.2937,2089.5183,417.3335,2071.09,421.85" style="stroke:#181818;stroke-width:1;"/></g><!--reverse link LinkDecorator to QuantumEntanglementDecorator--><g class="link" data-entity-1="LinkDecorator" data-entity-2="QuantumEntanglementDecorator" data-source-line="227" data-uid="lnk64" id="link_LinkDecorator_QuantumEntanglementDecorator"><path codeLine="227" d="M2088.8873,430.2583 C2131.9273,436.4383 2169.07,446.38 2211.99,471.7 C2246.14,491.84 2239.2,515.42 2271.99,537.7 C2280.84,543.71 2290.52,549.13 2300.48,553.97" fill="none" id="LinkDecorator-backto-QuantumEntanglementDecorator" style="stroke:#181818;stroke-width:1;"/><polygon fill="none" points="2071.07,427.7,2088.0345,436.1974,2089.74,424.3192,2071.07,427.7" style="stroke:#181818;stroke-width:1;"/></g><!--reverse link Ability to FirewallAbility--><g class="link" data-entity-1="Ability" data-entity-2="FirewallAbility" data-source-line="229" data-uid="lnk65" id="link_Ability_FirewallAbility"><path codeLine="229" d="M1646.0244,990.8086 C1692.1344,959.3186 1733.34,935.65 1788.39,913.7 C1830.56,896.89 1880.29,886.79 1920.87,880.83" fill="none" id="Ability-backto-FirewallAbility" style="stroke:#181818;stroke-width:1;"/><polygon fill="none" points="1631.16,1000.96,1649.4082,995.7634,1642.6406,985.8538,1631.16,1000.96" style="stroke:#181818;stroke-width:1;"/></g><!--reverse link Ability to DownloadAbility--><g class="link" data-entity-1="Ability" data-entity-2="DownloadAbility" data-source-line="230" data-uid="lnk66" id="link_Ability_DownloadAbility"><path codeLine="230" d="M1575.7785,1175.9509 C1619.7485,1253.1509 1688.16,1351.65 1788.39,1412.7 C1828.04,1436.84 1878.98,1447.2 1920.85,1451.47" fill="none" id="Ability-backto-DownloadAbility" style="stroke:#181818;stroke-width:1;"/><polygon fill="none" points="1566.87,1160.31,1570.5648,1178.9204,1580.9921,1172.9815,1566.87,1160.31" style="stroke:#181818;stroke-width:1;"/></g><!--reverse link Ability to PolarizeAbility--><g class="link" data-entity-1="Ability" data-entity-2="PolarizeAbility" data-source-line="231" data-uid="lnk67" id="link_Ability_PolarizeAbility"><path codeLine="231" d="M1600.3493,1174.1878 C1648.8093,1230.3478 1709.11,1288.86 1788.39,1329.7 C1829.24,1350.74 1879.62,1361.03 1920.88,1366.03" fill="none" id="Ability-backto-PolarizeAbility" style="stroke:#181818;stroke-width:1;"/><polygon fill="none" points="1588.59,1160.56,1595.8067,1178.1076,1604.892,1170.268,1588.59,1160.56" style="stroke:#181818;stroke-width:1;"/></g><!--reverse link Ability to ScanAbility--><g class="link" data-entity-1="Ability" data-entity-2="ScanAbility" data-source-line="232" data-uid="lnk68" id="link_Ability_ScanAbility"><path codeLine="232" d="M1647.0741,1170.6829 C1693.0141,1201.7929 1733.79,1225.01 1788.39,1246.7 C1836.56,1265.83 1894.56,1276.27 1937.53,1281.82" fill="none" id="Ability-backto-ScanAbility" style="stroke:#181818;stroke-width:1;"/><polygon fill="none" points="1632.17,1160.59,1643.7098,1175.6509,1650.4384,1165.7148,1632.17,1160.59" style="stroke:#181818;stroke-width:1;"/></g><!--reverse link Ability to LinkBoostAbility--><g class="link" data-entity-1="Ability" data-entity-2="LinkBoostAbility" data-source-line="233" data-uid="lnk69" id="link_Ability_LinkBoostAbility"><path codeLine="233" d="M1682.9085,1133.5993 C1722.3085,1146.0893 1748.23,1153.48 1788.39,1163.7 C1830.31,1174.37 1877.52,1183.79 1916.62,1190.9" fill="none" id="Ability-backto-LinkBoostAbility" style="stroke:#181818;stroke-width:1;"/><polygon fill="none" points="1665.75,1128.16,1681.0954,1139.3188,1684.7216,1127.8798,1665.75,1128.16" style="stroke:#181818;stroke-width:1;"/></g><!--reverse link Ability to PappleAbility--><g class="link" data-entity-1="Ability" data-entity-2="PappleAbility" data-source-line="234" data-uid="lnk70" id="link_Ability_PappleAbility"><path codeLine="234" d="M1683.6628,1094.3637 C1770.3428,1101.8737 1860.05,1109.64 1929.18,1115.63" fill="none" id="Ability-backto-PappleAbility" style="stroke:#181818;stroke-width:1;"/><polygon fill="none" points="1665.73,1092.81,1683.1449,1100.3413,1684.1807,1088.3861,1665.73,1092.81" style="stroke:#181818;stroke-width:1;"/></g><!--reverse link Ability to LagAbility--><g class="link" data-entity-1="Ability" data-entity-2="LagAbility" data-source-line="235" data-uid="lnk71" id="link_Ability_LagAbility"><path codeLine="235" d="M1683.6595,1066.7081 C1775.7895,1058.5281 1873.67,1049.84 1941.75,1043.8" fill="none" id="Ability-backto-LagAbility" style="stroke:#181818;stroke-width:1;"/><polygon fill="none" points="1665.73,1068.3,1684.1901,1072.6846,1683.1288,1060.7316,1665.73,1068.3" style="stroke:#181818;stroke-width:1;"/></g><!--reverse link Ability to QuantumEntanglementAbility--><g class="link" data-entity-1="Ability" data-entity-2="QuantumEntanglementAbility" data-source-line="236" data-uid="lnk72" id="link_Ability_QuantumEntanglementAbility"><path codeLine="236" d="M1682.8496,1027.1114 C1722.2496,1014.4714 1748.2,1007 1788.39,996.7 C1816.11,989.59 1846.16,983.06 1874.64,977.4" fill="none" id="Ability-backto-QuantumEntanglementAbility" style="stroke:#181818;stroke-width:1;"/><polygon fill="none" points="1665.71,1032.61,1684.6825,1032.8246,1681.0167,1021.3982,1665.71,1032.61" style="stroke:#181818;stroke-width:1;"/></g><!--reverse link View to TextView--><g class="link" data-entity-1="View" data-entity-2="TextView" data-source-line="240" data-uid="lnk74" id="link_View_TextView"><path codeLine="240" d="M859.2439,1625.9797 C936.6539,1636.5697 1014.49,1647.23 1071.24,1655" fill="none" id="View-backto-TextView" style="stroke:#181818;stroke-width:1;"/><polygon fill="none" points="841.41,1623.54,858.4306,1631.9244,860.0571,1620.0351,841.41,1623.54" style="stroke:#181818;stroke-width:1;"/></g><!--reverse link View to GraphicalView--><g class="link" data-entity-1="View" data-entity-2="GraphicalView" data-source-line="241" data-uid="lnk75" id="link_View_GraphicalView"><path codeLine="241" d="M859.3664,1596.8775 C927.8964,1592.0975 992.77,1587.58 1050.25,1583.57" fill="none" id="View-backto-GraphicalView" style="stroke:#181818;stroke-width:1;"/><polygon fill="none" points="841.41,1598.13,859.7839,1602.863,858.9489,1590.8921,841.41,1598.13" style="stroke:#181818;stroke-width:1;"/></g><!--reverse link Controller to Game--><g class="link" data-entity-1="Controller" data-entity-2="Game" data-source-line="243" data-uid="lnk76" id="link_Controller_Game"><path codeLine="243" d="M314.1859,1241.0879 C382.4659,1177.8779 482.21,1085.52 570.62,1003.67" fill="none" id="Controller-backto-Game" style="stroke:#181818;stroke-width:1;"/><polygon fill="none" points="305.38,1249.24,312.5003,1248.0993,314.1859,1241.0879,307.0656,1242.2287,305.38,1249.24" style="stroke:#181818;stroke-width:1;"/></g><!--reverse link Controller to View--><g class="link" data-entity-1="Controller" data-entity-2="View" data-source-line="244" data-uid="lnk77" id="link_Controller_View"><path codeLine="244" d="M325.6022,1379.4056 C374.1022,1416.7056 429.29,1456.78 490,1493.7 C525.65,1515.39 566.02,1536.54 602.7,1554.57" fill="none" id="Controller-backto-View" style="stroke:#181818;stroke-width:1;"/><polygon fill="none" points="316.09,1372.09,318.4076,1378.9185,325.6022,1379.4056,323.2846,1372.577,316.09,1372.09" style="stroke:#181818;stroke-width:1;"/></g><!--link LinkFactory to Link--><g class="link" data-entity-1="LinkFactory" data-entity-2="Link" data-source-line="246" data-uid="lnk78" id="link_LinkFactory_Link"><path codeLine="246" d="M1524.99,312.23 C1524.99,356.6 1524.99,394.98 1524.99,439.36" fill="none" id="LinkFactory-to-Link" style="stroke:#181818;stroke-width:1;stroke-dasharray:7.0,7.0;"/><polygon fill="#181818" points="1524.99,445.36,1528.99,436.36,1524.99,440.36,1520.99,436.36,1524.99,445.36" style="stroke:#181818;stroke-width:1;"/></g><!--link AbilityFactory to Ability--><g class="link" data-entity-1="AbilityFactory" data-entity-2="Ability" data-source-line="247" data-uid="lnk79" id="link_AbilityFactory_Ability"><path codeLine="247" d="M1329.58,194.01 C1307.62,205.22 1289.57,221.59 1279.6,245.2 C1255.42,302.41 1257.54,746.13 1279.6,804.2 C1308.93,881.45 1366.4162,946.8757 1420.7062,996.8657" fill="none" id="AbilityFactory-to-Ability" style="stroke:#181818;stroke-width:1;stroke-dasharray:7.0,7.0;"/><polygon fill="#181818" points="1425.12,1000.93,1421.2087,991.8911,1421.4418,997.5431,1415.7898,997.7762,1425.12,1000.93" style="stroke:#181818;stroke-width:1;"/></g><!--link LinkDecoratorFactory to LinkDecorator--><g class="link" data-entity-1="LinkDecoratorFactory" data-entity-2="LinkDecorator" data-source-line="248" data-uid="lnk80" id="link_LinkDecoratorFactory_LinkDecorator"><path codeLine="248" d="M1720.23,110.39 C1731.43,115.13 1742.24,120.54 1752.39,126.7 C1861.98,193.25 1943.0557,320.6877 1978.2257,382.8577" fill="none" id="LinkDecoratorFactory-to-LinkDecorator" style="stroke:#181818;stroke-width:1;stroke-dasharray:7.0,7.0;"/><polygon fill="#181818" points="1981.18,388.08,1980.2301,378.277,1978.7181,383.7281,1973.2671,382.2161,1981.18,388.08" style="stroke:#181818;stroke-width:1;"/></g><!--SRC=[XLPBSzis4BxpLs2ScLPMh4xFYKSpicotxiXEQydE6I9X2ICIO05GZfBwltVn8W6GPWwIeFrsiK_iRabU558S2RhRArHGGN95ESlaWR8Q2roXlCHIBfGITDieSfTpjgRV2VezO2d82svATSkPUi0LGMT_4NKbC6KItNF6pxBiLpIRpT0DQogfJrcDymFU0IVHf3Fq8qD87z6rjy2G47huyhZvqvpMNvxSwMQntfZ3rnjpU8EFbrzHTjYSQkB4d-yUdzRcTBtOB0plM-RDkUS5AT5I-qSIioeDdRbBJ0JG7zepIq1eXevW9XUNVvVuHCGSrUPNjZ1b2kMD48GfotB72lBjSujVSImAjDNVcID-H4TE2oGL5aehcvp702FVrAOHBA2RMwPe1-7Mfm3PSbwYV4_omrVALbpA0BC66R5bQ6B0eiq7E31zugGIeofy8FVyI2Rv7WjKGlGla3b2AIMiSizV8tsBBIsfEgL-Df9uH9j1YmiVR0b5o7OGR5rrqegzPK6ER5HxIN8_LrYI9IdB-Tm6_dCMXwi2FtJzJFJNr3bJOoekmOuB7PCvoZaNHQmQRy4kd2jlWzCIc67lutdUr9Wf_I_9EMStJ4423EDxVWMN3cksKOrqVsZDcQ8jd5gJV0tmLqP4N-6QY2CHiJQBtC83VSMf9Uw9S3n8jyg2W2H1XKfRvroGD6-k3APpy5IVA94fYudOtEHATa5zv_wmqb8DmBFmIjAAB21A9ST5K1Wf1oc9Iekdux4qK64usgSoLaQQy_s8sJACkWr84xPJUpGMXgMHI_sJBP18CFAw30g-5H3atuP8PHv-rx6Z9-ywoDfPDOc3OLeqmFetxLf0VYH7WikrmigZKJqzKz78840HU8qLxcC3qRqcK1COgY1uBJPH-gMW_iqQlE9SgbGoBdPUOW4JSfJ9EZZAiiAxleKsrGgcW5p1vEvB_TD0XsagQ2UOxKfIGRCTkiNw2NrK9Sy_YPDx7wsabhLT634OKG7Lf0vQTplEmdu-6MdWGUQfV88B9kVf3HKMXnxYp81gUUY6vM2hYfs8YyMzx14MdyyHbdMEsGZSrisO5bpNvPWEA8SHT23jAVURNtkUANaTtdgEWFYb9oa48nHMWKrjNNHFDA0NLEg5g9z9nXLzEVbTmcrD0wdRmAuJg8odZC3rdkQuZ1XQzvQmXGfUbZ1mZ9EnYtcBnjjT81Lv6IqGMY4i3pfCCc3IonfqT_qUKdz5mpIwuhpk1mDU0SncNbMO5HCmJEecNdpwP2lx5sZo1eBo8UUfbxTOMtGQpkEB1MCFTHLwgH_9PCe5WJpQh9WHzTC4kUhgN-WdQdIdt-T-UctKbuUjRM6l8YBsnc-uy3-I4kj99VUqjY7Bp5O_dRc5lFjhBSqokr4Q1hT8PUs2nsUsaMQPMt0qctCr93acCvHugohYw5QtBDZY8hMTtil__2MnFOO-V9E1t5BNexShNG_H2vqptFnl1sz0y_Cs84KPiVBT46evub4wnDKRfKDCoIWTr1QCqY5yR6XccM-aKQnycYCmcIOncCoH60mcI0oaioEvCvmQYM0xBsBw-vCYJTIqBM_JQ8sqxyi1AMh7MHOqKbthva6bHCiPDgJVvbPLqbQ0x8qRx0nEh4lM_m00]--></g></svg>