<svg xmlns="http://www.w3.org/2000/svg" xmlns:xlink="http://www.w3.org/1999/xlink" contentStyleType="text/css" data-diagram-type="CLASS" height="1595px" preserveAspectRatio="none" style="width:3554px;height:1595px;background:#FFFFFF;" version="1.1" viewBox="0 0 3554 1595" width="3554px" zoomAndPan="magnify"><defs/><g><!--cluster enums--><g class="cluster" data-entity="enums" data-source-line="3" data-uid="ent0002" id="cluster_enums"><path d="M3001.5,6.602 L3049.6833,6.602 A3.75,3.75 0 0 1 3052.1833,9.102 L3059.1833,31.6699 L3245.5,31.6699 A2.5,2.5 0 0 1 3248,34.1699 L3248,182.372 A2.5,2.5 0 0 1 3245.5,184.872 L3001.5,184.872 A2.5,2.5 0 0 1 2999,182.372 L2999,9.102 A2.5,2.5 0 0 1 3001.5,6.602" fill="none" style="stroke:#000000;stroke-width:1.5;"/><line style="stroke:#000000;stroke-width:1.5;" x1="2999" x2="3059.1833" y1="31.6699" y2="31.6699"/><text fill="#000000" font-family="sans-serif" font-size="14" font-weight="bold" lengthAdjust="spacing" textLength="47.1833" x="3003" y="23.5679">enums</text></g><!--cluster model--><g class="cluster" data-entity="model" data-source-line="19" data-uid="ent0005" id="cluster_model"><path d="M1046.5,208.872 L1091.3653,208.872 A3.75,3.75 0 0 1 1093.8653,211.372 L1100.8653,233.9399 L3236.5,233.9399 A2.5,2.5 0 0 1 3239,236.4399 L3239,1585.612 A2.5,2.5 0 0 1 3236.5,1588.112 L1046.5,1588.112 A2.5,2.5 0 0 1 1044,1585.612 L1044,211.372 A2.5,2.5 0 0 1 1046.5,208.872" fill="none" style="stroke:#000000;stroke-width:1.5;"/><line style="stroke:#000000;stroke-width:1.5;" x1="1044" x2="1100.8653" y1="233.9399" y2="233.9399"/><text fill="#000000" font-family="sans-serif" font-size="14" font-weight="bold" lengthAdjust="spacing" textLength="43.8653" x="1048" y="225.8379">model</text></g><!--cluster view--><g class="cluster" data-entity="view" data-source-line="151" data-uid="ent0033" id="cluster_view"><path d="M3265.5,294.672 L3297.8739,294.672 A3.75,3.75 0 0 1 3300.3739,297.172 L3307.3739,319.7399 L3544.5,319.7399 A2.5,2.5 0 0 1 3547,322.2399 L3547,730.992 A2.5,2.5 0 0 1 3544.5,733.492 L3265.5,733.492 A2.5,2.5 0 0 1 3263,730.992 L3263,297.172 A2.5,2.5 0 0 1 3265.5,294.672" fill="none" style="stroke:#000000;stroke-width:1.5;"/><line style="stroke:#000000;stroke-width:1.5;" x1="3263" x2="3307.3739" y1="319.7399" y2="319.7399"/><text fill="#000000" font-family="sans-serif" font-size="14" font-weight="bold" lengthAdjust="spacing" textLength="31.3739" x="3267" y="311.6379">view</text></g><!--cluster controller--><g class="cluster" data-entity="controller" data-source-line="166" data-uid="ent0037" id="cluster_controller"><path d="M1964.5,6.602 L2033.9248,6.602 A3.75,3.75 0 0 1 2036.4248,9.102 L2043.4248,31.6699 L2375.5,31.6699 A2.5,2.5 0 0 1 2378,34.1699 L2378,182.372 A2.5,2.5 0 0 1 2375.5,184.872 L1964.5,184.872 A2.5,2.5 0 0 1 1962,182.372 L1962,9.102 A2.5,2.5 0 0 1 1964.5,6.602" fill="none" style="stroke:#000000;stroke-width:1.5;"/><line style="stroke:#000000;stroke-width:1.5;" x1="1962" x2="2043.4248" y1="31.6699" y2="31.6699"/><text fill="#000000" font-family="sans-serif" font-size="14" font-weight="bold" lengthAdjust="spacing" textLength="68.4248" x="1966" y="23.5679">controller</text></g><!--cluster factory--><g class="cluster" data-entity="factory" data-source-line="177" data-uid="ent0039" id="cluster_factory"><path d="M8.5,882.502 L58.3983,882.502 A3.75,3.75 0 0 1 60.8983,885.002 L67.8983,907.5699 L1017.5,907.5699 A2.5,2.5 0 0 1 1020,910.0699 L1020,1001.072 A2.5,2.5 0 0 1 1017.5,1003.572 L8.5,1003.572 A2.5,2.5 0 0 1 6,1001.072 L6,885.002 A2.5,2.5 0 0 1 8.5,882.502" fill="none" style="stroke:#000000;stroke-width:1.5;"/><line style="stroke:#000000;stroke-width:1.5;" x1="6" x2="67.8983" y1="907.5699" y2="907.5699"/><text fill="#000000" font-family="sans-serif" font-size="14" font-weight="bold" lengthAdjust="spacing" textLength="48.8983" x="10" y="899.4679">factory</text></g><!--class Direction--><g class="entity" data-entity="Direction" data-source-line="4" data-uid="ent0003" id="entity_Direction"><rect fill="#F1F1F1" height="124.2717" rx="2.5" ry="2.5" style="stroke:#181818;stroke-width:0.5;" width="92.0178" x="3014.99" y="44.602"/><ellipse cx="3029.99" cy="60.602" fill="#EB937F" rx="11" ry="11" style="stroke:#181818;stroke-width:1;"/><path d="M3033.4588,67.102 L3026.1463,67.102 L3026.1463,54.4301 L3033.4588,54.4301 L3033.4588,56.3051 L3028.1931,56.3051 L3028.1931,59.5707 L3033.1463,59.5707 L3033.1463,61.4301 L3028.1931,61.4301 L3028.1931,65.227 L3033.4588,65.227 L3033.4588,67.102 Z " fill="#000000"/><text fill="#000000" font-family="sans-serif" font-size="14" lengthAdjust="spacing" textLength="60.0178" x="3043.99" y="66.034">Direction</text><line style="stroke:#181818;stroke-width:0.5;" x1="3015.99" x2="3106.0078" y1="76.602" y2="76.602"/><text fill="#000000" font-family="sans-serif" font-size="14" lengthAdjust="spacing" textLength="48.4398" x="3020.99" y="95.5679">NORTH</text><text fill="#000000" font-family="sans-serif" font-size="14" lengthAdjust="spacing" textLength="47.0118" x="3020.99" y="114.6358">SOUTH</text><text fill="#000000" font-family="sans-serif" font-size="14" lengthAdjust="spacing" textLength="32.1999" x="3020.99" y="133.7038">EAST</text><text fill="#000000" font-family="sans-serif" font-size="14" lengthAdjust="spacing" textLength="36.2738" x="3020.99" y="152.7717">WEST</text><line style="stroke:#181818;stroke-width:0.5;" x1="3015.99" x2="3106.0078" y1="160.8736" y2="160.8736"/></g><!--class LinkType--><g class="entity" data-entity="LinkType" data-source-line="11" data-uid="ent0004" id="entity_LinkType"><rect fill="#F1F1F1" height="86.1358" rx="2.5" ry="2.5" style="stroke:#181818;stroke-width:0.5;" width="90.5058" x="3141.75" y="63.662"/><ellipse cx="3156.75" cy="79.662" fill="#EB937F" rx="11" ry="11" style="stroke:#181818;stroke-width:1;"/><path d="M3160.2188,86.162 L3152.9063,86.162 L3152.9063,73.4901 L3160.2188,73.4901 L3160.2188,75.3651 L3154.9531,75.3651 L3154.9531,78.6307 L3159.9063,78.6307 L3159.9063,80.4901 L3154.9531,80.4901 L3154.9531,84.287 L3160.2188,84.287 L3160.2188,86.162 Z " fill="#000000"/><text fill="#000000" font-family="sans-serif" font-size="14" lengthAdjust="spacing" textLength="58.5058" x="3170.75" y="85.094">LinkType</text><line style="stroke:#181818;stroke-width:0.5;" x1="3142.75" x2="3231.2558" y1="95.662" y2="95.662"/><text fill="#000000" font-family="sans-serif" font-size="14" lengthAdjust="spacing" textLength="39.7738" x="3147.75" y="114.6279">VIRUS</text><text fill="#000000" font-family="sans-serif" font-size="14" lengthAdjust="spacing" textLength="35.8959" x="3147.75" y="133.6958">DATA</text><line style="stroke:#181818;stroke-width:0.5;" x1="3142.75" x2="3231.2558" y1="141.7978" y2="141.7978"/></g><!--class Game--><g class="entity" data-entity="Game" data-source-line="20" data-uid="ent0006" id="entity_Game"><rect fill="#F1F1F1" height="276.815" rx="2.5" ry="2.5" style="stroke:#181818;stroke-width:0.5;" width="319.2569" x="1712.37" y="246.872"/><ellipse cx="1848.2325" cy="262.872" fill="#ADD1B2" rx="11" ry="11" style="stroke:#181818;stroke-width:1;"/><path d="M1848.3419,258.4032 Q1847.42,258.4032 1846.6856,258.7157 Q1845.9669,259.0282 1845.4669,259.622 Q1844.9669,260.2001 1844.6856,261.0751 Q1844.42,261.9501 1844.42,263.0439 Q1844.42,264.4814 1844.8575,265.5282 Q1845.3106,266.5751 1846.1544,267.122 Q1847.0138,267.6689 1848.3263,267.6689 Q1849.1075,267.6689 1849.795,267.5439 Q1850.4981,267.4032 1851.4981,267.0907 L1851.4981,268.9657 Q1850.6388,269.2939 1849.8731,269.4189 Q1849.1231,269.5439 1848.1075,269.5439 Q1846.1856,269.5439 1844.8731,268.747 Q1843.5763,267.9345 1842.92,266.4657 Q1842.2638,264.9814 1842.2638,263.0126 Q1842.2638,261.5907 1842.6544,260.4189 Q1843.0606,259.2314 1843.8419,258.3564 Q1844.6231,257.4814 1845.7638,257.0126 Q1846.9044,256.5282 1848.3731,256.5282 Q1849.3263,256.5282 1850.2169,256.7314 Q1851.1231,256.9189 1852.0606,257.3876 L1851.2325,259.1689 Q1850.4513,258.7939 1849.795,258.6064 Q1849.1388,258.4032 1848.3419,258.4032 Z " fill="#000000"/><text fill="#000000" font-family="sans-serif" font-size="14" lengthAdjust="spacing" textLength="39.0318" x="1868.7325" y="268.304">Game</text><line style="stroke:#181818;stroke-width:0.5;" x1="1713.37" x2="2030.6269" y1="278.872" y2="278.872"/><rect fill="none" height="6" style="stroke:#C82930;stroke-width:1;" width="6" x="1720.37" y="290.9059"/><text fill="#000000" font-family="sans-serif" font-size="14" lengthAdjust="spacing" textLength="149.0434" x="1732.37" y="297.8379">vector&lt;Player&gt; players</text><rect fill="none" height="6" style="stroke:#C82930;stroke-width:1;" width="6" x="1720.37" y="309.9739"/><text fill="#000000" font-family="sans-serif" font-size="14" lengthAdjust="spacing" textLength="151.3114" x="1732.37" y="316.9058">int currentPlayerIndex;</text><rect fill="none" height="6" style="stroke:#C82930;stroke-width:1;" width="6" x="1720.37" y="329.0418"/><text fill="#000000" font-family="sans-serif" font-size="14" lengthAdjust="spacing" textLength="82.7817" x="1732.37" y="335.9738">Board board</text><line style="stroke:#181818;stroke-width:0.5;" x1="1713.37" x2="2030.6269" y1="344.0757" y2="344.0757"/><ellipse cx="1723.37" cy="359.1097" fill="#84BE84" rx="3" ry="3" style="stroke:#038048;stroke-width:1;"/><text fill="#000000" font-family="sans-serif" font-size="14" lengthAdjust="spacing" textLength="109.3256" x="1732.37" y="363.0417">void startGame()</text><ellipse cx="1723.37" cy="378.1776" fill="#84BE84" rx="3" ry="3" style="stroke:#038048;stroke-width:1;"/><text fill="#000000" font-family="sans-serif" font-size="14" lengthAdjust="spacing" textLength="99.7216" x="1732.37" y="382.1096">void nextTurn()</text><ellipse cx="1723.37" cy="397.2455" fill="#84BE84" rx="3" ry="3" style="stroke:#038048;stroke-width:1;"/><text fill="#000000" font-family="sans-serif" font-size="14" lengthAdjust="spacing" textLength="120.9456" x="1732.37" y="401.1775">Board* getBoard()</text><ellipse cx="1723.37" cy="416.3134" fill="#84BE84" rx="3" ry="3" style="stroke:#038048;stroke-width:1;"/><text fill="#000000" font-family="sans-serif" font-size="14" lengthAdjust="spacing" textLength="133.1675" x="1732.37" y="420.2454">bool checkWinLoss()</text><ellipse cx="1723.37" cy="435.3814" fill="#84BE84" rx="3" ry="3" style="stroke:#038048;stroke-width:1;"/><text fill="#000000" font-family="sans-serif" font-size="14" lengthAdjust="spacing" textLength="173.4873" x="1732.37" y="439.3133">Player* getCurrentPlayer()</text><ellipse cx="1723.37" cy="454.4493" fill="#84BE84" rx="3" ry="3" style="stroke:#038048;stroke-width:1;"/><text fill="#000000" font-family="sans-serif" font-size="14" lengthAdjust="spacing" textLength="177.4493" x="1732.37" y="458.3813">int getPlayerIndex(Player*)</text><ellipse cx="1723.37" cy="473.5172" fill="#84BE84" rx="3" ry="3" style="stroke:#038048;stroke-width:1;"/><text fill="#000000" font-family="sans-serif" font-size="14" lengthAdjust="spacing" textLength="226.3791" x="1732.37" y="477.4492">void makeMove(char link, char dir)</text><ellipse cx="1723.37" cy="492.5851" fill="#84BE84" rx="3" ry="3" style="stroke:#038048;stroke-width:1;"/><text fill="#000000" font-family="sans-serif" font-size="14" lengthAdjust="spacing" textLength="206.6812" x="1732.37" y="496.5171">void showCurrentPlayerAbility()</text><ellipse cx="1723.37" cy="511.653" fill="#84BE84" rx="3" ry="3" style="stroke:#038048;stroke-width:1;"/><text fill="#000000" font-family="sans-serif" font-size="14" lengthAdjust="spacing" textLength="293.2569" x="1732.37" y="515.585">void useAbility(int id, vector&lt;string&gt; params)</text></g><!--class Board--><g class="entity" data-entity="Board" data-source-line="36" data-uid="ent0007" id="entity_Board"><rect fill="#F1F1F1" height="86.1358" rx="2.5" ry="2.5" style="stroke:#181818;stroke-width:0.5;" width="332.3188" x="1503.84" y="1104.772"/><ellipse cx="1645.8415" cy="1120.772" fill="#ADD1B2" rx="11" ry="11" style="stroke:#181818;stroke-width:1;"/><path d="M1645.9509,1116.3032 Q1645.029,1116.3032 1644.2946,1116.6157 Q1643.5759,1116.9282 1643.0759,1117.522 Q1642.5759,1118.1001 1642.2946,1118.9751 Q1642.029,1119.8501 1642.029,1120.9439 Q1642.029,1122.3814 1642.4665,1123.4282 Q1642.9196,1124.4751 1643.7634,1125.022 Q1644.6227,1125.5689 1645.9352,1125.5689 Q1646.7165,1125.5689 1647.404,1125.4439 Q1648.1071,1125.3032 1649.1071,1124.9907 L1649.1071,1126.8657 Q1648.2477,1127.1939 1647.4821,1127.3189 Q1646.7321,1127.4439 1645.7165,1127.4439 Q1643.7946,1127.4439 1642.4821,1126.647 Q1641.1852,1125.8345 1640.529,1124.3657 Q1639.8727,1122.8814 1639.8727,1120.9126 Q1639.8727,1119.4907 1640.2634,1118.3189 Q1640.6696,1117.1314 1641.4509,1116.2564 Q1642.2321,1115.3814 1643.3727,1114.9126 Q1644.5134,1114.4282 1645.9821,1114.4282 Q1646.9352,1114.4282 1647.8259,1114.6314 Q1648.7321,1114.8189 1649.6696,1115.2876 L1648.8415,1117.0689 Q1648.0602,1116.6939 1647.404,1116.5064 Q1646.7477,1116.3032 1645.9509,1116.3032 Z " fill="#000000"/><text fill="#000000" font-family="sans-serif" font-size="14" lengthAdjust="spacing" textLength="39.8159" x="1666.3415" y="1126.204">Board</text><line style="stroke:#181818;stroke-width:0.5;" x1="1504.84" x2="1835.1588" y1="1136.772" y2="1136.772"/><rect fill="none" height="6" style="stroke:#C82930;stroke-width:1;" width="6" x="1511.84" y="1148.8059"/><text fill="#000000" font-family="sans-serif" font-size="14" lengthAdjust="spacing" textLength="216.3412" x="1523.84" y="1155.7379">vector&lt;vector&lt;BaseCell&gt;&gt; board;</text><line style="stroke:#181818;stroke-width:0.5;" x1="1504.84" x2="1835.1588" y1="1163.8399" y2="1163.8399"/><ellipse cx="1514.84" cy="1178.8739" fill="#84BE84" rx="3" ry="3" style="stroke:#038048;stroke-width:1;"/><text fill="#000000" font-family="sans-serif" font-size="14" lengthAdjust="spacing" textLength="306.3188" x="1523.84" y="1182.8058">bool moveLink(Link* link, pair&lt;int, int&gt; coords)</text></g><!--class BaseCell--><g class="entity" data-entity="BaseCell" data-source-line="42" data-uid="ent0008" id="entity_BaseCell"><rect fill="#F1F1F1" height="86.1358" rx="2.5" ry="2.5" style="stroke:#181818;stroke-width:0.5;" width="152.9235" x="2066.54" y="1250.912"/><ellipse cx="2112.8448" cy="1266.912" fill="#A9DCDF" rx="11" ry="11" style="stroke:#181818;stroke-width:1;"/><path d="M2116.1886,1272.162 L2114.7198,1268.412 L2110.2823,1268.412 L2108.8448,1272.162 L2106.7198,1272.162 L2111.673,1259.4432 L2113.423,1259.4432 L2118.3448,1272.162 L2116.1886,1272.162 Z M2112.8448,1263.2089 Q2112.798,1263.0526 2112.673,1262.6932 Q2112.548,1262.3339 2112.4386,1261.9589 Q2112.3292,1261.5682 2112.5323,1261.5057 Q2112.6886,1261.6932 2112.5948,1262.0526 Q2112.5011,1262.3964 2112.4073,1262.6932 Q2112.3136,1262.9745 2112.2355,1263.2089 L2111.0011,1266.5214 L2114.0792,1266.5214 L2112.8448,1263.2089 Z " fill="#000000"/><text fill="#000000" font-family="sans-serif" font-size="14" font-style="italic" lengthAdjust="spacing" textLength="51.8138" x="2133.3448" y="1272.344">BaseCell</text><line style="stroke:#181818;stroke-width:0.5;" x1="2067.54" x2="2218.4635" y1="1282.912" y2="1282.912"/><rect fill="none" height="6" style="stroke:#C82930;stroke-width:1;" width="6" x="2074.54" y="1294.9459"/><text fill="#000000" font-family="sans-serif" font-size="14" lengthAdjust="spacing" textLength="126.2375" x="2086.54" y="1301.8779">Link* occupantLink</text><line style="stroke:#181818;stroke-width:0.5;" x1="2067.54" x2="2218.4635" y1="1309.9799" y2="1309.9799"/><ellipse cx="2077.54" cy="1325.0139" fill="#84BE84" rx="3" ry="3" style="stroke:#038048;stroke-width:1;"/><text fill="#000000" font-family="sans-serif" font-size="14" lengthAdjust="spacing" textLength="126.9235" x="2086.54" y="1328.9458">void onEnter(Link*)</text></g><!--class BoardCell--><g class="entity" data-entity="BoardCell" data-source-line="48" data-uid="ent0009" id="entity_BoardCell"><rect fill="#F1F1F1" height="48" rx="2.5" ry="2.5" style="stroke:#181818;stroke-width:0.5;" width="95.7838" x="2008.11" y="1406.582"/><ellipse cx="2023.11" cy="1422.582" fill="#ADD1B2" rx="11" ry="11" style="stroke:#181818;stroke-width:1;"/><path d="M2023.2194,1418.1132 Q2022.2975,1418.1132 2021.5631,1418.4257 Q2020.8444,1418.7382 2020.3444,1419.332 Q2019.8444,1419.9101 2019.5631,1420.7851 Q2019.2975,1421.6601 2019.2975,1422.7539 Q2019.2975,1424.1914 2019.735,1425.2382 Q2020.1881,1426.2851 2021.0319,1426.832 Q2021.8913,1427.3789 2023.2038,1427.3789 Q2023.985,1427.3789 2024.6725,1427.2539 Q2025.3756,1427.1132 2026.3756,1426.8007 L2026.3756,1428.6757 Q2025.5163,1429.0039 2024.7506,1429.1289 Q2024.0006,1429.2539 2022.985,1429.2539 Q2021.0631,1429.2539 2019.7506,1428.457 Q2018.4538,1427.6445 2017.7975,1426.1757 Q2017.1413,1424.6914 2017.1413,1422.7226 Q2017.1413,1421.3007 2017.5319,1420.1289 Q2017.9381,1418.9414 2018.7194,1418.0664 Q2019.5006,1417.1914 2020.6413,1416.7226 Q2021.7819,1416.2382 2023.2506,1416.2382 Q2024.2038,1416.2382 2025.0944,1416.4414 Q2026.0006,1416.6289 2026.9381,1417.0976 L2026.11,1418.8789 Q2025.3288,1418.5039 2024.6725,1418.3164 Q2024.0163,1418.1132 2023.2194,1418.1132 Z " fill="#000000"/><text fill="#000000" font-family="sans-serif" font-size="14" lengthAdjust="spacing" textLength="63.7838" x="2037.11" y="1428.014">BoardCell</text><line style="stroke:#181818;stroke-width:0.5;" x1="2009.11" x2="2102.8938" y1="1438.582" y2="1438.582"/><line style="stroke:#181818;stroke-width:0.5;" x1="2009.11" x2="2102.8938" y1="1446.582" y2="1446.582"/></g><!--class PlayerCell--><g class="entity" data-entity="PlayerCell" data-source-line="51" data-uid="ent0010" id="entity_PlayerCell"><rect fill="#F1F1F1" height="67.0679" rx="2.5" ry="2.5" style="stroke:#181818;stroke-width:0.5;" width="119.9116" x="2139.04" y="1397.042"/><ellipse cx="2166.1386" cy="1413.042" fill="#A9DCDF" rx="11" ry="11" style="stroke:#181818;stroke-width:1;"/><path d="M2169.4824,1418.292 L2168.0136,1414.542 L2163.5761,1414.542 L2162.1386,1418.292 L2160.0136,1418.292 L2164.9668,1405.5732 L2166.7168,1405.5732 L2171.6386,1418.292 L2169.4824,1418.292 Z M2166.1386,1409.3389 Q2166.0918,1409.1826 2165.9668,1408.8232 Q2165.8418,1408.4639 2165.7324,1408.0889 Q2165.623,1407.6982 2165.8261,1407.6357 Q2165.9824,1407.8232 2165.8886,1408.1826 Q2165.7949,1408.5264 2165.7011,1408.8232 Q2165.6074,1409.1045 2165.5293,1409.3389 L2164.2949,1412.6514 L2167.373,1412.6514 L2166.1386,1409.3389 Z " fill="#000000"/><text fill="#000000" font-family="sans-serif" font-size="14" font-style="italic" lengthAdjust="spacing" textLength="61.0258" x="2182.8272" y="1418.474">PlayerCell</text><line style="stroke:#181818;stroke-width:0.5;" x1="2140.04" x2="2257.9516" y1="1429.042" y2="1429.042"/><rect fill="none" height="6" style="stroke:#C82930;stroke-width:1;" width="6" x="2147.04" y="1441.0759"/><text fill="#000000" font-family="sans-serif" font-size="14" lengthAdjust="spacing" textLength="93.9116" x="2159.04" y="1448.0079">Player* owner</text><line style="stroke:#181818;stroke-width:0.5;" x1="2140.04" x2="2257.9516" y1="1456.1099" y2="1456.1099"/></g><!--class Server--><g class="entity" data-entity="Server" data-source-line="55" data-uid="ent0011" id="entity_Server"><rect fill="#F1F1F1" height="48" rx="2.5" ry="2.5" style="stroke:#181818;stroke-width:0.5;" width="74.1538" x="2048.92" y="1524.112"/><ellipse cx="2063.92" cy="1540.112" fill="#ADD1B2" rx="11" ry="11" style="stroke:#181818;stroke-width:1;"/><path d="M2064.0294,1535.6432 Q2063.1075,1535.6432 2062.3731,1535.9557 Q2061.6544,1536.2682 2061.1544,1536.862 Q2060.6544,1537.4401 2060.3731,1538.3151 Q2060.1075,1539.1901 2060.1075,1540.2839 Q2060.1075,1541.7214 2060.545,1542.7682 Q2060.9981,1543.8151 2061.8419,1544.362 Q2062.7013,1544.9089 2064.0138,1544.9089 Q2064.795,1544.9089 2065.4825,1544.7839 Q2066.1856,1544.6432 2067.1856,1544.3307 L2067.1856,1546.2057 Q2066.3263,1546.5339 2065.5606,1546.6589 Q2064.8106,1546.7839 2063.795,1546.7839 Q2061.8731,1546.7839 2060.5606,1545.987 Q2059.2638,1545.1745 2058.6075,1543.7057 Q2057.9513,1542.2214 2057.9513,1540.2526 Q2057.9513,1538.8307 2058.3419,1537.6589 Q2058.7481,1536.4714 2059.5294,1535.5964 Q2060.3106,1534.7214 2061.4513,1534.2526 Q2062.5919,1533.7682 2064.0606,1533.7682 Q2065.0138,1533.7682 2065.9044,1533.9714 Q2066.8106,1534.1589 2067.7481,1534.6276 L2066.92,1536.4089 Q2066.1388,1536.0339 2065.4825,1535.8464 Q2064.8263,1535.6432 2064.0294,1535.6432 Z " fill="#000000"/><text fill="#000000" font-family="sans-serif" font-size="14" lengthAdjust="spacing" textLength="42.1538" x="2077.92" y="1545.544">Server</text><line style="stroke:#181818;stroke-width:0.5;" x1="2049.92" x2="2122.0738" y1="1556.112" y2="1556.112"/><line style="stroke:#181818;stroke-width:0.5;" x1="2049.92" x2="2122.0738" y1="1564.112" y2="1564.112"/></g><!--class Firewall--><g class="entity" data-entity="Firewall" data-source-line="58" data-uid="ent0012" id="entity_Firewall"><rect fill="#F1F1F1" height="48" rx="2.5" ry="2.5" style="stroke:#181818;stroke-width:0.5;" width="82.6378" x="2157.68" y="1524.112"/><ellipse cx="2172.68" cy="1540.112" fill="#ADD1B2" rx="11" ry="11" style="stroke:#181818;stroke-width:1;"/><path d="M2172.7894,1535.6432 Q2171.8675,1535.6432 2171.1331,1535.9557 Q2170.4144,1536.2682 2169.9144,1536.862 Q2169.4144,1537.4401 2169.1331,1538.3151 Q2168.8675,1539.1901 2168.8675,1540.2839 Q2168.8675,1541.7214 2169.305,1542.7682 Q2169.7581,1543.8151 2170.6019,1544.362 Q2171.4613,1544.9089 2172.7738,1544.9089 Q2173.555,1544.9089 2174.2425,1544.7839 Q2174.9456,1544.6432 2175.9456,1544.3307 L2175.9456,1546.2057 Q2175.0863,1546.5339 2174.3206,1546.6589 Q2173.5706,1546.7839 2172.555,1546.7839 Q2170.6331,1546.7839 2169.3206,1545.987 Q2168.0238,1545.1745 2167.3675,1543.7057 Q2166.7113,1542.2214 2166.7113,1540.2526 Q2166.7113,1538.8307 2167.1019,1537.6589 Q2167.5081,1536.4714 2168.2894,1535.5964 Q2169.0706,1534.7214 2170.2113,1534.2526 Q2171.3519,1533.7682 2172.8206,1533.7682 Q2173.7738,1533.7682 2174.6644,1533.9714 Q2175.5706,1534.1589 2176.5081,1534.6276 L2175.68,1536.4089 Q2174.8988,1536.0339 2174.2425,1535.8464 Q2173.5863,1535.6432 2172.7894,1535.6432 Z " fill="#000000"/><text fill="#000000" font-family="sans-serif" font-size="14" lengthAdjust="spacing" textLength="50.6378" x="2186.68" y="1545.544">Firewall</text><line style="stroke:#181818;stroke-width:0.5;" x1="2158.68" x2="2239.3178" y1="1556.112" y2="1556.112"/><line style="stroke:#181818;stroke-width:0.5;" x1="2158.68" x2="2239.3178" y1="1564.112" y2="1564.112"/></g><!--class Goal--><g class="entity" data-entity="Goal" data-source-line="61" data-uid="ent0013" id="entity_Goal"><rect fill="#F1F1F1" height="48" rx="2.5" ry="2.5" style="stroke:#181818;stroke-width:0.5;" width="62.1279" x="2274.94" y="1524.112"/><ellipse cx="2289.94" cy="1540.112" fill="#ADD1B2" rx="11" ry="11" style="stroke:#181818;stroke-width:1;"/><path d="M2290.0494,1535.6432 Q2289.1275,1535.6432 2288.3931,1535.9557 Q2287.6744,1536.2682 2287.1744,1536.862 Q2286.6744,1537.4401 2286.3931,1538.3151 Q2286.1275,1539.1901 2286.1275,1540.2839 Q2286.1275,1541.7214 2286.565,1542.7682 Q2287.0181,1543.8151 2287.8619,1544.362 Q2288.7213,1544.9089 2290.0338,1544.9089 Q2290.815,1544.9089 2291.5025,1544.7839 Q2292.2056,1544.6432 2293.2056,1544.3307 L2293.2056,1546.2057 Q2292.3463,1546.5339 2291.5806,1546.6589 Q2290.8306,1546.7839 2289.815,1546.7839 Q2287.8931,1546.7839 2286.5806,1545.987 Q2285.2838,1545.1745 2284.6275,1543.7057 Q2283.9713,1542.2214 2283.9713,1540.2526 Q2283.9713,1538.8307 2284.3619,1537.6589 Q2284.7681,1536.4714 2285.5494,1535.5964 Q2286.3306,1534.7214 2287.4713,1534.2526 Q2288.6119,1533.7682 2290.0806,1533.7682 Q2291.0338,1533.7682 2291.9244,1533.9714 Q2292.8306,1534.1589 2293.7681,1534.6276 L2292.94,1536.4089 Q2292.1588,1536.0339 2291.5025,1535.8464 Q2290.8463,1535.6432 2290.0494,1535.6432 Z " fill="#000000"/><text fill="#000000" font-family="sans-serif" font-size="14" lengthAdjust="spacing" textLength="30.1279" x="2303.94" y="1545.544">Goal</text><line style="stroke:#181818;stroke-width:0.5;" x1="2275.94" x2="2336.0679" y1="1556.112" y2="1556.112"/><line style="stroke:#181818;stroke-width:0.5;" x1="2275.94" x2="2336.0679" y1="1564.112" y2="1564.112"/></g><!--class Player--><g class="entity" data-entity="Player" data-source-line="64" data-uid="ent0014" id="entity_Player"><rect fill="#F1F1F1" height="219.6113" rx="2.5" ry="2.5" style="stroke:#181818;stroke-width:0.5;" width="216.6093" x="1763.7" y="583.682"/><ellipse cx="1847.3777" cy="599.682" fill="#ADD1B2" rx="11" ry="11" style="stroke:#181818;stroke-width:1;"/><path d="M1847.4871,595.2132 Q1846.5652,595.2132 1845.8308,595.5257 Q1845.1121,595.8382 1844.6121,596.432 Q1844.1121,597.0101 1843.8308,597.8851 Q1843.5652,598.7601 1843.5652,599.8539 Q1843.5652,601.2914 1844.0027,602.3382 Q1844.4558,603.3851 1845.2996,603.932 Q1846.159,604.4789 1847.4715,604.4789 Q1848.2527,604.4789 1848.9402,604.3539 Q1849.6433,604.2132 1850.6433,603.9007 L1850.6433,605.7757 Q1849.784,606.1039 1849.0183,606.2289 Q1848.2683,606.3539 1847.2527,606.3539 Q1845.3308,606.3539 1844.0183,605.557 Q1842.7215,604.7445 1842.0652,603.2757 Q1841.409,601.7914 1841.409,599.8226 Q1841.409,598.4007 1841.7996,597.2289 Q1842.2058,596.0414 1842.9871,595.1664 Q1843.7683,594.2914 1844.909,593.8226 Q1846.0496,593.3382 1847.5183,593.3382 Q1848.4715,593.3382 1849.3621,593.5414 Q1850.2683,593.7289 1851.2058,594.1976 L1850.3777,595.9789 Q1849.5965,595.6039 1848.9402,595.4164 Q1848.284,595.2132 1847.4871,595.2132 Z " fill="#000000"/><text fill="#000000" font-family="sans-serif" font-size="14" lengthAdjust="spacing" textLength="40.7538" x="1867.8777" y="605.114">Player</text><line style="stroke:#181818;stroke-width:0.5;" x1="1764.7" x2="1979.3093" y1="615.682" y2="615.682"/><rect fill="none" height="6" style="stroke:#C82930;stroke-width:1;" width="6" x="1771.7" y="627.7159"/><text fill="#000000" font-family="sans-serif" font-size="14" lengthAdjust="spacing" textLength="145.6554" x="1783.7" y="634.6479">pair&lt;int, int&gt; getScore</text><rect fill="none" height="6" style="stroke:#C82930;stroke-width:1;" width="6" x="1771.7" y="646.7839"/><text fill="#000000" font-family="sans-serif" font-size="14" lengthAdjust="spacing" textLength="159.5574" x="1783.7" y="653.7158">vector&lt;Ability*&gt; abilities</text><rect fill="none" height="6" style="stroke:#C82930;stroke-width:1;" width="6" x="1771.7" y="665.8518"/><text fill="#000000" font-family="sans-serif" font-size="14" lengthAdjust="spacing" textLength="125.5375" x="1783.7" y="672.7838">vector&lt;Link*&gt; links</text><line style="stroke:#181818;stroke-width:0.5;" x1="1764.7" x2="1979.3093" y1="680.8857" y2="680.8857"/><ellipse cx="1774.7" cy="695.9197" fill="#84BE84" rx="3" ry="3" style="stroke:#038048;stroke-width:1;"/><text fill="#000000" font-family="sans-serif" font-size="14" lengthAdjust="spacing" textLength="154.0554" x="1783.7" y="699.8517">pair&lt;int, int&gt; getScore()</text><ellipse cx="1774.7" cy="714.9876" fill="#84BE84" rx="3" ry="3" style="stroke:#038048;stroke-width:1;"/><text fill="#000000" font-family="sans-serif" font-size="14" lengthAdjust="spacing" textLength="190.6093" x="1783.7" y="718.9196">vector&lt;Ability*&gt; getAbilities()</text><ellipse cx="1774.7" cy="734.0555" fill="#84BE84" rx="3" ry="3" style="stroke:#038048;stroke-width:1;"/><text fill="#000000" font-family="sans-serif" font-size="14" lengthAdjust="spacing" textLength="122.4855" x="1783.7" y="737.9875">Ability* getAbility()</text><ellipse cx="1774.7" cy="753.1234" fill="#84BE84" rx="3" ry="3" style="stroke:#038048;stroke-width:1;"/><text fill="#000000" font-family="sans-serif" font-size="14" lengthAdjust="spacing" textLength="166.9073" x="1783.7" y="757.0554">void download(Link* link)</text><ellipse cx="1774.7" cy="772.1914" fill="#84BE84" rx="3" ry="3" style="stroke:#038048;stroke-width:1;"/><text fill="#000000" font-family="sans-serif" font-size="14" lengthAdjust="spacing" textLength="169.6653" x="1783.7" y="776.1233">void deleteLink(Link* link)</text><ellipse cx="1774.7" cy="791.2593" fill="#84BE84" rx="3" ry="3" style="stroke:#038048;stroke-width:1;"/><text fill="#000000" font-family="sans-serif" font-size="14" lengthAdjust="spacing" textLength="151.4654" x="1783.7" y="795.1913">Link* getLink(char link)</text></g><!--class Link--><g class="entity" data-entity="Link" data-source-line="77" data-uid="ent0015" id="entity_Link"><rect fill="#F1F1F1" height="181.4754" rx="2.5" ry="2.5" style="stroke:#181818;stroke-width:0.5;" width="294.365" x="1176.82" y="863.292"/><ellipse cx="1307.0825" cy="879.292" fill="#A9DCDF" rx="11" ry="11" style="stroke:#181818;stroke-width:1;"/><path d="M1310.4263,884.542 L1308.9575,880.792 L1304.52,880.792 L1303.0825,884.542 L1300.9575,884.542 L1305.9107,871.8232 L1307.6607,871.8232 L1312.5825,884.542 L1310.4263,884.542 Z M1307.0825,875.5889 Q1307.0357,875.4326 1306.9107,875.0732 Q1306.7857,874.7139 1306.6763,874.3389 Q1306.5669,873.9482 1306.77,873.8857 Q1306.9263,874.0732 1306.8325,874.4326 Q1306.7388,874.7764 1306.645,875.0732 Q1306.5513,875.3545 1306.4732,875.5889 L1305.2388,878.9014 L1308.3169,878.9014 L1307.0825,875.5889 Z " fill="#000000"/><text fill="#000000" font-family="sans-serif" font-size="14" font-style="italic" lengthAdjust="spacing" textLength="25.3399" x="1327.5825" y="884.724">Link</text><line style="stroke:#181818;stroke-width:0.5;" x1="1177.82" x2="1470.185" y1="895.292" y2="895.292"/><rect fill="none" height="6" style="stroke:#C82930;stroke-width:1;" width="6" x="1184.82" y="907.3259"/><text fill="#000000" font-family="sans-serif" font-size="14" lengthAdjust="spacing" textLength="132.2995" x="1196.82" y="914.2579">pair&lt;int, int&gt; coords</text><rect fill="none" height="6" style="stroke:#C82930;stroke-width:1;" width="6" x="1184.82" y="926.3939"/><text fill="#000000" font-family="sans-serif" font-size="14" lengthAdjust="spacing" textLength="77.3637" x="1196.82" y="933.3258">int strength</text><line style="stroke:#181818;stroke-width:0.5;" x1="1177.82" x2="1470.185" y1="941.4278" y2="941.4278"/><ellipse cx="1187.82" cy="956.4618" fill="#84BE84" rx="3" ry="3" style="stroke:#038048;stroke-width:1;"/><text fill="#000000" font-family="sans-serif" font-size="14" lengthAdjust="spacing" textLength="164.3874" x="1196.82" y="960.3938">pair&lt;int, int&gt; getCoords()</text><ellipse cx="1187.82" cy="975.5297" fill="#84BE84" rx="3" ry="3" style="stroke:#038048;stroke-width:1;"/><text fill="#000000" font-family="sans-serif" font-size="14" lengthAdjust="spacing" textLength="268.365" x="1196.82" y="979.4617">void setCoords(pair&lt;int, int&gt; newCoords)</text><ellipse cx="1187.82" cy="994.5976" fill="#84BE84" rx="3" ry="3" style="stroke:#038048;stroke-width:1;"/><text fill="#000000" font-family="sans-serif" font-size="14" lengthAdjust="spacing" textLength="208.2772" x="1196.82" y="998.5296">void requestMove(Direction dir)</text><ellipse cx="1187.82" cy="1013.6655" fill="#84BE84" rx="3" ry="3" style="stroke:#038048;stroke-width:1;"/><text fill="#000000" font-family="sans-serif" font-size="14" lengthAdjust="spacing" textLength="108.3036" x="1196.82" y="1017.5975">int getStrength()</text><ellipse cx="1187.82" cy="1032.7334" fill="#84BE84" rx="3" ry="3" style="stroke:#038048;stroke-width:1;"/><text fill="#000000" font-family="sans-serif" font-size="14" lengthAdjust="spacing" textLength="123.5355" x="1196.82" y="1036.6654">LinkType getType()</text></g><!--class VirusLink--><g class="entity" data-entity="VirusLink" data-source-line="88" data-uid="ent0016" id="entity_VirusLink"><rect fill="#F1F1F1" height="48" rx="2.5" ry="2.5" style="stroke:#181818;stroke-width:0.5;" width="92.2278" x="1214.89" y="1123.842"/><ellipse cx="1229.89" cy="1139.842" fill="#ADD1B2" rx="11" ry="11" style="stroke:#181818;stroke-width:1;"/><path d="M1229.9994,1135.3732 Q1229.0775,1135.3732 1228.3431,1135.6857 Q1227.6244,1135.9982 1227.1244,1136.592 Q1226.6244,1137.1701 1226.3431,1138.0451 Q1226.0775,1138.9201 1226.0775,1140.0139 Q1226.0775,1141.4514 1226.515,1142.4982 Q1226.9681,1143.5451 1227.8119,1144.092 Q1228.6713,1144.6389 1229.9838,1144.6389 Q1230.765,1144.6389 1231.4525,1144.5139 Q1232.1556,1144.3732 1233.1556,1144.0607 L1233.1556,1145.9357 Q1232.2963,1146.2639 1231.5306,1146.3889 Q1230.7806,1146.5139 1229.765,1146.5139 Q1227.8431,1146.5139 1226.5306,1145.717 Q1225.2338,1144.9045 1224.5775,1143.4357 Q1223.9213,1141.9514 1223.9213,1139.9826 Q1223.9213,1138.5607 1224.3119,1137.3889 Q1224.7181,1136.2014 1225.4994,1135.3264 Q1226.2806,1134.4514 1227.4213,1133.9826 Q1228.5619,1133.4982 1230.0306,1133.4982 Q1230.9838,1133.4982 1231.8744,1133.7014 Q1232.7806,1133.8889 1233.7181,1134.3576 L1232.89,1136.1389 Q1232.1088,1135.7639 1231.4525,1135.5764 Q1230.7963,1135.3732 1229.9994,1135.3732 Z " fill="#000000"/><text fill="#000000" font-family="sans-serif" font-size="14" lengthAdjust="spacing" textLength="60.2278" x="1243.89" y="1145.274">VirusLink</text><line style="stroke:#181818;stroke-width:0.5;" x1="1215.89" x2="1306.1178" y1="1155.842" y2="1155.842"/><line style="stroke:#181818;stroke-width:0.5;" x1="1215.89" x2="1306.1178" y1="1163.842" y2="1163.842"/></g><!--class DataLink--><g class="entity" data-entity="DataLink" data-source-line="91" data-uid="ent0017" id="entity_DataLink"><rect fill="#F1F1F1" height="48" rx="2.5" ry="2.5" style="stroke:#181818;stroke-width:0.5;" width="90.0578" x="1341.97" y="1123.842"/><ellipse cx="1356.97" cy="1139.842" fill="#ADD1B2" rx="11" ry="11" style="stroke:#181818;stroke-width:1;"/><path d="M1357.0794,1135.3732 Q1356.1575,1135.3732 1355.4231,1135.6857 Q1354.7044,1135.9982 1354.2044,1136.592 Q1353.7044,1137.1701 1353.4231,1138.0451 Q1353.1575,1138.9201 1353.1575,1140.0139 Q1353.1575,1141.4514 1353.595,1142.4982 Q1354.0481,1143.5451 1354.8919,1144.092 Q1355.7513,1144.6389 1357.0638,1144.6389 Q1357.845,1144.6389 1358.5325,1144.5139 Q1359.2356,1144.3732 1360.2356,1144.0607 L1360.2356,1145.9357 Q1359.3763,1146.2639 1358.6106,1146.3889 Q1357.8606,1146.5139 1356.845,1146.5139 Q1354.9231,1146.5139 1353.6106,1145.717 Q1352.3138,1144.9045 1351.6575,1143.4357 Q1351.0013,1141.9514 1351.0013,1139.9826 Q1351.0013,1138.5607 1351.3919,1137.3889 Q1351.7981,1136.2014 1352.5794,1135.3264 Q1353.3606,1134.4514 1354.5013,1133.9826 Q1355.6419,1133.4982 1357.1106,1133.4982 Q1358.0638,1133.4982 1358.9544,1133.7014 Q1359.8606,1133.8889 1360.7981,1134.3576 L1359.97,1136.1389 Q1359.1888,1135.7639 1358.5325,1135.5764 Q1357.8763,1135.3732 1357.0794,1135.3732 Z " fill="#000000"/><text fill="#000000" font-family="sans-serif" font-size="14" lengthAdjust="spacing" textLength="58.0578" x="1370.97" y="1145.274">DataLink</text><line style="stroke:#181818;stroke-width:0.5;" x1="1342.97" x2="1431.0278" y1="1155.842" y2="1155.842"/><line style="stroke:#181818;stroke-width:0.5;" x1="1342.97" x2="1431.0278" y1="1163.842" y2="1163.842"/></g><!--class LinkDecorator--><g class="entity" data-entity="LinkDecorator" data-source-line="94" data-uid="ent0018" id="entity_LinkDecorator"><rect fill="#F1F1F1" height="67.0679" rx="2.5" ry="2.5" style="stroke:#181818;stroke-width:0.5;" width="119.5137" x="1060.24" y="1114.302"/><ellipse cx="1075.24" cy="1130.302" fill="#A9DCDF" rx="11" ry="11" style="stroke:#181818;stroke-width:1;"/><path d="M1078.5838,1135.552 L1077.115,1131.802 L1072.6775,1131.802 L1071.24,1135.552 L1069.115,1135.552 L1074.0681,1122.8332 L1075.8181,1122.8332 L1080.74,1135.552 L1078.5838,1135.552 Z M1075.24,1126.5989 Q1075.1931,1126.4426 1075.0681,1126.0832 Q1074.9431,1125.7239 1074.8338,1125.3489 Q1074.7244,1124.9582 1074.9275,1124.8957 Q1075.0838,1125.0832 1074.99,1125.4426 Q1074.8963,1125.7864 1074.8025,1126.0832 Q1074.7088,1126.3645 1074.6306,1126.5989 L1073.3963,1129.9114 L1076.4744,1129.9114 L1075.24,1126.5989 Z " fill="#000000"/><text fill="#000000" font-family="sans-serif" font-size="14" font-style="italic" lengthAdjust="spacing" textLength="87.5137" x="1089.24" y="1135.734">LinkDecorator</text><line style="stroke:#181818;stroke-width:0.5;" x1="1061.24" x2="1178.7537" y1="1146.302" y2="1146.302"/><polygon fill="none" points="1071.24,1156.3359,1075.24,1160.3359,1071.24,1164.3359,1067.24,1160.3359" style="stroke:#B38D22;stroke-width:1;"/><text fill="#000000" font-family="sans-serif" font-size="14" lengthAdjust="spacing" textLength="69.4957" x="1080.24" y="1165.2679">Link* base</text><line style="stroke:#181818;stroke-width:0.5;" x1="1061.24" x2="1178.7537" y1="1173.3699" y2="1173.3699"/></g><!--class LinkBoostDecorator--><g class="entity" data-entity="LinkBoostDecorator" data-source-line="98" data-uid="ent0019" id="entity_LinkBoostDecorator"><rect fill="#F1F1F1" height="48" rx="2.5" ry="2.5" style="stroke:#181818;stroke-width:0.5;" width="163.1235" x="1060.44" y="1269.972"/><ellipse cx="1075.44" cy="1285.972" fill="#ADD1B2" rx="11" ry="11" style="stroke:#181818;stroke-width:1;"/><path d="M1075.5494,1281.5032 Q1074.6275,1281.5032 1073.8931,1281.8157 Q1073.1744,1282.1282 1072.6744,1282.722 Q1072.1744,1283.3001 1071.8931,1284.1751 Q1071.6275,1285.0501 1071.6275,1286.1439 Q1071.6275,1287.5814 1072.065,1288.6282 Q1072.5181,1289.6751 1073.3619,1290.222 Q1074.2213,1290.7689 1075.5338,1290.7689 Q1076.315,1290.7689 1077.0025,1290.6439 Q1077.7056,1290.5032 1078.7056,1290.1907 L1078.7056,1292.0657 Q1077.8463,1292.3939 1077.0806,1292.5189 Q1076.3306,1292.6439 1075.315,1292.6439 Q1073.3931,1292.6439 1072.0806,1291.847 Q1070.7838,1291.0345 1070.1275,1289.5657 Q1069.4713,1288.0814 1069.4713,1286.1126 Q1069.4713,1284.6907 1069.8619,1283.5189 Q1070.2681,1282.3314 1071.0494,1281.4564 Q1071.8306,1280.5814 1072.9713,1280.1126 Q1074.1119,1279.6282 1075.5806,1279.6282 Q1076.5338,1279.6282 1077.4244,1279.8314 Q1078.3306,1280.0189 1079.2681,1280.4876 L1078.44,1282.2689 Q1077.6588,1281.8939 1077.0025,1281.7064 Q1076.3463,1281.5032 1075.5494,1281.5032 Z " fill="#000000"/><text fill="#000000" font-family="sans-serif" font-size="14" lengthAdjust="spacing" textLength="131.1235" x="1089.44" y="1291.404">LinkBoostDecorator</text><line style="stroke:#181818;stroke-width:0.5;" x1="1061.44" x2="1222.5635" y1="1301.972" y2="1301.972"/><line style="stroke:#181818;stroke-width:0.5;" x1="1061.44" x2="1222.5635" y1="1309.972" y2="1309.972"/></g><!--class PolarizeDecorator--><g class="entity" data-entity="PolarizeDecorator" data-source-line="101" data-uid="ent0020" id="entity_PolarizeDecorator"><rect fill="#F1F1F1" height="48" rx="2.5" ry="2.5" style="stroke:#181818;stroke-width:0.5;" width="150.5236" x="1258.74" y="1269.972"/><ellipse cx="1273.74" cy="1285.972" fill="#ADD1B2" rx="11" ry="11" style="stroke:#181818;stroke-width:1;"/><path d="M1273.8494,1281.5032 Q1272.9275,1281.5032 1272.1931,1281.8157 Q1271.4744,1282.1282 1270.9744,1282.722 Q1270.4744,1283.3001 1270.1931,1284.1751 Q1269.9275,1285.0501 1269.9275,1286.1439 Q1269.9275,1287.5814 1270.365,1288.6282 Q1270.8181,1289.6751 1271.6619,1290.222 Q1272.5213,1290.7689 1273.8338,1290.7689 Q1274.615,1290.7689 1275.3025,1290.6439 Q1276.0056,1290.5032 1277.0056,1290.1907 L1277.0056,1292.0657 Q1276.1463,1292.3939 1275.3806,1292.5189 Q1274.6306,1292.6439 1273.615,1292.6439 Q1271.6931,1292.6439 1270.3806,1291.847 Q1269.0838,1291.0345 1268.4275,1289.5657 Q1267.7713,1288.0814 1267.7713,1286.1126 Q1267.7713,1284.6907 1268.1619,1283.5189 Q1268.5681,1282.3314 1269.3494,1281.4564 Q1270.1306,1280.5814 1271.2713,1280.1126 Q1272.4119,1279.6282 1273.8806,1279.6282 Q1274.8338,1279.6282 1275.7244,1279.8314 Q1276.6306,1280.0189 1277.5681,1280.4876 L1276.74,1282.2689 Q1275.9588,1281.8939 1275.3025,1281.7064 Q1274.6463,1281.5032 1273.8494,1281.5032 Z " fill="#000000"/><text fill="#000000" font-family="sans-serif" font-size="14" lengthAdjust="spacing" textLength="118.5236" x="1287.74" y="1291.404">PolarizeDecorator</text><line style="stroke:#181818;stroke-width:0.5;" x1="1259.74" x2="1408.2636" y1="1301.972" y2="1301.972"/><line style="stroke:#181818;stroke-width:0.5;" x1="1259.74" x2="1408.2636" y1="1309.972" y2="1309.972"/></g><!--class RevealDecorator--><g class="entity" data-entity="RevealDecorator" data-source-line="104" data-uid="ent0021" id="entity_RevealDecorator"><rect fill="#F1F1F1" height="48" rx="2.5" ry="2.5" style="stroke:#181818;stroke-width:0.5;" width="141.3256" x="1444.34" y="1269.972"/><ellipse cx="1459.34" cy="1285.972" fill="#ADD1B2" rx="11" ry="11" style="stroke:#181818;stroke-width:1;"/><path d="M1459.4494,1281.5032 Q1458.5275,1281.5032 1457.7931,1281.8157 Q1457.0744,1282.1282 1456.5744,1282.722 Q1456.0744,1283.3001 1455.7931,1284.1751 Q1455.5275,1285.0501 1455.5275,1286.1439 Q1455.5275,1287.5814 1455.965,1288.6282 Q1456.4181,1289.6751 1457.2619,1290.222 Q1458.1213,1290.7689 1459.4338,1290.7689 Q1460.215,1290.7689 1460.9025,1290.6439 Q1461.6056,1290.5032 1462.6056,1290.1907 L1462.6056,1292.0657 Q1461.7463,1292.3939 1460.9806,1292.5189 Q1460.2306,1292.6439 1459.215,1292.6439 Q1457.2931,1292.6439 1455.9806,1291.847 Q1454.6838,1291.0345 1454.0275,1289.5657 Q1453.3713,1288.0814 1453.3713,1286.1126 Q1453.3713,1284.6907 1453.7619,1283.5189 Q1454.1681,1282.3314 1454.9494,1281.4564 Q1455.7306,1280.5814 1456.8713,1280.1126 Q1458.0119,1279.6282 1459.4806,1279.6282 Q1460.4338,1279.6282 1461.3244,1279.8314 Q1462.2306,1280.0189 1463.1681,1280.4876 L1462.34,1282.2689 Q1461.5588,1281.8939 1460.9025,1281.7064 Q1460.2463,1281.5032 1459.4494,1281.5032 Z " fill="#000000"/><text fill="#000000" font-family="sans-serif" font-size="14" lengthAdjust="spacing" textLength="109.3256" x="1473.34" y="1291.404">RevealDecorator</text><line style="stroke:#181818;stroke-width:0.5;" x1="1445.34" x2="1584.6656" y1="1301.972" y2="1301.972"/><line style="stroke:#181818;stroke-width:0.5;" x1="1445.34" x2="1584.6656" y1="1309.972" y2="1309.972"/></g><!--class LagDecorator--><g class="entity" data-entity="LagDecorator" data-source-line="107" data-uid="ent0022" id="entity_LagDecorator"><rect fill="#F1F1F1" height="67.0679" rx="2.5" ry="2.5" style="stroke:#181818;stroke-width:0.5;" width="122.0477" x="1620.98" y="1260.442"/><ellipse cx="1635.98" cy="1276.442" fill="#ADD1B2" rx="11" ry="11" style="stroke:#181818;stroke-width:1;"/><path d="M1636.0894,1271.9732 Q1635.1675,1271.9732 1634.4331,1272.2857 Q1633.7144,1272.5982 1633.2144,1273.192 Q1632.7144,1273.7701 1632.4331,1274.6451 Q1632.1675,1275.5201 1632.1675,1276.6139 Q1632.1675,1278.0514 1632.605,1279.0982 Q1633.0581,1280.1451 1633.9019,1280.692 Q1634.7613,1281.2389 1636.0738,1281.2389 Q1636.855,1281.2389 1637.5425,1281.1139 Q1638.2456,1280.9732 1639.2456,1280.6607 L1639.2456,1282.5357 Q1638.3863,1282.8639 1637.6206,1282.9889 Q1636.8706,1283.1139 1635.855,1283.1139 Q1633.9331,1283.1139 1632.6206,1282.317 Q1631.3238,1281.5045 1630.6675,1280.0357 Q1630.0113,1278.5514 1630.0113,1276.5826 Q1630.0113,1275.1607 1630.4019,1273.9889 Q1630.8081,1272.8014 1631.5894,1271.9264 Q1632.3706,1271.0514 1633.5113,1270.5826 Q1634.6519,1270.0982 1636.1206,1270.0982 Q1637.0738,1270.0982 1637.9644,1270.3014 Q1638.8706,1270.4889 1639.8081,1270.9576 L1638.98,1272.7389 Q1638.1988,1272.3639 1637.5425,1272.1764 Q1636.8863,1271.9732 1636.0894,1271.9732 Z " fill="#000000"/><text fill="#000000" font-family="sans-serif" font-size="14" lengthAdjust="spacing" textLength="90.0477" x="1649.98" y="1281.874">LagDecorator</text><line style="stroke:#181818;stroke-width:0.5;" x1="1621.98" x2="1742.0277" y1="1292.442" y2="1292.442"/><rect fill="none" height="6" style="stroke:#C82930;stroke-width:1;" width="6" x="1628.98" y="1304.4759"/><text fill="#000000" font-family="sans-serif" font-size="14" lengthAdjust="spacing" textLength="80.9057" x="1640.98" y="1311.4079">int turnsLeft</text><line style="stroke:#181818;stroke-width:0.5;" x1="1621.98" x2="1742.0277" y1="1319.5099" y2="1319.5099"/></g><!--class QuantumEntanglementDecorator--><g class="entity" data-entity="QuantumEntanglementDecorator" data-source-line="111" data-uid="ent0023" id="entity_QuantumEntanglementDecorator"><rect fill="#F1F1F1" height="67.0679" rx="2.5" ry="2.5" style="stroke:#181818;stroke-width:0.5;" width="253.9411" x="1778.03" y="1260.442"/><ellipse cx="1793.03" cy="1276.442" fill="#ADD1B2" rx="11" ry="11" style="stroke:#181818;stroke-width:1;"/><path d="M1793.1394,1271.9732 Q1792.2175,1271.9732 1791.4831,1272.2857 Q1790.7644,1272.5982 1790.2644,1273.192 Q1789.7644,1273.7701 1789.4831,1274.6451 Q1789.2175,1275.5201 1789.2175,1276.6139 Q1789.2175,1278.0514 1789.655,1279.0982 Q1790.1081,1280.1451 1790.9519,1280.692 Q1791.8113,1281.2389 1793.1238,1281.2389 Q1793.905,1281.2389 1794.5925,1281.1139 Q1795.2956,1280.9732 1796.2956,1280.6607 L1796.2956,1282.5357 Q1795.4363,1282.8639 1794.6706,1282.9889 Q1793.9206,1283.1139 1792.905,1283.1139 Q1790.9831,1283.1139 1789.6706,1282.317 Q1788.3738,1281.5045 1787.7175,1280.0357 Q1787.0613,1278.5514 1787.0613,1276.5826 Q1787.0613,1275.1607 1787.4519,1273.9889 Q1787.8581,1272.8014 1788.6394,1271.9264 Q1789.4206,1271.0514 1790.5613,1270.5826 Q1791.7019,1270.0982 1793.1706,1270.0982 Q1794.1238,1270.0982 1795.0144,1270.3014 Q1795.9206,1270.4889 1796.8581,1270.9576 L1796.03,1272.7389 Q1795.2488,1272.3639 1794.5925,1272.1764 Q1793.9363,1271.9732 1793.1394,1271.9732 Z " fill="#000000"/><text fill="#000000" font-family="sans-serif" font-size="14" lengthAdjust="spacing" textLength="221.9411" x="1807.03" y="1281.874">QuantumEntanglementDecorator</text><line style="stroke:#181818;stroke-width:0.5;" x1="1779.03" x2="2030.9711" y1="1292.442" y2="1292.442"/><rect fill="none" height="6" style="stroke:#C82930;stroke-width:1;" width="6" x="1786.03" y="1304.4759"/><text fill="#000000" font-family="sans-serif" font-size="14" lengthAdjust="spacing" textLength="88.0597" x="1798.03" y="1311.4079">Link* partner</text><line style="stroke:#181818;stroke-width:0.5;" x1="1779.03" x2="2030.9711" y1="1319.5099" y2="1319.5099"/></g><!--class Ability--><g class="entity" data-entity="Ability" data-source-line="115" data-uid="ent0024" id="entity_Ability"><rect fill="#F1F1F1" height="162.4075" rx="2.5" ry="2.5" style="stroke:#181818;stroke-width:0.5;" width="137.4956" x="2280.25" y="872.832"/><ellipse cx="2325.7499" cy="888.832" fill="#A9DCDF" rx="11" ry="11" style="stroke:#181818;stroke-width:1;"/><path d="M2329.0936,894.082 L2327.6249,890.332 L2323.1874,890.332 L2321.7499,894.082 L2319.6249,894.082 L2324.578,881.3632 L2326.328,881.3632 L2331.2499,894.082 L2329.0936,894.082 Z M2325.7499,885.1289 Q2325.703,884.9726 2325.578,884.6132 Q2325.453,884.2539 2325.3436,883.8789 Q2325.2342,883.4882 2325.4374,883.4257 Q2325.5936,883.6132 2325.4999,883.9726 Q2325.4061,884.3164 2325.3124,884.6132 Q2325.2186,884.8945 2325.1405,885.1289 L2323.9061,888.4414 L2326.9842,888.4414 L2325.7499,885.1289 Z " fill="#000000"/><text fill="#000000" font-family="sans-serif" font-size="14" font-style="italic" lengthAdjust="spacing" textLength="37.9958" x="2346.2499" y="894.264">Ability</text><line style="stroke:#181818;stroke-width:0.5;" x1="2281.25" x2="2416.7456" y1="904.832" y2="904.832"/><rect fill="none" height="6" style="stroke:#C82930;stroke-width:1;" width="6" x="2288.25" y="916.8659"/><text fill="#000000" font-family="sans-serif" font-size="14" lengthAdjust="spacing" textLength="79.5477" x="2300.25" y="923.7979">string name</text><rect fill="none" height="6" style="stroke:#C82930;stroke-width:1;" width="6" x="2288.25" y="935.9339"/><text fill="#000000" font-family="sans-serif" font-size="14" lengthAdjust="spacing" textLength="64.6658" x="2300.25" y="942.8658">bool used</text><line style="stroke:#181818;stroke-width:0.5;" x1="2281.25" x2="2416.7456" y1="950.9678" y2="950.9678"/><ellipse cx="2291.25" cy="966.0018" fill="#84BE84" rx="3" ry="3" style="stroke:#038048;stroke-width:1;"/><text fill="#000000" font-family="sans-serif" font-size="14" lengthAdjust="spacing" textLength="63.0977" x="2300.25" y="969.9338">void use()</text><ellipse cx="2291.25" cy="985.0697" fill="#84BE84" rx="3" ry="3" style="stroke:#038048;stroke-width:1;"/><text fill="#000000" font-family="sans-serif" font-size="14" lengthAdjust="spacing" textLength="84.9657" x="2300.25" y="989.0017">bool isUsed()</text><ellipse cx="2291.25" cy="1004.1376" fill="#84BE84" rx="3" ry="3" style="stroke:#038048;stroke-width:1;"/><text fill="#000000" font-family="sans-serif" font-size="14" lengthAdjust="spacing" textLength="107.4916" x="2300.25" y="1008.0696">void markUsed()</text><ellipse cx="2291.25" cy="1023.2055" fill="#84BE84" rx="3" ry="3" style="stroke:#038048;stroke-width:1;"/><text fill="#000000" font-family="sans-serif" font-size="14" lengthAdjust="spacing" textLength="111.4956" x="2300.25" y="1027.1375">string getName()</text></g><!--class FirewallAbility--><g class="entity" data-entity="FirewallAbility" data-source-line="125" data-uid="ent0025" id="entity_FirewallAbility"><rect fill="#F1F1F1" height="48" rx="2.5" ry="2.5" style="stroke:#181818;stroke-width:0.5;" width="123.2236" x="2766.39" y="1123.842"/><ellipse cx="2781.39" cy="1139.842" fill="#ADD1B2" rx="11" ry="11" style="stroke:#181818;stroke-width:1;"/><path d="M2781.4994,1135.3732 Q2780.5775,1135.3732 2779.8431,1135.6857 Q2779.1244,1135.9982 2778.6244,1136.592 Q2778.1244,1137.1701 2777.8431,1138.0451 Q2777.5775,1138.9201 2777.5775,1140.0139 Q2777.5775,1141.4514 2778.015,1142.4982 Q2778.4681,1143.5451 2779.3119,1144.092 Q2780.1713,1144.6389 2781.4838,1144.6389 Q2782.265,1144.6389 2782.9525,1144.5139 Q2783.6556,1144.3732 2784.6556,1144.0607 L2784.6556,1145.9357 Q2783.7963,1146.2639 2783.0306,1146.3889 Q2782.2806,1146.5139 2781.265,1146.5139 Q2779.3431,1146.5139 2778.0306,1145.717 Q2776.7338,1144.9045 2776.0775,1143.4357 Q2775.4213,1141.9514 2775.4213,1139.9826 Q2775.4213,1138.5607 2775.8119,1137.3889 Q2776.2181,1136.2014 2776.9994,1135.3264 Q2777.7806,1134.4514 2778.9213,1133.9826 Q2780.0619,1133.4982 2781.5306,1133.4982 Q2782.4838,1133.4982 2783.3744,1133.7014 Q2784.2806,1133.8889 2785.2181,1134.3576 L2784.39,1136.1389 Q2783.6088,1135.7639 2782.9525,1135.5764 Q2782.2963,1135.3732 2781.4994,1135.3732 Z " fill="#000000"/><text fill="#000000" font-family="sans-serif" font-size="14" lengthAdjust="spacing" textLength="91.2236" x="2795.39" y="1145.274">FirewallAbility</text><line style="stroke:#181818;stroke-width:0.5;" x1="2767.39" x2="2888.6136" y1="1155.842" y2="1155.842"/><line style="stroke:#181818;stroke-width:0.5;" x1="2767.39" x2="2888.6136" y1="1163.842" y2="1163.842"/></g><!--class DownloadAbility--><g class="entity" data-entity="DownloadAbility" data-source-line="128" data-uid="ent0026" id="entity_DownloadAbility"><rect fill="#F1F1F1" height="48" rx="2.5" ry="2.5" style="stroke:#181818;stroke-width:0.5;" width="139.4776" x="2924.26" y="1123.842"/><ellipse cx="2939.26" cy="1139.842" fill="#ADD1B2" rx="11" ry="11" style="stroke:#181818;stroke-width:1;"/><path d="M2939.3694,1135.3732 Q2938.4475,1135.3732 2937.7131,1135.6857 Q2936.9944,1135.9982 2936.4944,1136.592 Q2935.9944,1137.1701 2935.7131,1138.0451 Q2935.4475,1138.9201 2935.4475,1140.0139 Q2935.4475,1141.4514 2935.885,1142.4982 Q2936.3381,1143.5451 2937.1819,1144.092 Q2938.0413,1144.6389 2939.3538,1144.6389 Q2940.135,1144.6389 2940.8225,1144.5139 Q2941.5256,1144.3732 2942.5256,1144.0607 L2942.5256,1145.9357 Q2941.6663,1146.2639 2940.9006,1146.3889 Q2940.1506,1146.5139 2939.135,1146.5139 Q2937.2131,1146.5139 2935.9006,1145.717 Q2934.6038,1144.9045 2933.9475,1143.4357 Q2933.2913,1141.9514 2933.2913,1139.9826 Q2933.2913,1138.5607 2933.6819,1137.3889 Q2934.0881,1136.2014 2934.8694,1135.3264 Q2935.6506,1134.4514 2936.7913,1133.9826 Q2937.9319,1133.4982 2939.4006,1133.4982 Q2940.3538,1133.4982 2941.2444,1133.7014 Q2942.1506,1133.8889 2943.0881,1134.3576 L2942.26,1136.1389 Q2941.4788,1135.7639 2940.8225,1135.5764 Q2940.1663,1135.3732 2939.3694,1135.3732 Z " fill="#000000"/><text fill="#000000" font-family="sans-serif" font-size="14" lengthAdjust="spacing" textLength="107.4776" x="2953.26" y="1145.274">DownloadAbility</text><line style="stroke:#181818;stroke-width:0.5;" x1="2925.26" x2="3062.7376" y1="1155.842" y2="1155.842"/><line style="stroke:#181818;stroke-width:0.5;" x1="2925.26" x2="3062.7376" y1="1163.842" y2="1163.842"/></g><!--class PolarizeAbility--><g class="entity" data-entity="PolarizeAbility" data-source-line="131" data-uid="ent0027" id="entity_PolarizeAbility"><rect fill="#F1F1F1" height="48" rx="2.5" ry="2.5" style="stroke:#181818;stroke-width:0.5;" width="124.8616" x="3098.57" y="1123.842"/><ellipse cx="3113.57" cy="1139.842" fill="#ADD1B2" rx="11" ry="11" style="stroke:#181818;stroke-width:1;"/><path d="M3113.6794,1135.3732 Q3112.7575,1135.3732 3112.0231,1135.6857 Q3111.3044,1135.9982 3110.8044,1136.592 Q3110.3044,1137.1701 3110.0231,1138.0451 Q3109.7575,1138.9201 3109.7575,1140.0139 Q3109.7575,1141.4514 3110.195,1142.4982 Q3110.6481,1143.5451 3111.4919,1144.092 Q3112.3513,1144.6389 3113.6638,1144.6389 Q3114.445,1144.6389 3115.1325,1144.5139 Q3115.8356,1144.3732 3116.8356,1144.0607 L3116.8356,1145.9357 Q3115.9763,1146.2639 3115.2106,1146.3889 Q3114.4606,1146.5139 3113.445,1146.5139 Q3111.5231,1146.5139 3110.2106,1145.717 Q3108.9138,1144.9045 3108.2575,1143.4357 Q3107.6013,1141.9514 3107.6013,1139.9826 Q3107.6013,1138.5607 3107.9919,1137.3889 Q3108.3981,1136.2014 3109.1794,1135.3264 Q3109.9606,1134.4514 3111.1013,1133.9826 Q3112.2419,1133.4982 3113.7106,1133.4982 Q3114.6638,1133.4982 3115.5544,1133.7014 Q3116.4606,1133.8889 3117.3981,1134.3576 L3116.57,1136.1389 Q3115.7888,1135.7639 3115.1325,1135.5764 Q3114.4763,1135.3732 3113.6794,1135.3732 Z " fill="#000000"/><text fill="#000000" font-family="sans-serif" font-size="14" lengthAdjust="spacing" textLength="92.8616" x="3127.57" y="1145.274">PolarizeAbility</text><line style="stroke:#181818;stroke-width:0.5;" x1="3099.57" x2="3222.4316" y1="1155.842" y2="1155.842"/><line style="stroke:#181818;stroke-width:0.5;" x1="3099.57" x2="3222.4316" y1="1163.842" y2="1163.842"/></g><!--class ScanAbility--><g class="entity" data-entity="ScanAbility" data-source-line="134" data-uid="ent0028" id="entity_ScanAbility"><rect fill="#F1F1F1" height="48" rx="2.5" ry="2.5" style="stroke:#181818;stroke-width:0.5;" width="103.4977" x="1908.25" y="1123.842"/><ellipse cx="1923.25" cy="1139.842" fill="#ADD1B2" rx="11" ry="11" style="stroke:#181818;stroke-width:1;"/><path d="M1923.3594,1135.3732 Q1922.4375,1135.3732 1921.7031,1135.6857 Q1920.9844,1135.9982 1920.4844,1136.592 Q1919.9844,1137.1701 1919.7031,1138.0451 Q1919.4375,1138.9201 1919.4375,1140.0139 Q1919.4375,1141.4514 1919.875,1142.4982 Q1920.3281,1143.5451 1921.1719,1144.092 Q1922.0313,1144.6389 1923.3438,1144.6389 Q1924.125,1144.6389 1924.8125,1144.5139 Q1925.5156,1144.3732 1926.5156,1144.0607 L1926.5156,1145.9357 Q1925.6563,1146.2639 1924.8906,1146.3889 Q1924.1406,1146.5139 1923.125,1146.5139 Q1921.2031,1146.5139 1919.8906,1145.717 Q1918.5938,1144.9045 1917.9375,1143.4357 Q1917.2813,1141.9514 1917.2813,1139.9826 Q1917.2813,1138.5607 1917.6719,1137.3889 Q1918.0781,1136.2014 1918.8594,1135.3264 Q1919.6406,1134.4514 1920.7813,1133.9826 Q1921.9219,1133.4982 1923.3906,1133.4982 Q1924.3438,1133.4982 1925.2344,1133.7014 Q1926.1406,1133.8889 1927.0781,1134.3576 L1926.25,1136.1389 Q1925.4688,1135.7639 1924.8125,1135.5764 Q1924.1563,1135.3732 1923.3594,1135.3732 Z " fill="#000000"/><text fill="#000000" font-family="sans-serif" font-size="14" lengthAdjust="spacing" textLength="71.4977" x="1937.25" y="1145.274">ScanAbility</text><line style="stroke:#181818;stroke-width:0.5;" x1="1909.25" x2="2010.7477" y1="1155.842" y2="1155.842"/><line style="stroke:#181818;stroke-width:0.5;" x1="1909.25" x2="2010.7477" y1="1163.842" y2="1163.842"/></g><!--class LinkBoostAbility--><g class="entity" data-entity="LinkBoostAbility" data-source-line="137" data-uid="ent0029" id="entity_LinkBoostAbility"><rect fill="#F1F1F1" height="48" rx="2.5" ry="2.5" style="stroke:#181818;stroke-width:0.5;" width="137.4616" x="2046.27" y="1123.842"/><ellipse cx="2061.27" cy="1139.842" fill="#ADD1B2" rx="11" ry="11" style="stroke:#181818;stroke-width:1;"/><path d="M2061.3794,1135.3732 Q2060.4575,1135.3732 2059.7231,1135.6857 Q2059.0044,1135.9982 2058.5044,1136.592 Q2058.0044,1137.1701 2057.7231,1138.0451 Q2057.4575,1138.9201 2057.4575,1140.0139 Q2057.4575,1141.4514 2057.895,1142.4982 Q2058.3481,1143.5451 2059.1919,1144.092 Q2060.0513,1144.6389 2061.3638,1144.6389 Q2062.145,1144.6389 2062.8325,1144.5139 Q2063.5356,1144.3732 2064.5356,1144.0607 L2064.5356,1145.9357 Q2063.6763,1146.2639 2062.9106,1146.3889 Q2062.1606,1146.5139 2061.145,1146.5139 Q2059.2231,1146.5139 2057.9106,1145.717 Q2056.6138,1144.9045 2055.9575,1143.4357 Q2055.3013,1141.9514 2055.3013,1139.9826 Q2055.3013,1138.5607 2055.6919,1137.3889 Q2056.0981,1136.2014 2056.8794,1135.3264 Q2057.6606,1134.4514 2058.8013,1133.9826 Q2059.9419,1133.4982 2061.4106,1133.4982 Q2062.3638,1133.4982 2063.2544,1133.7014 Q2064.1606,1133.8889 2065.0981,1134.3576 L2064.27,1136.1389 Q2063.4888,1135.7639 2062.8325,1135.5764 Q2062.1763,1135.3732 2061.3794,1135.3732 Z " fill="#000000"/><text fill="#000000" font-family="sans-serif" font-size="14" lengthAdjust="spacing" textLength="105.4616" x="2075.27" y="1145.274">LinkBoostAbility</text><line style="stroke:#181818;stroke-width:0.5;" x1="2047.27" x2="2182.7316" y1="1155.842" y2="1155.842"/><line style="stroke:#181818;stroke-width:0.5;" x1="2047.27" x2="2182.7316" y1="1163.842" y2="1163.842"/></g><!--class PappleAbility--><g class="entity" data-entity="PappleAbility" data-source-line="140" data-uid="ent0030" id="entity_PappleAbility"><rect fill="#F1F1F1" height="48" rx="2.5" ry="2.5" style="stroke:#181818;stroke-width:0.5;" width="117.6377" x="2219.18" y="1123.842"/><ellipse cx="2234.18" cy="1139.842" fill="#ADD1B2" rx="11" ry="11" style="stroke:#181818;stroke-width:1;"/><path d="M2234.2894,1135.3732 Q2233.3675,1135.3732 2232.6331,1135.6857 Q2231.9144,1135.9982 2231.4144,1136.592 Q2230.9144,1137.1701 2230.6331,1138.0451 Q2230.3675,1138.9201 2230.3675,1140.0139 Q2230.3675,1141.4514 2230.805,1142.4982 Q2231.2581,1143.5451 2232.1019,1144.092 Q2232.9613,1144.6389 2234.2738,1144.6389 Q2235.055,1144.6389 2235.7425,1144.5139 Q2236.4456,1144.3732 2237.4456,1144.0607 L2237.4456,1145.9357 Q2236.5863,1146.2639 2235.8206,1146.3889 Q2235.0706,1146.5139 2234.055,1146.5139 Q2232.1331,1146.5139 2230.8206,1145.717 Q2229.5238,1144.9045 2228.8675,1143.4357 Q2228.2113,1141.9514 2228.2113,1139.9826 Q2228.2113,1138.5607 2228.6019,1137.3889 Q2229.0081,1136.2014 2229.7894,1135.3264 Q2230.5706,1134.4514 2231.7113,1133.9826 Q2232.8519,1133.4982 2234.3206,1133.4982 Q2235.2738,1133.4982 2236.1644,1133.7014 Q2237.0706,1133.8889 2238.0081,1134.3576 L2237.18,1136.1389 Q2236.3988,1135.7639 2235.7425,1135.5764 Q2235.0863,1135.3732 2234.2894,1135.3732 Z " fill="#000000"/><text fill="#000000" font-family="sans-serif" font-size="14" lengthAdjust="spacing" textLength="85.6377" x="2248.18" y="1145.274">PappleAbility</text><line style="stroke:#181818;stroke-width:0.5;" x1="2220.18" x2="2335.8177" y1="1155.842" y2="1155.842"/><line style="stroke:#181818;stroke-width:0.5;" x1="2220.18" x2="2335.8177" y1="1163.842" y2="1163.842"/></g><!--class LagAbility--><g class="entity" data-entity="LagAbility" data-source-line="143" data-uid="ent0031" id="entity_LagAbility"><rect fill="#F1F1F1" height="48" rx="2.5" ry="2.5" style="stroke:#181818;stroke-width:0.5;" width="96.3858" x="2371.81" y="1123.842"/><ellipse cx="2386.81" cy="1139.842" fill="#ADD1B2" rx="11" ry="11" style="stroke:#181818;stroke-width:1;"/><path d="M2386.9194,1135.3732 Q2385.9975,1135.3732 2385.2631,1135.6857 Q2384.5444,1135.9982 2384.0444,1136.592 Q2383.5444,1137.1701 2383.2631,1138.0451 Q2382.9975,1138.9201 2382.9975,1140.0139 Q2382.9975,1141.4514 2383.435,1142.4982 Q2383.8881,1143.5451 2384.7319,1144.092 Q2385.5913,1144.6389 2386.9038,1144.6389 Q2387.685,1144.6389 2388.3725,1144.5139 Q2389.0756,1144.3732 2390.0756,1144.0607 L2390.0756,1145.9357 Q2389.2163,1146.2639 2388.4506,1146.3889 Q2387.7006,1146.5139 2386.685,1146.5139 Q2384.7631,1146.5139 2383.4506,1145.717 Q2382.1538,1144.9045 2381.4975,1143.4357 Q2380.8413,1141.9514 2380.8413,1139.9826 Q2380.8413,1138.5607 2381.2319,1137.3889 Q2381.6381,1136.2014 2382.4194,1135.3264 Q2383.2006,1134.4514 2384.3413,1133.9826 Q2385.4819,1133.4982 2386.9506,1133.4982 Q2387.9038,1133.4982 2388.7944,1133.7014 Q2389.7006,1133.8889 2390.6381,1134.3576 L2389.81,1136.1389 Q2389.0288,1135.7639 2388.3725,1135.5764 Q2387.7163,1135.3732 2386.9194,1135.3732 Z " fill="#000000"/><text fill="#000000" font-family="sans-serif" font-size="14" lengthAdjust="spacing" textLength="64.3858" x="2400.81" y="1145.274">LagAbility</text><line style="stroke:#181818;stroke-width:0.5;" x1="2372.81" x2="2467.1958" y1="1155.842" y2="1155.842"/><line style="stroke:#181818;stroke-width:0.5;" x1="2372.81" x2="2467.1958" y1="1163.842" y2="1163.842"/></g><!--class QuantumEntanglementAbility--><g class="entity" data-entity="QuantumEntanglementAbility" data-source-line="146" data-uid="ent0032" id="entity_QuantumEntanglementAbility"><rect fill="#F1F1F1" height="48" rx="2.5" ry="2.5" style="stroke:#181818;stroke-width:0.5;" width="228.2792" x="2502.86" y="1123.842"/><ellipse cx="2517.86" cy="1139.842" fill="#ADD1B2" rx="11" ry="11" style="stroke:#181818;stroke-width:1;"/><path d="M2517.9694,1135.3732 Q2517.0475,1135.3732 2516.3131,1135.6857 Q2515.5944,1135.9982 2515.0944,1136.592 Q2514.5944,1137.1701 2514.3131,1138.0451 Q2514.0475,1138.9201 2514.0475,1140.0139 Q2514.0475,1141.4514 2514.485,1142.4982 Q2514.9381,1143.5451 2515.7819,1144.092 Q2516.6413,1144.6389 2517.9538,1144.6389 Q2518.735,1144.6389 2519.4225,1144.5139 Q2520.1256,1144.3732 2521.1256,1144.0607 L2521.1256,1145.9357 Q2520.2663,1146.2639 2519.5006,1146.3889 Q2518.7506,1146.5139 2517.735,1146.5139 Q2515.8131,1146.5139 2514.5006,1145.717 Q2513.2038,1144.9045 2512.5475,1143.4357 Q2511.8913,1141.9514 2511.8913,1139.9826 Q2511.8913,1138.5607 2512.2819,1137.3889 Q2512.6881,1136.2014 2513.4694,1135.3264 Q2514.2506,1134.4514 2515.3913,1133.9826 Q2516.5319,1133.4982 2518.0006,1133.4982 Q2518.9538,1133.4982 2519.8444,1133.7014 Q2520.7506,1133.8889 2521.6881,1134.3576 L2520.86,1136.1389 Q2520.0788,1135.7639 2519.4225,1135.5764 Q2518.7663,1135.3732 2517.9694,1135.3732 Z " fill="#000000"/><text fill="#000000" font-family="sans-serif" font-size="14" lengthAdjust="spacing" textLength="196.2792" x="2531.86" y="1145.274">QuantumEntanglementAbility</text><line style="stroke:#181818;stroke-width:0.5;" x1="2503.86" x2="2730.1392" y1="1155.842" y2="1155.842"/><line style="stroke:#181818;stroke-width:0.5;" x1="2503.86" x2="2730.1392" y1="1163.842" y2="1163.842"/></g><!--class View--><g class="entity" data-entity="View" data-source-line="152" data-uid="ent0034" id="entity_View"><rect fill="#F1F1F1" height="105.2038" rx="2.5" ry="2.5" style="stroke:#181818;stroke-width:0.5;" width="196.5893" x="3278.71" y="332.672"/><ellipse cx="3358.5307" cy="348.672" fill="#A9DCDF" rx="11" ry="11" style="stroke:#181818;stroke-width:1;"/><path d="M3361.8745,353.922 L3360.4057,350.172 L3355.9682,350.172 L3354.5307,353.922 L3352.4057,353.922 L3357.3588,341.2032 L3359.1088,341.2032 L3364.0307,353.922 L3361.8745,353.922 Z M3358.5307,344.9689 Q3358.4838,344.8126 3358.3588,344.4532 Q3358.2338,344.0939 3358.1245,343.7189 Q3358.0151,343.3282 3358.2182,343.2657 Q3358.3745,343.4532 3358.2807,343.8126 Q3358.187,344.1564 3358.0932,344.4532 Q3357.9995,344.7345 3357.9213,344.9689 L3356.687,348.2814 L3359.7651,348.2814 L3358.5307,344.9689 Z " fill="#000000"/><text fill="#000000" font-family="sans-serif" font-size="14" font-style="italic" lengthAdjust="spacing" textLength="28.4479" x="3379.0307" y="354.104">View</text><line style="stroke:#181818;stroke-width:0.5;" x1="3279.71" x2="3474.2993" y1="364.672" y2="364.672"/><line style="stroke:#181818;stroke-width:0.5;" x1="3279.71" x2="3474.2993" y1="372.672" y2="372.672"/><ellipse cx="3289.71" cy="387.7059" fill="#84BE84" rx="3" ry="3" style="stroke:#038048;stroke-width:1;"/><text fill="#000000" font-family="sans-serif" font-size="14" lengthAdjust="spacing" textLength="86.5197" x="3298.71" y="391.6379">void update()</text><ellipse cx="3289.71" cy="406.7739" fill="#84BE84" rx="3" ry="3" style="stroke:#038048;stroke-width:1;"/><text fill="#000000" font-family="sans-serif" font-size="14" lengthAdjust="spacing" textLength="85.9877" x="3298.71" y="410.7058">void display()</text><ellipse cx="3289.71" cy="425.8418" fill="#84BE84" rx="3" ry="3" style="stroke:#038048;stroke-width:1;"/><text fill="#000000" font-family="sans-serif" font-size="14" lengthAdjust="spacing" textLength="170.5893" x="3298.71" y="429.7738">void notify(Player* player)</text></g><!--class TextView--><g class="entity" data-entity="TextView" data-source-line="158" data-uid="ent0035" id="entity_TextView"><rect fill="#F1F1F1" height="48" rx="2.5" ry="2.5" style="stroke:#181818;stroke-width:0.5;" width="91.0518" x="3279.47" y="669.492"/><ellipse cx="3294.47" cy="685.492" fill="#ADD1B2" rx="11" ry="11" style="stroke:#181818;stroke-width:1;"/><path d="M3294.5794,681.0232 Q3293.6575,681.0232 3292.9231,681.3357 Q3292.2044,681.6482 3291.7044,682.242 Q3291.2044,682.8201 3290.9231,683.6951 Q3290.6575,684.5701 3290.6575,685.6639 Q3290.6575,687.1014 3291.095,688.1482 Q3291.5481,689.1951 3292.3919,689.742 Q3293.2513,690.2889 3294.5638,690.2889 Q3295.345,690.2889 3296.0325,690.1639 Q3296.7356,690.0232 3297.7356,689.7107 L3297.7356,691.5857 Q3296.8763,691.9139 3296.1106,692.0389 Q3295.3606,692.1639 3294.345,692.1639 Q3292.4231,692.1639 3291.1106,691.367 Q3289.8138,690.5545 3289.1575,689.0857 Q3288.5013,687.6014 3288.5013,685.6326 Q3288.5013,684.2107 3288.8919,683.0389 Q3289.2981,681.8514 3290.0794,680.9764 Q3290.8606,680.1014 3292.0013,679.6326 Q3293.1419,679.1482 3294.6106,679.1482 Q3295.5638,679.1482 3296.4544,679.3514 Q3297.3606,679.5389 3298.2981,680.0076 L3297.47,681.7889 Q3296.6888,681.4139 3296.0325,681.2264 Q3295.3763,681.0232 3294.5794,681.0232 Z " fill="#000000"/><text fill="#000000" font-family="sans-serif" font-size="14" lengthAdjust="spacing" textLength="59.0518" x="3308.47" y="690.924">TextView</text><line style="stroke:#181818;stroke-width:0.5;" x1="3280.47" x2="3369.5218" y1="701.492" y2="701.492"/><line style="stroke:#181818;stroke-width:0.5;" x1="3280.47" x2="3369.5218" y1="709.492" y2="709.492"/></g><!--class GraphicalView--><g class="entity" data-entity="GraphicalView" data-source-line="161" data-uid="ent0036" id="entity_GraphicalView"><rect fill="#F1F1F1" height="48" rx="2.5" ry="2.5" style="stroke:#181818;stroke-width:0.5;" width="125.7996" x="3405.1" y="669.492"/><ellipse cx="3420.1" cy="685.492" fill="#ADD1B2" rx="11" ry="11" style="stroke:#181818;stroke-width:1;"/><path d="M3420.2094,681.0232 Q3419.2875,681.0232 3418.5531,681.3357 Q3417.8344,681.6482 3417.3344,682.242 Q3416.8344,682.8201 3416.5531,683.6951 Q3416.2875,684.5701 3416.2875,685.6639 Q3416.2875,687.1014 3416.725,688.1482 Q3417.1781,689.1951 3418.0219,689.742 Q3418.8813,690.2889 3420.1938,690.2889 Q3420.975,690.2889 3421.6625,690.1639 Q3422.3656,690.0232 3423.3656,689.7107 L3423.3656,691.5857 Q3422.5063,691.9139 3421.7406,692.0389 Q3420.9906,692.1639 3419.975,692.1639 Q3418.0531,692.1639 3416.7406,691.367 Q3415.4438,690.5545 3414.7875,689.0857 Q3414.1313,687.6014 3414.1313,685.6326 Q3414.1313,684.2107 3414.5219,683.0389 Q3414.9281,681.8514 3415.7094,680.9764 Q3416.4906,680.1014 3417.6313,679.6326 Q3418.7719,679.1482 3420.2406,679.1482 Q3421.1938,679.1482 3422.0844,679.3514 Q3422.9906,679.5389 3423.9281,680.0076 L3423.1,681.7889 Q3422.3188,681.4139 3421.6625,681.2264 Q3421.0063,681.0232 3420.2094,681.0232 Z " fill="#000000"/><text fill="#000000" font-family="sans-serif" font-size="14" lengthAdjust="spacing" textLength="93.7996" x="3434.1" y="690.924">GraphicalView</text><line style="stroke:#181818;stroke-width:0.5;" x1="3406.1" x2="3529.8996" y1="701.492" y2="701.492"/><line style="stroke:#181818;stroke-width:0.5;" x1="3406.1" x2="3529.8996" y1="709.492" y2="709.492"/></g><!--class Controller--><g class="entity" data-entity="Controller" data-source-line="167" data-uid="ent0038" id="entity_Controller"><rect fill="#F1F1F1" height="124.2717" rx="2.5" ry="2.5" style="stroke:#181818;stroke-width:0.5;" width="384.7067" x="1977.65" y="44.602"/><ellipse cx="2132.6645" cy="60.602" fill="#ADD1B2" rx="11" ry="11" style="stroke:#181818;stroke-width:1;"/><path d="M2132.7738,56.1332 Q2131.852,56.1332 2131.1176,56.4457 Q2130.3988,56.7582 2129.8988,57.352 Q2129.3988,57.9301 2129.1176,58.8051 Q2128.852,59.6801 2128.852,60.7739 Q2128.852,62.2114 2129.2895,63.2582 Q2129.7426,64.3051 2130.5863,64.852 Q2131.4457,65.3989 2132.7582,65.3989 Q2133.5395,65.3989 2134.227,65.2739 Q2134.9301,65.1332 2135.9301,64.8207 L2135.9301,66.6957 Q2135.0707,67.0239 2134.3051,67.1489 Q2133.5551,67.2739 2132.5395,67.2739 Q2130.6176,67.2739 2129.3051,66.477 Q2128.0082,65.6645 2127.352,64.1957 Q2126.6957,62.7114 2126.6957,60.7426 Q2126.6957,59.3207 2127.0863,58.1489 Q2127.4926,56.9614 2128.2738,56.0864 Q2129.0551,55.2114 2130.1957,54.7426 Q2131.3363,54.2582 2132.8051,54.2582 Q2133.7582,54.2582 2134.6488,54.4614 Q2135.5551,54.6489 2136.4926,55.1176 L2135.6645,56.8989 Q2134.8832,56.5239 2134.227,56.3364 Q2133.5707,56.1332 2132.7738,56.1332 Z " fill="#000000"/><text fill="#000000" font-family="sans-serif" font-size="14" lengthAdjust="spacing" textLength="66.1777" x="2153.1645" y="66.034">Controller</text><line style="stroke:#181818;stroke-width:0.5;" x1="1978.65" x2="2361.3567" y1="76.602" y2="76.602"/><rect fill="none" height="6" style="stroke:#C82930;stroke-width:1;" width="6" x="1985.65" y="88.6359"/><text fill="#000000" font-family="sans-serif" font-size="14" lengthAdjust="spacing" textLength="184.9812" x="1997.65" y="95.5679">vector&lt;vector&lt;View&gt;&gt; views</text><rect fill="none" height="6" style="stroke:#C82930;stroke-width:1;" width="6" x="1985.65" y="107.7039"/><text fill="#000000" font-family="sans-serif" font-size="14" lengthAdjust="spacing" textLength="87.8357" x="1997.65" y="114.6358">Game* game</text><line style="stroke:#181818;stroke-width:0.5;" x1="1978.65" x2="2361.3567" y1="122.7378" y2="122.7378"/><ellipse cx="1988.65" cy="137.7718" fill="#84BE84" rx="3" ry="3" style="stroke:#038048;stroke-width:1;"/><text fill="#000000" font-family="sans-serif" font-size="14" lengthAdjust="spacing" textLength="134.8475" x="1997.65" y="141.7038">void runGameLoop()</text><ellipse cx="1988.65" cy="156.8397" fill="#84BE84" rx="3" ry="3" style="stroke:#038048;stroke-width:1;"/><text fill="#000000" font-family="sans-serif" font-size="14" lengthAdjust="spacing" textLength="358.7067" x="1997.65" y="160.7717">void parseCommand(const std::string&amp; commandLine)</text></g><!--class LinkFactory--><g class="entity" data-entity="LinkFactory" data-source-line="178" data-uid="ent0040" id="entity_LinkFactory"><rect fill="#F1F1F1" height="67.0679" rx="2.5" ry="2.5" style="stroke:#181818;stroke-width:0.5;" width="274.863" x="392.57" y="920.502"/><ellipse cx="488.0707" cy="936.502" fill="#ADD1B2" rx="11" ry="11" style="stroke:#181818;stroke-width:1;"/><path d="M488.18,932.0332 Q487.2582,932.0332 486.5238,932.3457 Q485.805,932.6582 485.305,933.252 Q484.805,933.8301 484.5238,934.7051 Q484.2582,935.5801 484.2582,936.6739 Q484.2582,938.1114 484.6957,939.1582 Q485.1488,940.2051 485.9925,940.752 Q486.8519,941.2989 488.1644,941.2989 Q488.9457,941.2989 489.6332,941.1739 Q490.3363,941.0332 491.3363,940.7207 L491.3363,942.5957 Q490.4769,942.9239 489.7113,943.0489 Q488.9613,943.1739 487.9457,943.1739 Q486.0238,943.1739 484.7113,942.377 Q483.4144,941.5645 482.7582,940.0957 Q482.1019,938.6114 482.1019,936.6426 Q482.1019,935.2207 482.4925,934.0489 Q482.8988,932.8614 483.68,931.9864 Q484.4613,931.1114 485.6019,930.6426 Q486.7425,930.1582 488.2113,930.1582 Q489.1644,930.1582 490.055,930.3614 Q490.9613,930.5489 491.8988,931.0176 L491.0707,932.7989 Q490.2894,932.4239 489.6332,932.2364 Q488.9769,932.0332 488.18,932.0332 Z " fill="#000000"/><text fill="#000000" font-family="sans-serif" font-size="14" lengthAdjust="spacing" textLength="75.3617" x="508.5707" y="941.934">LinkFactory</text><line style="stroke:#181818;stroke-width:0.5;" x1="393.57" x2="666.433" y1="952.502" y2="952.502"/><line style="stroke:#181818;stroke-width:0.5;" x1="393.57" x2="666.433" y1="960.502" y2="960.502"/><ellipse cx="403.57" cy="975.5359" fill="#84BE84" rx="3" ry="3" style="stroke:#038048;stroke-width:1;"/><text fill="#000000" font-family="sans-serif" font-size="14" lengthAdjust="spacing" textLength="248.863" x="412.57" y="979.4679">Link* createPlayerLink(Player* player)</text></g><!--class AbilityFactory--><g class="entity" data-entity="AbilityFactory" data-source-line="182" data-uid="ent0041" id="entity_AbilityFactory"><rect fill="#F1F1F1" height="67.0679" rx="2.5" ry="2.5" style="stroke:#181818;stroke-width:0.5;" width="301.8829" x="702.06" y="920.502"/><ellipse cx="804.3156" cy="936.502" fill="#ADD1B2" rx="11" ry="11" style="stroke:#181818;stroke-width:1;"/><path d="M804.425,932.0332 Q803.5031,932.0332 802.7688,932.3457 Q802.05,932.6582 801.55,933.252 Q801.05,933.8301 800.7688,934.7051 Q800.5031,935.5801 800.5031,936.6739 Q800.5031,938.1114 800.9406,939.1582 Q801.3938,940.2051 802.2375,940.752 Q803.0969,941.2989 804.4094,941.2989 Q805.1906,941.2989 805.8781,941.1739 Q806.5813,941.0332 807.5813,940.7207 L807.5813,942.5957 Q806.7219,942.9239 805.9563,943.0489 Q805.2063,943.1739 804.1906,943.1739 Q802.2688,943.1739 800.9563,942.377 Q799.6594,941.5645 799.0031,940.0957 Q798.3469,938.6114 798.3469,936.6426 Q798.3469,935.2207 798.7375,934.0489 Q799.1438,932.8614 799.925,931.9864 Q800.7063,931.1114 801.8469,930.6426 Q802.9875,930.1582 804.4563,930.1582 Q805.4094,930.1582 806.3,930.3614 Q807.2063,930.5489 808.1438,931.0176 L807.3156,932.7989 Q806.5344,932.4239 805.8781,932.2364 Q805.2219,932.0332 804.425,932.0332 Z " fill="#000000"/><text fill="#000000" font-family="sans-serif" font-size="14" lengthAdjust="spacing" textLength="88.8717" x="824.8156" y="941.934">AbilityFactory</text><line style="stroke:#181818;stroke-width:0.5;" x1="703.06" x2="1002.9429" y1="952.502" y2="952.502"/><line style="stroke:#181818;stroke-width:0.5;" x1="703.06" x2="1002.9429" y1="960.502" y2="960.502"/><ellipse cx="713.06" cy="975.5359" fill="#84BE84" rx="3" ry="3" style="stroke:#038048;stroke-width:1;"/><text fill="#000000" font-family="sans-serif" font-size="14" lengthAdjust="spacing" textLength="275.8829" x="722.06" y="979.4679">Ability* createPlayerAbility(Player* player)</text></g><!--class LinkDecoratorFactory--><g class="entity" data-entity="LinkDecoratorFactory" data-source-line="186" data-uid="ent0042" id="entity_LinkDecoratorFactory"><rect fill="#F1F1F1" height="67.0679" rx="2.5" ry="2.5" style="stroke:#181818;stroke-width:0.5;" width="335.3848" x="22.31" y="920.502"/><ellipse cx="114.9477" cy="936.502" fill="#ADD1B2" rx="11" ry="11" style="stroke:#181818;stroke-width:1;"/><path d="M115.057,932.0332 Q114.1352,932.0332 113.4008,932.3457 Q112.682,932.6582 112.182,933.252 Q111.682,933.8301 111.4008,934.7051 Q111.1352,935.5801 111.1352,936.6739 Q111.1352,938.1114 111.5727,939.1582 Q112.0258,940.2051 112.8695,940.752 Q113.7289,941.2989 115.0414,941.2989 Q115.8227,941.2989 116.5102,941.1739 Q117.2133,941.0332 118.2133,940.7207 L118.2133,942.5957 Q117.3539,942.9239 116.5883,943.0489 Q115.8383,943.1739 114.8227,943.1739 Q112.9008,943.1739 111.5883,942.377 Q110.2914,941.5645 109.6352,940.0957 Q108.9789,938.6114 108.9789,936.6426 Q108.9789,935.2207 109.3695,934.0489 Q109.7758,932.8614 110.557,931.9864 Q111.3383,931.1114 112.4789,930.6426 Q113.6195,930.1582 115.0883,930.1582 Q116.0414,930.1582 116.932,930.3614 Q117.8383,930.5489 118.7758,931.0176 L117.9477,932.7989 Q117.1664,932.4239 116.5102,932.2364 Q115.8539,932.0332 115.057,932.0332 Z " fill="#000000"/><text fill="#000000" font-family="sans-serif" font-size="14" lengthAdjust="spacing" textLength="141.6095" x="135.4477" y="941.934">LinkDecoratorFactory</text><line style="stroke:#181818;stroke-width:0.5;" x1="23.31" x2="356.6948" y1="952.502" y2="952.502"/><line style="stroke:#181818;stroke-width:0.5;" x1="23.31" x2="356.6948" y1="960.502" y2="960.502"/><ellipse cx="33.31" cy="975.5359" fill="#84BE84" rx="3" ry="3" style="stroke:#038048;stroke-width:1;"/><text fill="#000000" font-family="sans-serif" font-size="14" lengthAdjust="spacing" textLength="309.3848" x="42.31" y="979.4679">LinkDecorator* createLinkDecorator(Link* link)</text></g><!--reverse link Game to Board--><g class="link" data-entity-1="Game" data-entity-2="Board" data-source-line="194" data-uid="lnk43" id="link_Game_Board"><path codeLine="194" d="M1767.9843,534.4141 C1757.2543,553.8241 1753.38,563.542 1746,583.682 C1678.14,768.962 1669.92,1008.462 1669.58,1104.382" fill="none" id="Game-backto-Board" style="stroke:#181818;stroke-width:1;"/><polygon fill="#181818" points="1773.79,523.912,1767.3865,527.2278,1767.9843,534.4141,1774.3879,531.0983,1773.79,523.912" style="stroke:#181818;stroke-width:1;"/></g><!--reverse link Game to Player--><g class="link" data-entity-1="Game" data-entity-2="Player" data-source-line="195" data-uid="lnk44" id="link_Game_Player"><path codeLine="195" d="M1872,536.152 C1872,556.002 1872,564.182 1872,583.372" fill="none" id="Game-backto-Player" style="stroke:#181818;stroke-width:1;"/><polygon fill="#181818" points="1872,524.152,1868,530.152,1872,536.152,1876,530.152,1872,524.152" style="stroke:#181818;stroke-width:1;"/></g><!--reverse link Board to BaseCell--><g class="link" data-entity-1="Board" data-entity-2="BaseCell" data-source-line="197" data-uid="lnk45" id="link_Board_BaseCell"><path codeLine="197" d="M1848.004,1190.5724 C1914.814,1207.7024 1980.47,1226.512 2049,1250.912 C2054.64,1252.912 2060.42,1255.122 2066.2,1257.432" fill="none" id="Board-backto-BaseCell" style="stroke:#181818;stroke-width:1;"/><polygon fill="#181818" points="1836.38,1187.592,1841.1985,1192.9568,1848.004,1190.5724,1843.1855,1185.2075,1836.38,1187.592" style="stroke:#181818;stroke-width:1;"/></g><!--reverse link BaseCell to Link--><g class="link" data-entity-1="BaseCell" data-entity-2="Link" data-source-line="198" data-uid="lnk46" id="link_BaseCell_Link"><path codeLine="198" d="M2054.9385,1252.3158 C2049.1785,1250.2758 2054.7,1252.442 2049,1250.912 C1927.52,1218.142 1586.88,1266.102 1486,1190.912 C1452.73,1166.112 1471.61,1140.192 1450,1104.772 C1437.62,1084.472 1422.58,1064.072 1407.28,1045.152" fill="none" id="BaseCell-backto-Link" style="stroke:#181818;stroke-width:1;"/><polygon fill="none" points="2066.25,1256.322,2061.9296,1250.5484,2054.9385,1252.3158,2059.2588,1258.0894,2066.25,1256.322" style="stroke:#181818;stroke-width:1;"/></g><!--reverse link Player to Ability--><g class="link" data-entity-1="Player" data-entity-2="Ability" data-source-line="200" data-uid="lnk47" id="link_Player_Ability"><path codeLine="200" d="M1991.0901,759.0399 C2083.0501,808.8799 2201.57,873.122 2280.01,915.642" fill="none" id="Player-backto-Ability" style="stroke:#181818;stroke-width:1;"/><polygon fill="#181818" points="1980.54,753.322,1983.9091,759.6977,1991.0901,759.0399,1987.721,752.6642,1980.54,753.322" style="stroke:#181818;stroke-width:1;"/></g><!--reverse link Player to Link--><g class="link" data-entity-1="Player" data-entity-2="Link" data-source-line="201" data-uid="lnk48" id="link_Player_Link"><path codeLine="201" d="M1752.5573,750.8424 C1669.0073,790.2624 1563.53,840.022 1471.55,883.422" fill="none" id="Player-backto-Link" style="stroke:#181818;stroke-width:1;"/><polygon fill="#181818" points="1763.41,745.722,1756.2768,744.6646,1752.5573,750.8424,1759.6905,751.8998,1763.41,745.722" style="stroke:#181818;stroke-width:1;"/></g><!--reverse link Link to Board--><g class="link" data-entity-1="Link" data-entity-2="Board" data-source-line="203" data-uid="lnk49" id="link_Link_Board"><path codeLine="203" d="M1481.9845,1042.6114 C1524.0745,1065.9514 1557.73,1084.602 1593.68,1104.532" fill="none" id="Link-backto-Board" style="stroke:#181818;stroke-width:1;"/><polygon fill="none" points="1471.49,1036.792,1474.7974,1043.1999,1481.9845,1042.6114,1478.6771,1036.2036,1471.49,1036.792" style="stroke:#181818;stroke-width:1;"/></g><!--reverse link Player to PlayerCell--><g class="link" data-entity-1="Player" data-entity-2="PlayerCell" data-source-line="205" data-uid="lnk50" id="link_Player_PlayerCell"><path codeLine="205" d="M1859.8768,815.6516 C1849.3068,944.2216 1842.41,1135.362 1891,1190.912 C1993.76,1308.382 2136.51,1131.492 2237,1250.912 C2271.71,1292.162 2243.57,1357.412 2220.74,1396.602" fill="none" id="Player-backto-PlayerCell" style="stroke:#181818;stroke-width:1;"/><polygon fill="#181818" points="1860.86,803.692,1856.3818,809.3441,1859.8768,815.6516,1864.3549,809.9996,1860.86,803.692" style="stroke:#181818;stroke-width:1;"/></g><!--reverse link PlayerCell to BaseCell--><g class="link" data-entity-1="PlayerCell" data-entity-2="BaseCell" data-source-line="206" data-uid="lnk51" id="link_PlayerCell_BaseCell"><path codeLine="206" d="M2193.2994,1385.4393 C2187.7394,1367.4893 2182.22,1356.472 2172.84,1337.192" fill="none" id="PlayerCell-backto-BaseCell" style="stroke:#181818;stroke-width:1;"/><polygon fill="#181818" points="2196.85,1396.902,2198.8956,1389.9871,2193.2994,1385.4393,2191.2538,1392.3542,2196.85,1396.902" style="stroke:#181818;stroke-width:1;"/></g><!--reverse link BaseCell to PlayerCell--><g class="link" data-entity-1="BaseCell" data-entity-2="PlayerCell" data-source-line="209" data-uid="lnk53" id="link_BaseCell_PlayerCell"><path codeLine="209" d="M2154.1671,1354.2055 C2160.8271,1373.4855 2164.58,1378.952 2173.97,1396.902" fill="none" id="BaseCell-backto-PlayerCell" style="stroke:#181818;stroke-width:1;"/><polygon fill="none" points="2148.29,1337.192,2148.4959,1356.1645,2159.8383,1352.2465,2148.29,1337.192" style="stroke:#181818;stroke-width:1;"/></g><!--reverse link BaseCell to BoardCell--><g class="link" data-entity-1="BaseCell" data-entity-2="BoardCell" data-source-line="208" data-uid="lnk52" id="link_BaseCell_BoardCell"><path codeLine="208" d="M2105.9389,1352.309 C2091.1889,1375.129 2083.31,1387.332 2071.04,1406.312" fill="none" id="BaseCell-backto-BoardCell" style="stroke:#181818;stroke-width:1;"/><polygon fill="none" points="2115.71,1337.192,2100.8999,1349.052,2110.9779,1355.5661,2115.71,1337.192" style="stroke:#181818;stroke-width:1;"/></g><!--reverse link PlayerCell to Server--><g class="link" data-entity-1="PlayerCell" data-entity-2="Server" data-source-line="210" data-uid="lnk54" id="link_PlayerCell_Server"><path codeLine="210" d="M2154.3355,1477.2417 C2135.8055,1496.1917 2125.52,1506.702 2108.82,1523.772" fill="none" id="PlayerCell-backto-Server" style="stroke:#181818;stroke-width:1;"/><polygon fill="none" points="2166.92,1464.372,2150.0456,1473.0469,2158.6254,1481.4366,2166.92,1464.372" style="stroke:#181818;stroke-width:1;"/></g><!--reverse link PlayerCell to Firewall--><g class="link" data-entity-1="PlayerCell" data-entity-2="Firewall" data-source-line="211" data-uid="lnk55" id="link_PlayerCell_Firewall"><path codeLine="211" d="M2199,1482.372 C2199,1501.322 2199,1506.702 2199,1523.772" fill="none" id="PlayerCell-backto-Firewall" style="stroke:#181818;stroke-width:1;"/><polygon fill="none" points="2199,1464.372,2193,1482.372,2205,1482.372,2199,1464.372" style="stroke:#181818;stroke-width:1;"/></g><!--reverse link PlayerCell to Goal--><g class="link" data-entity-1="PlayerCell" data-entity-2="Goal" data-source-line="212" data-uid="lnk56" id="link_PlayerCell_Goal"><path codeLine="212" d="M2241.607,1477.5819 C2259.147,1496.5319 2268.58,1506.702 2284.39,1523.772" fill="none" id="PlayerCell-backto-Goal" style="stroke:#181818;stroke-width:1;"/><polygon fill="none" points="2229.38,1464.372,2237.2037,1481.6575,2246.0103,1473.5062,2229.38,1464.372" style="stroke:#181818;stroke-width:1;"/></g><!--reverse link Link to VirusLink--><g class="link" data-entity-1="Link" data-entity-2="VirusLink" data-source-line="214" data-uid="lnk57" id="link_Link_VirusLink"><path codeLine="214" d="M1288.8205,1062.1423 C1279.2905,1091.1423 1275.15,1103.772 1268.65,1123.552" fill="none" id="Link-backto-VirusLink" style="stroke:#181818;stroke-width:1;"/><polygon fill="none" points="1294.44,1045.042,1283.1204,1060.2691,1294.5206,1064.0155,1294.44,1045.042" style="stroke:#181818;stroke-width:1;"/></g><!--reverse link Link to DataLink--><g class="link" data-entity-1="Link" data-entity-2="DataLink" data-source-line="215" data-uid="lnk58" id="link_Link_DataLink"><path codeLine="215" d="M1359.1795,1062.1423 C1368.7095,1091.1423 1372.85,1103.772 1379.35,1123.552" fill="none" id="Link-backto-DataLink" style="stroke:#181818;stroke-width:1;"/><polygon fill="none" points="1353.56,1045.042,1353.4794,1064.0155,1364.8796,1060.2691,1353.56,1045.042" style="stroke:#181818;stroke-width:1;"/></g><!--reverse link Link to LinkDecorator--><g class="link" data-entity-1="Link" data-entity-2="LinkDecorator" data-source-line="216" data-uid="lnk59" id="link_Link_LinkDecorator"><path codeLine="216" d="M1202.0123,1057.3251 C1175.5323,1082.0451 1162.82,1095.012 1144.58,1114.172" fill="none" id="Link-backto-LinkDecorator" style="stroke:#181818;stroke-width:1;"/><polygon fill="none" points="1215.17,1045.042,1197.9179,1052.9392,1206.1067,1061.711,1215.17,1045.042" style="stroke:#181818;stroke-width:1;"/></g><!--reverse link LinkDecorator to Link--><g class="link" data-entity-1="LinkDecorator" data-entity-2="Link" data-source-line="233" data-uid="lnk73" id="link_LinkDecorator_Link"><path codeLine="233" d="M1174.3069,1106.1727 C1196.7869,1087.0327 1215.37,1069.662 1241.37,1045.042" fill="none" id="LinkDecorator-backto-Link" style="stroke:#181818;stroke-width:1;"/><polygon fill="#181818" points="1165.17,1113.952,1172.3315,1113.1079,1174.3069,1106.1727,1167.1453,1107.0167,1165.17,1113.952" style="stroke:#181818;stroke-width:1;"/></g><!--reverse link LinkDecorator to LinkBoostDecorator--><g class="link" data-entity-1="LinkDecorator" data-entity-2="LinkBoostDecorator" data-source-line="218" data-uid="lnk60" id="link_LinkDecorator_LinkBoostDecorator"><path codeLine="218" d="M1127.7067,1199.3358 C1131.8167,1226.2558 1134.82,1245.932 1138.47,1269.822" fill="none" id="LinkDecorator-backto-LinkBoostDecorator" style="stroke:#181818;stroke-width:1;"/><polygon fill="none" points="1124.99,1181.542,1121.7754,1200.2413,1133.6379,1198.4302,1124.99,1181.542" style="stroke:#181818;stroke-width:1;"/></g><!--reverse link LinkDecorator to PolarizeDecorator--><g class="link" data-entity-1="LinkDecorator" data-entity-2="PolarizeDecorator" data-source-line="219" data-uid="lnk61" id="link_LinkDecorator_PolarizeDecorator"><path codeLine="219" d="M1183.76,1191.7865 C1223.6,1218.6165 1263.98,1245.812 1299.38,1269.662" fill="none" id="LinkDecorator-backto-PolarizeDecorator" style="stroke:#181818;stroke-width:1;"/><polygon fill="none" points="1168.83,1181.732,1180.4085,1196.7632,1187.1116,1186.8098,1168.83,1181.732" style="stroke:#181818;stroke-width:1;"/></g><!--reverse link LinkDecorator to RevealDecorator--><g class="link" data-entity-1="LinkDecorator" data-entity-2="RevealDecorator" data-source-line="220" data-uid="lnk62" id="link_LinkDecorator_RevealDecorator"><path codeLine="220" d="M1192.5674,1189.656 C1199.3874,1193.026 1190.2,1188.212 1197,1190.912 C1295.2,1229.862 1327.78,1214.632 1427,1250.912 C1441.47,1256.202 1456.78,1263.042 1470.49,1269.672" fill="none" id="LinkDecorator-backto-RevealDecorator" style="stroke:#181818;stroke-width:1;"/><polygon fill="none" points="1176.43,1181.682,1189.9094,1195.0351,1195.2254,1184.2769,1176.43,1181.682" style="stroke:#181818;stroke-width:1;"/></g><!--reverse link LinkDecorator to LagDecorator--><g class="link" data-entity-1="LinkDecorator" data-entity-2="LagDecorator" data-source-line="221" data-uid="lnk63" id="link_LinkDecorator_LagDecorator"><path codeLine="221" d="M1191.1245,1189.5655 C1198.3945,1193.0355 1189.63,1188.442 1197,1190.912 C1369.95,1248.872 1429.74,1193.872 1603,1250.912 C1610.53,1253.382 1618.19,1256.542 1625.64,1260.022" fill="none" id="LinkDecorator-backto-LagDecorator" style="stroke:#181818;stroke-width:1;"/><polygon fill="none" points="1174.88,1181.812,1188.5399,1194.9803,1193.709,1184.1507,1174.88,1181.812" style="stroke:#181818;stroke-width:1;"/></g><!--reverse link LinkDecorator to QuantumEntanglementDecorator--><g class="link" data-entity-1="LinkDecorator" data-entity-2="QuantumEntanglementDecorator" data-source-line="222" data-uid="lnk64" id="link_LinkDecorator_QuantumEntanglementDecorator"><path codeLine="222" d="M1190.1942,1189.414 C1197.7442,1192.994 1189.29,1188.502 1197,1190.912 C1437.6,1266.122 1513.7,1202.032 1761,1250.912 C1773.78,1253.432 1787.05,1256.572 1800.15,1260.002" fill="none" id="LinkDecorator-backto-QuantumEntanglementDecorator" style="stroke:#181818;stroke-width:1;"/><polygon fill="none" points="1173.93,1181.702,1187.6235,1194.8354,1192.7649,1183.9926,1173.93,1181.702" style="stroke:#181818;stroke-width:1;"/></g><!--reverse link Ability to FirewallAbility--><g class="link" data-entity-1="Ability" data-entity-2="FirewallAbility" data-source-line="224" data-uid="lnk65" id="link_Ability_FirewallAbility"><path codeLine="224" d="M2435.1003,983.5614 C2515.7203,1010.8414 2635.45,1053.552 2749,1104.772 C2761.46,1110.392 2774.69,1117.122 2786.69,1123.532" fill="none" id="Ability-backto-FirewallAbility" style="stroke:#181818;stroke-width:1;"/><polygon fill="none" points="2418.05,977.792,2433.1772,989.2449,2437.0235,977.878,2418.05,977.792" style="stroke:#181818;stroke-width:1;"/></g><!--reverse link Ability to DownloadAbility--><g class="link" data-entity-1="Ability" data-entity-2="DownloadAbility" data-source-line="225" data-uid="lnk66" id="link_Ability_DownloadAbility"><path codeLine="225" d="M2435.7524,972.9545 C2542.5124,995.7745 2735.44,1040.922 2907,1104.772 C2921.15,1110.042 2936.11,1116.802 2949.55,1123.362" fill="none" id="Ability-backto-DownloadAbility" style="stroke:#181818;stroke-width:1;"/><polygon fill="none" points="2418.15,969.192,2434.4982,978.822,2437.0065,967.087,2418.15,969.192" style="stroke:#181818;stroke-width:1;"/></g><!--reverse link Ability to PolarizeAbility--><g class="link" data-entity-1="Ability" data-entity-2="PolarizeAbility" data-source-line="226" data-uid="lnk67" id="link_Ability_PolarizeAbility"><path codeLine="226" d="M2435.982,964.7147 C2567.932,980.5347 2845.69,1020.752 3081,1104.772 C3094.74,1109.682 3109.06,1116.572 3121.72,1123.362" fill="none" id="Ability-backto-PolarizeAbility" style="stroke:#181818;stroke-width:1;"/><polygon fill="none" points="2418.11,962.572,2435.2678,970.6721,2436.6963,958.7574,2418.11,962.572" style="stroke:#181818;stroke-width:1;"/></g><!--reverse link Ability to ScanAbility--><g class="link" data-entity-1="Ability" data-entity-2="ScanAbility" data-source-line="227" data-uid="lnk68" id="link_Ability_ScanAbility"><path codeLine="227" d="M2263.4086,991.9782 C2197.8586,1020.7582 2113.58,1059.382 2029,1104.772 C2018.37,1110.482 2007.09,1117.102 1996.81,1123.372" fill="none" id="Ability-backto-ScanAbility" style="stroke:#181818;stroke-width:1;"/><polygon fill="none" points="2279.89,984.742,2260.9965,986.4844,2265.8207,997.472,2279.89,984.742" style="stroke:#181818;stroke-width:1;"/></g><!--reverse link Ability to LinkBoostAbility--><g class="link" data-entity-1="Ability" data-entity-2="LinkBoostAbility" data-source-line="228" data-uid="lnk69" id="link_Ability_LinkBoostAbility"><path codeLine="228" d="M2266.1386,1022.9522 C2220.5686,1060.3022 2177.15,1095.892 2143.44,1123.522" fill="none" id="Ability-backto-LinkBoostAbility" style="stroke:#181818;stroke-width:1;"/><polygon fill="none" points="2280.06,1011.542,2262.3352,1018.3118,2269.942,1027.5927,2280.06,1011.542" style="stroke:#181818;stroke-width:1;"/></g><!--reverse link Ability to PappleAbility--><g class="link" data-entity-1="Ability" data-entity-2="PappleAbility" data-source-line="229" data-uid="lnk70" id="link_Ability_PappleAbility"><path codeLine="229" d="M2312.9485,1052.4215 C2301.1785,1084.2015 2294.81,1101.422 2286.68,1123.382" fill="none" id="Ability-backto-PappleAbility" style="stroke:#181818;stroke-width:1;"/><polygon fill="none" points="2319.2,1035.542,2307.322,1050.3377,2318.575,1054.5054,2319.2,1035.542" style="stroke:#181818;stroke-width:1;"/></g><!--reverse link Ability to LagAbility--><g class="link" data-entity-1="Ability" data-entity-2="LagAbility" data-source-line="230" data-uid="lnk71" id="link_Ability_LagAbility"><path codeLine="230" d="M2385.0515,1052.4215 C2396.8215,1084.2015 2403.19,1101.422 2411.32,1123.382" fill="none" id="Ability-backto-LagAbility" style="stroke:#181818;stroke-width:1;"/><polygon fill="none" points="2378.8,1035.542,2379.425,1054.5054,2390.678,1050.3377,2378.8,1035.542" style="stroke:#181818;stroke-width:1;"/></g><!--reverse link Ability to QuantumEntanglementAbility--><g class="link" data-entity-1="Ability" data-entity-2="QuantumEntanglementAbility" data-source-line="231" data-uid="lnk72" id="link_Ability_QuantumEntanglementAbility"><path codeLine="231" d="M2432.6574,1014.908 C2486.1574,1053.198 2543.27,1094.072 2584.38,1123.492" fill="none" id="Ability-backto-QuantumEntanglementAbility" style="stroke:#181818;stroke-width:1;"/><polygon fill="none" points="2418.02,1004.432,2429.1654,1019.7871,2436.1494,1010.0288,2418.02,1004.432" style="stroke:#181818;stroke-width:1;"/></g><!--reverse link View to TextView--><g class="link" data-entity-1="View" data-entity-2="TextView" data-source-line="235" data-uid="lnk74" id="link_View_TextView"><path codeLine="235" d="M3365.1653,455.9677 C3353.7153,523.3677 3337.25,620.362 3328.94,669.282" fill="none" id="View-backto-TextView" style="stroke:#181818;stroke-width:1;"/><polygon fill="none" points="3368.18,438.222,3359.2501,454.9628,3371.0806,456.9726,3368.18,438.222" style="stroke:#181818;stroke-width:1;"/></g><!--reverse link View to GraphicalView--><g class="link" data-entity-1="View" data-entity-2="GraphicalView" data-source-line="236" data-uid="lnk75" id="link_View_GraphicalView"><path codeLine="236" d="M3397.5676,455.4762 C3417.5976,522.8762 3446.57,620.362 3461.1,669.282" fill="none" id="View-backto-GraphicalView" style="stroke:#181818;stroke-width:1;"/><polygon fill="none" points="3392.44,438.222,3391.8162,457.1854,3403.319,453.767,3392.44,438.222" style="stroke:#181818;stroke-width:1;"/></g><!--reverse link Controller to Game--><g class="link" data-entity-1="Controller" data-entity-2="Game" data-source-line="238" data-uid="lnk76" id="link_Controller_Game"><path codeLine="238" d="M2095.0646,177.2754 C2070.2946,200.2654 2049.83,219.252 2020.59,246.392" fill="none" id="Controller-backto-Game" style="stroke:#181818;stroke-width:1;"/><polygon fill="none" points="2103.86,169.112,2096.7412,170.2619,2095.0646,177.2754,2102.1834,176.1255,2103.86,169.112" style="stroke:#181818;stroke-width:1;"/></g><!--reverse link Controller to View--><g class="link" data-entity-1="Controller" data-entity-2="View" data-source-line="239" data-uid="lnk77" id="link_Controller_View"><path codeLine="239" d="M2374.6486,132.7269 C2542.4586,152.3669 2780.49,178.022 2999,192.872 C3025.62,194.682 3215.33,188.562 3239,200.872 C3292.91,228.912 3331.57,288.622 3354.01,332.332" fill="none" id="Controller-backto-View" style="stroke:#181818;stroke-width:1;"/><polygon fill="none" points="2362.73,131.332,2368.2243,136.0023,2374.6486,132.7269,2369.1543,128.0566,2362.73,131.332" style="stroke:#181818;stroke-width:1;"/></g><!--link LinkFactory to Link--><g class="link" data-entity-1="LinkFactory" data-entity-2="Link" data-source-line="241" data-uid="lnk78" id="link_LinkFactory_Link"><path codeLine="241" d="M564.45,920.152 C596.96,890.732 648.64,850.272 702.5,833.292 C861.06,783.322 1043.6189,832.3394 1171.0489,882.6294" fill="none" id="LinkFactory-to-Link" style="stroke:#181818;stroke-width:1;stroke-dasharray:7.0,7.0;"/><polygon fill="#181818" points="1176.63,884.832,1169.7267,877.8074,1171.9791,882.9965,1166.79,885.2489,1176.63,884.832" style="stroke:#181818;stroke-width:1;"/></g><!--link AbilityFactory to Ability--><g class="link" data-entity-1="AbilityFactory" data-entity-2="Ability" data-source-line="242" data-uid="lnk79" id="link_AbilityFactory_Ability"><path codeLine="242" d="M895.9,920.052 C936.07,890.572 999.09,850.062 1061.5,833.292 C1233.62,787.062 1686.6,811.632 1863.5,833.292 C2014.8,851.832 2181.1101,899.8801 2274.3301,929.4101" fill="none" id="AbilityFactory-to-Ability" style="stroke:#181818;stroke-width:1;stroke-dasharray:7.0,7.0;"/><polygon fill="#181818" points="2280.05,931.222,2272.6781,924.6908,2275.2834,929.712,2270.2622,932.3173,2280.05,931.222" style="stroke:#181818;stroke-width:1;"/></g><!--link LinkDecoratorFactory to LinkDecorator--><g class="link" data-entity-1="LinkDecoratorFactory" data-entity-2="LinkDecorator" data-source-line="243" data-uid="lnk80" id="link_LinkDecoratorFactory_LinkDecorator"><path codeLine="243" d="M246.02,987.972 C281.76,1007.512 329.73,1031.072 375,1044.772 C622.09,1119.552 925.9851,1139.4642 1054.2251,1144.7642" fill="none" id="LinkDecoratorFactory-to-LinkDecorator" style="stroke:#181818;stroke-width:1;stroke-dasharray:7.0,7.0;"/><polygon fill="#181818" points="1060.22,1145.012,1051.3929,1140.6438,1055.2243,1144.8055,1051.0625,1148.6369,1060.22,1145.012" style="stroke:#181818;stroke-width:1;"/></g><!--SRC=[XLPjSnet4Fv-lqBZpZI4clw0nCCCnawR6PAq1ZkVnPqC6kwagwI3KDV_lQjN9DtvyW4G- -oRTbUx-mxDPZDqpxf6wbFHulA0TmHT4KswGYy5Glg8xgWWfQAS6H92NxyzRFuqf_MtHtUwNwmtvl3ztXnUuUFbLvGTDkUMEF6dpm-FQtEwMsmMXlUrA8ftnfqll28rMjPOIfAvrMZeoYafDGVw0pTUAq8pT0GtkRZvgyPd8kQeDRyom9GfL7P24AOiosTMaHyV0txBiQZGLdyNZlWREd9Q8QcmKDhOv7qACF93RJh18hhHCaKxeimfGhQSrwZSa_BmdR8LbpB2h4D6R1cx6B5ezm6EN9yugSof1X_85tuaatAF1QeX-jV872igCbQvvwV4tc9BQwhE-JqxIJoYtQ3LjG-sL8Ao7GGR2zn8A_PQH3coKUqboVtSOacMfAxdSnluZqKQhWRkeUjdeh-cxZ8jfk86_BZMCPcZadDHfQRn5lp2fV8-E2kH6rOVBykknKpfVrdEERjd2X9W6D-wLwHqsBADQcRR9vkV615zpMiYZaIaQYto2LxY2USctLlWU91kZKNMi-X1IQrBBaYU89VlwHokf4-Ko9p5X6PkaY8lqNj3VrnIkGNWMNWZ4PzdkE2zmgmWXZN7LLGVEGUfYSfhwC9ZQM30S8GNCrPDclFjUDfgJ9eEI1EsKtiq5gIbaSll9mEGIJ1oMaPr7mG4-QSZKfdtVsdSoSjtZMJjl9gamJ2T6c3zEnce-oSgEXc5807liC9zR21-TmHg0aCLX43-ubAnXRUA-ferUCkvLBbaMkoyneB-IqQP7iYHu7gKPOLtVGzjCXMqUxaYpwelzNS7hQHhe6zWjgj90rrrI8kz9pHCbJt_B4wkv8EabhNj5Z6OHH7Lj4heqM5knOqxv3SqLIeVWJUXky4X3Zt4MOIA-7ePW8DTAVKthGltJ4TOVEf6MDObPYDmA94nAxXjwp4RaFaHT233EVUhNsMUA3aDRp97GFmYa-NS2BtqijXMM95-mYegzPBJ1nXNzFdizmEt2GsaRWFxIsGo7IW2jtjQuZfX2DTRSgO4hskOBUQIwHNBWAORMoGLbtMw56Y3i13eCCc8IIzWqAfrwUVt5HtJw8hpjXyCU6am_ddJO5PDm36fEtBruOEjx5-XOni8oeUyps_v2MkFpiDvVBPWUaDTXLxg9HipfI2GHviLCsz-cY1NNNs5OJR6ElsG_AdQf0KFUnjWRo8XzcPflCG_a1hhiIFtjBKXAyocFfsv9VlortfQ57PBD0nkLol2qiPdjcSMXTjbD9kxQanoJ6R-y60guRYiOqMqcILcBtPl_lDAKdyCVLYJWTp-rgE7xQs7wDtDEMx-XnaRqVneZKX9HgpyPTu4ZdHg3d7rfkOGKpOr1wr5KtC87vkFHU4RQH8hd-O4pAP92cPp90MZ2P82-Up8TCPJ8nCCyoAblpqfyaHDGtcRHckaVL-EI4axBegeaUfQDmyg9rhEk27zFhUcihO2PE_SO6TmOfTa_Gy0]--></g></svg>